<svg width="119" height="119" viewBox="0 0 119 119" fill="none" xmlns="http://www.w3.org/2000/svg">
<path fill-rule="evenodd" clip-rule="evenodd" d="M112.456 28.9086H6.61414V21.762C6.61414 20.2118 7.90311 18.9549 9.49292 18.9549H109.578C111.168 18.9549 112.456 20.2118 112.456 21.762V28.9086Z" fill="#253368"/>
<path fill-rule="evenodd" clip-rule="evenodd" d="M14.0359 23.6282C14.0359 24.6011 13.232 25.3899 12.2403 25.3899C11.2488 25.3899 10.445 24.6011 10.445 23.6282C10.445 22.6553 11.2488 21.8665 12.2403 21.8665C13.232 21.8665 14.0359 22.6553 14.0359 23.6282Z" fill="#FF7946"/>
<path fill-rule="evenodd" clip-rule="evenodd" d="M20.7396 23.6282C20.7396 24.6011 19.9358 25.3899 18.9441 25.3899C17.9526 25.3899 17.1488 24.6011 17.1488 23.6282C17.1488 22.6553 17.9526 21.8665 18.9441 21.8665C19.9358 21.8665 20.7396 22.6553 20.7396 23.6282Z" fill="#FAAD14"/>
<path fill-rule="evenodd" clip-rule="evenodd" d="M27.4434 23.6282C27.4434 24.6011 26.6397 25.3899 25.648 25.3899C24.6565 25.3899 23.8527 24.6011 23.8527 23.6282C23.8527 22.6553 24.6565 21.8665 25.648 21.8665C26.6397 21.8665 27.4434 22.6553 27.4434 23.6282Z" fill="#7CB305"/>
<path fill-rule="evenodd" clip-rule="evenodd" d="M9.71786 100.058C7.94511 100.058 6.50781 98.7658 6.50781 97.1723V28.4717H112.492V97.1723C112.492 98.7658 111.055 100.058 109.282 100.058H9.71786Z" fill="#E4EBF7"/>
<path d="M102.609 33.7012H17.3204C16.6116 33.7012 16.0371 34.2757 16.0371 34.9844V93.5449C16.0371 94.2536 16.6116 94.8281 17.3204 94.8281H102.609C103.318 94.8281 103.893 94.2536 103.893 93.5449V34.9844C103.893 34.2757 103.318 33.7012 102.609 33.7012Z" fill="white"/>
<path fill-rule="evenodd" clip-rule="evenodd" d="M54.1543 91.458C54.1543 91.9714 53.7381 92.3877 53.2246 92.3877C52.7111 92.3877 52.2949 91.9714 52.2949 91.458C52.2949 90.9446 52.7111 90.5283 53.2246 90.5283C53.7381 90.5283 54.1543 90.9446 54.1543 91.458Z" fill="#CCD7EE"/>
<path fill-rule="evenodd" clip-rule="evenodd" d="M59.9648 91.458C59.9648 91.9714 59.5486 92.3877 59.0351 92.3877C58.5217 92.3877 58.1055 91.9714 58.1055 91.458C58.1055 90.9446 58.5217 90.5283 59.0351 90.5283C59.5486 90.5283 59.9648 90.9446 59.9648 91.458Z" fill="#CCD7EE"/>
<path fill-rule="evenodd" clip-rule="evenodd" d="M65.6592 91.458C65.6592 91.9714 65.243 92.3877 64.7295 92.3877C64.216 92.3877 63.7998 91.9714 63.7998 91.458C63.7998 90.9446 64.216 90.5283 64.7295 90.5283C65.243 90.5283 65.6592 90.9446 65.6592 91.458Z" fill="#597EF7"/>
<path fill-rule="evenodd" clip-rule="evenodd" d="M71.3535 91.458C71.3535 91.9714 70.9373 92.3877 70.4238 92.3877C69.9104 92.3877 69.4941 91.9714 69.4941 91.458C69.4941 90.9446 69.9104 90.5283 70.4238 90.5283C70.9373 90.5283 71.3535 90.9446 71.3535 91.458Z" fill="#CCD7EE"/>
<path d="M88.1185 81C86.0604 81 84.4489 76.694 84.4489 71.1965C84.4489 65.6989 86.0604 61.3844 88.1185 61.3844C90.1766 61.3844 91.7882 65.6905 91.7882 71.188C91.7882 76.6855 90.1766 81 88.1185 81ZM88.1185 62.029C86.6536 62.029 85.0867 65.7138 85.0867 71.1965C85.0867 76.6791 86.6536 80.364 88.1185 80.364C89.5834 80.364 91.1504 76.6813 91.1504 71.1965C91.1504 65.7117 89.5834 62.0205 88.1185 62.0205V62.029Z" fill="#FFC727"/>
<path d="M81.9634 77.0735C80.794 77.0735 79.9754 76.7428 79.6055 76.1025C79.0846 75.2035 79.5332 73.853 80.8663 72.3011C82.1292 70.8318 84.0555 69.3159 86.2836 68.0332C88.5118 66.7505 90.7931 65.8452 92.7002 65.489C94.7158 65.1138 96.102 65.4 96.6314 66.2989C97.1608 67.1979 96.7037 68.5484 95.3706 70.1004C94.1077 71.5696 92.1815 73.0855 89.9533 74.3703C87.7251 75.6551 85.4438 76.5562 83.5367 76.9145C83.0183 77.0156 82.4916 77.0689 81.9634 77.0735ZM94.2948 65.9618C93.7994 65.9681 93.3055 66.0192 92.8193 66.1145C90.9823 66.458 88.7797 67.3336 86.6047 68.5823C84.4297 69.8311 82.5651 71.3004 81.3532 72.7145C80.2242 74.029 79.7905 75.1463 80.1583 75.7845C80.5261 76.4226 81.7167 76.605 83.4219 76.2869C85.2588 75.9456 87.4615 75.0678 89.6365 73.8191C91.8115 72.5703 93.6761 71.1011 94.888 69.6869C96.017 68.3746 96.4507 67.2551 96.0829 66.617C95.8299 66.1802 95.2027 65.9576 94.2927 65.9576L94.2948 65.9618Z" fill="#FFC727"/>
<path d="M94.2736 77.0735C93.7453 77.0681 93.2186 77.0141 92.7002 76.9124C90.7867 76.5562 88.5139 75.653 86.2836 74.3682C84.0533 73.0834 82.1292 71.5611 80.8663 70.0961C79.5332 68.5442 79.0846 67.1936 79.6055 66.2947C80.1264 65.3958 81.519 65.1095 83.5367 65.4848C85.4502 65.841 87.723 66.7442 89.9533 68.029C92.1836 69.3138 94.1077 70.8276 95.3706 72.2968C96.7037 73.8488 97.1523 75.1993 96.6314 76.0982C96.2615 76.7385 95.4429 77.0735 94.2736 77.0735ZM81.9421 65.9618C81.0321 65.9618 80.4049 66.1844 80.154 66.617C79.7862 67.253 80.2199 68.3746 81.3489 69.6869C82.5651 71.1011 84.4318 72.5703 86.6004 73.8191C88.7691 75.0678 90.9781 75.9392 92.815 76.2869C94.5159 76.6049 95.7087 76.4226 96.0786 75.7845C96.4486 75.1463 96.0127 74.029 94.8838 72.7145C93.6676 71.3004 91.803 69.8332 89.6322 68.5823C87.4615 67.3314 85.2546 66.4622 83.4176 66.1145C82.9323 66.0179 82.4391 65.9654 81.9442 65.9576L81.9421 65.9618Z" fill="#FFC727"/>
<path d="M88.1186 72.6361C88.9159 72.6361 89.5622 71.9915 89.5622 71.1965C89.5622 70.4014 88.9159 69.7569 88.1186 69.7569C87.3213 69.7569 86.675 70.4014 86.675 71.1965C86.675 71.9915 87.3213 72.6361 88.1186 72.6361Z" fill="#FFC727"/>
<path d="M45.5665 64.1004L35.695 80.4042L25.8213 64.1004H33.167L35.695 68.8346L38.2208 64.1004H45.5665Z" fill="#FFC727"/>
<path opacity="0.1" d="M41.78 64.1004L35.695 74.4424L29.608 64.1004H33.1671L35.695 68.8346L38.2208 64.1004H41.78Z" fill="#000102"/>
<path d="M73.2632 47.2728L70.7459 61.4396L62.4328 64.0728L54.1197 61.4396L51.6024 47.2728L62.4328 42L73.2632 47.2728Z" fill="#FFC727"/>
<path opacity="0.1" d="M62.4328 62.9449V43.1279L72.1449 47.8558L69.8891 60.5619L62.4328 62.9449Z" fill="black"/>
<path d="M61.4805 47.3618H63.394L67.6462 58.4989H65.4096L64.372 55.7215H60.4749L59.4564 58.4989H57.2177L61.4805 47.3618ZM63.9829 54.1993L62.433 49.8233L60.8278 54.1993H63.9829Z" fill="white"/>
</svg>
