<svg width="119" height="119" viewBox="0 0 119 119" fill="none" xmlns="http://www.w3.org/2000/svg">
<path fill-rule="evenodd" clip-rule="evenodd" d="M112.456 28.9086H6.61414V21.7621C6.61414 20.2118 7.90311 18.9549 9.49292 18.9549H109.578C111.168 18.9549 112.456 20.2118 112.456 21.7621V28.9086Z" fill="#253368"/>
<path fill-rule="evenodd" clip-rule="evenodd" d="M14.0359 23.6282C14.0359 24.6012 13.232 25.39 12.2403 25.39C11.2488 25.39 10.445 24.6012 10.445 23.6282C10.445 22.6553 11.2488 21.8665 12.2403 21.8665C13.232 21.8665 14.0359 22.6553 14.0359 23.6282Z" fill="#FF7946"/>
<path fill-rule="evenodd" clip-rule="evenodd" d="M20.7396 23.6282C20.7396 24.6012 19.9358 25.39 18.9441 25.39C17.9526 25.39 17.1488 24.6012 17.1488 23.6282C17.1488 22.6553 17.9526 21.8665 18.9441 21.8665C19.9358 21.8665 20.7396 22.6553 20.7396 23.6282Z" fill="#FAAD14"/>
<path fill-rule="evenodd" clip-rule="evenodd" d="M27.4434 23.6282C27.4434 24.6012 26.6397 25.39 25.648 25.39C24.6565 25.39 23.8527 24.6012 23.8527 23.6282C23.8527 22.6553 24.6565 21.8665 25.648 21.8665C26.6397 21.8665 27.4434 22.6553 27.4434 23.6282Z" fill="#7CB305"/>
<path fill-rule="evenodd" clip-rule="evenodd" d="M9.71786 100.058C7.94511 100.058 6.50781 98.7658 6.50781 97.1723V28.4717H112.492V97.1723C112.492 98.7658 111.055 100.058 109.282 100.058H9.71786Z" fill="#E4EBF7"/>
<path d="M102.609 33.7012H17.3204C16.6116 33.7012 16.0371 34.2757 16.0371 34.9844V93.5449C16.0371 94.2536 16.6116 94.8281 17.3204 94.8281H102.609C103.318 94.8281 103.893 94.2536 103.893 93.5449V34.9844C103.893 34.2757 103.318 33.7012 102.609 33.7012Z" fill="white"/>
<path fill-rule="evenodd" clip-rule="evenodd" d="M54.1543 91.458C54.1543 91.9714 53.7381 92.3877 53.2246 92.3877C52.7111 92.3877 52.2949 91.9714 52.2949 91.458C52.2949 90.9446 52.7111 90.5283 53.2246 90.5283C53.7381 90.5283 54.1543 90.9446 54.1543 91.458Z" fill="#CCD7EE"/>
<path fill-rule="evenodd" clip-rule="evenodd" d="M59.9648 91.458C59.9648 91.9714 59.5486 92.3877 59.0351 92.3877C58.5217 92.3877 58.1055 91.9714 58.1055 91.458C58.1055 90.9446 58.5217 90.5283 59.0351 90.5283C59.5486 90.5283 59.9648 90.9446 59.9648 91.458Z" fill="#CCD7EE"/>
<path fill-rule="evenodd" clip-rule="evenodd" d="M65.6592 91.458C65.6592 91.9714 65.243 92.3877 64.7295 92.3877C64.216 92.3877 63.7998 91.9714 63.7998 91.458C63.7998 90.9446 64.216 90.5283 64.7295 90.5283C65.243 90.5283 65.6592 90.9446 65.6592 91.458Z" fill="#597EF7"/>
<path fill-rule="evenodd" clip-rule="evenodd" d="M71.3535 91.458C71.3535 91.9714 70.9373 92.3877 70.4238 92.3877C69.9104 92.3877 69.4941 91.9714 69.4941 91.458C69.4941 90.9446 69.9104 90.5283 70.4238 90.5283C70.9373 90.5283 71.3535 90.9446 71.3535 91.458Z" fill="#CCD7EE"/>
<path d="M34.7572 68.5005C34.7586 70.3927 35.4741 72.2146 36.7605 73.6015C38.0469 74.9883 39.8092 75.8379 41.6948 75.98V76H84.147C86.4099 75.9961 88.5846 75.1212 90.2203 73.5565C91.8561 71.9918 92.8276 69.8573 92.9334 67.5953C93.0393 65.3333 92.2714 63.1173 90.789 61.4065C89.3065 59.6956 87.2231 58.6211 84.9705 58.4056C84.8683 54.9553 83.5677 51.6484 81.2926 49.0539C79.0174 46.4593 75.9098 44.7392 72.5043 44.1895C69.0989 43.6398 65.6084 44.2947 62.6334 46.0418C59.6583 47.7888 57.3846 50.5187 56.2034 53.7618C54.982 53.1452 53.6325 52.8257 52.2645 52.8294C50.0221 52.8289 47.8639 53.6842 46.2299 55.2208C44.5958 56.7575 43.6088 58.8599 43.47 61.0995C43.0674 61.0322 42.6598 60.9987 42.2515 60.9994C40.2642 61.0012 38.3587 61.7921 36.9536 63.1985C35.5485 64.6049 34.7585 66.5118 34.7572 68.5005Z" fill="#FFC727"/>
<g opacity="0.1">
<path opacity="0.1" d="M34.7572 68.5005C34.7586 70.3927 35.4741 72.2146 36.7605 73.6015C38.0469 74.9883 39.8092 75.8379 41.6948 75.98V76H84.147C86.4099 75.9961 88.5846 75.1212 90.2203 73.5565C91.8561 71.9918 92.8276 69.8573 92.9334 67.5953C93.0393 65.3333 92.2714 63.1173 90.789 61.4065C89.3065 59.6956 87.2231 58.6211 84.9705 58.4056C84.8683 54.9553 83.5677 51.6484 81.2926 49.0539C79.0174 46.4593 75.9098 44.7392 72.5043 44.1895C69.0989 43.6398 65.6084 44.2947 62.6334 46.0418C59.6583 47.7888 57.3846 50.5187 56.2034 53.7618C54.982 53.1452 53.6325 52.8257 52.2645 52.8294C50.0221 52.8289 47.8639 53.6842 46.2299 55.2208C44.5958 56.7575 43.6088 58.8599 43.47 61.0995C43.0674 61.0322 42.6598 60.9987 42.2515 60.9994C40.2642 61.0012 38.3587 61.7921 36.9536 63.1985C35.5485 64.6049 34.7585 66.5118 34.7572 68.5005Z" fill="black"/>
</g>
<path d="M32.1885 68.5005C32.1899 70.3927 32.9054 72.2146 34.1917 73.6015C35.4781 74.9883 37.2405 75.8379 39.1261 75.98V76H81.575C83.8387 75.9987 86.0151 75.1255 87.6528 73.5616C89.2905 71.9977 90.2638 69.863 90.371 67.6003C90.4782 65.3375 89.711 63.1203 88.2285 61.4084C86.746 59.6965 84.6619 58.6212 82.4084 58.4056C82.3062 54.9553 81.0057 51.6484 78.7305 49.0539C76.4553 46.4593 73.3477 44.7392 69.9423 44.1895C66.5368 43.6398 63.0464 44.2947 60.0713 46.0418C57.0962 47.7888 54.8225 50.5187 53.6413 53.7618C52.4201 53.1448 51.0705 52.8253 49.7024 52.8294C47.459 52.8269 45.2991 53.6813 43.6638 55.2182C42.0284 56.7551 41.041 58.8587 40.903 61.0995C40.5003 61.0323 40.0927 60.9988 39.6845 60.9994C37.6968 61.0007 35.7909 61.7915 34.3855 63.1979C32.98 64.6043 32.1898 66.5115 32.1885 68.5005Z" fill="#FFC727"/>
<path d="M56.6785 60.052L55.3066 58.9944C56.1697 57.8768 57.3318 57.0272 58.6581 56.5442C59.9845 56.0612 61.4205 55.9646 62.7995 56.2658C64.1784 56.5669 65.4437 57.2534 66.4484 58.2454C67.453 59.2374 68.1558 60.4943 68.475 61.8701L66.7882 62.2621C66.5443 61.204 66.0051 60.2369 65.2333 59.4736C64.4615 58.7102 63.4888 58.182 62.4286 57.9504C61.3684 57.7188 60.2643 57.7934 59.2448 58.1655C58.2253 58.5375 57.3324 59.1918 56.6702 60.052H56.6785Z" fill="white"/>
<path d="M65.0711 61.363L67.4981 65.5465L69.9067 61.3513L65.0711 61.363Z" fill="white"/>
<g opacity="0.2">
<path opacity="0.2" d="M56.6785 60.052L55.3066 58.9944C56.1697 57.8768 57.3318 57.0272 58.6581 56.5442C59.9845 56.0612 61.4205 55.9646 62.7995 56.2658C64.1784 56.5669 65.4437 57.2534 66.4484 58.2454C67.453 59.2374 68.1558 60.4943 68.475 61.8701L66.7882 62.2621C66.5443 61.204 66.0051 60.2369 65.2333 59.4736C64.4615 58.7102 63.4888 58.182 62.4286 57.9504C61.3684 57.7188 60.2643 57.7934 59.2448 58.1655C58.2253 58.5375 57.3324 59.1918 56.6702 60.052H56.6785Z" fill="white"/>
<path opacity="0.2" d="M65.071 61.363L67.498 65.5464L69.9067 61.3513L65.071 61.363Z" fill="white"/>
</g>
<path d="M59.1036 70.257C57.8699 69.8604 56.7599 69.1507 55.8818 68.1972C55.0036 67.2436 54.3874 66.0787 54.093 64.8159L55.7798 64.4255C56.0302 65.5146 56.5931 66.5067 57.3994 67.2799C58.2057 68.0531 59.2203 68.5736 60.3183 68.7774C61.4163 68.9812 62.55 68.8594 63.5797 68.4271C64.6095 67.9947 65.4906 67.2706 66.1145 66.3438L67.5514 67.3112C66.6462 68.645 65.3359 69.6517 63.8144 70.1823C62.2929 70.7128 60.6411 70.739 59.1036 70.257Z" fill="white"/>
<path d="M57.505 65.3313L55.0781 61.1462L52.6711 65.3413L57.505 65.3313Z" fill="white"/>
</svg>
