<svg width="119" height="119" viewBox="0 0 119 119" fill="none" xmlns="http://www.w3.org/2000/svg">
<path fill-rule="evenodd" clip-rule="evenodd" d="M112.456 28.9086H6.61414V21.762C6.61414 20.2118 7.90311 18.9549 9.49292 18.9549H109.578C111.168 18.9549 112.456 20.2118 112.456 21.762V28.9086Z" fill="#253368"/>
<path fill-rule="evenodd" clip-rule="evenodd" d="M14.0359 23.6282C14.0359 24.6011 13.232 25.3899 12.2403 25.3899C11.2488 25.3899 10.445 24.6011 10.445 23.6282C10.445 22.6553 11.2488 21.8665 12.2403 21.8665C13.232 21.8665 14.0359 22.6553 14.0359 23.6282Z" fill="#FF7946"/>
<path fill-rule="evenodd" clip-rule="evenodd" d="M20.7396 23.6282C20.7396 24.6011 19.9358 25.3899 18.9441 25.3899C17.9526 25.3899 17.1488 24.6011 17.1488 23.6282C17.1488 22.6553 17.9526 21.8665 18.9441 21.8665C19.9358 21.8665 20.7396 22.6553 20.7396 23.6282Z" fill="#FAAD14"/>
<path fill-rule="evenodd" clip-rule="evenodd" d="M27.4434 23.6282C27.4434 24.6011 26.6397 25.3899 25.648 25.3899C24.6565 25.3899 23.8527 24.6011 23.8527 23.6282C23.8527 22.6553 24.6565 21.8665 25.648 21.8665C26.6397 21.8665 27.4434 22.6553 27.4434 23.6282Z" fill="#7CB305"/>
<path fill-rule="evenodd" clip-rule="evenodd" d="M9.71786 100.058C7.94511 100.058 6.50781 98.7658 6.50781 97.1723V28.4717H112.492V97.1723C112.492 98.7658 111.055 100.058 109.282 100.058H9.71786Z" fill="#E4EBF7"/>
<path d="M102.609 33.7012H17.3204C16.6116 33.7012 16.0371 34.2757 16.0371 34.9844V93.5449C16.0371 94.2536 16.6116 94.8281 17.3204 94.8281H102.609C103.318 94.8281 103.893 94.2536 103.893 93.5449V34.9844C103.893 34.2757 103.318 33.7012 102.609 33.7012Z" fill="white"/>
<path fill-rule="evenodd" clip-rule="evenodd" d="M54.1543 91.458C54.1543 91.9714 53.7381 92.3877 53.2246 92.3877C52.7111 92.3877 52.2949 91.9714 52.2949 91.458C52.2949 90.9446 52.7111 90.5283 53.2246 90.5283C53.7381 90.5283 54.1543 90.9446 54.1543 91.458Z" fill="#CCD7EE"/>
<path fill-rule="evenodd" clip-rule="evenodd" d="M59.9648 91.458C59.9648 91.9714 59.5486 92.3877 59.0351 92.3877C58.5217 92.3877 58.1055 91.9714 58.1055 91.458C58.1055 90.9446 58.5217 90.5283 59.0351 90.5283C59.5486 90.5283 59.9648 90.9446 59.9648 91.458Z" fill="#CCD7EE"/>
<path fill-rule="evenodd" clip-rule="evenodd" d="M65.6592 91.458C65.6592 91.9714 65.243 92.3877 64.7295 92.3877C64.216 92.3877 63.7998 91.9714 63.7998 91.458C63.7998 90.9446 64.216 90.5283 64.7295 90.5283C65.243 90.5283 65.6592 90.9446 65.6592 91.458Z" fill="#597EF7"/>
<path fill-rule="evenodd" clip-rule="evenodd" d="M71.3535 91.458C71.3535 91.9714 70.9373 92.3877 70.4238 92.3877C69.9104 92.3877 69.4941 91.9714 69.4941 91.458C69.4941 90.9446 69.9104 90.5283 70.4238 90.5283C70.9373 90.5283 71.3535 90.9446 71.3535 91.458Z" fill="#CCD7EE"/>
<path fill-rule="evenodd" clip-rule="evenodd" d="M61.6235 79.3552H61.1433C60.4832 79.3552 59.9429 78.8164 59.9429 78.1575V68.5763C59.9429 67.9174 60.4832 67.3786 61.1433 67.3786H61.6235C62.2836 67.3786 62.8239 67.9174 62.8239 68.5763V78.1575C62.8239 78.8164 62.2836 79.3552 61.6235 79.3552Z" fill="#253368"/>
<path fill-rule="evenodd" clip-rule="evenodd" d="M75.8893 79.713C75.8893 80.5069 75.2445 81.1503 74.4488 81.1503H48.5209C47.7252 81.1503 47.0804 80.5069 47.0804 79.713C47.0804 78.9194 47.7252 78.2758 48.5209 78.2758H74.4488C75.2445 78.2758 75.8893 78.9194 75.8893 79.713Z" fill="#253368"/>
<path fill-rule="evenodd" clip-rule="evenodd" d="M57.2874 82.141C56.8913 82.141 56.5674 81.8176 56.5674 81.4224V78.0036C56.5674 77.6084 56.8913 77.2852 57.2874 77.2852H65.4794C65.8755 77.2852 66.1997 77.6084 66.1997 78.0036V81.4224C66.1997 81.8176 65.8755 82.141 65.4794 82.141H57.2874Z" fill="#ADC6FF"/>
<path d="M57.7635 77.9933V81.433" stroke="#597EF7" stroke-width="6" stroke-linecap="round" stroke-linejoin="round"/>
<path d="M64.8836 77.9933V81.433" stroke="#597EF7" stroke-width="6" stroke-linecap="round" stroke-linejoin="round"/>
<path fill-rule="evenodd" clip-rule="evenodd" d="M47.9793 72.9261H74.9901V41.4456H47.9793V72.9261Z" fill="#253368"/>
<path fill-rule="evenodd" clip-rule="evenodd" d="M47.8581 73.1977C47.182 73.1977 46.6288 72.6458 46.6288 71.9715V64.7221C46.6288 64.0478 47.182 63.4959 47.8581 63.4959H75.1117C75.7876 63.4959 76.341 64.0478 76.341 64.7221V71.9715C76.341 72.6458 75.7876 73.1977 75.1117 73.1977H47.8581Z" fill="#ADC6FF"/>
<path fill-rule="evenodd" clip-rule="evenodd" d="M47.8581 50.5477C47.182 50.5477 46.6288 49.9958 46.6288 49.3212V42.0721C46.6288 41.3977 47.182 40.8456 47.8581 40.8456H75.1117C75.7876 40.8456 76.341 41.3977 76.341 42.0721V49.3212C76.341 49.9958 75.7876 50.5477 75.1117 50.5477H47.8581Z" fill="#ADC6FF"/>
<path fill-rule="evenodd" clip-rule="evenodd" d="M50.0728 46.6165C49.5638 46.6165 49.1511 46.2045 49.1511 45.6966C49.1511 45.1887 49.5638 44.777 50.0728 44.777C50.5821 44.777 50.9948 45.1887 50.9948 45.6966C50.9948 46.2045 50.5821 46.6165 50.0728 46.6165Z" fill="white"/>
<path fill-rule="evenodd" clip-rule="evenodd" d="M51.9922 45.6966C51.9922 45.1887 52.4049 44.777 52.9142 44.777C53.4232 44.777 53.8362 45.1887 53.8362 45.6966C53.8362 46.2045 53.4232 46.6165 52.9142 46.6165C52.4049 46.6165 51.9922 46.2045 51.9922 45.6966Z" fill="white"/>
<path fill-rule="evenodd" clip-rule="evenodd" d="M55.7556 46.6165C55.2463 46.6165 54.8337 46.2045 54.8337 45.6966C54.8337 45.1887 55.2463 44.777 55.7556 44.777C56.2647 44.777 56.6773 45.1887 56.6773 45.6966C56.6773 46.2045 56.2647 46.6165 55.7556 46.6165Z" fill="white"/>
<path fill-rule="evenodd" clip-rule="evenodd" d="M65.5395 46.6165C65.3991 46.6165 65.2853 46.503 65.2853 46.3628V45.0307C65.2853 44.8905 65.3991 44.777 65.5395 44.777H74.2496C74.39 44.777 74.5038 44.8905 74.5038 45.0307V46.3628C74.5038 46.503 74.39 46.6165 74.2496 46.6165H65.5395Z" fill="#597EF7"/>
<path fill-rule="evenodd" clip-rule="evenodd" d="M47.8581 61.8727C47.182 61.8727 46.6288 61.3208 46.6288 60.6462V53.3971C46.6288 52.7228 47.182 52.1706 47.8581 52.1706H75.1117C75.7876 52.1706 76.341 52.7228 76.341 53.3971V60.6462C76.341 61.3208 75.7876 61.8727 75.1117 61.8727H47.8581Z" fill="#ADC6FF"/>
<path fill-rule="evenodd" clip-rule="evenodd" d="M50.0728 58.2701C49.5638 58.2701 49.1511 57.8584 49.1511 57.3503C49.1511 56.8424 49.5638 56.4306 50.0728 56.4306C50.5821 56.4306 50.9948 56.8424 50.9948 57.3503C50.9948 57.8584 50.5821 58.2701 50.0728 58.2701Z" fill="#FF7946"/>
<path fill-rule="evenodd" clip-rule="evenodd" d="M52.9142 58.2701C52.4049 58.2701 51.9922 57.8584 51.9922 57.3503C51.9922 56.8424 52.4049 56.4306 52.9142 56.4306C53.4232 56.4306 53.8362 56.8424 53.8362 57.3503C53.8362 57.8584 53.4232 58.2701 52.9142 58.2701Z" fill="#253368"/>
<path fill-rule="evenodd" clip-rule="evenodd" d="M55.7556 58.2701C55.2463 58.2701 54.8337 57.8584 54.8337 57.3503C54.8337 56.8424 55.2463 56.4306 55.7556 56.4306C56.2647 56.4306 56.6773 56.8424 56.6773 57.3503C56.6773 57.8584 56.2647 58.2701 55.7556 58.2701Z" fill="#253368"/>
<path fill-rule="evenodd" clip-rule="evenodd" d="M74.1966 58.2701H65.5927C65.4228 58.2701 65.2853 58.133 65.2853 57.9635V56.737C65.2853 56.5678 65.4228 56.4306 65.5927 56.4306H74.1966C74.3664 56.4306 74.5039 56.5678 74.5039 56.737V57.9635C74.5039 58.133 74.3664 58.2701 74.1966 58.2701Z" fill="#FF7946"/>
<path fill-rule="evenodd" clip-rule="evenodd" d="M49.1511 68.4146C49.1511 67.9067 49.5638 67.4949 50.0728 67.4949C50.5821 67.4949 50.9948 67.9067 50.9948 68.4146C50.9948 68.9224 50.5821 69.3344 50.0728 69.3344C49.5638 69.3344 49.1511 68.9224 49.1511 68.4146Z" fill="white"/>
<path fill-rule="evenodd" clip-rule="evenodd" d="M52.9142 69.3344C52.4049 69.3344 51.9922 68.9224 51.9922 68.4146C51.9922 67.9067 52.4049 67.4949 52.9142 67.4949C53.4232 67.4949 53.8362 67.9067 53.8362 68.4146C53.8362 68.9224 53.4232 69.3344 52.9142 69.3344Z" fill="white"/>
<path fill-rule="evenodd" clip-rule="evenodd" d="M55.7556 69.3344C55.2463 69.3344 54.8337 68.9224 54.8337 68.4146C54.8337 67.9067 55.2463 67.4949 55.7556 67.4949C56.2647 67.4949 56.6773 67.9067 56.6773 68.4146C56.6773 68.9224 56.2647 69.3344 55.7556 69.3344Z" fill="white"/>
<path fill-rule="evenodd" clip-rule="evenodd" d="M74.1966 69.3344H65.5927C65.4228 69.3344 65.2853 69.197 65.2853 69.0278V67.8013C65.2853 67.6321 65.4228 67.4949 65.5927 67.4949H74.1966C74.3664 67.4949 74.5039 67.6321 74.5039 67.8013V69.0278C74.5039 69.197 74.3664 69.3344 74.1966 69.3344Z" fill="#597EF7"/>
</svg>
