<svg width="119" height="119" viewBox="0 0 119 119" fill="none" xmlns="http://www.w3.org/2000/svg">
<path fill-rule="evenodd" clip-rule="evenodd" d="M112.456 28.9086H6.61414V21.762C6.61414 20.2118 7.90311 18.9549 9.49292 18.9549H109.578C111.168 18.9549 112.456 20.2118 112.456 21.762V28.9086Z" fill="#253368"/>
<path fill-rule="evenodd" clip-rule="evenodd" d="M14.0359 23.6282C14.0359 24.6011 13.232 25.3899 12.2403 25.3899C11.2488 25.3899 10.445 24.6011 10.445 23.6282C10.445 22.6553 11.2488 21.8665 12.2403 21.8665C13.232 21.8665 14.0359 22.6553 14.0359 23.6282Z" fill="#FF7946"/>
<path fill-rule="evenodd" clip-rule="evenodd" d="M20.7396 23.6282C20.7396 24.6011 19.9358 25.3899 18.9441 25.3899C17.9526 25.3899 17.1488 24.6011 17.1488 23.6282C17.1488 22.6553 17.9526 21.8665 18.9441 21.8665C19.9358 21.8665 20.7396 22.6553 20.7396 23.6282Z" fill="#FAAD14"/>
<path fill-rule="evenodd" clip-rule="evenodd" d="M27.4434 23.6282C27.4434 24.6011 26.6397 25.3899 25.648 25.3899C24.6565 25.3899 23.8527 24.6011 23.8527 23.6282C23.8527 22.6553 24.6565 21.8665 25.648 21.8665C26.6397 21.8665 27.4434 22.6553 27.4434 23.6282Z" fill="#7CB305"/>
<path fill-rule="evenodd" clip-rule="evenodd" d="M9.71786 100.058C7.94511 100.058 6.50781 98.7658 6.50781 97.1723V28.4717H112.492V97.1723C112.492 98.7658 111.055 100.058 109.282 100.058H9.71786Z" fill="#E4EBF7"/>
<path d="M102.609 33.7012H17.3204C16.6116 33.7012 16.0371 34.2757 16.0371 34.9844V93.5449C16.0371 94.2536 16.6116 94.8281 17.3204 94.8281H102.609C103.318 94.8281 103.893 94.2536 103.893 93.5449V34.9844C103.893 34.2757 103.318 33.7012 102.609 33.7012Z" fill="white"/>
<path fill-rule="evenodd" clip-rule="evenodd" d="M54.1543 91.458C54.1543 91.9714 53.7381 92.3877 53.2246 92.3877C52.7111 92.3877 52.2949 91.9714 52.2949 91.458C52.2949 90.9446 52.7111 90.5283 53.2246 90.5283C53.7381 90.5283 54.1543 90.9446 54.1543 91.458Z" fill="#CCD7EE"/>
<path fill-rule="evenodd" clip-rule="evenodd" d="M59.9648 91.458C59.9648 91.9714 59.5486 92.3877 59.0351 92.3877C58.5217 92.3877 58.1055 91.9714 58.1055 91.458C58.1055 90.9446 58.5217 90.5283 59.0351 90.5283C59.5486 90.5283 59.9648 90.9446 59.9648 91.458Z" fill="#CCD7EE"/>
<path fill-rule="evenodd" clip-rule="evenodd" d="M65.6592 91.458C65.6592 91.9714 65.243 92.3877 64.7295 92.3877C64.216 92.3877 63.7998 91.9714 63.7998 91.458C63.7998 90.9446 64.216 90.5283 64.7295 90.5283C65.243 90.5283 65.6592 90.9446 65.6592 91.458Z" fill="#597EF7"/>
<path fill-rule="evenodd" clip-rule="evenodd" d="M71.3535 91.458C71.3535 91.9714 70.9373 92.3877 70.4238 92.3877C69.9104 92.3877 69.4941 91.9714 69.4941 91.458C69.4941 90.9446 69.9104 90.5283 70.4238 90.5283C70.9373 90.5283 71.3535 90.9446 71.3535 91.458Z" fill="#CCD7EE"/>
<path fill-rule="evenodd" clip-rule="evenodd" d="M70.7321 66.9558C66.8065 66.9558 63.6169 63.7528 63.6169 59.7916C63.6033 55.8559 66.7828 52.6543 70.7187 52.6407C70.7232 52.6407 70.7277 52.6407 70.7321 52.6407C74.6555 52.6407 77.8452 55.8435 77.8452 59.8027C77.8384 63.7528 74.6555 66.9535 70.7321 66.9558ZM88.4353 57.3001C88.2971 56.5195 87.5498 55.7209 86.7691 55.5493L86.1871 55.4154C84.7736 54.9868 83.577 54.0352 82.8413 52.7544C82.0981 51.4607 81.8779 49.9317 82.2257 48.4808L82.4086 47.9322C82.6429 47.1715 82.3394 46.121 81.7305 45.6014C81.7305 45.6014 81.1841 45.1374 79.6496 44.2452C78.1082 43.3575 77.4481 43.1099 77.4481 43.1099C76.6986 42.8333 75.6503 43.0987 75.1016 43.6831L74.6978 44.1181C73.6313 45.1385 72.2104 45.7053 70.7344 45.6995C69.2501 45.7036 67.8221 45.132 66.7507 44.1047L66.3627 43.6809C65.8228 43.0966 64.7678 42.8378 64.0161 43.1099C64.0161 43.1099 63.3469 43.3575 61.808 44.2452C60.2668 45.1441 59.7247 45.608 59.7247 45.608C59.118 46.1232 58.8148 47.1627 59.0489 47.9322L59.2162 48.4875C59.5602 49.9365 59.3402 51.4619 58.6005 52.7544C57.866 54.0457 56.6596 55.0018 55.2347 55.422L54.675 55.5493C53.9077 55.7277 53.1516 56.515 53.0088 57.3001C53.0088 57.3001 52.8816 58.005 52.8816 59.7938C52.8816 61.5826 53.0088 62.2852 53.0088 62.2852C53.1471 63.0749 53.8943 63.8644 54.675 64.0361L55.2214 64.1632C56.6489 64.5849 57.8578 65.544 58.5917 66.8398C59.3589 68.1848 59.5442 69.7149 59.2073 71.1134L59.0489 71.6554C58.8148 72.4159 59.118 73.4665 59.7269 73.9863C59.7269 73.9863 60.2735 74.4502 61.808 75.3424C63.3492 76.2346 64.0116 76.4777 64.0116 76.4777C64.7589 76.7543 65.8095 76.4888 66.3582 75.9045L66.7417 75.4896C68.9723 73.355 72.4875 73.3573 74.7157 75.494L75.0994 75.9111C75.6391 76.4933 76.6943 76.7543 77.4458 76.4822C77.4458 76.4822 78.1149 76.2346 79.6563 75.3469C81.1953 74.4546 81.7349 73.9908 81.7349 73.9908C82.3439 73.4778 82.6473 72.4293 82.4131 71.6599L82.2459 71.0977C81.9003 69.654 82.1207 68.1329 82.8613 66.8466C83.5996 65.5548 84.8064 64.5964 86.2316 64.17L86.7803 64.0428C87.5476 63.8644 88.3037 63.077 88.4465 62.2919C88.4465 62.2919 88.5737 61.5871 88.5737 59.8004C88.5602 58.0094 88.4353 57.3001 88.4353 57.3001Z" fill="#597EF7"/>
<path fill-rule="evenodd" clip-rule="evenodd" d="M46.1283 76.0083C44.3806 77.002 42.1499 76.3834 41.1471 74.6199C40.1449 72.8712 40.7498 70.6411 42.4987 69.6388L42.5046 69.6354C44.2512 68.6422 46.482 69.2607 47.4841 71.0233C48.4811 72.7836 47.8743 75.0141 46.1283 76.0083ZM51.5653 67.2284C51.3061 66.9159 50.7715 66.7495 50.3804 66.8707L50.0873 66.9584C49.3496 67.1255 48.576 67.0047 47.9243 66.6208C47.266 66.233 46.7808 65.608 46.5683 64.874L46.511 64.5835C46.4226 64.1856 46.0217 63.7947 45.6191 63.7174C45.6191 63.7174 45.2583 63.6492 44.3495 63.6405C43.4385 63.6355 43.0819 63.6923 43.0819 63.6923C42.6783 63.759 42.2787 64.1424 42.1825 64.5416L42.1127 64.8373C41.8962 65.5617 41.4072 66.1736 40.7486 66.5447C40.0889 66.9222 39.3084 67.0292 38.5715 66.843L38.2914 66.7526C37.9031 66.6292 37.368 66.781 37.1023 67.0924C37.1023 67.0924 36.8669 67.3721 36.4066 68.1568C35.9479 68.9471 35.8241 69.2909 35.8241 69.2909C35.6845 69.6738 35.8125 70.2133 36.1116 70.4966L36.3266 70.7016C36.8465 71.2594 37.1347 71.9943 37.1327 72.7569C37.1325 73.5177 36.8374 74.2487 36.3094 74.7964L36.0924 74.9948C35.7959 75.2685 35.6587 75.8104 35.7939 76.1961C35.7939 76.1961 35.9158 76.542 36.3686 77.3384C36.8214 78.1347 37.0558 78.4153 37.0558 78.4153C37.3173 78.7318 37.8497 78.8943 38.2407 78.7731L38.5162 78.6914C39.2584 78.5177 40.0395 78.6386 40.6941 79.0298C41.3762 79.4343 41.8458 80.0687 42.0499 80.7765L42.1167 81.0579C42.2049 81.4557 42.6059 81.8467 43.0086 81.9239C43.0086 81.9239 43.3693 81.9921 44.2784 82.0008C45.1903 82.0079 45.5468 81.9484 45.5468 81.9484C45.9495 81.8825 46.3499 81.4983 46.4463 81.0993L46.5121 80.8174C46.9647 79.3026 48.5301 78.4137 50.0631 78.801L50.3395 78.8896C50.7272 79.0121 51.2628 78.8612 51.5285 78.5498C51.5285 78.5498 51.7638 78.2702 52.2252 77.4848C52.6845 76.6981 52.8074 76.3549 52.8074 76.3549C52.9486 75.9724 52.8183 75.4289 52.5192 75.1457L52.3025 74.9377C51.7833 74.3825 51.4963 73.6495 51.5004 72.8893C51.502 72.1274 51.7967 71.3952 52.3232 70.8446L52.5353 70.6492C52.8317 70.3754 52.9691 69.8336 52.8339 69.4478C52.8339 69.4478 52.7121 69.1019 52.2599 68.3066C51.8005 67.5126 51.5653 67.2284 51.5653 67.2284Z" fill="#9254DC"/>
<path fill-rule="evenodd" clip-rule="evenodd" d="M43.1927 45.8383H33.1882C32.5347 45.8383 32 45.3036 32 44.6501V44.5504C32 43.8968 32.5347 43.3621 33.1882 43.3621H43.1927C43.8462 43.3621 44.3809 43.8968 44.3809 44.5504V44.6501C44.3809 45.3036 43.8462 45.8383 43.1927 45.8383Z" fill="#ADC6FF"/>
<path fill-rule="evenodd" clip-rule="evenodd" d="M40.3941 51.6321H34.2037C33.52 51.6321 32.9656 51.0778 32.9656 50.394C32.9656 49.7102 33.52 49.1559 34.2037 49.1559H40.3941C41.0779 49.1559 41.6322 49.7102 41.6322 50.394C41.6322 51.0778 41.0779 51.6321 40.3941 51.6321Z" fill="#ADC6FF"/>
</svg>
