<svg width="118" height="118" viewBox="0 0 118 118" fill="none" xmlns="http://www.w3.org/2000/svg">
<path d="M108.475 22.3284H9.52483C7.82837 22.3284 6.45312 23.7036 6.45312 25.4001V96.1293C6.45312 97.8258 7.82837 99.201 9.52483 99.201H108.475C110.172 99.201 111.547 97.8258 111.547 96.1293V25.4001C111.547 23.7036 110.172 22.3284 108.475 22.3284Z" fill="#E4EBF7"/>
<path fill-rule="evenodd" clip-rule="evenodd" d="M36.7858 90.5035V37.7127C36.7858 37.1323 37.2563 36.6618 37.8367 36.6618H101.787C102.367 36.6618 102.837 37.1323 102.837 37.7127V90.7099C102.837 91.1763 102.45 91.5545 101.971 91.5545H37.8367C37.2563 91.5545 36.7858 91.0839 36.7858 90.5035Z" fill="white"/>
<path fill-rule="evenodd" clip-rule="evenodd" d="M43.3011 78.2296C42.8226 78.2296 42.4349 77.8515 42.4349 77.3851V43.0846C42.4349 42.6181 42.8226 42.2401 43.3011 42.2401H96.6251C97.1034 42.2401 97.4912 42.6181 97.4912 43.0846V77.3851C97.4912 77.8515 97.1034 78.2296 96.6251 78.2296H43.3011Z" fill="#FAAD14"/>
<path fill-rule="evenodd" clip-rule="evenodd" d="M49.9651 47.2018H46.1846C45.8921 47.2018 45.655 46.9706 45.655 46.6854C45.655 46.4003 45.8921 46.1691 46.1846 46.1691H49.9651C50.2576 46.1691 50.4947 46.4003 50.4947 46.6854C50.4947 46.9706 50.2576 47.2018 49.9651 47.2018Z" fill="white"/>
<path fill-rule="evenodd" clip-rule="evenodd" d="M50.0263 49.6799H46.2457C45.9533 49.6799 45.7162 49.4487 45.7162 49.1635C45.7162 48.8783 45.9533 48.6471 46.2457 48.6471H50.0263C50.3188 48.6471 50.5559 48.8783 50.5559 49.1635C50.5559 49.4487 50.3188 49.6799 50.0263 49.6799Z" fill="white"/>
<path fill-rule="evenodd" clip-rule="evenodd" d="M42.435 68.7253C48.1649 68.7253 46.6434 61.6462 55.3214 61.6462C63.9995 61.6462 63.5475 67.9746 70.3157 67.9746C77.1893 67.9746 76.7346 49.7984 83.3198 49.7984C90.2708 49.7984 88.7018 66.2686 97.3601 66.2686V77.4305C97.3601 77.8972 96.9718 78.2754 96.4932 78.275L43.3004 78.2304C42.8224 78.2299 42.435 77.852 42.435 77.3859V68.7253Z" fill="#253368"/>
<path d="M55.2504 51.7735C56.2741 51.7735 57.1 52.3815 57.8117 53.5356C58.3579 54.4213 58.8259 55.5756 59.4158 57.3794L59.4954 57.6257C59.6339 58.0646 60.4612 60.6978 60.7703 61.6176L60.7899 61.6757C61.7852 64.6106 62.7591 66.6663 64.0338 68.2279C65.5903 70.1349 67.5119 71.1319 69.9766 71.1319C71.4898 71.1319 72.8339 70.7264 74.1271 69.9461L74.2408 69.8766C75.2037 69.2795 76.0663 68.5381 77.2582 67.3526L77.7716 66.8371L78.1239 66.4818C78.422 66.1821 78.6504 65.956 78.8708 65.7442L78.912 65.7047C80.674 64.0183 82.0175 63.2407 83.6547 63.2407C85.3711 63.2407 86.8707 64.0916 88.9248 65.9321L89.0677 66.0608C89.1803 66.1627 89.2973 66.2698 89.4236 66.3863L90.5154 67.4048C91.8703 68.6649 92.7004 69.3549 93.6482 69.9491C94.8689 70.7145 96.047 71.1157 97.2843 71.1314L97.3601 71.1319V71.7887C95.9606 71.7887 94.6427 71.3479 93.2992 70.5056L93.1988 70.442C92.2319 69.8241 91.3765 69.1052 89.9992 67.8217L89.2026 67.0771C88.948 66.8402 88.7352 66.6448 88.533 66.463L88.4865 66.4213C86.5437 64.6806 85.1637 63.8976 83.6547 63.8976C82.2468 63.8976 81.0464 64.5824 79.4264 66.1218L79.3662 66.1792C79.1778 66.3595 78.9855 66.5485 78.7486 66.7856L77.7928 67.7472L77.6487 67.8904C76.4132 69.1145 75.511 69.8782 74.4664 70.5085C73.0747 71.3483 71.6147 71.7887 69.9766 71.7887C67.3054 71.7887 65.2012 70.6969 63.5249 68.6433C62.207 67.0286 61.2128 64.9454 60.2081 62.0047L60.1156 61.7308C59.756 60.6493 58.8758 57.8431 58.8513 57.7674L58.7776 57.5415C57.5796 53.8963 56.6477 52.4304 55.2504 52.4304C54.3372 52.4304 53.5728 53.0398 52.8644 54.2897L52.8318 54.3479C52.2509 55.3916 51.7642 56.7131 51.0872 58.9481L50.3059 61.5707C50.2692 61.693 50.2376 61.7978 50.2136 61.8768L50.1133 62.2042C49.2042 65.1493 48.4319 67.0648 47.4152 68.6156C46.0716 70.6654 44.4131 71.7664 42.3043 71.7884L42.2396 71.7887V71.1319C44.1336 71.1319 45.6205 70.1554 46.8659 68.2555L46.9368 68.1461C47.8888 66.659 48.6345 64.7816 49.5194 61.9008L49.6174 61.5794L50.3736 59.0397C51.1085 56.5889 51.6226 55.1698 52.2578 54.0284C53.0792 52.5527 54.0387 51.7735 55.2504 51.7735Z" fill="white"/>
<path d="M96.4228 82.8563C96.6405 82.8563 96.8169 83.0327 96.8169 83.2504C96.8169 83.4608 96.6521 83.6327 96.4445 83.6439L96.4228 83.6445H43.0142C42.7965 83.6445 42.6201 83.4681 42.6201 83.2504C42.6201 83.04 42.785 82.8681 42.9926 82.8569L43.0142 82.8563H96.4228Z" fill="#E4EBF7"/>
<path d="M87.8872 86.423C88.1049 86.423 88.2813 86.5994 88.2813 86.8171C88.2813 87.0275 88.1164 87.1994 87.9088 87.2106L87.8872 87.2112H43.0142C42.7965 87.2112 42.6201 87.0347 42.6201 86.8171C42.6201 86.6067 42.785 86.4348 42.9926 86.4235L43.0142 86.423H87.8872Z" fill="#E4EBF7"/>
<path d="M9.26814 18.7832H108.679C110.234 18.7832 111.494 20.012 111.494 21.5278V29.7069H6.45312V21.5278C6.45312 20.012 7.71345 18.7832 9.26814 18.7832Z" fill="#253368"/>
<path d="M12.4702 26.204C13.5799 26.204 14.4794 25.3269 14.4794 24.245C14.4794 23.1631 13.5799 22.286 12.4702 22.286C11.3606 22.286 10.461 23.1631 10.461 24.245C10.461 25.3269 11.3606 26.204 12.4702 26.204Z" fill="#FF7946"/>
<path d="M19.9746 26.204C21.0842 26.204 21.9838 25.3269 21.9838 24.245C21.9838 23.1631 21.0842 22.286 19.9746 22.286C18.8649 22.286 17.9653 23.1631 17.9653 24.245C17.9653 25.3269 18.8649 26.204 19.9746 26.204Z" fill="#FAAD14"/>
<path d="M27.4801 26.204C28.5897 26.204 29.4893 25.3269 29.4893 24.245C29.4893 23.1631 28.5897 22.286 27.4801 22.286C26.3704 22.286 25.4709 23.1631 25.4709 24.245C25.4709 25.3269 26.3704 26.204 27.4801 26.204Z" fill="#7CB305"/>
<path d="M41.3464 62.9261L40.0538 61.9781L41.3464 61.0323L42.6389 61.9781L41.3464 62.9261Z" fill="white"/>
<path d="M28.139 58.0155H14.7604C14.3025 58.0155 13.9313 58.3867 13.9313 58.8446V60.8882C13.9313 61.3461 14.3025 61.7173 14.7604 61.7173H28.139C28.5969 61.7173 28.9681 61.3461 28.9681 60.8882V58.8446C28.9681 58.3867 28.5969 58.0155 28.139 58.0155Z" fill="#A3B5D6"/>
<path d="M28.1516 65.1424H14.7478C14.2969 65.1424 13.9313 65.508 13.9313 65.9589V67.9156C13.9313 68.3666 14.2969 68.7322 14.7478 68.7322H28.1516C28.6026 68.7322 28.9681 68.3666 28.9681 67.9156V65.9589C28.9681 65.508 28.6026 65.1424 28.1516 65.1424Z" fill="#A3B5D6"/>
<path d="M28.1516 72.1241H14.7478C14.2969 72.1241 13.9313 72.4896 13.9313 72.9406V74.8973C13.9313 75.3483 14.2969 75.7138 14.7478 75.7138H28.1516C28.6026 75.7138 28.9681 75.3483 28.9681 74.8973V72.9406C28.9681 72.4896 28.6026 72.1241 28.1516 72.1241Z" fill="#A3B5D6"/>
<path d="M21.4497 51.9704C25.5956 51.9704 28.9564 48.6936 28.9564 44.6514C28.9564 40.6092 25.5956 37.3324 21.4497 37.3324C17.3039 37.3324 13.943 40.6092 13.943 44.6514C13.943 48.6936 17.3039 51.9704 21.4497 51.9704Z" fill="white"/>
<path d="M21.4497 51.9704C23.6133 51.9716 25.6666 51.0397 27.0586 49.4248C25.9618 47.3946 23.802 46.1237 21.4486 46.1237C19.0951 46.1237 16.9353 47.3946 15.8385 49.4248C17.2312 51.04 19.2854 51.972 21.4497 51.9704Z" fill="#253368"/>
<path d="M21.4896 46.4148C23.0488 46.4148 24.3128 45.1824 24.3128 43.6622C24.3128 42.1419 23.0488 40.9095 21.4896 40.9095C19.9304 40.9095 18.6664 42.1419 18.6664 43.6622C18.6664 45.1824 19.9304 46.4148 21.4896 46.4148Z" fill="#253368"/>
</svg>
