<svg width="119" height="119" viewBox="0 0 119 119" fill="none" xmlns="http://www.w3.org/2000/svg">
<path d="M109.389 22.4168H9.61094C7.89713 22.4168 6.50781 23.8062 6.50781 25.52V97.1733C6.50781 98.8871 7.89713 100.276 9.61094 100.276H109.389C111.103 100.276 112.492 98.8871 112.492 97.1733V25.52C112.492 23.8062 111.103 22.4168 109.389 22.4168Z" fill="#E4EBF7"/>
<path d="M101.744 36.2615H17.2555C16.604 36.2615 16.0759 36.7897 16.0759 37.4412V91.9683C16.0759 92.6198 16.604 93.148 17.2555 93.148H101.744C102.396 93.148 102.924 92.6198 102.924 91.9683V37.4412C102.924 36.7897 102.396 36.2615 101.744 36.2615Z" fill="#253368"/>
<path d="M86.4918 53.7334H27.7079V56.4943H86.4918V53.7334Z" fill="white"/>
<path d="M57.0982 63.3376H27.7063V66.0985H57.0982V63.3376Z" fill="#FAAD14"/>
<path d="M57.0982 82.546H27.7063V85.3069H57.0982V82.546Z" fill="#E4EBF7"/>
<path d="M45.3398 44.0926H27.7047V46.8535H45.3398V44.0926Z" fill="#E4EBF7"/>
<path d="M71.8648 63.301H63.0328V66.0619H71.8648V63.301Z" fill="#E4EBF7"/>
<path d="M71.795 72.9418H27.7071V75.7028H71.795V72.9418Z" fill="white"/>
<path d="M9.34668 18.8262H109.6C111.168 18.8262 112.439 20.0708 112.439 21.606V29.8901H6.50781V21.606C6.50781 20.0708 7.77882 18.8262 9.34668 18.8262Z" fill="#253368"/>
<path d="M12.5759 26.3423C13.695 26.3423 14.6021 25.4539 14.6021 24.3581C14.6021 23.2623 13.695 22.374 12.5759 22.374C11.4568 22.374 10.5497 23.2623 10.5497 24.3581C10.5497 25.4539 11.4568 26.3423 12.5759 26.3423Z" fill="#FF7946"/>
<path d="M20.1438 26.3423C21.2629 26.3423 22.1701 25.4539 22.1701 24.3581C22.1701 23.2623 21.2629 22.374 20.1438 22.374C19.0248 22.374 18.1176 23.2623 18.1176 24.3581C18.1176 25.4539 19.0248 26.3423 20.1438 26.3423Z" fill="#FAAD14"/>
<path d="M27.713 26.3423C28.832 26.3423 29.7392 25.4539 29.7392 24.3581C29.7392 23.2623 28.832 22.374 27.713 22.374C26.5939 22.374 25.6867 23.2623 25.6867 24.3581C25.6867 25.4539 26.5939 26.3423 27.713 26.3423Z" fill="#7CB305"/>
</svg>
