<svg width="119" height="119" viewBox="0 0 119 119" fill="none" xmlns="http://www.w3.org/2000/svg">
<path fill-rule="evenodd" clip-rule="evenodd" d="M112.456 28.9086H6.61414V21.7621C6.61414 20.2118 7.90311 18.9549 9.49292 18.9549H109.578C111.168 18.9549 112.456 20.2118 112.456 21.7621V28.9086Z" fill="#253368"/>
<path fill-rule="evenodd" clip-rule="evenodd" d="M14.0359 23.6282C14.0359 24.6012 13.232 25.39 12.2403 25.39C11.2488 25.39 10.445 24.6012 10.445 23.6282C10.445 22.6553 11.2488 21.8665 12.2403 21.8665C13.232 21.8665 14.0359 22.6553 14.0359 23.6282Z" fill="#FF7946"/>
<path fill-rule="evenodd" clip-rule="evenodd" d="M20.7396 23.6282C20.7396 24.6012 19.9358 25.39 18.9441 25.39C17.9526 25.39 17.1488 24.6012 17.1488 23.6282C17.1488 22.6553 17.9526 21.8665 18.9441 21.8665C19.9358 21.8665 20.7396 22.6553 20.7396 23.6282Z" fill="#FAAD14"/>
<path fill-rule="evenodd" clip-rule="evenodd" d="M27.4434 23.6282C27.4434 24.6012 26.6397 25.39 25.648 25.39C24.6565 25.39 23.8527 24.6012 23.8527 23.6282C23.8527 22.6553 24.6565 21.8665 25.648 21.8665C26.6397 21.8665 27.4434 22.6553 27.4434 23.6282Z" fill="#7CB305"/>
<path fill-rule="evenodd" clip-rule="evenodd" d="M9.71786 100.058C7.94511 100.058 6.50781 98.7658 6.50781 97.1723V28.4717H112.492V97.1723C112.492 98.7658 111.055 100.058 109.282 100.058H9.71786Z" fill="#E4EBF7"/>
<path d="M102.609 33.7012H17.3204C16.6116 33.7012 16.0371 34.2757 16.0371 34.9844V93.5449C16.0371 94.2536 16.6116 94.8281 17.3204 94.8281H102.609C103.318 94.8281 103.893 94.2536 103.893 93.5449V34.9844C103.893 34.2757 103.318 33.7012 102.609 33.7012Z" fill="white"/>
<path fill-rule="evenodd" clip-rule="evenodd" d="M54.1543 91.458C54.1543 91.9714 53.7381 92.3877 53.2246 92.3877C52.7111 92.3877 52.2949 91.9714 52.2949 91.458C52.2949 90.9446 52.7111 90.5283 53.2246 90.5283C53.7381 90.5283 54.1543 90.9446 54.1543 91.458Z" fill="#CCD7EE"/>
<path fill-rule="evenodd" clip-rule="evenodd" d="M59.9648 91.458C59.9648 91.9714 59.5486 92.3877 59.0351 92.3877C58.5217 92.3877 58.1055 91.9714 58.1055 91.458C58.1055 90.9446 58.5217 90.5283 59.0351 90.5283C59.5486 90.5283 59.9648 90.9446 59.9648 91.458Z" fill="#CCD7EE"/>
<path fill-rule="evenodd" clip-rule="evenodd" d="M65.6592 91.458C65.6592 91.9714 65.243 92.3877 64.7295 92.3877C64.216 92.3877 63.7998 91.9714 63.7998 91.458C63.7998 90.9446 64.216 90.5283 64.7295 90.5283C65.243 90.5283 65.6592 90.9446 65.6592 91.458Z" fill="#597EF7"/>
<path fill-rule="evenodd" clip-rule="evenodd" d="M71.3535 91.458C71.3535 91.9714 70.9373 92.3877 70.4238 92.3877C69.9104 92.3877 69.4941 91.9714 69.4941 91.458C69.4941 90.9446 69.9104 90.5283 70.4238 90.5283C70.9373 90.5283 71.3535 90.9446 71.3535 91.458Z" fill="#CCD7EE"/>
<path fill-rule="evenodd" clip-rule="evenodd" d="M73.1768 83.741C73.1768 84.5814 72.4894 85.2695 71.6493 85.2695H62.1855C61.3454 85.2695 60.658 84.5814 60.658 83.741V46.0156C60.658 45.1746 61.3454 44.4871 62.1855 44.4871H71.6493C72.4894 44.4871 73.1768 45.1746 73.1768 46.0156V83.741Z" fill="#FF7946"/>
<path fill-rule="evenodd" clip-rule="evenodd" d="M30.8576 41.7616C30.3839 41.7616 30 41.3672 30 40.8807C30 40.3943 30.3839 40 30.8576 40H46.5854C47.0591 40 47.443 40.3943 47.443 40.8807C47.443 41.3672 47.0591 41.7616 46.5854 41.7616H30.8576Z" fill="#597EF7"/>
<path fill-rule="evenodd" clip-rule="evenodd" d="M31.0538 45.795C30.5803 45.795 30.1964 45.4007 30.1964 44.9141C30.1964 44.4278 30.5803 44.0334 31.0538 44.0334H37.1753C37.649 44.0334 38.0329 44.4278 38.0329 44.9141C38.0329 45.4007 37.649 45.795 37.1753 45.795H31.0538Z" fill="#597EF7"/>
<path fill-rule="evenodd" clip-rule="evenodd" d="M43.017 83.7085C43.017 84.5489 42.3296 85.237 41.4895 85.237H32.0263C31.1862 85.237 30.4988 84.5489 30.4988 83.7085V68.8245C30.4988 67.9841 31.1862 67.2966 32.0263 67.2966H41.4895C42.3296 67.2966 43.017 67.9841 43.017 68.8245V83.7085Z" fill="#CCD7EE"/>
<path fill-rule="evenodd" clip-rule="evenodd" d="M58.0967 83.722C58.0967 84.5623 57.4093 85.2505 56.5692 85.2505H47.1061C46.2659 85.2505 45.5786 84.5623 45.5786 83.722V56.4849C45.5786 55.6446 46.2659 54.957 47.1061 54.957H56.5692C57.4093 54.957 58.0967 55.6446 58.0967 56.4849V83.722Z" fill="#597EF7"/>
<path fill-rule="evenodd" clip-rule="evenodd" d="M88.2566 83.722C88.2566 84.5623 87.5692 85.2505 86.729 85.2505H77.2659C76.4258 85.2505 75.7384 84.5623 75.7384 83.722V56.4849C75.7384 55.6446 76.4258 54.957 77.2659 54.957H86.729C87.5692 54.957 88.2566 55.6446 88.2566 56.4849V83.722Z" fill="#FAAD14"/>
</svg>
