<svg width="119" height="119" viewBox="0 0 119 119" fill="none" xmlns="http://www.w3.org/2000/svg">
<path fill-rule="evenodd" clip-rule="evenodd" d="M112.457 28.9086H6.61415V21.762C6.61415 20.2118 7.90313 18.9549 9.49294 18.9549H109.578C111.168 18.9549 112.457 20.2118 112.457 21.762V28.9086Z" fill="#253368"/>
<path fill-rule="evenodd" clip-rule="evenodd" d="M14.0359 23.6282C14.0359 24.6011 13.232 25.3899 12.2403 25.3899C11.2488 25.3899 10.445 24.6011 10.445 23.6282C10.445 22.6553 11.2488 21.8665 12.2403 21.8665C13.232 21.8665 14.0359 22.6553 14.0359 23.6282Z" fill="#FF7946"/>
<path fill-rule="evenodd" clip-rule="evenodd" d="M20.7396 23.6282C20.7396 24.6011 19.9358 25.3899 18.9442 25.3899C17.9526 25.3899 17.1488 24.6011 17.1488 23.6282C17.1488 22.6553 17.9526 21.8665 18.9442 21.8665C19.9358 21.8665 20.7396 22.6553 20.7396 23.6282Z" fill="#FAAD14"/>
<path fill-rule="evenodd" clip-rule="evenodd" d="M27.4434 23.6282C27.4434 24.6011 26.6396 25.3899 25.648 25.3899C24.6564 25.3899 23.8526 24.6011 23.8526 23.6282C23.8526 22.6553 24.6564 21.8665 25.648 21.8665C26.6396 21.8665 27.4434 22.6553 27.4434 23.6282Z" fill="#7CB305"/>
<path fill-rule="evenodd" clip-rule="evenodd" d="M9.71786 100.058C7.94511 100.058 6.50781 98.7658 6.50781 97.1723V28.4717H112.492V97.1723C112.492 98.7658 111.055 100.058 109.282 100.058H9.71786Z" fill="#E4EBF7"/>
<path d="M102.609 33.7012H17.3204C16.6116 33.7012 16.0371 34.2757 16.0371 34.9844V93.5449C16.0371 94.2536 16.6116 94.8281 17.3204 94.8281H102.609C103.318 94.8281 103.893 94.2536 103.893 93.5449V34.9844C103.893 34.2757 103.318 33.7012 102.609 33.7012Z" fill="white"/>
<path fill-rule="evenodd" clip-rule="evenodd" d="M54.1543 91.458C54.1543 91.9714 53.7381 92.3877 53.2246 92.3877C52.7111 92.3877 52.2949 91.9714 52.2949 91.458C52.2949 90.9446 52.7111 90.5283 53.2246 90.5283C53.7381 90.5283 54.1543 90.9446 54.1543 91.458Z" fill="#CCD7EE"/>
<path fill-rule="evenodd" clip-rule="evenodd" d="M59.9648 91.458C59.9648 91.9714 59.5486 92.3877 59.0351 92.3877C58.5217 92.3877 58.1055 91.9714 58.1055 91.458C58.1055 90.9446 58.5217 90.5283 59.0351 90.5283C59.5486 90.5283 59.9648 90.9446 59.9648 91.458Z" fill="#CCD7EE"/>
<path fill-rule="evenodd" clip-rule="evenodd" d="M65.6592 91.458C65.6592 91.9714 65.243 92.3877 64.7295 92.3877C64.216 92.3877 63.7998 91.9714 63.7998 91.458C63.7998 90.9446 64.216 90.5283 64.7295 90.5283C65.243 90.5283 65.6592 90.9446 65.6592 91.458Z" fill="#597EF7"/>
<path fill-rule="evenodd" clip-rule="evenodd" d="M71.3535 91.458C71.3535 91.9714 70.9373 92.3877 70.4238 92.3877C69.9104 92.3877 69.4941 91.9714 69.4941 91.458C69.4941 90.9446 69.9104 90.5283 70.4238 90.5283C70.9373 90.5283 71.3535 90.9446 71.3535 91.458Z" fill="#CCD7EE"/>
<path fill-rule="evenodd" clip-rule="evenodd" d="M70.5795 42.7534H53.3812C52.8218 42.7534 52.3547 43.1688 52.2763 43.7226C51.7651 47.3367 48.4697 49.1947 47.0303 49.8214C46.6237 49.9984 46.3594 50.3982 46.3594 50.8417V65.5484C46.3594 75.1726 61.9804 81.305 61.9804 81.305C61.9804 81.305 77.6013 75.1726 77.6013 65.5484V50.8417C77.6013 50.3982 77.337 49.9984 76.9304 49.8214C75.491 49.1947 72.1956 47.3367 71.6844 43.7226C71.606 43.1688 71.1389 42.7999 70.5795 42.7999V42.7534Z" fill="#E4EBF7"/>
<path fill-rule="evenodd" clip-rule="evenodd" d="M69.1337 45.6185C69.3457 46.2735 69.6294 46.9053 69.9831 47.5085C70.503 48.3951 71.1759 49.2215 71.983 49.9646C72.8882 50.798 73.8449 51.4214 74.6763 51.8721V65.4689C74.6763 69.1494 71.1514 72.4093 68.1944 74.4958C65.7906 76.192 63.3423 77.4112 61.9784 78.0349C60.6366 77.4224 58.243 76.2313 55.8528 74.5566C53.8304 73.1397 52.2404 71.6779 51.127 70.2119C50.5209 69.4138 50.0583 68.6134 49.7522 67.833C49.4374 67.0307 49.2844 66.2574 49.2844 65.4689V51.8721C50.1158 51.4214 51.0726 50.798 51.9777 49.9646C52.7848 49.2215 53.4577 48.3952 53.9776 47.5085C54.3313 46.9053 54.615 46.2735 54.827 45.6185H69.1337Z" fill="#597EF7"/>
<path fill-rule="evenodd" clip-rule="evenodd" d="M62.7295 53.2709L57.595 61.0619C57.3187 61.4843 57.6158 62.0037 58.1138 62.0037H60.4137L57.5859 67.3255C57.375 67.7556 57.9186 68.1547 58.2519 67.8145L65.9428 60.1161C66.3353 59.7156 66.0569 59.0312 65.5016 59.0312H62.0236L63.4786 53.6091C63.5922 53.1476 62.9884 52.875 62.7295 53.2709Z" fill="white"/>
</svg>
