<svg width="119" height="119" viewBox="0 0 119 119" fill="none" xmlns="http://www.w3.org/2000/svg">
<path fill-rule="evenodd" clip-rule="evenodd" d="M112.456 28.9086H6.61414V21.762C6.61414 20.2118 7.90311 18.9549 9.49292 18.9549H109.578C111.168 18.9549 112.456 20.2118 112.456 21.762V28.9086Z" fill="#253368"/>
<path fill-rule="evenodd" clip-rule="evenodd" d="M14.0359 23.6282C14.0359 24.6011 13.232 25.3899 12.2403 25.3899C11.2488 25.3899 10.445 24.6011 10.445 23.6282C10.445 22.6553 11.2488 21.8665 12.2403 21.8665C13.232 21.8665 14.0359 22.6553 14.0359 23.6282Z" fill="#FF7946"/>
<path fill-rule="evenodd" clip-rule="evenodd" d="M20.7396 23.6282C20.7396 24.6011 19.9358 25.3899 18.9441 25.3899C17.9526 25.3899 17.1488 24.6011 17.1488 23.6282C17.1488 22.6553 17.9526 21.8665 18.9441 21.8665C19.9358 21.8665 20.7396 22.6553 20.7396 23.6282Z" fill="#FAAD14"/>
<path fill-rule="evenodd" clip-rule="evenodd" d="M27.4434 23.6282C27.4434 24.6011 26.6397 25.3899 25.648 25.3899C24.6565 25.3899 23.8527 24.6011 23.8527 23.6282C23.8527 22.6553 24.6565 21.8665 25.648 21.8665C26.6397 21.8665 27.4434 22.6553 27.4434 23.6282Z" fill="#7CB305"/>
<path fill-rule="evenodd" clip-rule="evenodd" d="M9.71786 100.058C7.94511 100.058 6.50781 98.7658 6.50781 97.1723V28.4717H112.492V97.1723C112.492 98.7658 111.055 100.058 109.282 100.058H9.71786Z" fill="#E4EBF7"/>
<path d="M102.609 33.7012H17.3204C16.6116 33.7012 16.0371 34.2757 16.0371 34.9844V93.5449C16.0371 94.2536 16.6116 94.8281 17.3204 94.8281H102.609C103.318 94.8281 103.893 94.2536 103.893 93.5449V34.9844C103.893 34.2757 103.318 33.7012 102.609 33.7012Z" fill="white"/>
<path d="M96.6844 47.0654H23.1637C22.3727 47.0654 21.7314 47.7067 21.7314 48.4977V86.6902C21.7314 87.4812 22.3727 88.1224 23.1637 88.1224H96.6844C97.4754 88.1224 98.1166 87.4812 98.1166 86.6902V48.4977C98.1166 47.7067 97.4754 47.0654 96.6844 47.0654Z" fill="#E4EBF7"/>
<path fill-rule="evenodd" clip-rule="evenodd" d="M48.9437 88.1224H96.207L77.14 62.7347C75.3693 60.377 72.0114 60.2909 70.1347 62.5551L48.9437 88.1224Z" fill="#597EF7"/>
<path fill-rule="evenodd" clip-rule="evenodd" d="M23.1637 88.1225H63.2659L46.169 70.8301C44.4003 69.041 41.3793 69.065 39.6429 70.8817L23.1637 88.1225Z" fill="#597EF7"/>
<path fill-rule="evenodd" clip-rule="evenodd" d="M54.1952 69.5036C49.1856 69.5036 45.1244 65.4425 45.1244 60.4328C45.1244 55.4232 49.1856 51.3621 54.1952 51.3621C59.2048 51.3621 63.2659 55.4232 63.2659 60.4328C63.2659 65.4425 59.2048 69.5036 54.1952 69.5036Z" fill="#FF7946"/>
<path fill-rule="evenodd" clip-rule="evenodd" d="M54.1543 91.458C54.1543 91.9714 53.7381 92.3877 53.2246 92.3877C52.7111 92.3877 52.2949 91.9714 52.2949 91.458C52.2949 90.9446 52.7111 90.5283 53.2246 90.5283C53.7381 90.5283 54.1543 90.9446 54.1543 91.458Z" fill="#CCD7EE"/>
<path fill-rule="evenodd" clip-rule="evenodd" d="M59.9648 91.458C59.9648 91.9714 59.5486 92.3877 59.0351 92.3877C58.5217 92.3877 58.1055 91.9714 58.1055 91.458C58.1055 90.9446 58.5217 90.5283 59.0351 90.5283C59.5486 90.5283 59.9648 90.9446 59.9648 91.458Z" fill="#CCD7EE"/>
<path fill-rule="evenodd" clip-rule="evenodd" d="M65.6592 91.458C65.6592 91.9714 65.243 92.3877 64.7295 92.3877C64.216 92.3877 63.7998 91.9714 63.7998 91.458C63.7998 90.9446 64.216 90.5283 64.7295 90.5283C65.243 90.5283 65.6592 90.9446 65.6592 91.458Z" fill="#597EF7"/>
<path fill-rule="evenodd" clip-rule="evenodd" d="M71.3535 91.458C71.3535 91.9714 70.9373 92.3877 70.4238 92.3877C69.9104 92.3877 69.4941 91.9714 69.4941 91.458C69.4941 90.9446 69.9104 90.5283 70.4238 90.5283C70.9373 90.5283 71.3535 90.9446 71.3535 91.458Z" fill="#CCD7EE"/>
<path d="M33.2112 38.001H22.6863C22.1589 38.001 21.7314 38.4285 21.7314 38.9558V42.7405C21.7314 43.2678 22.1589 43.6953 22.6863 43.6953H33.2112C33.7385 43.6953 34.166 43.2678 34.166 42.7405V38.9558C34.166 38.4285 33.7385 38.001 33.2112 38.001Z" fill="#FAAD14"/>
<path d="M49.0159 38.001H38.4909C37.9636 38.001 37.5361 38.4285 37.5361 38.9558V42.7405C37.5361 43.2678 37.9636 43.6953 38.4909 43.6953H49.0159C49.5432 43.6953 49.9707 43.2678 49.9707 42.7405V38.9558C49.9707 38.4285 49.5432 38.001 49.0159 38.001Z" fill="#FF7946"/>
<path d="M64.2395 38.001H53.7146C53.1873 38.001 52.7598 38.4285 52.7598 38.9558V42.7405C52.7598 43.2678 53.1873 43.6953 53.7146 43.6953H64.2395C64.7669 43.6953 65.1943 43.2678 65.1943 42.7405V38.9558C65.1943 38.4285 64.7669 38.001 64.2395 38.001Z" fill="#597EF7"/>
<path d="M80.0442 38.001H69.5193C68.9919 38.001 68.5645 38.4285 68.5645 38.9558V42.7405C68.5645 43.2678 68.9919 43.6953 69.5193 43.6953H80.0442C80.5715 43.6953 80.999 43.2678 80.999 42.7405V38.9558C80.999 38.4285 80.5715 38.001 80.0442 38.001Z" fill="#7CB305"/>
<path d="M97.2434 38.001H86.7185C86.1912 38.001 85.7637 38.4285 85.7637 38.9558V42.7405C85.7637 43.2678 86.1912 43.6953 86.7185 43.6953H97.2434C97.7708 43.6953 98.1982 43.2678 98.1982 42.7405V38.9558C98.1982 38.4285 97.7708 38.001 97.2434 38.001Z" fill="#253368"/>
</svg>
