<svg width="302" height="316" viewBox="0 0 302 316" fill="none" xmlns="http://www.w3.org/2000/svg">
<path d="M128.799 6.50345L128.799 6.50336C134.903 3.17906 142.932 1.50104 150.991 1.5C159.05 1.49896 167.085 3.17489 173.201 6.50344L173.44 6.06426L173.201 6.50345L279.321 64.2488C285.419 67.57 290.969 73.4076 294.997 80.1771C299.024 86.9466 301.5 94.6018 301.5 101.529V214.888C301.5 221.819 299.03 229.47 295.006 236.235C290.982 243 285.432 248.833 279.321 252.159L173.201 309.904L173.44 310.344L173.201 309.905C167.097 313.229 159.068 314.909 151.009 314.911C142.95 314.913 134.915 313.237 128.799 309.905L128.799 309.904L22.6794 252.159C22.6794 252.159 22.6793 252.159 22.6793 252.159C16.581 248.838 11.0306 243 7.00344 236.232C2.97623 229.463 0.5 221.81 0.5 214.888V101.529C0.5 94.5973 2.97012 86.9463 6.99405 80.1802C11.0179 73.414 16.5684 67.5785 22.6795 64.2487L128.799 6.50345Z" fill="#101C43" stroke="#101C43"/>
<path d="M106.865 265L113.129 247.648H115.961L122.213 265H119.621L117.989 260.452H111.137L109.469 265H106.865ZM111.749 258.124H117.329L114.557 250.168L111.749 258.124ZM131.037 247.408C132.285 247.408 133.393 247.664 134.361 248.176C135.329 248.688 136.105 249.376 136.689 250.24C137.281 251.104 137.633 252.06 137.745 253.108H135.009C134.889 252.452 134.657 251.86 134.313 251.332C133.977 250.796 133.529 250.376 132.969 250.072C132.409 249.76 131.745 249.604 130.977 249.604C129.993 249.604 129.157 249.836 128.469 250.3C127.781 250.764 127.257 251.488 126.897 252.472C126.545 253.456 126.369 254.724 126.369 256.276C126.369 258.62 126.765 260.336 127.557 261.424C128.349 262.504 129.489 263.044 130.977 263.044C131.745 263.044 132.409 262.88 132.969 262.552C133.529 262.216 133.977 261.772 134.313 261.22C134.657 260.66 134.889 260.052 135.009 259.396H137.745C137.649 260.156 137.449 260.888 137.145 261.592C136.841 262.288 136.417 262.912 135.873 263.464C135.337 264.016 134.669 264.452 133.869 264.772C133.069 265.084 132.125 265.24 131.037 265.24C129.469 265.24 128.125 264.88 127.005 264.16C125.885 263.432 125.025 262.4 124.425 261.064C123.833 259.72 123.537 258.112 123.537 256.24C123.537 254.376 123.833 252.788 124.425 251.476C125.017 250.156 125.873 249.148 126.993 248.452C128.113 247.756 129.461 247.408 131.037 247.408ZM139.141 249.988V247.648H152.473V249.988H147.229V265H144.637V249.988H139.141ZM155.2 247.648H157.768V265H155.2V247.648ZM168.893 265.24C167.317 265.24 165.953 264.892 164.801 264.196C163.657 263.492 162.773 262.48 162.149 261.16C161.533 259.832 161.225 258.232 161.225 256.36C161.225 254.472 161.537 252.864 162.161 251.536C162.793 250.2 163.681 249.18 164.825 248.476C165.977 247.764 167.333 247.408 168.893 247.408C170.445 247.408 171.789 247.764 172.925 248.476C174.069 249.18 174.949 250.2 175.565 251.536C176.189 252.864 176.501 254.472 176.501 256.36C176.501 258.232 176.193 259.828 175.577 261.148C174.961 262.468 174.081 263.48 172.937 264.184C171.801 264.888 170.453 265.24 168.893 265.24ZM168.893 263.044C169.901 263.044 170.761 262.812 171.473 262.348C172.193 261.884 172.741 261.16 173.117 260.176C173.493 259.192 173.681 257.932 173.681 256.396C173.681 254.82 173.489 253.532 173.105 252.532C172.729 251.532 172.181 250.796 171.461 250.324C170.749 249.844 169.893 249.604 168.893 249.604C167.893 249.604 167.029 249.844 166.301 250.324C165.581 250.804 165.025 251.544 164.633 252.544C164.241 253.544 164.045 254.828 164.045 256.396C164.045 257.94 164.241 259.204 164.633 260.188C165.025 261.164 165.581 261.884 166.301 262.348C167.029 262.812 167.893 263.044 168.893 263.044ZM191.266 247.648H193.846V265H191.542L182.518 251.788V265H179.95V247.648H182.434L191.266 260.584V247.648Z" fill="white"/>
<path d="M167.332 175.065C171.407 180.104 175.933 185.636 179.107 189.503C182.637 179.002 177.923 164.329 172.663 153.36C171.407 160.18 169.654 167.4 167.332 175.065Z" fill="#F2C94C"/>
<path d="M142.504 136.202C137.268 141.171 132.577 150.453 136.107 164.962C139.282 164.704 143.783 164.353 147.858 163.978C145.536 153.664 143.783 144.453 142.504 136.202Z" fill="#F2994A"/>
<path opacity="0.2" d="M153.781 187.886C124.498 76.6422 148.592 67.1961 157.69 63.3989C166.788 77.6032 190.858 114.544 161.552 192.316L153.781 187.886Z" fill="url(#paint0_linear)"/>
<path opacity="0.1" d="M162.405 181.487C133.122 70.2667 157.193 60.7972 166.314 57C175.411 71.2043 199.482 108.145 170.176 185.917L162.405 181.487Z" fill="url(#paint1_linear)"/>
<path opacity="0.15" d="M161.552 192.316C190.858 114.544 166.788 77.6032 157.69 63.3989V190.113L161.552 192.316Z" fill="url(#paint2_linear)"/>
<path opacity="0.1" d="M166.409 102.566C166.409 109.34 162.381 112.528 157.406 109.692C152.431 106.856 148.403 99.0504 148.403 92.2764C148.403 85.5024 152.431 82.3146 157.406 85.1508C162.381 87.987 166.409 95.7923 166.409 102.566Z" fill="white"/>
<path opacity="0.1" d="M164.632 217.49C162.571 214.162 161.576 209.942 160.699 206.239C159.68 201.973 158.827 198.34 156.695 197.426C154.255 196.371 153.165 199.043 151.625 202.747C150.725 204.926 149.659 207.505 148.095 209.872C146.413 208.114 144.636 206.661 142.764 205.606C134.923 201.129 128.384 204.997 126.844 214.232C125.778 213.435 124.712 212.708 123.622 212.075C111.041 204.903 100.854 213.036 100.854 230.288C100.854 247.516 111.041 267.299 123.598 274.471C135.799 281.433 145.773 273.956 146.342 257.759C148.64 261.978 151.696 265.517 155.084 267.439C155.961 267.932 156.814 268.307 157.619 268.541C162.5 279.159 169.773 288.301 177.899 292.942C192.588 301.333 204.505 291.863 204.528 271.799C204.528 251.735 192.611 228.647 177.923 220.256C173.066 217.49 168.541 216.646 164.632 217.49Z" fill="url(#paint3_linear)"/>
<path opacity="0.3" d="M188.299 140.749L252.432 177.385L252.456 210.458L193.985 177.057L188.323 178.885L188.299 140.749Z" fill="url(#paint4_linear)"/>
<path d="M233.787 183.198V174.221L258 188.05V197.027L233.787 183.198Z" fill="#F2C94C"/>
<path opacity="0.1" d="M204.789 158.212L218.838 166.228V169.134L204.789 161.118V158.212Z" fill="white"/>
<path opacity="0.1" d="M204.813 164.024L230.163 178.51V181.416L204.813 166.931V164.024Z" fill="white"/>
<path opacity="0.15" d="M204.813 169.838L237.625 188.589V191.496L204.813 172.744V169.838Z" fill="white"/>
<path d="M201.33 159.266C201.33 161.985 199.695 163.275 197.681 162.126C195.668 160.977 194.033 157.837 194.033 155.118C194.033 152.399 195.668 151.109 197.681 152.258C199.719 153.407 201.33 156.547 201.33 159.266Z" fill="#F2C94C"/>
<path opacity="0.3" d="M132.98 94.0343L68.8467 57.4219L68.8704 90.4949L127.341 123.873L133.003 132.17L132.98 94.0343Z" fill="url(#paint5_linear)"/>
<path d="M62 70.3135V61.3362L86.2128 75.1655V84.1428L62 70.3135Z" fill="#F2994A"/>
<path opacity="0.15" d="M116.491 92.675L102.441 84.6587V87.5652L116.491 95.5815V92.675Z" fill="white"/>
<path opacity="0.15" d="M116.491 98.4879L89.4112 83.0178V85.9243L116.491 101.394V98.4879Z" fill="white"/>
<path opacity="0.15" d="M116.491 104.301L83.6777 85.5491V88.4556L116.491 107.207V104.301Z" fill="white"/>
<path d="M119.949 97.6676C119.949 100.387 121.584 103.527 123.598 104.676C125.612 105.824 127.246 104.535 127.246 101.816C127.246 99.0974 125.612 95.9565 123.598 94.8079C121.584 93.6828 119.949 94.9486 119.949 97.6676Z" fill="#F2994A"/>
<path opacity="0.2" d="M124.451 129.334L86.1415 107.465V127.201L124.451 149.07V129.334Z" fill="url(#paint6_linear)"/>
<path opacity="0.15" d="M95.95 117.802L109.075 125.303V127.67L95.95 120.169V117.802Z" fill="white"/>
<path opacity="0.15" d="M95.95 122.56L120.494 136.577V138.968L95.95 124.951V122.56Z" fill="white"/>
<path d="M93.9361 118.505C93.9361 120.122 92.9647 120.896 91.7565 120.216C90.5482 119.536 89.5768 117.661 89.5768 116.02C89.5768 114.403 90.5482 113.63 91.7565 114.309C92.941 115.013 93.9361 116.888 93.9361 118.505Z" fill="#F2994A"/>
<path opacity="0.2" d="M238.218 144.242L199.908 122.373V142.109L238.218 164.001V144.242Z" fill="url(#paint7_linear)"/>
<path opacity="0.15" d="M209.717 132.733L222.842 140.234V142.601L209.717 135.1V132.733Z" fill="white"/>
<path opacity="0.15" d="M209.74 137.491L234.285 151.508V153.899L209.74 139.882V137.491Z" fill="white"/>
<path d="M207.703 133.436C207.703 135.054 206.732 135.827 205.523 135.147C204.315 134.468 203.344 132.592 203.344 130.952C203.344 129.334 204.315 128.561 205.523 129.241C206.732 129.944 207.703 131.819 207.703 133.436Z" fill="#F2C94C"/>
<path opacity="0.25" d="M3.5 86.5L10.5 72.5L25.5 62L63.5 41.5L132 3.99993L148.5 -6.51405e-05L166.5 1.99994L179.5 8.99994L224.5 32.9999L267 56.4999L286 66.9999L293 75.4999L297 82.9999L3.49998 226L3.5 86.5Z" fill="url(#paint8_linear)"/>
<defs>
<linearGradient id="paint0_linear" x1="191.828" y1="67.343" x2="119.358" y2="194.248" gradientUnits="userSpaceOnUse">
<stop stop-color="white"/>
<stop offset="1" stop-color="white" stop-opacity="0"/>
</linearGradient>
<linearGradient id="paint1_linear" x1="200.45" y1="60.9459" x2="127.98" y2="187.851" gradientUnits="userSpaceOnUse">
<stop stop-color="white"/>
<stop offset="1" stop-color="white" stop-opacity="0"/>
</linearGradient>
<linearGradient id="paint2_linear" x1="178.095" y1="94.8692" x2="122.169" y2="196.865" gradientUnits="userSpaceOnUse">
<stop stop-color="white" stop-opacity="0"/>
<stop offset="1" stop-color="white"/>
</linearGradient>
<linearGradient id="paint3_linear" x1="172.746" y1="217.307" x2="141.445" y2="272.12" gradientUnits="userSpaceOnUse">
<stop stop-color="white"/>
<stop offset="1" stop-color="white" stop-opacity="0"/>
</linearGradient>
<linearGradient id="paint4_linear" x1="215.855" y1="141.82" x2="223.974" y2="208.378" gradientUnits="userSpaceOnUse">
<stop stop-color="white"/>
<stop offset="1" stop-color="white" stop-opacity="0"/>
</linearGradient>
<linearGradient id="paint5_linear" x1="118.994" y1="80.7911" x2="86.1471" y2="106.786" gradientUnits="userSpaceOnUse">
<stop stop-color="white"/>
<stop offset="1" stop-color="white" stop-opacity="0"/>
</linearGradient>
<linearGradient id="paint6_linear" x1="109.613" y1="120.855" x2="101.111" y2="135.742" gradientUnits="userSpaceOnUse">
<stop stop-color="white"/>
<stop offset="1" stop-color="white" stop-opacity="0"/>
</linearGradient>
<linearGradient id="paint7_linear" x1="223.394" y1="135.781" x2="214.893" y2="150.668" gradientUnits="userSpaceOnUse">
<stop stop-color="white"/>
<stop offset="1" stop-color="white" stop-opacity="0"/>
</linearGradient>
<linearGradient id="paint8_linear" x1="276.004" y1="-11.3078" x2="252.424" y2="153.763" gradientUnits="userSpaceOnUse">
<stop stop-color="white"/>
<stop offset="1" stop-color="white" stop-opacity="0"/>
</linearGradient>
</defs>
</svg>
