<svg width="1660" height="410" viewBox="0 0 1660 410" fill="none" xmlns="http://www.w3.org/2000/svg">
<path opacity="0.559454" d="M157.754 158.555H204.6V205.4H157.754V158.555Z" fill="#13204A"/>
<path d="M204.6 111.309H251.445V158.154H204.6V111.309Z" fill="#13204A"/>
<path d="M63.6621 111.309H110.508V158.154H63.6621V111.309Z" fill="#13204A"/>
<path d="M299.092 205.4H345.938V252.246H299.092V205.4Z" fill="#13204A"/>
<path opacity="0.783366" d="M157.754 205.4H204.6V252.246H157.754V205.4Z" fill="#13204A"/>
<path opacity="0.461286" d="M204.6 205.4H251.445V252.246H204.6V205.4Z" fill="#13204A"/>
<path d="M63.6621 205.4H110.508V252.246H63.6621V205.4Z" fill="#13204A"/>
<path opacity="0.414969" d="M251.846 299.092H298.691V345.938H251.846V299.092Z" fill="#13204A"/>
<path opacity="0.414969" d="M157.754 252.246H204.6V299.092H157.754V252.246Z" fill="#13204A"/>
<path opacity="0.340681" d="M110.908 158.555H157.754V205.4H110.908V158.555Z" fill="#13204A"/>
<path d="M251.846 64.4629H298.691V111.309H251.846V64.4629Z" fill="#13204A"/>
<path d="M110.908 64.4629H157.754V111.309H110.908V64.4629Z" fill="#13204A"/>
<path opacity="0.559454" d="M1502.25 158.555H1455.4V205.4H1502.25V158.555Z" fill="#13204A"/>
<path d="M1455.4 111.309H1408.55V158.154H1455.4V111.309Z" fill="#13204A"/>
<path d="M1596.34 111.309H1549.49V158.154H1596.34V111.309Z" fill="#13204A"/>
<path d="M1360.91 205.4H1314.06V252.246H1360.91V205.4Z" fill="#13204A"/>
<path opacity="0.783366" d="M1502.25 205.4H1455.4V252.246H1502.25V205.4Z" fill="#13204A"/>
<path opacity="0.461286" d="M1455.4 205.4H1408.55V252.246H1455.4V205.4Z" fill="#13204A"/>
<path d="M1596.34 205.4H1549.49V252.246H1596.34V205.4Z" fill="#13204A"/>
<path opacity="0.414969" d="M1408.15 299.092H1361.31V345.938H1408.15V299.092Z" fill="#13204A"/>
<path opacity="0.414969" d="M1502.25 252.246H1455.4V299.092H1502.25V252.246Z" fill="#13204A"/>
<path opacity="0.340681" d="M1549.09 158.555H1502.25V205.4H1549.09V158.555Z" fill="#13204A"/>
<path d="M1408.15 64.4629H1361.31V111.309H1408.15V64.4629Z" fill="#13204A"/>
<path d="M1549.09 64.4629H1502.25V111.309H1549.09V64.4629Z" fill="#13204A"/>
</svg>
