<svg width="167" height="35" viewBox="0 0 167 35" fill="none" xmlns="http://www.w3.org/2000/svg">
<g clip-path="url(#clip0)">
<path d="M4.23557 5.54782C1.31522 8.46817 -0.219202 12.5057 0.0282855 16.6282L0.155565 16.6282H7.97617L8.80348 16.6352C9.08632 16.6352 9.31967 16.8686 9.31967 17.1514L9.32674 20.6658C9.32674 20.9486 9.09339 21.1819 8.81055 21.1819H8.358L1.02531 21.189C1.72534 22.9356 2.77186 24.5336 4.08001 25.8842L8.97319 25.8842C9.10046 25.8842 9.2136 25.8418 9.3126 25.7569C9.31967 25.7216 9.32674 25.6862 9.32674 25.6438V22.1224C9.32674 21.8396 9.56008 21.6062 9.84293 21.6062L10.0126 21.6062L11.745 21.6133H15.1392C15.422 21.6133 15.6553 21.8466 15.6553 22.1295L15.6553 25.6509C15.6553 25.9337 15.422 26.1671 15.1392 26.167L9.92071 26.167C9.79343 26.167 9.68029 26.2095 9.5813 26.2943C9.57423 26.3297 9.56716 26.365 9.56716 26.4075L9.56716 29.4197C17.0908 32.135 25.3993 28.2389 28.1146 20.7153C30.8228 13.1846 26.9266 4.87606 19.403 2.16077C14.1139 0.251585 8.20244 1.58095 4.23557 5.54782ZM4.63862 11.5512L4.63862 7.97319C4.63862 7.69035 4.87197 7.457 5.15481 7.457L8.7257 7.44993C9.00854 7.44993 9.24189 7.68328 9.24189 7.96612L9.24189 11.5441C9.24189 11.8269 9.00854 12.0603 8.7257 12.0603L5.16188 12.0744C4.87904 12.0744 4.63862 11.8481 4.63862 11.5512C4.64569 11.5582 4.63862 11.5512 4.63862 11.5512ZM20.3152 12.732L20.3152 15.9706C20.3152 16.2534 20.0818 16.4868 19.799 16.4868H9.91364C9.6308 16.4868 9.39745 16.2534 9.39745 15.9706V12.732C9.39745 12.4492 9.6308 12.2158 9.91364 12.2158L19.799 12.2158C20.0818 12.2158 20.3152 12.4492 20.3152 12.732Z" fill="white"/>
<path d="M29.68 5.66598C31.243 5.66598 32.51 4.39895 32.51 2.83598C32.51 1.27302 31.243 0.00598145 29.68 0.00598145C28.117 0.00598145 26.85 1.27302 26.85 2.83598C26.85 4.39895 28.117 5.66598 29.68 5.66598Z" fill="white"/>
<path d="M51.7459 10.751H46.4859V24.791H51.7459C56.2259 24.791 59.1059 21.931 59.1059 17.771C59.1059 13.591 56.2259 10.751 51.7459 10.751ZM49.9059 21.831V13.671H51.5259C54.1059 13.671 55.6259 15.191 55.6259 17.771C55.6259 20.351 54.1059 21.831 51.5259 21.831H49.9059ZM60.3372 19.191C60.3372 22.711 62.5172 24.951 65.2372 24.951C66.8972 24.951 68.0772 24.191 68.6972 23.211V24.791H72.1172V13.631H68.6972V15.211C68.0972 14.231 66.9172 13.471 65.2572 13.471C62.5172 13.471 60.3372 15.671 60.3372 19.191ZM68.6972 19.211C68.6972 20.991 67.5572 21.971 66.2572 21.971C64.9772 21.971 63.8172 20.971 63.8172 19.191C63.8172 17.411 64.9772 16.451 66.2572 16.451C67.5572 16.451 68.6972 17.431 68.6972 19.211ZM75.1314 20.911C75.1314 23.811 76.7514 24.791 79.0714 24.791H80.8114V21.891H79.5914C78.8314 21.891 78.5514 21.611 78.5514 20.951V16.471H80.7914V13.631H78.5514V10.911H75.1314V13.631H73.7714V16.471H75.1314V20.911ZM82.0364 19.191C82.0364 22.711 84.2164 24.951 86.9364 24.951C88.5964 24.951 89.7764 24.191 90.3964 23.211V24.791H93.8164V13.631H90.3964V15.211C89.7964 14.231 88.6164 13.471 86.9564 13.471C84.2164 13.471 82.0364 15.671 82.0364 19.191ZM90.3964 19.211C90.3964 20.991 89.2564 21.971 87.9564 21.971C86.6764 21.971 85.5164 20.971 85.5164 19.191C85.5164 17.411 86.6764 16.451 87.9564 16.451C89.2564 16.451 90.3964 17.431 90.3964 19.211ZM105.789 10.751H100.529V24.791H105.789C110.269 24.791 113.149 21.931 113.149 17.771C113.149 13.591 110.269 10.751 105.789 10.751ZM103.949 21.831V13.671H105.569C108.149 13.671 109.669 15.191 109.669 17.771C109.669 20.351 108.149 21.831 105.569 21.831H103.949ZM118.48 19.611C118.48 17.691 119.42 17.131 121.04 17.131H121.98V13.511C120.48 13.511 119.26 14.311 118.48 15.491V13.631H115.06V24.791H118.48V19.611ZM123.615 24.791H127.035V13.631H123.615V24.791ZM125.335 12.471C126.535 12.471 127.355 11.651 127.355 10.631C127.355 9.59098 126.535 8.77098 125.335 8.77098C124.115 8.77098 123.295 9.59098 123.295 10.631C123.295 11.651 124.115 12.471 125.335 12.471ZM128.453 13.631L132.413 24.791H136.633L140.593 13.631H136.953L134.533 21.591L132.113 13.631H128.453ZM146.953 16.211C148.093 16.211 149.053 16.911 149.053 18.131H144.773C144.973 16.891 145.833 16.211 146.953 16.211ZM152.293 21.091H148.653C148.373 21.691 147.833 22.171 146.873 22.171C145.773 22.171 144.873 21.491 144.753 20.031H152.493C152.533 19.691 152.553 19.351 152.553 19.031C152.553 15.631 150.253 13.471 146.993 13.471C143.673 13.471 141.353 15.671 141.353 19.211C141.353 22.751 143.713 24.951 146.993 24.951C149.773 24.951 151.753 23.271 152.293 21.091ZM162.057 24.791H165.457V18.271C165.457 15.271 163.737 13.511 161.157 13.511C159.657 13.511 158.457 14.171 157.777 15.111V13.631H154.357V24.791H157.777V18.731C157.777 17.211 158.617 16.371 159.917 16.371C161.217 16.371 162.057 17.211 162.057 18.731V24.791Z" fill="white"/>
</g>
<defs>
<clipPath id="clip0">
<rect width="166.62" height="34.91" fill="white"/>
</clipPath>
</defs>
</svg>
