<svg width="363" height="360" viewBox="0 0 363 360" fill="none" xmlns="http://www.w3.org/2000/svg">
<path d="M189.799 50.5034L189.799 50.5034C195.903 47.1791 203.932 45.501 211.991 45.5C220.05 45.499 228.085 47.1749 234.201 50.5034L234.44 50.0643L234.201 50.5034L340.321 108.249C346.419 111.57 351.969 117.408 355.997 124.177C360.024 130.947 362.5 138.602 362.5 145.529V258.888C362.5 265.819 360.03 273.47 356.006 280.235C351.982 287 346.432 292.833 340.321 296.159L234.201 353.904L234.44 354.344L234.201 353.905C228.097 357.229 220.068 358.909 212.009 358.911C203.95 358.913 195.915 357.237 189.799 353.905L189.799 353.904L83.6794 296.159C83.6794 296.159 83.6793 296.159 83.6793 296.159C77.581 292.838 72.0306 287 68.0034 280.232C63.9762 273.463 61.5 265.81 61.5 258.888V145.529C61.5 138.597 63.9701 130.946 67.9941 124.18C72.0179 117.414 77.5684 111.578 83.6795 108.249L189.799 50.5034Z" fill="#101C43" stroke="#101C43"/>
<path d="M183.669 292.649C183.733 292.649 183.921 292.653 184.233 292.661C184.553 292.661 184.937 292.661 185.385 292.661C185.833 292.653 186.289 292.653 186.753 292.661C187.225 292.661 187.645 292.665 188.013 292.673C190.133 292.705 191.857 293.057 193.185 293.729C194.513 294.401 195.485 295.369 196.101 296.633C196.725 297.889 197.037 299.421 197.037 301.229C197.037 303.109 196.705 304.705 196.041 306.017C195.377 307.321 194.361 308.313 192.993 308.993C191.633 309.665 189.909 310.001 187.821 310.001H183.669V292.649ZM186.285 294.809V307.841H187.845C189.157 307.841 190.297 307.629 191.265 307.205C192.241 306.773 192.997 306.077 193.533 305.117C194.069 304.149 194.337 302.857 194.337 301.241C194.337 299.657 194.081 298.397 193.569 297.461C193.057 296.517 192.321 295.841 191.361 295.433C190.409 295.017 189.261 294.809 187.917 294.809H186.285ZM198.474 310.001L204.738 292.649H207.57L213.822 310.001H211.23L209.598 305.453H202.746L201.078 310.001H198.474ZM203.358 303.125H208.938L206.166 295.169L203.358 303.125ZM213.524 294.989V292.649H226.856V294.989H221.612V310.001H219.02V294.989H213.524ZM226.271 310.001L232.535 292.649H235.367L241.619 310.001H239.027L237.395 305.453H230.543L228.875 310.001H226.271ZM231.155 303.125H236.735L233.963 295.169L231.155 303.125Z" fill="white"/>
<path opacity="0.07" d="M299.048 171.615C299.048 172.679 299.024 173.743 298.953 174.737C309.15 182.471 317 199.051 317 213.643C317 229.537 307.68 237.035 296.178 230.412C296.155 230.389 296.131 230.389 296.107 230.365L223.848 188.809C223.824 188.786 223.8 188.786 223.753 188.762C210.828 181.312 200.346 160.806 200.346 142.949C200.346 126.228 209.548 117.737 221.334 122.869C222.781 111.398 230.488 106.455 239.784 111.824C244.243 114.402 248.345 118.919 251.547 124.359C256.195 117.476 264.116 115.726 273.08 120.882C287.427 129.113 299.048 151.842 299.048 171.615Z" fill="url(#paint0_linear)"/>
<path opacity="0.4" d="M287.19 182.968C287.19 184.032 287.167 185.096 287.095 186.09C297.293 193.824 305.143 210.403 305.143 224.996C305.143 240.89 295.823 248.388 284.321 241.765C284.297 241.741 284.273 241.742 284.25 241.718L211.99 200.162C211.967 200.139 211.943 200.139 211.895 200.115C198.971 192.665 188.489 172.159 188.489 154.302C188.489 137.58 197.69 129.089 209.476 134.222C210.923 122.751 218.63 117.808 227.927 123.177C232.385 125.755 236.488 130.272 239.689 135.712C244.337 128.829 252.258 127.079 261.222 132.235C275.57 140.466 287.19 163.195 287.19 182.968Z" fill="url(#paint1_linear)"/>
<path opacity="0.2" d="M172.79 203.213L161.786 196.874V193.161L172.79 199.5C173.691 200.02 174.995 201.061 176.11 202.669C177.319 204.396 178.173 206.572 178.173 208.937C178.173 211.538 177.509 213.028 176.228 213.454C175.042 213.856 173.643 213.17 172.766 212.674L168.236 210.072L168.213 210.048C167.833 209.812 167.217 209.599 166.718 209.741C166.315 209.859 165.865 210.261 165.865 211.704C165.865 213.147 166.315 214.045 166.695 214.566C167.169 215.228 167.786 215.701 168.165 215.89L168.213 215.914L182.038 223.884V227.598L168.284 219.674C167.335 219.178 165.983 218.137 164.798 216.482C163.517 214.684 162.616 212.39 162.64 209.835C162.64 207.305 163.517 206.004 164.798 205.649C165.983 205.318 167.335 205.791 168.284 206.382L172.766 208.96C173.406 209.339 173.904 209.504 174.212 209.386C174.45 209.315 174.924 208.96 174.924 207.068C174.924 205.862 174.521 205.058 174.165 204.514C173.738 203.899 173.145 203.426 172.79 203.213Z" fill="white"/>
<path d="M164.157 195.952C164.157 199.003 162.355 200.446 160.149 199.192C157.944 197.915 156.141 194.415 156.141 191.34C156.141 188.289 157.944 186.846 160.149 188.1C162.355 189.377 164.157 192.901 164.157 195.952Z" fill="#F28008"/>
<path d="M187.635 228.828C187.635 231.879 185.833 233.322 183.627 232.068C181.422 230.791 179.619 227.29 179.619 224.216C179.619 221.165 181.422 219.722 183.627 220.975C185.833 222.253 187.635 225.777 187.635 228.828Z" fill="#F2B108"/>
<path opacity="0.07" d="M206.583 150.257L277.704 191.198V228.733L206.56 187.792L206.583 150.257Z" fill="url(#paint2_linear)"/>
<path opacity="0.3" d="M197.074 154.988L268.195 195.928V233.463L197.074 192.522V154.988Z" fill="url(#paint3_linear)"/>
<path d="M203.453 177.338C203.453 180.366 205.255 183.843 207.461 185.12C209.666 186.397 211.468 184.978 211.468 181.95C211.468 178.923 209.666 175.446 207.461 174.169C205.255 172.892 203.453 174.311 203.453 177.338Z" fill="#F2B108"/>
<path opacity="0.15" d="M213.484 183.18C213.484 184.576 214.314 186.208 215.358 186.799C216.378 187.39 217.208 186.728 217.208 185.333C217.208 183.937 216.378 182.305 215.334 181.714C214.314 181.123 213.484 181.785 213.484 183.18Z" fill="white"/>
<path opacity="0.15" d="M219.2 186.468C219.2 187.863 220.03 189.495 221.073 190.087C222.093 190.678 222.923 190.016 222.923 188.62C222.923 187.225 222.093 185.593 221.049 185.001C220.03 184.41 219.2 185.072 219.2 186.468Z" fill="white"/>
<path opacity="0.15" d="M250.242 192.854V214.211L247.444 212.603V191.245L250.242 192.854Z" fill="white"/>
<path opacity="0.15" d="M256.361 196.402V217.759L253.563 216.151V194.793L256.361 196.402Z" fill="white"/>
<path opacity="0.15" d="M262.503 199.949V221.306L259.705 219.698V198.341L262.503 199.949Z" fill="white"/>
<path opacity="0.07" d="M206.56 201.558L277.681 242.498V280.033L206.56 239.093V201.558Z" fill="url(#paint4_linear)"/>
<path opacity="0.3" d="M197.074 206.524L268.195 247.465V285L197.074 244.059V206.524Z" fill="url(#paint5_linear)"/>
<path d="M203.453 228.875C203.453 231.902 205.255 235.379 207.461 236.656C209.666 237.933 211.468 236.514 211.468 233.487C211.468 230.46 209.666 226.983 207.461 225.706C205.255 224.428 203.453 225.848 203.453 228.875Z" fill="#F28008"/>
<path opacity="0.15" d="M213.484 234.74C213.484 236.136 214.314 237.768 215.358 238.359C216.378 238.95 217.208 238.288 217.208 236.893C217.208 235.497 216.378 233.865 215.334 233.274C214.314 232.683 213.484 233.321 213.484 234.74Z" fill="white"/>
<path opacity="0.15" d="M219.176 238.028C219.176 239.424 220.006 241.055 221.049 241.647C222.069 242.238 222.899 241.576 222.899 240.18C222.899 238.785 222.069 237.153 221.026 236.562C220.006 235.947 219.176 236.609 219.176 238.028Z" fill="white"/>
<path opacity="0.15" d="M250.242 245.123V266.481L247.444 264.872V243.515L250.242 245.123Z" fill="white"/>
<path opacity="0.15" d="M256.361 248.671V270.029L253.563 268.42V247.063L256.361 248.671Z" fill="white"/>
<path opacity="0.15" d="M262.503 252.219V273.576L259.705 271.968V250.611L262.503 252.219Z" fill="white"/>
<path opacity="0.3" d="M133.921 99.3831L178.244 124.903V206.808L133.921 181.265V99.3831Z" fill="url(#paint6_linear)"/>
<path d="M161.288 129.042C161.288 133.134 158.916 135.073 155.999 133.37C153.082 131.667 150.711 126.984 150.711 122.893C150.711 118.801 153.082 116.862 155.999 118.564C158.916 120.267 161.288 124.95 161.288 129.042Z" fill="#F28008"/>
<path d="M155.999 136.658C151.28 133.914 147.391 136.492 146.703 142.405C146.584 143.422 147.367 144.794 148.316 145.338L163.707 154.302C164.655 154.846 165.438 154.42 165.319 153.238C164.608 146.497 160.695 139.401 155.999 136.658Z" fill="#F28008"/>
<path opacity="0.15" d="M142.814 152.504L169.232 167.712V170.929L142.814 155.721V152.504Z" fill="white"/>
<path opacity="0.15" d="M145.494 160.427L166.434 172.466V175.683L145.494 163.644V160.427Z" fill="white"/>
<path d="M150.829 173.956L120 156.194V165.347L150.829 183.109V173.956Z" fill="#F2B108"/>
<path opacity="0.2" d="M187.801 89L194.394 101.914C195.295 103.688 195.153 105.461 194.062 105.887C192.971 106.313 191.358 105.201 190.457 103.427L190.386 103.262V117.595C190.386 119.227 189.248 119.889 187.825 119.085C186.402 118.257 185.264 116.294 185.264 114.662V100.329L185.192 100.4C184.291 101.133 182.655 100.376 181.588 98.6971C180.497 97.0179 180.355 95.0784 181.256 94.3452L187.801 89Z" fill="url(#paint7_linear)"/>
<path opacity="0.2" d="M187.801 279.678L181.208 266.765C180.307 264.991 180.449 263.217 181.54 262.791C182.631 262.366 184.244 263.477 185.145 265.251L185.216 265.417V251.084C185.216 249.452 186.354 248.79 187.777 249.594C189.2 250.422 190.339 252.385 190.339 254.017V268.349L190.41 268.278C191.311 267.545 192.947 268.302 194.014 269.981C195.105 271.661 195.248 273.6 194.346 274.333L187.801 279.678Z" fill="url(#paint8_linear)"/>
<path opacity="0.25" d="M64 132.5L70.5 117L85.5 106L124 85L195.5 46.9999L212.5 43.9999L222.5 45.9999L230 47.9999L242.5 54.4999L287 78.4999L343.5 109.5L64 271L64 132.5Z" fill="url(#paint9_linear)"/>
<defs>
<linearGradient id="paint0_linear" x1="312.758" y1="126.449" x2="239.563" y2="196.061" gradientUnits="userSpaceOnUse">
<stop stop-color="white"/>
<stop offset="1" stop-color="white" stop-opacity="0"/>
</linearGradient>
<linearGradient id="paint1_linear" x1="300.898" y1="137.801" x2="227.703" y2="207.414" gradientUnits="userSpaceOnUse">
<stop stop-color="white"/>
<stop offset="1" stop-color="white" stop-opacity="0"/>
</linearGradient>
<linearGradient id="paint2_linear" x1="240.678" y1="153.259" x2="243.314" y2="219.654" gradientUnits="userSpaceOnUse">
<stop stop-color="white"/>
<stop offset="1" stop-color="white" stop-opacity="0"/>
</linearGradient>
<linearGradient id="paint3_linear" x1="231.192" y1="157.989" x2="233.827" y2="224.384" gradientUnits="userSpaceOnUse">
<stop stop-color="white"/>
<stop offset="1" stop-color="white" stop-opacity="0"/>
</linearGradient>
<linearGradient id="paint4_linear" x1="240.673" y1="204.567" x2="243.309" y2="270.962" gradientUnits="userSpaceOnUse">
<stop stop-color="white"/>
<stop offset="1" stop-color="white" stop-opacity="0"/>
</linearGradient>
<linearGradient id="paint5_linear" x1="231.187" y1="209.534" x2="233.822" y2="275.928" gradientUnits="userSpaceOnUse">
<stop stop-color="white"/>
<stop offset="1" stop-color="white" stop-opacity="0"/>
</linearGradient>
<linearGradient id="paint6_linear" x1="182.994" y1="106.581" x2="143.807" y2="174.656" gradientUnits="userSpaceOnUse">
<stop stop-color="white"/>
<stop offset="1" stop-color="white" stop-opacity="0"/>
</linearGradient>
<linearGradient id="paint7_linear" x1="192.493" y1="102.026" x2="180.479" y2="108.741" gradientUnits="userSpaceOnUse">
<stop stop-color="white"/>
<stop offset="1" stop-color="white" stop-opacity="0"/>
</linearGradient>
<linearGradient id="paint8_linear" x1="183.097" y1="266.661" x2="195.11" y2="259.946" gradientUnits="userSpaceOnUse">
<stop stop-color="white"/>
<stop offset="1" stop-color="white" stop-opacity="0"/>
</linearGradient>
<linearGradient id="paint9_linear" x1="346.004" y1="25.6933" x2="322.424" y2="190.764" gradientUnits="userSpaceOnUse">
<stop stop-color="white"/>
<stop offset="1" stop-color="white" stop-opacity="0"/>
</linearGradient>
</defs>
</svg>
