<svg width="278" height="73" viewBox="0 0 278 73" fill="none" xmlns="http://www.w3.org/2000/svg">
<g clip-path="url(#clip0)">
<path d="M158.571 29.0964L158.377 29.0176L158.574 29.0964V28.8811H156.16L156.106 29.0123C154.797 32.3731 152.504 35.2603 149.526 37.2959C146.548 39.3315 143.024 40.4206 139.417 40.4206C135.809 40.4206 132.286 39.3315 129.308 37.2959C126.33 35.2603 124.036 32.3731 122.727 29.0123L122.672 28.8811H120.001L120.107 29.1725C121.483 33.2055 124.087 36.707 127.554 39.1864C131.02 41.6658 135.176 42.9989 139.438 42.9989C143.701 42.9989 147.856 41.6658 151.323 39.1864C154.789 36.707 157.393 33.2055 158.769 29.1725L158.877 28.8798H158.576L158.571 29.0964Z" fill="#064FEC"/>
<path d="M156.293 8.80742C156.566 8.29091 156.707 7.71513 156.704 7.13103C156.72 6.21772 156.372 5.33548 155.738 4.67823C155.103 4.02098 154.233 3.64251 153.32 3.62594C152.739 3.62481 152.168 3.77985 151.668 4.07489C148.184 1.43992 143.936 0.0113391 139.567 0.00531006C135.319 0.0621336 131.191 1.41975 127.74 3.89508C124.288 6.37042 121.679 9.84439 120.263 13.8485L120.157 14.1399H122.812L122.866 14.0087C124.198 10.6608 126.498 7.78564 129.472 5.75023C132.446 3.71482 135.959 2.61147 139.563 2.58095C143.362 2.58243 147.06 3.80993 150.105 6.08083C149.996 6.42693 149.94 6.78776 149.94 7.15074C149.924 8.05792 150.27 8.9341 150.9 9.58688C151.53 10.2397 152.394 10.6156 153.301 10.6322C153.651 10.6284 153.998 10.5704 154.33 10.4602C155.104 11.5721 155.758 12.7634 156.28 14.0139L156.333 14.1452H156.465L159.01 14.1387L158.905 13.8498C158.259 12.063 157.381 10.3689 156.293 8.81135" fill="#064FEC"/>
<path d="M102.953 19.5394C103.186 19.2943 103.466 19.0991 103.776 18.9657C104.086 18.8324 104.42 18.7636 104.758 18.7636C105.096 18.7636 105.43 18.8324 105.741 18.9657C106.051 19.0991 106.331 19.2943 106.563 19.5394L107.363 20.3428L108.912 18.711L108.135 17.9076C107.243 16.9982 106.029 16.4761 104.755 16.4543C104.135 16.4567 103.522 16.584 102.952 16.8285C102.356 17.0738 101.819 17.4424 101.376 17.9102C100.92 18.3767 100.565 18.9322 100.334 19.542C100.108 20.1398 99.9931 20.7737 99.9948 21.4127C99.9943 22.0434 100.109 22.669 100.334 23.2585C100.567 23.87 100.925 24.4265 101.384 24.8929C101.83 25.3617 102.366 25.7355 102.96 25.9916C103.533 26.2224 104.145 26.3422 104.763 26.3447C105.375 26.3436 105.981 26.2237 106.547 25.9916C107.148 25.7381 107.691 25.3641 108.142 24.8929L108.918 24.0868L107.368 22.4563L106.566 23.2624C106.338 23.5144 106.057 23.7126 105.743 23.8427C105.432 23.9722 105.099 24.0387 104.763 24.0382C104.424 24.0419 104.089 23.9744 103.778 23.84C103.467 23.7057 103.188 23.5076 102.959 23.2585C102.713 23.0082 102.521 22.7102 102.395 22.3829C102.144 21.7438 102.144 21.0331 102.395 20.394C102.519 20.0734 102.71 19.7832 102.956 19.5433L102.953 19.5394ZM101.533 18.0598L101.401 17.9286L101.533 18.0598Z" fill="#064FEC"/>
<path d="M117.657 17.9037C117.208 17.4324 116.663 17.0634 116.059 16.822C115.496 16.5772 114.889 16.4503 114.275 16.4492C113.655 16.4517 113.042 16.5784 112.472 16.822C111.877 17.0674 111.34 17.4355 110.897 17.9024C110.439 18.3695 110.082 18.9258 109.849 19.5368C109.624 20.1268 109.509 20.7526 109.507 21.3838C109.509 22.0213 109.624 22.6535 109.847 23.2506C110.079 23.8516 110.427 24.4008 110.872 24.8663C111.318 25.3319 111.851 25.7045 112.441 25.9628C113.019 26.2093 113.641 26.3364 114.269 26.3364C114.897 26.3364 115.519 26.2093 116.097 25.9628C116.681 25.7107 117.209 25.3438 117.649 24.8837L118.425 24.0777L116.849 22.4472L116.702 22.5995L116.07 23.2559C115.697 23.6574 115.201 23.9249 114.66 24.0173C114.537 24.0356 114.412 24.0448 114.287 24.0448C113.993 24.0446 113.702 23.9903 113.427 23.8846L118.417 18.7097L117.657 17.9037ZM111.72 21.3865C111.714 21.0406 111.778 20.6971 111.907 20.3762C112.036 20.0553 112.228 19.7636 112.472 19.5184C112.836 19.1214 113.325 18.8606 113.858 18.7793C113.986 18.7608 114.115 18.7511 114.244 18.7504C114.54 18.7497 114.834 18.8035 115.111 18.9093C114.948 19.0747 114.753 19.2702 114.518 19.5052L113.442 20.6211C113.076 21.0001 112.723 21.3646 112.384 21.7147L111.87 22.249C111.771 21.9708 111.721 21.6777 111.723 21.3826L111.72 21.3865ZM112.329 19.3622L112.451 19.4934L112.32 19.3622H112.329ZM116.854 22.7505L116.723 22.6126L116.854 22.7505Z" fill="#064FEC"/>
<path d="M121.261 21.3851C121.258 21.0388 121.322 20.6951 121.449 20.373C121.578 20.0632 121.763 19.7797 121.994 19.5367C122.223 19.2967 122.498 19.1045 122.802 18.9709C123.114 18.831 123.453 18.7587 123.796 18.7587C124.138 18.7587 124.477 18.831 124.79 18.9709C125.094 19.0967 125.367 19.2876 125.59 19.5301C125.828 19.7641 126.012 20.0473 126.129 20.3598V20.3664C126.268 20.6829 126.338 21.0252 126.334 21.3707V26.3356H128.576V21.3786C128.581 20.7193 128.451 20.0659 128.192 19.4592C127.962 18.8756 127.615 18.345 127.173 17.8997C126.738 17.4485 126.217 17.0888 125.641 16.8416C125.061 16.5759 124.43 16.4414 123.792 16.4478C123.153 16.4449 122.52 16.5792 121.938 16.8416C121.364 17.0861 120.844 17.4432 120.41 17.8918C119.977 18.3453 119.631 18.8749 119.39 19.454C119.145 20.0626 119.023 20.7134 119.029 21.3693V26.3356H121.255L121.261 21.3851Z" fill="#064FEC"/>
<path d="M129.255 21.4048C129.255 22.0362 129.371 22.6621 129.596 23.2519C129.827 23.8623 130.181 24.4183 130.637 24.885C131.084 25.353 131.62 25.7267 132.213 25.9839C132.787 26.2144 133.398 26.3343 134.016 26.337C134.628 26.3355 135.233 26.2156 135.799 25.9839C136.401 25.7301 136.943 25.3556 137.394 24.8837L138.17 24.0789L136.62 22.4485L135.819 23.2533C135.591 23.5046 135.31 23.7027 134.997 23.8335C134.686 23.9628 134.353 24.0288 134.016 24.0278C133.678 24.0324 133.342 23.9657 133.03 23.8318C132.719 23.6978 132.44 23.4998 132.211 23.2506C131.966 22.9988 131.774 22.7007 131.646 22.3737C131.396 21.7344 131.396 21.0242 131.646 20.3848C131.769 20.0646 131.96 19.7748 132.205 19.5354C132.444 19.2843 132.732 19.0854 133.051 18.9512C133.517 18.7567 134.031 18.7084 134.525 18.8127C135.019 18.917 135.469 19.1691 135.817 19.5354L136.618 20.3402L138.167 18.7084L137.391 17.905C136.943 17.4331 136.398 17.0641 135.793 16.8233C135.23 16.5786 134.623 16.4517 134.01 16.4504C133.39 16.4523 132.777 16.5791 132.207 16.8233C131.611 17.0672 131.073 17.4356 130.631 17.9037C130.174 18.3695 129.82 18.9252 129.59 19.5354C129.363 20.1327 129.247 20.7662 129.248 21.4048H129.255ZM130.781 18.0573L130.678 17.951L130.781 18.0573Z" fill="#064FEC"/>
<path d="M138.776 21.3852C138.773 22.0409 138.896 22.6911 139.138 23.3005C139.381 23.8812 139.725 24.4144 140.154 24.8759C140.591 25.3274 141.109 25.6926 141.681 25.9523C142.266 26.2018 142.896 26.3291 143.531 26.3265C144.168 26.3322 144.798 26.2043 145.382 25.951C145.954 25.6915 146.472 25.3268 146.909 24.8759C147.803 23.9276 148.304 22.6762 148.313 21.3733C148.319 20.7154 148.189 20.0633 147.931 19.458C147.7 18.875 147.353 18.3449 146.911 17.8997C146.477 17.4477 145.957 17.0878 145.38 16.8417C144.8 16.5767 144.169 16.4423 143.531 16.4479C142.894 16.4447 142.262 16.579 141.681 16.8417C141.107 17.0862 140.588 17.4433 140.154 17.8919C139.721 18.3447 139.375 18.8739 139.135 19.4527C138.89 20.0613 138.768 20.7122 138.774 21.3681L138.776 21.3852ZM140.772 21.3852H140.979C140.975 21.0393 141.039 20.6959 141.166 20.3743C141.295 20.0645 141.48 19.7809 141.711 19.5381C141.944 19.2942 142.225 19.1019 142.536 18.9736C142.849 18.8336 143.187 18.7612 143.529 18.7612C143.872 18.7612 144.21 18.8336 144.523 18.9736C144.829 19.0982 145.103 19.2892 145.325 19.5328C145.563 19.7666 145.747 20.0492 145.865 20.3612C146.002 20.6785 146.072 21.021 146.068 21.3668C146.07 21.7203 146 22.0704 145.862 22.396V22.4025C145.741 22.7212 145.556 23.0119 145.319 23.2572C145.087 23.4941 144.813 23.6852 144.511 23.8204C143.87 24.08 143.153 24.08 142.512 23.8204C142.207 23.6812 141.927 23.4902 141.686 23.2559C141.457 23.0032 141.273 22.7133 141.141 22.3986C141.016 22.0688 140.952 21.7185 140.954 21.3655L140.772 21.3852Z" fill="#064FEC"/>
<path d="M149.223 18.3041C149.073 18.6799 148.999 19.0812 149.003 19.4856C149.001 19.8942 149.075 20.2997 149.22 20.6815C149.375 21.0346 149.587 21.36 149.846 21.6451C150.11 21.9185 150.422 22.141 150.766 22.3014C151.132 22.4535 151.525 22.5308 151.921 22.5286H155.589C155.687 22.524 155.784 22.5404 155.875 22.5769C155.965 22.6134 156.047 22.669 156.114 22.74C156.182 22.8089 156.236 22.891 156.271 22.9813C156.306 23.0716 156.323 23.1682 156.319 23.265C156.323 23.3646 156.308 23.464 156.272 23.5572C156.237 23.6504 156.183 23.7355 156.114 23.8072C156.047 23.8782 155.965 23.9338 155.875 23.9703C155.784 24.0068 155.687 24.0233 155.589 24.0186H149.891V26.337H155.589C155.98 26.3402 156.367 26.2629 156.726 26.1098C157.442 25.7903 158.007 25.206 158.302 24.4793C158.462 24.0996 158.544 23.6915 158.542 23.2795C158.545 22.8733 158.464 22.4711 158.303 22.098C158.164 21.7344 157.948 21.4045 157.672 21.1305C157.407 20.857 157.089 20.6415 156.737 20.4977H156.729C156.374 20.332 155.987 20.2472 155.596 20.2496H151.936C151.842 20.2527 151.75 20.236 151.663 20.2005C151.577 20.1649 151.499 20.1114 151.435 20.0435C151.299 19.8948 151.225 19.6993 151.228 19.4974C151.224 19.4007 151.24 19.3042 151.275 19.2139C151.309 19.1236 151.362 19.0414 151.43 18.9723C151.494 18.9029 151.572 18.8481 151.659 18.8117C151.746 18.7752 151.84 18.7579 151.934 18.7609H157.653V16.4556H157.446V16.6709V16.4544H151.93C151.529 16.453 151.132 16.5381 150.767 16.7038C150.422 16.8522 150.109 17.0677 149.848 17.3378C149.579 17.62 149.364 17.9494 149.215 18.3093" fill="#064FEC"/>
<path d="M168.563 16.667V16.4517H166.546V21.3851C166.548 21.7391 166.478 22.0896 166.34 22.4156C166.217 22.7335 166.033 23.0237 165.796 23.269C165.565 23.5052 165.291 23.6965 164.99 23.8334C164.673 23.9632 164.333 24.0292 163.991 24.0277C163.649 24.0299 163.31 23.9638 162.994 23.8334C162.686 23.6973 162.408 23.5017 162.176 23.258C161.944 23.0142 161.762 22.7271 161.641 22.413C161.515 22.0829 161.451 21.7321 161.452 21.3786V16.4451H159.228V21.3786C159.224 22.0343 159.346 22.6846 159.589 23.2939C159.833 23.8745 160.178 24.4077 160.607 24.8692C161.043 25.3215 161.561 25.6869 162.134 25.9457C162.718 26.1966 163.348 26.3244 163.984 26.3212C164.62 26.3271 165.25 26.1986 165.833 25.9443C166.406 25.6856 166.925 25.3203 167.361 24.8679C168.254 23.919 168.755 22.6679 168.764 21.3654V16.432H168.555L168.563 16.667Z" fill="#064FEC"/>
<path d="M179 12.6565H176.774V16.4491H174.237C173.6 16.4456 172.969 16.5799 172.388 16.8429C171.814 17.0872 171.294 17.4443 170.86 17.8931C170.416 18.3414 170.063 18.8715 169.821 19.454C169.575 20.0624 169.452 20.7132 169.457 21.3693C169.454 22.0255 169.577 22.6763 169.82 23.286C170.065 23.8729 170.417 24.4093 170.858 24.8679C171.295 25.3204 171.813 25.6857 172.386 25.9444C172.97 26.1927 173.599 26.3205 174.234 26.3205C174.869 26.3205 175.498 26.1927 176.082 25.9444C176.651 25.6885 177.163 25.3227 177.59 24.8679C178.03 24.4107 178.376 23.872 178.61 23.2821C178.865 22.6754 178.995 22.0235 178.992 21.3654L179 12.6565ZM173.242 23.8427C172.935 23.704 172.655 23.513 172.414 23.2782C172.187 23.0263 172.003 22.7378 171.871 22.4248C171.744 22.0939 171.68 21.7422 171.683 21.3878C171.679 21.0415 171.743 20.6978 171.869 20.3756C171.998 20.0651 172.183 19.7811 172.414 19.5381C172.647 19.2947 172.928 19.1029 173.239 18.9749C173.551 18.8336 173.891 18.7615 174.233 18.7635H176.77V21.3891C176.772 21.743 176.702 22.0938 176.564 22.4196C176.442 22.7378 176.257 23.028 176.02 23.2729C175.789 23.5102 175.516 23.7021 175.214 23.8387C174.905 23.9703 174.572 24.0364 174.236 24.033V24.2457V24.033C173.894 24.0351 173.554 23.9691 173.238 23.8387" fill="#064FEC"/>
<path d="M151.584 7.10481C151.595 6.76394 151.707 6.43399 151.905 6.1562C152.103 5.87841 152.378 5.66504 152.697 5.54268C153.015 5.42032 153.363 5.39441 153.696 5.46816C154.029 5.54191 154.333 5.71206 154.57 5.95741C154.807 6.20275 154.966 6.5124 155.028 6.84776C155.09 7.18313 155.052 7.52936 154.919 7.84324C154.785 8.15713 154.563 8.42481 154.278 8.61285C153.993 8.80089 153.66 8.90098 153.318 8.90066C152.85 8.89203 152.405 8.69811 152.08 8.36141C151.754 8.02472 151.576 7.57279 151.584 7.10481Z" fill="#F88008"/>
</g>
<path d="M7.60303 70.12C6.98703 70.12 6.40903 70.006 5.86903 69.778C5.33303 69.546 4.85903 69.226 4.44703 68.818C4.03903 68.41 3.71903 67.936 3.48703 67.396C3.25903 66.856 3.14503 66.276 3.14503 65.656C3.14503 65.044 3.25903 64.47 3.48703 63.934C3.71903 63.394 4.03903 62.92 4.44703 62.512C4.85903 62.104 5.33303 61.784 5.86903 61.552C6.40903 61.32 6.98703 61.204 7.60303 61.204C8.21903 61.204 8.79503 61.32 9.33103 61.552C9.87103 61.784 10.345 62.104 10.753 62.512C11.161 62.92 11.481 63.394 11.713 63.934C11.945 64.47 12.061 65.044 12.061 65.656C12.061 66.276 11.945 66.856 11.713 67.396C11.481 67.936 11.161 68.41 10.753 68.818C10.345 69.226 9.87103 69.546 9.33103 69.778C8.79503 70.006 8.21903 70.12 7.60303 70.12ZM7.60303 69.31C8.10303 69.31 8.56903 69.224 9.00103 69.052C9.43703 68.88 9.81903 68.636 10.147 68.32C10.475 68 10.731 67.616 10.915 67.168C11.099 66.716 11.191 66.212 11.191 65.656C11.191 65.104 11.099 64.604 10.915 64.156C10.731 63.708 10.475 63.324 10.147 63.004C9.81903 62.68 9.43703 62.432 9.00103 62.26C8.56903 62.084 8.10303 61.996 7.60303 61.996C7.09503 61.996 6.62303 62.084 6.18703 62.26C5.75103 62.432 5.36903 62.68 5.04103 63.004C4.71703 63.324 4.46503 63.708 4.28503 64.156C4.10503 64.604 4.01503 65.104 4.01503 65.656C4.01503 66.212 4.10503 66.716 4.28503 67.168C4.46503 67.616 4.71703 68 5.04103 68.32C5.36903 68.636 5.75103 68.88 6.18703 69.052C6.62303 69.224 7.09503 69.31 7.60303 69.31ZM7.63303 63.13C7.98503 63.13 8.29103 63.198 8.55103 63.334C8.81503 63.47 9.03703 63.644 9.21703 63.856C9.39703 64.068 9.54103 64.292 9.64903 64.528L8.71903 64.702C8.60303 64.466 8.46303 64.27 8.29903 64.114C8.13503 63.958 7.92703 63.88 7.67503 63.88C7.29903 63.88 6.99103 64.032 6.75103 64.336C6.51103 64.64 6.39103 65.068 6.39103 65.62C6.39103 66.184 6.51303 66.618 6.75703 66.922C7.00503 67.226 7.32503 67.378 7.71703 67.378C8.01303 67.378 8.26103 67.296 8.46103 67.132C8.66503 66.964 8.83503 66.75 8.97103 66.49L9.66103 66.712C9.58903 66.872 9.49303 67.036 9.37303 67.204C9.25703 67.368 9.11503 67.52 8.94703 67.66C8.78303 67.8 8.59103 67.914 8.37103 68.002C8.15503 68.086 7.90903 68.128 7.63303 68.128C7.17703 68.128 6.77303 68.024 6.42103 67.816C6.07303 67.608 5.80103 67.318 5.60503 66.946C5.40903 66.57 5.31103 66.136 5.31103 65.644C5.31103 65.148 5.41103 64.712 5.61103 64.336C5.81103 63.956 6.08503 63.66 6.43303 63.448C6.78503 63.236 7.18503 63.13 7.63303 63.13ZM19.6378 61.204C20.2618 61.204 20.8158 61.332 21.2998 61.588C21.7838 61.844 22.1718 62.188 22.4638 62.62C22.7598 63.052 22.9358 63.53 22.9918 64.054H21.6238C21.5638 63.726 21.4478 63.43 21.2758 63.166C21.1078 62.898 20.8838 62.688 20.6038 62.536C20.3238 62.38 19.9918 62.302 19.6078 62.302C19.1158 62.302 18.6978 62.418 18.3538 62.65C18.0098 62.882 17.7478 63.244 17.5678 63.736C17.3918 64.228 17.3038 64.862 17.3038 65.638C17.3038 66.81 17.5018 67.668 17.8978 68.212C18.2938 68.752 18.8638 69.022 19.6078 69.022C19.9918 69.022 20.3238 68.94 20.6038 68.776C20.8838 68.608 21.1078 68.386 21.2758 68.11C21.4478 67.83 21.5638 67.526 21.6238 67.198H22.9918C22.9438 67.578 22.8438 67.944 22.6918 68.296C22.5398 68.644 22.3278 68.956 22.0558 69.232C21.7878 69.508 21.4538 69.726 21.0538 69.886C20.6538 70.042 20.1818 70.12 19.6378 70.12C18.8538 70.12 18.1818 69.94 17.6218 69.58C17.0618 69.216 16.6318 68.7 16.3318 68.032C16.0358 67.36 15.8878 66.556 15.8878 65.62C15.8878 64.688 16.0358 63.894 16.3318 63.238C16.6278 62.578 17.0558 62.074 17.6158 61.726C18.1758 61.378 18.8498 61.204 19.6378 61.204ZM25.4436 67.198C25.4436 67.57 25.5036 67.904 25.6236 68.2C25.7476 68.492 25.9336 68.724 26.1816 68.896C26.4296 69.064 26.7376 69.148 27.1056 69.148C27.4736 69.148 27.7916 69.064 28.0596 68.896C28.3316 68.728 28.5096 68.478 28.5936 68.146H29.7816C29.7096 68.57 29.5396 68.93 29.2716 69.226C29.0076 69.522 28.6876 69.746 28.3116 69.898C27.9356 70.046 27.5416 70.12 27.1296 70.12C26.5416 70.12 26.0236 69.994 25.5756 69.742C25.1276 69.486 24.7776 69.122 24.5256 68.65C24.2776 68.178 24.1536 67.616 24.1536 66.964C24.1536 66.32 24.2676 65.752 24.4956 65.26C24.7236 64.764 25.0536 64.376 25.4856 64.096C25.9176 63.816 26.4376 63.676 27.0456 63.676C27.6456 63.676 28.1496 63.804 28.5576 64.06C28.9696 64.316 29.2816 64.676 29.4936 65.14C29.7056 65.6 29.8116 66.144 29.8116 66.772V67.198H25.4436ZM25.4436 66.364H28.5876C28.5876 66.04 28.5316 65.746 28.4196 65.482C28.3076 65.214 28.1356 65.004 27.9036 64.852C27.6756 64.696 27.3876 64.618 27.0396 64.618C26.6836 64.618 26.3876 64.704 26.1516 64.876C25.9156 65.048 25.7376 65.268 25.6176 65.536C25.5016 65.804 25.4436 66.08 25.4436 66.364ZM31.245 70V63.796H32.499V64.69C32.599 64.522 32.733 64.364 32.901 64.216C33.073 64.068 33.283 63.948 33.531 63.856C33.783 63.764 34.073 63.718 34.401 63.718C34.789 63.718 35.147 63.796 35.475 63.952C35.807 64.104 36.073 64.344 36.273 64.672C36.473 64.996 36.573 65.416 36.573 65.932V70H35.289V66.07C35.289 65.626 35.169 65.296 34.929 65.08C34.693 64.864 34.387 64.756 34.011 64.756C33.759 64.756 33.519 64.798 33.291 64.882C33.063 64.966 32.879 65.094 32.739 65.266C32.599 65.434 32.529 65.646 32.529 65.902V70H31.245ZM40.7437 63.676C41.2077 63.676 41.6197 63.768 41.9797 63.952C42.3437 64.132 42.6377 64.384 42.8617 64.708C43.0857 65.032 43.2217 65.41 43.2697 65.842H42.1597C42.1237 65.638 42.0457 65.448 41.9257 65.272C41.8097 65.096 41.6517 64.956 41.4517 64.852C41.2557 64.744 41.0217 64.69 40.7497 64.69C40.2537 64.69 39.8497 64.872 39.5377 65.236C39.2257 65.6 39.0697 66.158 39.0697 66.91C39.0697 67.598 39.2137 68.146 39.5017 68.554C39.7937 68.962 40.2177 69.166 40.7737 69.166C41.0417 69.166 41.2737 69.11 41.4697 68.998C41.6697 68.886 41.8277 68.742 41.9437 68.566C42.0597 68.39 42.1337 68.208 42.1657 68.02H43.2577C43.2137 68.436 43.0777 68.802 42.8497 69.118C42.6257 69.434 42.3317 69.68 41.9677 69.856C41.6077 70.032 41.1997 70.12 40.7437 70.12C40.1797 70.12 39.6797 69.998 39.2437 69.754C38.8077 69.506 38.4657 69.144 38.2177 68.668C37.9737 68.188 37.8517 67.606 37.8517 66.922C37.8517 66.278 37.9657 65.712 38.1937 65.224C38.4217 64.736 38.7517 64.356 39.1837 64.084C39.6197 63.812 40.1397 63.676 40.7437 63.676ZM47.2064 70.12C46.6264 70.12 46.1184 69.996 45.6824 69.748C45.2504 69.496 44.9144 69.132 44.6744 68.656C44.4384 68.18 44.3204 67.604 44.3204 66.928C44.3204 66.276 44.4324 65.706 44.6564 65.218C44.8844 64.73 45.2144 64.352 45.6464 64.084C46.0784 63.812 46.6004 63.676 47.2124 63.676C47.7964 63.676 48.3024 63.804 48.7304 64.06C49.1584 64.312 49.4904 64.682 49.7264 65.17C49.9624 65.654 50.0804 66.24 50.0804 66.928C50.0804 67.556 49.9684 68.11 49.7444 68.59C49.5244 69.07 49.2004 69.446 48.7724 69.718C48.3484 69.986 47.8264 70.12 47.2064 70.12ZM47.2124 69.13C47.5644 69.13 47.8584 69.038 48.0944 68.854C48.3344 68.666 48.5144 68.404 48.6344 68.068C48.7544 67.728 48.8144 67.336 48.8144 66.892C48.8144 66.48 48.7604 66.106 48.6524 65.77C48.5484 65.43 48.3784 65.16 48.1424 64.96C47.9064 64.76 47.5964 64.66 47.2124 64.66C46.8524 64.66 46.5524 64.752 46.3124 64.936C46.0724 65.116 45.8904 65.374 45.7664 65.71C45.6464 66.042 45.5864 66.436 45.5864 66.892C45.5864 67.296 45.6404 67.668 45.7484 68.008C45.8564 68.348 46.0304 68.62 46.2704 68.824C46.5104 69.028 46.8244 69.13 47.2124 69.13ZM53.6987 70.12C53.2667 70.12 52.8607 70.052 52.4807 69.916C52.1047 69.78 51.7887 69.566 51.5327 69.274C51.2807 68.982 51.1227 68.608 51.0587 68.152H52.2047C52.2567 68.388 52.3547 68.584 52.4987 68.74C52.6467 68.892 52.8227 69.006 53.0267 69.082C53.2347 69.154 53.4567 69.19 53.6927 69.19C54.0847 69.19 54.4007 69.12 54.6407 68.98C54.8847 68.836 55.0067 68.616 55.0067 68.32C55.0067 68.108 54.9407 67.938 54.8087 67.81C54.6807 67.682 54.4767 67.588 54.1967 67.528L52.9607 67.234C52.4487 67.114 52.0387 66.924 51.7307 66.664C51.4227 66.4 51.2667 66.032 51.2627 65.56C51.2627 65.196 51.3527 64.872 51.5327 64.588C51.7167 64.304 51.9887 64.082 52.3487 63.922C52.7087 63.758 53.1567 63.676 53.6927 63.676C54.3927 63.676 54.9547 63.832 55.3787 64.144C55.8027 64.456 56.0227 64.908 56.0387 65.5H54.9287C54.8887 65.216 54.7587 64.994 54.5387 64.834C54.3227 64.67 54.0367 64.588 53.6807 64.588C53.3127 64.588 53.0107 64.662 52.7747 64.81C52.5387 64.954 52.4207 65.176 52.4207 65.476C52.4207 65.68 52.5067 65.842 52.6787 65.962C52.8507 66.078 53.1087 66.174 53.4527 66.25L54.6287 66.544C54.9327 66.624 55.1827 66.73 55.3787 66.862C55.5747 66.99 55.7287 67.132 55.8407 67.288C55.9527 67.444 56.0307 67.606 56.0747 67.774C56.1227 67.942 56.1467 68.1 56.1467 68.248C56.1467 68.64 56.0467 68.976 55.8467 69.256C55.6507 69.532 55.3687 69.746 55.0007 69.898C54.6367 70.046 54.2027 70.12 53.6987 70.12ZM59.8805 70.12C59.5685 70.116 59.2705 70.07 58.9865 69.982C58.7025 69.894 58.4485 69.762 58.2245 69.586C58.0045 69.41 57.8285 69.192 57.6965 68.932C57.5685 68.672 57.5045 68.37 57.5045 68.026V63.796H58.7945V67.888C58.7945 68.26 58.9105 68.562 59.1425 68.794C59.3745 69.026 59.7245 69.142 60.1925 69.142C60.6165 69.142 60.9565 69.032 61.2125 68.812C61.4685 68.588 61.5965 68.262 61.5965 67.834V63.796H62.8745V70H61.8785L61.7345 68.8C61.6625 69.124 61.5325 69.384 61.3445 69.58C61.1605 69.772 60.9405 69.912 60.6845 70C60.4325 70.084 60.1645 70.124 59.8805 70.12ZM66.7883 70.12C65.9723 70.12 65.3303 69.842 64.8623 69.286C64.3943 68.726 64.1603 67.92 64.1603 66.868C64.1603 66.224 64.2543 65.664 64.4423 65.188C64.6303 64.708 64.9103 64.336 65.2823 64.072C65.6583 63.808 66.1223 63.676 66.6743 63.676C66.9543 63.676 67.2023 63.71 67.4183 63.778C67.6383 63.846 67.8303 63.934 67.9943 64.042C68.1623 64.15 68.3003 64.266 68.4083 64.39C68.5203 64.514 68.6063 64.63 68.6663 64.738V61.084H69.9563V70H68.9963L68.8523 68.728C68.8083 68.864 68.7403 69.012 68.6483 69.172C68.5563 69.332 68.4303 69.484 68.2703 69.628C68.1143 69.772 67.9143 69.89 67.6703 69.982C67.4263 70.074 67.1323 70.12 66.7883 70.12ZM67.0343 69.154C67.6103 69.154 68.0263 68.974 68.2823 68.614C68.5383 68.25 68.6663 67.654 68.6663 66.826C68.6623 66.358 68.6043 65.962 68.4923 65.638C68.3803 65.314 68.2063 65.07 67.9703 64.906C67.7383 64.738 67.4323 64.654 67.0523 64.654C66.5763 64.654 66.1883 64.826 65.8883 65.17C65.5883 65.51 65.4383 66.062 65.4383 66.826C65.4383 67.578 65.5743 68.154 65.8463 68.554C66.1223 68.954 66.5183 69.154 67.0343 69.154ZM74.2612 70V69.274V68.89C74.2612 68.45 74.3432 68.068 74.5072 67.744C74.6752 67.42 74.8952 67.138 75.1672 66.898C75.4392 66.654 75.7372 66.438 76.0612 66.25C76.3892 66.062 76.7152 65.882 77.0392 65.71C77.3632 65.538 77.6612 65.36 77.9332 65.176C78.2052 64.988 78.4232 64.778 78.5872 64.546C78.7552 64.31 78.8392 64.034 78.8392 63.718C78.8392 63.302 78.6932 62.964 78.4012 62.704C78.1092 62.444 77.7132 62.314 77.2132 62.314C76.6812 62.314 76.2492 62.464 75.9172 62.764C75.5852 63.064 75.3932 63.478 75.3412 64.006H74.0812C74.0932 63.49 74.2192 63.02 74.4592 62.596C74.6992 62.172 75.0532 61.834 75.5212 61.582C75.9892 61.33 76.5692 61.204 77.2612 61.204C77.8612 61.204 78.3792 61.31 78.8152 61.522C79.2552 61.73 79.5952 62.022 79.8352 62.398C80.0752 62.774 80.1952 63.212 80.1952 63.712C80.1952 64.156 80.1132 64.538 79.9492 64.858C79.7852 65.178 79.5692 65.454 79.3012 65.686C79.0372 65.918 78.7452 66.124 78.4252 66.304C78.1052 66.48 77.7852 66.65 77.4652 66.814C77.1452 66.974 76.8512 67.144 76.5832 67.324C76.3152 67.5 76.0992 67.7 75.9352 67.924C75.7712 68.148 75.6892 68.418 75.6892 68.734V68.884H80.2252V70H74.2612ZM84.5445 61.204C85.5085 61.204 86.2745 61.584 86.8425 62.344C87.4145 63.1 87.7005 64.212 87.7005 65.68C87.7005 67.14 87.4165 68.248 86.8485 69.004C86.2845 69.756 85.5145 70.132 84.5385 70.132C83.5585 70.132 82.7865 69.758 82.2225 69.01C81.6585 68.258 81.3765 67.152 81.3765 65.692C81.3765 64.712 81.5065 63.89 81.7665 63.226C82.0265 62.558 82.3925 62.054 82.8645 61.714C83.3405 61.374 83.9005 61.204 84.5445 61.204ZM84.5445 69.04C85.1365 69.04 85.5805 68.78 85.8765 68.26C86.1725 67.736 86.3205 66.878 86.3205 65.686C86.3205 64.47 86.1705 63.596 85.8705 63.064C85.5705 62.528 85.1265 62.26 84.5385 62.26C83.9545 62.26 83.5085 62.53 83.2005 63.07C82.8925 63.606 82.7385 64.478 82.7385 65.686C82.7385 66.874 82.8905 67.73 83.1945 68.254C83.5025 68.778 83.9525 69.04 84.5445 69.04ZM88.9916 70V69.274V68.89C88.9916 68.45 89.0736 68.068 89.2376 67.744C89.4056 67.42 89.6256 67.138 89.8976 66.898C90.1696 66.654 90.4676 66.438 90.7916 66.25C91.1196 66.062 91.4456 65.882 91.7696 65.71C92.0936 65.538 92.3916 65.36 92.6636 65.176C92.9356 64.988 93.1536 64.778 93.3176 64.546C93.4856 64.31 93.5696 64.034 93.5696 63.718C93.5696 63.302 93.4236 62.964 93.1316 62.704C92.8396 62.444 92.4436 62.314 91.9436 62.314C91.4116 62.314 90.9796 62.464 90.6476 62.764C90.3156 63.064 90.1236 63.478 90.0716 64.006H88.8116C88.8236 63.49 88.9496 63.02 89.1896 62.596C89.4296 62.172 89.7836 61.834 90.2516 61.582C90.7196 61.33 91.2996 61.204 91.9916 61.204C92.5916 61.204 93.1096 61.31 93.5456 61.522C93.9856 61.73 94.3256 62.022 94.5656 62.398C94.8056 62.774 94.9256 63.212 94.9256 63.712C94.9256 64.156 94.8436 64.538 94.6796 64.858C94.5156 65.178 94.2996 65.454 94.0316 65.686C93.7676 65.918 93.4756 66.124 93.1556 66.304C92.8356 66.48 92.5156 66.65 92.1956 66.814C91.8756 66.974 91.5816 67.144 91.3136 67.324C91.0456 67.5 90.8296 67.7 90.6656 67.924C90.5016 68.148 90.4196 68.418 90.4196 68.734V68.884H94.9556V70H88.9916ZM97.733 70V63.208H96.089V62.41C96.601 62.41 97.003 62.37 97.295 62.29C97.591 62.206 97.803 62.084 97.931 61.924C98.063 61.76 98.137 61.56 98.153 61.324H99.047V70H97.733ZM101.13 70V68.452H102.612V70H101.13ZM106.237 62.494V61.324H112.903V62.494H110.281V70H108.985V62.494H106.237ZM115.702 70.12C115.123 70.12 114.615 69.996 114.179 69.748C113.747 69.496 113.411 69.132 113.171 68.656C112.935 68.18 112.817 67.604 112.817 66.928C112.817 66.276 112.929 65.706 113.153 65.218C113.381 64.73 113.711 64.352 114.143 64.084C114.575 63.812 115.097 63.676 115.709 63.676C116.293 63.676 116.799 63.804 117.227 64.06C117.655 64.312 117.987 64.682 118.223 65.17C118.459 65.654 118.577 66.24 118.577 66.928C118.577 67.556 118.465 68.11 118.241 68.59C118.021 69.07 117.697 69.446 117.269 69.718C116.845 69.986 116.323 70.12 115.702 70.12ZM115.709 69.13C116.061 69.13 116.355 69.038 116.591 68.854C116.831 68.666 117.011 68.404 117.131 68.068C117.251 67.728 117.311 67.336 117.311 66.892C117.311 66.48 117.257 66.106 117.149 65.77C117.045 65.43 116.875 65.16 116.639 64.96C116.403 64.76 116.093 64.66 115.709 64.66C115.349 64.66 115.049 64.752 114.809 64.936C114.569 65.116 114.387 65.374 114.263 65.71C114.143 66.042 114.083 66.436 114.083 66.892C114.083 67.296 114.137 67.668 114.245 68.008C114.353 68.348 114.527 68.62 114.767 68.824C115.007 69.028 115.321 69.13 115.709 69.13ZM122.218 70.12C121.402 70.12 120.76 69.842 120.292 69.286C119.824 68.726 119.59 67.92 119.59 66.868C119.59 66.224 119.684 65.664 119.872 65.188C120.06 64.708 120.34 64.336 120.712 64.072C121.088 63.808 121.552 63.676 122.104 63.676C122.384 63.676 122.632 63.71 122.848 63.778C123.068 63.846 123.26 63.934 123.424 64.042C123.592 64.15 123.73 64.266 123.838 64.39C123.95 64.514 124.036 64.63 124.096 64.738V61.084H125.386V70H124.426L124.282 68.728C124.238 68.864 124.17 69.012 124.078 69.172C123.986 69.332 123.86 69.484 123.7 69.628C123.544 69.772 123.344 69.89 123.1 69.982C122.856 70.074 122.562 70.12 122.218 70.12ZM122.464 69.154C123.04 69.154 123.456 68.974 123.712 68.614C123.968 68.25 124.096 67.654 124.096 66.826C124.092 66.358 124.034 65.962 123.922 65.638C123.81 65.314 123.636 65.07 123.4 64.906C123.168 64.738 122.862 64.654 122.482 64.654C122.006 64.654 121.618 64.826 121.318 65.17C121.018 65.51 120.868 66.062 120.868 66.826C120.868 67.578 121.004 68.154 121.276 68.554C121.552 68.954 121.948 69.154 122.464 69.154ZM129.648 70.12C129.068 70.12 128.56 69.996 128.124 69.748C127.692 69.496 127.356 69.132 127.116 68.656C126.88 68.18 126.762 67.604 126.762 66.928C126.762 66.276 126.874 65.706 127.098 65.218C127.326 64.73 127.656 64.352 128.088 64.084C128.52 63.812 129.042 63.676 129.654 63.676C130.238 63.676 130.744 63.804 131.172 64.06C131.6 64.312 131.932 64.682 132.168 65.17C132.404 65.654 132.522 66.24 132.522 66.928C132.522 67.556 132.41 68.11 132.186 68.59C131.966 69.07 131.642 69.446 131.214 69.718C130.79 69.986 130.268 70.12 129.648 70.12ZM129.654 69.13C130.006 69.13 130.3 69.038 130.536 68.854C130.776 68.666 130.956 68.404 131.076 68.068C131.196 67.728 131.256 67.336 131.256 66.892C131.256 66.48 131.202 66.106 131.094 65.77C130.99 65.43 130.82 65.16 130.584 64.96C130.348 64.76 130.038 64.66 129.654 64.66C129.294 64.66 128.994 64.752 128.754 64.936C128.514 65.116 128.332 65.374 128.208 65.71C128.088 66.042 128.028 66.436 128.028 66.892C128.028 67.296 128.082 67.668 128.19 68.008C128.298 68.348 128.472 68.62 128.712 68.824C128.952 69.028 129.266 69.13 129.654 69.13ZM136.14 70.12C135.708 70.12 135.302 70.052 134.922 69.916C134.546 69.78 134.23 69.566 133.974 69.274C133.722 68.982 133.564 68.608 133.5 68.152H134.646C134.698 68.388 134.796 68.584 134.94 68.74C135.088 68.892 135.264 69.006 135.468 69.082C135.676 69.154 135.898 69.19 136.134 69.19C136.526 69.19 136.842 69.12 137.082 68.98C137.326 68.836 137.448 68.616 137.448 68.32C137.448 68.108 137.382 67.938 137.25 67.81C137.122 67.682 136.918 67.588 136.638 67.528L135.402 67.234C134.89 67.114 134.48 66.924 134.172 66.664C133.864 66.4 133.708 66.032 133.704 65.56C133.704 65.196 133.794 64.872 133.974 64.588C134.158 64.304 134.43 64.082 134.79 63.922C135.15 63.758 135.598 63.676 136.134 63.676C136.834 63.676 137.396 63.832 137.82 64.144C138.244 64.456 138.464 64.908 138.48 65.5H137.37C137.33 65.216 137.2 64.994 136.98 64.834C136.764 64.67 136.478 64.588 136.122 64.588C135.754 64.588 135.452 64.662 135.216 64.81C134.98 64.954 134.862 65.176 134.862 65.476C134.862 65.68 134.948 65.842 135.12 65.962C135.292 66.078 135.55 66.174 135.894 66.25L137.07 66.544C137.374 66.624 137.624 66.73 137.82 66.862C138.016 66.99 138.17 67.132 138.282 67.288C138.394 67.444 138.472 67.606 138.516 67.774C138.564 67.942 138.588 68.1 138.588 68.248C138.588 68.64 138.488 68.976 138.288 69.256C138.092 69.532 137.81 69.746 137.442 69.898C137.078 70.046 136.644 70.12 136.14 70.12ZM144.37 70.084C144.002 70.084 143.706 70.036 143.482 69.94C143.262 69.844 143.094 69.716 142.978 69.556C142.862 69.392 142.784 69.208 142.744 69.004C142.708 68.796 142.69 68.582 142.69 68.362V61.084H143.956V68.23C143.956 68.518 144.012 68.738 144.124 68.89C144.24 69.042 144.416 69.128 144.652 69.148L144.976 69.16V69.976C144.876 70.008 144.772 70.034 144.664 70.054C144.56 70.074 144.462 70.084 144.37 70.084ZM148.773 70.12C148.193 70.12 147.685 69.996 147.249 69.748C146.817 69.496 146.481 69.132 146.241 68.656C146.005 68.18 145.887 67.604 145.887 66.928C145.887 66.276 145.999 65.706 146.223 65.218C146.451 64.73 146.781 64.352 147.213 64.084C147.645 63.812 148.167 63.676 148.779 63.676C149.363 63.676 149.869 63.804 150.297 64.06C150.725 64.312 151.057 64.682 151.293 65.17C151.529 65.654 151.647 66.24 151.647 66.928C151.647 67.556 151.535 68.11 151.311 68.59C151.091 69.07 150.767 69.446 150.339 69.718C149.915 69.986 149.393 70.12 148.773 70.12ZM148.779 69.13C149.131 69.13 149.425 69.038 149.661 68.854C149.901 68.666 150.081 68.404 150.201 68.068C150.321 67.728 150.381 67.336 150.381 66.892C150.381 66.48 150.327 66.106 150.219 65.77C150.115 65.43 149.945 65.16 149.709 64.96C149.473 64.76 149.163 64.66 148.779 64.66C148.419 64.66 148.119 64.752 147.879 64.936C147.639 65.116 147.457 65.374 147.333 65.71C147.213 66.042 147.153 66.436 147.153 66.892C147.153 67.296 147.207 67.668 147.315 68.008C147.423 68.348 147.597 68.62 147.837 68.824C148.077 69.028 148.391 69.13 148.779 69.13ZM155.265 70.12C154.833 70.12 154.427 70.052 154.047 69.916C153.671 69.78 153.355 69.566 153.099 69.274C152.847 68.982 152.689 68.608 152.625 68.152H153.771C153.823 68.388 153.921 68.584 154.065 68.74C154.213 68.892 154.389 69.006 154.593 69.082C154.801 69.154 155.023 69.19 155.259 69.19C155.651 69.19 155.967 69.12 156.207 68.98C156.451 68.836 156.573 68.616 156.573 68.32C156.573 68.108 156.507 67.938 156.375 67.81C156.247 67.682 156.043 67.588 155.763 67.528L154.527 67.234C154.015 67.114 153.605 66.924 153.297 66.664C152.989 66.4 152.833 66.032 152.829 65.56C152.829 65.196 152.919 64.872 153.099 64.588C153.283 64.304 153.555 64.082 153.915 63.922C154.275 63.758 154.723 63.676 155.259 63.676C155.959 63.676 156.521 63.832 156.945 64.144C157.369 64.456 157.589 64.908 157.605 65.5H156.495C156.455 65.216 156.325 64.994 156.105 64.834C155.889 64.67 155.603 64.588 155.247 64.588C154.879 64.588 154.577 64.662 154.341 64.81C154.105 64.954 153.987 65.176 153.987 65.476C153.987 65.68 154.073 65.842 154.245 65.962C154.417 66.078 154.675 66.174 155.019 66.25L156.195 66.544C156.499 66.624 156.749 66.73 156.945 66.862C157.141 66.99 157.295 67.132 157.407 67.288C157.519 67.444 157.597 67.606 157.641 67.774C157.689 67.942 157.713 68.1 157.713 68.248C157.713 68.64 157.613 68.976 157.413 69.256C157.217 69.532 156.935 69.746 156.567 69.898C156.203 70.046 155.769 70.12 155.265 70.12ZM163.948 70.12C163.132 70.12 162.49 69.842 162.022 69.286C161.554 68.726 161.32 67.92 161.32 66.868C161.32 66.224 161.414 65.664 161.602 65.188C161.79 64.708 162.07 64.336 162.442 64.072C162.818 63.808 163.282 63.676 163.834 63.676C164.114 63.676 164.362 63.71 164.578 63.778C164.798 63.846 164.99 63.934 165.154 64.042C165.322 64.15 165.46 64.266 165.568 64.39C165.68 64.514 165.766 64.63 165.826 64.738V61.084H167.116V70H166.156L166.012 68.728C165.968 68.864 165.9 69.012 165.808 69.172C165.716 69.332 165.59 69.484 165.43 69.628C165.274 69.772 165.074 69.89 164.83 69.982C164.586 70.074 164.292 70.12 163.948 70.12ZM164.194 69.154C164.77 69.154 165.186 68.974 165.442 68.614C165.698 68.25 165.826 67.654 165.826 66.826C165.822 66.358 165.764 65.962 165.652 65.638C165.54 65.314 165.366 65.07 165.13 64.906C164.898 64.738 164.592 64.654 164.212 64.654C163.736 64.654 163.348 64.826 163.048 65.17C162.748 65.51 162.598 66.062 162.598 66.826C162.598 67.578 162.734 68.154 163.006 68.554C163.282 68.954 163.678 69.154 164.194 69.154ZM169.83 67.198C169.83 67.57 169.89 67.904 170.01 68.2C170.134 68.492 170.32 68.724 170.568 68.896C170.816 69.064 171.124 69.148 171.492 69.148C171.86 69.148 172.178 69.064 172.446 68.896C172.718 68.728 172.896 68.478 172.98 68.146H174.168C174.096 68.57 173.926 68.93 173.658 69.226C173.394 69.522 173.074 69.746 172.698 69.898C172.322 70.046 171.928 70.12 171.516 70.12C170.928 70.12 170.41 69.994 169.962 69.742C169.514 69.486 169.164 69.122 168.912 68.65C168.664 68.178 168.54 67.616 168.54 66.964C168.54 66.32 168.654 65.752 168.882 65.26C169.11 64.764 169.44 64.376 169.872 64.096C170.304 63.816 170.824 63.676 171.432 63.676C172.032 63.676 172.536 63.804 172.944 64.06C173.356 64.316 173.668 64.676 173.88 65.14C174.092 65.6 174.198 66.144 174.198 66.772V67.198H169.83ZM169.83 66.364H172.974C172.974 66.04 172.918 65.746 172.806 65.482C172.694 65.214 172.522 65.004 172.29 64.852C172.062 64.696 171.774 64.618 171.426 64.618C171.07 64.618 170.774 64.704 170.538 64.876C170.302 65.048 170.124 65.268 170.004 65.536C169.888 65.804 169.83 66.08 169.83 66.364ZM175.632 70V63.796H176.862V65.068C176.966 64.764 177.11 64.51 177.294 64.306C177.482 64.098 177.7 63.942 177.948 63.838C178.196 63.73 178.458 63.676 178.734 63.676C178.818 63.676 178.898 63.682 178.974 63.694C179.05 63.702 179.11 63.718 179.154 63.742V64.978C179.102 64.954 179.034 64.938 178.95 64.93C178.87 64.922 178.8 64.916 178.74 64.912C178.468 64.892 178.22 64.906 177.996 64.954C177.772 65.002 177.578 65.082 177.414 65.194C177.254 65.306 177.13 65.452 177.042 65.632C176.958 65.812 176.916 66.024 176.916 66.268V70H175.632ZM181.209 67.198C181.209 67.57 181.269 67.904 181.389 68.2C181.513 68.492 181.699 68.724 181.947 68.896C182.195 69.064 182.503 69.148 182.871 69.148C183.239 69.148 183.557 69.064 183.825 68.896C184.097 68.728 184.275 68.478 184.359 68.146H185.547C185.475 68.57 185.305 68.93 185.037 69.226C184.773 69.522 184.453 69.746 184.077 69.898C183.701 70.046 183.307 70.12 182.895 70.12C182.307 70.12 181.789 69.994 181.341 69.742C180.893 69.486 180.543 69.122 180.291 68.65C180.043 68.178 179.919 67.616 179.919 66.964C179.919 66.32 180.033 65.752 180.261 65.26C180.489 64.764 180.819 64.376 181.251 64.096C181.683 63.816 182.203 63.676 182.811 63.676C183.411 63.676 183.915 63.804 184.323 64.06C184.735 64.316 185.047 64.676 185.259 65.14C185.471 65.6 185.577 66.144 185.577 66.772V67.198H181.209ZM181.209 66.364H184.353C184.353 66.04 184.297 65.746 184.185 65.482C184.073 65.214 183.901 65.004 183.669 64.852C183.441 64.696 183.153 64.618 182.805 64.618C182.449 64.618 182.153 64.704 181.917 64.876C181.681 65.048 181.503 65.268 181.383 65.536C181.267 65.804 181.209 66.08 181.209 66.364ZM189.537 63.676C190.001 63.676 190.413 63.768 190.773 63.952C191.137 64.132 191.431 64.384 191.655 64.708C191.879 65.032 192.015 65.41 192.063 65.842H190.953C190.917 65.638 190.839 65.448 190.719 65.272C190.603 65.096 190.445 64.956 190.245 64.852C190.049 64.744 189.815 64.69 189.543 64.69C189.047 64.69 188.643 64.872 188.331 65.236C188.019 65.6 187.863 66.158 187.863 66.91C187.863 67.598 188.007 68.146 188.295 68.554C188.587 68.962 189.011 69.166 189.567 69.166C189.835 69.166 190.067 69.11 190.263 68.998C190.463 68.886 190.621 68.742 190.737 68.566C190.853 68.39 190.927 68.208 190.959 68.02H192.051C192.007 68.436 191.871 68.802 191.643 69.118C191.419 69.434 191.125 69.68 190.761 69.856C190.401 70.032 189.993 70.12 189.537 70.12C188.973 70.12 188.473 69.998 188.037 69.754C187.601 69.506 187.259 69.144 187.011 68.668C186.767 68.188 186.645 67.606 186.645 66.922C186.645 66.278 186.759 65.712 186.987 65.224C187.215 64.736 187.545 64.356 187.977 64.084C188.413 63.812 188.933 63.676 189.537 63.676ZM193.479 70V61.084H194.745V64.702C194.845 64.538 194.979 64.382 195.147 64.234C195.319 64.086 195.527 63.966 195.771 63.874C196.019 63.778 196.307 63.73 196.635 63.73C197.039 63.73 197.403 63.806 197.727 63.958C198.055 64.106 198.315 64.322 198.507 64.606C198.703 64.886 198.801 65.22 198.801 65.608V70H197.517V65.842C197.517 65.494 197.397 65.226 197.157 65.038C196.917 64.85 196.609 64.756 196.233 64.756C195.981 64.756 195.741 64.8 195.513 64.888C195.289 64.972 195.107 65.1 194.967 65.272C194.831 65.44 194.763 65.652 194.763 65.908V70H193.479ZM202.972 70.12C202.392 70.12 201.884 69.996 201.448 69.748C201.016 69.496 200.68 69.132 200.44 68.656C200.204 68.18 200.086 67.604 200.086 66.928C200.086 66.276 200.198 65.706 200.422 65.218C200.65 64.73 200.98 64.352 201.412 64.084C201.844 63.812 202.366 63.676 202.978 63.676C203.562 63.676 204.068 63.804 204.496 64.06C204.924 64.312 205.256 64.682 205.492 65.17C205.728 65.654 205.846 66.24 205.846 66.928C205.846 67.556 205.734 68.11 205.51 68.59C205.29 69.07 204.966 69.446 204.538 69.718C204.114 69.986 203.592 70.12 202.972 70.12ZM202.978 69.13C203.33 69.13 203.624 69.038 203.86 68.854C204.1 68.666 204.28 68.404 204.4 68.068C204.52 67.728 204.58 67.336 204.58 66.892C204.58 66.48 204.526 66.106 204.418 65.77C204.314 65.43 204.144 65.16 203.908 64.96C203.672 64.76 203.362 64.66 202.978 64.66C202.618 64.66 202.318 64.752 202.078 64.936C201.838 65.116 201.656 65.374 201.532 65.71C201.412 66.042 201.352 66.436 201.352 66.892C201.352 67.296 201.406 67.668 201.514 68.008C201.622 68.348 201.796 68.62 202.036 68.824C202.276 69.028 202.59 69.13 202.978 69.13ZM209.464 70.12C209.032 70.12 208.626 70.052 208.246 69.916C207.87 69.78 207.554 69.566 207.298 69.274C207.046 68.982 206.888 68.608 206.824 68.152H207.97C208.022 68.388 208.12 68.584 208.264 68.74C208.412 68.892 208.588 69.006 208.792 69.082C209 69.154 209.222 69.19 209.458 69.19C209.85 69.19 210.166 69.12 210.406 68.98C210.65 68.836 210.772 68.616 210.772 68.32C210.772 68.108 210.706 67.938 210.574 67.81C210.446 67.682 210.242 67.588 209.962 67.528L208.726 67.234C208.214 67.114 207.804 66.924 207.496 66.664C207.188 66.4 207.032 66.032 207.028 65.56C207.028 65.196 207.118 64.872 207.298 64.588C207.482 64.304 207.754 64.082 208.114 63.922C208.474 63.758 208.922 63.676 209.458 63.676C210.158 63.676 210.72 63.832 211.144 64.144C211.568 64.456 211.788 64.908 211.804 65.5H210.694C210.654 65.216 210.524 64.994 210.304 64.834C210.088 64.67 209.802 64.588 209.446 64.588C209.078 64.588 208.776 64.662 208.54 64.81C208.304 64.954 208.186 65.176 208.186 65.476C208.186 65.68 208.272 65.842 208.444 65.962C208.616 66.078 208.874 66.174 209.218 66.25L210.394 66.544C210.698 66.624 210.948 66.73 211.144 66.862C211.34 66.99 211.494 67.132 211.606 67.288C211.718 67.444 211.796 67.606 211.84 67.774C211.888 67.942 211.912 68.1 211.912 68.248C211.912 68.64 211.812 68.976 211.612 69.256C211.416 69.532 211.134 69.746 210.766 69.898C210.402 70.046 209.968 70.12 209.464 70.12ZM216.015 70V63.796H217.245V65.068C217.349 64.764 217.493 64.51 217.677 64.306C217.865 64.098 218.083 63.942 218.331 63.838C218.579 63.73 218.841 63.676 219.117 63.676C219.201 63.676 219.281 63.682 219.357 63.694C219.433 63.702 219.493 63.718 219.537 63.742V64.978C219.485 64.954 219.417 64.938 219.333 64.93C219.253 64.922 219.183 64.916 219.123 64.912C218.851 64.892 218.603 64.906 218.379 64.954C218.155 65.002 217.961 65.082 217.797 65.194C217.637 65.306 217.513 65.452 217.425 65.632C217.341 65.812 217.299 66.024 217.299 66.268V70H216.015ZM221.592 67.198C221.592 67.57 221.652 67.904 221.772 68.2C221.896 68.492 222.082 68.724 222.33 68.896C222.578 69.064 222.886 69.148 223.254 69.148C223.622 69.148 223.94 69.064 224.208 68.896C224.48 68.728 224.658 68.478 224.742 68.146H225.93C225.858 68.57 225.688 68.93 225.42 69.226C225.156 69.522 224.836 69.746 224.46 69.898C224.084 70.046 223.69 70.12 223.278 70.12C222.69 70.12 222.172 69.994 221.724 69.742C221.276 69.486 220.926 69.122 220.674 68.65C220.426 68.178 220.302 67.616 220.302 66.964C220.302 66.32 220.416 65.752 220.644 65.26C220.872 64.764 221.202 64.376 221.634 64.096C222.066 63.816 222.586 63.676 223.194 63.676C223.794 63.676 224.298 63.804 224.706 64.06C225.118 64.316 225.43 64.676 225.642 65.14C225.854 65.6 225.96 66.144 225.96 66.772V67.198H221.592ZM221.592 66.364H224.736C224.736 66.04 224.68 65.746 224.568 65.482C224.456 65.214 224.284 65.004 224.052 64.852C223.824 64.696 223.536 64.618 223.188 64.618C222.832 64.618 222.536 64.704 222.3 64.876C222.064 65.048 221.886 65.268 221.766 65.536C221.65 65.804 221.592 66.08 221.592 66.364ZM229.632 70.12C229.2 70.12 228.794 70.052 228.414 69.916C228.038 69.78 227.722 69.566 227.466 69.274C227.214 68.982 227.056 68.608 226.992 68.152H228.138C228.19 68.388 228.288 68.584 228.432 68.74C228.58 68.892 228.756 69.006 228.96 69.082C229.168 69.154 229.39 69.19 229.626 69.19C230.018 69.19 230.334 69.12 230.574 68.98C230.818 68.836 230.94 68.616 230.94 68.32C230.94 68.108 230.874 67.938 230.742 67.81C230.614 67.682 230.41 67.588 230.13 67.528L228.894 67.234C228.382 67.114 227.972 66.924 227.664 66.664C227.356 66.4 227.2 66.032 227.196 65.56C227.196 65.196 227.286 64.872 227.466 64.588C227.65 64.304 227.922 64.082 228.282 63.922C228.642 63.758 229.09 63.676 229.626 63.676C230.326 63.676 230.888 63.832 231.312 64.144C231.736 64.456 231.956 64.908 231.972 65.5H230.862C230.822 65.216 230.692 64.994 230.472 64.834C230.256 64.67 229.97 64.588 229.614 64.588C229.246 64.588 228.944 64.662 228.708 64.81C228.472 64.954 228.354 65.176 228.354 65.476C228.354 65.68 228.44 65.842 228.612 65.962C228.784 66.078 229.042 66.174 229.386 66.25L230.562 66.544C230.866 66.624 231.116 66.73 231.312 66.862C231.508 66.99 231.662 67.132 231.774 67.288C231.886 67.444 231.964 67.606 232.008 67.774C232.056 67.942 232.08 68.1 232.08 68.248C232.08 68.64 231.98 68.976 231.78 69.256C231.584 69.532 231.302 69.746 230.934 69.898C230.57 70.046 230.136 70.12 229.632 70.12ZM234.506 67.198C234.506 67.57 234.566 67.904 234.686 68.2C234.81 68.492 234.996 68.724 235.244 68.896C235.492 69.064 235.8 69.148 236.168 69.148C236.536 69.148 236.854 69.064 237.122 68.896C237.394 68.728 237.572 68.478 237.656 68.146H238.844C238.772 68.57 238.602 68.93 238.334 69.226C238.07 69.522 237.75 69.746 237.374 69.898C236.998 70.046 236.604 70.12 236.192 70.12C235.604 70.12 235.086 69.994 234.638 69.742C234.19 69.486 233.84 69.122 233.588 68.65C233.34 68.178 233.216 67.616 233.216 66.964C233.216 66.32 233.33 65.752 233.558 65.26C233.786 64.764 234.116 64.376 234.548 64.096C234.98 63.816 235.5 63.676 236.108 63.676C236.708 63.676 237.212 63.804 237.62 64.06C238.032 64.316 238.344 64.676 238.556 65.14C238.768 65.6 238.874 66.144 238.874 66.772V67.198H234.506ZM234.506 66.364H237.65C237.65 66.04 237.594 65.746 237.482 65.482C237.37 65.214 237.198 65.004 236.966 64.852C236.738 64.696 236.45 64.618 236.102 64.618C235.746 64.618 235.45 64.704 235.214 64.876C234.978 65.048 234.8 65.268 234.68 65.536C234.564 65.804 234.506 66.08 234.506 66.364ZM240.308 70V63.796H241.538V65.068C241.642 64.764 241.786 64.51 241.97 64.306C242.158 64.098 242.376 63.942 242.624 63.838C242.872 63.73 243.134 63.676 243.41 63.676C243.494 63.676 243.574 63.682 243.65 63.694C243.726 63.702 243.786 63.718 243.83 63.742V64.978C243.778 64.954 243.71 64.938 243.626 64.93C243.546 64.922 243.476 64.916 243.416 64.912C243.144 64.892 242.896 64.906 242.672 64.954C242.448 65.002 242.254 65.082 242.09 65.194C241.93 65.306 241.806 65.452 241.718 65.632C241.634 65.812 241.592 66.024 241.592 66.268V70H240.308ZM250.28 63.796L248.024 70H246.938L244.676 63.796H245.864L247.436 68.374H247.52L249.092 63.796H250.28ZM252.899 70.12C252.499 70.12 252.143 70.048 251.831 69.904C251.523 69.76 251.281 69.552 251.105 69.28C250.929 69.008 250.841 68.68 250.841 68.296C250.841 67.608 251.085 67.094 251.573 66.754C252.061 66.414 252.839 66.234 253.907 66.214L254.927 66.184V65.734C254.927 65.378 254.821 65.098 254.609 64.894C254.397 64.69 254.071 64.59 253.631 64.594C253.299 64.594 253.003 64.67 252.743 64.822C252.487 64.974 252.319 65.224 252.239 65.572H251.123C251.147 65.16 251.265 64.814 251.477 64.534C251.693 64.25 251.989 64.036 252.365 63.892C252.741 63.748 253.183 63.676 253.691 63.676C254.255 63.676 254.719 63.754 255.083 63.91C255.447 64.062 255.717 64.286 255.893 64.582C256.073 64.878 256.163 65.238 256.163 65.662V70H255.077L254.975 68.86C254.743 69.336 254.449 69.666 254.093 69.85C253.741 70.03 253.343 70.12 252.899 70.12ZM253.301 69.226C253.497 69.226 253.691 69.192 253.883 69.124C254.075 69.052 254.249 68.956 254.405 68.836C254.561 68.712 254.685 68.574 254.777 68.422C254.873 68.27 254.923 68.114 254.927 67.954V66.928L254.087 66.946C253.659 66.95 253.295 66.994 252.995 67.078C252.699 67.162 252.471 67.292 252.311 67.468C252.155 67.644 252.077 67.878 252.077 68.17C252.077 68.502 252.193 68.762 252.425 68.95C252.657 69.134 252.949 69.226 253.301 69.226ZM260.23 70.12C259.414 70.12 258.772 69.842 258.304 69.286C257.836 68.726 257.602 67.92 257.602 66.868C257.602 66.224 257.696 65.664 257.884 65.188C258.072 64.708 258.352 64.336 258.724 64.072C259.1 63.808 259.564 63.676 260.116 63.676C260.396 63.676 260.644 63.71 260.86 63.778C261.08 63.846 261.272 63.934 261.436 64.042C261.604 64.15 261.742 64.266 261.85 64.39C261.962 64.514 262.048 64.63 262.108 64.738V61.084H263.398V70H262.438L262.294 68.728C262.25 68.864 262.182 69.012 262.09 69.172C261.998 69.332 261.872 69.484 261.712 69.628C261.556 69.772 261.356 69.89 261.112 69.982C260.868 70.074 260.574 70.12 260.23 70.12ZM260.476 69.154C261.052 69.154 261.468 68.974 261.724 68.614C261.98 68.25 262.108 67.654 262.108 66.826C262.104 66.358 262.046 65.962 261.934 65.638C261.822 65.314 261.648 65.07 261.412 64.906C261.18 64.738 260.874 64.654 260.494 64.654C260.018 64.654 259.63 64.826 259.33 65.17C259.03 65.51 258.88 66.062 258.88 66.826C258.88 67.578 259.016 68.154 259.288 68.554C259.564 68.954 259.96 69.154 260.476 69.154ZM267.66 70.12C267.08 70.12 266.572 69.996 266.136 69.748C265.704 69.496 265.368 69.132 265.128 68.656C264.892 68.18 264.774 67.604 264.774 66.928C264.774 66.276 264.886 65.706 265.11 65.218C265.338 64.73 265.668 64.352 266.1 64.084C266.532 63.812 267.054 63.676 267.666 63.676C268.25 63.676 268.756 63.804 269.184 64.06C269.612 64.312 269.944 64.682 270.18 65.17C270.416 65.654 270.534 66.24 270.534 66.928C270.534 67.556 270.422 68.11 270.198 68.59C269.978 69.07 269.654 69.446 269.226 69.718C268.802 69.986 268.28 70.12 267.66 70.12ZM267.666 69.13C268.018 69.13 268.312 69.038 268.548 68.854C268.788 68.666 268.968 68.404 269.088 68.068C269.208 67.728 269.268 67.336 269.268 66.892C269.268 66.48 269.214 66.106 269.106 65.77C269.002 65.43 268.832 65.16 268.596 64.96C268.36 64.76 268.05 64.66 267.666 64.66C267.306 64.66 267.006 64.752 266.766 64.936C266.526 65.116 266.344 65.374 266.22 65.71C266.1 66.042 266.04 66.436 266.04 66.892C266.04 67.296 266.094 67.668 266.202 68.008C266.31 68.348 266.484 68.62 266.724 68.824C266.964 69.028 267.278 69.13 267.666 69.13ZM274.152 70.12C273.72 70.12 273.314 70.052 272.934 69.916C272.558 69.78 272.242 69.566 271.986 69.274C271.734 68.982 271.576 68.608 271.512 68.152H272.658C272.71 68.388 272.808 68.584 272.952 68.74C273.1 68.892 273.276 69.006 273.48 69.082C273.688 69.154 273.91 69.19 274.146 69.19C274.538 69.19 274.854 69.12 275.094 68.98C275.338 68.836 275.46 68.616 275.46 68.32C275.46 68.108 275.394 67.938 275.262 67.81C275.134 67.682 274.93 67.588 274.65 67.528L273.414 67.234C272.902 67.114 272.492 66.924 272.184 66.664C271.876 66.4 271.72 66.032 271.716 65.56C271.716 65.196 271.806 64.872 271.986 64.588C272.17 64.304 272.442 64.082 272.802 63.922C273.162 63.758 273.61 63.676 274.146 63.676C274.846 63.676 275.408 63.832 275.832 64.144C276.256 64.456 276.476 64.908 276.492 65.5H275.382C275.342 65.216 275.212 64.994 274.992 64.834C274.776 64.67 274.49 64.588 274.134 64.588C273.766 64.588 273.464 64.662 273.228 64.81C272.992 64.954 272.874 65.176 272.874 65.476C272.874 65.68 272.96 65.842 273.132 65.962C273.304 66.078 273.562 66.174 273.906 66.25L275.082 66.544C275.386 66.624 275.636 66.73 275.832 66.862C276.028 66.99 276.182 67.132 276.294 67.288C276.406 67.444 276.484 67.606 276.528 67.774C276.576 67.942 276.6 68.1 276.6 68.248C276.6 68.64 276.5 68.976 276.3 69.256C276.104 69.532 275.822 69.746 275.454 69.898C275.09 70.046 274.656 70.12 274.152 70.12Z" fill="#192E50"/>
<defs>
<clipPath id="clip0">
<rect width="79" height="43" fill="white" transform="translate(100)"/>
</clipPath>
</defs>
</svg>
