<svg width="18" height="18" viewBox="0 0 18 18" fill="none" xmlns="http://www.w3.org/2000/svg">
<path d="M14.5801 9.7425L14.5726 9.7575C14.6026 9.51 14.6326 9.255 14.6326 9C14.6326 8.745 14.6101 8.505 14.5801 8.2575L14.5876 8.2725L16.4176 6.8325L14.5951 3.6675L12.4426 4.5375L12.4501 4.545C12.0601 4.245 11.6326 3.99 11.1676 3.795H11.1751L10.8301 1.5H7.17759L6.84759 3.8025H6.85509C6.39009 3.9975 5.96259 4.2525 5.57259 4.5525L5.58009 4.545L3.42009 3.6675L1.59009 6.8325L3.42009 8.2725L3.42759 8.2575C3.39759 8.505 3.37509 8.745 3.37509 9C3.37509 9.255 3.39759 9.51 3.43509 9.7575L3.42759 9.7425L1.85259 10.98L1.60509 11.175L3.42759 14.325L5.58759 13.4625L5.57259 13.4325C5.97009 13.74 6.39759 13.995 6.87009 14.19H6.84759L7.18509 16.5H10.8226C10.8226 16.5 10.8451 16.365 10.8676 16.185L11.1526 14.1975H11.1451C11.6101 14.0025 12.0451 13.7475 12.4426 13.44L12.4276 13.47L14.5876 14.3325L16.4101 11.1825C16.4101 11.1825 16.3051 11.0925 16.1626 10.9875L14.5801 9.7425ZM9.00009 11.625C7.55259 11.625 6.37509 10.4475 6.37509 9C6.37509 7.5525 7.55259 6.375 9.00009 6.375C10.4476 6.375 11.6251 7.5525 11.6251 9C11.6251 10.4475 10.4476 11.625 9.00009 11.625Z" fill="#8596B9"/>
</svg>
