<svg width="163" height="175" viewBox="0 0 163 175" fill="none" xmlns="http://www.w3.org/2000/svg">
<path d="M83.4207 174.258C123.648 174.258 156.259 169.813 156.259 164.33C156.259 158.847 123.648 154.403 83.4207 154.403C43.1932 154.403 10.5823 158.847 10.5823 164.33C10.5823 169.813 43.1932 174.258 83.4207 174.258Z" fill="#92E3A9"/>
<path opacity="0.5" d="M83.4207 174.258C123.648 174.258 156.259 169.813 156.259 164.33C156.259 158.847 123.648 154.403 83.4207 154.403C43.1932 154.403 10.5823 158.847 10.5823 164.33C10.5823 169.813 43.1932 174.258 83.4207 174.258Z" fill="white"/>
<path d="M77.725 145.063H137.554" stroke="#263238" stroke-linecap="round" stroke-linejoin="round"/>
<path d="M23.0768 145.063H69.7973" stroke="#263238" stroke-linecap="round" stroke-linejoin="round"/>
<path d="M127.635 99.4755H88.7988V148.067H127.635V99.4755Z" fill="#263238" stroke="#263238" stroke-linecap="round" stroke-linejoin="round"/>
<path d="M129.145 99.4755H98.7996V148.067H129.145V99.4755Z" fill="white" stroke="#263238" stroke-linecap="round" stroke-linejoin="round"/>
<path d="M126.167 102.54H102.306V117.773H126.167V102.54Z" fill="white" stroke="#263238" stroke-linecap="round" stroke-linejoin="round"/>
<path d="M120.299 108.695H108.187V111.609H120.299V108.695Z" fill="#263238" stroke="#263238" stroke-linecap="round" stroke-linejoin="round"/>
<path d="M126.167 123.443H102.306V138.676H126.167V123.443Z" fill="white" stroke="#263238" stroke-linecap="round" stroke-linejoin="round"/>
<path d="M120.299 129.598H108.187V132.512H120.299V129.598Z" fill="#263238" stroke="#263238" stroke-linecap="round" stroke-linejoin="round"/>
<path d="M36.0478 149.861C36.0478 150.72 31.408 151.432 25.6865 151.432C19.965 151.432 15.3251 150.729 15.3251 149.861C15.3251 148.994 19.965 148.291 25.6865 148.291C31.408 148.291 36.0478 148.994 36.0478 149.861Z" fill="#263238"/>
<path d="M15.3251 149.861L12.3592 136.809H39.0137L36.0478 149.861H15.3251Z" fill="#263238"/>
<path d="M39.0138 136.809C39.0138 137.925 33.0476 138.831 25.708 138.831C18.3683 138.831 12.3807 137.925 12.3807 136.809C12.3807 135.693 18.3469 134.787 25.708 134.787C33.0691 134.787 39.0138 135.693 39.0138 136.809Z" fill="#263238"/>
<path d="M36.447 136.723C36.447 137.002 35.5886 137.255 34.1035 137.457C31.3093 137.773 28.4983 137.916 25.6865 137.886C22.8746 137.918 20.0635 137.775 17.2695 137.457C15.8059 137.26 14.926 137.006 14.926 136.727C14.926 136.084 19.7461 135.56 25.6865 135.56C31.6269 135.56 36.447 136.079 36.447 136.723Z" fill="white"/>
<path d="M34.1034 137.457C31.3092 137.773 28.4983 137.916 25.6865 137.886C22.8746 137.918 20.0635 137.775 17.2695 137.457C18.1279 137.028 21.5617 136.727 25.6865 136.727C29.8112 136.727 33.2407 137.032 34.1034 137.457Z" fill="#92E3A9"/>
<path d="M34.9533 141.067C36.0306 140.878 37.1209 140.638 38.2025 140.376" stroke="white" stroke-linecap="round" stroke-linejoin="round"/>
<path d="M17.8189 141.346C22.1251 141.877 26.4744 141.965 30.7985 141.608" stroke="white" stroke-linecap="round" stroke-linejoin="round"/>
<path d="M13.222 140.599C13.222 140.599 14.441 140.878 16.4883 141.174" stroke="white" stroke-linecap="round" stroke-linejoin="round"/>
<path d="M19.686 65.6702C22.1197 63.8852 24.3997 61.8996 26.502 59.7341C29.3606 56.6308 27.8197 51.5789 27.8197 51.5789C27.8197 51.5789 25.841 53.3387 22.7635 56.4119C19.686 59.4851 19.686 61.687 19.686 61.687V65.6702Z" fill="#92E3A9"/>
<path d="M24.1542 79.3794C26.5899 77.597 28.8701 75.6112 30.9702 73.4433C33.8245 70.3658 32.2879 65.3139 32.2879 65.3139C32.2879 65.3139 30.3092 67.0694 27.2317 70.1469C24.1542 73.2244 24.1542 75.422 24.1542 75.422V79.3794Z" fill="#92E3A9"/>
<path d="M20.2955 69.3572C17.6883 67.8366 15.2118 66.1023 12.8915 64.1722C9.72383 61.408 10.7196 56.2188 10.7196 56.2188C10.7196 56.2188 12.8657 57.7768 16.2608 60.511C19.656 63.2451 19.8791 65.4384 19.8791 65.4384L20.2955 69.3572Z" fill="#92E3A9"/>
<path d="M26.1114 85.5215C23.3596 84.2847 20.7152 82.8217 18.2052 81.1478C14.7714 78.7313 15.2006 73.4691 15.2006 73.4691C15.2006 73.4691 17.5013 74.7567 21.1582 77.1389C24.8151 79.5211 25.2744 81.65 25.2744 81.65L26.1114 85.5215Z" fill="#92E3A9"/>
<path d="M24.2615 103.308C21.8297 101.523 19.5499 99.5386 17.4455 97.3766C14.5869 94.2776 16.1321 89.2214 16.1321 89.2214C16.1321 89.2214 18.1108 90.9769 21.1883 94.0544C24.2658 97.1319 24.2658 99.3381 24.2658 99.3381L24.2615 103.308Z" fill="#92E3A9"/>
<path d="M24.871 107.566C27.0294 105.447 29.0051 103.15 30.777 100.699C33.1678 97.265 30.9272 92.4577 30.9272 92.4577C30.9272 92.4577 29.2104 94.4836 26.6093 97.9689C24.0082 101.454 24.313 103.626 24.313 103.626L24.871 107.566Z" fill="#92E3A9"/>
<path d="M27.3476 120.396C24.9156 118.608 22.6358 116.623 20.5316 114.459C17.673 111.382 19.2139 106.304 19.2139 106.304C19.2139 106.304 21.1926 108.056 24.2701 111.137C27.3476 114.219 27.3476 116.421 27.3476 116.421V120.396Z" fill="#92E3A9"/>
<path d="M24.2873 131.843C22.3896 129.503 20.6898 127.009 19.2053 124.387C17.218 120.692 19.9865 116.189 19.9865 116.189C19.9865 116.189 21.4587 118.383 23.6563 122.143C25.8539 125.902 25.2959 128.031 25.2959 128.031L24.2873 131.843Z" fill="#92E3A9"/>
<path d="M22.2957 138.522C22.2957 138.522 26.5535 125.344 27.3648 120.494C28.176 115.644 25.3388 111.567 24.4032 104.274C23.4675 96.9817 26.9785 89.6807 25.7423 83.9892C24.5062 78.2978 21.4845 74.2589 20.2655 67.9665C19.857 65.7101 19.5704 63.4334 19.407 61.1462" stroke="#263238" stroke-linecap="round" stroke-linejoin="round"/>
<path d="M16.5913 64.3525L19.9092 66.8935" stroke="#263238" stroke-linecap="round" stroke-linejoin="round"/>
<path d="M21.1453 61.4939L19.7546 63.9619" stroke="#263238" stroke-linecap="round" stroke-linejoin="round"/>
<path d="M19.9092 79.5511C22.7635 81.6285 25.5405 83.7103 25.5405 83.7103" stroke="#263238" stroke-linecap="round" stroke-linejoin="round"/>
<path d="M29.0902 71.8295C26.4677 74.834 24.1542 79.3751 24.1542 79.3751" stroke="#263238" stroke-linecap="round" stroke-linejoin="round"/>
<path d="M18.2138 94.5008C20.5679 96.8499 22.5676 99.5291 24.1499 102.454" stroke="#263238" stroke-linecap="round" stroke-linejoin="round"/>
<path d="M29.5494 97.1319C29.5494 97.1319 29.3177 97.4453 27.6952 99.836C26.5408 101.653 25.5359 103.561 24.6907 105.54" stroke="#263238" stroke-linecap="round" stroke-linejoin="round"/>
<path d="M21.6046 111.176C22.8007 112.493 23.8846 113.907 24.8452 115.404C25.8105 117.022 26.6472 118.715 27.3476 120.464" stroke="#263238" stroke-linecap="round" stroke-linejoin="round"/>
<path d="M20.4543 120.649C20.9909 121.821 22.3 124.735 23.4589 126.971C24.1654 128.492 24.4514 130.174 24.2873 131.843" stroke="#263238" stroke-linecap="round" stroke-linejoin="round"/>
<path d="M39.4129 93.5479C38.0816 92.1626 36.867 90.6695 35.7817 89.0841C34.3224 86.8478 35.8375 83.8433 35.8375 83.8433C35.8375 83.8433 36.8934 85.1653 38.4858 87.4273C40.0782 89.6893 39.8421 91.0671 39.8421 91.0671L39.4129 93.5479Z" fill="#92E3A9"/>
<path d="M35.1207 101.669C33.7883 100.284 32.5737 98.7912 31.4895 97.2049C30.0301 94.9687 31.5453 91.9641 31.5453 91.9641C31.5453 91.9641 32.5969 93.2861 34.1936 95.5481C35.7903 97.8101 35.5499 99.1879 35.5499 99.1879L35.1207 101.669Z" fill="#92E3A9"/>
<path d="M38.606 95.8099C40.4128 95.1442 42.1602 94.3272 43.8296 93.3677C46.1173 91.977 46.053 88.6119 46.053 88.6119C46.053 88.6119 44.5378 89.3502 42.117 90.6936C39.6962 92.0371 39.3142 93.3934 39.3142 93.3934L38.606 95.8099Z" fill="#92E3A9"/>
<path d="M33.2278 105.309C35.089 104.833 36.9067 104.201 38.6618 103.42C41.0826 102.283 41.3744 98.9346 41.3744 98.9346C41.3744 98.9346 39.7906 99.4926 37.241 100.591C34.6915 101.69 34.1592 102.956 34.1592 102.956L33.2278 105.309Z" fill="#92E3A9"/>
<path d="M32.4424 116.653C34.1632 115.791 35.8086 114.786 37.3612 113.648C39.5073 112.03 39.0781 108.695 39.0781 108.695C39.0781 108.695 37.6402 109.584 35.3782 111.176C33.1163 112.768 32.8759 114.155 32.8759 114.155L32.4424 116.653Z" fill="#92E3A9"/>
<path d="M31.6054 119.267C30.4858 117.705 29.4967 116.054 28.6481 114.331C27.5235 111.906 29.4507 109.146 29.4507 109.146C29.4507 109.146 30.3092 110.605 31.5582 113.073C32.8072 115.541 32.3866 116.872 32.3866 116.872L31.6054 119.267Z" fill="#92E3A9"/>
<path d="M28.8112 130.482C27.1426 129.528 25.5562 128.437 24.0683 127.22C22.0381 125.503 22.6433 122.173 22.6433 122.173C22.6433 122.173 24.0254 123.143 26.193 124.868C28.3605 126.594 28.5236 127.98 28.5236 127.98L28.8112 130.482Z" fill="#92E3A9"/>
<path d="M28.6566 127.027C30.375 126.169 32.0201 125.171 33.5755 124.044C35.7216 122.422 35.2923 119.086 35.2923 119.086C35.2923 119.086 33.863 119.979 31.5968 121.567C29.3305 123.155 29.0944 124.546 29.0944 124.546L28.6566 127.027Z" fill="#92E3A9"/>
<path d="M29.3348 134.564C30.785 133.303 32.1247 131.92 33.3394 130.431C34.9876 128.323 33.7386 125.203 33.7386 125.203C33.7386 125.203 32.5754 126.426 30.7899 128.542C29.0043 130.658 29.1245 132.057 29.1245 132.057L29.3348 134.564Z" fill="#92E3A9"/>
<path d="M29.867 138.964C29.867 138.964 28.6309 130.238 28.6481 127.096C28.6652 123.954 30.9058 121.73 32.2664 117.249C33.627 112.768 32.2664 107.807 33.627 104.373C34.9876 100.939 37.3312 98.7372 38.7776 94.93C39.2857 93.5576 39.7156 92.1576 40.0653 90.7366" stroke="#263238" stroke-linecap="round" stroke-linejoin="round"/>
<path d="M41.4903 93.0629L39.1339 94.2991" stroke="#263238" stroke-linecap="round" stroke-linejoin="round"/>
<path d="M38.9493 90.7838L39.5502 92.4792" stroke="#263238" stroke-linecap="round" stroke-linejoin="round"/>
<path d="M37.7475 102.227C35.7473 103.235 33.7772 104.24 33.7772 104.24" stroke="#263238" stroke-linecap="round" stroke-linejoin="round"/>
<path d="M32.8416 96.4023C33.7811 98.0744 34.5449 99.8393 35.1208 101.669" stroke="#263238" stroke-linecap="round" stroke-linejoin="round"/>
<path d="M37.1853 111.803C35.4551 113.021 33.9098 114.482 32.5969 116.142" stroke="#263238" stroke-linecap="round" stroke-linejoin="round"/>
<path d="M29.7941 112.219C29.7941 112.219 29.8971 112.434 30.6526 114.116C31.1925 115.377 31.6233 116.683 31.9402 118.018" stroke="#263238" stroke-linecap="round" stroke-linejoin="round"/>
<path d="M24.5834 125.417C25.0947 125.934 25.6442 126.412 26.2273 126.847C27.1498 127.645 27.9987 128.524 28.764 129.474" stroke="#263238" stroke-linecap="round" stroke-linejoin="round"/>
<path d="M33.2664 121.881C32.3746 122.584 31.5406 123.357 30.7727 124.194C29.9942 125.106 29.2867 126.076 28.6566 127.096" stroke="#263238" stroke-linecap="round" stroke-linejoin="round"/>
<path d="M32.9618 127.958C32.4982 128.628 31.3565 130.315 30.3865 131.603C29.7816 132.48 29.4189 133.502 29.3349 134.564" stroke="#263238" stroke-linecap="round" stroke-linejoin="round"/>
<path opacity="0.2" d="M19.686 65.6702C22.1197 63.8852 24.3997 61.8996 26.502 59.7341C29.3606 56.6308 27.8197 51.5789 27.8197 51.5789C27.8197 51.5789 25.841 53.3387 22.7635 56.4119C19.686 59.4851 19.686 61.687 19.686 61.687V65.6702Z" fill="black"/>
<path opacity="0.2" d="M24.1542 79.3794C26.5899 77.597 28.8701 75.6112 30.9702 73.4433C33.8245 70.3658 32.2879 65.3139 32.2879 65.3139C32.2879 65.3139 30.3092 67.0694 27.2317 70.1469C24.1542 73.2244 24.1542 75.422 24.1542 75.422V79.3794Z" fill="black"/>
<path opacity="0.2" d="M20.2955 69.3572C17.6883 67.8366 15.2118 66.1023 12.8915 64.1722C9.72383 61.408 10.7196 56.2188 10.7196 56.2188C10.7196 56.2188 12.8657 57.7768 16.2608 60.511C19.656 63.2451 19.8791 65.4384 19.8791 65.4384L20.2955 69.3572Z" fill="black"/>
<path opacity="0.2" d="M26.1114 85.5215C23.3596 84.2847 20.7152 82.8217 18.2052 81.1478C14.7714 78.7313 15.2006 73.4691 15.2006 73.4691C15.2006 73.4691 17.5013 74.7567 21.1582 77.1389C24.8151 79.5211 25.2744 81.65 25.2744 81.65L26.1114 85.5215Z" fill="black"/>
<path opacity="0.2" d="M24.2615 103.308C21.8297 101.523 19.5499 99.5386 17.4455 97.3766C14.5869 94.2776 16.1321 89.2214 16.1321 89.2214C16.1321 89.2214 18.1108 90.9769 21.1883 94.0544C24.2658 97.1319 24.2658 99.3381 24.2658 99.3381L24.2615 103.308Z" fill="black"/>
<path opacity="0.2" d="M27.3476 120.396C24.9156 118.608 22.6358 116.623 20.5316 114.459C17.673 111.382 19.2139 106.304 19.2139 106.304C19.2139 106.304 21.1926 108.056 24.2701 111.137C27.3476 114.219 27.3476 116.421 27.3476 116.421V120.396Z" fill="black"/>
<path opacity="0.2" d="M39.4129 93.5479C38.0816 92.1626 36.867 90.6695 35.7817 89.0841C34.3224 86.8478 35.8375 83.8433 35.8375 83.8433C35.8375 83.8433 36.8934 85.1653 38.4858 87.4273C40.0782 89.6893 39.8421 91.0671 39.8421 91.0671L39.4129 93.5479Z" fill="black"/>
<path opacity="0.2" d="M34.1936 95.5481C32.5969 93.2861 31.5453 91.9641 31.5453 91.9641C31.3842 92.3044 31.2521 92.6576 31.1504 93.02C31.0217 92.6766 30.9272 92.4749 30.9272 92.4749C30.9272 92.4749 29.2104 94.5008 26.6093 97.9861C24.0082 101.471 24.313 103.643 24.313 103.643L24.871 107.566C27.0294 105.447 29.0051 103.15 30.777 100.699C31.3842 99.8054 31.7508 98.7706 31.8415 97.6942C32.8332 99.0982 33.9294 100.425 35.1207 101.664L35.5499 99.1836C35.5499 99.1836 35.7903 97.8058 34.1936 95.5481Z" fill="black"/>
<path opacity="0.2" d="M38.606 95.8099C40.4128 95.1442 42.1602 94.3272 43.8296 93.3677C46.1173 91.977 46.053 88.6119 46.053 88.6119C46.053 88.6119 44.5378 89.3502 42.117 90.6936C39.6962 92.0371 39.3142 93.3934 39.3142 93.3934L38.606 95.8099Z" fill="black"/>
<path opacity="0.2" d="M33.2278 105.309C35.089 104.833 36.9067 104.201 38.6618 103.42C41.0826 102.283 41.3744 98.9346 41.3744 98.9346C41.3744 98.9346 39.7906 99.4926 37.241 100.591C34.6915 101.69 34.1592 102.956 34.1592 102.956L33.2278 105.309Z" fill="black"/>
<path opacity="0.2" d="M32.4424 116.653C34.1632 115.791 35.8086 114.786 37.3612 113.648C39.5073 112.03 39.0781 108.695 39.0781 108.695C39.0781 108.695 37.6402 109.584 35.3782 111.176C33.1163 112.768 32.8759 114.155 32.8759 114.155L32.4424 116.653Z" fill="black"/>
<path opacity="0.2" d="M31.6054 119.267C30.4858 117.705 29.4967 116.054 28.6481 114.331C27.5235 111.906 29.4507 109.146 29.4507 109.146C29.4507 109.146 30.3092 110.605 31.5582 113.073C32.8072 115.541 32.3866 116.872 32.3866 116.872L31.6054 119.267Z" fill="black"/>
<path opacity="0.2" d="M28.8112 130.482L28.5237 127.98C28.5237 127.98 28.3606 126.589 26.193 124.868C25.4848 124.301 24.8581 123.816 24.3388 123.422C24.1456 123.022 23.9096 122.593 23.6606 122.134C21.463 118.408 19.9951 116.189 19.9951 116.189C19.9951 116.189 17.2266 120.692 19.2139 124.387C20.6956 127.009 22.3926 129.502 24.2873 131.843L25.2659 128.156C26.3992 129.003 27.5831 129.78 28.8112 130.482Z" fill="black"/>
<path opacity="0.2" d="M28.6566 127.027C30.375 126.169 32.0201 125.171 33.5755 124.044C35.7216 122.422 35.2923 119.086 35.2923 119.086C35.2923 119.086 33.863 119.979 31.5968 121.567C29.3305 123.155 29.0944 124.546 29.0944 124.546L28.6566 127.027Z" fill="black"/>
<path opacity="0.2" d="M29.3348 134.564C30.785 133.303 32.1247 131.92 33.3394 130.431C34.9876 128.323 33.7386 125.203 33.7386 125.203C33.7386 125.203 32.5754 126.426 30.7899 128.542C29.0043 130.658 29.1245 132.057 29.1245 132.057L29.3348 134.564Z" fill="black"/>
<path d="M148.387 7.8329H18.4499V77.4093H148.387V7.8329Z" fill="#263238"/>
<path d="M144.971 11.5457H21.978V74.0099H144.971V11.5457Z" fill="white"/>
<path d="M59.0797 15.825V65.3654" stroke="#263238" stroke-linecap="round" stroke-linejoin="round"/>
<path d="M100.946 15.825V67.0609" stroke="#263238" stroke-linecap="round" stroke-linejoin="round"/>
<path d="M32.7171 25.8902H130.33" stroke="#263238" stroke-linecap="round" stroke-linejoin="round"/>
<path d="M38.9236 18.3531H37.5415V17.7007H41.074V18.3531H39.6962V21.8598H38.9236V18.3531Z" fill="#263238"/>
<path d="M41.001 20.276C40.9882 19.9389 41.0765 19.6056 41.2545 19.3191C41.4325 19.0326 41.6922 18.8058 42.0001 18.668C42.308 18.5302 42.6501 18.4876 42.9824 18.5458C43.3147 18.6039 43.622 18.7601 43.8649 18.9943C44.1077 19.2285 44.2749 19.5299 44.3451 19.8599C44.4152 20.1899 44.3851 20.5333 44.2586 20.846C44.132 21.1587 43.9148 21.4264 43.6349 21.6147C43.355 21.803 43.0252 21.9033 42.6879 21.9027C42.4683 21.9145 42.2487 21.881 42.0427 21.8042C41.8367 21.7275 41.6487 21.6091 41.4904 21.4565C41.3322 21.3038 41.207 21.1203 41.1228 20.9172C41.0387 20.7141 40.9972 20.4958 41.001 20.276ZM43.6364 20.276C43.6272 20.0917 43.5642 19.9142 43.4552 19.7653C43.3462 19.6164 43.1959 19.5028 43.023 19.4383C42.8501 19.3739 42.6621 19.3616 42.4823 19.4028C42.3024 19.4441 42.1386 19.5371 42.011 19.6704C41.8835 19.8038 41.7978 19.9715 41.7645 20.153C41.7313 20.3345 41.7519 20.5218 41.8239 20.6917C41.8959 20.8616 42.0161 21.0066 42.1697 21.109C42.3232 21.2113 42.5034 21.2664 42.6879 21.2675C42.817 21.2708 42.9454 21.2471 43.0649 21.1978C43.1843 21.1486 43.2922 21.0749 43.3815 20.9816C43.4708 20.8882 43.5396 20.7772 43.5835 20.6557C43.6274 20.5342 43.6455 20.4049 43.6364 20.276Z" fill="#263238"/>
<path d="M49.8515 17.4474V21.8598H49.139V21.4306C49.0082 21.5778 48.8454 21.693 48.6631 21.7674C48.4808 21.8418 48.2839 21.8734 48.0874 21.8598C47.656 21.8598 47.2422 21.6884 46.9372 21.3833C46.6321 21.0783 46.4607 20.6645 46.4607 20.233C46.4607 19.8016 46.6321 19.3878 46.9372 19.0828C47.2422 18.7777 47.656 18.6063 48.0874 18.6063C48.2789 18.5973 48.47 18.6312 48.6467 18.7054C48.8235 18.7797 48.9814 18.8925 49.109 19.0355V17.4045L49.8515 17.4474ZM49.1218 20.276C49.1134 20.0904 49.0508 19.9114 48.9415 19.7612C48.8323 19.6109 48.6814 19.4961 48.5075 19.4308C48.3336 19.3655 48.1444 19.3528 47.9633 19.3941C47.7822 19.4354 47.6172 19.5289 47.4888 19.6632C47.3604 19.7974 47.2743 19.9663 47.241 20.1491C47.2077 20.3318 47.2289 20.5203 47.3018 20.6911C47.3746 20.862 47.4961 21.0076 47.651 21.1101C47.8059 21.2126 47.9875 21.2673 48.1733 21.2675C48.3022 21.2701 48.4304 21.2459 48.5495 21.1965C48.6687 21.147 48.7762 21.0733 48.8654 20.9801C48.9546 20.8869 49.0234 20.7762 49.0676 20.655C49.1117 20.5338 49.1302 20.4047 49.1218 20.276Z" fill="#263238"/>
<path d="M50.5683 20.276C50.5555 19.9389 50.6437 19.6056 50.8218 19.3191C50.9998 19.0326 51.2595 18.8058 51.5674 18.668C51.8753 18.5302 52.2174 18.4876 52.5497 18.5458C52.882 18.6039 53.1893 18.7601 53.4321 18.9943C53.675 19.2285 53.8422 19.5299 53.9123 19.8599C53.9825 20.1899 53.9524 20.5333 53.8258 20.846C53.6993 21.1587 53.4821 21.4264 53.2022 21.6147C52.9223 21.803 52.5925 21.9033 52.2551 21.9027C52.0356 21.9145 51.816 21.881 51.61 21.8042C51.4039 21.7275 51.2159 21.6091 51.0577 21.4565C50.8994 21.3038 50.7743 21.1203 50.6901 20.9172C50.6059 20.7141 50.5644 20.4958 50.5683 20.276ZM53.2037 20.276C53.1945 20.0917 53.1315 19.9142 53.0224 19.7653C52.9134 19.6164 52.7632 19.5028 52.5903 19.4383C52.4174 19.3739 52.2294 19.3616 52.0495 19.4028C51.8697 19.4441 51.7058 19.5371 51.5783 19.6704C51.4507 19.8038 51.365 19.9715 51.3318 20.153C51.2985 20.3345 51.3192 20.5218 51.3912 20.6917C51.4632 20.8616 51.5834 21.0066 51.7369 21.109C51.8905 21.2113 52.0706 21.2664 52.2551 21.2675C52.3843 21.2708 52.5127 21.2471 52.6322 21.1978C52.7516 21.1486 52.8594 21.0749 52.9488 20.9816C53.0381 20.8882 53.1069 20.7772 53.1508 20.6557C53.1947 20.5342 53.2127 20.4049 53.2037 20.276Z" fill="#263238"/>
<path d="M71.4155 17.7007H73.2182C74.5703 17.7007 75.4931 18.5334 75.4931 19.7824C75.4931 21.0314 74.5703 21.8598 73.2182 21.8598H71.4155V17.7007ZM73.2182 21.2074C73.4122 21.218 73.6064 21.189 73.7888 21.1221C73.9712 21.0552 74.138 20.9518 74.2791 20.8182C74.4202 20.6846 74.5326 20.5237 74.6094 20.3452C74.6862 20.1668 74.7258 19.9745 74.7258 19.7802C74.7258 19.5859 74.6862 19.3937 74.6094 19.2152C74.5326 19.0368 74.4202 18.8758 74.2791 18.7423C74.138 18.6087 73.9712 18.5053 73.7888 18.4384C73.6064 18.3715 73.4122 18.3424 73.2182 18.3531H72.2096V21.2074H73.2182Z" fill="#263238"/>
<path d="M75.9995 20.276C75.9867 19.9391 76.0748 19.606 76.2527 19.3196C76.4305 19.0331 76.69 18.8064 76.9976 18.6685C77.3053 18.5305 77.6471 18.4877 77.9793 18.5455C78.3115 18.6033 78.6188 18.7591 78.8618 18.9928C79.1048 19.2266 79.2724 19.5276 79.343 19.8573C79.4136 20.187 79.3841 20.5302 79.2582 20.843C79.1324 21.1558 78.9159 21.4238 78.6365 21.6126C78.3572 21.8015 78.0278 21.9025 77.6906 21.9027C77.4708 21.9152 77.2507 21.8821 77.0441 21.8056C76.8376 21.7291 76.6491 21.6108 76.4904 21.4581C76.3316 21.3054 76.2061 21.1216 76.1217 20.9182C76.0372 20.7148 75.9956 20.4962 75.9995 20.276ZM78.6349 20.276C78.6257 20.0915 78.5626 19.9138 78.4533 19.7648C78.3441 19.6159 78.1936 19.5022 78.0205 19.438C77.8473 19.3737 77.6591 19.3616 77.4792 19.4032C77.2992 19.4448 77.1354 19.5382 77.008 19.672C76.8807 19.8057 76.7953 19.9739 76.7625 20.1557C76.7298 20.3374 76.751 20.5248 76.8237 20.6946C76.8963 20.8644 77.0172 21.0092 77.1713 21.111C77.3254 21.2129 77.5059 21.2672 77.6906 21.2675C77.8196 21.2708 77.9479 21.2471 78.0671 21.1978C78.1864 21.1486 78.294 21.0748 78.3829 20.9814C78.4719 20.888 78.5403 20.7769 78.5837 20.6554C78.6271 20.5339 78.6446 20.4046 78.6349 20.276Z" fill="#263238"/>
<path d="M79.9999 17.7178C79.9996 17.6577 80.0119 17.5981 80.0361 17.543C80.0603 17.4879 80.0959 17.4385 80.1404 17.3981C80.1849 17.3576 80.2374 17.3269 80.2946 17.3081C80.3517 17.2892 80.4122 17.2826 80.472 17.2886C80.5322 17.2819 80.5932 17.2881 80.6508 17.3067C80.7085 17.3252 80.7615 17.3558 80.8065 17.3963C80.8515 17.4369 80.8874 17.4865 80.9119 17.5419C80.9364 17.5973 80.9488 17.6573 80.9485 17.7178C80.9372 17.8358 80.8824 17.9454 80.7947 18.0251C80.707 18.1049 80.5927 18.1491 80.4742 18.1491C80.3556 18.1491 80.2414 18.1049 80.1536 18.0251C80.0659 17.9454 80.0111 17.8358 79.9999 17.7178ZM80.0986 18.6879H80.8411V21.8598H80.0857L80.0986 18.6879Z" fill="#263238"/>
<path d="M84.9487 20.0399V21.8598H84.2019V20.1429C84.2019 19.5763 83.9229 19.2845 83.4465 19.2845C83.3228 19.2799 83.1996 19.3022 83.0853 19.3497C82.971 19.3972 82.8684 19.4689 82.7844 19.5598C82.7004 19.6508 82.6371 19.7588 82.5987 19.8764C82.5604 19.9941 82.548 20.1187 82.5623 20.2416V21.8469H81.8026V18.6879H82.5108V19.1171C82.6502 18.9692 82.8207 18.8541 83.0099 18.7799C83.1992 18.7057 83.4025 18.6742 83.6053 18.6879C83.7864 18.672 83.9689 18.6961 84.1397 18.7585C84.3105 18.821 84.4655 18.9202 84.5937 19.0492C84.7219 19.1782 84.8201 19.3338 84.8815 19.505C84.9428 19.6762 84.9658 19.8588 84.9487 20.0399Z" fill="#263238"/>
<path d="M89.0993 18.6879V21.3791C89.0993 22.5337 88.4984 23.0573 87.3825 23.0573C86.8331 23.0857 86.2894 22.9351 85.833 22.6281L86.1678 22.0658C86.5056 22.3188 86.9175 22.4531 87.3395 22.4478C88.0392 22.4478 88.3482 22.1259 88.3482 21.4864V21.319C88.2114 21.4619 88.0457 21.5741 87.8622 21.6481C87.6786 21.7221 87.4815 21.7563 87.2837 21.7482C87.0754 21.7592 86.867 21.7277 86.6713 21.6556C86.4755 21.5834 86.2965 21.4722 86.1451 21.3286C85.9937 21.185 85.8732 21.0122 85.7908 20.8205C85.7084 20.6288 85.666 20.4224 85.666 20.2137C85.666 20.0051 85.7084 19.7987 85.7908 19.607C85.8732 19.4153 85.9937 19.2424 86.1451 19.0989C86.2965 18.9553 86.4755 18.8441 86.6713 18.7719C86.867 18.6998 87.0754 18.6683 87.2837 18.6793C87.4902 18.6687 87.6964 18.7045 87.8873 18.784C88.0782 18.8634 88.2488 18.9846 88.3868 19.1385V18.7093L89.0993 18.6879ZM88.3654 20.1773C88.3765 19.985 88.3298 19.7938 88.2314 19.6283C88.1331 19.4627 87.9874 19.3304 87.8133 19.2482C87.6391 19.166 87.4443 19.1378 87.254 19.1672C87.0637 19.1965 86.8865 19.2821 86.7452 19.413C86.6038 19.5438 86.5049 19.7139 86.4609 19.9014C86.417 20.0889 86.4302 20.2852 86.4987 20.4652C86.5672 20.6452 86.6879 20.8006 86.8454 20.9114C87.0029 21.0222 87.1899 21.0835 87.3825 21.0872C87.5068 21.0968 87.6318 21.0803 87.7494 21.0387C87.8669 20.997 87.9745 20.9312 88.065 20.8455C88.1556 20.7598 88.2272 20.656 88.2753 20.5409C88.3233 20.4258 88.3467 20.3019 88.3439 20.1773H88.3654Z" fill="#263238"/>
<path d="M110.929 17.7007H112.749C114.097 17.7007 115.02 18.5334 115.02 19.7824C115.02 21.0314 114.097 21.8598 112.749 21.8598H110.929V17.7007ZM112.706 21.2074C112.9 21.218 113.094 21.189 113.277 21.1221C113.459 21.0552 113.626 20.9518 113.767 20.8182C113.908 20.6846 114.021 20.5237 114.098 20.3452C114.174 20.1668 114.214 19.9745 114.214 19.7802C114.214 19.5859 114.174 19.3937 114.098 19.2152C114.021 19.0368 113.908 18.8758 113.767 18.7423C113.626 18.6087 113.459 18.5053 113.277 18.4384C113.094 18.3715 112.9 18.3424 112.706 18.3531H111.698V21.2074H112.706Z" fill="#263238"/>
<path d="M115.509 20.276C115.495 19.9379 115.583 19.6034 115.761 19.3156C115.939 19.0278 116.199 18.7999 116.508 18.6611C116.816 18.5223 117.159 18.479 117.493 18.5368C117.826 18.5946 118.135 18.7509 118.378 18.9854C118.622 19.22 118.79 19.5222 118.861 19.8531C118.932 20.184 118.902 20.5285 118.775 20.8422C118.648 21.156 118.431 21.4246 118.15 21.6136C117.869 21.8026 117.539 21.9033 117.2 21.9027C116.98 21.9151 116.76 21.8821 116.554 21.8056C116.347 21.7291 116.159 21.6108 116 21.4581C115.841 21.3054 115.716 21.1216 115.631 20.9182C115.547 20.7148 115.505 20.4962 115.509 20.276ZM118.144 20.276C118.135 20.0915 118.072 19.9138 117.963 19.7648C117.854 19.6159 117.703 19.5022 117.53 19.4379C117.357 19.3737 117.169 19.3616 116.989 19.4032C116.809 19.4448 116.645 19.5382 116.518 19.672C116.39 19.8057 116.305 19.9739 116.272 20.1556C116.239 20.3374 116.261 20.5248 116.333 20.6946C116.406 20.8644 116.527 21.0092 116.681 21.111C116.835 21.2128 117.016 21.2672 117.2 21.2675C117.329 21.2708 117.457 21.2471 117.577 21.1978C117.696 21.1486 117.804 21.0748 117.892 20.9814C117.981 20.888 118.05 20.7769 118.093 20.6554C118.137 20.5339 118.154 20.4046 118.144 20.276Z" fill="#263238"/>
<path d="M122.737 20.0399V21.8598H121.995V20.1429C121.995 19.5763 121.716 19.2845 121.239 19.2845C121.115 19.2793 120.992 19.3011 120.877 19.3483C120.762 19.3956 120.659 19.4672 120.574 19.5581C120.49 19.6491 120.426 19.7574 120.387 19.8754C120.349 19.9933 120.336 20.1183 120.351 20.2416V21.8469H119.608V18.6878H120.316V19.1171C120.456 18.9695 120.627 18.8545 120.816 18.7803C121.005 18.7061 121.208 18.6745 121.411 18.6878C121.591 18.6746 121.771 18.7007 121.94 18.7643C122.109 18.828 122.261 18.9276 122.388 19.0563C122.514 19.185 122.611 19.3397 122.671 19.5095C122.731 19.6794 122.754 19.8604 122.737 20.0399Z" fill="#263238"/>
<path d="M126.69 20.512H124.197C124.245 20.743 124.377 20.9481 124.567 21.0882C124.757 21.2283 124.992 21.2937 125.227 21.2718C125.386 21.2775 125.544 21.25 125.692 21.1908C125.84 21.1317 125.974 21.0423 126.085 20.9284L126.484 21.3876C126.244 21.63 125.939 21.7985 125.606 21.8729C125.273 21.9474 124.925 21.9248 124.605 21.8078C124.284 21.6908 124.003 21.4843 123.796 21.2128C123.589 20.9413 123.465 20.6162 123.437 20.276C123.43 20.0594 123.468 19.8439 123.548 19.6427C123.629 19.4414 123.749 19.2589 123.903 19.1063C124.057 18.9537 124.24 18.8344 124.442 18.7558C124.644 18.6772 124.86 18.6409 125.076 18.6492C125.293 18.641 125.508 18.6782 125.709 18.7585C125.911 18.8387 126.093 18.9602 126.244 19.115C126.395 19.2699 126.512 19.4548 126.588 19.6577C126.663 19.8606 126.695 20.0771 126.682 20.2931C126.699 20.3532 126.695 20.4391 126.69 20.512ZM124.192 20.0184H126.012C125.982 19.8008 125.874 19.6014 125.709 19.457C125.543 19.3127 125.331 19.2332 125.111 19.2332C124.891 19.2332 124.679 19.3127 124.513 19.457C124.347 19.6014 124.24 19.8008 124.209 20.0184H124.192Z" fill="#263238"/>
<path d="M34.0692 32.3542C34.0692 32.3542 32.876 34.9038 34.6143 38.0242L39.1683 37.5005C39.1683 37.5005 38.4258 33.3071 38.4644 31.7361L34.0692 32.3542Z" fill="#92E3A9" stroke="#263238" stroke-miterlimit="10"/>
<path d="M34.0692 32.0881L38.4644 31.7361C38.6577 33.2632 39.0279 34.7627 39.5675 36.2043L35.1164 36.7623C34.5727 35.2543 34.2208 33.6839 34.0692 32.0881Z" fill="white" stroke="#263238" stroke-miterlimit="10"/>
<path d="M40.5074 40.3506L44.9026 40.0029C45.0963 41.5285 45.4665 43.0265 46.0057 44.4668L41.5547 45.0119C41.0141 43.5074 40.6623 41.9417 40.5074 40.3506Z" fill="#92E3A9" stroke="#263238" stroke-miterlimit="10"/>
<path d="M41.7307 48.9907L46.1302 48.6431C46.3214 50.1687 46.6902 51.6668 47.229 53.1069L42.778 53.6649C42.2363 52.1564 41.8845 50.5862 41.7307 48.9907Z" fill="white" stroke="#263238" stroke-miterlimit="10"/>
<path d="M46.4993 32.0537L51.4225 31.7361C51.3903 33.5215 51.6736 35.2986 52.2594 36.9855L47.3835 37.552C47.3835 37.552 46.4993 36.2172 46.4993 32.0537Z" fill="white" stroke="#263238" stroke-miterlimit="10"/>
<path d="M47.229 31.2769L52.1521 30.9635C52.1269 32.7502 52.4175 34.5273 53.0106 36.2129L48.1347 36.7795C48.1347 36.7795 47.229 35.4274 47.229 31.2769Z" fill="#92E3A9" stroke="#263238" stroke-miterlimit="10"/>
<path d="M51.1091 32.3885C51.1097 32.4259 51.1028 32.463 51.0887 32.4976C51.0747 32.5323 51.0539 32.5637 51.0274 32.5901C51.001 32.6166 50.9696 32.6374 50.9349 32.6514C50.9003 32.6655 50.8632 32.6724 50.8258 32.6718C50.7883 32.6724 50.751 32.6655 50.7161 32.6515C50.6813 32.6375 50.6495 32.6167 50.6227 32.5904C50.596 32.564 50.5747 32.5326 50.5602 32.4979C50.5457 32.4633 50.5383 32.4261 50.5383 32.3885C50.5383 32.3123 50.5686 32.2391 50.6225 32.1852C50.6764 32.1313 50.7496 32.101 50.8258 32.101C50.8634 32.1009 50.9006 32.1084 50.9353 32.1229C50.9699 32.1374 51.0013 32.1587 51.0277 32.1854C51.0541 32.2122 51.0748 32.2439 51.0888 32.2788C51.1028 32.3137 51.1097 32.351 51.1091 32.3885Z" fill="#263238"/>
<path d="M37.593 32.9594C37.5935 32.9968 37.5866 33.0338 37.5726 33.0685C37.5585 33.1031 37.5377 33.1346 37.5113 33.161C37.4849 33.1874 37.4534 33.2083 37.4188 33.2223C37.3841 33.2363 37.347 33.2433 37.3097 33.2427C37.2721 33.2432 37.2348 33.2363 37.1999 33.2224C37.1651 33.2084 37.1333 33.1876 37.1066 33.1612C37.0798 33.1349 37.0586 33.1035 37.0441 33.0688C37.0296 33.0341 37.0221 32.997 37.0221 32.9594C37.0221 32.8831 37.0524 32.81 37.1063 32.756C37.1603 32.7021 37.2334 32.6718 37.3097 32.6718C37.3472 32.6718 37.3844 32.6793 37.4191 32.6938C37.4537 32.7083 37.4852 32.7295 37.5115 32.7563C37.5379 32.7831 37.5587 32.8148 37.5726 32.8497C37.5866 32.8845 37.5935 32.9218 37.593 32.9594Z" fill="#263238"/>
<path d="M42.9497 41.1103C42.9497 41.1671 42.9328 41.2227 42.9012 41.27C42.8696 41.3173 42.8247 41.3542 42.7721 41.376C42.7196 41.3977 42.6618 41.4034 42.606 41.3923C42.5502 41.3812 42.499 41.3538 42.4587 41.3136C42.4185 41.2734 42.3911 41.2222 42.38 41.1664C42.3689 41.1106 42.3746 41.0528 42.3964 41.0002C42.4182 40.9477 42.455 40.9028 42.5023 40.8712C42.5496 40.8396 42.6052 40.8227 42.6621 40.8227C42.7384 40.8227 42.8115 40.853 42.8654 40.9069C42.9194 40.9608 42.9497 41.034 42.9497 41.1103Z" fill="#263238"/>
<path d="M49.3794 41.8399L53.5943 41.4107C53.6322 43.3152 53.9106 45.2073 54.4227 47.0421L50.109 47.4241C50.109 47.4241 49.3236 45.4411 49.3794 41.8399Z" fill="white" stroke="#263238" stroke-miterlimit="10"/>
<path d="M31.1891 43.0031C31.1891 43.0031 29.2232 46.4626 31.4509 49.9865L35.9276 49.4629C35.9276 49.4629 34.773 45.3939 35.434 42.7799L31.1891 43.0031Z" fill="white" stroke="#263238" stroke-miterlimit="10"/>
<path d="M31.1891 43.0031L35.4341 42.7799C35.4395 44.5628 35.6688 46.3379 36.1165 48.0636L31.8458 48.6431C31.8458 48.6431 30.747 47.3039 31.1891 43.0031Z" fill="#92E3A9" stroke="#263238" stroke-miterlimit="10"/>
<path d="M33.9533 43.7671C33.9541 43.8244 33.9379 43.8805 33.9066 43.9285C33.8753 43.9764 33.8305 44.014 33.7778 44.0362C33.725 44.0585 33.6669 44.0646 33.6107 44.0536C33.5545 44.0427 33.5029 44.0152 33.4624 43.9747C33.4219 43.9343 33.3945 43.8826 33.3835 43.8264C33.3725 43.7703 33.3786 43.7121 33.4009 43.6594C33.4232 43.6067 33.4607 43.5618 33.5086 43.5305C33.5566 43.4992 33.6128 43.483 33.67 43.4838C33.7451 43.4838 33.8172 43.5137 33.8703 43.5668C33.9234 43.6199 33.9533 43.692 33.9533 43.7671Z" fill="#263238"/>
<path d="M52.8303 42.5138C52.8303 42.5901 52.8 42.6632 52.7461 42.7172C52.6921 42.7711 52.619 42.8014 52.5427 42.8014C52.5052 42.8014 52.468 42.7939 52.4333 42.7794C52.3987 42.7649 52.3672 42.7437 52.3409 42.7169C52.3145 42.6901 52.2937 42.6584 52.2798 42.6235C52.2658 42.5887 52.2589 42.5514 52.2594 42.5138C52.2589 42.4765 52.2658 42.4394 52.2798 42.4047C52.2938 42.3701 52.3147 42.3386 52.3411 42.3122C52.3675 42.2858 52.399 42.2649 52.4336 42.2509C52.4683 42.2369 52.5054 42.23 52.5427 42.2305C52.5803 42.23 52.6176 42.2369 52.6524 42.2508C52.6873 42.2648 52.719 42.2856 52.7458 42.312C52.7726 42.3383 52.7938 42.3698 52.8083 42.4044C52.8228 42.4391 52.8303 42.4762 52.8303 42.5138Z" fill="#263238"/>
<path d="M45.5722 49.6989C45.5772 49.7394 45.5735 49.7804 45.5614 49.8193C45.5494 49.8582 45.5292 49.894 45.5022 49.9245C45.4752 49.9551 45.442 49.9795 45.4049 49.9962C45.3678 50.0129 45.3275 50.0216 45.2868 50.0216C45.2461 50.0216 45.2058 50.0129 45.1687 49.9962C45.1315 49.9795 45.0984 49.9551 45.0714 49.9245C45.0444 49.894 45.0242 49.8582 45.0121 49.8193C45.0001 49.7804 44.9964 49.7394 45.0014 49.6989C45.0099 49.6293 45.0437 49.5651 45.0962 49.5186C45.1488 49.4721 45.2166 49.4464 45.2868 49.4464C45.357 49.4464 45.4248 49.4721 45.4773 49.5186C45.5299 49.5651 45.5637 49.6293 45.5722 49.6989Z" fill="#263238"/>
<path d="M67.0589 44.75L71.4584 44.4024C71.6497 45.9285 72.0199 47.4267 72.5615 48.8662L68.1062 49.4285C67.565 47.9183 67.2132 46.3468 67.0589 44.75Z" fill="#92E3A9" stroke="#263238" stroke-miterlimit="10"/>
<path d="M68.1835 55.0899L72.5787 54.7423C72.7723 56.2679 73.1425 57.7659 73.6818 59.2061L69.2308 59.7641C68.687 58.2562 68.3351 56.6858 68.1835 55.0899Z" fill="white" stroke="#263238" stroke-miterlimit="10"/>
<path d="M83.4765 32.0537L88.3996 31.7361C88.3675 33.5215 88.6508 35.2986 89.2366 36.9855L84.3779 37.552C84.3779 37.552 83.4765 36.2172 83.4765 32.0537Z" fill="white" stroke="#263238" stroke-miterlimit="10"/>
<path d="M84.2062 31.2769L89.1293 30.9635C89.0964 32.7427 89.3768 34.5137 89.9577 36.1957L85.0818 36.7623C85.0818 36.7623 84.2062 35.4274 84.2062 31.2769Z" fill="#92E3A9" stroke="#263238" stroke-miterlimit="10"/>
<path d="M88.0906 32.3885C88.0906 32.4648 88.0603 32.5379 88.0064 32.5919C87.9524 32.6458 87.8793 32.6761 87.803 32.6761C87.7268 32.6761 87.6536 32.6458 87.5997 32.5919C87.5457 32.5379 87.5154 32.4648 87.5154 32.3885C87.5154 32.3123 87.5457 32.2391 87.5997 32.1852C87.6536 32.1313 87.7268 32.101 87.803 32.101C87.8793 32.101 87.9524 32.1313 88.0064 32.1852C88.0603 32.2391 88.0906 32.3123 88.0906 32.3885Z" fill="#263238"/>
<path d="M69.5012 45.5098C69.5017 45.5471 69.4948 45.5842 69.4808 45.6189C69.4667 45.6535 69.4459 45.685 69.4195 45.7114C69.3931 45.7378 69.3616 45.7586 69.327 45.7727C69.2923 45.7867 69.2552 45.7936 69.2179 45.7931C69.1803 45.7936 69.143 45.7867 69.1082 45.7727C69.0733 45.7588 69.0415 45.738 69.0148 45.7116C68.988 45.6853 68.9668 45.6538 68.9523 45.6192C68.9378 45.5845 68.9303 45.5473 68.9303 45.5098C68.9303 45.4335 68.9606 45.3604 69.0145 45.3064C69.0685 45.2525 69.1416 45.2222 69.2179 45.2222C69.2554 45.2222 69.2926 45.2297 69.3273 45.2442C69.3619 45.2587 69.3934 45.2799 69.4197 45.3067C69.4461 45.3334 69.4669 45.3652 69.4808 45.4C69.4948 45.4349 69.5017 45.4722 69.5012 45.5098Z" fill="#263238"/>
<path d="M76.8623 43.8229L81.0772 43.3937C81.1157 45.297 81.3955 47.1878 81.9099 49.0208L77.5919 49.4071C77.5919 49.4071 76.8065 47.4069 76.8623 43.8229Z" fill="white" stroke="#263238" stroke-miterlimit="10"/>
<path d="M80.3132 44.4925C80.3132 44.5688 80.2829 44.6419 80.229 44.6959C80.175 44.7498 80.1019 44.7801 80.0256 44.7801C79.9687 44.7801 79.9131 44.7632 79.8658 44.7316C79.8185 44.7 79.7817 44.6551 79.7599 44.6026C79.7382 44.55 79.7325 44.4922 79.7436 44.4364C79.7547 44.3806 79.782 44.3294 79.8223 44.2892C79.8625 44.2489 79.9137 44.2215 79.9695 44.2105C80.0253 44.1994 80.0831 44.2051 80.1357 44.2268C80.1882 44.2486 80.2331 44.2854 80.2647 44.3327C80.2963 44.38 80.3132 44.4356 80.3132 44.4925Z" fill="#263238"/>
<path d="M71.218 55.8496C71.223 55.8901 71.2193 55.9311 71.2072 55.97C71.1952 56.0089 71.175 56.0448 71.148 56.0753C71.121 56.1058 71.0878 56.1302 71.0507 56.1469C71.0136 56.1636 70.9733 56.1723 70.9326 56.1723C70.8919 56.1723 70.8516 56.1636 70.8145 56.1469C70.7774 56.1302 70.7442 56.1058 70.7172 56.0753C70.6902 56.0448 70.67 56.0089 70.658 55.97C70.6459 55.9311 70.6422 55.8901 70.6472 55.8496C70.6557 55.78 70.6895 55.7158 70.7421 55.6693C70.7946 55.6228 70.8624 55.5971 70.9326 55.5971C71.0028 55.5971 71.0706 55.6228 71.1231 55.6693C71.1757 55.7158 71.2095 55.78 71.218 55.8496Z" fill="#263238"/>
<path d="M110.56 32.0881L114.955 31.7361C115.149 33.2632 115.519 34.7627 116.059 36.2043L111.608 36.7623C111.064 35.2543 110.712 33.6839 110.56 32.0881Z" fill="#92E3A9" stroke="#263238" stroke-miterlimit="10"/>
<path d="M118.217 48.9907L122.617 48.6431C122.808 50.1692 123.178 51.6674 123.72 53.1069L119.265 53.6649C118.723 52.1564 118.371 50.5862 118.217 48.9907Z" fill="#92E3A9" stroke="#263238" stroke-miterlimit="10"/>
<path d="M123.72 31.2769L128.643 30.9635C128.611 32.7486 128.893 34.5254 129.476 36.2129L124.6 36.7795C124.6 36.7795 123.72 35.4274 123.72 31.2769Z" fill="#92E3A9" stroke="#263238" stroke-miterlimit="10"/>
<path d="M127.6 32.3885C127.6 32.4261 127.593 32.4633 127.578 32.4979C127.564 32.5326 127.543 32.564 127.516 32.5904C127.489 32.6167 127.457 32.6375 127.422 32.6515C127.388 32.6655 127.35 32.6724 127.313 32.6718C127.275 32.6724 127.238 32.6655 127.204 32.6514C127.169 32.6374 127.137 32.6166 127.111 32.5901C127.085 32.5637 127.064 32.5323 127.05 32.4976C127.036 32.463 127.029 32.4259 127.029 32.3885C127.029 32.351 127.036 32.3137 127.05 32.2788C127.064 32.2439 127.084 32.2122 127.111 32.1854C127.137 32.1587 127.169 32.1374 127.203 32.1229C127.238 32.1084 127.275 32.1009 127.313 32.101C127.389 32.101 127.462 32.1313 127.516 32.1852C127.57 32.2391 127.6 32.3123 127.6 32.3885Z" fill="#263238"/>
<path d="M114.08 32.9594C114.08 33.0357 114.05 33.1088 113.996 33.1627C113.942 33.2167 113.869 33.247 113.792 33.247C113.716 33.247 113.643 33.2167 113.589 33.1627C113.535 33.1088 113.505 33.0357 113.505 32.9594C113.505 32.8831 113.535 32.81 113.589 32.756C113.643 32.7021 113.716 32.6718 113.792 32.6718C113.869 32.6718 113.942 32.7021 113.996 32.756C114.05 32.81 114.08 32.8831 114.08 32.9594Z" fill="#263238"/>
<path d="M107.676 43.0031L111.921 42.7799C111.926 44.5628 112.156 46.3379 112.603 48.0636L108.333 48.6431C108.333 48.6431 107.234 47.3039 107.676 43.0031Z" fill="#92E3A9" stroke="#263238" stroke-miterlimit="10"/>
<path d="M110.44 43.7671C110.441 43.8047 110.434 43.842 110.42 43.8769C110.406 43.9117 110.385 43.9435 110.359 43.9702C110.332 43.997 110.301 44.0182 110.266 44.0327C110.232 44.0472 110.194 44.0547 110.157 44.0547C110.081 44.0547 110.007 44.0244 109.953 43.9705C109.899 43.9165 109.869 43.8434 109.869 43.7671C109.869 43.7296 109.877 43.6924 109.891 43.6577C109.906 43.6231 109.927 43.5916 109.954 43.5653C109.98 43.5389 110.012 43.5181 110.047 43.5042C110.082 43.4902 110.119 43.4833 110.157 43.4838C110.194 43.4833 110.231 43.4902 110.266 43.5042C110.3 43.5183 110.332 43.5391 110.358 43.5655C110.385 43.5919 110.406 43.6234 110.42 43.658C110.434 43.6927 110.441 43.7298 110.44 43.7671Z" fill="#263238"/>
<path d="M122.059 49.6989C122.06 49.7562 122.044 49.8124 122.012 49.8603C121.981 49.9082 121.936 49.9458 121.883 49.9681C121.831 49.9904 121.773 49.9964 121.716 49.9855C121.66 49.9745 121.609 49.947 121.568 49.9065C121.528 49.8661 121.5 49.8144 121.489 49.7583C121.478 49.7021 121.484 49.6439 121.507 49.5912C121.529 49.5385 121.566 49.4936 121.614 49.4623C121.662 49.4311 121.718 49.4148 121.776 49.4157C121.851 49.4157 121.923 49.4455 121.976 49.4986C122.029 49.5518 122.059 49.6238 122.059 49.6989Z" fill="#263238"/>
<path opacity="0.2" d="M18.4499 8.19775L21.9824 11.5457V74.0099L18.4499 77.4093V8.19775Z" fill="black"/>
<path opacity="0.2" d="M148.392 7.8329V77.0917L144.975 74.0099V11.5456L148.392 7.8329Z" fill="black"/>
<path d="M64.2089 31.6031L73.4586 30.9464" stroke="#263238" stroke-linecap="round" stroke-linejoin="round"/>
<path d="M64.2089 33.2856L73.4586 32.6289" stroke="#263238" stroke-linecap="round" stroke-linejoin="round"/>
<path d="M64.2089 34.9724L73.4586 34.3157" stroke="#263238" stroke-linecap="round" stroke-linejoin="round"/>
<path d="M86.9532 48.3984C87.3824 46.8532 88.7902 45.7415 90.2882 45.1664C93.37 43.9818 96.4775 45.2265 97.5849 48.407C98.3919 50.7248 98.2073 53.7551 96.0655 55.2745C95.1459 55.8871 94.1018 56.2881 93.0085 56.4484C91.9152 56.6087 90.7999 56.5244 89.7431 56.2016C88.155 55.678 86.8115 54.1285 86.9832 52.4631" stroke="#263238" stroke-linecap="round" stroke-linejoin="round"/>
<path d="M96.1342 37.5349C95.5619 39.7582 95.0182 41.9844 94.5032 44.2135" stroke="#263238" stroke-linecap="round" stroke-linejoin="round"/>
<path d="M93.0051 41.7841C93.3032 42.7093 93.7248 43.59 94.2584 44.4024C95.1516 44.0605 95.9134 43.4444 96.4346 42.6426" stroke="#263238" stroke-linecap="round" stroke-linejoin="round"/>
<path d="M89.7346 48.8276L94.1298 48.4799C94.3234 50.0056 94.6936 51.5036 95.2329 52.9438L90.7819 53.5061C90.2383 51.9966 89.8865 50.4248 89.7346 48.8276Z" fill="#92E3A9" stroke="#263238" stroke-miterlimit="10"/>
<path d="M92.1768 49.5873C92.1768 49.6249 92.1693 49.6621 92.1548 49.6967C92.1403 49.7314 92.1191 49.7628 92.0923 49.7892C92.0655 49.8155 92.0338 49.8363 91.9989 49.8503C91.9641 49.8643 91.9268 49.8712 91.8892 49.8706C91.8519 49.8712 91.8148 49.8643 91.7801 49.8502C91.7455 49.8362 91.714 49.8154 91.6876 49.7889C91.6612 49.7625 91.6403 49.7311 91.6263 49.6964C91.6123 49.6618 91.6054 49.6247 91.6059 49.5873C91.6054 49.5498 91.6123 49.5125 91.6262 49.4776C91.6402 49.4427 91.661 49.411 91.6874 49.3842C91.7137 49.3575 91.7451 49.3362 91.7798 49.3217C91.8145 49.3072 91.8517 49.2998 91.8892 49.2998C91.9655 49.2998 92.0386 49.3301 92.0926 49.384C92.1465 49.4379 92.1768 49.5111 92.1768 49.5873Z" fill="#263238"/>
<path d="M56.3413 167.983C56.4011 168.25 56.5169 168.501 56.6813 168.719C56.8456 168.937 57.0545 169.118 57.2942 169.249C59.0111 169.983 62.1014 168.82 64.2947 168.275C66.4881 167.73 71.2309 166.086 71.6601 164.257C71.7359 163.987 71.7239 163.7 71.6258 163.438C71.2223 162.476 69.3939 162.558 68.2521 162.558C66.8486 162.558 63.4406 162.189 62.4663 161.764C61.4919 161.339 56.0795 163.957 56.0795 163.957C56.0795 163.957 55.8177 166.386 56.3413 167.983Z" fill="#92E3A9"/>
<path d="M44.1128 163.004C44.1959 163.27 44.3425 163.512 44.5399 163.709C44.7373 163.905 44.9797 164.051 45.246 164.133C46.8255 164.622 47.6796 163.648 48.5295 162.614C49.3794 161.579 50.2936 161.326 51.637 160.36C52.9805 159.394 53.0835 157.514 52.4397 157.059C52.4159 157.041 52.39 157.025 52.3624 157.012C51.637 156.647 48.8943 157.622 48.8943 157.622L44.6966 156.931C44.6966 156.931 44.3918 158.476 44.0871 159.935C43.8939 160.862 43.7781 162.094 44.1128 163.004Z" fill="#92E3A9"/>
<path d="M44.1129 163.008C44.1959 163.274 44.3425 163.516 44.5399 163.713C44.7374 163.91 44.9797 164.055 45.246 164.137C46.8255 164.627 47.6797 163.652 48.5295 162.618C49.3794 161.583 50.2936 161.33 51.6371 160.364C52.9805 159.399 53.0835 157.519 52.4397 157.064C52.558 157.818 52.3762 158.588 51.9332 159.21C51.4261 159.887 50.8026 160.468 50.0919 160.927C49.3829 161.388 48.724 161.921 48.126 162.519C47.8556 162.824 47.4007 162.914 47.0659 163.146C46.568 163.489 46.1259 163.811 45.5379 163.678C45.0222 163.554 44.5373 163.326 44.1129 163.008Z" fill="#FDFEFF"/>
<path d="M56.3413 167.983C56.4011 168.25 56.5169 168.501 56.6812 168.719C56.8456 168.937 57.0545 169.118 57.2942 169.249C59.0111 169.983 61.977 169.485 64.2947 168.275C66.4838 167.73 71.2309 166.086 71.6601 164.257C71.7359 163.987 71.7239 163.7 71.6258 163.438C71.3854 163.961 70.7287 164.725 69.0762 165.584C65.8013 167.348 61.3074 168.417 59.7236 168.674C58.6677 168.863 57.1997 168.348 56.3413 167.983Z" fill="#FDFEFF"/>
<path d="M45.3662 92.2774C45.1644 92.1616 40.6791 103.918 40.5632 104.411C40.1144 106.327 39.9695 108.301 40.134 110.262C40.489 113.893 41.8839 117.344 44.1515 120.202C46.2976 122.941 50.8173 127.07 49.3021 130.993C48.3793 133.397 42.0955 144.299 43.7609 157.407C43.7609 157.407 45.7396 160.734 49.4609 157.407L52.9934 150.205L55.7662 163.511C55.7662 163.511 59.4617 167.575 62.5993 163.511C62.341 156.454 63.0252 149.394 64.6338 142.518C66.3507 135.381 67.7371 128.177 68.7929 120.906C69.278 117.584 70.0806 114.073 69.6514 110.73C69.2222 107.21 65.3592 97.162 64.0715 93.857C64.1059 93.857 59.9596 100.591 45.3662 92.2774Z" fill="#263238"/>
<path d="M51.8474 139.191C51.5727 141.311 51.9676 143.616 52.3281 145.707" stroke="#FDFEFF" stroke-linecap="round" stroke-linejoin="round"/>
<path d="M49.388 112.318L53.4141 113.884C53.4141 113.884 54.9078 125.096 54.9078 127.229C54.9078 128.675 53.3797 132.684 52.4526 136.242" stroke="#FDFEFF" stroke-linecap="round" stroke-linejoin="round"/>
<path d="M56.3413 163.167C56.3413 163.167 55.6932 166.116 56.3413 167.983C56.9895 169.85 58.4145 169.7 60.067 169.7C61.7195 169.7 68.0934 167.056 69.7974 166.326C71.5014 165.597 72.1881 163.978 71.6258 163.425C71.0635 162.871 70.733 162.712 68.2522 162.545C65.7713 162.377 63.2088 162.373 62.4878 161.759" stroke="#263238" stroke-miterlimit="10"/>
<path d="M56.3413 167.983C57.6514 168.648 59.1507 168.84 60.5863 168.528C62.8612 167.975 70.7759 165.588 71.6258 163.438" stroke="#263238" stroke-miterlimit="10"/>
<path d="M44.5635 157.965C44.5635 157.965 43.748 160.695 43.9025 161.764C44.0571 162.832 43.8596 164.017 45.701 164.24C47.5423 164.464 48.5123 162.523 48.9373 162.184C49.3622 161.845 51.8431 160.669 52.5041 159.317C52.7866 158.791 52.8573 158.177 52.7015 157.6C52.4655 156.892 51.9504 156.922 51.3066 157.029C50.4899 157.179 49.684 157.383 48.8944 157.639" stroke="#263238" stroke-miterlimit="10"/>
<path d="M44.0056 163.129C44.8082 163.416 45.6881 163.708 46.4993 163.446C47.4479 163.142 48.0059 162.184 48.7913 161.575C49.0789 161.356 49.3965 161.18 49.7056 160.987C50.4429 160.555 51.0923 159.989 51.6199 159.317C52.1264 158.63 52.4569 158.064 52.4182 157.214" stroke="#263238" stroke-miterlimit="10"/>
<path d="M85.687 67.1166C85.687 67.1166 86.0905 65.344 87.4039 64.9705C88.7173 64.5971 89.1937 65.4598 89.8118 65.0178C90.4299 64.5757 91.0265 62.8717 91.5287 62.4768C92.0309 62.0819 92.782 61.3651 93.2456 61.4123C93.7091 61.4595 92.7176 62.73 92.7176 62.73C92.7176 62.73 93.7091 62.6742 93.6104 63.0734C93.5204 63.3733 93.3951 63.6615 93.237 63.9318C93.74 63.7064 94.1936 63.3841 94.5718 62.9833C95.1556 62.3394 95.9282 61.5024 96.9025 62.0776C96.9025 62.0776 97.4862 62.3652 97.2115 62.7429C96.9368 63.1206 96.117 65.6873 95.0654 66.314C94.0139 66.9407 92.4515 66.9879 91.5544 67.1038C90.6574 67.2196 87.1807 69.5889 87.1807 69.5889L85.7128 67.8721L85.687 67.1166Z" fill="white"/>
<path d="M87.2365 69.6018C88.2924 68.5244 89.3826 68.0523 90.6703 67.4128C91.5287 66.9836 92.5803 67.1595 93.5331 67.0436C94.7693 66.8977 95.3487 66.1079 95.9282 65.0692C96.3832 64.2408 96.748 63.1206 97.409 62.5326C97.0561 62.4501 96.6879 62.4605 96.3402 62.5626C95.6921 62.7858 95.2071 63.4897 94.7393 64.0863C94.2913 64.6771 93.658 65.1003 92.9408 65.2881C92.8801 65.3121 92.8126 65.3121 92.752 65.2881C92.5846 65.1937 92.6704 64.889 92.7777 64.7044L93.4988 63.4854C93.5433 63.4292 93.5752 63.3641 93.5923 63.2945C93.6093 63.2248 93.6111 63.1523 93.5975 63.082C93.5417 62.9103 93.3443 62.9017 93.1683 62.936C92.4286 63.0996 91.7475 63.4617 91.1982 63.9833C90.7089 64.4125 90.2367 65.0349 89.623 65.0478C89.3291 65.019 89.0404 64.9511 88.7645 64.846C88.3795 64.7587 87.9783 64.7746 87.6014 64.8922C87.2246 65.0098 86.8854 65.2248 86.6184 65.5156C86.0347 66.1208 85.6012 66.7131 85.6355 67.6617" stroke="#263238" stroke-linecap="round" stroke-linejoin="round"/>
<path d="M97.0313 62.4038C97.0313 62.1677 96.8338 62.0218 96.6493 61.9746C96.4554 61.9102 96.2501 61.8872 96.0468 61.9072C95.8435 61.9272 95.6466 61.9896 95.4689 62.0905C95.2108 62.2768 94.9809 62.4994 94.7865 62.7515C94.2617 63.3459 93.6762 63.884 93.0396 64.3567" stroke="#263238" stroke-linecap="round" stroke-linejoin="round"/>
<path d="M90.4213 64.5799C91.1081 63.64 91.4944 62.4339 92.4215 61.7514C92.6519 61.5625 92.9323 61.4447 93.2284 61.4123C93.2433 61.4059 93.2594 61.4026 93.2756 61.4026C93.2919 61.4026 93.3079 61.4059 93.3228 61.4123C93.3529 61.4467 93.3228 61.5025 93.3228 61.5454C93.0524 62.0733 92.7777 62.5927 92.4945 63.1163L92.5331 63.0391" stroke="#263238" stroke-linecap="round" stroke-linejoin="round"/>
<path d="M87.3824 70.0868C87.0991 70.589 78.0555 86.7105 76.4931 87.6376C74.9308 88.5647 74.8235 88.2084 73.7418 87.6719C72.6602 87.1354 65.342 79.461 65.342 79.461L64.6338 82.7101L62.9727 90.2L67.8358 102.729C63.0457 106.124 54.9292 106.751 54.9292 106.751L53.1222 99.6214L49.7828 106.098C47.7137 105.733 45.714 105.048 43.8553 104.068C42.4176 103.349 41.0333 102.527 39.7134 101.609L44.3747 90.449C42.9967 91.3466 41.3835 91.8156 39.7391 91.7967C37.9238 91.7507 36.1658 91.1517 34.7001 90.0798C34.7611 86.6243 35.1013 83.1793 35.7173 79.7786C36.5758 74.761 37.7003 70.4388 38.0566 69.649C38.6532 68.327 42.1556 64.361 42.1556 64.361C43.8253 63.3652 47.4522 62.803 47.4522 62.803L46.8212 59.3692C47.6209 59.0152 48.4684 58.7809 49.3364 58.6739C50.1402 58.573 50.9535 58.573 51.7572 58.6739C51.8989 58.6739 52.0405 58.7082 52.1865 58.734C54.1721 59.0747 56.0624 59.8341 57.732 60.9616V63.4382C60.9554 64.0305 65.9086 66.9535 67.0975 67.9236C68.2865 68.8936 74.3342 78.0617 74.3342 78.0617L85.1118 67.1295L87.3824 70.0868Z" fill="#92E3A9"/>
<path opacity="0.2" d="M87.6485 70.383C87.3652 70.8852 78.3216 87.0023 76.7635 87.9295C75.2055 88.8566 75.0896 88.5003 74.0122 87.9638C72.9349 87.4273 65.6124 79.7786 65.6124 79.7786L67.8916 69.9065C67.8916 69.9065 74.0165 79.3107 75.3342 82.9891L87.6485 70.383Z" fill="black"/>
<path opacity="0.2" d="M52.1865 58.6868V62.9146C52.1865 62.9146 46.6496 66.2067 45.7182 68.1296C44.7868 70.0525 45.9199 84.5172 50.9289 89.7622L48.7828 89.5605L43.8382 104.068C42.4004 103.349 41.0162 102.527 39.6962 101.609L44.3576 90.449C42.9845 91.3433 41.3778 91.8122 39.7392 91.7967C40.0053 90.7709 42.2759 81.3453 35.7217 79.7786C36.5801 74.761 37.7047 70.4388 38.0609 69.649C38.6575 68.327 42.16 64.3611 42.16 64.3611C43.8296 63.3653 47.4565 62.803 47.4565 62.803L46.8256 59.3692C47.6253 59.0152 48.4728 58.7809 49.3408 58.6739L52.1865 58.6868Z" fill="black"/>
<path d="M57.6633 42.5696C57.6633 42.5696 59.6721 43.428 59.994 45.0505C60.3159 46.6729 60.5606 48.3769 61.4619 49.0508C62.3633 49.7247 62.8268 49.9736 62.5049 50.5402C62.3697 50.7984 62.2117 51.0441 62.0328 51.2742C62.0328 51.2742 62.8612 56.854 61.8954 57.5365C60.9297 58.2189 58.3587 56.7682 58.3587 56.7682C57.9091 56.976 57.5202 57.2952 57.2287 57.6956C56.9372 58.096 56.7529 58.5643 56.6933 59.0559C56.4744 60.7728 56.6632 60.2277 56.6632 60.2277C56.6632 60.2277 52.7445 58.3176 48.7527 58.9786L48.8987 53.9782C48.8987 53.9782 51.6285 41.0931 57.6633 42.5696Z" fill="white"/>
<path d="M59.5433 48.686C59.5948 49.0723 59.4961 49.4071 59.3244 49.4285C59.1527 49.45 58.9681 49.1581 58.9166 48.7675C58.8651 48.3769 58.9638 48.0507 59.1355 48.025C59.3072 47.9992 59.4832 48.2997 59.5433 48.686Z" fill="#263238"/>
<path d="M55.9035 41.1918C55.9035 41.1918 59.8909 43.4452 60.1699 45.6986C60.4489 47.952 60.8481 48.7461 62.0327 49.45C63.2174 50.1539 62.0327 51.2742 62.0327 51.2742C62.0327 51.2742 62.5735 56.9184 61.8954 57.5365C61.2172 58.1545 57.6032 57.0858 55.8863 54.5319" stroke="#263238" stroke-linecap="round" stroke-linejoin="round"/>
<path opacity="0.6" d="M55.2769 59.5237L55.3713 63.0047C55.3713 63.0047 62.1014 67.8635 64.1445 69.7735L63.3719 88.0153L67.8015 68.8507C67.8015 68.8507 63.8398 64.3267 57.732 63.4683V60.9917C56.9683 60.4162 56.1452 59.9241 55.2769 59.5237Z" fill="white"/>
<path d="M58.0925 56.6008C57.5206 57.0516 57.0938 57.6606 56.865 58.352C56.7053 58.8874 56.6046 59.4386 56.5645 59.9959" stroke="#263238" stroke-linecap="round" stroke-linejoin="round"/>
<path d="M55.5429 50.7119C55.5429 50.7119 53.9677 49.0508 53.1565 49.45C52.3452 49.8492 51.9117 51.3943 52.5813 53.343C53.2509 55.2917 54.9463 55.5277 55.9035 54.6693" stroke="#263238" stroke-linecap="round" stroke-linejoin="round"/>
<path d="M48.9158 56.1415C48.8901 57.0815 48.8472 57.9056 48.7699 58.7726" stroke="#263238" stroke-linecap="round" stroke-linejoin="round"/>
<path d="M55.543 50.7119C55.543 50.7119 59.406 47.8619 59.0841 43.604C59.0841 43.604 56.968 40.0029 51.8947 40.0029C46.8213 40.0029 44.5979 41.7798 43.8296 45.4711C43.0613 49.1624 42.6707 54.2959 45.7697 56.1415C48.8687 57.9871 52.0363 56.5707 52.8218 53.9525C52.8218 53.9525 51.3152 50.948 52.7917 49.7376C53.9034 48.8276 55.543 50.7119 55.543 50.7119Z" fill="#263238"/>
<path d="M47.3793 62.5411L46.6367 59.3821C46.6367 59.3821 52.9291 57.0858 57.7234 60.9745V63.3052" stroke="#263238" stroke-linecap="round" stroke-linejoin="round"/>
<path d="M62.9685 89.7665L67.8358 102.729C67.8358 102.729 61.3975 106.592 54.9249 106.751L53.1222 99.6214L49.7786 106.094C46.641 105.304 42.8596 104.729 39.7091 101.609L44.7267 90.2344L37.6489 70.1727L42.1557 64.361C42.1557 64.361 46.2719 61.6441 55.3713 63.0047C64.4708 64.3653 67.8187 68.7005 67.8187 68.7005L62.9685 89.7665Z" stroke="#263238" stroke-linecap="round" stroke-linejoin="round"/>
<path d="M62.9685 89.7665C62.9685 89.7665 60.9512 90.7451 57.6548 89.7665" stroke="#263238" stroke-linecap="round" stroke-linejoin="round"/>
<path d="M57.4273 91.3675C59.1833 91.5625 60.9496 91.1042 62.3891 90.0798" stroke="#263238" stroke-linecap="round" stroke-linejoin="round"/>
<g opacity="0.3">
<path opacity="0.3" d="M45.2418 44.1834C45.9457 43.4066 46.9973 43.0546 48.0188 42.8057C49.3217 42.4368 50.6879 42.3476 52.0277 42.5438C52.696 42.647 53.3336 42.8953 53.8956 43.2713C54.4577 43.6472 54.9306 44.1417 55.2812 44.72" stroke="white" stroke-linecap="round" stroke-linejoin="round"/>
<path opacity="0.3" d="M45.0571 45.5612C45.3963 47.0038 46.1499 48.3157 47.2252 49.3353C48.3006 50.3549 49.6506 51.0378 51.1091 51.2999" stroke="white" stroke-linecap="round" stroke-linejoin="round"/>
</g>
<path d="M67.8358 68.7004L74.3341 78.0617C74.3341 78.0617 75.5488 81.3023 74.8749 84.4056" stroke="#263238" stroke-linecap="round" stroke-linejoin="round"/>
<path d="M74.3342 78.0617L85.1076 67.1295L87.3953 70.0997C87.3953 70.0997 81.7511 82.1178 76.4974 87.6591C76.3197 87.8431 76.1072 87.9901 75.8724 88.0916C75.6375 88.1931 75.3848 88.2469 75.1289 88.2501C74.8731 88.2533 74.6191 88.2058 74.3818 88.1102C74.1444 88.0147 73.9284 87.873 73.7461 87.6934L65.3463 79.4824" stroke="#263238" stroke-linecap="round" stroke-linejoin="round"/>
<path d="M37.6488 70.1727C37.6488 70.1727 34.4554 83.2338 34.7044 90.0627C34.7044 90.0627 39.0824 94.0673 44.7266 90.2344" stroke="#263238" stroke-linecap="round" stroke-linejoin="round"/>
<path d="M42.5505 84.0708C42.3072 85.5307 41.7777 86.9281 40.9924 88.1827" stroke="#263238" stroke-linecap="round" stroke-linejoin="round"/>
<path d="M42.9712 47.2352C42.5396 48.4044 42.3216 49.6416 42.3274 50.8879C42.0999 56.6136 42.9411 62.3351 42.8081 68.0566C42.7609 70.0267 42.5849 72.0484 41.7436 73.8296C40.9024 75.6109 39.2885 77.1389 37.3313 77.3793C36.3988 77.4637 35.4592 77.3406 34.58 77.0187C33.2269 76.5842 32.0087 75.8081 31.0432 74.7653C29.9963 73.5336 29.3022 72.0416 29.0345 70.4474C28.6484 68.4193 28.7768 66.3267 29.4079 64.3611C30.6311 60.5539 33.5971 57.5966 35.5758 54.1199C36.548 52.4028 37.2789 50.5598 37.7476 48.6431C38.121 47.1022 38.4086 45.3767 39.649 44.3852C40.4969 43.7745 41.5428 43.5034 42.5806 43.6255C43.2888 43.6813 45.0701 43.75 44.8812 44.7972C44.7439 45.5484 43.3274 46.3982 42.9712 47.2352Z" fill="#263238"/>
<g opacity="0.3">
<path opacity="0.3" d="M43.8983 45.2265C42.6666 45.4697 41.5704 46.1648 40.8251 47.1751C40.2379 48.0491 39.8213 49.0263 39.5975 50.0552C37.8034 56.9227 38.9151 64.2194 37.7004 71.1813C37.3313 73.2931 36.6703 75.5036 35.0306 76.8814" stroke="white" stroke-linecap="round" stroke-linejoin="round"/>
<path opacity="0.3" d="M35.0392 61.0518C35.3268 60.6226 35.6273 60.1933 35.9277 59.7641C36.1123 59.5066 36.3054 59.2405 36.4857 58.9701" stroke="white" stroke-linecap="round" stroke-linejoin="round"/>
<path opacity="0.3" d="M32.4425 75.0915C31.2578 72.6106 31.2879 69.6705 32.0647 67.0351C32.4412 65.7825 32.9506 64.5738 33.5842 63.4296" stroke="white" stroke-linecap="round" stroke-linejoin="round"/>
</g>
<path d="M118.531 74.6795C118.824 73.4723 118.737 72.2042 118.282 71.0483C117.72 69.8558 117.095 68.6939 116.411 67.5673C116.411 67.5673 116.569 64.8632 115.878 63.9361C115.187 63.009 113.037 59.6439 112.53 59.6225C112.024 59.601 112.101 61.9188 112.96 63.4597L112.818 64.507C112.818 64.507 109.56 62.8287 108.582 62.4381C107.603 62.0476 105.148 60.953 104.62 61.4424C104.092 61.9317 107.908 63.258 108.582 64.3353C108.582 64.3353 102.521 63.7 102.633 64.507C102.744 65.3139 104.8 65.4384 104.8 65.4384C104.8 65.4384 104.165 65.5543 104.341 66.0565C104.517 66.5586 108.959 67.5673 108.959 67.5673C110.14 69.3689 111.838 70.7709 113.831 71.5891C117.23 73.0141 118.531 74.6795 118.531 74.6795Z" fill="white"/>
<path d="M118.986 74.3147C118.921 70.9281 116.41 67.5673 116.41 67.5673C116.41 67.5673 116.621 64.5628 115.475 63.3352C115.276 63.1233 115.088 62.9012 114.913 62.6699C114.737 62.4467 114.561 62.2064 114.385 61.9617C113.573 60.8415 112.826 59.6654 112.53 59.6225C112.148 59.5667 112.264 61.6827 112.659 62.6614C112.701 62.7705 112.756 62.8742 112.822 62.9704C112.921 63.1144 112.973 63.2851 112.972 63.4597C113.002 64.2022 112.44 65.2367 113.02 66.1895" stroke="#263238" stroke-linecap="round" stroke-linejoin="round"/>
<path d="M112.831 64.507C112.831 64.507 105.603 60.4766 104.354 61.657C104.354 61.657 108.217 63.5069 108.594 64.3353" stroke="#263238" stroke-linecap="round" stroke-linejoin="round"/>
<path d="M109.934 66.2539C109.934 66.2539 105.534 64.8761 104.354 65.5972C103.173 66.3183 108.972 67.5673 108.972 67.5673C108.972 67.5673 111.054 70.6835 112.53 70.5075" stroke="#263238" stroke-linecap="round" stroke-linejoin="round"/>
<path d="M104.354 65.6144C104.354 65.6144 102.581 65.3354 102.637 64.5242C102.693 63.7129 108.217 63.6657 110.384 65.0693" stroke="#263238" stroke-linecap="round" stroke-linejoin="round"/>
<path d="M112.822 62.9704C112.921 63.1144 112.973 63.2851 112.972 63.4597L108.212 65.4041C108.107 65.4473 107.989 65.447 107.884 65.4031C107.779 65.3592 107.696 65.2754 107.652 65.1701C107.609 65.0648 107.609 64.9467 107.653 64.8416C107.697 64.7366 107.781 64.6533 107.886 64.61L112.659 62.6613C112.701 62.7705 112.756 62.8742 112.822 62.9704Z" fill="#263238"/>
<path d="M117.501 61.6141L114.925 62.6699C114.749 62.4468 114.574 62.2064 114.398 61.9617L117.192 60.82C117.295 60.7852 117.408 60.7913 117.508 60.8369C117.607 60.8826 117.685 60.9644 117.726 61.0657C117.767 61.1669 117.768 61.2801 117.729 61.382C117.689 61.4839 117.612 61.5669 117.514 61.6141H117.501Z" fill="#263238"/>
<path d="M117.106 69.9624L104.079 71.5119L99.9714 75.0787L109.818 94.0845L124.081 93.1187L125.089 88.4145L117.106 69.9624Z" fill="white"/>
<path d="M117.106 69.9624L115.475 73.2201L124.081 93.1187L125.089 88.4145L117.106 69.9624Z" fill="#263238"/>
<path opacity="0.9" d="M117.106 69.9624L115.475 73.2201L124.081 93.1187L125.089 88.4145L117.106 69.9624Z" fill="white"/>
<path d="M99.9714 75.0787L115.475 73.2202L124.081 93.1187L109.818 94.0845L99.9714 75.0787Z" fill="#263238"/>
<path opacity="0.6" d="M99.9714 75.0787L115.475 73.2202L124.081 93.1187L109.818 94.0845L99.9714 75.0787Z" fill="white"/>
<path d="M115.475 73.2202L99.9714 75.0787L109.818 94.0845L124.081 93.1187L115.475 73.2202Z" stroke="#263238" stroke-linecap="round" stroke-linejoin="round"/>
<path d="M115.475 73.2201L117.106 69.9624" stroke="#263238" stroke-linecap="round" stroke-linejoin="round"/>
<path d="M124.081 93.1187L125.089 88.4145L117.106 69.9624L104.079 71.5119L99.9714 75.0787" stroke="#263238" stroke-linecap="round" stroke-linejoin="round"/>
<path d="M109.968 86.3328C109.968 86.3328 109.406 83.5471 107.865 82.899C106.324 82.2509 101.602 82.7316 101.427 83.6888C101.251 84.6459 103.045 85.6975 103.045 85.6975C103.045 85.6975 102.783 88.8609 104.504 90.0284C106.225 91.1958 109.225 90.6593 109.225 90.6593L110.788 91.0585L111.646 86.5388L109.968 86.3328Z" fill="white"/>
<path d="M110.56 86.2169L109.951 86.3285C109.951 86.3285 109.316 83.0407 107.586 82.7531C105.856 82.4655 101.238 82.869 101.414 84.0193C101.59 85.1696 103.027 85.6932 103.027 85.6932C103.027 85.6932 102.967 89.5004 104.817 90.1915C106.667 90.8825 109.2 90.655 109.2 90.655C108.912 90.5262 109.436 90.7194 110.037 90.8696" stroke="#263238" stroke-linecap="round" stroke-linejoin="round"/>
<path d="M148.799 157.656L149.027 162.983C149.027 162.983 145.258 165.288 143.507 164.7C141.756 164.112 136.099 161.12 136.099 161.12C136.099 161.12 135.841 158.06 139.292 158.115C142.743 158.171 147.499 160.025 147.499 160.025L148.799 157.656Z" fill="#92E3A9"/>
<path opacity="0.2" d="M148.799 157.656L149.027 162.983C149.027 162.983 145.258 165.288 143.507 164.7C141.756 164.112 136.099 161.12 136.099 161.12C136.099 161.12 135.841 158.06 139.292 158.115C142.743 158.171 147.499 160.025 147.499 160.025L148.799 157.656Z" fill="black"/>
<path d="M137.691 158.862C138.833 159.498 140.021 160.048 141.245 160.506C141.871 160.744 142.538 160.853 143.207 160.828L143.743 160.455L144.49 160.081L144.748 159.257L142.563 158.794C142.563 158.794 139.288 158.206 137.691 158.862Z" fill="white"/>
<path d="M136.421 159.875L136.099 161.12C136.099 161.12 140.434 164.193 142.906 164.554C145.378 164.914 149.027 162.987 149.027 162.987L148.992 162.184C148.992 162.184 146.769 163.451 144.7 163.541C142.631 163.631 136.421 159.875 136.421 159.875Z" fill="white"/>
<path d="M144.816 159.077C144.816 159.077 139.567 158.369 137.803 158.828C136.039 159.287 136.086 161.12 136.086 161.12C136.086 161.12 142.095 165.197 144.554 164.743C146.132 164.42 147.641 163.824 149.014 162.983V157.343" stroke="#263238" stroke-linecap="round" stroke-linejoin="round"/>
<path d="M136.421 159.875C136.421 159.875 142.627 163.614 144.713 163.536C146.799 163.459 149.027 161.875 149.027 161.875" stroke="#263238" stroke-linecap="round" stroke-linejoin="round"/>
<path d="M137.554 159.047C139.447 159.352 140.481 160.837 142.391 160.922C142.906 160.939 143.415 160.814 143.864 160.562C144.313 160.309 144.684 159.938 144.936 159.489" stroke="#263238" stroke-linecap="round" stroke-linejoin="round"/>
<path d="M127.034 160.326L126.871 167.902C126.871 167.902 122.69 168.94 120.372 168.069C118.054 167.198 113.286 161.06 113.286 161.06C113.286 161.06 114.711 158.283 117.75 159.446C120.789 160.609 124.926 162.618 124.926 162.618L127.034 160.326Z" fill="#92E3A9"/>
<path opacity="0.2" d="M127.034 160.326L126.871 167.902C126.871 167.902 122.69 168.94 120.372 168.069C118.054 167.198 113.286 161.06 113.286 161.06C113.286 161.06 114.711 158.283 117.75 159.446C120.789 160.609 124.926 162.618 124.926 162.618L127.034 160.326Z" fill="black"/>
<path d="M113.29 161.06L113.797 160.081C113.797 160.081 116.69 163.15 117.351 163.79C118.012 164.429 119.926 166.288 121.574 166.863C123.222 167.438 126.656 166.833 126.656 166.833L126.875 167.902C126.875 167.902 121.797 168.708 120.613 168.159C119.428 167.61 114.604 163.227 113.29 161.06Z" fill="white"/>
<path d="M115.801 159.077C115.801 159.077 117.732 160.661 118.376 161.223C119.02 161.785 120.123 162.657 121.192 162.631C121.981 162.546 122.739 162.276 123.402 161.841L120.776 160.665C120.776 160.665 117.114 158.708 115.801 159.077Z" fill="white"/>
<path d="M121.338 161.06C121.338 161.06 118.054 159.158 115.947 159.081C113.84 159.004 113.29 161.06 113.29 161.06C113.29 161.06 118.441 168.056 121.338 168.357C123.197 168.526 125.071 168.368 126.875 167.889L127.034 161.644" stroke="#263238" stroke-linecap="round" stroke-linejoin="round"/>
<path d="M113.848 160.017C113.848 160.017 119.115 166.21 121.282 166.794C123.45 167.378 126.905 166.794 126.905 166.794" stroke="#263238" stroke-linecap="round" stroke-linejoin="round"/>
<path d="M115.282 159.145C116.18 159.35 116.997 159.819 117.625 160.493C118.247 161.164 118.951 161.754 119.72 162.249C120.522 162.678 121.574 162.82 122.325 162.3" stroke="#263238" stroke-linecap="round" stroke-linejoin="round"/>
<path d="M126.325 43.7886C126.325 43.7886 123.321 46.4497 123.042 48.261C122.763 50.0723 123.729 52.1927 123.647 52.9825C123.566 53.7722 122.025 55.356 122.291 55.8368C122.642 56.3292 123.045 56.7825 123.493 57.1888C123.493 57.1888 123.308 61.0775 125.639 62.4725L126.72 62.7257L131.592 60.0731L132.356 60.9316L139.361 59.6439C138.838 58.5705 138.537 57.4026 138.477 56.2102C138.378 54.2229 139.361 50.3943 139.361 50.3943L137.391 46.2995L126.325 43.7886Z" fill="white"/>
<path d="M143.765 94.0845L146.288 104.141C146.288 104.141 144.327 105.154 141.657 106.429C136.871 108.717 129.806 111.854 127.647 111.579C124.287 111.116 116.411 102.931 116.411 102.931L121.209 92.4921C121.209 92.4921 111.161 92.8011 109.225 92.153C109.225 92.153 108.693 88.29 110.062 84.985L122.244 85.5902L122.364 84.5558C122.364 84.5558 124.883 75.6409 126.411 72.1814C127.939 68.7219 129.656 65.6144 129.656 65.6144L132.729 63.3524L131.871 61.0346C131.871 61.0346 135.455 58.4078 139.305 58.4936C140.596 58.5052 141.858 58.8768 142.949 59.5667L142.232 62.0046C142.232 62.0046 148.829 69.7306 149.838 72.3402C150.847 74.9499 146.082 88.6591 143.765 94.0845Z" fill="#92E3A9"/>
<path opacity="0.2" d="M120.248 94.5609L129.085 96.0889C129.085 96.0889 134.747 91.2001 136.734 78.9202C136.734 78.9202 132.511 89.3759 129.133 92.1015L121.209 92.4406L120.248 94.5609Z" fill="black"/>
<path opacity="0.2" d="M143.765 94.0845L146.288 104.141C146.288 104.141 144.28 104.918 141.61 106.193C141.042 103.278 140.305 100.399 139.404 97.5697C139.307 97.1873 139.139 96.8264 138.91 96.5053C138.651 96.0893 138.316 95.7255 137.923 95.4322C136.816 94.8099 135.296 93.5909 134.639 92.5007C136.601 92.8998 138.932 93.8355 140.928 93.7325C141.179 93.7455 141.426 93.6695 141.627 93.5179C141.76 93.3647 141.848 93.1774 141.88 92.9771C142.716 89.7579 143.55 86.5417 144.383 83.3282C144.722 82.2408 144.904 81.1106 144.924 79.9718C144.881 78.5382 144.331 77.1732 143.786 75.8427C142.407 72.4776 141.015 69.1182 139.61 65.7646C139.449 65.264 139.151 64.8182 138.751 64.4769C138.384 64.2523 137.97 64.1171 137.541 64.0821C136.073 63.8589 134.21 63.3996 132.725 63.3438C134.408 61.9446 136.871 61.3565 139.039 61.0732C139.261 60.234 139.342 59.3637 139.279 58.4979C140.57 58.5095 141.832 58.8812 142.923 59.571L142.207 62.0089C142.207 62.0089 148.804 69.7349 149.812 72.3445C150.821 74.9542 146.082 88.6591 143.765 94.0845Z" fill="black"/>
<path d="M126.059 51.2613C126.115 51.6562 126.012 51.9953 125.836 52.0167C125.66 52.0382 125.471 51.742 125.407 51.3471C125.343 50.9523 125.458 50.6132 125.634 50.5917C125.81 50.5703 126.012 50.8664 126.059 51.2613Z" fill="#263238"/>
<path d="M133.957 55.1414L136.365 54.4804C136.365 54.4804 136.97 51.9051 136.7 50.3728C136.429 48.8405 134.373 48.7117 133.755 48.7589C133.137 48.8062 133.249 51.1025 133.249 51.1025" stroke="#263238" stroke-linecap="round" stroke-linejoin="round"/>
<path d="M125.334 44.4968L123.042 48.261C122.863 48.5536 122.801 48.9035 122.87 49.2397L123.647 52.9996C123.685 53.1886 123.683 53.3835 123.64 53.5715C123.597 53.7594 123.515 53.9361 123.398 54.0898C122.969 54.6478 122.334 55.5363 122.291 55.8539C122.248 56.1715 122.677 56.4763 123.042 56.7124C123.199 56.8141 123.333 56.9476 123.435 57.1044C123.537 57.2612 123.605 57.4376 123.634 57.6223C123.84 58.8456 123.93 60.086 124.793 61.4381C125.922 63.2107 127.338 62.6571 127.338 62.6571L131.631 60.0817C131.97 59.8628 132.974 56.2874 132.974 56.2874" stroke="#263238" stroke-linecap="round" stroke-linejoin="round"/>
<path d="M124.411 49.1495C124.411 49.1495 125.78 47.497 127.094 49.2568" stroke="#263238" stroke-linecap="round" stroke-linejoin="round"/>
<path d="M125.154 57.5365C125.154 57.5365 128.66 55.253 129.184 54.1027C129.184 54.1027 129.472 57.4549 128.09 58.0515C126.708 58.6482 125.154 57.5365 125.154 57.5365Z" fill="#263238"/>
<path d="M138.923 58.4936C138.923 58.4936 138.009 55.5277 138.541 53.549" stroke="#263238" stroke-linecap="round" stroke-linejoin="round"/>
<path d="M117.904 104.403C117.904 104.403 117.758 117.43 118.84 133.809C119.922 150.188 121.467 162.086 121.467 162.086C121.467 162.086 125.021 165.022 127.802 162.086L132.592 119.593L143.408 159.15C143.408 159.15 145.554 161.043 147.4 160.116C148.534 159.526 149.459 158.601 150.048 157.467C150.048 157.467 145.151 114.704 145.151 104.673C145.151 104.673 129.652 111.897 127.643 111.588C125.634 111.279 117.904 104.403 117.904 104.403Z" fill="#263238"/>
<path d="M132.592 119.593V116.79L136.476 114.884" stroke="white" stroke-linecap="round" stroke-linejoin="round"/>
<path d="M136.477 93.1187C136.477 93.1187 138.721 94.7283 143.121 95.0502" stroke="#263238" stroke-linecap="round" stroke-linejoin="round"/>
<path d="M136.477 95.0502C138.334 95.5651 140.297 95.5651 142.155 95.0502" stroke="#263238" stroke-linecap="round" stroke-linejoin="round"/>
<path d="M133.21 50.2569C132.914 50.0251 133.528 52.6005 131.845 52.7206C131.671 52.7612 131.489 52.7613 131.314 52.7212C131.139 52.681 130.976 52.6016 130.837 52.4889C130.604 52.1948 130.439 51.8535 130.352 51.4888C130.06 50.5445 129.764 49.6002 129.472 48.6559C129.279 48.0464 129.042 47.3683 128.532 47.0206C128.144 46.8097 127.727 46.6564 127.296 46.5656C126.33 46.2609 125.416 45.484 125.347 44.4753C125.347 44.4753 121.561 44.8101 120.982 43.3465C120.098 41.1145 121.514 40.1359 123.454 40.1531C125.394 40.1703 127.18 41.0888 129.27 40.3806C131.36 39.6724 135.858 37.9126 136.803 40.0716C136.803 40.0716 138.434 39.3505 139.408 42.0588C140.382 44.7672 142.623 50.214 140.584 51.8922C138.545 53.5705 139.022 54.6006 138.056 54.4676C137.09 54.3345 136.803 52.8752 136.803 52.8752C136.803 52.8752 137.318 49.4414 135.137 48.9006C132.957 48.3598 133.21 50.2569 133.21 50.2569Z" fill="#263238"/>
<path d="M135.567 38.0671C135.981 38.2683 136.308 38.6126 136.488 39.0363C136.667 39.4599 136.688 39.9344 136.545 40.372" stroke="#263238" stroke-linecap="round" stroke-linejoin="round"/>
<path opacity="0.6" d="M132.729 63.2494L132.026 60.9874L134.326 59.7555L134.91 62.1849L132.729 63.2494Z" fill="white"/>
<path d="M136.803 40.0716C137.294 39.7514 137.885 39.6185 138.466 39.6973C139.048 39.7761 139.582 40.0613 139.97 40.5008" stroke="#263238" stroke-linecap="round" stroke-linejoin="round"/>
<path d="M132.656 63.1421L131.85 60.996C131.85 60.996 135.283 58.8499 138.76 58.4979C140.267 58.3391 141.486 59.0559 142.936 59.5323L142.219 61.9703" stroke="#263238" stroke-linecap="round" stroke-linejoin="round"/>
<path d="M121.209 92.4706L116.411 102.909C118.69 105.789 126.574 111.142 127.647 111.558C128.721 111.974 146.288 104.141 146.288 104.141L143.769 94.0845C143.769 94.0845 151.207 76.1517 150.048 72.8725C148.89 69.5932 142.443 61.7557 141.125 61.0346C139.807 60.3135 136.472 61.5153 136.472 61.5153C136.472 61.5153 131.772 63.3653 130.111 65.0264C128.45 66.6874 124.531 76.126 123.742 80.2164" stroke="#263238" stroke-linecap="round" stroke-linejoin="round"/>
<path d="M122.244 85.5688L110.062 84.9636C108.273 89.2557 109.23 92.1315 109.23 92.1315C112.814 92.99 129.133 92.1315 129.133 92.1315C132.901 88.3029 137.391 77.4222 137.391 77.4222C137.634 75.0429 137.143 72.6462 135.983 70.5547" stroke="#263238" stroke-linecap="round" stroke-linejoin="round"/>
<path opacity="0.6" d="M132.729 67.2883L131.871 69.9624C131.871 69.9624 122.085 84.0751 122.329 86.8307C122.329 86.8307 122.158 85.4829 123.905 79.77C125.136 76.0097 126.891 72.442 129.12 69.1726L132.729 67.2883Z" fill="white"/>
<path d="M123.184 89.0197C122.435 87.8078 122.119 86.3781 122.286 84.9636C122.587 82.6286 125.965 73.9541 129.133 69.1726L133.24 67.0265" stroke="#263238" stroke-linecap="round" stroke-linejoin="round"/>
<path d="M132.154 60.8071L131.609 60.0732" stroke="#263238" stroke-linecap="round" stroke-linejoin="round"/>
</svg>
