<svg width="162" height="163" viewBox="0 0 162 163" fill="none" xmlns="http://www.w3.org/2000/svg">
<path d="M80.842 155.472C115.441 155.472 143.489 152.341 143.489 148.479C143.489 144.616 115.441 141.485 80.842 141.485C46.243 141.485 18.195 144.616 18.195 148.479C18.195 152.341 46.243 155.472 80.842 155.472Z" fill="#EBEBEB"/>
<path d="M119.822 163C140.026 163 156.404 160.638 156.404 157.724C156.404 154.81 140.026 152.448 119.822 152.448C99.6183 152.448 83.2399 154.81 83.2399 157.724C83.2399 160.638 99.6183 163 119.822 163Z" fill="#EBEBEB"/>
<path d="M0.534058 141.274L20.6312 141.181L40.7284 141.147L80.9227 141.081L121.117 141.147L141.214 141.177L161.307 141.274L141.214 141.366L121.117 141.4L80.9227 141.466L40.7284 141.4L20.6312 141.366L0.534058 141.274Z" fill="#263238"/>
<path d="M14.8288 84.6941C14.8288 84.6941 6.88602 83.5836 8.74203 73.9961C8.7574 73.9961 17.6301 75.9904 14.8288 84.6941Z" fill="#FFC727"/>
<path opacity="0.1" d="M14.8288 84.6941C14.8288 84.6941 6.88602 83.5836 8.74203 73.9961C8.7574 73.9961 17.6301 75.9904 14.8288 84.6941Z" fill="black"/>
<path d="M14.4446 82.6959C14.2891 82.2103 14.1083 81.7331 13.9028 81.2664C13.9028 81.205 13.9028 81.1435 13.9028 81.0858L13.8682 80.7016C13.8682 80.4134 13.8297 80.129 13.8144 79.8408C13.7798 79.2683 13.7414 78.688 13.7337 78.1231C13.7317 78.1182 13.7282 78.1139 13.7238 78.1109C13.7193 78.1078 13.7141 78.1062 13.7087 78.1062C13.7033 78.1062 13.6981 78.1078 13.6936 78.1109C13.6892 78.1139 13.6857 78.1182 13.6837 78.1231C13.6837 78.6957 13.6837 79.2759 13.6837 79.8447C13.6837 80.129 13.7106 80.4172 13.7298 80.7016V80.8937C13.2861 79.934 12.7535 79.018 12.139 78.1577C11.8661 77.7735 11.5779 77.4122 11.2705 77.0587C10.9631 76.7052 10.6211 76.3517 10.2983 75.9905C10.2983 75.9674 10.2445 75.9905 10.2637 76.0289C10.8362 76.6589 11.3506 77.3392 11.8008 78.0617C12.0429 78.4459 12.2696 78.8033 12.4848 79.1837L12.408 79.1376L12.1236 79.0262L11.478 78.7802L10.2176 78.3191C10.1946 78.3191 10.1754 78.3537 10.2176 78.3652C10.6403 78.5343 11.0553 78.7111 11.4742 78.8917L12.089 79.1568L12.4003 79.2836C12.4666 79.3153 12.5362 79.3398 12.6078 79.3566C12.7692 79.6448 12.9267 79.933 13.0727 80.2289C13.4425 80.9708 13.7671 81.7343 14.0449 82.5153L14.1026 82.6805C13.8939 82.5601 13.6769 82.4548 13.4532 82.3654L12.6308 81.9812C12.0736 81.7237 11.5203 81.4663 10.9862 81.1627C10.9593 81.1627 10.9362 81.1896 10.9631 81.205C11.5088 81.5047 12.0429 81.8198 12.5886 82.1195C12.8614 82.2655 13.1381 82.4116 13.4186 82.5461C13.6502 82.6837 13.9016 82.7848 14.1641 82.8458C14.4285 83.5723 14.6027 84.3286 14.6828 85.0976C14.7712 86.1812 14.7635 87.2764 14.7866 88.36C14.7866 88.3792 14.8135 88.3792 14.8173 88.36C14.8942 87.3763 14.9403 86.381 14.9441 85.3896C14.9215 84.4709 14.7529 83.5617 14.4446 82.6959Z" fill="#263238"/>
<path d="M13.2187 77.0549C13.1421 77.615 13.1151 78.1808 13.138 78.7456C13.138 78.7649 13.1611 78.7456 13.1649 78.7456C13.1957 78.1846 13.1995 77.6274 13.2648 77.0702C13.2687 77.0395 13.2226 77.0241 13.2187 77.0549Z" fill="#263238"/>
<path d="M10.9478 77.5352C10.5923 77.4006 10.2502 77.2334 9.92561 77.0356C9.89871 77.0164 9.87566 77.0625 9.90255 77.0779C10.2208 77.2922 10.5692 77.458 10.9362 77.5698C10.9362 77.5698 10.9862 77.5429 10.9478 77.5352Z" fill="#263238"/>
<path d="M15.0979 99.9149C15.0979 99.0388 15.0748 98.1626 15.0633 97.2827C15.0479 94.3699 15.0172 91.4559 14.971 88.5406C14.9301 86.235 14.8763 83.9217 14.8097 81.6007C14.8097 81.6007 14.8097 81.5777 14.7866 81.57C14.7866 80.9398 14.7866 80.3057 14.7866 79.6756C14.7866 79.6756 14.7674 79.6525 14.7482 79.6525C14.729 79.6525 14.7097 79.6525 14.7097 79.6756V81.5738C14.7097 81.5738 14.7097 81.5738 14.7097 81.6007C14.5945 85.7201 14.4907 89.8394 14.4638 93.9549C14.4638 94.7926 14.4638 95.6303 14.4638 96.468C14.4356 99.1528 14.4254 101.843 14.4331 104.538C14.4331 104.964 14.4331 105.391 14.4331 105.817C14.4331 108.277 14.4561 110.732 14.46 113.187C14.46 113.322 14.606 113.387 14.7635 113.391C14.9211 113.395 15.1478 113.33 15.1478 113.176C15.1478 110.467 15.1478 107.758 15.1478 105.049C15.1017 103.346 15.1094 101.625 15.0979 99.9149Z" fill="#263238"/>
<path d="M11.7778 97.2481C11.7778 97.2481 7.9582 94.4199 4.33456 96.3335C0.710927 98.2472 0.142212 105.617 0.142212 105.617C0.142212 105.617 5.46431 106.386 8.81512 103.185C12.0468 100.111 11.7778 97.2481 11.7778 97.2481Z" fill="#FFC727"/>
<path d="M12.8191 97.4249C12.1179 97.1468 11.3586 97.0478 10.6096 97.1367C10.4546 97.1099 10.2979 97.0945 10.1408 97.0906L9.60279 97.0483L8.48842 96.9714C7.71988 96.9138 6.97825 96.8677 6.22509 96.7908C6.19819 96.7908 6.19434 96.8369 6.22509 96.8408C6.97056 96.9369 7.70835 97.0406 8.45768 97.1175C8.84194 97.1559 9.22621 97.1943 9.61048 97.2212L9.88715 97.2481L9.549 97.3327C8.95065 97.509 8.37138 97.7445 7.81979 98.0359C7.51622 98.0897 7.22034 98.1742 6.92445 98.2434C6.4518 98.3548 5.97915 98.4778 5.51035 98.6007C4.58427 98.8428 3.66587 99.1195 2.74363 99.3693C2.73751 99.3693 2.73165 99.3717 2.72732 99.376C2.723 99.3803 2.72057 99.3862 2.72057 99.3923C2.72057 99.3984 2.723 99.4043 2.72732 99.4086C2.73165 99.413 2.73751 99.4154 2.74363 99.4154C3.66202 99.1925 4.58811 98.985 5.51035 98.766C5.9561 98.6584 6.40569 98.5546 6.85144 98.4432L7.20497 98.3625C6.17803 98.9972 5.26058 99.794 4.4882 100.722C3.74459 101.646 3.11499 102.656 2.61298 103.731C2.61298 103.758 2.63987 103.784 2.65525 103.754C3.28339 102.661 4.05065 101.655 4.93779 100.76L4.88784 100.91C4.81867 101.137 4.74566 101.36 4.67649 101.586C4.53431 102.036 4.39213 102.486 4.25764 102.935C4.25764 102.966 4.29222 102.978 4.30375 102.935C4.46514 102.501 4.61885 102.063 4.77256 101.625L4.99927 100.979L5.11455 100.645L5.14914 100.541C5.57607 100.128 6.02917 99.7432 6.5056 99.3885C7.13564 98.9301 7.81487 98.5434 8.53069 98.2357C8.53069 98.301 8.50763 98.3663 8.49226 98.4316C8.45768 98.6046 8.41541 98.7775 8.38082 98.9543C8.30781 99.3155 8.2348 99.6767 8.16563 100.042C8.02345 100.78 7.93123 101.529 7.78137 102.267C7.78137 102.297 7.82364 102.309 7.83132 102.267C8.0004 101.525 8.21559 100.791 8.38851 100.049C8.4692 99.6652 8.55374 99.3039 8.6306 98.9274C8.66902 98.7544 8.70361 98.5777 8.73819 98.4048C8.73819 98.3087 8.78046 98.2088 8.79199 98.1127C8.86116 98.0858 8.93033 98.0512 8.99949 98.0282C10.0025 97.593 11.105 97.4389 12.1889 97.5824C12.6956 97.6756 13.1714 97.8928 13.5737 98.2147C13.976 98.5365 14.2924 98.953 14.4945 99.4269C14.5291 99.5076 14.6597 99.4576 14.6405 99.3731C14.5115 98.928 14.2793 98.5197 13.9628 98.1812C13.6463 97.8427 13.2545 97.5836 12.8191 97.4249Z" fill="#263238"/>
<path d="M3.27777 101.809C2.79359 102.055 2.32094 102.336 1.81371 102.539C1.77913 102.539 1.81371 102.597 1.81371 102.582C2.3235 102.352 2.81999 102.094 3.30082 101.809C3.30082 101.809 3.30082 101.809 3.27777 101.809Z" fill="#263238"/>
<path d="M12.6385 92.0528C12.6385 92.0528 7.96968 92.3487 5.79857 89.2707C3.62746 86.1927 4.11548 81.7967 4.11548 81.7967C4.11548 81.7967 9.01873 82.3923 10.967 84.6019C12.9152 86.8114 12.6385 92.0528 12.6385 92.0528Z" fill="#FFC727"/>
<path d="M14.8288 96.6602C14.6674 96.1568 14.4676 95.6649 14.2793 95.1769C14.091 94.6889 13.895 94.2393 13.6991 93.7782C13.2814 92.8372 12.8145 91.9188 12.3003 91.0268C11.9699 90.4581 11.6163 89.9086 11.2513 89.3668C11.2513 89.2822 11.2282 89.2015 11.2167 89.117C11.1937 88.971 11.1744 88.8288 11.1514 88.6828C11.1053 88.3869 11.0515 88.091 11.0054 87.799C10.8978 87.1534 10.7633 86.5117 10.6595 85.8776C10.6595 85.8715 10.6571 85.8657 10.6528 85.8613C10.6484 85.857 10.6426 85.8546 10.6365 85.8546C10.6304 85.8546 10.6245 85.857 10.6202 85.8613C10.6158 85.8657 10.6134 85.8715 10.6134 85.8776C10.7056 86.5117 10.771 87.1534 10.8593 87.799C10.9016 88.1141 10.9439 88.4253 10.9938 88.7404C10.9938 88.8519 11.0284 88.9633 11.0438 89.0786C10.3337 88.0359 9.56385 87.0351 8.73819 86.0813L8.40003 85.697C8.40003 85.6625 8.36929 85.6279 8.35392 85.5894L8.25401 85.3243C8.18484 85.136 8.11952 84.94 8.05035 84.7671C7.9197 84.4021 7.80442 84.0332 7.70451 83.6566C7.70451 83.6258 7.65071 83.6566 7.6584 83.6566C7.75062 84.0408 7.85053 84.4251 7.96197 84.8094C8.01961 84.9938 8.07725 85.1744 8.14257 85.3512L8.17716 85.4434C7.5777 84.794 6.95519 84.1638 6.32884 83.5451C6.30578 83.5221 6.27119 83.5451 6.29425 83.5797C7.50098 84.8428 8.60719 86.1983 9.60279 87.6337C9.48947 87.5971 9.37396 87.5676 9.25695 87.5454C8.89574 87.4762 8.53453 87.4262 8.17332 87.3801C7.40478 87.2802 6.63625 87.1841 5.89461 87.065C5.86387 87.065 5.85234 87.1073 5.89461 87.115C6.61703 87.2572 7.33561 87.4186 8.05419 87.5838C8.39235 87.6606 8.73435 87.7298 9.0725 87.7951C9.35132 87.8557 9.626 87.934 9.89483 88.0295L10.1215 88.3523C10.4623 88.8519 10.7927 89.3642 11.113 89.8894L10.6365 89.7933C10.2791 89.7242 9.91404 89.6588 9.55283 89.6012C8.84194 89.4821 8.1272 89.3591 7.424 89.1977C7.39325 89.1977 7.38173 89.24 7.424 89.2438C8.13873 89.4129 8.84578 89.6089 9.55283 89.7972C9.89483 89.8894 10.2407 89.9739 10.5865 90.0469L11.1053 90.1584C11.1744 90.1776 11.2451 90.1905 11.3166 90.1968C11.9968 91.3035 12.6385 92.4332 13.238 93.5899C13.4993 94.0971 13.749 94.612 14.0065 95.1269C14.2639 95.6419 14.4714 96.199 14.702 96.737C14.6982 96.8139 14.8672 96.7755 14.8288 96.6602Z" fill="#263238"/>
<path d="M10.0524 85.9276C9.9602 85.4818 9.86797 85.0399 9.76806 84.598C9.76806 84.5673 9.71811 84.598 9.72195 84.598C9.81161 85.0361 9.89615 85.4741 9.97557 85.9122C10.0406 86.3534 10.1291 86.7908 10.2407 87.2226C10.2061 86.7873 10.1432 86.3547 10.0524 85.9276Z" fill="#263238"/>
<path d="M7.32799 85.8008C7.1128 85.6932 6.88224 85.6048 6.65552 85.5164L6.302 85.3781L6.12139 85.3051C6.05291 85.2849 5.98711 85.2565 5.92542 85.2205C5.89083 85.1936 5.86778 85.2551 5.90236 85.259C5.97263 85.2775 6.03991 85.306 6.10218 85.3435L6.27894 85.4204L6.62094 85.5741C6.84462 85.6785 7.07431 85.7696 7.30878 85.8469C7.33568 85.8546 7.35489 85.8123 7.32799 85.8008Z" fill="#263238"/>
<path d="M17.4188 88.3831C17.4188 88.3831 20.2432 83.1032 24.5431 82.2847C28.8431 81.4663 31.4599 85.893 31.4599 85.893C31.4599 85.893 28.3243 89.8971 24.3779 90.5926C20.4315 91.2881 17.4188 88.3831 17.4188 88.3831Z" fill="#FFC727"/>
<path d="M27.4213 84.6518C26.302 84.5013 25.1668 84.5142 24.0513 84.6903L24.2434 84.5903L25.1964 84.0985C25.8518 83.7355 26.5251 83.4059 27.2138 83.1109C27.2484 83.1109 27.2138 83.0533 27.2138 83.0686C26.5413 83.3799 25.8458 83.645 25.1695 83.9525C24.8314 84.11 24.5009 84.2714 24.1743 84.4443C23.9591 84.5558 23.7247 84.6634 23.5172 84.7978C22.5731 84.9883 21.6556 85.2928 20.785 85.7047L21.323 85.1206C21.7073 84.6826 22.1184 84.2214 22.5565 83.8218C22.5795 83.7988 22.5565 83.768 22.5219 83.7872C22.0723 84.1984 21.5958 84.5558 21.1616 84.9977C20.9503 85.2052 20.7466 85.4204 20.5506 85.6394C20.4507 85.747 20.3546 85.8623 20.2586 85.9775C18.7833 86.769 17.5014 87.8772 16.5048 89.2225C15.5083 90.5678 14.8218 92.117 14.4946 93.7589C14.4946 93.7897 14.533 93.8051 14.5407 93.7589C15.1481 91.7481 16.2331 89.9142 17.7032 88.4138C19.2853 86.7991 21.2783 85.6471 23.4672 85.0822C24.7653 84.7512 26.1079 84.6293 27.4444 84.721C27.4713 84.7402 27.4751 84.6595 27.4213 84.6518Z" fill="#263238"/>
<path opacity="0.1" d="M31.4714 85.893C31.4714 85.893 28.3358 89.8971 24.3894 90.5965C21.3805 91.1267 18.9059 89.5589 17.8991 88.7865L17.6839 88.4292C17.6839 88.4292 19.7167 86.7154 23.567 85.7393C27.4174 84.7633 31.4714 85.893 31.4714 85.893Z" fill="black"/>
<path d="M24.9235 82.7689C24.6008 82.9687 24.2741 83.1532 23.9706 83.3991C23.6712 83.6296 23.3933 83.8868 23.1405 84.1676C23.1175 84.1907 23.1405 84.2214 23.179 84.2022C23.4633 83.9525 23.7515 83.7065 24.0474 83.4721C24.3351 83.2365 24.6366 83.0183 24.9504 82.8189C24.9773 82.7958 24.9504 82.7535 24.9235 82.7689Z" fill="#263238"/>
<path d="M27.2829 83.6642L26.8026 83.8525L26.3261 84.0524C26.2915 84.0524 26.3261 84.1215 26.3261 84.1062L26.8064 83.914L27.2829 83.7104C27.3252 83.6988 27.3137 83.6527 27.2829 83.6642Z" fill="#263238"/>
<path d="M16.8539 95.0232C16.8539 95.0232 17.6225 100.257 21.5458 102.09C25.4692 103.923 30.2802 102.09 30.2802 102.09C30.2802 102.09 28.3935 90.7617 16.8539 95.0232Z" fill="#FFC727"/>
<path d="M27.5672 98.6853C27.206 98.643 26.8448 98.5815 26.4836 98.5162L25.9572 98.4163L25.6805 98.3586L25.3616 98.0666C24.615 97.4095 23.8084 96.8241 22.9522 96.3182C22.4864 96.0436 22.0053 95.796 21.5112 95.5765H21.5842L22.8792 95.6342C23.7438 95.6726 24.6084 95.6918 25.473 95.7495C25.5037 95.7495 25.4999 95.7034 25.473 95.6995C24.6084 95.6419 23.7438 95.5458 22.8792 95.4728L21.6226 95.3614L20.9771 95.3075L20.8118 95.2883C20.5851 95.2076 20.3584 95.127 20.1317 95.0539C19.0537 94.692 17.8964 94.6361 16.7886 94.8925C15.7971 95.1462 14.8096 95.7956 14.5521 96.8369C14.5521 96.8754 14.6021 96.8984 14.6174 96.8638C15.0017 95.9916 15.9547 95.5496 16.827 95.369C17.415 95.2557 18.018 95.244 18.61 95.3345C18.6502 95.6043 18.7171 95.8694 18.8098 96.126C18.9174 96.5103 19.025 96.8638 19.1364 97.2289C19.3593 97.9667 19.6052 98.6929 19.8243 99.4307C19.8243 99.4615 19.8781 99.4307 19.8704 99.4307C19.6859 98.6968 19.5322 97.9552 19.3555 97.2212C19.2709 96.86 19.1787 96.4988 19.0903 96.1376C19.0385 95.8854 18.9717 95.6364 18.8905 95.3921C19.2356 95.4532 19.5768 95.5341 19.9126 95.6342C20.52 95.8147 21.1154 96.0329 21.6956 96.2874C21.7533 96.6717 21.8378 97.0291 21.9224 97.398C22.03 97.8591 22.1491 98.3202 22.3066 98.7698C22.3066 98.7759 22.3091 98.7818 22.3134 98.7861C22.3177 98.7904 22.3236 98.7929 22.3297 98.7929C22.3358 98.7929 22.3417 98.7904 22.346 98.7861C22.3503 98.7818 22.3527 98.7759 22.3527 98.7698C22.3527 98.7391 22.3527 98.7122 22.3527 98.6814C22.2644 98.2549 22.1721 97.8283 22.0799 97.398C22.0069 97.056 21.9416 96.7063 21.8647 96.3643C22.3527 96.5833 22.8369 96.8254 23.3019 97.0906C23.3019 97.1981 23.3365 97.3057 23.3518 97.4018C23.3787 97.5824 23.4133 97.763 23.4441 97.9398C23.5209 98.3433 23.6016 98.7467 23.6977 99.1464C23.8746 99.9183 24.1004 100.678 24.374 101.421C24.3702 101.425 24.3681 101.431 24.3681 101.437C24.3681 101.442 24.3702 101.448 24.374 101.452L24.397 101.479C24.397 101.498 24.4432 101.479 24.4355 101.456C24.2549 100.687 24.0512 99.9188 23.8744 99.1502C23.7899 98.766 23.7054 98.3817 23.6285 97.9974C23.5862 97.8014 23.5517 97.6132 23.5132 97.4133C23.5132 97.3557 23.5132 97.2981 23.4863 97.2366C24.0184 97.5467 24.5316 97.888 25.0234 98.2587C25.873 98.8965 26.6592 99.6146 27.3713 100.403C27.3982 100.434 27.4558 100.403 27.4289 100.353C27.1292 99.9687 26.8295 99.5844 26.4913 99.2002C26.2915 98.9888 26.0878 98.7852 25.8765 98.5853H25.9418C26.1262 98.6161 26.3261 98.643 26.499 98.6661C26.8602 98.716 27.2252 98.7506 27.5903 98.7929C27.5865 98.7352 27.598 98.6891 27.5672 98.6853Z" fill="#263238"/>
<path d="M24.8197 100.461C24.8197 100.414 24.8197 100.368 24.8197 100.322C24.8197 100.276 24.7775 100.211 24.7698 100.153C24.6891 99.8035 24.6199 99.4538 24.5546 99.0964C24.5546 99.0734 24.5123 99.0964 24.5123 99.0964C24.5383 99.5655 24.6395 100.027 24.8121 100.464H24.8428L24.8197 100.461Z" fill="#263238"/>
<path d="M21.5074 100.376C21.5074 100.37 21.505 100.364 21.5006 100.36C21.4963 100.355 21.4904 100.353 21.4843 100.353C21.3729 99.8919 21.2653 99.4269 21.1731 98.9581C21.1193 98.7122 21.0693 98.4701 21.0232 98.2242C20.9963 98.0897 20.9733 97.959 20.9502 97.8399C20.9403 97.7234 20.9118 97.6092 20.8657 97.5017C20.8633 97.4978 20.8599 97.4945 20.8559 97.4922C20.8518 97.4899 20.8472 97.4887 20.8426 97.4887C20.838 97.4887 20.8334 97.4899 20.8294 97.4922C20.8253 97.4945 20.8219 97.4978 20.8195 97.5017C20.8163 97.7399 20.85 97.9771 20.9195 98.2049C20.9656 98.4624 21.0155 98.716 21.0732 98.9735C21.1884 99.4922 21.3153 100.003 21.4574 100.511C21.4574 100.537 21.5151 100.534 21.5112 100.511L21.5074 100.376Z" fill="#263238"/>
<path d="M27.2099 97.1751C26.4914 97.079 25.7728 96.9753 25.0504 96.8869C25.0235 96.8869 25.0081 96.9291 25.0504 96.933C25.7689 97.0406 26.4914 97.129 27.2099 97.225C27.2292 97.2289 27.2407 97.1981 27.2099 97.1751Z" fill="#263238"/>
<path d="M14.8289 82.7459C14.8289 82.7459 12.4195 72.1747 23.7746 67.8978C23.7823 67.8978 26.9294 81.8275 14.8289 82.7459Z" fill="#FFC727"/>
<path d="M16.3313 74.3343C16.3313 74.3035 16.2814 74.3035 16.2814 74.3343C16.3236 74.9376 16.3429 75.5409 16.4082 76.1442C16.4082 76.1513 16.411 76.1581 16.4161 76.1632C16.4211 76.1682 16.4279 76.1711 16.4351 76.1711C16.4422 76.1711 16.4491 76.1682 16.4541 76.1632C16.4591 76.1581 16.462 76.1513 16.462 76.1442C16.4389 75.537 16.3659 74.9376 16.3313 74.3343Z" fill="#263238"/>
<path d="M21.7764 76.3517C21.0617 76.6399 20.3469 76.9088 19.6399 77.2086C19.6399 77.2086 19.6399 77.247 19.6399 77.2393C20.3585 76.9703 21.0655 76.6783 21.7803 76.3978C21.8187 76.3862 21.8033 76.3401 21.7764 76.3517Z" fill="#263238"/>
<path d="M22.8523 71.4792C22.1581 71.7984 21.4844 72.1603 20.8349 72.5628C20.8003 72.582 20.8349 72.632 20.8657 72.6127C21.5266 72.2285 22.1952 71.8442 22.8792 71.5214C22.8984 71.506 22.8984 71.4523 22.8523 71.4792Z" fill="#263238"/>
<path d="M22.6832 105.598H6.30579V122.859H22.6832V105.598Z" fill="#37474F"/>
<path d="M6.01763 111.708H5.17993V141.274H6.01763V111.708Z" fill="#263238"/>
<path d="M23.7208 111.708H22.8831V141.274H23.7208V111.708Z" fill="#263238"/>
<path d="M15.313 111.708H14.4753V141.274H15.313V111.708Z" fill="#263238"/>
<path d="M23.3019 121.753H5.59875V124.143H23.3019V121.753Z" fill="#263238"/>
<path d="M16.8001 129.127C16.8033 133.486 18.4527 137.683 21.4182 140.878C24.3837 144.073 28.4465 146.03 32.7933 146.357V146.404H130.658C135.875 146.395 140.888 144.379 144.659 140.774C148.43 137.17 150.67 132.252 150.914 127.041C151.158 121.831 149.388 116.725 145.97 112.784C142.553 108.843 137.75 106.367 132.557 105.871C132.321 97.9224 129.323 90.3044 124.078 84.3273C118.833 78.3501 111.669 74.3875 103.819 73.1211C95.9679 71.8547 87.9214 73.3636 81.063 77.3882C74.2045 81.4129 68.963 87.7017 66.2399 95.173C63.4244 93.7524 60.3133 93.0164 57.1597 93.025C51.9903 93.0239 47.0151 94.9941 43.248 98.5341C39.4809 102.074 37.2056 106.917 36.8857 112.077C35.9575 111.922 35.0179 111.845 34.0767 111.846C29.4953 111.85 25.1027 113.673 21.8635 116.912C18.6242 120.152 16.8032 124.545 16.8001 129.127Z" fill="#FFC727"/>
<g opacity="0.1">
<path opacity="0.1" d="M16.8001 129.127C16.8033 133.486 18.4527 137.683 21.4182 140.878C24.3837 144.073 28.4465 146.03 32.7933 146.357V146.404H130.658C135.875 146.395 140.888 144.379 144.659 140.774C148.43 137.17 150.67 132.252 150.914 127.041C151.158 121.831 149.388 116.725 145.97 112.784C142.553 108.843 137.75 106.367 132.557 105.871C132.321 97.9224 129.323 90.3044 124.078 84.3273C118.833 78.3501 111.669 74.3875 103.819 73.1211C95.9679 71.8547 87.9214 73.3636 81.063 77.3882C74.2045 81.4129 68.963 87.7017 66.2399 95.173C63.4244 93.7524 60.3133 93.0164 57.1597 93.025C51.9903 93.0239 47.0151 94.9941 43.248 98.5341C39.4809 102.074 37.2056 106.917 36.8857 112.077C35.9575 111.922 35.0179 111.845 34.0767 111.846C29.4953 111.85 25.1027 113.673 21.8635 116.912C18.6242 120.152 16.8032 124.545 16.8001 129.127Z" fill="black"/>
</g>
<path d="M10.8786 129.127C10.8818 133.486 12.5312 137.683 15.4967 140.878C18.4622 144.073 22.525 146.03 26.8718 146.357V146.404H124.729C129.948 146.4 134.965 144.389 138.74 140.786C142.516 137.183 144.76 132.266 145.007 127.053C145.254 121.84 143.485 116.732 140.068 112.789C136.65 108.845 131.845 106.368 126.651 105.871C126.415 97.9224 123.417 90.3044 118.172 84.3273C112.927 78.3501 105.763 74.3875 97.9124 73.1211C90.0618 71.8547 82.0152 73.3636 75.1568 77.3882C68.2984 81.4129 63.0569 87.7017 60.3338 95.173C57.5185 93.7516 54.4072 93.0156 51.2535 93.025C46.0816 93.0191 41.1025 94.9874 37.3326 98.5281C33.5626 102.069 31.2862 106.915 30.9681 112.077C30.0398 111.922 29.1002 111.845 28.1591 111.846C23.577 111.849 19.1834 113.671 15.9433 116.911C12.7033 120.151 10.8817 124.545 10.8786 129.127Z" fill="#FFC727"/>
<path d="M67.3351 109.664L64.1725 107.227C66.162 104.653 68.8412 102.696 71.8987 101.583C74.9563 100.47 78.2668 100.248 81.4457 100.941C84.6247 101.635 87.5415 103.217 89.8575 105.502C92.1735 107.787 93.7936 110.683 94.5296 113.852L90.6409 114.755C90.0788 112.318 88.8357 110.09 87.0564 108.331C85.2772 106.573 83.035 105.356 80.5909 104.822C78.1468 104.289 75.6014 104.461 73.2512 105.318C70.901 106.175 68.8426 107.682 67.3158 109.664H67.3351Z" fill="white"/>
<path d="M86.6829 112.684L92.2778 122.321L97.8305 112.657L86.6829 112.684Z" fill="white"/>
<g opacity="0.2">
<path opacity="0.2" d="M67.3351 109.664L64.1725 107.227C66.162 104.653 68.8412 102.696 71.8987 101.583C74.9563 100.47 78.2668 100.248 81.4457 100.941C84.6247 101.635 87.5415 103.217 89.8575 105.502C92.1735 107.787 93.7936 110.683 94.5296 113.852L90.6409 114.755C90.0788 112.318 88.8357 110.09 87.0564 108.331C85.2772 106.573 83.035 105.356 80.5909 104.822C78.1468 104.289 75.6014 104.461 73.2512 105.318C70.901 106.175 68.8426 107.682 67.3158 109.664H67.3351Z" fill="white"/>
<path opacity="0.2" d="M86.6829 112.684L92.2778 122.322L97.8305 112.657L86.6829 112.684Z" fill="white"/>
</g>
<path d="M72.9261 133.173C70.082 132.26 67.5231 130.625 65.4988 128.428C63.4745 126.231 62.0537 123.548 61.3751 120.638L65.2638 119.739C65.8409 122.248 67.1386 124.534 68.9974 126.315C70.8563 128.096 73.1951 129.295 75.7264 129.765C78.2577 130.234 80.871 129.954 83.2449 128.958C85.6189 127.962 87.6499 126.293 89.0884 124.158L92.4008 126.387C90.314 129.46 87.2933 131.779 83.7858 133.001C80.2784 134.223 76.4706 134.284 72.9261 133.173Z" fill="white"/>
<path d="M69.2411 121.826L63.6462 112.185L58.0974 121.849L69.2411 121.826Z" fill="white"/>
<path d="M58.4354 47.9275L38.9339 57.7263L26.3568 32.6951L40.836 25.4171L45.8584 22.8963L48.2523 27.6651L58.4354 47.9275Z" fill="white"/>
<path d="M58.4354 47.9275L38.9608 57.7801L38.9108 57.807L38.884 57.7532L26.2723 32.7374L26.2262 32.6528L26.3146 32.6106L45.8277 22.8348L45.8853 22.8041L45.916 22.8656L58.4354 47.9275ZM58.4354 47.9275L45.7969 22.927L45.8853 22.9578L26.3991 32.7796L26.4414 32.6528L38.9877 57.6994L38.907 57.6725L58.4354 47.9275Z" fill="#263238"/>
<path d="M30.692 36.5822L46.5789 28.5988L46.2563 27.9567L30.3693 35.9401L30.692 36.5822Z" fill="#DBDBDB"/>
<path d="M31.5052 38.2047L47.3922 30.2213L47.0695 29.5792L31.1825 37.5626L31.5052 38.2047Z" fill="#DBDBDB"/>
<path d="M32.324 39.8267L48.211 31.8434L47.8883 31.2013L32.0014 39.1847L32.324 39.8267Z" fill="#DBDBDB"/>
<path d="M33.139 41.4488L49.026 33.4655L48.7034 32.8234L32.8164 40.8067L33.139 41.4488Z" fill="#DBDBDB"/>
<path d="M33.9506 43.0726L49.8376 35.0893L49.5149 34.4472L33.628 42.4306L33.9506 43.0726Z" fill="#DBDBDB"/>
<path d="M34.7678 44.6912L50.6547 36.7079L50.3321 36.0658L34.4451 44.0492L34.7678 44.6912Z" fill="#DBDBDB"/>
<path d="M35.5828 46.3133L51.4697 38.3299L51.1471 37.6879L35.2601 45.6712L35.5828 46.3133Z" fill="#DBDBDB"/>
<path d="M36.3977 47.9392L52.2847 39.9559L51.962 39.3138L36.0751 47.2972L36.3977 47.9392Z" fill="#DBDBDB"/>
<path d="M37.2166 49.5613L53.1035 41.5779L52.7809 40.9359L36.8939 48.9192L37.2166 49.5613Z" fill="#DBDBDB"/>
<path d="M38.0316 51.1833L53.9185 43.2L53.5959 42.5579L37.7089 50.5413L38.0316 51.1833Z" fill="#DBDBDB"/>
<path d="M38.8414 52.8037L54.7284 44.8203L54.4057 44.1783L38.5188 52.1616L38.8414 52.8037Z" fill="#DBDBDB"/>
<path d="M39.6564 54.4258L55.5433 46.4424L55.2207 45.8004L39.3337 53.7837L39.6564 54.4258Z" fill="#DBDBDB"/>
<path d="M69.2116 55.1186L69.1946 30.8483L44.9244 30.8652L44.9413 55.1355L69.2116 55.1186Z" fill="#455A64"/>
<path d="M54.708 49.9986C54.7034 50.451 54.5644 50.8918 54.3087 51.265C54.0531 51.6383 53.6923 51.9271 53.2721 52.0949C52.852 52.2627 52.3915 52.3018 51.949 52.2073C51.5066 52.1129 51.1022 51.8891 50.7872 51.5644C50.4722 51.2396 50.2608 50.8286 50.1799 50.3835C50.099 49.9384 50.1521 49.4793 50.3326 49.0645C50.5131 48.6496 50.8128 48.2978 51.1936 48.0536C51.5745 47.8094 52.0193 47.6839 52.4716 47.693C53.0726 47.7061 53.6443 47.9554 54.0629 48.387C54.4815 48.8185 54.7132 49.3975 54.708 49.9986Z" fill="white"/>
<path d="M54.9326 38.5108L53.1922 38.4762L52.9641 49.9404L54.7045 49.9751L54.9326 38.5108Z" fill="white"/>
<path d="M62.1552 46.8284C62.1505 47.2808 62.0115 47.7216 61.7559 48.0948C61.5002 48.4681 61.1394 48.7569 60.7193 48.9247C60.2991 49.0925 59.8386 49.1316 59.3962 49.0371C58.9537 48.9427 58.5494 48.7189 58.2344 48.3942C57.9194 48.0694 57.708 47.6584 57.627 47.2133C57.5461 46.7682 57.5992 46.3091 57.7797 45.8943C57.9602 45.4794 58.2599 45.1276 58.6408 44.8834C59.0216 44.6392 59.4664 44.5137 59.9187 44.5228C60.5198 44.5359 61.0915 44.7852 61.51 45.2168C61.9286 45.6483 62.1604 46.2273 62.1552 46.8284Z" fill="white"/>
<path d="M62.385 35.33L60.6447 35.2957L60.4185 46.76L62.1589 46.7943L62.385 35.33Z" fill="white"/>
<path d="M62.3819 35.3581L53.1633 40.0038L53.1941 38.4745L62.4165 33.8287L62.3819 35.3581Z" fill="white"/>
<path d="M62.3281 38.2478L53.1057 42.8974L53.1365 41.3603L62.3589 36.7145L62.3281 38.2478Z" fill="white"/>
<path d="M88.7311 14.4117L88.3506 14.3809L88.3775 13.9967L88.7618 14.0274L88.7311 14.4117Z" fill="#263238"/>
<path d="M66.0939 21.9279L65.8287 21.6513C66.0017 21.486 66.1899 21.3131 66.3936 21.1287L66.6472 21.4169C66.4512 21.5936 66.2668 21.7665 66.0939 21.9279ZM67.2198 20.9211L66.97 20.6253C67.1583 20.4677 67.3543 20.3063 67.5656 20.1411L67.8039 20.4408C67.6002 20.6022 67.4042 20.7636 67.2198 20.9211ZM68.4033 19.9797L68.1728 19.6723C68.3687 19.5224 68.5762 19.3726 68.7914 19.2188L69.0143 19.5339C68.803 19.6838 68.5993 19.8298 68.4033 19.9797ZM69.6368 19.1036L69.4216 18.7846C69.6291 18.6463 69.8443 18.5079 70.0672 18.3696L70.2709 18.6962C70.0518 18.8307 69.8405 18.9691 69.6368 19.1036ZM70.9318 18.3004L70.7358 17.97L71.4006 17.5857L71.5889 17.9239C71.3468 18.0391 71.1278 18.1775 70.9318 18.3004ZM72.2537 17.5665L72.0769 17.2283C72.2998 17.1092 72.5265 16.9978 72.7609 16.8825L72.93 17.2283L72.2537 17.5665ZM73.614 16.9056L73.4526 16.5559C73.6831 16.4521 73.9176 16.3484 74.1558 16.2485L74.3057 16.6058C74.0559 16.7019 73.8253 16.8056 73.5986 16.9056H73.614ZM75.005 16.3176L74.8667 15.9603C75.1011 15.868 75.3393 15.7797 75.5814 15.6913L75.7121 16.0525L75.005 16.3176ZM76.4268 15.8066L76.3077 15.4223C76.5459 15.3416 76.788 15.2647 77.0378 15.1917L77.1492 15.576C76.8879 15.6528 76.6497 15.7335 76.4114 15.8066H76.4268ZM77.8486 15.3685L77.7449 14.9842C77.9908 14.9151 78.2367 14.8536 78.4865 14.7921L78.5787 15.1764C78.3443 15.2417 78.0984 15.3032 77.8486 15.3685ZM79.3165 15.0073L79.232 14.623L80.0005 14.4693L80.0735 14.8536C79.8199 14.9022 79.5714 14.9535 79.328 15.0073H79.3165ZM80.7998 14.7229L80.7383 14.3387C80.9842 14.2964 81.2378 14.258 81.5068 14.2234L81.5606 14.6076C81.307 14.6422 81.0572 14.6807 80.8113 14.7229H80.7998ZM82.2984 14.5116L82.2523 14.1273L83.0208 14.0505L83.0554 14.4347C82.8056 14.4578 82.5559 14.4808 82.3099 14.5116H82.2984ZM83.8009 14.3732L83.7778 13.989L84.5464 13.9467V14.331L83.8009 14.3732ZM87.5821 14.3387C87.3285 14.3387 87.0748 14.3156 86.8135 14.3118V13.9275L87.5821 13.9544V14.3387ZM85.3149 14.3079V13.9236H85.9951H86.0796V14.3079H85.9951H85.3149Z" fill="#263238"/>
<path d="M65.2946 22.7349L65.0141 22.4736L65.2792 22.1931L65.5559 22.4621L65.2946 22.7349Z" fill="#263238"/>
<path d="M65.8864 20.1564L66.2361 20.3101L65.2216 22.6119L67.4772 21.5052L67.6502 21.8472L64.4415 23.4227L65.8864 20.1564Z" fill="#263238"/>
<path d="M139.02 47.4164C139.02 47.4164 138.993 47.2857 138.936 47.0551L139.32 46.9591C139.381 47.2088 139.408 47.3433 139.408 47.3433L139.02 47.4164Z" fill="#263238"/>
<path d="M138.72 46.3174C138.655 46.0983 138.571 45.8562 138.474 45.5834L138.836 45.4528C138.936 45.7294 139.02 45.9792 139.089 46.2021L138.72 46.3174ZM138.198 44.861C138.106 44.6381 138.006 44.3999 137.898 44.1501L138.248 43.9964C138.359 44.25 138.463 44.4882 138.555 44.7188L138.198 44.861ZM137.571 43.4469C137.464 43.224 137.349 42.9935 137.226 42.7552L137.568 42.5784C137.694 42.8205 137.81 43.0549 137.921 43.2817L137.571 43.4469ZM136.861 42.0712C136.741 41.8522 136.611 41.6293 136.476 41.4026L136.807 41.2066C136.945 41.4372 137.072 41.6639 137.191 41.8868L136.861 42.0712ZM136.073 40.7416C135.938 40.5265 135.796 40.3113 135.65 40.0922L135.969 39.877C136.118 40.0999 136.26 40.3189 136.396 40.5341L136.073 40.7416ZM135.208 39.4543C135.062 39.2468 134.912 39.0393 134.755 38.828L135.062 38.5974L135.523 39.2315L135.208 39.4543ZM134.282 38.2132L133.794 37.6137L134.09 37.3678C134.259 37.5714 134.42 37.7751 134.582 37.9749L134.282 38.2132ZM133.291 37.0258C133.122 36.8337 132.949 36.6415 132.772 36.4494L133.056 36.1881C133.233 36.3841 133.41 36.5723 133.579 36.7722L133.291 37.0258ZM132.238 35.873C132.061 35.6885 131.88 35.4887 131.692 35.3235L131.965 35.0468C132.153 35.2351 132.349 35.4311 132.514 35.604L132.238 35.873ZM131.135 34.7855C130.951 34.6087 130.751 34.4358 130.566 34.2591L130.824 33.9747L131.4 34.505L131.135 34.7855ZM129.982 33.748C129.79 33.5828 129.598 33.4175 129.387 33.2523L129.632 32.9564C129.836 33.1216 130.036 33.2907 130.232 33.4559L129.982 33.748ZM128.783 32.7681C128.583 32.6106 128.376 32.453 128.168 32.2955L128.399 31.988C128.61 32.1456 128.814 32.307 129.021 32.4645L128.783 32.7681ZM127.542 31.8382C127.335 31.6883 127.123 31.5423 126.908 31.3924L127.123 31.0773L127.765 31.5269L127.542 31.8382Z" fill="#263238"/>
<path d="M126.266 30.9736L125.943 30.7622L126.151 30.4395L126.478 30.6508L126.266 30.9736Z" fill="#263238"/>
<path d="M128.595 30.8429L128.507 31.2195L126.059 30.6431L127.565 32.6605L127.258 32.8872L125.117 30.0283L128.595 30.8429Z" fill="#263238"/>
<path d="M40.7592 63.1329L40.3749 63.106L40.4057 62.7217L40.7861 62.7525L40.7592 63.1329Z" fill="#263238"/>
<path d="M48.0295 85.6701C47.8643 85.4972 47.6875 85.3089 47.5069 85.1052L47.7951 84.8478C47.9719 85.0476 48.1448 85.232 48.3062 85.405L48.0295 85.6701ZM47.0035 84.5173C46.846 84.329 46.6846 84.1331 46.5194 83.9217L46.8191 83.6835C46.9805 83.8871 47.1419 84.0677 47.2956 84.2675L47.0035 84.5173ZM46.0506 83.3146C45.9007 83.1186 45.747 82.9111 45.5971 82.6959L45.9122 82.473C46.0621 82.6844 46.2081 82.888 46.3541 83.084L46.0506 83.3146ZM45.1629 82.0657C45.0246 81.8582 44.8862 81.643 44.7479 81.4201L45.0707 81.2165C45.209 81.4355 45.3474 81.6468 45.4818 81.8505L45.1629 82.0657ZM44.3483 80.7669C44.2215 80.5517 44.0946 80.3288 43.964 80.1021L44.2983 79.9138C44.4251 80.1405 44.5481 80.3595 44.6826 80.5709L44.3483 80.7669ZM43.6066 79.4258C43.4875 79.2029 43.3722 78.9762 43.2608 78.7418L43.6066 78.5727C43.7181 78.8033 43.8295 79.03 43.9448 79.249L43.6066 79.4258ZM42.9342 78.0501C42.8304 77.8195 42.7266 77.5851 42.6267 77.3469L42.9803 77.197C43.0802 77.4314 43.1801 77.662 43.2838 77.8887L42.9342 78.0501ZM42.3385 76.636C42.2463 76.4016 42.1579 76.1634 42.0696 75.9213L42.4308 75.7906L42.6959 76.4977L42.3385 76.636ZM41.8198 75.195C41.7391 74.9568 41.6622 74.7147 41.5892 74.4649L41.9735 74.3535C42.0503 74.5994 42.1234 74.8376 42.204 75.0759L41.8198 75.195ZM41.374 73.7309C41.3087 73.485 41.2434 73.2391 41.1819 72.9893L41.5662 72.8971C41.6276 73.143 41.693 73.3889 41.7583 73.6272L41.374 73.7309ZM40.9898 72.2438C40.936 71.9941 40.886 71.7443 40.8361 71.4753L41.2203 71.4023C41.2703 71.6521 41.3202 71.898 41.374 72.1401L40.9898 72.2438ZM40.7016 70.7375C40.6593 70.4877 40.6209 70.238 40.5863 69.969L40.9706 69.9152C41.0051 70.1649 41.0436 70.4147 41.0858 70.6606L40.7016 70.7375ZM40.4864 69.2235C40.4595 68.9737 40.4326 68.7163 40.4095 68.455L40.7938 68.4204C40.8168 68.6765 40.8437 68.9263 40.8745 69.1697L40.4864 69.2235ZM40.348 67.6864C40.348 67.4366 40.3173 67.1792 40.3058 66.9179H40.69C40.69 67.1715 40.7131 67.4251 40.7323 67.6864H40.348ZM40.2827 66.1494C40.2827 65.9265 40.2827 65.6998 40.2827 65.4692V65.3847H40.667V65.4692C40.667 65.6959 40.667 65.9188 40.667 66.1417L40.2827 66.1494ZM40.667 64.6123H40.2827C40.2827 64.3587 40.2827 64.1051 40.3096 63.8438H40.6939C40.7054 64.1512 40.6939 64.3933 40.69 64.6469L40.667 64.6123Z" fill="#263238"/>
<path d="M48.8518 86.4694L48.5713 86.2004L48.8403 85.9276L49.1131 86.1889L48.8518 86.4694Z" fill="#263238"/>
<path d="M46.5308 85.5971L46.6884 85.2436L48.9901 86.2619L47.8796 84.0024L48.2254 83.8333L49.8009 87.0419L46.5308 85.5971Z" fill="#263238"/>
<path d="M121.571 18.0507H91.713V37.3563H121.571V18.0507Z" fill="#FFC727"/>
<path d="M101.124 16.0525H91.713V18.0507H101.662L101.124 16.0525Z" fill="#FFC727"/>
<g opacity="0.1">
<path opacity="0.1" d="M121.571 18.0507H91.713V37.3563H121.571V18.0507Z" fill="black"/>
<path opacity="0.1" d="M101.124 16.0525H91.713V18.0507H101.662L101.124 16.0525Z" fill="black"/>
</g>
<path d="M115.215 30.7315L95.7939 30.72L95.8055 5.79257L110.227 5.80026L115.222 10.5536L115.215 30.7315Z" fill="#FFC727"/>
<path opacity="0.6" d="M115.215 30.7315L95.7939 30.72L95.8055 5.79257L110.227 5.80026L115.222 10.5536L115.215 30.7315Z" fill="white"/>
<path d="M110.227 5.80026L115.222 10.5536L110.223 10.5498L110.227 5.80026Z" fill="#FFC727"/>
<path opacity="0.4" d="M110.227 5.80026L115.222 10.5536L110.223 10.5498L110.227 5.80026Z" fill="white"/>
<path d="M97.6978 10.6157L108.496 10.6214L108.496 9.97964L97.6982 9.97399L97.6978 10.6157Z" fill="white"/>
<path d="M97.6986 12.2296L108.497 12.2353L108.497 11.5936L97.699 11.5879L97.6986 12.2296Z" fill="white"/>
<path d="M97.6956 13.8474L108.494 13.8531L108.494 13.2113L97.696 13.2057L97.6956 13.8474Z" fill="white"/>
<path d="M97.6965 15.4625L113.517 15.4708L113.517 14.8291L97.6968 14.8208L97.6965 15.4625Z" fill="white"/>
<path d="M97.6934 17.0803L113.514 17.0886L113.514 16.4468L97.6937 16.4386L97.6934 17.0803Z" fill="white"/>
<path d="M97.6943 18.6904L113.515 18.6987L113.515 18.0569L97.6946 18.0487L97.6943 18.6904Z" fill="white"/>
<path d="M97.6951 20.3082L113.515 20.3164L113.516 19.6747L97.6955 19.6664L97.6951 20.3082Z" fill="white"/>
<path d="M97.6922 21.9221L113.512 21.9304L113.513 21.2886L97.6925 21.2804L97.6922 21.9221Z" fill="white"/>
<path d="M97.693 23.5398L113.513 23.5481L113.514 22.9064L97.6933 22.8981L97.693 23.5398Z" fill="white"/>
<path d="M97.69 25.1537L113.51 25.162L113.511 24.5203L97.6903 24.512L97.69 25.1537Z" fill="white"/>
<path d="M97.6871 26.7715L113.507 26.7798L113.508 26.1381L97.6874 26.1298L97.6871 26.7715Z" fill="white"/>
<path d="M97.6917 28.3855L113.512 28.3937L113.512 27.752L97.692 27.7437L97.6917 28.3855Z" fill="white"/>
<path d="M121.501 37.3563H91.6438L89.588 19.6531H119.449L121.501 37.3563Z" fill="#FFC727"/>
<path d="M98.7873 17.8163H89.3766L89.5879 19.653H99.5405L98.7873 17.8163Z" fill="#FFC727"/>
<path d="M118.619 146.496C119.211 148.882 119.795 151.391 119.803 151.945C119.803 153.055 118.489 155.019 117.797 154.554C117.105 154.089 103.083 136.689 102.972 135.69C102.972 135.69 102.972 135.69 102.972 135.663C103.091 135.388 103.271 135.144 103.498 134.949C104.202 134.18 105.547 132.977 107.164 131.571C107.549 131.244 107.933 130.91 108.317 130.568L119.396 121.003L128.364 132.116L117.428 141.773C117.428 141.773 118.035 144.079 118.639 146.503L118.619 146.496Z" fill="#FFC4C0"/>
<path d="M119.803 151.945C119.803 153.055 118.489 155.019 117.797 154.554C117.105 154.089 103.083 136.689 102.972 135.69C102.972 135.69 102.972 135.69 102.972 135.663C103.091 135.388 103.271 135.144 103.498 134.948C104.202 134.18 105.547 132.977 107.164 131.571C109.793 136.478 116.99 149.662 118.354 149.524C118.838 149.474 118.773 147.944 118.608 146.511C119.211 148.882 119.795 151.38 119.803 151.945Z" fill="#263238"/>
<path d="M125.213 109.841C124.537 113.845 108.548 130.245 108.548 130.245L120.502 143.164C120.502 143.164 143.174 119.013 141.637 110.263C140.327 102.651 127.884 72.2746 127.884 72.2746L114.677 72.7011C114.677 72.7011 125.882 105.902 125.213 109.841Z" fill="#263238"/>
<path d="M125.213 109.841C124.537 113.845 108.548 130.245 108.548 130.245L120.502 143.164C120.502 143.164 143.174 119.013 141.637 110.263C140.327 102.651 127.884 72.2746 127.884 72.2746L114.677 72.7011C114.677 72.7011 125.882 105.902 125.213 109.841Z" fill="#37474F"/>
<path d="M121.69 139.963C120.099 138.107 120.583 138.618 118.969 136.781C118.181 135.882 112.994 129.984 112.114 129.277C112.095 129.277 112.064 129.277 112.075 129.308C112.682 130.264 117.97 136.071 118.777 136.954C120.422 138.76 119.972 138.222 121.636 140.029C121.655 140.044 121.72 139.998 121.69 139.963Z" fill="#263238"/>
<path d="M126.793 107.846C126.57 106.862 126.324 105.879 126.082 104.895C125.587 102.889 125.067 100.89 124.522 98.8966C123.443 94.9463 122.281 91.0191 121.036 87.115C119.784 83.1993 118.466 79.2913 116.967 75.4602C116.783 74.9875 116.583 74.5187 116.402 74.0461C116.399 74.0395 116.393 74.0344 116.386 74.0317C116.38 74.0289 116.372 74.0286 116.365 74.031C116.358 74.0333 116.352 74.038 116.348 74.0443C116.345 74.0506 116.343 74.058 116.344 74.0653C117.659 77.9079 119.007 81.7506 120.245 85.5933C121.482 89.4359 122.631 93.3209 123.726 97.2135C124.276 99.1694 124.791 101.133 125.298 103.1C125.548 104.069 125.79 105.022 126.028 106.006C126.319 106.986 126.536 107.986 126.677 108.999C126.74 109.962 126.5 110.92 125.99 111.739C125.521 112.565 124.964 113.345 124.426 114.125C123.346 115.693 112.986 128.02 112.652 128.343C112.625 128.37 112.652 128.408 112.694 128.381C114.093 127.04 122.892 116.853 124.003 115.316C124.552 114.548 125.087 113.756 125.609 112.965C126.134 112.245 126.551 111.453 126.846 110.613C127.064 109.701 127.045 108.749 126.793 107.846Z" fill="#263238"/>
<path d="M125.617 72.3476L124.237 103.888C121.601 93.1941 114.696 72.7011 114.696 72.7011L125.617 72.3476Z" fill="#263238"/>
<path d="M123.192 137.277C123.192 137.277 126.493 151.069 126.493 151.076C126.62 153.874 126.785 156.318 126.985 157.578C126.983 157.584 126.983 157.591 126.985 157.597C127.001 157.897 127.085 158.188 127.231 158.45V158.469C128.088 158.992 150.448 158.616 151.224 158.343C152.001 158.07 151.274 155.833 150.394 155.157C149.514 154.481 140.888 150.796 140.888 150.796L137.448 137.02L123.192 137.277Z" fill="#FFC4C0"/>
<path d="M151.244 158.339C150.475 158.616 128.107 158.996 127.25 158.47V158.45C127.104 158.188 127.02 157.897 127.004 157.597C127.002 157.591 127.002 157.584 127.004 157.578C126.847 156.575 126.708 154.815 126.593 152.729C132.311 153.651 146.648 155.826 147.343 154.677C147.612 154.235 146.191 153.274 144.872 152.517C147.27 153.57 149.956 154.796 150.429 155.157C151.282 155.833 152.012 158.07 151.244 158.339Z" fill="#263238"/>
<path d="M127.753 72.2784C127.312 74.4671 127.005 76.6808 126.835 78.907C126.647 81.6776 126.382 84.1331 126.024 84.452C125.667 84.7709 123.573 86.2158 122.885 86.6692C122.885 86.6692 130.028 106.182 131.923 112.703C134.663 122.156 141.422 150.565 141.422 150.565L125.882 151.065C125.882 151.065 120.276 123.993 117.92 114.986C115.891 107.262 108.363 84.1331 108.363 84.1331C107.589 82.3553 107.204 80.4321 107.236 78.4931C107.268 76.5542 107.715 74.6446 108.548 72.8933C108.548 72.8933 127.757 72.2707 127.753 72.2784Z" fill="#37474F"/>
<path d="M140.761 147.56C138.321 147.626 139.02 147.56 136.576 147.668C135.385 147.71 127.534 148.017 126.428 148.256C126.405 148.256 126.405 148.306 126.428 148.306C127.55 148.436 135.393 147.994 136.588 147.921C139.024 147.783 138.325 147.795 140.761 147.626C140.811 147.629 140.807 147.56 140.761 147.56Z" fill="#263238"/>
<path d="M127.096 83.6373C125.615 84.5159 124.212 85.5213 122.904 86.6423C122.854 86.6884 122.904 86.7691 122.965 86.7307C124.387 85.7739 125.847 84.8401 127.215 83.8064C127.235 83.7897 127.248 83.7661 127.252 83.7403C127.255 83.7144 127.249 83.6883 127.234 83.667C127.219 83.6456 127.196 83.6308 127.171 83.6253C127.145 83.6198 127.119 83.6241 127.096 83.6373Z" fill="#263238"/>
<path d="M125.563 72.9432C125.563 72.8894 125.456 72.8971 125.467 72.9432C125.824 74.78 126.013 76.4016 126.182 78.1654C126.259 78.9762 126.451 83.5029 125.006 83.4452C124.764 83.4452 124.602 83.23 124.499 82.8842C124.418 82.4278 124.394 81.963 124.43 81.5008C124.41 80.5479 124.356 79.5795 124.26 78.6534C124.094 76.8881 123.747 75.1445 123.223 73.4505C123.219 73.4407 123.211 73.4327 123.202 73.4278C123.192 73.423 123.181 73.4215 123.171 73.4238C123.16 73.4261 123.151 73.4319 123.144 73.4402C123.138 73.4486 123.134 73.459 123.135 73.4697C123.628 75.8689 123.94 78.3017 124.068 80.7477C124.111 81.9274 123.861 83.7603 125.094 83.7104C126.328 83.6604 126.593 80.6362 126.593 79.8024C126.548 77.4811 126.201 75.1755 125.563 72.9432Z" fill="#263238"/>
<path d="M125.064 83.5682C124.996 83.8889 124.95 84.2137 124.925 84.5404C124.88 84.7946 124.88 85.0547 124.925 85.3089C124.925 85.355 125.006 85.3474 125.025 85.3089C125.126 85.0557 125.188 84.7889 125.21 84.5173C125.263 84.2176 125.321 83.914 125.363 83.6105C125.358 83.5767 125.343 83.5453 125.319 83.5212C125.294 83.4971 125.263 83.4814 125.229 83.4767C125.195 83.4719 125.161 83.4782 125.131 83.4948C125.101 83.5113 125.078 83.537 125.064 83.5682Z" fill="#263238"/>
<path d="M123.703 139.544C123.653 139.187 123.592 138.83 123.53 138.472C123.411 137.784 123.273 137.104 123.146 136.42C122.889 135.048 122.608 133.677 122.32 132.309C121.743 129.584 121.094 126.867 120.398 124.162C120.014 122.625 119.576 121.126 119.115 119.62C119.08 119.516 118.934 119.574 118.957 119.674C119.25 121.057 119.538 122.441 119.868 123.816C120.199 125.192 120.521 126.56 120.84 127.936C121.474 130.649 122.066 133.373 122.696 136.09C122.873 136.858 123.038 137.627 123.211 138.395C123.3 138.78 123.392 139.164 123.484 139.548C123.576 139.932 123.711 140.298 123.788 140.682C123.788 140.72 123.849 140.701 123.842 140.663C123.776 140.29 123.761 139.913 123.703 139.544Z" fill="#263238"/>
<path d="M133.748 118.556C133.148 115.997 132.368 113.476 131.585 110.966C130.009 105.913 128.184 100.945 126.362 95.98L124.787 91.6839C124.526 90.9692 123.25 87.1073 123.073 86.7423C123.072 86.7382 123.07 86.7345 123.067 86.7312C123.064 86.728 123.061 86.7253 123.057 86.7233C123.053 86.7214 123.049 86.7202 123.045 86.7198C123.041 86.7194 123.037 86.7199 123.033 86.7211C123.029 86.7224 123.025 86.7244 123.022 86.7271C123.018 86.7299 123.016 86.7332 123.014 86.7369C123.012 86.7407 123.011 86.7448 123.01 86.749C123.01 86.7532 123.01 86.7574 123.012 86.7615C123.396 88.0795 123.915 90.0008 124.345 91.3035C124.775 92.6062 125.229 93.8704 125.675 95.1462C126.551 97.6631 127.438 100.176 128.291 102.701C129.978 107.696 131.654 112.692 133.056 117.764C133.441 119.186 133.825 120.608 134.209 122.037C134.593 123.467 134.889 124.908 135.239 126.337C135.239 126.376 135.312 126.364 135.308 126.337C134.955 123.713 134.336 121.126 133.748 118.556Z" fill="#263238"/>
<path d="M124.526 132.355C123.511 127.463 122.331 122.606 121.036 117.783C119.741 112.961 118.312 108.123 116.76 103.346C115.207 98.57 113.497 93.8512 111.68 89.1746C110.773 86.9774 109.997 84.728 109.359 82.4384C108.771 80.1597 108.432 77.6812 108.89 75.3487C109.001 74.7561 109.158 74.1729 109.359 73.6042C109.359 73.5657 109.316 73.535 109.301 73.5734C107.572 77.9886 108.94 82.7113 110.5 86.9574C111.357 89.263 112.264 91.5686 113.105 93.9203C113.947 96.2721 114.807 98.716 115.611 101.129C117.201 105.912 118.678 110.732 120.041 115.589C121.404 120.446 122.626 125.332 123.707 130.245C124.806 135.183 125.755 140.144 126.716 145.112C126.843 145.758 126.943 146.407 127.05 147.057C127.05 147.091 127.112 147.091 127.108 147.057C126.351 142.157 125.54 137.235 124.526 132.355Z" fill="#263238"/>
<path d="M126.182 42.54C128.557 45.641 126.981 49.0918 127.776 51.3128C128.261 52.6731 130.401 54.4523 130.589 55.924C130.893 58.368 128.791 58.7753 128.96 60.1049C129.202 61.9839 131.577 62.3451 131.392 65.304C131.208 68.2628 127.419 70.6568 119.734 69.9152C112.048 69.1735 108.54 65.5422 108.786 63.0522C109.032 60.5621 111.695 60.2816 112.244 58.5025C112.598 57.3497 111.23 56.2314 111.607 54.0795C111.983 51.9276 114.208 51.6702 114.892 49.9218C115.576 48.1734 115.549 43.5583 118.689 41.8714C121.828 40.1845 125.014 41.0106 126.182 42.54Z" fill="#263238"/>
<path d="M125.832 42.5362C126.523 43.2804 127.022 44.181 127.288 45.1607C127.559 46.1966 127.709 47.2605 127.734 48.3309C127.732 48.9656 127.801 49.5986 127.942 50.2177C128.102 50.7415 128.353 51.2331 128.683 51.6702C129.34 52.5732 130.19 53.3341 130.739 54.3139C131.266 55.2362 131.581 56.3928 131.081 57.3881C130.808 57.9337 130.313 58.3218 129.974 58.8137C129.636 59.3056 129.417 59.8896 129.767 60.4084C130.063 60.8503 130.57 61.1308 130.92 61.5189C131.275 61.9013 131.568 62.337 131.788 62.8101C132.01 63.2812 132.132 63.7934 132.145 64.3141C132.158 64.8347 132.063 65.3525 131.865 65.8343C130.931 68.0707 128.468 68.9315 126.274 69.3388C125.967 69.3964 125.659 69.4464 125.352 69.5002C125.306 69.5002 125.283 69.4387 125.332 69.4272C127.546 68.9507 130.12 68.3858 131.381 66.2877C131.66 65.831 131.83 65.3165 131.88 64.7836C131.929 64.2508 131.856 63.7137 131.665 63.2136C131.473 62.7171 131.192 62.26 130.835 61.8648C130.493 61.4805 130.067 61.1923 129.709 60.8196C129.53 60.647 129.399 60.4296 129.332 60.1898C129.264 59.9499 129.262 59.6964 129.325 59.4554C129.502 58.9349 129.801 58.4645 130.197 58.0836C130.61 57.6874 130.892 57.1756 131.008 56.6157C131.063 56.0594 130.964 55.4987 130.724 54.9941C130.282 53.9681 129.475 53.1842 128.779 52.3311C128.057 51.5215 127.606 50.5054 127.492 49.4261C127.45 48.8612 127.473 48.2733 127.45 47.7238C127.435 47.1966 127.391 46.6706 127.319 46.1483C127.194 45.1038 126.843 44.0992 126.289 43.2048C126.139 42.9765 125.968 42.7629 125.778 42.5669C125.778 42.5477 125.813 42.5131 125.832 42.5362Z" fill="#263238"/>
<path d="M108.844 61.1808C109.019 60.8033 109.274 60.4688 109.593 60.2009C109.923 59.9242 110.296 59.7129 110.65 59.4708C111.002 59.2605 111.288 58.9556 111.476 58.5908C111.627 58.1264 111.612 57.6237 111.434 57.1691C111.271 56.6973 111.143 56.2144 111.049 55.7242C110.978 55.2414 110.978 54.7507 111.049 54.2678C111.219 53.276 111.688 52.36 112.394 51.6433C112.736 51.2782 113.109 50.9439 113.455 50.5827C113.835 50.189 114.162 49.7472 114.427 49.2685C115.003 48.2118 115.326 47.0398 115.845 45.9561C116.378 44.8477 117.022 43.7959 117.766 42.8167C117.766 42.7936 117.82 42.8167 117.801 42.8513C117.133 43.7352 116.56 44.6871 116.091 45.691C115.637 46.644 115.322 47.6431 114.938 48.6191C114.754 49.1009 114.522 49.563 114.246 49.9986C113.976 50.3971 113.67 50.7701 113.332 51.113C112.652 51.8277 111.956 52.531 111.61 53.4801C111.267 54.4123 111.228 55.4294 111.499 56.3851C111.733 57.2113 112.114 58.1489 111.583 58.9482C111.138 59.6245 110.338 59.9166 109.743 60.4315C109.425 60.7157 109.171 61.064 108.997 61.4534C108.824 61.8429 108.735 62.2646 108.736 62.691C108.694 64.8698 110.573 66.3569 112.517 66.8756C112.528 66.8801 112.537 66.8881 112.542 66.8983C112.547 66.9085 112.549 66.9202 112.547 66.9315C112.545 66.9429 112.539 66.9531 112.53 66.9604C112.521 66.9677 112.509 66.9717 112.498 66.9717C110.792 66.5874 109.089 65.4346 108.628 63.6709C108.409 62.841 108.486 61.9608 108.844 61.1808Z" fill="#263238"/>
<path d="M120.525 59.075C124.095 65.8727 128.595 73.2122 132.599 74.2574C136.415 75.2488 145.503 65.7344 147.044 62.5757C147.574 61.4882 140.38 56.7195 139.358 57.5188C137.437 59.0289 133.241 63.8169 132.641 63.6978C132.042 63.5786 126.946 59.0366 122.347 55.2208C119.565 52.9075 118.051 54.3678 120.525 59.075Z" fill="#FFC4C0"/>
<path d="M140.661 46.4749L137.913 56.0816C137.798 56.3621 137.937 56.6003 138.213 56.608L143.209 56.7656C143.362 56.7591 143.51 56.709 143.636 56.6212C143.762 56.5334 143.86 56.4115 143.92 56.2699L146.667 46.6632C146.7 46.6101 146.717 46.5493 146.718 46.4871C146.719 46.4249 146.703 46.3636 146.672 46.3097C146.641 46.2558 146.596 46.2113 146.541 46.1808C146.487 46.1504 146.426 46.1352 146.363 46.1367L141.368 45.9792C141.216 45.9873 141.068 46.038 140.943 46.1257C140.818 46.2133 140.721 46.3343 140.661 46.4749Z" fill="#A6A6A6"/>
<path d="M141.253 46.4749L138.501 56.1008C138.47 56.1541 138.454 56.2146 138.453 56.2764C138.453 56.3381 138.469 56.3988 138.5 56.4522C138.531 56.5057 138.575 56.5501 138.629 56.5808C138.682 56.6115 138.743 56.6276 138.805 56.6272L143.8 56.7809C143.953 56.7744 144.101 56.7247 144.227 56.6377C144.353 56.5506 144.451 56.4298 144.511 56.2891L147.259 46.6824C147.37 46.3981 147.236 46.1636 146.955 46.156L141.96 45.9984C141.809 46.0043 141.663 46.0521 141.538 46.1362C141.414 46.2204 141.315 46.3377 141.253 46.4749Z" fill="#DBDBDB"/>
<path d="M142.613 46.9783C142.607 47.0908 142.557 47.1963 142.473 47.2719C142.39 47.3475 142.28 47.387 142.167 47.3818C142.054 47.3748 141.949 47.3238 141.873 47.2396C141.798 47.1555 141.759 47.0451 141.764 46.9322C141.778 46.8257 141.832 46.7285 141.914 46.66C141.997 46.5915 142.103 46.5567 142.21 46.5625C142.317 46.5683 142.418 46.6144 142.493 46.6914C142.568 46.7685 142.61 46.8709 142.613 46.9783Z" fill="#455A64"/>
<path d="M149.357 57.1306C149.78 54.3332 149.461 53.5493 151.071 51.3666C152.127 49.941 151.67 48.6537 150.006 49.4453C147.29 50.7556 145.987 54.2486 145.883 55.5936L149.357 57.1306Z" fill="#FFC4C0"/>
<path d="M145.749 64.4586C145.749 64.4586 148.358 61.4114 149.103 58.4756C149.618 56.4466 150.256 51.9046 145.81 47.5009C144.757 46.4557 142.517 45.7141 143.616 48.0427C144.384 49.6989 145.391 50.5136 145.672 51.5588C145.672 51.5588 142.709 50.9516 141.702 52.0468C140.826 53.007 140.017 54.0264 139.281 55.0979C139.448 55.2764 139.625 55.4445 139.812 55.6013C139.812 55.6013 138.97 56.7156 139.147 58.8291L145.749 64.4586Z" fill="#FFC4C0"/>
<path d="M149.288 56.4659C148.792 55.486 147.705 53.4302 146.214 52.0545C144.577 50.5174 141.007 48.0312 139.896 49.2532C139.078 50.1485 140.354 51.2206 140.354 51.2206C140.354 51.2206 138.663 50.4982 138.102 51.4666C137.591 52.3542 138.628 53.1227 138.628 53.1227C138.628 53.1227 137.529 52.8614 137.199 53.8067C136.814 54.9595 139.178 55.3092 139.773 56.8079C139.923 57.1345 149.288 56.4659 149.288 56.4659Z" fill="#FFC4C0"/>
<path d="M144.903 54.0488C143.732 52.664 142.166 51.6693 140.415 51.1975C140.369 51.1975 140.338 51.2168 140.377 51.236C141.991 51.9915 143.507 52.9412 144.892 54.0642C144.892 54.0642 144.911 54.0565 144.903 54.0488Z" fill="#263238"/>
<path d="M143.316 55.655C142.026 54.3922 140.418 53.5025 138.663 53.0804C138.621 53.0804 138.59 53.1035 138.628 53.1189C140.278 53.7889 141.846 54.6463 143.301 55.6742C143.301 55.6742 143.324 55.6666 143.316 55.655Z" fill="#263238"/>
<path d="M136.887 58.7715L144.377 66.7181C144.377 66.7181 136.465 75.587 132.749 74.6609C129.033 73.7348 122.009 63.6747 119.757 57.292C118.201 52.873 120.66 53.5839 123.238 55.755C125.817 57.9261 132.568 63.2981 132.864 63.2174C133.16 63.1367 136.887 58.7715 136.887 58.7715Z" fill="#FFC727"/>
<g opacity="0.2">
<path opacity="0.2" d="M136.887 58.7715L144.377 66.7181C144.377 66.7181 136.465 75.587 132.749 74.6609C129.033 73.7348 122.009 63.6747 119.757 57.292C118.201 52.873 120.66 53.5839 123.238 55.755C125.817 57.9261 132.568 63.2981 132.864 63.2174C133.16 63.1367 136.887 58.7715 136.887 58.7715Z" fill="black"/>
</g>
<path opacity="0.1" d="M119.757 57.2766C122.009 63.6593 129.033 73.7156 132.749 74.6455C134.39 75.0566 136.857 73.5503 139.093 71.7404C135.304 67.8363 125.229 58.3871 120.648 54.1333C119.403 53.726 118.765 54.4599 119.757 57.2766Z" fill="black"/>
<path d="M141.948 68.0208C140.861 66.9256 136.568 62.2836 135.731 61.2154C135.669 61.1424 135.704 61.0847 135.773 61.1539C137.97 63.3176 140.046 65.6011 141.99 67.9939C142.021 67.9939 141.975 68.0515 141.948 68.0208Z" fill="#263238"/>
<path d="M108.463 73.2199L128.218 72.9048L126.478 67.0409C126.972 66.2808 127.292 65.4214 127.417 64.5236C127.542 63.6258 127.468 62.7116 127.2 61.8456C126.674 60.1202 124.341 57.5841 122.908 55.974C119.423 52.0506 116.567 53.9681 115.672 55.0325C112.248 59.125 108.463 73.2199 108.463 73.2199Z" fill="#EBEBEB"/>
<path d="M121.186 66.8641C122.027 66.7598 122.875 66.7187 123.722 66.7412C124.145 66.7412 124.56 66.7911 124.979 66.8372C125.19 66.8603 125.398 66.8757 125.609 66.8872C125.827 66.914 126.048 66.914 126.266 66.8872C126.285 66.8872 126.289 66.9102 126.266 66.9179C126.065 66.9713 125.861 67.0111 125.655 67.037C125.454 67.0486 125.253 67.0486 125.052 67.037C124.625 67.037 124.199 66.9909 123.772 66.9756C122.908 66.941 122.047 66.9064 121.186 66.9371C121.179 66.9346 121.172 66.9297 121.167 66.9232C121.162 66.9166 121.16 66.9087 121.16 66.9006C121.16 66.8925 121.162 66.8847 121.167 66.8781C121.172 66.8715 121.179 66.8667 121.186 66.8641Z" fill="#263238"/>
<path d="M119.303 68.0361C119.968 67.8182 120.644 67.6386 121.328 67.4982C121.67 67.4252 122.016 67.379 122.362 67.3368L122.862 67.2868C123.046 67.2868 123.246 67.2868 123.415 67.2638C123.434 67.2638 123.438 67.2907 123.415 67.2907C123.246 67.3137 123.077 67.3637 122.904 67.3983L122.393 67.4943L121.363 67.6903C120.675 67.8133 119.991 67.9439 119.311 68.0746C119.276 68.1015 119.269 68.0477 119.303 68.0361Z" fill="#263238"/>
<path d="M115.123 54.8865C108.748 58.7292 99.6174 67.8978 100.248 70.3917C100.947 73.1661 109.854 67.771 109.916 67.3444C109.977 67.0216 114.143 61.0963 117.236 56.804C120.329 52.5117 116.69 53.9374 115.123 54.8865Z" fill="#FFC4C0"/>
<path d="M109.954 67.3637C110.338 66.7181 115.933 58.9098 117.597 56.4428C119.261 53.9758 118.585 52.8768 115.188 54.679C111.791 56.4812 103.614 63.3058 101.101 67.3982C98.6798 71.337 100.882 71.898 104.294 70.6684C107.084 69.6616 109.954 67.3637 109.954 67.3637Z" fill="#FFC727"/>
<g opacity="0.2">
<path opacity="0.2" d="M109.954 67.3637C110.338 66.7181 115.933 58.9098 117.597 56.4428C119.261 53.9758 118.585 52.8768 115.188 54.679C111.791 56.4812 103.614 63.3058 101.101 67.3982C98.6798 71.337 100.882 71.898 104.294 70.6684C107.084 69.6616 109.954 67.3637 109.954 67.3637Z" fill="black"/>
</g>
<path d="M109.954 67.3637C110.381 66.6528 110.838 65.9572 111.295 65.2656C111.752 64.5739 112.229 63.8976 112.694 63.2136C113.159 62.5296 113.655 61.8648 114.15 61.2C114.646 60.5352 115.146 59.8743 115.687 59.2287C115.261 59.9435 114.807 60.6351 114.35 61.3268C113.893 62.0185 113.413 62.6948 112.948 63.3788C112.483 64.0628 111.987 64.7314 111.491 65.3924C110.995 66.0533 110.481 66.7219 109.954 67.3637Z" fill="#263238"/>
<path d="M115.726 59.8743C115.584 60.124 115.401 60.3476 115.184 60.5352C115.077 60.6303 114.961 60.7152 114.838 60.7889C114.719 60.8648 114.59 60.9231 114.454 60.9618C114.661 60.7581 114.861 60.5775 115.069 60.3892C115.275 60.2015 115.494 60.0294 115.726 59.8743Z" fill="#263238"/>
<path d="M100.221 70.1458C100.932 72.0402 103.906 73.1238 111.142 76.563C112.144 77.0357 117.401 70.8759 116.36 70.311C115.046 69.6039 109.793 67.137 109.385 67.0025C105.954 65.8919 99.7519 68.8662 100.221 70.1458Z" fill="#FFC4C0"/>
<path d="M114.923 69.5732C114.923 69.5732 118.028 70.8874 119.442 72.0786C120.884 73.357 121.993 74.9674 122.673 76.7705C123.419 78.6918 123.872 83.9217 122.393 84.3137C121.056 84.6672 120.856 79.3182 120.856 79.3182C120.856 79.3182 121.955 84.7364 120.268 84.867C118.581 84.9977 118.704 78.7802 118.704 78.7802C118.704 78.7802 119.707 84.3713 117.935 84.233C116.606 84.1254 116.398 78.469 116.398 78.469C116.398 78.469 117.228 83.2838 115.853 83.2339C114.335 83.1801 113.82 77.9848 113.82 77.9848C110.361 77.27 108.986 75.5101 108.163 74.1421C107.983 73.827 114.923 69.5732 114.923 69.5732Z" fill="#FFC4C0"/>
<path d="M120.602 77.4199C120.752 78.054 120.913 78.6919 121.006 79.3413C121.098 79.9907 121.175 80.6286 121.209 81.2626C121.275 82.1104 121.24 82.963 121.106 83.8026C121.152 82.3114 121.06 80.8191 120.829 79.3451C120.733 78.7034 120.671 78.054 120.575 77.4238C120.575 77.4084 120.598 77.4084 120.602 77.4199Z" fill="#263238"/>
<path d="M118.274 77.7235C118.431 78.5381 118.619 79.3412 118.742 80.1636C118.865 80.9859 118.911 81.7698 118.977 82.596C118.977 82.6613 118.946 82.6421 118.938 82.5768C118.838 81.7583 118.685 81.0051 118.577 80.1828C118.469 79.3605 118.389 78.5381 118.254 77.7273C118.25 77.712 118.27 77.712 118.274 77.7235Z" fill="#263238"/>
<path d="M116.225 77.6236C116.501 78.8682 116.646 80.1379 116.66 81.4125C116.66 81.474 116.617 81.4471 116.613 81.3817C116.491 80.1213 116.406 79.1299 116.183 77.6351C116.179 77.6006 116.222 77.6006 116.225 77.6236Z" fill="#263238"/>
<path d="M115.595 69.7461L107.026 75.4755C107.026 75.4755 100.674 72.2208 100.136 70.2149C99.7711 68.9084 106.031 65.6037 109.743 67.11L115.595 69.7461Z" fill="#FFC727"/>
<path opacity="0.2" d="M115.595 69.7461L107.026 75.4755C107.026 75.4755 100.674 72.2208 100.136 70.2149C99.7711 68.9084 106.031 65.6037 109.743 67.11L115.595 69.7461Z" fill="black"/>
<path d="M104.828 67.1523C106.397 66.5352 108.139 66.5187 109.72 67.1062C109.739 67.1062 109.72 67.1446 109.72 67.1408C108.06 66.6643 105.574 66.964 104.843 67.183C104.816 67.1869 104.813 67.16 104.828 67.1523Z" fill="#263238"/>
<path d="M105.516 73.7579C106.423 73.0777 107.368 72.4475 108.313 71.8365C109.259 71.2255 110.204 70.5761 111.168 69.969C111.71 69.6308 112.252 69.285 112.809 68.9622C112.809 68.9622 112.84 68.9622 112.828 68.9853C111.922 69.6654 110.976 70.2995 110.039 70.9335C109.101 71.5675 108.144 72.1939 107.191 72.8126C106.649 73.1584 106.104 73.4966 105.55 73.8194C105.542 73.8239 105.533 73.8251 105.524 73.8226C105.515 73.82 105.507 73.8141 105.502 73.8059C105.498 73.7977 105.497 73.7881 105.499 73.7791C105.502 73.7701 105.508 73.7625 105.516 73.7579Z" fill="#263238"/>
<path d="M115.634 69.6539C115.255 69.4255 114.861 69.2239 114.454 69.0506C114.054 68.861 113.651 68.6804 113.243 68.5088C111.945 67.8741 110.597 67.3472 109.213 66.9333C109.213 66.9333 109.262 67.0332 109.282 67.037C110.031 67.1869 115.046 69.5924 115.488 69.7269L115.418 69.8038C115.418 69.823 115.418 69.8576 115.445 69.846C115.506 69.8218 115.565 69.7935 115.622 69.7615C115.632 69.7565 115.64 69.7492 115.646 69.7404C115.652 69.7316 115.655 69.7214 115.656 69.7108C115.658 69.7001 115.656 69.6894 115.652 69.6795C115.648 69.6696 115.642 69.6608 115.634 69.6539Z" fill="#263238"/>
<path d="M118.842 54.6713C118.881 55.0325 120.279 57.5034 121.89 57.6186C122.412 57.6532 122.743 54.8058 122.743 54.8058L122.812 54.5983L123.822 51.7317L120.625 49.0994L120.16 48.7459C120.16 48.7459 119.937 49.549 119.668 50.552C119.668 50.5981 119.642 50.6442 119.63 50.6941C119.611 50.7469 119.596 50.8008 119.584 50.8555L119.457 51.309C119.426 51.4281 119.399 51.5395 119.373 51.6625C119.346 51.7855 119.315 51.9046 119.284 52.0275C119.076 52.8976 118.928 53.7809 118.842 54.6713Z" fill="#FFC4C0"/>
<path d="M119.668 50.552C119.867 51.4137 120.251 52.222 120.793 52.9207C121.335 53.6194 122.022 54.1918 122.808 54.5983L123.818 51.7317L120.621 49.0994L120.156 48.7459C120.156 48.7459 119.937 49.549 119.668 50.552Z" fill="#263238"/>
<path d="M128.541 46.7131C129.694 51.9238 126.701 53.2034 125.578 53.4493C124.556 53.6722 121.056 54.3063 119.373 49.2224C117.689 44.1386 119.757 41.9751 122.062 41.3411C124.368 40.7071 127.392 41.5025 128.541 46.7131Z" fill="#FFC4C0"/>
<path d="M127.634 46.4403C127.506 46.4411 127.377 46.4334 127.25 46.4173C127.115 46.4305 126.98 46.3981 126.866 46.3251C126.836 46.2953 126.817 46.2566 126.811 46.215C126.806 46.1733 126.814 46.131 126.835 46.0945C126.887 46.0289 126.955 45.978 127.032 45.947C127.11 45.916 127.194 45.9059 127.277 45.9177C127.448 45.9166 127.614 45.9796 127.742 46.0945C127.768 46.1207 127.787 46.1538 127.797 46.1901C127.806 46.2264 127.805 46.2645 127.793 46.3002C127.782 46.336 127.762 46.3679 127.734 46.3927C127.705 46.4174 127.671 46.4339 127.634 46.4403Z" fill="#263238"/>
<path d="M124.087 46.8361C124.207 46.8016 124.314 46.7516 124.429 46.7055C124.558 46.6785 124.674 46.6096 124.76 46.5095C124.78 46.4726 124.788 46.4301 124.782 46.3884C124.775 46.3467 124.756 46.3083 124.725 46.279C124.657 46.2304 124.576 46.2012 124.492 46.1944C124.409 46.1877 124.324 46.2036 124.249 46.2405C124.087 46.2888 123.949 46.3974 123.865 46.5441C123.847 46.5783 123.84 46.6168 123.843 46.655C123.847 46.6933 123.861 46.7298 123.884 46.7603C123.907 46.7908 123.939 46.8142 123.975 46.8276C124.011 46.841 124.05 46.844 124.087 46.8361Z" fill="#263238"/>
<path d="M125.014 47.7353C125.014 47.7353 124.991 47.7583 124.991 47.7699C125.067 48.1272 125.09 48.5384 124.787 48.7229C124.787 48.7229 124.787 48.7459 124.787 48.7421C125.179 48.6191 125.14 48.0619 125.014 47.7353Z" fill="#263238"/>
<path d="M124.629 47.4164C124.045 47.4702 124.203 48.6345 124.741 48.5692C125.279 48.5039 125.113 47.3703 124.629 47.4164Z" fill="#263238"/>
<path d="M124.41 47.5086C124.318 47.5854 124.233 47.7161 124.111 47.743C123.988 47.7699 123.849 47.67 123.726 47.5662H123.707C123.734 47.7891 123.849 48.0081 124.091 48.0081C124.333 48.0081 124.445 47.7929 124.476 47.5585C124.491 47.5316 124.449 47.474 124.41 47.5086Z" fill="#263238"/>
<path d="M126.993 47.2972C126.993 47.2972 127.023 47.2972 127.023 47.328C127.058 47.6892 127.158 48.0965 127.5 48.1772C127.092 48.1926 126.966 47.6469 126.993 47.2972Z" fill="#263238"/>
<path d="M127.269 46.8822C127.842 46.7669 128.038 47.9236 127.5 48.035C126.962 48.1465 126.785 46.9783 127.269 46.8822Z" fill="#263238"/>
<path d="M127.523 46.9168C127.623 46.9629 127.734 47.059 127.842 47.0513C127.949 47.0436 128.045 46.8976 128.107 46.7631C128.149 46.9821 128.107 47.2242 127.907 47.3011C127.707 47.3779 127.546 47.205 127.458 46.9937C127.461 46.9668 127.481 46.8976 127.523 46.9168Z" fill="#263238"/>
<path d="M125.406 50.7787C125.502 50.8555 125.598 50.967 125.728 50.967C125.864 50.9523 125.995 50.909 126.113 50.8402C126.113 50.8402 126.139 50.8402 126.132 50.8402C126.086 50.9155 126.021 50.977 125.943 51.0183C125.865 51.0596 125.778 51.079 125.69 51.0746C125.614 51.0626 125.543 51.0279 125.487 50.9751C125.431 50.9224 125.392 50.8539 125.375 50.7787C125.379 50.7749 125.384 50.7728 125.39 50.7728C125.396 50.7728 125.401 50.7749 125.406 50.7787Z" fill="#263238"/>
<path d="M126.724 49.2608C126.724 49.2608 126.873 49.7873 126.912 50.0294C126.912 50.0524 126.854 50.0755 126.77 50.0908C126.558 50.1615 126.331 50.1727 126.114 50.1233C125.896 50.0738 125.696 49.9655 125.536 49.8103C125.513 49.7873 125.536 49.7565 125.567 49.7681C125.924 49.9433 126.329 49.9986 126.72 49.9256C126.72 49.8526 126.432 49.0303 126.47 49.0226C126.67 49.0124 126.87 49.0279 127.066 49.0687C126.781 47.9658 126.32 46.9129 126.055 45.8063C126.055 45.799 126.057 45.7918 126.061 45.7858C126.065 45.7797 126.071 45.7751 126.077 45.7725C126.084 45.77 126.092 45.7696 126.099 45.7715C126.106 45.7735 126.112 45.7775 126.116 45.7832C126.645 46.8914 127.061 48.0501 127.358 49.2416C127.377 49.4068 126.831 49.2916 126.724 49.2608Z" fill="#263238"/>
<path d="M126.731 50.014C126.62 50.2409 126.451 50.4354 126.243 50.5789C126.129 50.6532 125.995 50.6908 125.859 50.6865C125.559 50.6865 125.498 50.4098 125.502 50.1754C125.507 50.0456 125.526 49.9168 125.559 49.7911C125.916 49.9879 126.327 50.066 126.731 50.014Z" fill="#263238"/>
<path d="M126.243 50.5789C126.129 50.6532 125.995 50.6908 125.859 50.6865C125.559 50.6865 125.498 50.4098 125.502 50.1754C125.653 50.1493 125.808 50.1749 125.943 50.2481C126.077 50.3214 126.183 50.4379 126.243 50.5789Z" fill="#FF9ABB"/>
<path d="M119.411 49.5491C119.742 49.3592 120.018 49.0866 120.212 48.7578C120.406 48.4291 120.512 48.0555 120.518 47.6738C121.423 47.1991 122.185 46.4922 122.727 45.6257C122.7 45.741 122.497 46.5518 122.381 46.9629C125.724 46.0945 126.608 43.4315 126.608 43.4315C127.298 43.9812 127.854 44.6801 128.234 45.4758C128.234 45.4758 128.115 43.3969 126.95 42.0789C126.568 41.6214 126.072 41.2735 125.512 41.0709C124.951 40.8684 124.347 40.8184 123.761 40.9261C122.91 40.7818 122.036 40.8694 121.23 41.1798C120.425 41.4902 119.718 42.0118 119.184 42.6899C117.136 45.203 119.411 49.5491 119.411 49.5491Z" fill="#263238"/>
<path d="M124.917 46.2059C124.394 46.5443 123.823 46.8033 123.223 46.9744C124.157 46.6484 124.982 46.0682 125.605 45.299C125.87 44.9643 126.092 44.5977 126.266 44.2077C126.475 43.7961 126.598 43.3464 126.627 42.8858C126.627 42.8787 126.63 42.8719 126.635 42.8668C126.64 42.8618 126.647 42.8589 126.654 42.8589C126.661 42.8589 126.668 42.8618 126.673 42.8668C126.678 42.8719 126.681 42.8787 126.681 42.8858C126.698 43.3434 126.638 43.8005 126.504 44.2385C126.353 44.6687 126.124 45.0673 125.828 45.4143C125.565 45.7199 125.26 45.9864 124.921 46.2059" fill="#263238"/>
<path d="M120.341 48.9842C120.341 48.9842 118.965 47.4817 118.274 48.012C117.582 48.5423 118.762 50.8018 119.684 51.0169C119.8 51.0518 119.923 51.0627 120.044 51.0491C120.165 51.0354 120.281 50.9975 120.387 50.9376C120.493 50.8777 120.586 50.7969 120.66 50.7003C120.734 50.6037 120.787 50.4931 120.817 50.3752L120.341 48.9842Z" fill="#FFC4C0"/>
</svg>
