<svg width="288" height="170" viewBox="0 0 288 170" fill="none" xmlns="http://www.w3.org/2000/svg">
<path d="M258.158 15.0435H161.325V76.1348H258.158V15.0435Z" fill="#37474F"/>
<path d="M258.158 15.0435H161.325V20.4258H258.158V15.0435Z" fill="#FFC727"/>
<path d="M166.396 17.7736C166.396 18.0414 166.317 18.3033 166.168 18.526C166.019 18.7487 165.807 18.9222 165.56 19.0247C165.313 19.1272 165.04 19.154 164.778 19.1018C164.515 19.0495 164.274 18.9206 164.084 18.7312C163.895 18.5418 163.766 18.3005 163.714 18.0378C163.661 17.7751 163.688 17.5028 163.791 17.2554C163.893 17.0079 164.067 16.7964 164.289 16.6476C164.512 16.4988 164.774 16.4194 165.042 16.4194C165.401 16.4194 165.745 16.562 165.999 16.816C166.253 17.07 166.396 17.4144 166.396 17.7736Z" fill="#A6A6A6"/>
<path d="M171.904 17.7736C171.904 18.0414 171.824 18.3033 171.675 18.526C171.527 18.7487 171.315 18.9222 171.068 19.0247C170.82 19.1272 170.548 19.154 170.285 19.1018C170.023 19.0495 169.781 18.9206 169.592 18.7312C169.402 18.5418 169.274 18.3005 169.221 18.0378C169.169 17.7751 169.196 17.5028 169.298 17.2554C169.401 17.0079 169.574 16.7964 169.797 16.6476C170.02 16.4988 170.282 16.4194 170.549 16.4194C170.909 16.4194 171.253 16.562 171.507 16.816C171.761 17.07 171.904 17.4144 171.904 17.7736Z" fill="#EBEBEB"/>
<path d="M177.437 17.7736C177.437 18.0414 177.358 18.3033 177.209 18.526C177.06 18.7487 176.849 18.9222 176.601 19.0247C176.354 19.1272 176.082 19.154 175.819 19.1018C175.556 19.0495 175.315 18.9206 175.126 18.7312C174.936 18.5418 174.807 18.3005 174.755 18.0378C174.703 17.7751 174.73 17.5028 174.832 17.2554C174.935 17.0079 175.108 16.7964 175.331 16.6476C175.554 16.4988 175.815 16.4194 176.083 16.4194C176.442 16.4194 176.787 16.562 177.041 16.816C177.295 17.07 177.437 17.4144 177.437 17.7736Z" fill="white"/>
<path d="M169.974 31.1298H167.097V32.1811H169.974V31.1298Z" fill="#EBEBEB"/>
<path d="M218.54 31.1298H172.072V32.1811H218.54V31.1298Z" fill="#EBEBEB"/>
<path d="M225.77 31.1298H220.305V32.1811H225.77V31.1298Z" fill="#FFC727"/>
<path d="M234.514 45.1911H229.049V46.2425H234.514V45.1911Z" fill="#EBEBEB"/>
<path d="M245.378 31.1298H226.955V32.1811H245.378V31.1298Z" fill="#A6A6A6"/>
<path d="M172.851 33.942H169.974V34.9934H172.851V33.942Z" fill="#EBEBEB"/>
<path d="M196.535 33.942H174.876V34.9934H196.535V33.942Z" fill="#A6A6A6"/>
<path d="M227.751 45.1911H219.561V46.2425H227.751V45.1911Z" fill="#A6A6A6"/>
<path d="M192.758 42.3788H172.072V43.4302H192.758V42.3788Z" fill="#A6A6A6"/>
<path d="M189.387 36.7543H174.876V37.8057H189.387V36.7543Z" fill="#FFC727"/>
<path d="M238.468 39.5666H223.957V40.6179H238.468V39.5666Z" fill="#A6A6A6"/>
<path d="M227.634 36.7543H190.997V37.8057H227.634V36.7543Z" fill="#A6A6A6"/>
<path d="M217.688 45.1911H172.072V46.2425H217.688V45.1911Z" fill="#FFC727"/>
<path d="M250.319 33.942H226.349V34.9934H250.319V33.942Z" fill="#FFC727"/>
<path d="M225.16 33.942H197.893V34.9934H225.16V33.942Z" fill="#EBEBEB"/>
<path d="M247.017 36.7543H237.702V37.8057H247.017V36.7543Z" fill="#EBEBEB"/>
<path d="M172.851 36.7543H169.974V37.8057H172.851V36.7543Z" fill="#EBEBEB"/>
<path d="M169.974 39.5666H167.097V40.6179H169.974V39.5666Z" fill="#A6A6A6"/>
<path d="M189.076 39.5666H172.072V40.6179H189.076V39.5666Z" fill="#EBEBEB"/>
<path d="M191.88 48.0034H174.876V49.0548H191.88V48.0034Z" fill="#EBEBEB"/>
<path d="M241.947 50.8157H220.046V51.8671H241.947V50.8157Z" fill="#FFC727"/>
<path d="M223.775 48.0034H193.26V49.0548H223.775V48.0034Z" fill="#FFC727"/>
<path d="M218.562 50.8157H190.253V51.8671H218.562V50.8157Z" fill="#EBEBEB"/>
<path d="M179.8 50.8157H174.876V51.8671H179.8V50.8157Z" fill="#A6A6A6"/>
<path d="M225.77 42.3788H193.926V43.4302H225.77V42.3788Z" fill="#EBEBEB"/>
<path d="M247.623 42.3788H226.955V43.4302H247.623V42.3788Z" fill="#FFC727"/>
<path d="M222.62 39.5666H190.802V40.6179H222.62V39.5666Z" fill="#FFC727"/>
<path d="M169.974 42.3788H167.097V43.4302H169.974V42.3788Z" fill="#EBEBEB"/>
<path d="M169.974 45.1911H167.097V46.2425H169.974V45.1911Z" fill="#EBEBEB"/>
<path d="M172.851 48.0034H169.974V49.0548H172.851V48.0034Z" fill="#A6A6A6"/>
<path d="M172.851 50.8157H169.974V51.8671H172.851V50.8157Z" fill="#EBEBEB"/>
<path d="M169.974 53.1737H167.097V54.225H169.974V53.1737Z" fill="#EBEBEB"/>
<path d="M205.807 53.1737H172.072V54.225H205.807V53.1737Z" fill="#EBEBEB"/>
<path d="M172.851 55.986H169.974V57.0373H172.851V55.986Z" fill="#EBEBEB"/>
<path d="M196.535 55.986H174.876V57.0373H196.535V55.986Z" fill="#A6A6A6"/>
<path d="M189.387 58.7982H174.876V59.8496H189.387V58.7982Z" fill="#FFC727"/>
<path d="M227.634 58.7982H190.997V59.8496H227.634V58.7982Z" fill="#A6A6A6"/>
<path d="M250.319 55.986H226.349V57.0373H250.319V55.986Z" fill="#FFC727"/>
<path d="M225.16 55.986H197.893V57.0373H225.16V55.986Z" fill="#EBEBEB"/>
<path d="M172.851 58.7982H169.974V59.8496H172.851V58.7982Z" fill="#EBEBEB"/>
<path d="M169.879 28.4906L170.848 26.1888C170.859 26.1622 170.875 26.1381 170.895 26.1178C170.916 26.0975 170.94 26.0814 170.966 26.0705C170.993 26.0597 171.021 26.0542 171.05 26.0545C171.079 26.0547 171.107 26.0607 171.134 26.072C171.16 26.0828 171.183 26.0988 171.203 26.1189C171.223 26.1389 171.238 26.1628 171.249 26.189C171.259 26.2152 171.265 26.2432 171.264 26.2714C171.264 26.2996 171.257 26.3274 171.246 26.3532L170.29 28.6593C170.273 28.698 170.245 28.7309 170.21 28.754C170.174 28.777 170.133 28.7892 170.091 28.7891C170.065 28.7955 170.039 28.7955 170.013 28.7891C169.983 28.7808 169.955 28.766 169.931 28.7457C169.907 28.7253 169.888 28.7 169.875 28.6715C169.863 28.6429 169.856 28.6119 169.857 28.5806C169.857 28.5493 169.865 28.5186 169.879 28.4906Z" fill="#FFC727"/>
<path d="M126.475 26.8205H29.6414V87.9118H126.475V26.8205Z" fill="#37474F"/>
<path d="M126.475 26.8205H29.6414V32.2027H126.475V26.8205Z" fill="#FFC727"/>
<path d="M34.6905 29.5505C34.6905 29.8184 34.6111 30.0802 34.4623 30.3029C34.3135 30.5256 34.102 30.6992 33.8545 30.8017C33.6071 30.9042 33.3348 30.931 33.0721 30.8787C32.8094 30.8265 32.5681 30.6975 32.3787 30.5081C32.1893 30.3187 32.0604 30.0774 32.0081 29.8147C31.9558 29.552 31.9827 29.2798 32.0852 29.0323C32.1877 28.7848 32.3612 28.5733 32.5839 28.4245C32.8066 28.2757 33.0685 28.1963 33.3363 28.1963C33.6955 28.1963 34.0399 28.339 34.2939 28.593C34.5478 28.8469 34.6905 29.1914 34.6905 29.5505Z" fill="#A6A6A6"/>
<path d="M38.8657 30.9048C39.6136 30.9048 40.2199 30.2985 40.2199 29.5505C40.2199 28.8026 39.6136 28.1963 38.8657 28.1963C38.1178 28.1963 37.5114 28.8026 37.5114 29.5505C37.5114 30.2985 38.1178 30.9048 38.8657 30.9048Z" fill="#EBEBEB"/>
<path d="M45.7536 29.5505C45.7544 29.8194 45.6755 30.0825 45.5267 30.3065C45.378 30.5305 45.1661 30.7053 44.9179 30.8088C44.6698 30.9122 44.3965 30.9398 44.1327 30.8878C43.8689 30.8359 43.6264 30.7069 43.4359 30.517C43.2455 30.3272 43.1157 30.0851 43.0629 29.8215C43.0102 29.5578 43.0368 29.2845 43.1395 29.036C43.2422 28.7875 43.4163 28.575 43.6398 28.4256C43.8633 28.2761 44.1262 28.1963 44.395 28.1963C44.7546 28.1963 45.0995 28.3389 45.3542 28.5927C45.6088 28.8465 45.7524 29.191 45.7536 29.5505Z" fill="white"/>
<path d="M38.2902 42.9067H35.4131V43.958H38.2902V42.9067Z" fill="#EBEBEB"/>
<path d="M78.1986 42.9067H40.3843V43.958H78.1986V42.9067Z" fill="#EBEBEB"/>
<path d="M115.195 42.9067H103.86V43.958H115.195V42.9067Z" fill="#EBEBEB"/>
<path d="M85.4327 42.9067H79.9682V43.958H85.4327V42.9067Z" fill="#FFC727"/>
<path d="M94.1767 56.9681H88.7122V58.0194H94.1767V56.9681Z" fill="#EBEBEB"/>
<path d="M102.445 42.9067H87.0508V43.958H102.445V42.9067Z" fill="#A6A6A6"/>
<path d="M41.1674 45.719H38.2902V46.7703H41.1674V45.719Z" fill="#EBEBEB"/>
<path d="M64.8511 45.719H43.1923V46.7703H64.8511V45.719Z" fill="#A6A6A6"/>
<path d="M87.4142 56.9681H79.224V58.0194H87.4142V56.9681Z" fill="#A6A6A6"/>
<path d="M61.0697 54.1558H40.3843V55.2072H61.0697V54.1558Z" fill="#A6A6A6"/>
<path d="M57.7036 48.5312H43.1923V49.5826H57.7036V48.5312Z" fill="#FFC727"/>
<path d="M98.1312 51.3435H83.6198V52.3949H98.1312V51.3435Z" fill="#A6A6A6"/>
<path d="M87.2974 48.5312H59.3131V49.5826H87.2974V48.5312Z" fill="#A6A6A6"/>
<path d="M77.3463 56.9681H40.3843V58.0194H77.3463V56.9681Z" fill="#FFC727"/>
<path d="M106.949 45.719H86.0081V46.7703H106.949V45.719Z" fill="#FFC727"/>
<path d="M84.8226 45.719H66.2097V46.7703H84.8226V45.719Z" fill="#EBEBEB"/>
<path d="M95.9289 48.5312H89.6424V49.5826H95.9289V48.5312Z" fill="#EBEBEB"/>
<path d="M41.1674 48.5312H38.2902V49.5826H41.1674V48.5312Z" fill="#EBEBEB"/>
<path d="M38.2902 51.3435H35.4131V52.3949H38.2902V51.3435Z" fill="#A6A6A6"/>
<path d="M57.3878 51.3435H40.3843V52.3949H57.3878V51.3435Z" fill="#EBEBEB"/>
<path d="M60.1957 59.7804H43.1923V60.8317H60.1957V59.7804Z" fill="#EBEBEB"/>
<path d="M90.7068 62.5926H71.8342V63.644H90.7068V62.5926Z" fill="#FFC727"/>
<path d="M83.4381 59.7804H61.5759V60.8317H83.4381V59.7804Z" fill="#FFC727"/>
<path d="M70.3502 62.5926H50.6945V63.644H70.3502V62.5926Z" fill="#EBEBEB"/>
<path d="M49.5826 62.5926H43.1923V63.644H49.5826V62.5926Z" fill="#A6A6A6"/>
<path d="M97.4606 62.5926H92.5369V63.644H97.4606V62.5926Z" fill="#A6A6A6"/>
<path d="M85.4326 54.1558H62.2422V55.2072H85.4326V54.1558Z" fill="#EBEBEB"/>
<path d="M104.258 54.1558H86.6181V55.2072H104.258V54.1558Z" fill="#FFC727"/>
<path d="M82.2829 51.3435H59.1184V52.3949H82.2829V51.3435Z" fill="#FFC727"/>
<path d="M38.2902 54.1558H35.4131V55.2072H38.2902V54.1558Z" fill="#EBEBEB"/>
<path d="M38.2902 56.9681H35.4131V58.0194H38.2902V56.9681Z" fill="#EBEBEB"/>
<path d="M41.1674 59.7804H38.2902V60.8317H41.1674V59.7804Z" fill="#A6A6A6"/>
<path d="M99.0527 59.7804H85.0692V60.8317H99.0527V59.7804Z" fill="#A6A6A6"/>
<path d="M101.74 64.9247H87.756V65.976H101.74V64.9247Z" fill="#A6A6A6"/>
<path d="M41.1674 62.5926H38.2902V63.644H41.1674V62.5926Z" fill="#EBEBEB"/>
<path d="M38.2902 64.9463H35.4131V65.9977H38.2902V64.9463Z" fill="#EBEBEB"/>
<path d="M74.1186 64.9463H40.3843V65.9977H74.1186V64.9463Z" fill="#EBEBEB"/>
<path d="M114.966 64.9463H104.08V65.9977H114.966V64.9463Z" fill="#EBEBEB"/>
<path d="M85.4283 64.9463H75.9185V65.9977H85.4283V64.9463Z" fill="#FFC727"/>
<path d="M41.1674 67.7586H38.2902V68.8099H41.1674V67.7586Z" fill="#EBEBEB"/>
<path d="M64.8511 67.7586H43.1923V68.8099H64.8511V67.7586Z" fill="#A6A6A6"/>
<path d="M61.0697 76.1997H40.3843V77.2511H61.0697V76.1997Z" fill="#A6A6A6"/>
<path d="M57.7036 70.5709H43.1923V71.6222H57.7036V70.5709Z" fill="#FFC727"/>
<path d="M87.2974 70.5709H59.3131V71.6222H87.2974V70.5709Z" fill="#A6A6A6"/>
<path d="M77.3463 79.012H40.3843V80.0634H77.3463V79.012Z" fill="#FFC727"/>
<path d="M106.949 67.7586H86.0081V68.8099H106.949V67.7586Z" fill="#FFC727"/>
<path d="M84.8226 67.7586H66.2097V68.8099H84.8226V67.7586Z" fill="#EBEBEB"/>
<path d="M94.9987 70.5709H88.7122V71.6222H94.9987V70.5709Z" fill="#EBEBEB"/>
<path d="M41.1674 70.5709H38.2902V71.6222H41.1674V70.5709Z" fill="#EBEBEB"/>
<path d="M38.2902 73.3875H35.4131V74.4388H38.2902V73.3875Z" fill="#A6A6A6"/>
<path d="M57.3878 73.3875H40.3843V74.4388H57.3878V73.3875Z" fill="#EBEBEB"/>
<path d="M101.29 73.3875H84.2861V74.4388H101.29V73.3875Z" fill="#A6A6A6"/>
<path d="M94.0858 76.1997H62.2422V77.2511H94.0858V76.1997Z" fill="#EBEBEB"/>
<path d="M82.2829 73.3875H59.1184V74.4388H82.2829V73.3875Z" fill="#FFC727"/>
<path d="M38.2902 76.1997H35.4131V77.2511H38.2902V76.1997Z" fill="#EBEBEB"/>
<path d="M38.195 40.2632L39.1642 37.9614C39.1755 37.9352 39.1919 37.9115 39.2123 37.8917C39.2328 37.8718 39.257 37.8562 39.2836 37.8458C39.3101 37.8353 39.3385 37.8302 39.367 37.8308C39.3955 37.8313 39.4236 37.8375 39.4498 37.8489C39.4758 37.8598 39.4994 37.8757 39.5192 37.8958C39.539 37.9159 39.5546 37.9397 39.5651 37.9659C39.5756 37.9921 39.5807 38.0201 39.5802 38.0483C39.5797 38.0765 39.5736 38.1044 39.5622 38.1302L38.5931 40.4362C38.5762 40.4749 38.5484 40.5078 38.513 40.5309C38.4776 40.554 38.4363 40.5662 38.3941 40.566C38.367 40.5722 38.3389 40.5722 38.3119 40.566C38.2831 40.5554 38.2569 40.5387 38.235 40.5172C38.2131 40.4956 38.1961 40.4696 38.1851 40.441C38.174 40.4123 38.1692 40.3817 38.1709 40.351C38.1726 40.3203 38.1809 40.2904 38.195 40.2632Z" fill="#FFC727"/>
<path d="M41.4703 39.3373L41.44 39.3632L40.3324 40.4881C40.2848 40.5344 40.2213 40.5607 40.155 40.5617C40.122 40.5619 40.0893 40.5555 40.0588 40.5429C40.0284 40.5302 40.0007 40.5116 39.9776 40.4881C39.9538 40.4651 39.9348 40.4376 39.9219 40.4071C39.909 40.3766 39.9023 40.3438 39.9023 40.3107C39.9023 40.2776 39.909 40.2449 39.9219 40.2144C39.9348 40.1839 39.9538 40.1564 39.9776 40.1334L40.9251 39.1945L39.9906 38.2513C39.9668 38.2283 39.9478 38.2007 39.9349 38.1702C39.922 38.1398 39.9153 38.107 39.9153 38.0739C39.9153 38.0408 39.922 38.008 39.9349 37.9775C39.9478 37.9471 39.9668 37.9195 39.9906 37.8965C40.0382 37.8505 40.1018 37.8248 40.168 37.8248C40.2342 37.8248 40.2978 37.8505 40.3454 37.8965L41.453 39.0214L41.4832 39.0474C41.4832 39.0474 41.4832 39.0474 41.5049 39.082C41.5265 39.1166 41.5049 39.082 41.5049 39.082C41.5031 39.0935 41.5031 39.1051 41.5049 39.1166V39.1426C41.5049 39.1426 41.5049 39.1426 41.5049 39.1642V39.2377C41.5038 39.2493 41.5038 39.2609 41.5049 39.2724L41.4703 39.3373Z" fill="#FFC727"/>
<path d="M280.981 168.931H232.541L242.202 112.751H278.42L280.981 168.931Z" fill="#DBDBDB"/>
<path d="M280.981 168.931H276.732L274.348 112.751H278.42L280.981 168.931Z" fill="#A6A6A6"/>
<path d="M240.67 123.801C236.776 139.281 232.921 151.119 228.508 154.018C224.952 156.358 219.955 157.998 214.815 159.145C209.321 160.304 203.756 161.1 198.157 161.529C196.427 161.671 194.995 161.762 193.978 161.831C191.455 161.991 187.332 145.351 189.115 143.322C189.526 142.859 191.187 142.5 193.515 142.202C201.359 141.22 216.805 140.99 217.744 140.112C218.683 139.234 226.574 128.166 233.319 119.504C237.966 113.516 242.829 115.221 240.67 123.801Z" fill="#EB9481"/>
<path d="M199.031 160.153C198.72 160.3 194.272 162.229 191.538 162.913C189.5 163.424 183.594 164.735 182.811 162.545C182.27 161.057 185.654 159.876 188.029 158.989C189.279 158.522 190.845 157.288 190.508 156.484C189.928 155.073 186.705 156.35 184.576 157.483C180.457 159.677 174.932 163.692 172.544 161.559C171.644 160.75 172.778 159.396 174.409 158.059C171.783 159.573 169.001 160.793 167.962 159.936C167.365 159.447 167.361 158.807 167.729 158.089C166.928 158.318 166.232 158.24 165.76 157.708C164.96 156.804 165.414 155.545 166.374 154.247C166.218 154.225 166.07 154.166 165.941 154.075C165.812 153.984 165.707 153.863 165.634 153.723C163.969 150.963 173.093 143.56 176.178 142.95C185.264 141.142 194.783 142.275 194.783 142.275C198.218 145.239 199.04 160.148 199.031 160.153Z" fill="#EB9481"/>
<path d="M186.116 151.296C183.959 151.536 181.882 152.249 180.033 153.386C177.87 154.749 176.139 156.657 174.141 158.214C174.089 158.258 174.141 158.344 174.21 158.297C175.153 157.488 176.183 156.769 177.156 155.999C178.13 155.229 179.047 154.459 180.046 153.775C181.854 152.514 183.926 151.679 186.104 151.335C186.147 151.296 186.138 151.296 186.116 151.296Z" fill="#263238"/>
<path d="M184.568 147.402C182.179 147.96 179.735 148.527 177.498 149.566C175.053 150.703 173.102 152.629 171.181 154.481C170.027 155.594 168.901 156.73 167.802 157.89C167.755 157.937 167.802 158.02 167.871 157.972C169.818 156.06 171.823 154.205 173.885 152.408C175.786 150.733 177.999 149.449 180.397 148.631C181.768 148.168 183.174 147.809 184.576 147.45C184.583 147.449 184.588 147.445 184.592 147.44C184.595 147.435 184.597 147.428 184.596 147.422C184.595 147.415 184.591 147.41 184.586 147.406C184.58 147.403 184.574 147.401 184.568 147.402Z" fill="#263238"/>
<path d="M182.179 143.971C179.865 144.361 177.853 144.689 175.767 145.845C173.016 147.372 170.316 150.024 169.368 150.963C168.321 152.001 167.309 153.074 166.314 154.16C166.275 154.204 166.348 154.277 166.392 154.234C168.665 151.853 171.09 149.621 173.652 147.554C174.858 146.549 176.212 145.738 177.667 145.148C179.137 144.634 180.648 144.246 182.184 143.989L182.179 143.971Z" fill="#263238"/>
<path d="M237.81 139.402L223.905 131.204C223.905 131.204 229.841 121.612 234.916 117.086C239.991 112.56 242.033 116.112 241.263 122.689C240.493 129.265 237.81 139.402 237.81 139.402Z" fill="#FFC727"/>
<path d="M226.103 129.118C228.331 130.256 234.28 133.531 237.854 136.188C237.875 136.188 237.823 136.296 237.798 136.283C234.479 134.552 228.136 130.594 226.021 129.257C225.977 129.231 226.055 129.097 226.103 129.118Z" fill="#263238"/>
<path d="M225.051 131.878L237.81 139.402C237.81 139.402 240.489 129.27 241.272 122.689C241.765 118.44 241.09 115.459 239.182 115.091L225.051 131.878Z" fill="#263238"/>
<path d="M224 168.931H272.025C272.557 167.958 264.67 125.908 248.497 114.07C244.906 111.444 238.546 113.131 236.763 115.684C227.833 128.525 224 168.931 224 168.931Z" fill="white"/>
<path d="M248.519 114.088C248.519 114.088 242.085 131.294 241.419 139.42C241.246 141.778 239.208 169.035 239.208 169.035H273.098C273.098 169.035 266.34 135.984 255.42 120.638C251.95 115.771 248.519 114.088 248.519 114.088Z" fill="#FFC727"/>
<path d="M238.252 113.815C238.252 113.815 232.541 127.634 231.113 135.448C230.326 139.744 226.354 169.04 226.354 169.04H222.715C222.715 169.04 226.354 137.676 232.112 123.485C235.189 115.887 238.252 113.815 238.252 113.815Z" fill="#FFC727"/>
<path opacity="0.1" d="M244.196 132.173L252.378 133.189C252.378 133.189 251.915 140.783 251.751 141.077C251.586 141.371 247.199 143.171 246.905 143.006C246.611 142.842 243.418 140.501 243.262 140.289C243.106 140.077 244.196 132.173 244.196 132.173Z" fill="black"/>
<path d="M238.624 123.45C241.475 123.97 246.083 119.422 247.809 115.836C247.926 115.589 246.442 106.088 246.343 104.154C246.343 103.76 234.488 107.689 234.488 107.689C234.488 107.689 235.877 111.643 236.028 114.979C236.054 115.277 235.872 122.944 238.624 123.45Z" fill="#EB9481"/>
<path d="M247.091 110.142C241.821 114.685 236.162 113.685 235.907 113.638C235.616 111.621 235.141 109.636 234.488 107.706C234.488 107.706 246.325 103.777 246.343 104.171C246.39 105.071 246.741 107.641 247.091 110.142Z" fill="#263238"/>
<path d="M228.803 88.4959C228.803 88.4959 225.462 90.9188 225.679 94.8473C225.895 98.7758 227.699 102.518 228.071 102.635C228.443 102.752 228.803 88.4959 228.803 88.4959Z" fill="#263238"/>
<path d="M245.793 89.5213C247.796 93.5017 247.658 106.019 245.135 109.238C241.475 113.902 234.449 115.489 230.222 110.856C226.124 106.36 226.596 90.0535 229.512 87.0248C233.804 82.5598 242.838 83.6415 245.793 89.5213Z" fill="#EB9481"/>
<path opacity="0.3" d="M245.14 109.238C241.479 113.902 234.453 115.489 230.226 110.856C228.729 109.216 227.846 106.006 227.466 102.44C227.466 102.44 228.495 104.976 229.971 104.993C230.389 104.993 230.796 104.857 231.131 104.607C231.466 104.357 231.712 104.005 231.831 103.604L232.446 103.401C233.44 104.106 234.598 104.545 235.81 104.675C237.022 104.805 238.247 104.623 239.368 104.145C243.301 102.514 243.959 97.798 243.959 97.798L247.186 97.9451C247.238 102.527 246.576 107.399 245.14 109.238Z" fill="black"/>
<path d="M235.003 98.9446C235.003 98.91 235.067 98.9835 235.067 99.0181C235.033 99.8835 235.141 100.831 235.902 101.117C235.924 101.117 235.902 101.168 235.902 101.164C234.964 101.017 234.838 99.7277 235.003 98.9446Z" fill="#263238"/>
<path d="M235.76 98.0793C237.118 97.9841 237.205 100.705 235.95 100.792C234.695 100.879 234.622 98.1355 235.76 98.0793Z" fill="#263238"/>
<path d="M230.351 99.2128C230.351 99.1825 230.287 99.2561 230.291 99.2907C230.343 100.13 230.265 101.104 229.512 101.411C229.512 101.411 229.512 101.463 229.512 101.458C230.429 101.294 230.538 100 230.351 99.2128Z" fill="#263238"/>
<path d="M229.564 98.3561C228.205 98.2999 228.188 101.021 229.447 101.073C230.706 101.125 230.711 98.4081 229.564 98.3561Z" fill="#263238"/>
<path d="M236.794 96.7813C236.432 96.6899 236.075 96.5787 235.725 96.4482C235.334 96.3808 234.976 96.1879 234.704 95.8987C234.637 95.7904 234.607 95.6632 234.62 95.5365C234.633 95.4098 234.686 95.2908 234.773 95.1978C234.973 95.04 235.212 94.9388 235.465 94.9046C235.718 94.8703 235.975 94.9043 236.21 95.0031C236.715 95.1287 237.156 95.437 237.447 95.8684C237.507 95.9708 237.536 96.0885 237.531 96.2072C237.526 96.3258 237.486 96.4404 237.417 96.537C237.348 96.6336 237.252 96.7081 237.142 96.7515C237.031 96.7948 236.91 96.8052 236.794 96.7813Z" fill="#263238"/>
<path d="M228.474 97.0236C228.837 96.938 229.195 96.8326 229.547 96.7077C229.939 96.6487 230.301 96.4617 230.576 96.1756C230.646 96.069 230.678 95.9423 230.668 95.8155C230.658 95.6887 230.606 95.5688 230.52 95.4747C230.323 95.3146 230.087 95.2099 229.836 95.1711C229.585 95.1323 229.329 95.1609 229.092 95.254C228.58 95.3746 228.132 95.6835 227.838 96.1193C227.782 96.2202 227.755 96.3348 227.762 96.45C227.768 96.5652 227.806 96.6763 227.873 96.7706C227.939 96.865 228.03 96.9387 228.137 96.9835C228.243 97.0282 228.36 97.0421 228.474 97.0236Z" fill="#263238"/>
<path d="M236.262 106.732C236.067 106.936 235.872 107.213 235.569 107.252C235.256 107.256 234.944 107.194 234.656 107.07C234.651 107.068 234.645 107.069 234.639 107.07C234.634 107.072 234.629 107.076 234.625 107.08C234.621 107.085 234.619 107.09 234.619 107.096C234.618 107.102 234.619 107.108 234.622 107.113C234.746 107.277 234.913 107.404 235.105 107.48C235.296 107.556 235.505 107.579 235.708 107.546C235.877 107.495 236.028 107.395 236.141 107.259C236.254 107.123 236.325 106.956 236.344 106.78C236.357 106.698 236.292 106.68 236.262 106.732Z" fill="#263238"/>
<path d="M235.292 104.219C235.089 104.559 234.818 104.853 234.496 105.083C234.173 105.313 233.807 105.474 233.419 105.556C233.082 105.633 232.735 105.66 232.389 105.638C232.323 105.644 232.256 105.644 232.19 105.638C232.128 105.634 232.066 105.627 232.004 105.616C231.96 105.608 231.919 105.586 231.888 105.554C231.857 105.521 231.837 105.479 231.831 105.434C231.829 105.406 231.829 105.377 231.831 105.348V105.274C231.792 104.625 231.831 103.635 231.831 103.635C231.598 103.764 230.408 104.348 230.416 104.007C230.49 101.194 230.572 98.0706 231.243 95.2886C231.243 95.268 231.251 95.2481 231.266 95.2335C231.28 95.2189 231.3 95.2107 231.321 95.2107C231.341 95.2107 231.361 95.2189 231.376 95.2335C231.39 95.2481 231.398 95.268 231.398 95.2886C231.433 97.997 230.992 100.688 230.966 103.405C231.389 103.199 231.839 103.053 232.303 102.973C232.398 102.973 232.212 104.881 232.251 105.171C232.249 105.181 232.249 105.191 232.251 105.201C233.345 105.305 234.155 104.95 235.189 104.184C235.271 104.093 235.34 104.136 235.292 104.219Z" fill="#263238"/>
<path d="M232.761 105.296C233.133 105.747 233.614 106.096 234.159 106.308C234.459 106.414 234.784 106.424 235.089 106.334C235.76 106.135 235.755 105.517 235.613 104.993C235.536 104.714 235.426 104.445 235.284 104.193C234.582 104.82 233.698 105.206 232.761 105.296Z" fill="#263238"/>
<path d="M234.159 106.3C234.459 106.406 234.784 106.415 235.089 106.326C235.76 106.127 235.755 105.508 235.613 104.984C234.894 105.093 234.198 105.603 234.159 106.3Z" fill="#FF99BA"/>
<path d="M246.953 101.541C245.456 101.999 243.725 97.5038 243.236 95.7732C242.803 94.2459 242.301 89.4088 242.228 89.0799C242.154 88.7511 235.708 93.3719 231.935 92.2773C228.162 91.1827 225.631 87.7993 225.575 86.2201C225.519 84.6409 230.2 80.6215 234.254 80.4095C238.308 80.1975 243.803 85.3418 243.803 85.3418C243.803 85.3418 241.934 83.1179 241.999 82.9362C242.064 82.7545 244.681 83.8015 245.166 85.662C245.166 85.662 244.646 83.3169 244.841 83.2737C245.036 83.2304 247.078 85.2336 246.624 86.7566C246.624 86.7566 248.982 88.7901 249.22 91.0269C249.458 93.2638 248.709 101.004 246.953 101.541Z" fill="#263238"/>
<path d="M229.253 91.4985C230.399 92.0264 231.55 92.6061 232.818 92.7706C234.207 92.8868 235.603 92.6611 236.885 92.1129C238.18 91.6042 239.384 90.8882 240.45 89.9929C241.389 89.2141 242.228 88.2623 243.232 87.583C243.483 87.4099 243.777 87.7734 243.621 88.0156C241.945 90.3915 239.548 92.1637 236.785 93.0691C234.042 93.9344 231.459 93.333 229.235 91.5418C229.222 91.5202 229.231 91.4899 229.253 91.4985Z" fill="#263238"/>
<path d="M244.897 99.8575C244.897 99.8575 247.061 95.5049 248.99 96.2145C250.92 96.9241 249.713 102.947 247.736 104.046C247.491 104.202 247.217 104.308 246.931 104.357C246.645 104.406 246.352 104.396 246.069 104.329C245.786 104.262 245.52 104.139 245.286 103.967C245.052 103.795 244.855 103.577 244.707 103.327L244.897 99.8575Z" fill="#EB9481"/>
<path d="M248.601 97.9322C248.631 97.9322 248.649 97.9711 248.601 97.9884C247.221 98.8061 246.654 100.286 246.325 101.778C246.68 101.168 247.229 100.783 248.056 101.194C248.095 101.216 248.056 101.281 248.026 101.277C247.755 101.234 247.477 101.276 247.231 101.397C246.985 101.517 246.782 101.711 246.65 101.952C246.435 102.357 246.262 102.783 246.135 103.224C246.087 103.366 245.841 103.332 245.867 103.172C245.865 103.16 245.865 103.149 245.867 103.137C245.572 101.268 246.615 98.4254 248.601 97.9322Z" fill="#263238"/>
<path d="M255.601 119.171C264.908 130.853 277.269 151.344 271.714 155.541C262.58 162.433 236.586 165.574 230.633 166.045C228.063 166.253 223.615 149.332 225.406 147.238C227.197 145.144 254.567 144.72 254.827 143.05C254.974 142.107 251.162 133.665 248.904 123.416C246.299 111.595 252.979 115.874 255.601 119.171Z" fill="#EB9481"/>
<path d="M229.936 146.039C229.936 146.039 222.105 145.667 216.956 145.659C214.092 145.659 209.169 146.091 207.079 147.052C203.929 148.488 191.676 156.51 193.558 159.521C195.259 162.247 204.911 154.022 204.911 154.022C204.911 154.022 194.449 161.459 197.115 164.367C199.78 167.274 209.437 156.531 209.437 156.531C209.437 156.531 198.845 164.414 202.047 166.98C204.474 168.918 213.776 159.681 213.776 159.681C213.776 159.681 204.725 166.521 207.135 168.603C209.796 170.926 218.921 162.935 218.921 162.935C225.943 167.261 231.035 166.422 234.613 165.405C235.474 165.18 229.936 146.039 229.936 146.039Z" fill="#EB9481"/>
<path d="M208.364 151.214C207.1 152.045 205.82 152.875 204.634 153.81C203.449 154.744 202.298 155.731 201.208 156.774C199.763 158.116 198.474 159.616 197.366 161.247C199.551 158.496 203.734 155.069 204.92 154.13C206.105 153.191 207.235 152.196 208.416 151.257C208.446 151.236 208.411 151.197 208.364 151.214Z" fill="#263238"/>
<path d="M211.847 155.428C210.28 156.557 208.688 157.622 207.17 158.82C205.651 160.019 203.605 161.754 202.181 163.047C202.073 163.147 202.181 163.346 202.285 163.251C203.756 162.017 205.937 160.334 207.425 159.114C208.913 157.894 210.354 156.622 211.877 155.463C211.903 155.445 211.873 155.411 211.847 155.428Z" fill="#263238"/>
<path d="M215.472 158.509C212.993 160.109 210.813 162.169 208.719 164.241C208.615 164.345 208.719 164.362 208.848 164.263C211.055 162.316 212.777 160.776 215.529 158.595C215.572 158.561 215.524 158.474 215.472 158.509Z" fill="#263238"/>
<path d="M231.052 145.84C227.474 145.672 216.978 145.222 213.4 145.351C210.246 145.464 207.607 146.039 204.885 147.683C199.053 151.21 195.215 155.471 194.255 156.769C193.671 157.544 192.814 158.777 193.515 159.69C194.38 160.802 197.699 159.884 201.303 156.882C201.433 156.774 201.359 156.696 201.225 156.795C196.184 160.555 194.259 160.019 193.779 159.322C193.467 158.889 193.813 158.128 194.134 157.561C194.643 156.742 195.255 155.992 195.955 155.329C198.289 153.01 200.852 150.934 203.605 149.133C206.565 147.102 210.042 145.956 213.629 145.827C217.294 145.672 227.401 146.178 231.061 145.97C231.135 145.97 231.126 145.845 231.052 145.84Z" fill="#263238"/>
<path d="M196.587 162.775C196.829 161.805 197.565 160.944 198.153 160.179C198.869 159.193 199.684 158.282 200.585 157.462C200.624 157.427 200.684 157.462 200.649 157.518C199.878 158.349 199.156 159.224 198.486 160.14C198.134 160.646 197.81 161.172 197.517 161.715C197.236 162.234 196.911 162.84 197.019 163.445C197.223 164.618 198.698 164.648 199.585 164.367C200.16 164.178 200.716 163.936 201.247 163.644C201.965 163.221 202.652 162.745 203.302 162.221C203.358 162.173 203.492 162.199 203.436 162.247C202.086 163.437 199.516 165.916 197.543 164.886C197.163 164.7 196.86 164.387 196.686 164.002C196.511 163.617 196.476 163.183 196.587 162.775Z" fill="#263238"/>
<path d="M267.067 131.255L252.201 137.546C252.201 137.546 248.03 127.067 247.411 120.296C246.792 113.525 250.872 113.997 255.692 118.531C260.512 123.065 267.067 131.255 267.067 131.255Z" fill="#FFC727"/>
<path d="M251.829 134.544C254.07 133.432 260.244 130.598 264.51 129.309C264.531 129.309 264.575 129.399 264.553 129.412C261.183 131.043 254.23 133.787 251.894 134.691C251.85 134.708 251.785 134.565 251.829 134.544Z" fill="#263238"/>
<path d="M248.601 128.958C248.603 128.954 248.606 128.951 248.609 128.949C248.612 128.947 248.616 128.946 248.62 128.946C248.625 128.946 248.629 128.947 248.632 128.949C248.635 128.951 248.638 128.954 248.64 128.958C248.943 129.469 249.211 129.983 249.471 130.516C249.146 129.343 248.843 128.166 248.571 126.985C248.571 126.942 248.618 126.929 248.636 126.985C249.843 130.446 251.136 133.847 252.27 137.313C252.655 137.274 253.044 137.226 253.425 137.153C253.438 137.151 253.45 137.154 253.46 137.161C253.471 137.168 253.478 137.179 253.481 137.191C253.485 137.203 253.483 137.216 253.478 137.227C253.472 137.238 253.463 137.247 253.451 137.252C253.04 137.378 252.633 137.533 252.231 137.685C252.186 137.71 252.132 137.716 252.082 137.703C252.032 137.689 251.989 137.656 251.963 137.611C251.117 135.653 250.395 133.645 249.799 131.597C249.622 131.29 249.449 130.983 249.293 130.663C249.023 130.111 248.792 129.542 248.601 128.958Z" fill="#263238"/>
<path d="M14.1739 168.931H62.6099L52.953 112.751H16.7309L14.1739 168.931Z" fill="#DBDBDB"/>
<path d="M14.1739 168.931H18.4183L20.8022 112.751H16.7309L14.1739 168.931Z" fill="#A6A6A6"/>
<path d="M65.2016 133.189L59.7847 133.246C58.8069 131.45 57.6906 128.274 58.3526 123.809C58.4651 123.074 56.4835 127.301 57.033 133.276C51.3132 133.337 43.534 133.414 36.737 133.423C36.6851 130.909 36.5163 128.586 36.5163 128.586C36.2492 130.236 35.8277 131.857 35.2573 133.427C34.3314 133.427 33.4185 133.427 32.5445 133.427C32.8647 129.534 32.3758 122.728 32.3758 122.728C31.7577 126.471 30.5098 130.083 28.6852 133.41C24.3586 133.371 21.5334 133.272 21.7238 133.081C28.4689 126.077 23.8178 121.94 25.8686 115.723C28.3261 108.277 35.1664 107.174 35.1405 101.558C35.1405 96.989 34.79 88.6906 40.9381 86.9946C40.9381 86.9946 46.0564 81.9152 53.7534 84.8313C63.2719 88.4396 59.0232 102.484 59.59 105.357C60.3991 109.458 62.4109 110.929 63.8041 115.615C65.1972 120.301 62.8522 123.463 62.5061 126.665C62.16 129.867 66.2875 133.194 65.2016 133.189Z" fill="#263238"/>
<path d="M21.5637 132.069C22.4888 130.856 23.2348 129.517 23.7789 128.093C24.3154 126.708 24.1466 125.28 23.8957 123.805C23.5954 122.31 23.3773 120.799 23.2424 119.279C23.1189 117.688 23.3312 116.089 23.8654 114.585C24.4504 113.053 25.3819 111.678 26.5868 110.566C27.7724 109.486 29.0427 108.504 30.3856 107.628C31.6798 106.796 32.862 105.801 33.9031 104.669C34.889 103.514 35.5319 102.107 35.7592 100.606C35.7691 102.176 35.2847 103.709 34.3747 104.989C33.4119 106.265 32.266 107.392 30.974 108.333C29.7347 109.254 28.5541 110.251 27.4392 111.319C26.3932 112.345 25.5853 113.589 25.0725 114.962C24.6057 116.327 24.4059 117.769 24.4841 119.21C24.5274 120.673 24.7697 122.148 24.9168 123.667C25.009 124.439 25.0379 125.217 25.0033 125.994C24.9425 126.798 24.7327 127.583 24.3846 128.309C23.6735 129.719 22.7184 130.992 21.5637 132.069Z" fill="#263238"/>
<path d="M59.0362 90.1443C59.7328 91.8749 59.9491 93.7656 60.1741 95.6131C60.3991 97.4605 60.4553 99.3296 60.5245 101.181L60.65 103.95C60.6781 104.843 60.797 105.73 61.0048 106.598C61.4374 108.329 62.3979 109.822 63.4926 111.358C64.0468 112.143 64.547 112.966 64.9896 113.819C65.4247 114.69 65.7558 115.61 65.976 116.558C66.1616 117.5 66.273 118.455 66.3092 119.414C66.3473 120.382 66.2616 121.352 66.0539 122.299C65.8462 123.247 65.5347 124.143 65.2708 125.025C65.0048 125.896 64.8265 126.792 64.7386 127.699C64.5396 129.473 65.4741 131.26 66.9582 132.458C66.1161 131.976 65.413 131.285 64.9172 130.451C64.4214 129.617 64.1497 128.669 64.1286 127.699C64.1387 126.744 64.2519 125.792 64.466 124.861C64.6694 123.931 64.942 123.039 65.0761 122.157C65.3249 120.381 65.2294 118.574 64.7949 116.835C64.5746 115.977 64.2612 115.146 63.8603 114.356C63.4327 113.552 62.9499 112.778 62.4152 112.041C61.8623 111.263 61.3511 110.455 60.8836 109.623C60.4108 108.764 60.0557 107.846 59.828 106.892C59.6292 105.951 59.5291 104.991 59.5294 104.028C59.5035 103.089 59.5294 102.159 59.5294 101.229C59.5294 99.3729 59.59 97.5211 59.5554 95.6737C59.5832 93.8172 59.4091 91.9631 59.0362 90.1443Z" fill="#263238"/>
<path d="M46.7574 123.822C49.8422 137.235 56.0811 154.251 60.9053 157.682C64.7992 160.447 85.199 165.323 86.3369 165.444C89.1535 165.73 94.7175 145.827 91.7971 145.018C88.1195 144.002 70.6314 143.456 69.6363 142.422C68.6412 141.388 62.2379 132.735 55.0341 122.754C50.0629 115.866 44.845 115.489 46.7574 123.822Z" fill="#C95F50"/>
<path d="M84.0741 164.349C84.4116 164.523 89.1752 166.915 92.1216 167.772C94.3195 168.408 100.697 170.074 101.64 167.724C102.285 166.119 98.646 164.696 96.102 163.64C94.7564 163.077 93.1037 161.676 93.5061 160.81C94.194 159.305 97.6509 160.81 99.9224 162.139C104.318 164.691 110.168 169.286 112.855 167.058C113.867 166.214 112.69 164.678 110.964 163.164C113.763 164.916 116.744 166.353 117.908 165.461C118.574 164.955 118.609 164.259 118.237 163.463C119.102 163.744 119.864 163.688 120.4 163.125C121.313 162.173 120.867 160.771 119.872 159.331C120.043 159.312 120.207 159.254 120.35 159.16C120.494 159.066 120.613 158.939 120.699 158.79C122.624 155.852 112.989 147.428 109.657 146.641C99.8532 144.309 89.4261 145.157 89.4261 145.157C85.5625 148.268 84.0698 164.345 84.0741 164.349Z" fill="#C95F50"/>
<path d="M98.4903 155.324C100.823 155.691 103.051 156.55 105.028 157.842C107.516 159.482 109.164 161.403 111.249 163.337C111.301 163.389 111.228 163.475 111.171 163.424C110.176 162.506 106.062 159.049 104.997 158.262C103.07 156.813 100.837 155.823 98.4686 155.367C98.4686 155.363 98.4686 155.324 98.4903 155.324Z" fill="#263238"/>
<path d="M100.316 151.166C102.912 151.872 105.534 152.586 107.927 153.801C110.544 155.134 112.591 157.31 114.602 159.404C115.814 160.659 116.995 161.941 118.146 163.251C118.194 163.307 118.12 163.393 118.068 163.337C116.026 161.177 113.919 159.078 111.747 157.042C109.749 155.143 107.397 153.657 104.824 152.668C103.353 152.105 101.839 151.66 100.325 151.214C100.281 151.205 100.29 151.158 100.316 151.166Z" fill="#263238"/>
<path d="M103.068 147.528C105.573 148.043 107.758 148.484 109.99 149.825C112.924 151.599 115.758 154.584 116.753 155.653C117.852 156.826 118.916 158.033 119.946 159.257C119.989 159.305 119.903 159.378 119.859 159.331C117.48 156.647 114.929 154.121 112.223 151.768C110.951 150.627 109.511 149.69 107.953 148.99C106.374 148.371 104.746 147.887 103.085 147.545C103.085 147.545 103.059 147.528 103.068 147.528Z" fill="#263238"/>
<path d="M69.4806 140.48L50.6729 139.679C50.6729 139.679 47.2549 130.36 46.0002 122.087C44.7455 113.815 51.7935 116.783 58.7766 125.696C65.7597 134.609 69.4806 140.48 69.4806 140.48Z" fill="#FFC727"/>
<path d="M51.1099 123.121C51.0068 123.21 50.8835 123.273 50.7508 123.303C50.6306 123.328 50.5059 123.323 50.3886 123.286C50.2712 123.25 50.1651 123.184 50.0802 123.096C49.945 122.966 49.7744 122.881 49.5902 122.849C49.406 122.817 49.2166 122.841 49.0461 122.918C48.8885 122.992 48.7549 123.109 48.661 123.256C48.5745 123.385 48.4793 123.507 48.4015 123.645C48.5399 123.567 48.661 123.472 48.7908 123.385C48.8937 123.294 49.0168 123.229 49.1499 123.195C49.2672 123.164 49.3904 123.164 49.5078 123.194C49.6252 123.224 49.7329 123.284 49.8206 123.368C49.9516 123.501 50.1185 123.592 50.3008 123.63C50.4831 123.669 50.6726 123.653 50.846 123.584C51.0056 123.514 51.142 123.4 51.2397 123.256C51.3262 123.126 51.4214 123.005 51.4993 122.862C51.3608 122.944 51.2397 123.039 51.1099 123.121ZM52.1396 131.827C52.1093 131.675 52.092 131.519 52.0488 131.368C52.0055 131.519 51.9882 131.675 51.9536 131.827C51.9461 131.964 51.9061 132.097 51.8368 132.216C51.7758 132.321 51.6888 132.408 51.5842 132.469C51.4796 132.531 51.3609 132.564 51.2397 132.566C51.1029 132.563 50.967 132.59 50.8421 132.645C50.7171 132.701 50.6061 132.784 50.5173 132.888C50.4286 132.992 50.3642 133.115 50.329 133.247C50.2938 133.379 50.2886 133.518 50.3138 133.652C50.3441 133.804 50.3657 133.96 50.409 134.111C50.4522 133.96 50.4696 133.804 50.4998 133.652C50.5106 133.517 50.5552 133.386 50.6296 133.272C50.6957 133.169 50.7868 133.085 50.8943 133.028C51.0018 132.97 51.1221 132.941 51.244 132.943C51.4324 132.94 51.6156 132.881 51.7699 132.773C51.9243 132.665 52.0425 132.513 52.1093 132.337C52.1681 132.173 52.1786 131.996 52.1396 131.827ZM65.5044 138.823V138.862C65.4431 138.967 65.3554 139.055 65.25 139.116C65.1446 139.178 65.025 139.211 64.903 139.212C64.7185 139.214 64.5385 139.269 64.3849 139.371C64.2313 139.473 64.1107 139.618 64.0377 139.787C63.9732 139.933 63.9522 140.093 63.9771 140.25H64.1805C64.1957 140.13 64.237 140.015 64.3016 139.913C64.3673 139.809 64.4587 139.723 64.5672 139.665C64.6756 139.607 64.7972 139.577 64.9203 139.58C65.0641 139.577 65.2055 139.542 65.3337 139.477C65.4619 139.412 65.5735 139.318 65.6602 139.203L65.5044 138.823ZM57.7166 139.623C57.6137 139.714 57.4906 139.779 57.3575 139.813C57.2405 139.844 57.1177 139.843 57.001 139.812C56.8843 139.781 56.7775 139.721 56.6912 139.636C56.5603 139.503 56.3931 139.412 56.2106 139.375C56.0281 139.337 55.8385 139.354 55.6658 139.424C55.5042 139.493 55.366 139.607 55.2677 139.753C55.2414 139.795 55.2125 139.835 55.1812 139.874H55.3975C55.5024 139.789 55.6251 139.728 55.7566 139.697C55.8765 139.672 56.0007 139.677 56.1179 139.713C56.2351 139.748 56.3414 139.813 56.4273 139.9L56.4532 139.922L57.6344 139.969C57.716 139.905 57.7875 139.829 57.8464 139.744C57.9329 139.614 58.0281 139.493 58.106 139.355C57.9545 139.437 57.8334 139.532 57.7036 139.614L57.7166 139.623ZM61.1778 129.875C61.044 129.865 60.9149 129.822 60.8014 129.75C60.6981 129.684 60.6135 129.592 60.5559 129.484C60.4983 129.375 60.4696 129.254 60.4726 129.131C60.4718 128.994 60.4405 128.859 60.3808 128.735C60.3212 128.612 60.2347 128.503 60.1278 128.417C60.0208 128.332 59.8961 128.271 59.7626 128.239C59.6292 128.208 59.4904 128.207 59.3564 128.236C59.2006 128.27 59.0492 128.287 58.8934 128.331C59.0492 128.374 59.2006 128.391 59.3564 128.422C59.4918 128.431 59.6233 128.471 59.7414 128.538C59.8463 128.6 59.9336 128.688 59.9949 128.793C60.0562 128.899 60.0896 129.018 60.0919 129.14C60.0919 129.325 60.1466 129.505 60.249 129.659C60.3513 129.813 60.4969 129.934 60.6673 130.005C60.8288 130.072 61.0068 130.089 61.1778 130.053C61.3336 130.022 61.485 130.005 61.6365 129.962C61.4547 129.923 61.3033 129.906 61.1476 129.871L61.1778 129.875Z" fill="white"/>
<path d="M50.0369 135.599C54.1039 135.496 58.1838 135.673 62.2508 135.937C63.4046 136.009 64.5583 136.108 65.7121 136.235C65.7467 136.235 65.7467 136.287 65.7121 136.287C63.6786 136.287 61.6451 136.222 59.6116 136.162C57.5781 136.101 55.536 136.019 53.4982 135.898C52.3473 135.833 51.2007 135.764 50.0369 135.673C50.031 135.675 50.0248 135.676 50.0186 135.675C50.0125 135.674 50.0066 135.671 50.0015 135.668C49.9965 135.664 49.9923 135.66 49.9895 135.654C49.9866 135.648 49.9852 135.642 49.9852 135.636C49.9852 135.63 49.9866 135.624 49.9895 135.618C49.9923 135.613 49.9965 135.608 50.0015 135.604C50.0066 135.601 50.0125 135.598 50.0186 135.598C50.0248 135.597 50.031 135.597 50.0369 135.599Z" fill="#263238"/>
<path d="M66.9538 140.372L50.6772 139.679C50.6772 139.679 47.2592 130.36 46.0045 122.087C45.4724 118.566 46.4372 117.082 48.2673 117.224L66.9538 140.372Z" fill="#263238"/>
<path d="M62.6359 168.879H16.6573C16.6573 168.879 26.6474 130.312 35.889 119.457C36.0967 119.206 36.3216 118.968 36.5207 118.747L36.6461 118.618C37.3629 117.853 38.1968 117.207 39.1166 116.705C39.281 116.619 39.4411 116.536 39.6098 116.463C43.1706 114.827 46.9304 116.182 49.6432 118.505C50.5085 119.241 60.252 131.917 61.113 136.755C61.8571 141.025 58.9756 145.607 58.9756 145.607L62.6359 168.879Z" fill="#FFC727"/>
<path d="M42.102 128.231C41.9682 128.221 41.839 128.177 41.7255 128.106C41.6222 128.04 41.5376 127.948 41.48 127.839C41.4224 127.731 41.3937 127.61 41.3967 127.487C41.396 127.35 41.3646 127.215 41.3049 127.091C41.2453 126.968 41.1588 126.859 41.0519 126.773C40.9449 126.688 40.8202 126.627 40.6867 126.595C40.5533 126.564 40.4145 126.562 40.2805 126.591C40.1247 126.622 39.9733 126.643 39.8218 126.687C39.9733 126.726 40.1247 126.747 40.2805 126.777C40.4162 126.786 40.5481 126.826 40.6655 126.894C40.7703 126.955 40.8577 127.042 40.9191 127.147C40.9805 127.251 41.0138 127.37 41.016 127.491C41.0177 127.676 41.073 127.856 41.1752 128.009C41.2774 128.163 41.422 128.284 41.5914 128.357C41.7529 128.424 41.9309 128.44 42.102 128.404C42.2577 128.374 42.4091 128.357 42.5649 128.313C42.4091 128.283 42.2577 128.261 42.102 128.231ZM50.5864 158.582C50.4525 158.569 50.3236 158.524 50.21 158.452C50.1066 158.386 50.022 158.294 49.9644 158.186C49.9068 158.078 49.8781 157.956 49.8811 157.834C49.8813 157.696 49.8506 157.561 49.7911 157.437C49.7317 157.313 49.6451 157.205 49.5379 157.119C49.4306 157.033 49.3054 156.973 49.1715 156.942C49.0377 156.912 48.8987 156.912 48.7649 156.942C48.6091 156.973 48.4577 156.99 48.3063 157.033C48.4577 157.077 48.6091 157.094 48.7649 157.124C48.8999 157.136 49.031 157.176 49.15 157.241C49.2551 157.303 49.3426 157.39 49.404 157.496C49.4654 157.601 49.4986 157.72 49.5004 157.842C49.5016 158.027 49.5567 158.207 49.6589 158.361C49.7611 158.515 49.9061 158.635 50.0758 158.708C50.2377 158.773 50.4147 158.791 50.5864 158.76C50.7421 158.725 50.8936 158.708 51.0493 158.664C50.8763 158.651 50.7421 158.612 50.5864 158.582ZM30.0697 140.912C29.9359 140.902 29.8067 140.859 29.6933 140.787C29.59 140.72 29.5053 140.629 29.447 140.521C29.3888 140.412 29.3589 140.291 29.3602 140.168C29.3592 139.98 29.3012 139.797 29.1938 139.642C29.0865 139.488 28.9348 139.369 28.7588 139.303C28.595 139.245 28.4184 139.233 28.2482 139.268C28.0925 139.299 27.9411 139.32 27.7853 139.359C27.9411 139.402 28.0925 139.424 28.2482 139.454C28.384 139.462 28.5159 139.503 28.6333 139.571C28.7376 139.633 28.8245 139.72 28.8858 139.824C28.9471 139.929 28.9808 140.047 28.9838 140.168C28.9838 140.353 29.0385 140.534 29.1408 140.688C29.2432 140.842 29.3887 140.962 29.5592 141.034C29.7207 141.101 29.8987 141.117 30.0697 141.081C30.2255 141.051 30.3769 141.029 30.5284 140.99C30.3769 140.982 30.2255 140.96 30.0697 140.912ZM48.1938 168.719C48.0588 168.708 47.9284 168.665 47.813 168.594C47.7103 168.527 47.6261 168.435 47.5686 168.327C47.5111 168.219 47.4821 168.098 47.4842 167.975C47.4835 167.838 47.4521 167.703 47.3924 167.579C47.3328 167.456 47.2463 167.347 47.1394 167.262C47.0324 167.176 46.9077 167.115 46.7742 167.083C46.6408 167.052 46.502 167.051 46.368 167.08C46.2165 167.11 46.0608 167.131 45.9093 167.17C46.0608 167.214 46.2165 167.235 46.368 167.266C46.5052 167.273 46.6387 167.313 46.7574 167.382C46.8616 167.444 46.9485 167.531 47.0098 167.636C47.0711 167.74 47.1048 167.858 47.1078 167.979C47.1081 168.164 47.1623 168.344 47.2638 168.498C47.3653 168.651 47.5096 168.772 47.6789 168.845H48.4231C48.5003 168.833 48.5769 168.817 48.6524 168.797C48.501 168.789 48.3452 168.767 48.1938 168.737V168.719ZM39.268 153.78C39.1345 153.765 39.0059 153.721 38.8916 153.65C38.7883 153.584 38.7037 153.492 38.6461 153.384C38.5885 153.275 38.5598 153.154 38.5628 153.031C38.5615 152.843 38.5029 152.659 38.3947 152.504C38.2865 152.35 38.1339 152.232 37.9571 152.166C37.7962 152.119 37.6255 152.117 37.4639 152.162C37.3081 152.192 37.1567 152.209 37.0052 152.252C37.1567 152.296 37.3081 152.313 37.4639 152.343C37.5989 152.355 37.73 152.395 37.8489 152.46C37.9541 152.522 38.0416 152.609 38.103 152.715C38.1643 152.82 38.1976 152.94 38.1994 153.061C38.2006 153.246 38.2557 153.426 38.3579 153.58C38.4601 153.734 38.605 153.854 38.7748 153.927C38.9366 153.992 39.1137 154.01 39.2854 153.979C39.4411 153.944 39.5925 153.927 39.7483 153.883C39.5752 153.845 39.4238 153.827 39.268 153.797V153.78ZM17.0164 167.625H16.9862L16.9342 167.828H17.0208C17.1722 167.793 17.3236 167.776 17.4794 167.733C17.3264 167.7 17.1719 167.676 17.0164 167.659V167.625ZM22.7535 156.51C22.6197 156.499 22.4905 156.456 22.3771 156.384C22.2737 156.318 22.1891 156.226 22.1315 156.118C22.0739 156.01 22.0453 155.888 22.0483 155.766C22.0475 155.628 22.0161 155.493 21.9565 155.37C21.8968 155.246 21.8104 155.138 21.7034 155.052C21.5965 154.966 21.4717 154.905 21.3383 154.874C21.2048 154.842 21.066 154.841 20.932 154.87L20.6594 154.922L20.6335 155L20.932 155.056C21.0677 155.064 21.1997 155.104 21.3171 155.173C21.4213 155.234 21.5082 155.322 21.5695 155.426C21.6308 155.53 21.6645 155.649 21.6675 155.77C21.6676 155.955 21.7222 156.135 21.8246 156.289C21.927 156.443 22.0725 156.564 22.243 156.635C22.4044 156.702 22.5824 156.719 22.7535 156.683C22.9092 156.653 23.0607 156.635 23.2121 156.592C23.0693 156.562 22.9179 156.54 22.7535 156.51ZM46.8612 141.297C46.7261 141.283 46.5959 141.239 46.4805 141.168C46.3777 141.101 46.2936 141.009 46.236 140.901C46.1785 140.793 46.1495 140.672 46.1516 140.549C46.1503 140.36 46.0917 140.177 45.9835 140.022C45.8753 139.867 45.7227 139.749 45.5459 139.684C45.3826 139.623 45.2054 139.611 45.0354 139.649C44.8839 139.679 44.7282 139.697 44.5768 139.74C44.7282 139.783 44.8839 139.8 45.0354 139.831C45.1718 139.843 45.3042 139.883 45.4248 139.948C45.5288 140.01 45.6152 140.098 45.6758 140.203C45.7364 140.309 45.7691 140.428 45.7709 140.549C45.7721 140.734 45.8272 140.914 45.9294 141.068C46.0316 141.221 46.1765 141.342 46.3463 141.414C46.5096 141.48 46.6881 141.498 46.8612 141.466C47.0126 141.432 47.1684 141.414 47.3198 141.371C47.177 141.345 47.0213 141.345 46.8698 141.297H46.8612ZM59.5424 149.258C59.4244 149.24 59.3112 149.199 59.2093 149.137C59.1065 149.07 59.0224 148.979 58.9648 148.87C58.9073 148.762 58.8783 148.641 58.8804 148.519C58.8785 148.33 58.8196 148.147 58.7115 147.992C58.6034 147.838 58.4512 147.72 58.2747 147.653C58.1105 147.597 57.9339 147.586 57.7642 147.623C57.6127 147.653 57.4613 147.671 57.3056 147.714C57.4613 147.757 57.6127 147.774 57.7642 147.805C57.9007 147.816 58.0333 147.856 58.1536 147.921C58.2582 147.984 58.3452 148.072 58.4065 148.177C58.4678 148.282 58.5014 148.401 58.504 148.523C58.5037 148.707 58.5577 148.888 58.6593 149.041C58.7609 149.195 58.9055 149.316 59.0751 149.388C59.2329 149.452 59.4052 149.47 59.5727 149.44L59.5424 149.258ZM57.7036 139.614C57.6007 139.705 57.4776 139.771 57.3445 139.805C57.2276 139.835 57.1048 139.835 56.988 139.804C56.8713 139.773 56.7646 139.712 56.6782 139.627C56.5473 139.495 56.3801 139.404 56.1976 139.366C56.0151 139.328 55.8255 139.345 55.6528 139.415C55.4912 139.484 55.353 139.599 55.2548 139.744C55.1682 139.874 55.073 139.995 54.9952 140.134C55.1336 140.056 55.2548 139.961 55.3846 139.874C55.4894 139.789 55.6122 139.728 55.7437 139.697C55.8635 139.672 55.9877 139.677 56.1049 139.713C56.2221 139.748 56.3285 139.813 56.4143 139.9C56.5483 140.031 56.7187 140.118 56.9032 140.151C57.0877 140.183 57.2777 140.159 57.4483 140.082C57.6051 140.006 57.7383 139.89 57.8334 139.744C57.9199 139.614 58.0151 139.493 58.093 139.355C57.9545 139.437 57.8334 139.532 57.7036 139.614ZM42.102 116.251C42.0717 116.108 42.0544 115.961 42.0197 115.818C41.9851 115.961 41.9678 116.108 41.9375 116.251C41.9282 116.388 41.8883 116.521 41.8207 116.64C41.7582 116.744 41.6701 116.831 41.5649 116.891C41.4597 116.952 41.3407 116.985 41.2193 116.986C41.0348 116.988 40.8548 117.043 40.7012 117.146C40.5476 117.248 40.427 117.392 40.354 117.562C40.2876 117.725 40.2711 117.904 40.3064 118.077C40.3367 118.228 40.354 118.384 40.3973 118.535C40.4405 118.384 40.4579 118.228 40.4925 118.077C40.5039 117.942 40.5469 117.811 40.6179 117.696C40.6847 117.593 40.7765 117.509 40.8848 117.452C40.993 117.394 41.1141 117.365 41.2366 117.367C41.3739 117.367 41.5095 117.337 41.6332 117.277C41.7569 117.218 41.8657 117.131 41.9513 117.024C42.037 116.917 42.0974 116.791 42.1279 116.658C42.1585 116.524 42.1585 116.385 42.1279 116.251H42.102ZM38.4503 143.218C38.42 143.067 38.4027 142.916 38.3595 142.76C38.3162 142.916 38.2989 143.067 38.2643 143.218C38.2568 143.356 38.2168 143.489 38.1475 143.608C38.0865 143.713 37.9995 143.8 37.8949 143.861C37.7903 143.923 37.6716 143.956 37.5504 143.958C37.3657 143.959 37.1852 144.014 37.0313 144.116C36.8775 144.218 36.7571 144.364 36.6851 144.534C36.6205 144.696 36.604 144.873 36.6375 145.044C36.6678 145.196 36.6894 145.351 36.7327 145.503C36.7759 145.351 36.7932 145.196 36.8235 145.044C36.8342 144.909 36.8789 144.778 36.9533 144.664C37.02 144.562 37.1112 144.478 37.2185 144.421C37.3259 144.363 37.4459 144.334 37.5677 144.335C37.7563 144.333 37.9401 144.275 38.0947 144.167C38.2492 144.058 38.3672 143.906 38.433 143.729C38.4895 143.557 38.4955 143.372 38.4503 143.197V143.218ZM57.457 163.289C57.4267 163.134 57.4051 162.982 57.3618 162.827C57.3229 162.982 57.3012 163.134 57.2709 163.289C57.2628 163.425 57.2228 163.557 57.1541 163.675C57.0925 163.779 57.0054 163.866 56.9009 163.927C56.7965 163.988 56.6781 164.022 56.5571 164.025C56.3722 164.025 56.1915 164.08 56.0375 164.182C55.8836 164.284 55.7633 164.43 55.6917 164.6C55.6247 164.762 55.6081 164.94 55.6442 165.111C55.6744 165.262 55.6917 165.418 55.735 165.57C55.7783 165.418 55.7999 165.262 55.8302 165.111C55.8416 164.976 55.8846 164.846 55.9557 164.73C56.023 164.628 56.115 164.544 56.2231 164.487C56.3312 164.429 56.452 164.4 56.5744 164.401C56.7625 164.4 56.9459 164.342 57.1004 164.235C57.2549 164.128 57.3732 163.976 57.4397 163.8C57.4957 163.628 57.5017 163.443 57.457 163.268V163.289ZM30.8615 128.577C30.8312 128.422 30.8096 128.27 30.7706 128.114C30.7274 128.27 30.7057 128.422 30.6755 128.577C30.6673 128.713 30.6273 128.845 30.5586 128.962C30.5087 129.045 30.4428 129.117 30.3649 129.174C30.2869 129.232 30.1983 129.273 30.1043 129.296C30.0394 129.425 29.9789 129.559 29.9183 129.694H29.9659C30.103 129.693 30.2382 129.661 30.3617 129.602C30.4851 129.542 30.5937 129.456 30.6795 129.349C30.7654 129.242 30.8262 129.117 30.8577 128.984C30.8892 128.85 30.8905 128.711 30.8615 128.577ZM52.1396 131.827C52.1093 131.675 52.092 131.519 52.0488 131.368C52.0055 131.519 51.9882 131.675 51.9536 131.827C51.9461 131.964 51.9061 132.097 51.8368 132.216C51.7758 132.321 51.6888 132.408 51.5842 132.47C51.4796 132.531 51.3609 132.564 51.2397 132.566C51.1029 132.563 50.967 132.59 50.8421 132.645C50.7171 132.701 50.6061 132.784 50.5173 132.888C50.4286 132.992 50.3642 133.115 50.329 133.247C50.2938 133.379 50.2886 133.518 50.3138 133.652C50.3441 133.804 50.3657 133.96 50.409 134.111C50.4523 133.96 50.4696 133.804 50.4998 133.652C50.5106 133.517 50.5552 133.386 50.6296 133.272C50.6957 133.169 50.7868 133.085 50.8943 133.028C51.0018 132.97 51.1221 132.941 51.244 132.943C51.4324 132.94 51.6156 132.881 51.7699 132.773C51.9243 132.665 52.0425 132.513 52.1093 132.337C52.1681 132.173 52.1786 131.996 52.1396 131.827ZM32.4753 159.136C32.4407 158.985 32.4234 158.833 32.3801 158.677C32.3369 158.833 32.3196 158.985 32.2893 159.136C32.2799 159.273 32.24 159.406 32.1725 159.525C32.1101 159.63 32.0222 159.717 31.917 159.778C31.8118 159.84 31.6928 159.873 31.5711 159.876C31.3868 159.876 31.2067 159.93 31.0529 160.032C30.8991 160.133 30.7784 160.278 30.7057 160.447C30.6393 160.61 30.6228 160.789 30.6581 160.962C30.6884 161.113 30.7057 161.269 30.749 161.42C30.7923 161.269 30.8096 161.113 30.8442 160.962C30.8556 160.827 30.8986 160.696 30.9697 160.581C31.0364 160.478 31.1283 160.394 31.2365 160.337C31.3447 160.279 31.4658 160.25 31.5884 160.252C31.7255 160.251 31.8607 160.22 31.9842 160.16C32.1076 160.101 32.2162 160.014 32.302 159.907C32.3878 159.8 32.4487 159.676 32.4802 159.542C32.5116 159.409 32.5129 159.27 32.484 159.136H32.4753ZM51.1099 123.126C51.0068 123.215 50.8835 123.277 50.7508 123.308C50.6306 123.333 50.5059 123.327 50.3886 123.291C50.2712 123.254 50.1651 123.189 50.0802 123.1C49.945 122.971 49.7745 122.885 49.5902 122.853C49.406 122.822 49.2166 122.846 49.0461 122.922C48.8885 122.996 48.755 123.113 48.6611 123.26C48.5745 123.39 48.4793 123.511 48.4015 123.649C48.5399 123.571 48.661 123.476 48.7908 123.39C48.8937 123.299 49.0168 123.233 49.15 123.199C49.2672 123.169 49.3904 123.168 49.5078 123.199C49.6252 123.229 49.7329 123.289 49.8206 123.372C49.9516 123.505 50.1186 123.596 50.3008 123.634C50.4831 123.673 50.6726 123.657 50.846 123.589C51.0056 123.518 51.142 123.404 51.2397 123.26C51.3262 123.13 51.4214 123.009 51.4993 122.866C51.3608 122.944 51.2397 123.039 51.1099 123.122V123.126ZM38.6969 134.375C38.5947 134.464 38.471 134.526 38.3378 134.552C38.218 134.578 38.0935 134.573 37.9762 134.537C37.8589 134.502 37.7526 134.437 37.6672 134.349C37.5332 134.218 37.3628 134.131 37.1783 134.098C36.9938 134.066 36.8038 134.09 36.6332 134.167C36.4764 134.242 36.3432 134.359 36.2481 134.505C36.1616 134.635 36.0664 134.756 35.9885 134.894C36.1269 134.816 36.2481 134.721 36.3779 134.635C36.4828 134.546 36.6052 134.482 36.737 134.444C36.8547 134.415 36.9778 134.416 37.095 134.447C37.2122 134.478 37.3197 134.538 37.4076 134.622C37.5382 134.755 37.7054 134.846 37.888 134.884C38.0706 134.922 38.2604 134.904 38.433 134.834C38.5935 134.765 38.7304 134.65 38.8267 134.505C38.9133 134.375 39.0084 134.254 39.0863 134.115C38.9479 134.185 38.8267 134.28 38.6969 134.366V134.375ZM30.2861 150.937C30.1836 151.024 30.0621 151.087 29.9313 151.119C29.8111 151.144 29.6864 151.138 29.5691 151.102C29.4517 151.066 29.3456 151 29.2607 150.911C29.1249 150.782 28.9535 150.696 28.7685 150.664C28.5836 150.632 28.3934 150.657 28.2223 150.734C28.0646 150.808 27.9311 150.925 27.8372 151.071C27.7507 151.201 27.6555 151.322 27.5776 151.461C27.7161 151.383 27.8372 151.288 27.9713 151.201C28.0719 151.109 28.1938 151.044 28.3261 151.011C28.4433 150.979 28.5667 150.979 28.6841 151.009C28.8016 151.039 28.9093 151.1 28.9967 151.184C29.1277 151.316 29.2947 151.407 29.477 151.446C29.6593 151.484 29.8488 151.468 30.0221 151.4C30.1837 151.331 30.3219 151.217 30.4202 151.071C30.5067 150.941 30.6019 150.82 30.6798 150.677C30.5413 150.747 30.4202 150.864 30.2861 150.928V150.937ZM33.9247 168.148C33.821 168.236 33.6979 168.298 33.5656 168.33C33.4454 168.355 33.3207 168.349 33.2034 168.313C33.086 168.277 32.9799 168.211 32.895 168.122C32.7592 167.993 32.5878 167.907 32.4029 167.875C32.2179 167.843 32.0277 167.868 31.8566 167.945C31.699 168.019 31.5654 168.136 31.4715 168.282C31.3893 168.412 31.2942 168.533 31.212 168.672C31.3547 168.594 31.4759 168.499 31.6057 168.412C31.7073 168.322 31.8289 168.256 31.9604 168.222C32.0777 168.19 32.201 168.19 32.3185 168.22C32.4359 168.251 32.5436 168.311 32.6311 168.395C32.7621 168.527 32.929 168.618 33.1113 168.657C33.2936 168.695 33.4831 168.679 33.6565 168.611C33.818 168.542 33.9562 168.428 34.0545 168.282C34.141 168.153 34.2362 168.031 34.3141 167.889C34.1757 167.958 34.0545 168.057 33.9247 168.14V168.148ZM50.197 149.237C50.0928 149.323 49.9698 149.384 49.8379 149.414C49.718 149.44 49.5936 149.435 49.4763 149.399C49.3589 149.364 49.2526 149.299 49.1673 149.211C49.0322 149.08 48.8611 148.993 48.676 148.96C48.4909 148.928 48.3003 148.952 48.1289 149.029C47.9725 149.103 47.8405 149.22 47.7481 149.367C47.6616 149.496 47.5664 149.617 47.4842 149.756C47.627 149.678 47.7481 149.583 47.8779 149.496C47.9813 149.408 48.1022 149.343 48.2327 149.306C48.3503 149.275 48.4739 149.275 48.5913 149.307C48.7088 149.338 48.8163 149.399 48.9033 149.483C49.0342 149.616 49.2014 149.707 49.3839 149.745C49.5664 149.782 49.756 149.765 49.9287 149.695C50.0903 149.626 50.2285 149.512 50.3268 149.367C50.4133 149.237 50.5085 149.116 50.5864 148.977C50.4436 149.046 50.3268 149.133 50.197 149.228V149.237ZM60.6457 156.241C60.5402 156.206 60.445 156.145 60.3688 156.064C60.2326 155.935 60.0615 155.85 59.8769 155.817C59.6923 155.785 59.5022 155.808 59.3304 155.882C59.1746 155.959 59.0417 156.075 58.9453 156.22C58.8588 156.354 58.7636 156.475 58.6857 156.614C58.8242 156.536 58.9453 156.44 59.0751 156.354C59.1788 156.263 59.3015 156.196 59.4342 156.159C59.5519 156.13 59.675 156.131 59.7922 156.162C59.9094 156.193 60.0169 156.253 60.1049 156.337C60.2657 156.498 60.4791 156.596 60.7062 156.614L60.6457 156.241ZM42.5562 161.295C42.4521 161.381 42.3291 161.442 42.1971 161.472C42.0773 161.498 41.9528 161.493 41.8355 161.457C41.7182 161.422 41.6119 161.357 41.5265 161.269C41.4294 161.172 41.312 161.099 41.1827 161.054C41.0535 161.008 40.9158 160.993 40.7797 161.008C40.6436 161.023 40.5126 161.068 40.3963 161.14C40.2799 161.212 40.1812 161.309 40.1074 161.425C40.0209 161.555 39.9257 161.676 39.8478 161.814C39.9863 161.736 40.1074 161.641 40.2372 161.555C40.3405 161.466 40.4615 161.402 40.592 161.364C40.7096 161.333 40.8331 161.334 40.9506 161.365C41.0681 161.396 41.1756 161.457 41.2626 161.542C41.3935 161.674 41.5607 161.765 41.7432 161.803C41.9257 161.841 42.1153 161.823 42.288 161.754C42.451 161.687 42.5899 161.572 42.686 161.425C42.7726 161.295 42.8678 161.174 42.9456 161.035C42.8072 161.105 42.686 161.2 42.5562 161.286V161.295ZM25.2196 163.666C25.1155 163.752 24.9925 163.813 24.8605 163.843C24.7407 163.869 24.6162 163.864 24.4989 163.828C24.3816 163.793 24.2753 163.728 24.1899 163.64C24.0559 163.509 23.8855 163.422 23.701 163.389C23.5165 163.357 23.3265 163.381 23.1559 163.458C22.9975 163.531 22.8638 163.648 22.7708 163.796C22.6843 163.925 22.5891 164.047 22.5069 164.185C22.6496 164.107 22.7708 164.012 22.9006 163.925C23.0039 163.837 23.1249 163.773 23.2554 163.735C23.373 163.704 23.4965 163.705 23.614 163.736C23.7315 163.767 23.839 163.828 23.926 163.913C24.0568 164.045 24.2241 164.136 24.4066 164.174C24.5891 164.212 24.7786 164.194 24.9514 164.125C25.1144 164.058 25.2533 163.943 25.3494 163.796C25.436 163.666 25.5312 163.545 25.609 163.406C25.4706 163.476 25.3494 163.571 25.2196 163.657V163.666Z" fill="white"/>
<path d="M52.0747 143.941C50.1172 144.132 48.1765 144.468 46.2685 144.945C45.3209 145.196 44.395 145.49 43.4692 145.81C43.0062 145.966 42.5433 146.104 42.076 146.243C41.5909 146.402 41.0882 146.502 40.579 146.541C40.5357 146.541 40.5357 146.611 40.579 146.611C41.0596 146.63 41.5409 146.617 42.0197 146.572C42.4842 146.513 42.9439 146.422 43.3956 146.299C44.3561 146.052 45.3036 145.762 46.2641 145.507C48.1981 144.992 50.1278 144.478 52.0964 144.105C52.1742 144.101 52.1742 143.941 52.0747 143.941Z" fill="#263238"/>
<path d="M56.9335 145.672C55.3174 145.515 53.6937 145.452 52.0704 145.481C51.257 145.481 50.4523 145.559 49.6475 145.646L48.4923 145.788C48.0597 145.845 47.653 145.957 47.229 146.009C47.2213 146.012 47.2147 146.017 47.21 146.023C47.2053 146.03 47.2028 146.038 47.2028 146.046C47.2028 146.054 47.2053 146.062 47.21 146.068C47.2147 146.075 47.2213 146.08 47.229 146.083C47.627 146.044 48.038 146.083 48.4404 146.083L49.6518 146.039C50.4609 146.013 51.27 145.996 52.079 145.962C53.6972 145.892 55.311 145.84 56.9291 145.827C57.0243 145.784 57.0157 145.672 56.9335 145.672Z" fill="#263238"/>
<path d="M34.9847 120.495C27.2358 128.798 8.79594 159.949 14.7753 165.695C20.7546 171.441 53.9265 163.705 63.233 159.266C66.0063 157.946 55.4711 140.661 52.2132 140.259C49.5004 139.922 35.6337 146.269 35.2313 145.451C34.7987 144.551 37.9311 138.762 41.2669 126.717C45.1262 112.842 38.4114 116.826 34.9847 120.495Z" fill="#C95F50"/>
<path d="M66.0193 134.682C72.7601 133.743 74.6335 134.535 79.899 130.723C83.3602 128.223 86.4321 129.356 84.4592 133.319C81.2359 139.809 72.799 142.838 69.5714 143.063L66.0193 134.682Z" fill="#C95F50"/>
<path d="M48.1029 141.168C48.1029 141.168 55.6744 136.962 62.7527 135.253C67.6504 134.072 78.5923 132.683 89.0583 143.474C91.5418 146.035 93.2638 151.443 87.6868 148.735C83.728 146.81 81.7983 144.408 79.2932 143.694C79.2932 143.694 80.6691 150.833 77.9953 153.213C75.6679 155.299 73.1956 157.218 70.5968 158.954C70.1699 158.548 69.7696 158.114 69.3983 157.656C69.3983 157.656 66.7029 159.651 61.6105 159.171L48.1029 141.168Z" fill="#C95F50"/>
<path d="M67.6071 134.855C69.9478 136.075 74.8671 138.749 78.1294 142.327C81.7551 146.308 87.6479 154.952 84.7015 157.6C82.5382 159.538 79.9768 156.436 79.9768 156.436C79.9768 156.436 81.6685 160.525 79.3192 161.849C77.1819 163.052 75.356 160.551 75.356 160.551C75.356 160.551 75.9531 163.207 73.6687 163.973C70.9213 164.89 70.1166 159.175 66.5298 157.7C65.7251 157.353 67.6071 134.855 67.6071 134.855Z" fill="#C95F50"/>
<path d="M73.288 145.473C75.2998 146.983 78.9947 151.582 80.0158 156.35C80.0374 156.458 79.9682 156.531 79.9249 156.436C78.1505 152.536 75.9088 148.866 73.249 145.507C73.2317 145.486 73.262 145.455 73.288 145.473Z" fill="#263238"/>
<path d="M69.3724 149.25C70.9776 150.729 74.5643 155.644 75.4296 160.499C75.4296 160.607 75.3734 160.676 75.3344 160.581C73.763 156.596 71.7455 152.802 69.3205 149.271C69.3205 149.271 69.3551 149.232 69.3724 149.25Z" fill="#263238"/>
<path d="M79.2932 143.655C81.4911 144.3 82.9189 145.386 84.7707 146.684C85.6784 147.335 86.6232 147.934 87.6003 148.475C88.4959 148.96 89.8155 149.691 90.7673 148.934C91.2952 148.501 91.2865 147.744 91.1697 147.143C91.0453 146.459 90.7737 145.811 90.3736 145.243C90.3736 145.217 90.4039 145.178 90.4255 145.209C90.8047 145.703 91.1107 146.25 91.3341 146.831C91.5728 147.375 91.6422 147.978 91.5331 148.562C91.2086 149.773 89.7809 149.933 88.7685 149.6C88.165 149.379 87.5853 149.098 87.0378 148.761C86.5056 148.458 85.9865 148.125 85.4802 147.783C84.4375 147.078 83.4338 146.312 82.3997 145.594C81.3927 144.919 80.3436 144.309 79.2586 143.768C79.2437 143.763 79.2312 143.753 79.2239 143.739C79.2166 143.725 79.2151 143.709 79.2197 143.694C79.2243 143.679 79.2346 143.667 79.2484 143.66C79.2622 143.652 79.2783 143.651 79.2932 143.655Z" fill="#263238"/>
<path d="M83.8924 151.378C83.3256 150.128 80.2494 144.914 79.25 143.707C79.2442 143.701 79.2412 143.693 79.2416 143.684C79.2421 143.676 79.2458 143.668 79.2521 143.662C79.2584 143.656 79.2668 143.653 79.2753 143.654C79.2838 143.654 79.2918 143.658 79.2976 143.664C81.0066 145.287 83.7583 149.596 84.3986 150.976C85.0389 152.356 85.7615 154.082 85.7615 155.605C85.7615 157.899 84.2385 158.331 83.6761 158.444C83.0082 158.562 82.3197 158.449 81.7248 158.124C81.0278 157.696 80.4256 157.131 79.9552 156.462C79.9336 156.432 79.9552 156.389 80.0028 156.419C80.7946 157.323 82.1185 158.214 83.3645 158.05C83.6401 158.023 83.9076 157.942 84.1513 157.81C84.395 157.679 84.61 157.5 84.7837 157.284C85.1208 156.731 85.2496 156.076 85.1471 155.437C84.9642 154.022 84.5397 152.649 83.8924 151.378Z" fill="#263238"/>
<path d="M75.4426 160.507C75.7628 160.78 76.4204 161.732 77.4631 161.935C77.8356 162.036 78.2271 162.045 78.6039 161.962C78.9808 161.878 79.3316 161.704 79.6264 161.455C80.1605 160.893 80.4553 160.145 80.4484 159.37C80.3642 158.395 80.2036 157.429 79.9682 156.479C79.9682 156.436 80.0158 156.415 80.0288 156.458C80.4113 157.453 80.6432 158.5 80.7167 159.564C80.7338 159.984 80.666 160.402 80.5173 160.795C80.3686 161.187 80.1421 161.546 79.8514 161.849C79.5365 162.146 79.1454 162.35 78.7216 162.439C78.2978 162.527 77.8577 162.497 77.4501 162.351C77.0434 162.195 75.7498 161.368 75.3777 160.551C75.3474 160.533 75.4296 160.494 75.4426 160.507Z" fill="#263238"/>
<path d="M66.7462 157.289C67.1005 157.525 67.4271 157.801 67.7196 158.111C68.0398 158.418 68.3513 158.742 68.6542 159.071C69.2563 159.736 69.7884 160.461 70.242 161.234C70.705 162.013 71.1333 162.878 71.8861 163.419C72.2461 163.691 72.6819 163.843 73.1326 163.854C73.5833 163.866 74.0264 163.737 74.3999 163.484C74.7852 163.196 75.0613 162.786 75.183 162.32C75.331 161.812 75.381 161.281 75.3301 160.754C75.3301 160.746 75.3333 160.738 75.339 160.733C75.3446 160.727 75.3523 160.724 75.3604 160.724C75.3684 160.724 75.3761 160.727 75.3818 160.733C75.3875 160.738 75.3907 160.746 75.3907 160.754C75.4757 161.222 75.5134 161.698 75.5032 162.173C75.4668 162.608 75.3177 163.025 75.0705 163.385C74.7977 163.73 74.4349 163.994 74.0219 164.147C73.6089 164.299 73.1618 164.335 72.7298 164.25C72.2751 164.129 71.8493 163.919 71.4777 163.63C71.106 163.342 70.7962 162.982 70.5665 162.571C69.9868 161.706 69.5065 160.78 68.8878 159.936C68.5633 159.504 68.2432 159.045 67.8884 158.638C67.5336 158.232 67.0706 157.812 66.7288 157.34C66.7253 157.331 66.7251 157.321 66.7282 157.311C66.7314 157.302 66.7377 157.294 66.7462 157.289Z" fill="#263238"/>
<path d="M64.0637 159.244C65.3143 159.108 66.5488 158.852 67.7499 158.478C67.7889 158.478 67.8451 158.573 67.8105 158.595C67.2266 158.86 66.6159 159.062 65.989 159.196C65.358 159.33 64.7106 159.37 64.068 159.313C64.0377 159.309 64.0204 159.248 64.0637 159.244Z" fill="#263238"/>
<path d="M22.7016 151.53C24.6509 150.221 26.6927 149.056 28.8107 148.043C30.9098 147.049 33.0789 146.21 35.3006 145.533C36.5639 145.135 37.8403 144.798 39.1166 144.452C39.1556 144.452 39.1685 144.499 39.1166 144.512C36.8858 145.203 34.6971 146.024 32.5618 146.97C30.4389 147.887 28.3333 148.842 26.245 149.834C25.0639 150.396 23.9087 151.011 22.7448 151.612C22.7339 151.618 22.7212 151.619 22.7094 151.615C22.6977 151.612 22.6878 151.603 22.6821 151.593C22.6764 151.582 22.6752 151.569 22.6788 151.557C22.6825 151.545 22.6907 151.536 22.7016 151.53Z" fill="#263238"/>
<path d="M19.1105 140.073L37.9268 139.45C37.9268 139.45 41.427 130.165 42.7596 121.901C44.0922 113.638 37.3254 116.164 30.2644 125.008C23.2034 133.851 19.1105 140.073 19.1105 140.073Z" fill="#FFC727"/>
<path d="M23.8308 134.756C23.7281 134.844 23.6045 134.905 23.4717 134.933C23.3586 134.959 23.2409 134.956 23.1292 134.925C23.0174 134.894 22.9151 134.836 22.8314 134.756C22.7578 134.859 22.6799 134.963 22.6107 135.067C22.7411 135.176 22.8985 135.247 23.0662 135.273C23.2339 135.299 23.4055 135.278 23.5626 135.214C23.725 135.149 23.8638 135.036 23.9606 134.89C24.0471 134.756 24.1423 134.635 24.2202 134.496C24.0817 134.574 23.9606 134.669 23.8308 134.756ZM38.6969 134.366C38.5948 134.456 38.471 134.517 38.3378 134.544C38.218 134.569 38.0935 134.564 37.9762 134.529C37.8589 134.493 37.7526 134.428 37.6672 134.34C37.5332 134.209 37.3628 134.122 37.1783 134.09C36.9938 134.057 36.8038 134.081 36.6332 134.159C36.4764 134.234 36.3432 134.351 36.2481 134.496C36.1616 134.626 36.0664 134.747 35.9885 134.885C36.1269 134.808 36.2481 134.712 36.3779 134.626C36.4828 134.538 36.6052 134.473 36.737 134.435C36.8547 134.406 36.9778 134.407 37.095 134.438C37.2122 134.469 37.3197 134.529 37.4076 134.613C37.5382 134.746 37.7054 134.837 37.888 134.875C38.0706 134.913 38.2604 134.895 38.433 134.825C38.5935 134.756 38.7304 134.642 38.8267 134.496C38.9133 134.366 39.0085 134.245 39.0863 134.107C38.9479 134.185 38.8267 134.28 38.6969 134.366ZM30.8615 128.556C30.8312 128.4 30.8096 128.248 30.7706 128.093C30.7274 128.248 30.7057 128.4 30.6755 128.556C30.6673 128.691 30.6273 128.823 30.5586 128.941C30.497 129.045 30.4099 129.132 30.3054 129.193C30.201 129.254 30.0827 129.288 29.9616 129.291C29.7771 129.293 29.5971 129.348 29.4435 129.45C29.2898 129.553 29.1692 129.697 29.0963 129.867C29.0292 130.028 29.0126 130.206 29.0487 130.377C29.0789 130.533 29.1006 130.684 29.1438 130.84C29.1828 130.684 29.2044 130.533 29.2347 130.377C29.2446 130.243 29.2894 130.113 29.3645 130.001C29.4293 129.897 29.5202 129.812 29.6279 129.755C29.7357 129.697 29.8567 129.668 29.9789 129.672C30.116 129.671 30.2512 129.64 30.3747 129.58C30.4981 129.521 30.6067 129.434 30.6925 129.327C30.7783 129.22 30.8392 129.095 30.8707 128.962C30.9022 128.828 30.9034 128.69 30.8745 128.556H30.8615ZM41.3578 116.947C41.3104 116.954 41.2624 116.954 41.215 116.947C41.0305 116.949 40.8505 117.005 40.6969 117.107C40.5433 117.209 40.4226 117.353 40.3497 117.523C40.2833 117.686 40.2667 117.865 40.3021 118.038C40.3324 118.189 40.3497 118.345 40.393 118.496C40.4362 118.345 40.4535 118.189 40.4881 118.038C40.4996 117.903 40.5426 117.772 40.6136 117.657C40.6804 117.554 40.7722 117.47 40.8804 117.413C40.9887 117.355 41.1098 117.326 41.2323 117.328C41.4365 117.32 41.6324 117.246 41.7904 117.116C41.654 117.042 41.5086 116.985 41.3578 116.947ZM32.67 122.222C32.8165 122.149 32.9407 122.039 33.0291 121.901L33.1632 121.711C32.9988 121.875 32.8344 122.048 32.67 122.222ZM28.7761 139.325C28.6123 139.266 28.4357 139.254 28.2656 139.29C28.1098 139.32 27.9584 139.342 27.8026 139.381C27.9584 139.424 28.1098 139.446 28.2656 139.476C28.4013 139.484 28.5332 139.524 28.6506 139.593C28.7211 139.635 28.7839 139.69 28.8367 139.753H29.2693C29.1595 139.551 28.9771 139.397 28.7588 139.325H28.7761ZM41.3967 127.5C41.396 127.363 41.3646 127.228 41.3049 127.104C41.2453 126.981 41.1588 126.872 41.0519 126.786C40.9449 126.701 40.8202 126.64 40.6867 126.608C40.5533 126.577 40.4145 126.575 40.2805 126.604C40.1247 126.635 39.9733 126.656 39.8218 126.7C39.9733 126.739 40.1247 126.76 40.2805 126.79C40.4162 126.799 40.5481 126.839 40.6655 126.907C40.7704 126.968 40.8577 127.055 40.9191 127.16C40.9805 127.264 41.0138 127.383 41.016 127.504C41.0158 127.655 41.0514 127.804 41.1198 127.939C41.1882 128.073 41.2876 128.19 41.4097 128.279C41.44 128.149 41.4746 128.024 41.5049 127.894C41.4296 127.777 41.3918 127.639 41.3967 127.5Z" fill="white"/>
<path d="M37.1523 139.389C37.2519 139.389 37.9138 139.273 37.9182 139.273C37.9657 139.026 39.0387 135.145 39.32 134.297C39.8954 132.566 40.5703 130.883 41.2237 129.192C41.2453 129.14 41.3275 129.161 41.3102 129.218C40.8775 130.676 40.4881 132.142 40.0512 133.596C40.181 133.388 40.3107 133.163 40.4362 132.969C40.6915 132.536 40.9121 132.103 41.1501 131.649C41.1501 131.61 41.2366 131.649 41.2237 131.684C41.023 132.294 40.7437 132.876 40.393 133.414C40.2437 133.646 40.0805 133.869 39.9041 134.081C39.8651 134.198 39.8305 134.323 39.7916 134.44C39.5276 135.305 38.1475 139.493 38.0609 139.498H37.1523C37.1177 139.515 37.1004 139.389 37.1523 139.389Z" fill="#263238"/>
<path d="M22.1564 136.43C26.2148 136.127 30.299 136.11 34.3747 136.17C35.5284 136.188 36.6822 136.232 37.8359 136.305C37.8706 136.305 37.8749 136.352 37.8359 136.352C35.8068 136.46 33.7733 136.486 31.7398 136.525C29.7063 136.564 27.6598 136.586 25.622 136.564C24.4711 136.564 23.3203 136.543 22.1607 136.508C22.1556 136.508 22.1505 136.507 22.1457 136.506C22.1408 136.504 22.1364 136.501 22.1326 136.498C22.1288 136.495 22.1257 136.491 22.1234 136.486C22.1212 136.481 22.1199 136.476 22.1196 136.471C22.1194 136.466 22.1201 136.461 22.1218 136.456C22.1235 136.451 22.1261 136.447 22.1295 136.443C22.1329 136.439 22.1371 136.436 22.1417 136.434C22.1463 136.432 22.1513 136.43 22.1564 136.43Z" fill="#263238"/>
<path d="M41.5135 116.999C41.5871 117.821 44.6417 123.528 48.3019 123.879C49.4961 123.991 50.396 117.51 50.396 117.51L50.5734 117.047L53.0309 110.557L45.8877 104.379L44.845 103.544C44.845 103.544 44.2912 105.365 43.6206 107.637C43.5903 107.741 43.5557 107.844 43.5254 107.957C43.4951 108.069 43.4432 108.208 43.4086 108.329C43.3047 108.666 43.2009 109.013 43.1014 109.359C43.0278 109.618 42.9543 109.878 42.8851 110.155C42.8158 110.432 42.738 110.704 42.6644 110.985C42.142 112.961 41.7575 114.971 41.5135 116.999Z" fill="#C95F50"/>
<path d="M43.6206 107.645C44.0271 109.623 44.8596 111.489 46.0604 113.113C47.2611 114.736 48.8012 116.079 50.5734 117.047L53.0309 110.557L45.8877 104.379L44.845 103.544C44.845 103.544 44.2912 105.374 43.6206 107.645Z" fill="#263238"/>
<path d="M61.7879 97.1447C65.1064 108.857 58.4651 112.167 55.9384 112.88C53.6453 113.525 45.7536 115.437 41.228 104.132C36.7024 92.8268 41.1155 87.583 46.2814 85.8264C51.4474 84.0698 58.4694 85.4327 61.7879 97.1447Z" fill="#C95F50"/>
<path d="M59.2612 95.4487C58.9823 95.4769 58.7021 95.4899 58.4218 95.4876C58.1274 95.5413 57.8235 95.4973 57.5565 95.3622C57.4809 95.3038 57.4268 95.2221 57.4026 95.1297C57.3783 95.0374 57.3853 94.9396 57.4224 94.8516C57.5228 94.689 57.6647 94.5559 57.8335 94.4662C58.0022 94.3765 58.1919 94.3333 58.3829 94.3411C58.7731 94.2988 59.165 94.4037 59.4818 94.6353C59.5521 94.691 59.6045 94.7661 59.6325 94.8514C59.6605 94.9366 59.6629 95.0281 59.6394 95.1147C59.616 95.2012 59.5676 95.279 59.5004 95.3384C59.4331 95.3978 59.35 95.4361 59.2612 95.4487Z" fill="#263238"/>
<path d="M52.0401 99.0571C52.317 98.9835 52.5593 98.8667 52.8275 98.7672C53.1171 98.7071 53.3795 98.5554 53.576 98.3345C53.6212 98.2509 53.6377 98.1548 53.6228 98.061C53.608 97.9672 53.5626 97.8808 53.4938 97.8153C53.3387 97.7038 53.1564 97.6362 52.9661 97.6194C52.7758 97.6027 52.5844 97.6375 52.4122 97.7201C52.0366 97.8335 51.7162 98.0816 51.5123 98.4167C51.4769 98.4954 51.4643 98.5825 51.4758 98.668C51.4873 98.7535 51.5225 98.8342 51.5774 98.9007C51.6323 98.9673 51.7047 99.0173 51.7865 99.0449C51.8682 99.0725 51.9561 99.0767 52.0401 99.0571Z" fill="#263238"/>
<path d="M54.0649 100.243C54.0649 100.212 54.013 100.299 54.0217 100.329C54.2726 101.121 54.4284 102.06 53.7837 102.536C53.7621 102.536 53.7837 102.592 53.8054 102.579C54.649 102.22 54.4284 100.965 54.0649 100.243Z" fill="#263238"/>
<path d="M53.1131 99.6282C51.8151 99.8921 52.4382 102.492 53.6496 102.246C54.861 101.999 54.212 99.4032 53.1131 99.6282Z" fill="#263238"/>
<path d="M52.6372 99.8878C52.4468 100.091 52.2867 100.403 52.0185 100.498C51.7502 100.593 51.4041 100.39 51.1532 100.182C51.1229 100.156 51.1056 100.182 51.1142 100.221C51.2267 100.718 51.5469 101.186 52.0964 101.129C52.6458 101.073 52.8405 100.554 52.8449 100.022C52.8275 99.9224 52.7151 99.8099 52.6372 99.8878Z" fill="#263238"/>
<path d="M58.53 98.8148C58.53 98.7802 58.5992 98.8364 58.6079 98.871C58.7723 99.6844 59.0968 100.602 59.9058 100.684C59.9318 100.684 59.9361 100.727 59.9058 100.727C58.9713 100.814 58.5559 99.6109 58.53 98.8148Z" fill="#263238"/>
<path d="M59.0535 97.8023C60.3255 97.4 61.0394 99.9656 59.8582 100.351C58.6771 100.736 57.9848 98.1398 59.0535 97.8023Z" fill="#263238"/>
<path d="M59.6376 97.824C59.8799 97.9019 60.1481 98.0966 60.3947 98.0446C60.6413 97.9927 60.8274 97.6466 60.9226 97.3308C60.9226 97.2961 60.9572 97.3308 60.9702 97.3308C61.1173 97.8197 61.0956 98.3778 60.65 98.6028C60.2044 98.8277 59.7847 98.473 59.5554 98.0144C59.5294 97.9495 59.5294 97.7894 59.6376 97.824Z" fill="#263238"/>
<path d="M55.6355 106.274C55.8691 106.425 56.1114 106.65 56.4143 106.616C56.7156 106.551 57.0001 106.425 57.2493 106.243C57.2709 106.243 57.3012 106.244 57.2926 106.278C57.2071 106.46 57.0738 106.616 56.907 106.729C56.7402 106.842 56.5461 106.907 56.3451 106.918C56.1706 106.91 56.0028 106.849 55.8638 106.743C55.7248 106.637 55.6211 106.492 55.5663 106.326C55.5403 106.3 55.6009 106.252 55.6355 106.274Z" fill="#263238"/>
<path d="M58.2314 102.942C58.2314 102.942 58.703 104.102 58.8501 104.673C58.8501 104.729 56.9075 105.681 55.6528 104.517C55.6428 104.507 55.6365 104.494 55.635 104.481C55.6334 104.467 55.6368 104.453 55.6444 104.441C55.6521 104.429 55.6636 104.42 55.6769 104.416C55.6903 104.412 55.7047 104.412 55.7177 104.418C56.5644 104.728 57.4891 104.756 58.3526 104.496C58.3526 104.327 57.4873 102.54 57.5652 102.51C58.0143 102.437 58.4711 102.424 58.9237 102.471C58.0108 100.035 56.7128 97.7634 55.8388 95.3189C55.8291 95.3005 55.827 95.2791 55.8331 95.2592C55.8392 95.2393 55.8529 95.2227 55.8713 95.2129C55.8897 95.2031 55.9111 95.2011 55.931 95.2072C55.9509 95.2133 55.9675 95.227 55.9773 95.2453C57.5046 97.5298 58.6208 100.316 59.6289 102.808C59.7457 103.111 58.4737 102.981 58.2314 102.942Z" fill="#263238"/>
<path d="M51.9666 87.12C51.9666 87.12 52.7453 88.8506 52.3386 90.2481C51.5123 93.1383 48.1678 92.9782 47.2463 94.2199C46.3809 95.3838 47.0862 97.3783 46.316 98.5249C45.2517 100.117 43.3999 99.8791 43.3437 100.84C43.2874 101.8 43.1663 104.85 42.0457 105.421C40.9251 105.993 32.233 87.3277 47.7395 85.3548C47.7395 85.3548 49.7167 84.1087 53.2689 85.2336C57.3791 86.5316 59.9621 92.3552 59.9621 92.3552C59.6886 92.1044 59.3899 91.8825 59.0708 91.6932C58.2055 91.161 57.8291 90.6029 57.2104 90.2698C56.2455 89.7462 55.8172 90.0794 54.8178 89.5775C53.7236 88.9416 52.7569 88.1084 51.9666 87.12Z" fill="#263238"/>
<path d="M51.5901 86.3109C51.9602 87.0351 52.2434 87.8005 52.4338 88.5911C52.6659 89.353 52.6854 90.1639 52.4901 90.9361C52.1961 91.6596 51.6506 92.2527 50.9541 92.6061C50.2662 92.9998 49.4701 93.2118 48.7346 93.6618C48.3565 93.8928 48.0496 94.2237 47.8477 94.618C47.6786 95.0162 47.5918 95.4444 47.5924 95.877C47.5621 96.6947 47.5275 97.4995 47.0948 98.1528C46.8816 98.485 46.5985 98.7666 46.2652 98.9781C45.9319 99.1896 45.5565 99.3258 45.1652 99.3772C44.3864 99.507 43.4951 99.4335 42.7942 99.9007C43.5297 99.4897 44.3691 99.6368 45.1868 99.5633C45.6159 99.5276 46.032 99.3983 46.4057 99.1845C46.7795 98.9708 47.1018 98.6777 47.3501 98.3259C47.8779 97.612 47.9039 96.6947 47.9515 95.9073C47.9545 95.522 48.0339 95.1411 48.1851 94.7867C48.3682 94.4594 48.6376 94.1885 48.9639 94.0036C49.6172 93.5709 50.422 93.3546 51.1488 92.9306C51.5194 92.7195 51.8563 92.4541 52.1483 92.1432C52.4542 91.836 52.6774 91.4565 52.7973 91.0399C52.9626 90.2117 52.8968 89.354 52.6069 88.5608C52.3573 87.7736 52.0161 87.0184 51.5901 86.3109Z" fill="#263238"/>
<path d="M52.0012 86.9599C52.2775 87.6728 52.6486 88.3451 53.1044 88.9588C53.5591 89.609 54.1958 90.1102 54.9346 90.3996C55.304 90.5137 55.6837 90.592 56.0682 90.6332C56.4117 90.6861 56.733 90.8362 56.994 91.0659C57.2409 91.3579 57.5163 91.6246 57.8161 91.8619C58.1387 92.0793 58.5076 92.2186 58.8934 92.2686C58.5411 92.1493 58.2161 91.961 57.9372 91.7148C57.668 91.4513 57.426 91.1614 57.2147 90.8495C56.9255 90.5526 56.55 90.3543 56.1417 90.2827C55.7772 90.2359 55.418 90.1548 55.0687 90.0405C54.3914 89.7736 53.795 89.3352 53.3381 88.7684C52.852 88.1966 52.4053 87.5924 52.0012 86.9599Z" fill="#263238"/>
<path d="M40.0987 102.06C40.0987 102.06 35.4174 93.1513 40.4752 87.981C45.7233 82.6204 53.0222 84.589 53.0222 84.589C53.0222 84.589 45.07 85.0865 41.7731 89.4001C37.9528 94.4146 40.0987 102.06 40.0987 102.06Z" fill="#FFC727"/>
<path d="M52.979 104.846C52.2668 104.961 51.5366 104.874 50.8715 104.595C50.2063 104.315 49.633 103.855 49.2165 103.266C48.8001 102.677 48.5573 101.982 48.5158 101.262C48.4743 100.542 48.6357 99.8245 48.9817 99.1915C49.3277 98.5585 49.8443 98.0352 50.473 97.6813C51.1016 97.3273 51.8169 97.1568 52.5376 97.1893C53.2583 97.2217 53.9554 97.4557 54.5497 97.8647C55.144 98.2736 55.6117 98.8412 55.8994 99.5027C56.3042 100.439 56.3217 101.498 55.9479 102.448C55.5741 103.397 54.8396 104.16 53.9049 104.569C53.6094 104.701 53.2982 104.794 52.979 104.846ZM51.8281 97.7418C51.1408 97.8525 50.5053 98.1751 50.0103 98.6647C49.5154 99.1542 49.1858 99.7862 49.0676 100.472C48.9493 101.158 49.0484 101.864 49.351 102.491C49.6536 103.118 50.1444 103.635 50.7551 103.969C51.3657 104.303 52.0655 104.439 52.7567 104.356C53.4479 104.273 54.0959 103.976 54.6102 103.507C55.1245 103.038 55.4794 102.42 55.6252 101.739C55.771 101.058 55.7005 100.349 55.4235 99.7104C55.1275 99.0299 54.6136 98.4671 53.9627 98.1107C53.3118 97.7543 52.5609 97.6245 51.8281 97.7418Z" fill="#DBDBDB"/>
<path d="M61.4764 102.38C60.0183 102.613 58.4478 101.337 57.9069 99.4032C57.6255 98.483 57.6407 97.4976 57.9502 96.5866C58.0589 96.1875 58.2688 95.8234 58.5596 95.5293C58.8504 95.2353 59.2122 95.0213 59.61 94.9082C60.0078 94.795 60.428 94.7865 60.8301 94.8835C61.2321 94.9804 61.6023 95.1796 61.9047 95.4617C62.6465 96.0726 63.179 96.9 63.4277 97.8283C64.0074 99.8748 63.2416 101.891 61.723 102.324C61.6408 102.345 61.5586 102.367 61.4764 102.38ZM59.9621 95.3621C59.8974 95.3708 59.8337 95.3853 59.7717 95.4054C59.4626 95.5117 59.1834 95.6906 58.9576 95.9269C58.7318 96.1633 58.5658 96.4503 58.4737 96.764C58.2036 97.5724 58.1915 98.4448 58.4391 99.2604C58.9453 101.03 60.3644 102.185 61.6192 101.826C62.8739 101.467 63.4709 99.7406 62.969 97.9711C62.7513 97.1456 62.2808 96.4089 61.6235 95.864C61.3976 95.6679 61.1328 95.5218 60.8465 95.4353C60.5601 95.3488 60.2587 95.3239 59.9621 95.3621Z" fill="#DBDBDB"/>
<path d="M55.8951 99.97L55.4624 99.6801C55.8951 99.0484 57.0113 98.0403 58.1925 98.7542L57.9286 99.1869C56.8729 98.5552 55.934 99.9094 55.8951 99.97Z" fill="#DBDBDB"/>
<path d="M38.9782 105.768L38.472 105.664C38.5195 105.43 38.9695 103.349 40.0252 102.851C41.0117 102.393 48.5053 100.982 48.7952 100.93L48.886 101.437C46.9304 101.796 41.0073 102.964 40.2329 103.319C39.4584 103.673 39.095 105.196 38.9782 105.768Z" fill="#DBDBDB"/>
<path d="M43.1533 103.617C43.1533 103.617 39.8305 100.385 38.3162 101.64C36.8019 102.895 39.8002 107.931 41.9289 108.29C42.1991 108.354 42.4794 108.363 42.7531 108.316C43.0268 108.269 43.2882 108.168 43.5217 108.017C43.7552 107.867 43.9559 107.671 44.1119 107.441C44.2679 107.212 44.376 106.953 44.4297 106.681L43.1533 103.617Z" fill="#C95F50"/>
<path d="M39.1945 103.063C39.1889 103.066 39.184 103.07 39.1807 103.075C39.1773 103.08 39.1754 103.086 39.1754 103.092C39.1754 103.098 39.1773 103.104 39.1807 103.109C39.184 103.114 39.1889 103.117 39.1945 103.12C40.7001 103.414 41.6823 104.569 42.4524 105.807C41.9375 105.374 41.3188 105.196 40.7218 105.807C40.6915 105.841 40.7218 105.889 40.7737 105.876C41.0037 105.75 41.267 105.699 41.5274 105.729C41.7877 105.759 42.0323 105.87 42.2274 106.044C42.5505 106.34 42.8406 106.669 43.0927 107.027C43.1836 107.139 43.3956 107.027 43.322 106.892C43.3198 106.883 43.3198 106.872 43.322 106.862C43.0105 105.097 41.1501 102.877 39.1945 103.063Z" fill="#263238"/>
<path d="M35.478 119.552C35.478 119.552 43.8715 125.57 48.6697 124.947C53.4679 124.324 53.0395 119.682 53.0395 119.682C53.0395 119.682 48.237 115.476 42.5735 115.745C38.4676 115.935 35.478 119.552 35.478 119.552Z" fill="#C95F50"/>
<path d="M5.80194 168.931L40.3281 168.823L74.8498 168.789L143.898 168.715L212.946 168.784L247.467 168.823L281.994 168.931L247.467 169.035L212.946 169.074L143.898 169.143L74.8498 169.074L40.3281 169.035L5.80194 168.931Z" fill="#263238"/>
<path d="M108.818 167.841H60.7106V170H108.818V167.841Z" fill="#455A64"/>
<path d="M84.9264 167.841H60.7106V170H84.9264V167.841Z" fill="#263238"/>
<path d="M84.364 170H131.251L137.875 138.156H90.988L84.364 170Z" fill="#37474F"/>
<path d="M107.485 154.788C107.433 155.182 107.466 155.584 107.583 155.964C107.701 156.345 107.899 156.696 108.164 156.992C108.43 157.289 108.756 157.525 109.122 157.684C109.487 157.842 109.882 157.92 110.28 157.912C111.137 157.895 111.958 157.57 112.594 156.996C113.23 156.422 113.637 155.638 113.741 154.788C113.794 154.393 113.76 153.991 113.643 153.61C113.526 153.229 113.327 152.878 113.061 152.581C112.795 152.285 112.468 152.049 112.102 151.891C111.736 151.732 111.341 151.655 110.942 151.664C110.086 151.681 109.265 152.006 108.63 152.58C107.995 153.154 107.588 153.938 107.485 154.788Z" fill="white"/>
<path d="M226.349 167.841H178.242V170H226.349V167.841Z" fill="#455A64"/>
<path d="M226.354 167.841H202.138V170H226.354V167.841Z" fill="#263238"/>
<path d="M202.696 170H155.813L149.189 138.156H196.072L202.696 170Z" fill="#37474F"/>
<path d="M179.575 154.788C179.627 155.182 179.594 155.584 179.477 155.964C179.359 156.345 179.161 156.696 178.896 156.992C178.63 157.289 178.304 157.525 177.938 157.684C177.573 157.842 177.178 157.92 176.78 157.912C175.923 157.896 175.101 157.571 174.465 156.997C173.829 156.423 173.422 155.638 173.318 154.788C173.266 154.393 173.299 153.992 173.417 153.611C173.534 153.231 173.732 152.88 173.998 152.583C174.263 152.286 174.59 152.051 174.955 151.892C175.32 151.733 175.715 151.655 176.113 151.664C176.97 151.68 177.792 152.004 178.428 152.578C179.064 153.153 179.472 153.937 179.575 154.788Z" fill="white"/>
<path d="M196.167 130.321C191.979 130.321 188.699 121.534 188.699 110.315C188.699 99.096 191.979 90.2914 196.167 90.2914C200.355 90.2914 203.635 99.0787 203.635 110.298C203.635 121.516 200.355 130.321 196.167 130.321ZM196.167 91.6067C193.186 91.6067 189.997 99.1263 189.997 110.315C189.997 121.503 193.186 129.023 196.167 129.023C199.148 129.023 202.337 121.508 202.337 110.315C202.337 99.122 199.148 91.5894 196.167 91.5894V91.6067Z" fill="#FFC727"/>
<path d="M183.642 122.308C181.262 122.308 179.596 121.633 178.844 120.327C177.784 118.492 178.696 115.736 181.409 112.569C183.979 109.571 187.899 106.477 192.433 103.86C196.968 101.242 201.61 99.3945 205.491 98.6677C209.593 97.9018 212.413 98.4859 213.491 100.32C214.568 102.155 213.638 104.911 210.925 108.078C208.355 111.076 204.435 114.17 199.901 116.792C195.367 119.414 190.724 121.252 186.843 121.984C185.788 122.19 184.717 122.299 183.642 122.308ZM208.736 99.6325C207.728 99.6452 206.723 99.7495 205.733 99.944C201.995 100.645 197.513 102.432 193.087 104.98C188.661 107.528 184.866 110.527 182.4 113.413C180.103 116.095 179.22 118.375 179.968 119.678C180.717 120.98 183.14 121.352 186.61 120.703C190.348 120.006 194.83 118.215 199.256 115.667C203.682 113.118 207.477 110.12 209.943 107.234C212.24 104.556 213.123 102.272 212.375 100.969C211.86 100.078 210.583 99.6238 208.732 99.6238L208.736 99.6325Z" fill="#FFC727"/>
<path d="M208.693 122.308C207.618 122.297 206.546 122.187 205.491 121.979C201.597 121.252 196.972 119.409 192.433 116.787C187.895 114.165 183.979 111.059 181.409 108.069C178.696 104.902 177.784 102.146 178.844 100.312C179.904 98.4773 182.737 97.8932 186.843 98.659C190.737 99.3859 195.362 101.229 199.901 103.851C204.44 106.473 208.355 109.562 210.925 112.56C213.638 115.727 214.551 118.483 213.491 120.318C212.738 121.625 211.072 122.308 208.693 122.308ZM183.598 99.6325C181.747 99.6325 180.47 100.087 179.96 100.969C179.211 102.267 180.094 104.556 182.391 107.234C184.866 110.12 188.665 113.118 193.078 115.667C197.491 118.215 201.986 119.993 205.725 120.703C209.186 121.352 211.613 120.98 212.366 119.678C213.119 118.375 212.232 116.095 209.934 113.413C207.46 110.527 203.665 107.533 199.248 104.98C194.83 102.427 190.339 100.654 186.601 99.944C185.613 99.7468 184.61 99.6397 183.603 99.6238L183.598 99.6325Z" fill="#FFC727"/>
<path d="M196.167 113.253C197.79 113.253 199.105 111.937 199.105 110.315C199.105 108.692 197.79 107.377 196.167 107.377C194.545 107.377 193.229 108.692 193.229 110.315C193.229 111.937 194.545 113.253 196.167 113.253Z" fill="#FFC727"/>
<path d="M109.575 95.8337L89.4867 129.105L69.394 95.8337H84.3424L89.4867 105.495L94.6266 95.8337H109.575Z" fill="#FFC727"/>
<path opacity="0.1" d="M101.869 95.8337L89.4867 116.939L77.0997 95.8337H84.3424L89.4867 105.495L94.6266 95.8337H101.869Z" fill="#000102"/>
<path d="M165.937 61.4937L160.815 90.4039L143.898 95.7775L126.981 90.4039L121.858 61.4937L143.898 50.7335L165.937 61.4937Z" fill="#FFC727"/>
<path opacity="0.1" d="M143.898 93.4758V53.0352L163.662 62.6835L159.071 88.6127L143.898 93.4758Z" fill="black"/>
<path d="M141.959 61.6754H145.853L154.507 84.4029H149.955L147.844 78.7351H139.913L137.841 84.4029H133.285L141.959 61.6754ZM147.052 75.6286L143.898 66.6985L140.631 75.6286H147.052Z" fill="white"/>
<path d="M161.706 97.8716L163.605 102.462L161.71 103.245L159.798 98.6244L156.661 101.06V88.1324L165.712 97.2745L161.706 97.8716Z" fill="#263238"/>
<path d="M156.661 86.7263C156.582 86.5192 156.544 86.2989 156.549 86.0773C156.544 85.8543 156.582 85.6325 156.661 85.424C156.742 85.6322 156.782 85.8541 156.778 86.0773C156.781 86.2991 156.741 86.5195 156.661 86.7263Z" fill="#263238"/>
<path d="M155.545 87.1893C155.139 87.0015 154.813 86.6767 154.623 86.272C154.828 86.3591 155.012 86.4872 155.164 86.6484C155.325 86.8026 155.454 86.9862 155.545 87.1893Z" fill="#263238"/>
<path d="M155.078 88.3098C154.658 88.4597 154.199 88.4597 153.78 88.3098C154.198 88.154 154.659 88.154 155.078 88.3098Z" fill="#263238"/>
<path d="M155.545 89.4261C155.354 89.8306 155.028 90.1563 154.623 90.3477C154.815 89.9431 155.14 89.6174 155.545 89.4261Z" fill="#263238"/>
<path d="M158.245 88.3098C158.452 88.2296 158.672 88.19 158.894 88.193C159.117 88.1894 159.339 88.2291 159.547 88.3098C159.338 88.3891 159.117 88.4273 158.894 88.4223C158.672 88.4267 158.452 88.3885 158.245 88.3098Z" fill="#263238"/>
<path d="M157.782 87.1893C157.873 86.9874 158.001 86.8041 158.158 86.6484C158.311 86.4881 158.495 86.3601 158.699 86.272C158.611 86.4756 158.483 86.6595 158.323 86.8129C158.167 86.9705 157.984 87.0981 157.782 87.1893Z" fill="#263238"/>
</svg>
