<?xml version="1.0" encoding="utf-8"?>
<!-- Generator: Adobe Illustrator 25.2.1, SVG Export Plug-In . SVG Version: 6.00 Build 0)  -->
<svg version="1.1" id="Capa_1" xmlns="http://www.w3.org/2000/svg" xmlns:xlink="http://www.w3.org/1999/xlink" x="0px" y="0px"
	 viewBox="0 0 18 18" style="enable-background:new 0 0 18 18;" xml:space="preserve">
<style type="text/css">
	.st0{fill:#8596B9;}
</style>
<path class="st0" d="M8.2,12.8h1.5V8.2H8.2V12.8z M9,1.5C4.9,1.5,1.5,4.9,1.5,9s3.4,7.5,7.5,7.5s7.5-3.4,7.5-7.5S13.1,1.5,9,1.5z
	 M9,15c-3.3,0-6-2.7-6-6s2.7-6,6-6s6,2.7,6,6S12.3,15,9,15z M8.2,6.8h1.5V5.2H8.2V6.8z"/>
<path class="st0" d="M8.2,5.2h1.5v1.5H8.2V5.2z M8.2,8.2h1.5v4.5H8.2V8.2z"/>
<path class="st0" d="M9,1.5C4.9,1.5,1.5,4.9,1.5,9s3.4,7.5,7.5,7.5s7.5-3.4,7.5-7.5S13.1,1.5,9,1.5z M9,15c-3.3,0-6-2.7-6-6
	s2.7-6,6-6s6,2.7,6,6S12.3,15,9,15z"/>
</svg>
