<svg width="232" height="161" viewBox="0 0 232 161" fill="none" xmlns="http://www.w3.org/2000/svg">
<path d="M231.01 156.213C231.01 156.261 179.342 156.303 115.621 156.303C51.8987 156.303 0.21701 156.261 0.21701 156.213C0.21701 156.165 51.8746 156.124 115.621 156.124C179.366 156.124 231.01 156.162 231.01 156.213Z" fill="#263238"/>
<path d="M216.809 40.6582H85.7646C85.2273 40.6582 84.6953 40.7641 84.199 40.9698C83.7026 41.1755 83.2517 41.477 82.872 41.8571C82.4922 42.2371 82.1911 42.6883 81.9858 43.1848C81.7805 43.6813 81.6751 44.2134 81.6755 44.7507V137.31C81.6755 138.394 82.1063 139.434 82.8732 140.201C83.64 140.968 84.6801 141.399 85.7646 141.399H136.059C136.059 141.399 139.26 151.291 129.34 156.413H176.368C176.368 156.413 165.179 152.572 168.049 141.399H216.809C217.893 141.399 218.933 140.968 219.7 140.201C220.467 139.434 220.898 138.394 220.898 137.31V44.7507C220.898 44.2134 220.793 43.6813 220.587 43.1848C220.382 42.6883 220.081 42.2371 219.701 41.8571C219.322 41.477 218.871 41.1755 218.374 40.9698C217.878 40.7641 217.346 40.6582 216.809 40.6582Z" fill="#263238"/>
<path d="M153.035 131.651C154.818 134.198 152.03 136.99 149.48 135.207C149.395 135.147 149.321 135.072 149.263 134.986C147.483 132.439 150.271 129.655 152.818 131.434C152.902 131.494 152.975 131.567 153.035 131.651Z" fill="#455A64"/>
<path d="M87.2688 42.355H215.311C216.197 42.355 217.046 42.7068 217.672 43.3329C218.298 43.9591 218.65 44.8083 218.65 45.6938V124.468H83.9473V45.6938C83.9473 44.8113 84.2967 43.9646 84.9191 43.339C85.5415 42.7134 86.3863 42.3596 87.2688 42.355Z" fill="white"/>
<path d="M99.7633 60.8902H95.3437V110.235H99.7633V60.8902Z" fill="#FF725E"/>
<path d="M108.293 77.6494H103.873V110.235H108.293V77.6494Z" fill="#FF725E"/>
<path d="M116.822 67.0239H112.402V110.486H116.822V67.0239Z" fill="#FF725E"/>
<path d="M125.355 62.7971H120.935V110.235H125.355V62.7971Z" fill="#FF725E"/>
<path d="M133.884 78.6544H129.464V110.235H133.884V78.6544Z" fill="#FF725E"/>
<path d="M142.413 84.8466H137.994V110.235H142.413V84.8466Z" fill="#FF725E"/>
<path d="M150.942 65.9569H146.523V110.235H150.942V65.9569Z" fill="#FF725E"/>
<path d="M159.472 73.9389H155.052V110.235H159.472V73.9389Z" fill="#FF725E"/>
<path d="M168.004 67.5609H163.585V110.235H168.004V67.5609Z" fill="#FF725E"/>
<path d="M176.534 81.1602H172.114V110.235H176.534V81.1602Z" fill="#FF725E"/>
<path d="M193.548 65.9569H189.128V110.235H193.548V65.9569Z" fill="#FF725E"/>
<path d="M211.663 94.4464H207.243V109.598H211.663V94.4464Z" fill="#FF725E"/>
<path d="M202.831 81.1602H198.411V110.235H202.831V81.1602Z" fill="#FF725E"/>
<path d="M185.063 75.6289H180.643V110.235H185.063V75.6289Z" fill="#FF725E"/>
<path d="M212.902 67.1822C212.772 67.1707 212.643 67.15 212.516 67.1203L211.391 66.8897C210.784 66.7598 210.17 66.6621 209.553 66.5971C208.714 66.48 207.869 66.4099 207.023 66.3871C204.701 66.3095 202.379 66.5082 200.105 66.9791C197.098 67.6242 194.206 68.7197 191.527 70.2284C188.28 72.0574 185.346 74.3929 182.836 77.1468C180.131 80.1138 177.849 83.7796 175.515 87.6587C173.181 91.5379 170.758 95.7027 167.285 99.2961C165.548 101.153 163.496 102.688 161.224 103.829C160.044 104.402 158.783 104.787 157.486 104.972C156.167 105.148 154.828 105.102 153.524 104.838C150.901 104.26 148.578 102.883 146.623 101.22C144.705 99.5682 142.989 97.6954 141.511 95.6407C138.544 91.648 136.438 87.3455 134.183 83.4251C131.929 79.5046 129.667 75.8148 126.862 72.9407C125.534 71.5413 124.009 70.3425 122.336 69.3817C121.549 68.928 120.732 68.5312 119.889 68.1942C119.074 67.8933 118.24 67.6461 117.393 67.4541C114.397 66.7701 111.276 66.8578 108.323 67.7089C106.093 68.3468 103.988 69.3594 102.097 70.7034C100.915 71.5728 99.8195 72.5549 98.827 73.636L98.0594 74.4862C97.9755 74.5876 97.8834 74.682 97.7841 74.7684C97.8515 74.6565 97.9299 74.5516 98.0181 74.4552L98.7444 73.5603C99.7139 72.4445 100.797 71.4328 101.976 70.5416C103.87 69.1548 105.989 68.1067 108.241 67.4438C111.235 66.5446 114.409 66.4261 117.462 67.0996C120.859 67.788 124.322 69.7293 127.148 72.6412C129.974 75.5532 132.328 79.2465 134.572 83.1841C136.816 87.1218 138.957 91.4002 141.893 95.3413C143.352 97.368 145.043 99.2164 146.932 100.848C148.846 102.477 151.104 103.805 153.617 104.359C154.863 104.61 156.143 104.653 157.403 104.487C158.651 104.308 159.864 103.937 161 103.389C163.225 102.271 165.235 100.769 166.937 98.9519C170.362 95.4308 172.758 91.2728 175.126 87.4212C177.494 83.5696 179.779 79.8488 182.533 76.868C185.085 74.0981 188.064 71.7533 191.355 69.9221C194.072 68.4145 197.004 67.3315 200.049 66.7107C202.346 66.2539 204.691 66.0805 207.03 66.1944C207.882 66.2294 208.732 66.3156 209.573 66.4525C210.193 66.5303 210.806 66.6452 211.412 66.7967L212.527 67.0755C212.654 67.1011 212.78 67.1368 212.902 67.1822Z" fill="#263238"/>
<path d="M90.4871 113.673C90.3872 113.673 90.3046 99.6025 90.3046 82.2479C90.3046 64.8933 90.3872 50.8224 90.4871 50.8224C90.5869 50.8224 90.6695 64.8899 90.6695 82.2479C90.6695 99.606 90.58 113.673 90.4871 113.673Z" fill="#263238"/>
<path d="M211.646 113.673C211.646 113.773 185.142 113.852 152.443 113.852C119.744 113.852 93.2406 113.773 93.2406 113.673C93.2406 113.574 119.744 113.491 152.443 113.491C185.142 113.491 211.646 113.574 211.646 113.673Z" fill="#263238"/>
<path d="M101.646 117.556C101.646 117.656 100.18 117.738 98.3692 117.738C96.5587 117.738 95.089 117.656 95.089 117.556C95.089 117.456 96.5553 117.374 98.3692 117.374C100.183 117.374 101.646 117.456 101.646 117.556Z" fill="#263238"/>
<path d="M112.516 117.752C112.516 117.855 110.76 117.935 108.599 117.935C106.437 117.935 104.678 117.855 104.678 117.752C104.678 117.649 106.434 117.573 108.599 117.573C110.764 117.573 112.516 117.652 112.516 117.752Z" fill="#263238"/>
<path d="M121.809 117.752C121.809 117.855 120.054 117.935 117.892 117.935C115.731 117.935 113.972 117.855 113.972 117.752C113.972 117.649 115.727 117.573 117.892 117.573C120.057 117.573 121.809 117.652 121.809 117.752Z" fill="#263238"/>
<path d="M131.075 117.752C131.075 117.855 129.32 117.935 127.158 117.935C124.997 117.935 123.238 117.855 123.238 117.752C123.238 117.649 124.993 117.573 127.158 117.573C129.323 117.573 131.075 117.652 131.075 117.752Z" fill="#263238"/>
<path d="M140.351 117.752C140.351 117.855 138.599 117.935 136.434 117.935C134.269 117.935 132.514 117.855 132.514 117.752C132.514 117.649 134.269 117.573 136.434 117.573C138.599 117.573 140.351 117.652 140.351 117.752Z" fill="#263238"/>
<path d="M149.631 117.752C149.631 117.855 147.876 117.935 145.711 117.935C143.546 117.935 141.794 117.855 141.794 117.752C141.794 117.649 143.546 117.573 145.711 117.573C147.876 117.573 149.631 117.652 149.631 117.752Z" fill="#263238"/>
<path d="M158.907 117.752C158.907 117.855 157.152 117.935 154.987 117.935C152.822 117.935 151.07 117.855 151.07 117.752C151.07 117.649 152.822 117.573 154.987 117.573C157.152 117.573 158.907 117.652 158.907 117.752Z" fill="#263238"/>
<path d="M168.183 117.752C168.183 117.855 166.428 117.935 164.263 117.935C162.098 117.935 160.346 117.855 160.346 117.752C160.346 117.649 162.101 117.573 164.263 117.573C166.425 117.573 168.183 117.652 168.183 117.752Z" fill="#263238"/>
<path d="M177.46 117.752C177.46 117.855 175.704 117.935 173.543 117.935C171.381 117.935 169.622 117.855 169.622 117.752C169.622 117.649 171.378 117.573 173.543 117.573C175.708 117.573 177.46 117.652 177.46 117.752Z" fill="#263238"/>
<path d="M186.736 117.752C186.736 117.855 184.98 117.935 182.819 117.935C180.657 117.935 178.898 117.855 178.898 117.752C178.898 117.649 180.654 117.573 182.819 117.573C184.984 117.573 186.736 117.652 186.736 117.752Z" fill="#263238"/>
<path d="M195.365 117.756C195.365 117.859 193.609 117.938 191.444 117.938C189.279 117.938 187.527 117.859 187.527 117.756C187.527 117.652 189.283 117.577 191.444 117.577C193.606 117.577 195.365 117.656 195.365 117.756Z" fill="#263238"/>
<path d="M203.994 117.759C203.994 117.859 202.239 117.941 200.074 117.941C197.909 117.941 196.157 117.859 196.157 117.759C196.157 117.659 197.909 117.58 200.074 117.58C202.239 117.58 203.994 117.659 203.994 117.759Z" fill="#263238"/>
<path d="M212.62 117.763C212.62 117.862 210.864 117.945 208.703 117.945C206.541 117.945 204.782 117.862 204.782 117.763C204.782 117.663 206.538 117.58 208.703 117.58C210.868 117.58 212.62 117.663 212.62 117.763Z" fill="#263238"/>
<path d="M135.577 83.8656C135.577 83.7899 136.121 83.9792 136.293 84.7192C136.403 85.1464 136.354 85.5991 136.156 85.9928C136.022 86.2522 135.79 86.4478 135.512 86.5366C135.21 86.6214 134.887 86.583 134.614 86.4299C134.366 86.2915 134.162 86.0859 134.026 85.8368C133.891 85.5877 133.828 85.3053 133.846 85.0221C133.862 84.7994 133.925 84.5827 134.032 84.3863C134.138 84.1899 134.285 84.0183 134.462 83.8828C134.578 83.7878 134.714 83.7199 134.86 83.6842C135.006 83.6485 135.158 83.6458 135.305 83.6763C135.512 83.7383 135.581 83.8381 135.567 83.8587C135.553 83.8794 135.119 83.7211 134.686 84.1513C134.448 84.3865 134.309 84.7047 134.3 85.0394C134.299 85.233 134.349 85.4236 134.445 85.5917C134.541 85.7598 134.68 85.8994 134.848 85.9962C134.923 86.0429 135.006 86.074 135.093 86.0875C135.181 86.101 135.27 86.0966 135.355 86.0748C135.441 86.0529 135.521 86.0139 135.591 85.9602C135.661 85.9065 135.72 85.8391 135.763 85.7622C135.927 85.4631 135.992 85.1196 135.949 84.7812C135.89 84.1513 135.539 83.9242 135.577 83.8656Z" fill="#263238"/>
<path d="M193.727 67.6297C193.727 67.6021 193.868 67.5574 194.112 67.6297C194.449 67.7561 194.73 68.0007 194.9 68.3181C195.037 68.5493 195.124 68.8061 195.158 69.0725C195.191 69.339 195.169 69.6094 195.093 69.867C195.003 70.2035 194.808 70.5024 194.536 70.7198C194.264 70.9373 193.93 71.0618 193.582 71.0751C193.395 71.0666 193.213 71.0176 193.047 70.9314C192.881 70.8452 192.736 70.724 192.622 70.576C192.421 70.3247 192.282 70.0301 192.215 69.7155C192.149 69.4558 192.137 69.1852 192.18 68.9206C192.223 68.656 192.319 68.4029 192.463 68.177C193.007 67.4094 193.678 67.4473 193.654 67.4886C193.685 67.5608 193.124 67.6675 192.763 68.3387C192.571 68.727 192.533 69.1731 192.656 69.5882C192.773 70.0425 193.124 70.5623 193.599 70.5657C193.842 70.5459 194.073 70.4536 194.263 70.3008C194.452 70.148 194.592 69.9417 194.663 69.7087C194.797 69.3003 194.771 68.8561 194.59 68.4661C194.408 68.0957 194.103 67.8 193.727 67.6297Z" fill="#263238"/>
<path d="M143.594 17.3115H54.9246V86.3203H143.594V17.3115Z" fill="white"/>
<path d="M143.594 86.3198C143.594 85.6314 143.563 58.9558 143.511 17.311L143.594 17.3936H54.9345L55.0344 17.2938C55.0344 42.1692 55.0344 65.6953 55.0344 86.3026L54.9449 86.2131L143.614 86.3026L54.9449 86.3921H54.8554V86.3026C54.8554 65.6953 54.8554 42.1692 54.8554 17.2938V17.194H54.9655H143.625H143.707V17.2766C143.628 58.9558 143.597 85.6314 143.594 86.3198Z" fill="#263238"/>
<path d="M73.604 26.3773H59.2509V27.1758H73.604V26.3773Z" fill="#263238"/>
<path d="M66.3448 28.2463H59.2509V29.0448H66.3448V28.2463Z" fill="#263238"/>
<path d="M70.0312 76.4034H67.4325V77.1537H70.0312V76.4034Z" fill="#263238"/>
<path d="M76.6399 80.4099H73.3149V81.1602H76.6399V80.4099Z" fill="#263238"/>
<path d="M88.2153 80.4099H84.8903V81.1602H88.2153V80.4099Z" fill="#263238"/>
<path d="M99.7908 80.4099H96.4658V81.1602H99.7908V80.4099Z" fill="#263238"/>
<path d="M111.366 80.4099H108.041V81.1602H111.366V80.4099Z" fill="#263238"/>
<path d="M122.942 80.4099H119.617V81.1602H122.942V80.4099Z" fill="#263238"/>
<path d="M134.517 80.4099H131.192V81.1602H134.517V80.4099Z" fill="#263238"/>
<path d="M70.0312 66.3975H67.4325V67.1478H70.0312V66.3975Z" fill="#263238"/>
<path d="M70.0312 47.5628H67.4325V48.3131H70.0312V47.5628Z" fill="#263238"/>
<path d="M70.0312 38.0973H67.4325V38.8477H70.0312V38.0973Z" fill="#263238"/>
<path d="M70.1655 56.9801H67.5667V57.7305H70.1655V56.9801Z" fill="#263238"/>
<path d="M134.424 77.1537C134.424 77.1537 134.331 77.1537 134.145 77.1537H133.326L130.18 77.1709L118.612 77.2019L80.4364 77.226H71.3013V77.1365C71.3013 64.3701 71.3254 53.1354 71.3323 45.088C71.3323 41.0678 71.3529 37.8598 71.3598 35.6225C71.3598 34.5176 71.3598 33.6606 71.3598 33.0754C71.3598 32.7863 71.3598 32.5694 71.3598 32.4146C71.3598 32.2597 71.3598 32.1908 71.3598 32.1908C71.3598 32.1908 71.3598 32.2666 71.3598 32.4146C71.3598 32.5626 71.3598 32.7863 71.3598 33.0754C71.3598 33.6606 71.3598 34.5176 71.3598 35.6225C71.3598 37.846 71.3598 41.0678 71.3874 45.088C71.3874 53.1354 71.4046 64.3632 71.4183 77.1365L71.3288 77.047H80.4364L118.612 77.0746L130.18 77.1021L133.326 77.1193H134.145L134.424 77.1537Z" fill="#263238"/>
<path d="M135.157 57.3553C135.157 57.4035 121.444 57.4448 104.524 57.4448C87.6026 57.4448 73.8897 57.4035 73.8897 57.3553C73.8897 57.3071 87.5992 57.2658 104.524 57.2658C121.448 57.2658 135.157 57.3037 135.157 57.3553Z" fill="#263238"/>
<path d="M135.157 47.938C135.157 47.9862 121.444 48.0275 104.524 48.0275C87.6026 48.0275 73.8897 47.9862 73.8897 47.938C73.8897 47.8898 87.5992 47.8485 104.524 47.8485C121.448 47.8485 135.157 47.8898 135.157 47.938Z" fill="#263238"/>
<path d="M135.157 38.4725C135.157 38.5241 121.444 38.562 104.524 38.562C87.6026 38.562 73.8897 38.5241 73.8897 38.4725C73.8897 38.4208 87.5992 38.383 104.524 38.383C121.448 38.383 135.157 38.4243 135.157 38.4725Z" fill="#263238"/>
<path d="M135.157 66.7727C135.157 66.8208 121.444 66.8622 104.524 66.8622C87.6026 66.8622 73.8897 66.8208 73.8897 66.7727C73.8897 66.7245 87.5992 66.6832 104.524 66.6832C121.448 66.6832 135.157 66.7245 135.157 66.7727Z" fill="#263238"/>
<path d="M74.5368 75.1264V66.7726L79.7445 58.6805L83.2795 61.3928L90.5318 50.1271L94.8102 53.1388L100.761 42.744L105.58 46.6851L112.86 32.9033L120.673 48.3131L126.972 40.6031L134.41 38.4725V75.1264H74.5368Z" fill="#455A64"/>
<path d="M135.157 35.5055C135.114 35.5084 135.07 35.5084 135.027 35.5055H134.638H133.13L127.42 35.5296L127.458 35.5089L121.338 43.5357L121.314 43.5632H121.279H105.962L106.038 43.5219L99.598 54.2403C97.4055 57.8888 95.2818 61.4169 93.2751 64.7487L93.2097 64.8623L93.134 64.7556L84.8318 53.3523H84.9523L77.4074 65.1515L75.3044 68.4145C75.0634 68.7862 74.8776 69.0719 74.7468 69.2681C74.616 69.4643 74.5506 69.5572 74.5506 69.5572C74.5506 69.5572 74.6091 69.454 74.7296 69.2578L75.2665 68.3938C75.7449 67.6331 76.4437 66.5214 77.3317 65.1067L84.8353 53.2765L84.8938 53.187L84.9592 53.2731L93.2785 64.6627H93.134L99.4363 54.1577L105.883 43.4393L105.907 43.398H105.976L121.293 43.4152L121.238 43.4427L127.396 35.4779V35.4573H127.42L133.13 35.4814H134.638H135.027L135.157 35.5055Z" fill="#263238"/>
<path d="M87.3892 55.9923C87.394 56.1096 87.3636 56.2256 87.302 56.3256C87.2403 56.4255 87.1501 56.5046 87.0431 56.5529C86.936 56.6012 86.817 56.6163 86.7013 56.5964C86.5856 56.5765 86.4785 56.5224 86.3937 56.4411C86.309 56.3599 86.2505 56.2551 86.2258 56.1403C86.201 56.0255 86.2112 55.906 86.2549 55.797C86.2987 55.6881 86.374 55.5947 86.4713 55.5289C86.5685 55.4631 86.6832 55.4279 86.8006 55.4278C86.9534 55.425 87.1011 55.4828 87.2114 55.5886C87.3217 55.6944 87.3856 55.8395 87.3892 55.9923Z" fill="#263238"/>
<path d="M105.067 45.945C105.072 46.0625 105.042 46.1787 104.98 46.2787C104.918 46.3787 104.828 46.4579 104.72 46.506C104.613 46.5542 104.494 46.5692 104.378 46.549C104.262 46.5288 104.155 46.4744 104.071 46.3927C103.986 46.3111 103.928 46.206 103.903 46.091C103.879 45.976 103.89 45.8563 103.934 45.7474C103.978 45.6385 104.054 45.5454 104.152 45.48C104.25 45.4146 104.365 45.38 104.482 45.3806C104.558 45.3792 104.633 45.3927 104.703 45.4203C104.773 45.448 104.837 45.4892 104.892 45.5416C104.946 45.594 104.99 45.6566 105.02 45.7258C105.05 45.7951 105.066 45.8696 105.067 45.945Z" fill="#263238"/>
<path d="M118.216 44.0485C118.541 44.0485 118.804 43.7958 118.804 43.484C118.804 43.1723 118.541 42.9195 118.216 42.9195C117.891 42.9195 117.627 43.1723 117.627 43.484C117.627 43.7958 117.891 44.0485 118.216 44.0485Z" fill="#263238"/>
<path d="M58.6313 20.1507C58.6313 20.2868 58.5909 20.4199 58.5153 20.5331C58.4396 20.6463 58.3321 20.7346 58.2063 20.7867C58.0805 20.8388 57.9421 20.8524 57.8086 20.8259C57.675 20.7993 57.5524 20.7337 57.4561 20.6375C57.3598 20.5412 57.2943 20.4185 57.2677 20.285C57.2412 20.1514 57.2548 20.013 57.3069 19.8872C57.359 19.7615 57.4472 19.6539 57.5604 19.5783C57.6736 19.5027 57.8067 19.4623 57.9429 19.4623C58.1255 19.4623 58.3006 19.5348 58.4297 19.6639C58.5588 19.793 58.6313 19.9681 58.6313 20.1507Z" fill="#263238"/>
<path d="M60.6139 20.1507C60.6139 20.2868 60.5735 20.4199 60.4979 20.5331C60.4222 20.6463 60.3147 20.7346 60.1889 20.7867C60.0631 20.8388 59.9247 20.8524 59.7912 20.8259C59.6577 20.7993 59.535 20.7337 59.4387 20.6375C59.3424 20.5412 59.2769 20.4185 59.2503 20.285C59.2238 20.1514 59.2374 20.013 59.2895 19.8872C59.3416 19.7615 59.4298 19.6539 59.543 19.5783C59.6562 19.5027 59.7893 19.4623 59.9255 19.4623C60.1081 19.4623 60.2832 19.5348 60.4123 19.6639C60.5414 19.793 60.6139 19.9681 60.6139 20.1507Z" fill="#263238"/>
<path d="M62.6068 20.1507C62.6068 20.2868 62.5664 20.4199 62.4908 20.5331C62.4151 20.6463 62.3076 20.7346 62.1818 20.7867C62.056 20.8388 61.9176 20.8524 61.7841 20.8259C61.6505 20.7993 61.5279 20.7337 61.4316 20.6375C61.3353 20.5412 61.2698 20.4185 61.2432 20.285C61.2166 20.1514 61.2303 20.013 61.2824 19.8872C61.3345 19.7615 61.4227 19.6539 61.5359 19.5783C61.6491 19.5027 61.7822 19.4623 61.9184 19.4623C62.101 19.4623 62.2761 19.5348 62.4052 19.6639C62.5343 19.793 62.6068 19.9681 62.6068 20.1507Z" fill="#263238"/>
<path d="M143.521 22.8389C143.521 22.887 123.709 22.9283 99.2745 22.9283C74.8397 22.9283 55.0344 22.8836 55.0344 22.8389C55.0344 22.7941 74.8431 22.7494 99.2848 22.7494C123.726 22.7494 143.521 22.7872 143.521 22.8389Z" fill="#263238"/>
<path d="M0.278962 127.373L2.14109 134.06C2.65324 135.876 3.81497 137.441 5.40534 138.456C6.99572 139.472 8.90381 139.867 10.7668 139.568C10.7668 139.568 14.2914 144.593 15.7955 145.419L17.1517 156.134H25.1956L25.8324 151.794C31.6138 154.221 37.8628 155.332 44.1267 155.046C54.3116 154.506 56.7519 151.522 56.7519 151.522L57.9704 156.134H67.0573L68.5511 144.335C68.5511 144.335 79.6688 134.436 76.8119 122.908C76.8119 122.908 84.8112 117.446 82.0989 109.667L80.4708 108.934C80.4708 108.934 77.8927 113.543 75.1804 114.493C75.1804 114.493 67.8834 91.0319 40.4162 92.9319C40.4162 92.9319 31.2501 92.5257 22.5694 96.5907C22.5694 96.5907 12.9318 91.5757 5.75519 95.2346C5.75519 95.2346 5.62095 103.495 9.68596 108.256C9.68596 108.256 6.16135 116.121 5.89976 117.749L4.84995 118.169C3.08789 118.87 1.64685 120.197 0.803276 121.896C-0.0402998 123.595 -0.22701 125.545 0.278962 127.373Z" fill="#FF725E"/>
<path d="M19.7091 117.294C19.7091 117.739 19.5773 118.173 19.3303 118.543C19.0833 118.913 18.7323 119.201 18.3216 119.371C17.9109 119.541 17.459 119.586 17.023 119.499C16.587 119.412 16.1865 119.198 15.8722 118.884C15.5578 118.569 15.3438 118.169 15.257 117.733C15.1703 117.297 15.2148 116.845 15.3849 116.434C15.555 116.024 15.8431 115.672 16.2128 115.426C16.5824 115.179 17.0169 115.047 17.4615 115.047C18.0576 115.047 18.6293 115.284 19.0508 115.705C19.4723 116.127 19.7091 116.698 19.7091 117.294Z" fill="#263238"/>
<g opacity="0.6">
<path opacity="0.6" d="M30.0626 98.8865L31.0711 101.716C31.0711 101.716 43.2937 98.0777 51.1724 101.716L52.2842 98.8865C52.2842 98.8865 42.6879 94.4429 30.0626 98.8865Z" fill="black"/>
</g>
<path d="M53.2755 103.013C53.1981 102.975 53.1233 102.931 53.0518 102.883C52.9073 102.79 52.6904 102.662 52.4116 102.501C51.618 102.05 50.7851 101.672 49.923 101.372C48.6443 100.929 47.322 100.624 45.9785 100.463C44.3315 100.271 42.6719 100.209 41.0151 100.277C39.3561 100.324 37.7006 100.456 36.0552 100.673C34.7128 100.846 33.3912 101.154 32.1107 101.592C31.2484 101.889 30.42 102.277 29.6393 102.748C29.0851 103.093 28.8029 103.303 28.7891 103.285C28.8518 103.224 28.9198 103.169 28.9922 103.12C29.1868 102.965 29.3903 102.822 29.6014 102.69C30.375 102.192 31.203 101.784 32.0694 101.475C33.3523 101.015 34.6803 100.692 36.0311 100.511C37.6827 100.286 39.3454 100.152 41.0117 100.108C42.6768 100.039 44.3449 100.106 45.9991 100.308C47.3528 100.481 48.6835 100.8 49.9678 101.262C50.8304 101.576 51.6604 101.974 52.446 102.449C52.7248 102.621 52.9348 102.762 53.069 102.862C53.1417 102.907 53.2108 102.958 53.2755 103.013Z" fill="#263238"/>
<g opacity="0.2">
<path opacity="0.2" d="M5.42131 124.399C5.29179 124.049 5.08603 123.733 4.81896 123.473C4.68351 123.345 4.51351 123.259 4.32999 123.227C4.14647 123.194 3.95747 123.216 3.78636 123.29C3.52518 123.497 3.34293 123.788 3.27006 124.113C2.8164 126.162 3.17285 128.307 4.2648 130.099C4.33863 130.224 4.43813 130.332 4.55676 130.417C4.6754 130.501 4.81049 130.559 4.9532 130.587C5.56932 130.694 5.89286 130.133 6.04431 129.624C6.56406 127.906 6.1579 126.037 5.42131 124.399Z" fill="black"/>
</g>
<path d="M10.3572 129.93C10.3399 129.759 10.3399 129.588 10.3572 129.417C10.3685 129.216 10.3685 129.015 10.3572 128.815C10.3572 128.581 10.3572 128.312 10.3572 128.016C10.3572 127.72 10.3262 127.4 10.2814 127.056C10.2367 126.712 10.1816 126.347 10.1162 125.961C9.80111 124.297 9.189 122.703 8.30918 121.256C8.09921 120.912 7.9099 120.609 7.69994 120.334C7.48998 120.058 7.30067 119.797 7.11136 119.566C6.92205 119.335 6.74306 119.143 6.58817 118.967C6.43328 118.792 6.29216 118.647 6.17513 118.53C6.04963 118.415 5.93445 118.29 5.83093 118.155C5.97354 118.252 6.10716 118.361 6.23021 118.482C6.3832 118.613 6.52912 118.752 6.66734 118.898C6.86043 119.084 7.04313 119.281 7.21462 119.487C7.41081 119.711 7.62077 119.958 7.8273 120.244C8.03382 120.53 8.24034 120.84 8.45718 121.17C8.90416 121.896 9.28655 122.659 9.59993 123.452C9.90057 124.253 10.1309 125.079 10.2883 125.92C10.3468 126.309 10.4122 126.677 10.4363 127.028C10.4604 127.379 10.4845 127.717 10.4914 127.999C10.4983 128.281 10.4914 128.567 10.4914 128.804C10.4877 129.006 10.4727 129.207 10.4467 129.407C10.431 129.583 10.4011 129.758 10.3572 129.93Z" fill="#263238"/>
<path d="M12.8251 125.111C12.7907 125.111 12.6599 124.543 12.2778 123.672C12.0529 123.165 11.7894 122.676 11.4896 122.21C11.1145 121.651 10.693 121.125 10.2298 120.637C9.75485 120.151 9.23893 119.708 8.6878 119.311C8.23452 118.992 7.75691 118.709 7.25937 118.465C6.40919 118.048 5.83437 117.893 5.84814 117.859C5.98575 117.873 6.12106 117.904 6.25086 117.952C6.40904 117.993 6.56428 118.045 6.71553 118.107C6.91955 118.177 7.11949 118.259 7.31444 118.351C7.82735 118.583 8.31911 118.86 8.78417 119.177C9.34945 119.572 9.87613 120.019 10.3572 120.513C10.8319 121.014 11.2572 121.561 11.6273 122.144C11.9267 122.621 12.1836 123.123 12.3948 123.645C12.4912 123.865 12.5532 124.075 12.6151 124.254C12.6685 124.407 12.7122 124.564 12.7459 124.722C12.7888 124.848 12.8154 124.979 12.8251 125.111Z" fill="#263238"/>
<path d="M3.4594 124.079C3.44483 124.016 3.44808 123.951 3.46876 123.89C3.48944 123.829 3.52674 123.775 3.57643 123.734C3.68683 123.624 3.83123 123.555 3.98602 123.538C4.08893 123.528 4.19281 123.539 4.29154 123.569C4.39026 123.6 4.48183 123.65 4.56084 123.717C4.91586 124.084 5.18096 124.528 5.33529 125.015C5.80383 126.155 6.03795 127.379 6.02369 128.612C6.06154 129.122 5.96793 129.634 5.75177 130.099C5.66427 130.254 5.53241 130.38 5.37302 130.46C5.21363 130.541 5.03394 130.572 4.85685 130.549C4.60214 130.501 4.51265 130.357 4.5333 130.36C4.63797 130.425 4.75541 130.466 4.8775 130.481C5.03635 130.488 5.19401 130.45 5.33186 130.371C5.46971 130.291 5.58197 130.174 5.6554 130.033C5.84356 129.584 5.91805 129.096 5.87224 128.612C5.86994 128.007 5.81118 127.405 5.6967 126.811C5.58461 126.218 5.41871 125.636 5.20105 125.073C5.06014 124.607 4.81936 124.177 4.49544 123.813C4.38076 123.706 4.2309 123.644 4.07382 123.639C3.91674 123.634 3.76319 123.686 3.64182 123.786C3.55145 123.862 3.48755 123.964 3.4594 124.079Z" fill="#263238"/>
<path d="M20.7589 125.665C20.7589 125.665 20.814 125.731 20.8759 125.872C20.9552 126.071 21.0061 126.281 21.0274 126.495C21.0692 126.851 21.0379 127.212 20.9352 127.556C20.8325 127.9 20.6607 128.219 20.4302 128.494C20.1998 128.769 19.9156 128.994 19.595 129.155C19.2745 129.316 18.9245 129.41 18.5663 129.431C18.3521 129.447 18.1365 129.434 17.9261 129.39C17.7781 129.355 17.7024 129.324 17.7024 129.31C17.9855 129.329 18.2695 129.329 18.5526 129.31C19.2298 129.238 19.8527 128.906 20.2904 128.384C20.7281 127.863 20.9466 127.192 20.9 126.512C20.8702 126.227 20.8231 125.944 20.7589 125.665Z" fill="#263238"/>
<path d="M19.4854 111.808C18.7749 111.519 18.0296 111.325 17.2687 111.23C16.5025 111.194 15.735 111.261 14.9867 111.429C15.1816 111.305 15.3992 111.221 15.6269 111.181C16.1681 111.049 16.7272 111.005 17.2825 111.051C17.838 111.097 18.3821 111.234 18.8933 111.457C19.1108 111.536 19.3116 111.655 19.4854 111.808Z" fill="#263238"/>
<path d="M57.3853 96.9556L57.2992 96.928L57.048 96.8316L56.0877 96.4496L55.3993 96.1673C55.1445 96.0675 54.8623 95.978 54.5628 95.8748C53.9571 95.6751 53.2824 95.4101 52.4976 95.2139L51.2861 94.8697C50.8661 94.7561 50.4187 94.6735 49.9574 94.5702C49.0453 94.3431 48.0471 94.2054 47.0042 94.0333C44.7225 93.734 42.4204 93.6189 40.1202 93.6891C37.8259 93.7884 35.5433 94.0727 33.2947 94.5393C32.2621 94.7836 31.2811 94.997 30.3862 95.2896C29.9387 95.4273 29.4947 95.5409 29.0851 95.6889L27.9011 96.1157C27.1404 96.367 26.4864 96.6802 25.8978 96.9246C25.6053 97.0519 25.3299 97.1621 25.0855 97.2688L24.4178 97.613L23.4884 98.0673L23.2475 98.1809C23.2211 98.1975 23.192 98.2091 23.1614 98.2153C23.1614 98.2153 23.1855 98.2153 23.2372 98.1671L23.4712 98.0363L24.3868 97.551L25.0477 97.2068C25.292 97.0863 25.5674 96.9693 25.8565 96.8385C26.4417 96.5873 27.0956 96.2637 27.8563 96.0021L29.0404 95.565C29.4534 95.4135 29.894 95.2965 30.3449 95.1519C31.2433 94.8525 32.2277 94.6356 33.2603 94.3844C35.5169 93.9071 37.809 93.6158 40.1133 93.5136C42.4142 93.449 44.7165 93.5721 46.9973 93.8818C48.0471 94.0574 49.0453 94.2019 49.9643 94.4326C50.4221 94.5427 50.873 94.6288 51.2929 94.7492L52.5045 95.0934C53.2824 95.2965 53.9571 95.5719 54.5697 95.7818C54.8692 95.8885 55.1514 95.9849 55.4061 96.0847L56.0945 96.3842L57.0411 96.8007L57.2855 96.9142C57.3612 96.9383 57.3887 96.9521 57.3853 96.9556Z" fill="white"/>
<path d="M61.4778 99.2376C61.1032 99.1787 60.7398 99.0626 60.4004 98.8934C60.0378 98.7762 59.6962 98.6019 59.3885 98.3771C59.7641 98.4365 60.1285 98.5526 60.4693 98.7213C60.8302 98.8399 61.1705 99.0141 61.4778 99.2376Z" fill="white"/>
<path d="M4.2648 119.917C4.2648 119.948 3.95157 120.079 3.47658 120.378C2.23633 121.168 1.31473 122.37 0.874423 123.772C0.709206 124.309 0.667902 124.657 0.633482 124.653C0.619284 124.571 0.619284 124.488 0.633482 124.406C0.652815 124.179 0.693144 123.954 0.753952 123.734C0.941896 123.009 1.27327 122.329 1.72849 121.735C2.18371 121.14 2.75354 120.642 3.4043 120.272C3.59898 120.157 3.80414 120.062 4.01697 119.986C4.09488 119.949 4.17878 119.925 4.2648 119.917Z" fill="white"/>
<path d="M25.409 154.124C25.409 154.124 25.3471 154.041 25.2025 153.931C24.9862 153.779 24.721 153.714 24.459 153.749C24.2581 153.77 24.0649 153.837 23.8946 153.946C23.7243 154.055 23.5817 154.202 23.4781 154.375C23.2207 154.842 23.1013 155.372 23.1339 155.903H22.9755C23.0033 155.633 22.9725 155.359 22.8852 155.101C22.7979 154.844 22.6561 154.608 22.4696 154.409C22.2615 154.195 21.994 154.047 21.7014 153.986C21.4088 153.925 21.1045 153.952 20.8277 154.065C20.6504 154.141 20.4946 154.26 20.3744 154.41C20.2543 154.561 20.1735 154.739 20.1393 154.929C20.0971 155.106 20.0978 155.291 20.1415 155.467C20.1853 155.644 20.2707 155.808 20.3906 155.945L20.2495 156.031C20.0666 155.373 19.7331 154.768 19.2754 154.261C19.0947 154.071 18.8683 153.93 18.6177 153.851C18.367 153.773 18.1005 153.76 17.8435 153.814C17.6778 153.861 17.5247 153.944 17.3955 154.058C17.2662 154.172 17.1641 154.313 17.0966 154.471C17.0557 154.59 17.0302 154.714 17.0209 154.84C16.9871 154.712 16.9956 154.577 17.045 154.454C17.1064 154.28 17.2078 154.122 17.341 153.993C17.4743 153.865 17.6358 153.769 17.8125 153.714C18.0888 153.646 18.3782 153.651 18.6521 153.728C18.9261 153.805 19.1753 153.952 19.3752 154.155C19.8593 154.67 20.2134 155.293 20.4078 155.972L20.5489 156.358L20.2701 156.055C20.1301 155.899 20.0298 155.711 19.9776 155.508C19.9255 155.305 19.9231 155.092 19.9707 154.888C20.0115 154.669 20.1061 154.463 20.2461 154.289C20.3861 154.116 20.567 153.98 20.7727 153.893C21.083 153.766 21.4242 153.735 21.7524 153.804C22.0806 153.873 22.3807 154.038 22.6141 154.279C22.8155 154.496 22.9676 154.754 23.0603 155.036C23.1529 155.317 23.1839 155.616 23.1511 155.91H22.9928C22.9637 155.351 23.099 154.796 23.3817 154.313C23.508 154.112 23.6817 153.946 23.8877 153.828C24.0659 153.734 24.2615 153.677 24.4625 153.663C24.744 153.637 25.0245 153.722 25.2438 153.9C25.3164 153.96 25.3731 154.037 25.409 154.124Z" fill="#263238"/>
<path d="M73.3699 153.463L72.7779 155.955C72.7779 155.955 68.6991 161.252 67.4428 160.991C66.6167 160.822 67.6321 159.442 69.1638 155.418L69.508 153.759L73.3699 153.463Z" fill="#455A64"/>
<path d="M67.2776 160.22C67.3266 160.31 67.4023 160.383 67.4944 160.43C67.6222 160.485 67.7627 160.504 67.9006 160.484C68.0384 160.465 68.1682 160.408 68.2758 160.319C68.9892 159.72 69.6662 159.079 70.3031 158.399C71.0569 157.607 71.6799 156.843 72.1377 156.282L72.6574 155.611C72.7091 155.545 72.7572 155.487 72.7986 155.428C72.8148 155.406 72.8333 155.385 72.8536 155.366C72.8374 155.389 72.8189 155.41 72.7986 155.428L72.6678 155.621C72.5542 155.786 72.3821 156.02 72.1652 156.31C71.596 157.053 70.9871 157.766 70.341 158.444C69.6983 159.13 69.0082 159.771 68.2758 160.361C68.1395 160.457 67.9804 160.515 67.8145 160.529C67.6891 160.536 67.5641 160.509 67.4531 160.45C67.3823 160.414 67.3228 160.359 67.281 160.292C67.2761 160.268 67.2749 160.244 67.2776 160.22Z" fill="#263238"/>
<path d="M67.8524 158.499C67.9616 158.455 68.0806 158.442 68.1966 158.461C68.4698 158.488 68.7327 158.578 68.9642 158.726C69.2045 158.864 69.3986 159.07 69.5218 159.318C69.5774 159.418 69.6081 159.53 69.6113 159.645C69.6113 159.645 69.5735 159.521 69.4771 159.342C69.3454 159.113 69.1554 158.923 68.9264 158.791C68.703 158.648 68.4521 158.553 68.1898 158.512C68.0776 158.502 67.965 158.497 67.8524 158.499Z" fill="#263238"/>
<path d="M71.7143 157.266C71.6901 157.23 71.6726 157.189 71.6627 157.146C71.6288 157.033 71.6024 156.918 71.5835 156.802C71.526 156.413 71.5922 156.015 71.7728 155.666C71.9515 155.315 72.2422 155.034 72.5989 154.867C72.7078 154.816 72.8238 154.781 72.9431 154.764C72.9853 154.757 73.0283 154.757 73.0705 154.764C72.9182 154.804 72.7696 154.857 72.6264 154.922C72.2898 155.097 72.0164 155.372 71.8451 155.711C71.6726 156.048 71.602 156.428 71.642 156.805C71.6696 157.087 71.7246 157.263 71.7143 157.266Z" fill="#263238"/>
<path d="M73.1118 153.886C73.1118 153.886 73.0361 154.23 72.9604 154.681C72.9288 154.952 72.8569 155.217 72.7469 155.466C72.7469 155.466 72.8123 155.122 72.8881 154.668C72.9209 154.397 72.9964 154.133 73.1118 153.886Z" fill="#263238"/>
<path d="M69.1087 155.769C69.2799 155.722 69.4607 155.722 69.6319 155.769C69.8075 155.796 69.9713 155.874 70.1034 155.993C70.1034 156.013 69.89 155.903 69.6147 155.841C69.3393 155.779 69.1121 155.793 69.1087 155.769Z" fill="#263238"/>
<path d="M69.0261 156.196C69.1686 156.145 69.3242 156.145 69.4667 156.196C69.6169 156.218 69.754 156.294 69.8522 156.409C69.8522 156.427 69.6767 156.32 69.4495 156.268C69.2223 156.217 69.0296 156.22 69.0261 156.196Z" fill="#263238"/>
<path d="M68.6991 156.733C68.7669 156.691 68.8428 156.664 68.9217 156.654C69.0007 156.644 69.0808 156.651 69.1569 156.674C69.2356 156.686 69.3108 156.714 69.3774 156.757C69.4439 156.801 69.5003 156.858 69.5424 156.926C69.4162 156.849 69.2809 156.789 69.1397 156.747C68.994 156.724 68.846 156.719 68.6991 156.733Z" fill="#263238"/>
<path d="M69.391 155.59C69.391 155.59 69.5768 155.542 69.8694 155.428C70.0388 155.361 70.2033 155.281 70.3616 155.191C70.4477 155.139 70.5406 155.081 70.6301 155.019C70.7196 154.957 70.8056 154.867 70.8022 154.771C70.7987 154.675 70.6783 154.619 70.5853 154.644C70.4884 154.677 70.4018 154.735 70.3341 154.812C70.1826 154.953 70.0553 155.088 69.952 155.205C69.742 155.439 69.6285 155.594 69.6078 155.587C69.6253 155.545 69.6485 155.505 69.6766 155.47C69.7248 155.397 69.8006 155.294 69.9004 155.17C70.0183 155.028 70.1435 154.893 70.2756 154.764C70.3509 154.677 70.4484 154.611 70.5578 154.575C70.5906 154.564 70.6253 154.561 70.6595 154.566C70.6936 154.57 70.7264 154.582 70.7555 154.6C70.7847 154.619 70.8095 154.643 70.8282 154.672C70.847 154.701 70.8592 154.733 70.8641 154.767C70.8574 154.831 70.8358 154.892 70.8011 154.946C70.7665 155 70.7197 155.045 70.6645 155.077C70.5739 155.14 70.4796 155.198 70.3823 155.249C70.2207 155.34 70.0514 155.416 69.8763 155.477C69.7582 155.518 69.6375 155.551 69.5149 155.576C69.4391 155.594 69.391 155.597 69.391 155.59Z" fill="#263238"/>
<path d="M69.6043 155.538C69.5713 155.388 69.546 155.237 69.5286 155.084C69.5026 154.922 69.4564 154.763 69.3909 154.613C69.3518 154.526 69.3008 154.445 69.2395 154.372C69.1775 154.303 69.0812 154.241 69.0054 154.286C68.9297 154.33 68.9194 154.444 68.9297 154.537C68.9451 154.63 68.9717 154.722 69.0089 154.809C69.0765 154.958 69.1658 155.096 69.2739 155.218C69.4632 155.428 69.6181 155.528 69.6181 155.538C69.6181 155.549 69.5768 155.538 69.5114 155.477C69.4177 155.411 69.3301 155.337 69.2498 155.256C69.1312 155.133 69.0336 154.991 68.9607 154.836C68.9191 154.743 68.8891 154.645 68.8712 154.544C68.8569 154.485 68.86 154.424 68.8802 154.367C68.9004 154.31 68.9367 154.26 68.9848 154.224C69.0415 154.201 69.1042 154.199 69.1623 154.217C69.2205 154.236 69.2708 154.273 69.3049 154.323C69.3713 154.402 69.4258 154.49 69.4667 154.585C69.5319 154.742 69.5747 154.908 69.594 155.077C69.6112 155.218 69.6181 155.335 69.6215 155.421C69.6211 155.461 69.6154 155.5 69.6043 155.538Z" fill="#263238"/>
<path d="M92.8964 154.619L92.9136 151.294L86.7008 151.219L86.6148 156.089L87.0003 156.12C88.7213 156.237 95.7395 156.588 96.8926 156.254C98.1799 155.876 92.8964 154.619 92.8964 154.619Z" fill="#455A64"/>
<path d="M86.5287 155.941H86.6354L86.9452 155.965L88.0742 156.027C89.0311 156.075 90.3528 156.12 91.8122 156.141C93.2716 156.161 94.5934 156.141 95.5502 156.141L96.6827 156.11H96.989H97.0957H96.989H96.6827H95.5502C94.5968 156.11 93.2751 156.11 91.8157 156.11C90.3563 156.11 89.038 156.051 88.0811 156.02L86.9487 155.979H86.6423L86.5287 155.941Z" fill="#263238"/>
<path d="M94.9169 156.217C94.9701 156.03 95.0428 155.85 95.1337 155.68C95.2485 155.523 95.3801 155.38 95.5261 155.253C95.3317 155.32 95.1695 155.457 95.0718 155.638C94.9503 155.805 94.8951 156.011 94.9169 156.217Z" fill="#263238"/>
<path d="M93.0926 155.263C93.1098 155.263 93.1993 155.167 93.2888 155.026C93.3783 154.885 93.4437 154.761 93.4265 154.747C93.4093 154.733 93.3198 154.843 93.2268 154.984C93.1339 155.125 93.072 155.249 93.0926 155.263Z" fill="#263238"/>
<path d="M92.5901 154.988C92.5901 155.005 92.7037 154.94 92.8104 154.847C92.9171 154.754 92.9963 154.661 92.9825 154.644C92.9687 154.626 92.8689 154.695 92.7622 154.788C92.6555 154.881 92.5763 154.974 92.5901 154.988Z" fill="#263238"/>
<path d="M92.2803 154.396C92.3833 154.436 92.4938 154.452 92.6039 154.444C92.7195 154.46 92.8372 154.45 92.9481 154.413C92.8386 154.371 92.7205 154.355 92.6039 154.368C92.4953 154.354 92.3849 154.363 92.2803 154.396Z" fill="#263238"/>
<path d="M92.1736 153.983C92.2815 154.052 92.4066 154.091 92.535 154.093C92.6621 154.116 92.7932 154.099 92.9102 154.045C92.7917 154.028 92.6719 154.021 92.5522 154.024C92.4277 153.998 92.3009 153.984 92.1736 153.983Z" fill="#263238"/>
<path d="M93.3095 154.712C93.4417 154.734 93.5766 154.734 93.7088 154.712C93.8537 154.699 93.9967 154.67 94.1356 154.626C94.2207 154.603 94.3028 154.569 94.38 154.527C94.4286 154.501 94.4656 154.458 94.4832 154.406C94.4901 154.376 94.4882 154.345 94.4779 154.317C94.4675 154.288 94.449 154.263 94.4247 154.244C94.2727 154.167 94.0986 154.146 93.9323 154.183C93.766 154.22 93.6177 154.313 93.5126 154.447C93.4495 154.525 93.4038 154.616 93.3783 154.712C93.3693 154.747 93.3693 154.784 93.3783 154.819C93.4196 154.694 93.4825 154.578 93.5642 154.475C93.6558 154.371 93.7753 154.296 93.9084 154.258C93.9866 154.232 94.0693 154.221 94.1515 154.228C94.2338 154.234 94.3138 154.258 94.3868 154.296C94.4488 154.344 94.4247 154.416 94.3524 154.458C94.2807 154.498 94.2044 154.529 94.1253 154.551C93.9905 154.596 93.8524 154.631 93.7122 154.654C93.461 154.712 93.3095 154.712 93.3095 154.712Z" fill="#263238"/>
<path d="M93.4127 154.743C93.4632 154.66 93.4804 154.56 93.4609 154.465C93.451 154.36 93.4155 154.26 93.3576 154.172C93.3235 154.11 93.2738 154.058 93.2134 154.021C93.1531 153.984 93.0841 153.964 93.0134 153.962C92.9726 153.971 92.9368 153.995 92.9132 154.03C92.8895 154.064 92.8799 154.107 92.8861 154.148C92.8952 154.211 92.9175 154.272 92.9515 154.327C93.003 154.416 93.0654 154.498 93.1374 154.571C93.1989 154.644 93.2768 154.7 93.3645 154.736C93.3645 154.736 93.2854 154.664 93.1787 154.533C93.1145 154.46 93.0591 154.379 93.0134 154.292C92.9584 154.206 92.924 154.055 93.0134 154.038C93.1029 154.021 93.2165 154.131 93.275 154.21C93.3301 154.288 93.3676 154.377 93.3852 154.471C93.4017 154.561 93.4109 154.652 93.4127 154.743Z" fill="#263238"/>
<path d="M86.6801 154.237C86.6801 154.237 86.8557 154.237 87.1379 154.258C87.5045 154.303 87.8508 154.451 88.1365 154.685C88.4223 154.919 88.6358 155.229 88.7522 155.58C88.8452 155.848 88.8521 156.027 88.8658 156.027C88.8726 155.985 88.8726 155.942 88.8658 155.9C88.8589 155.783 88.8381 155.668 88.8039 155.556C88.6971 155.188 88.4814 154.862 88.1851 154.62C87.8889 154.378 87.5261 154.231 87.1448 154.2C87.0303 154.189 86.9151 154.189 86.8006 154.2C86.7585 154.205 86.7176 154.217 86.6801 154.237Z" fill="#263238"/>
<path d="M87.3582 151.656C87.3079 152.08 87.2838 152.506 87.286 152.933C87.2608 153.359 87.2608 153.787 87.286 154.213C87.3339 153.788 87.3569 153.361 87.3548 152.933C87.3799 152.508 87.3811 152.081 87.3582 151.656Z" fill="#263238"/>
<path d="M89.6644 155.466C89.962 155.537 90.2672 155.57 90.5731 155.566C90.8785 155.587 91.1854 155.566 91.4852 155.504C91.4852 155.483 91.0756 155.504 90.5765 155.504C90.0774 155.504 89.6678 155.442 89.6644 155.466Z" fill="#263238"/>
<path d="M88.4459 155.449C88.4287 155.449 88.4769 155.535 88.5182 155.628C88.5595 155.721 88.5802 155.804 88.6008 155.804C88.6215 155.804 88.6352 155.707 88.6008 155.597C88.5664 155.487 88.4597 155.432 88.4459 155.449Z" fill="#263238"/>
<path d="M87.9916 154.871C87.9916 154.871 88.0157 154.95 88.0811 155.015C88.1465 155.081 88.2084 155.122 88.2222 155.108C88.236 155.094 88.1981 155.029 88.1361 154.964C88.0742 154.898 88.0088 154.853 87.9916 154.871Z" fill="#263238"/>
<path d="M87.3376 154.599C87.3376 154.619 87.4236 154.619 87.5166 154.654C87.6095 154.688 87.6715 154.737 87.6887 154.723C87.7059 154.709 87.6543 154.623 87.5407 154.582C87.4271 154.54 87.3307 154.582 87.3376 154.599Z" fill="#263238"/>
<path d="M86.8694 154.471C86.8694 154.489 86.8971 154.523 86.949 154.544C87.0008 154.565 87.0492 154.565 87.0561 154.544C87.063 154.523 87.0285 154.492 86.9801 154.471C86.9317 154.451 86.8798 154.451 86.8694 154.471Z" fill="#263238"/>
<path d="M97.106 90.9527L94.7173 153.36L85.0177 153.563L86.6285 99.4923L75.7243 153.976H66.5031L78.3815 91.0801L97.106 90.9527Z" fill="#263238"/>
<path d="M88.8624 93.2244C88.855 93.5711 88.8181 93.9166 88.7523 94.257C88.6628 94.8869 88.5251 95.7612 88.3633 96.7181C88.3012 97.1756 88.2092 97.6287 88.0879 98.0742C87.9779 98.4486 87.7571 98.781 87.4546 99.0277C87.2511 99.1924 87.0077 99.3004 86.749 99.3409C86.6564 99.3646 86.5593 99.3646 86.4668 99.3409C86.8008 99.2921 87.115 99.1528 87.3755 98.9382C87.6464 98.6959 87.8413 98.3802 87.9365 98.0295C88.0475 97.5895 88.1336 97.1436 88.1946 96.694C88.3564 95.7337 88.5113 94.8663 88.6318 94.2398C88.6815 93.8958 88.7587 93.5562 88.8624 93.2244Z" fill="#455A64"/>
<path d="M86.8454 93.5238C86.8661 93.5238 86.7869 93.6409 86.8454 93.8026C86.8572 93.8466 86.8775 93.8878 86.9053 93.9238C86.933 93.9599 86.9677 93.99 87.0072 94.0126C87.0568 94.0302 87.1103 94.034 87.1619 94.0237C87.2136 94.0134 87.2615 93.9894 87.3006 93.9541C87.3397 93.9189 87.3686 93.8738 87.3842 93.8235C87.3998 93.7732 87.4015 93.7196 87.3892 93.6684C87.3732 93.626 87.3483 93.5875 87.3163 93.5555C87.2842 93.5235 87.2457 93.4986 87.2034 93.4825C87.045 93.4137 86.9349 93.4825 86.9246 93.4584C86.9142 93.4343 87.0141 93.3173 87.2412 93.3655C87.3063 93.3814 87.3668 93.412 87.4181 93.455C87.4694 93.4979 87.5102 93.5521 87.5372 93.6133C87.5659 93.6948 87.5687 93.7832 87.5453 93.8663C87.5219 93.9495 87.4734 94.0234 87.4064 94.078C87.344 94.1371 87.2649 94.1754 87.1799 94.1877C87.0948 94.2 87.0081 94.1858 86.9315 94.1468C86.8741 94.112 86.8256 94.0644 86.7897 94.0076C86.7539 93.9509 86.7317 93.8866 86.7249 93.8198C86.7008 93.5927 86.8385 93.5032 86.8454 93.5238Z" fill="#455A64"/>
<path d="M81.6377 94.4153C81.524 94.1354 81.4815 93.8317 81.5139 93.5314C81.5464 93.2311 81.6527 92.9435 81.8235 92.6943C81.8683 92.715 81.7271 93.0833 81.6824 93.5548C81.6377 94.0264 81.6858 94.4015 81.6377 94.4153Z" fill="#455A64"/>
<path d="M82.8045 94.3396C82.6623 94.0569 82.6129 93.7365 82.6633 93.424C82.6588 93.1063 82.7526 92.795 82.9318 92.5326C82.9766 92.5326 82.8664 92.9422 82.8354 93.4344C82.841 93.7364 82.8307 94.0386 82.8045 94.3396Z" fill="#455A64"/>
<path d="M92.8276 94.5943C92.8183 94.2812 92.8367 93.9679 92.8827 93.6581C92.8709 93.3443 92.8847 93.03 92.924 92.7184C93.0533 93.016 93.0974 93.3437 93.0513 93.665C93.0629 93.9894 92.9855 94.3107 92.8276 94.5943Z" fill="#455A64"/>
<path d="M94.0942 94.5255C94.046 94.5048 94.1975 94.0952 94.2319 93.572C94.2663 93.0489 94.1768 92.6255 94.2319 92.6117C94.3701 92.9167 94.4304 93.2511 94.4076 93.5851C94.3848 93.9191 94.2795 94.2422 94.1011 94.5255H94.0942Z" fill="#455A64"/>
<path d="M83.603 64.9897L89.5921 64.5112C89.63 63.8228 89.5921 61.1105 89.5921 61.1105C89.5921 61.1105 92.0841 60.7216 92.1151 58.233C92.1461 55.7444 91.7124 50.0238 91.7124 50.0238C90.2941 49.4095 88.7373 49.186 87.2035 49.3767C85.6697 49.5673 84.215 50.1652 82.9903 51.1081L82.622 51.3937L83.603 64.9897Z" fill="#FFBE9D"/>
<path d="M89.5714 61.0899C88.4217 61.1132 87.2913 60.7919 86.3256 60.1674C86.3256 60.1674 87.0932 61.9607 89.5783 61.737L89.5714 61.0899Z" fill="#EB996E"/>
<path d="M90.7177 53.9271C90.7177 54.0183 90.6814 54.1059 90.6168 54.1704C90.5523 54.235 90.4647 54.2713 90.3735 54.2713C90.3282 54.2745 90.2828 54.2688 90.2398 54.2545C90.1968 54.2402 90.157 54.2175 90.1228 54.1877C90.0885 54.158 90.0605 54.1218 90.0404 54.0812C90.0202 54.0406 90.0082 53.9964 90.0052 53.9511C90.0052 53.8599 90.0414 53.7723 90.106 53.7078C90.1705 53.6432 90.2581 53.6069 90.3494 53.6069C90.3946 53.6037 90.44 53.6094 90.483 53.6237C90.526 53.638 90.5658 53.6607 90.6 53.6905C90.6343 53.7202 90.6623 53.7564 90.6824 53.797C90.7026 53.8376 90.7146 53.8818 90.7177 53.9271Z" fill="#263238"/>
<path d="M91.2167 53.5175C91.172 53.5622 90.9035 53.3626 90.5283 53.3626C90.1532 53.3626 89.864 53.5553 89.8227 53.5106C89.7814 53.4658 89.8468 53.4039 89.9707 53.3144C90.1373 53.2014 90.334 53.1414 90.5352 53.1423C90.7343 53.1415 90.9284 53.2042 91.0894 53.3213C91.1995 53.4211 91.2374 53.5175 91.2167 53.5175Z" fill="#263238"/>
<path d="M86.8523 54.0165C86.8523 54.1078 86.816 54.1954 86.7514 54.2599C86.6869 54.3245 86.5994 54.3607 86.5081 54.3607C86.4628 54.364 86.4174 54.3583 86.3744 54.344C86.3314 54.3297 86.2916 54.307 86.2574 54.2772C86.2232 54.2475 86.1952 54.2113 86.175 54.1707C86.1548 54.1301 86.1428 54.0859 86.1398 54.0406C86.1398 53.9493 86.176 53.8618 86.2406 53.7972C86.3051 53.7327 86.3927 53.6964 86.484 53.6964C86.5292 53.6931 86.5746 53.6988 86.6176 53.7132C86.6607 53.7275 86.7004 53.7502 86.7346 53.7799C86.7689 53.8097 86.7969 53.8459 86.8171 53.8865C86.8372 53.9271 86.8492 53.9713 86.8523 54.0165Z" fill="#263238"/>
<path d="M87.4547 53.5966C87.4099 53.6448 87.1414 53.4451 86.7663 53.4451C86.3911 53.4451 86.1019 53.6379 86.0606 53.5897C86.0193 53.5415 86.0847 53.4864 86.2086 53.397C86.3737 53.2809 86.5714 53.2206 86.7731 53.2249C86.9722 53.2241 87.1663 53.2868 87.3273 53.4038C87.4374 53.4933 87.4787 53.5759 87.4547 53.5966Z" fill="#263238"/>
<path d="M88.8452 56.4363C89.0464 56.3737 89.2544 56.3356 89.4647 56.3227C89.5645 56.3227 89.6575 56.2951 89.6712 56.2263C89.6801 56.1255 89.6573 56.0244 89.6058 55.9372C89.5164 55.7077 89.42 55.4599 89.3167 55.1937C89.0493 54.5638 88.8329 53.9135 88.6696 53.249C88.9876 53.8566 89.2569 54.4885 89.475 55.1386C89.5714 55.3968 89.6609 55.648 89.7504 55.8855C89.8113 56.0044 89.8283 56.1409 89.7986 56.271C89.7844 56.3058 89.7624 56.3369 89.7344 56.362C89.7063 56.387 89.673 56.4054 89.6368 56.4156C89.5831 56.4311 89.5275 56.4392 89.4716 56.4397C89.2635 56.4645 89.053 56.4634 88.8452 56.4363Z" fill="#263238"/>
<path d="M87.7334 56.7013C87.7954 56.7013 87.7954 57.1109 88.1499 57.4069C88.5044 57.7029 88.9485 57.6582 88.9519 57.7133C88.9554 57.7683 88.8521 57.7959 88.6662 57.7993C88.4234 57.8033 88.187 57.7217 87.9985 57.5687C87.8115 57.4218 87.6883 57.2086 87.6543 56.9732C87.6439 56.8011 87.6887 56.6979 87.7334 56.7013Z" fill="#263238"/>
<path d="M87.5545 52.0993C87.5166 52.2026 87.1345 52.1509 86.6871 52.206C86.2396 52.2611 85.8748 52.385 85.8128 52.2886C85.7887 52.2439 85.8507 52.1475 85.9952 52.0477C86.1909 51.9237 86.4122 51.846 86.6424 51.8203C86.8727 51.7947 87.1057 51.8218 87.3238 51.8997C87.4891 51.9651 87.5717 52.0477 87.5545 52.0993Z" fill="#263238"/>
<path d="M91.0756 52.4194C91.0102 52.5055 90.7314 52.4194 90.4285 52.4194C90.1256 52.4194 89.8434 52.478 89.7814 52.385C89.7195 52.2921 89.7814 52.2542 89.9157 52.1716C90.0719 52.0701 90.2562 52.0207 90.4423 52.0305C90.6278 52.0344 90.8078 52.0944 90.9586 52.2026C91.0687 52.2852 91.1066 52.3747 91.0756 52.4194Z" fill="#263238"/>
<path d="M82.9146 53.9787C82.8733 53.9615 81.1936 53.4727 81.259 55.1765C81.3244 56.8803 83.011 56.4741 83.0144 56.4259C83.0179 56.3778 82.9146 53.9787 82.9146 53.9787Z" fill="#FFBE9D"/>
<path d="M82.4844 55.796C82.4844 55.796 82.4568 55.8167 82.4086 55.8408C82.3369 55.8701 82.2566 55.8701 82.1849 55.8408C82.0758 55.7726 81.9866 55.6769 81.9261 55.5633C81.8657 55.4498 81.8363 55.3223 81.8407 55.1937C81.8308 55.0469 81.8543 54.8998 81.9095 54.7634C81.9238 54.7102 81.9506 54.6611 81.9877 54.6204C82.0249 54.5797 82.0712 54.5485 82.123 54.5294C82.157 54.5197 82.1932 54.5219 82.2258 54.5357C82.2584 54.5495 82.2852 54.574 82.3019 54.6051C82.326 54.6533 82.3019 54.6877 82.326 54.6912C82.3501 54.6946 82.3605 54.6602 82.3467 54.5913C82.3348 54.5489 82.3095 54.5114 82.2744 54.4846C82.2259 54.4521 82.167 54.4386 82.1092 54.4468C82.0398 54.4629 81.9757 54.4968 81.9232 54.545C81.8707 54.5933 81.8316 54.6543 81.8097 54.7221C81.7403 54.8716 81.7096 55.0361 81.7202 55.2006C81.7164 55.3524 81.7579 55.5019 81.8395 55.6301C81.921 55.7582 82.0389 55.8591 82.178 55.9199C82.2238 55.9319 82.2717 55.9335 82.3181 55.9246C82.3646 55.9157 82.4085 55.8964 82.4465 55.8683C82.4844 55.8373 82.4913 55.7995 82.4844 55.796Z" fill="#EB996E"/>
<path d="M92.6417 47.8726C92.4603 47.5138 92.1991 47.2014 91.8782 46.9593C91.5573 46.7171 91.1852 46.5517 90.7905 46.4756C90.3957 46.3995 89.9888 46.4148 89.6009 46.5203C89.213 46.6258 88.8544 46.8188 88.5526 47.0843C88.3636 46.7073 88.0849 46.3824 87.741 46.1382C87.3972 45.8939 86.9986 45.7378 86.5804 45.6834C86.1621 45.629 85.7369 45.6781 85.342 45.8264C84.9471 45.9746 84.5947 46.2174 84.3155 46.5336C83.8371 47.0775 83.5892 47.8106 83.0316 48.2546C82.5463 48.6505 81.8923 48.7812 81.4036 49.1702C81.1337 49.3865 80.9288 49.673 80.8114 49.9983C80.6939 50.3235 80.6685 50.6749 80.7379 51.0137C80.8073 51.3525 80.9688 51.6655 81.2047 51.9184C81.4406 52.1713 81.7416 52.3542 82.0748 52.447C81.9523 52.6919 81.8809 52.9591 81.8649 53.2325C81.8489 53.5058 81.8886 53.7796 81.9816 54.0371C82.0746 54.2946 82.219 54.5306 82.4061 54.7306C82.5931 54.9306 82.8188 55.0905 83.0695 55.2006L83.3173 55.0973C83.7809 54.57 84.0775 53.9168 84.1694 53.2207C84.2613 52.5246 84.1445 51.8168 83.8336 51.1872C83.8634 51.1889 83.8933 51.1889 83.9231 51.1872C84.3514 51.4261 84.853 51.4978 85.3311 51.3885C85.8091 51.2791 86.2297 50.9965 86.5115 50.5952C86.8566 50.8368 87.2635 50.9746 87.6844 50.9923C88.1053 51.01 88.5224 50.9068 88.8865 50.695C88.9885 50.6174 89.1058 50.5623 89.2307 50.5332C89.3883 50.5358 89.5421 50.5823 89.6747 50.6675C90.0441 50.8672 90.4651 50.9511 90.8828 50.9084C91.0754 50.8848 91.2589 50.8132 91.4165 50.7001C91.574 50.587 91.7007 50.4361 91.7847 50.2613H91.8156C92.0537 50.207 92.2723 50.0884 92.4477 49.9185C92.6231 49.7485 92.7485 49.5338 92.8104 49.2975C92.9344 48.8182 92.8742 48.3097 92.6417 47.8726Z" fill="#263238"/>
<path d="M96.421 77.7629L96.6413 66.542C94.6484 64.5835 93.5848 63.9983 90.8106 63.6713L90.0568 63.5853L89.8193 61.7369L83.0178 61.3514L83.362 63.5474C82.3776 63.5887 81.5584 63.8916 80.722 64.0534C78.0786 64.5594 76.1752 66.4834 75.6485 68.263C75.2114 69.7258 72.4199 80.5716 72.4199 80.5716L71.852 83.8449L78.0958 81.5801V83.9378V92.5979H97.0268C97.0922 90.5327 96.421 77.7629 96.421 77.7629Z" fill="#FF725E"/>
<g opacity="0.2">
<path opacity="0.2" d="M96.421 77.7629L96.6413 66.542C94.6484 64.5835 93.5848 63.9983 90.8106 63.6713L90.0568 63.5853L89.8193 61.7369L83.0178 61.3514L83.362 63.5474C82.3776 63.5887 81.5584 63.8916 80.722 64.0534C78.0786 64.5594 76.1752 66.4834 75.6485 68.263C75.2114 69.7258 72.4199 80.5716 72.4199 80.5716L71.852 83.8449L78.0958 81.5801V83.9378V92.5979H97.0268C97.0922 90.5327 96.421 77.7629 96.421 77.7629Z" fill="black"/>
</g>
<path d="M74.6951 80.7265L84.0332 79.4013L85.8093 82.5817L77.1286 86.4953C76.6445 86.7172 76.1191 86.8345 75.5866 86.8395C74.8412 86.8376 74.1134 86.6137 73.496 86.1961C72.8786 85.7786 72.3997 85.1865 72.1205 84.4955L71.8382 83.8071L74.6951 80.7265Z" fill="#FF725E"/>
<g opacity="0.2">
<path opacity="0.2" d="M74.6951 80.7265L84.0332 79.4013L85.8093 82.5817L77.1286 86.4953C76.6445 86.7172 76.1191 86.8345 75.5866 86.8395C74.8412 86.8376 74.1134 86.6137 73.496 86.1961C72.8786 85.7786 72.3997 85.1865 72.1205 84.4955L71.8382 83.8071L74.6951 80.7265Z" fill="black"/>
</g>
<path d="M93.7776 64.3563C93.7776 64.3563 96.4176 65.2547 97.5259 67.7983C98.2487 69.4574 99.3123 77.4359 99.3123 77.4359L100.651 80.0209C100.973 80.6407 101.141 81.3291 101.14 82.0276V82.4234C101.141 83.4265 100.796 84.3991 100.162 85.177C99.7951 85.6289 99.3407 86.0024 98.8264 86.2756C98.312 86.5487 97.7481 86.7159 97.1679 86.7672C95.829 86.8877 94.2113 86.9393 93.8671 86.5469C93.2578 85.8585 92.3423 83.9757 92.3423 83.9757L96.242 81.9105L94.5623 78.8127L93.7776 64.3563Z" fill="#FF725E"/>
<g opacity="0.2">
<path opacity="0.2" d="M93.7776 64.3563C93.7776 64.3563 96.4176 65.2547 97.5259 67.7983C98.2487 69.4574 99.3123 77.4359 99.3123 77.4359L100.651 80.0209C100.973 80.6407 101.141 81.3291 101.14 82.0276V82.4234C101.141 83.4265 100.796 84.3991 100.162 85.177C99.7951 85.6289 99.3407 86.0024 98.8264 86.2756C98.312 86.5487 97.7481 86.7159 97.1679 86.7672C95.829 86.8877 94.2113 86.9393 93.8671 86.5469C93.2578 85.8585 92.3423 83.9757 92.3423 83.9757L96.242 81.9105L94.5623 78.8127L93.7776 64.3563Z" fill="black"/>
</g>
<path d="M77.7791 86.2165C77.7791 86.2165 77.8273 86.1821 77.9306 86.1304L78.378 85.9136L80.0543 85.1288L85.7749 82.5163L85.7371 82.6368L84.6425 80.6749L83.9541 79.4564L84.0367 79.4977L77.194 80.1689L75.1632 80.3513L74.6125 80.3926C74.5486 80.4025 74.4836 80.4025 74.4197 80.3926C74.4817 80.3756 74.5451 80.3641 74.609 80.3582L75.1563 80.2894L77.1837 80.0553L84.0264 79.3325H84.0814L84.109 79.3807L84.7974 80.5991L85.8885 82.5611L85.9332 82.6403L85.8506 82.6781L80.1059 85.2355L78.409 85.9721L77.9478 86.1649C77.8933 86.1873 77.8368 86.2046 77.7791 86.2165Z" fill="#263238"/>
<path d="M79.4382 79.804C79.39 79.804 79.3521 78.1347 79.3521 76.0764C79.3521 74.018 79.39 72.3487 79.4382 72.3487C79.4864 72.3487 79.5242 74.018 79.5242 76.0764C79.5242 78.1347 79.4726 79.804 79.4382 79.804Z" fill="#263238"/>
<path d="M95.5124 82.2995C95.5124 82.2995 95.6122 82.2685 95.7946 82.2547C96.0581 82.2301 96.3238 82.2452 96.5828 82.2995C96.7723 82.3399 96.9444 82.4386 97.075 82.5817C97.2115 82.753 97.3005 82.9572 97.3332 83.1737C97.3756 83.4125 97.3543 83.6583 97.2712 83.8862C97.1771 84.1302 97.013 84.3409 96.7997 84.492C96.3868 84.7441 95.9262 84.9082 95.447 84.9739C95.0647 85.0479 94.6764 85.086 94.287 85.0875C93.9272 85.1183 93.5655 85.0554 93.2372 84.9051C93.5844 84.9585 93.9359 84.9792 94.287 84.967C94.6668 84.9489 95.0444 84.8994 95.416 84.819C95.8704 84.7502 96.3066 84.5922 96.6998 84.3543C96.8794 84.2261 97.0194 84.05 97.1039 83.8462C97.1885 83.6424 97.2143 83.419 97.1783 83.2013C97.1533 83.0099 97.0812 82.8277 96.9683 82.6712C96.8576 82.5471 96.7127 82.4585 96.5518 82.4165C96.3041 82.3545 96.0499 82.3221 95.7946 82.3201C95.7 82.3241 95.6053 82.3172 95.5124 82.2995Z" fill="#263238"/>
<path d="M97.0613 86.812C96.8384 86.8793 96.6052 86.9062 96.3729 86.8911C95.8227 86.9086 95.2743 86.8185 94.7586 86.6261C94.4735 86.5184 94.2039 86.3738 93.9566 86.1958C93.7558 86.045 93.5872 85.8554 93.4609 85.6382C93.3321 85.4476 93.2496 85.2296 93.22 85.0015C93.2475 85.0015 93.337 85.2355 93.5642 85.5728C93.6968 85.7664 93.8622 85.9353 94.053 86.0719C94.2936 86.2327 94.5524 86.3644 94.824 86.4643C95.3215 86.6496 95.8457 86.753 96.3763 86.7707C96.6053 86.7681 96.8342 86.7819 97.0613 86.812Z" fill="#263238"/>
<path d="M98.9268 78.7232C98.7924 78.9233 98.6379 79.1089 98.4656 79.2774C98.1661 79.6044 97.7427 80.0519 97.2677 80.5372C96.7927 81.0225 96.359 81.4596 96.0355 81.766C95.8736 81.9452 95.691 82.1046 95.4917 82.241C95.6212 82.0373 95.7749 81.85 95.9495 81.6834C96.2489 81.3392 96.6723 80.9055 97.1438 80.4201C97.6938 79.8097 98.2899 79.2424 98.9268 78.7232Z" fill="#263238"/>
<path d="M94.6725 76.9816C94.5863 76.2749 94.5575 75.5623 94.5865 74.851C94.5576 74.1385 94.5864 73.4248 94.6725 72.7169C94.7587 73.4248 94.7875 74.1385 94.7586 74.851C94.7875 75.5623 94.7588 76.2749 94.6725 76.9816Z" fill="#263238"/>
<path d="M96.0631 65.802C96.0631 65.8501 91.8604 65.8914 86.6767 65.8914C81.4931 65.8914 77.2904 65.8501 77.2904 65.802C77.2904 65.7538 81.4931 65.7125 86.6767 65.7125C91.8604 65.7125 96.0631 65.7503 96.0631 65.802Z" fill="#FAFAFA"/>
<path d="M89.8709 63.6507C88.7934 63.734 87.7121 63.7582 86.632 63.723C85.5523 63.7478 84.472 63.711 83.3965 63.6128C84.473 63.5317 85.553 63.5087 86.632 63.544C87.7127 63.5212 88.794 63.5568 89.8709 63.6507Z" fill="#263238"/>
<path d="M98.1042 69.595C98.1042 69.6432 93.0031 69.6845 86.7077 69.6845C80.4123 69.6845 75.3078 69.6432 75.3078 69.595C75.3078 69.5469 80.4123 69.5021 86.7077 69.5021C93.0031 69.5021 98.1042 69.5434 98.1042 69.595Z" fill="#FAFAFA"/>
<path d="M98.8098 73.4811C98.8098 73.5327 93.3026 73.5706 86.4908 73.5706C79.6791 73.5706 74.1719 73.5327 74.1719 73.4811C74.1719 73.4294 79.6791 73.3916 86.4908 73.3916C93.3026 73.3916 98.8098 73.4432 98.8098 73.4811Z" fill="#FAFAFA"/>
<path d="M99.2503 77.2845C99.2503 77.3327 93.4299 77.374 86.2499 77.374C79.0699 77.374 73.2494 77.3327 73.2494 77.2845C73.2494 77.2363 79.0699 77.195 86.2499 77.195C93.4299 77.195 99.2503 77.2329 99.2503 77.2845Z" fill="#FAFAFA"/>
<path d="M101.009 83.4629C101.009 83.5111 94.5417 83.5524 86.5529 83.5524C78.564 83.5524 72.0964 83.5111 72.0964 83.4629C72.0964 83.4147 78.564 83.3734 86.5529 83.3734C94.5417 83.3734 101.009 83.4078 101.009 83.4629Z" fill="#FAFAFA"/>
<path d="M96.8616 87.7895C96.8616 87.8377 92.5935 87.879 87.3307 87.879C82.0679 87.879 77.7998 87.8377 77.7998 87.7895C77.7998 87.7413 82.0644 87.7 87.3307 87.7C92.597 87.7 96.8616 87.7378 96.8616 87.7895Z" fill="#FAFAFA"/>
<path d="M92.449 77.8731L92.2459 77.7216C91.7263 77.3315 91.1308 77.0543 90.4977 76.9079C89.8647 76.7615 89.208 76.7491 88.5698 76.8715C87.5192 77.0728 86.5357 77.5343 85.7095 78.2138L84.109 79.5321L85.8093 82.5818L86.9693 80.9606C86.9693 80.9606 88.0501 82.4269 88.2428 82.272C88.4142 82.0891 88.5569 81.8814 88.6662 81.6559L87.8952 80.5751L89.747 80.9606L92.449 79.7249L91.289 78.2586L92.449 78.6441V77.8731Z" fill="#FFBE9D"/>
<path d="M89.5956 77.5943L83.6512 84.7915L84.109 85.2837L93.7535 83.814L98.5379 76.6167L98.0939 76.2175L89.5956 77.5943Z" fill="#263238"/>
<path d="M95.9013 79.4943C95.716 79.4936 95.5349 79.5492 95.3819 79.6537C95.2288 79.7582 95.1111 79.9066 95.0442 80.0794C94.94 80.4388 94.7373 80.7619 94.4591 81.0122C94.0289 81.2463 93.2888 81.4321 92.8999 81.2428C92.5109 81.0535 90.9517 79.6492 90.6798 79.804C90.4079 79.9589 90.1738 80.31 90.4457 80.6232C90.7177 80.9365 92.1667 81.8693 91.8879 82.1825C91.6091 82.4957 88.5733 81.1223 88.1017 81.2428C87.6302 81.3633 87.3617 81.649 87.6336 81.8383C87.9055 82.0276 89.9707 82.8055 90.0878 83.0774C90.0878 83.0774 86.9693 82.2582 86.8523 82.4544C86.7353 82.6506 86.5425 82.9604 86.8523 83.0774C87.1621 83.1944 89.8537 83.8966 90.0878 84.0136C90.4743 84.1723 90.8771 84.2877 91.289 84.3578C91.7143 84.4683 92.1336 84.6004 92.5454 84.7537C93.1758 84.9745 93.8654 84.9561 94.4832 84.702L94.7999 84.5747C95.0394 84.4767 95.2422 84.3061 95.3799 84.087C95.5175 83.8678 95.5831 83.6111 95.5674 83.3528L95.5055 82.2926L95.8497 81.4149L95.9013 79.4943Z" fill="#FFBE9D"/>
<path d="M98.5551 76.6822C98.4975 76.7044 98.4374 76.7194 98.3761 76.7269L97.8598 76.8164L95.9598 77.1227L93.1374 77.553L91.4714 77.8042C90.8832 77.8688 90.3245 78.0952 89.8572 78.4582C89.4284 78.8752 89.0358 79.3277 88.6834 79.8109C88.3151 80.2653 87.9641 80.7059 87.6267 81.1258L85.8335 83.3459L84.6115 84.8397L84.2673 85.239C84.23 85.2873 84.1873 85.3312 84.14 85.3698C84.14 85.3698 84.1675 85.3147 84.2398 85.2183L84.553 84.7984L85.7302 83.277L87.4959 81.0294L88.5285 79.7077C88.8879 79.2155 89.2887 78.7549 89.7264 78.3309C90.2174 77.9488 90.8048 77.7105 91.4233 77.6425L93.0926 77.4015L95.922 77.0057L97.8323 76.7544L98.352 76.6959C98.4185 76.68 98.4871 76.6754 98.5551 76.6822Z" fill="#455A64"/>
<path d="M94.0426 78.2586C93.9395 78.3121 93.8482 78.3859 93.7741 78.4754C93.7405 78.5226 93.7224 78.5792 93.7224 78.6372C93.7224 78.6952 93.7405 78.7517 93.7741 78.799C93.8294 78.8474 93.9003 78.8741 93.9738 78.8741C94.0472 78.8741 94.1182 78.8474 94.1734 78.799C94.2511 78.7439 94.3052 78.6615 94.3249 78.5684C94.335 78.5221 94.333 78.4741 94.3191 78.4289C94.3052 78.3837 94.28 78.3428 94.2457 78.3102C94.2083 78.2812 94.1623 78.2654 94.1149 78.2654C94.0676 78.2654 94.0215 78.2812 93.9841 78.3102" fill="#FAFAFA"/>
<path d="M65.887 62.0743L64.1385 58.9765C65.2199 57.2203 65.6053 55.1231 65.2189 53.0972C64.8325 51.0713 63.7022 49.2632 62.0503 48.0284C60.3984 46.7936 58.3443 46.2213 56.2919 46.4242C54.2394 46.627 52.3371 47.5903 50.9589 49.1246C49.5806 50.6589 48.8262 52.6533 48.8438 54.7156C48.8615 56.778 49.6499 58.7592 51.0542 60.2696C52.4585 61.7801 54.377 62.7107 56.4326 62.8784C58.4882 63.0461 60.5322 62.4388 62.1628 61.1759L65.887 62.0743Z" fill="#FF725E"/>
<path d="M54.2531 53.6758C54.2531 52.9323 54.7005 52.4608 55.3373 52.4608C55.9741 52.4608 56.4146 52.9254 56.4146 53.6758C56.4146 54.4261 55.9706 54.8943 55.3373 54.8943C54.704 54.8943 54.2531 54.4227 54.2531 53.6758ZM55.7916 53.6758C55.7916 53.2042 55.6092 52.9874 55.3373 52.9874C55.0654 52.9874 54.8829 53.2214 54.8829 53.6758C54.8829 54.1301 55.0688 54.3642 55.3373 54.3642C55.6058 54.3642 55.7916 54.1508 55.7916 53.6758ZM57.9326 52.5089H58.6726L55.6987 56.925H54.9587L57.9326 52.5089ZM57.2166 55.7582C57.2166 55.0147 57.6641 54.5397 58.294 54.5397C58.9239 54.5397 59.3748 55.0147 59.3748 55.7582C59.3748 56.5017 58.9273 56.9767 58.294 56.9767C57.6606 56.9767 57.2166 56.5017 57.2166 55.7582ZM58.7483 55.7582C58.7483 55.2901 58.5659 55.0698 58.294 55.0698C58.022 55.0698 57.8396 55.297 57.8396 55.7582C57.8396 56.2194 58.0255 56.4466 58.294 56.4466C58.5624 56.4466 58.7483 56.2263 58.7483 55.7582Z" fill="white"/>
</svg>
