<?xml version="1.0" encoding="utf-8"?>
<!-- Generator: Adobe Illustrator 25.2.1, SVG Export Plug-In . SVG Version: 6.00 Build 0)  -->
<svg version="1.1" id="Capa_1" xmlns="http://www.w3.org/2000/svg" xmlns:xlink="http://www.w3.org/1999/xlink" x="0px" y="0px"
	 viewBox="0 0 18 18" style="enable-background:new 0 0 18 18;" xml:space="preserve">
<style type="text/css">
	.st0{fill:#192E50;}
</style>
<path class="st0" d="M14.6,9.7L14.6,9.7c0-0.2,0.1-0.5,0.1-0.7s0-0.5-0.1-0.7l0,0l1.8-1.4l-1.8-3.2l-2.2,0.9l0,0
	c-0.4-0.3-0.8-0.6-1.3-0.8h0l-0.3-2.3H7.2L6.8,3.8h0C6.4,4,6,4.3,5.6,4.6l0,0L3.4,3.7L1.6,6.8l1.8,1.4l0,0c0,0.2-0.1,0.5-0.1,0.7
	s0,0.5,0.1,0.8l0,0L1.9,11l-0.2,0.2l1.8,3.1l2.2-0.9l0,0C6,13.7,6.4,14,6.9,14.2h0l0.3,2.3h3.6c0,0,0-0.1,0-0.3l0.3-2h0
	c0.5-0.2,0.9-0.4,1.3-0.8l0,0l2.2,0.9l1.8-3.2c0,0-0.1-0.1-0.2-0.2L14.6,9.7z M9,11.6c-1.4,0-2.6-1.2-2.6-2.6S7.6,6.4,9,6.4
	c1.4,0,2.6,1.2,2.6,2.6S10.4,11.6,9,11.6z"/>
</svg>
