<svg width="171" height="168" viewBox="0 0 171 168" fill="none" xmlns="http://www.w3.org/2000/svg">
<path d="M132.686 126.067C133.61 126.067 134.36 125.317 134.36 124.392C134.36 123.467 133.61 122.718 132.686 122.718C131.761 122.718 131.011 123.467 131.011 124.392C131.011 125.317 131.761 126.067 132.686 126.067Z" stroke="#263238" stroke-linejoin="round"/>
<path d="M154.455 142.812C155.379 142.812 156.129 142.062 156.129 141.138C156.129 140.213 155.379 139.463 154.455 139.463C153.53 139.463 152.78 140.213 152.78 141.138C152.78 142.062 153.53 142.812 154.455 142.812Z" stroke="#263238" stroke-linejoin="round"/>
<path d="M124.685 141.696C125.61 141.696 126.359 140.946 126.359 140.021C126.359 139.096 125.61 138.347 124.685 138.347C123.76 138.347 123.01 139.096 123.01 140.021C123.01 140.946 123.76 141.696 124.685 141.696Z" stroke="#263238" stroke-miterlimit="10"/>
<path d="M134.546 140.579C136.088 140.579 137.337 139.33 137.337 137.788C137.337 136.247 136.088 134.998 134.546 134.998C133.005 134.998 131.755 136.247 131.755 137.788C131.755 139.33 133.005 140.579 134.546 140.579Z" stroke="#263238" stroke-linejoin="round"/>
<path d="M131.197 151.929C132.122 151.929 132.872 151.179 132.872 150.255C132.872 149.33 132.122 148.58 131.197 148.58C130.272 148.58 129.522 149.33 129.522 150.255C129.522 151.179 130.272 151.929 131.197 151.929Z" stroke="#263238" stroke-linejoin="round"/>
<path d="M166.549 154.906C167.473 154.906 168.223 154.156 168.223 153.232C168.223 152.307 167.473 151.557 166.549 151.557C165.624 151.557 164.874 152.307 164.874 153.232C164.874 154.156 165.624 154.906 166.549 154.906Z" stroke="#263238" stroke-linejoin="round"/>
<path d="M168.223 126.439C169.148 126.439 169.898 125.689 169.898 124.764C169.898 123.839 169.148 123.09 168.223 123.09C167.298 123.09 166.549 123.839 166.549 124.764C166.549 125.689 167.298 126.439 168.223 126.439Z" stroke="#263238" stroke-linejoin="round"/>
<path d="M154.641 122.159C155.565 122.159 156.315 121.41 156.315 120.485C156.315 119.56 155.565 118.81 154.641 118.81C153.716 118.81 152.966 119.56 152.966 120.485C152.966 121.41 153.716 122.159 154.641 122.159Z" stroke="#263238" stroke-linejoin="round"/>
<path d="M160.222 131.09C161.764 131.09 163.013 129.841 163.013 128.299C163.013 126.758 161.764 125.508 160.222 125.508C158.681 125.508 157.432 126.758 157.432 128.299C157.432 129.841 158.681 131.09 160.222 131.09Z" stroke="#263238" stroke-linejoin="round"/>
<path d="M133.988 125.136L153.152 140.021" stroke="#263238" stroke-linejoin="round"/>
<path d="M155.199 139.835L159.292 131.09" stroke="#263238" stroke-linejoin="round"/>
<path d="M161.153 131.09L166.549 151.557L168.223 126.439" stroke="#263238" stroke-linejoin="round"/>
<path d="M152.78 142.068L132.872 150.255" stroke="#263238" stroke-linejoin="round"/>
<path d="M137.337 137.789L157.618 129.23" stroke="#263238" stroke-linejoin="round"/>
<path d="M133.802 134.998L132.686 126.067" stroke="#263238" stroke-linejoin="round"/>
<path d="M163.013 127.369L166.735 125.695" stroke="#263238" stroke-linejoin="round"/>
<path d="M125.615 141.51L130.081 148.766" stroke="#263238" stroke-linejoin="round"/>
<path d="M124.685 138.347L131.569 125.695" stroke="#263238" stroke-linejoin="round"/>
<path d="M136.593 139.835L164.874 153.232" stroke="#263238" stroke-linejoin="round"/>
<path d="M154.455 142.812L165.618 152.115" stroke="#263238" stroke-linejoin="round"/>
<path d="M134.36 124.392L157.432 128.299" stroke="#263238" stroke-linejoin="round"/>
<path d="M166.549 124.764L133.988 123.648" stroke="#263238" stroke-linejoin="round"/>
<path d="M166.735 124.02L156.315 121.415" stroke="#263238" stroke-linejoin="round"/>
<path d="M152.966 121.229L132.313 148.952" stroke="#263238" stroke-linejoin="round"/>
<path d="M131.755 138.719L126.359 140.021" stroke="#263238" stroke-linejoin="round"/>
<path d="M143.596 125.799C143.596 125.643 143.55 125.491 143.464 125.362C143.377 125.233 143.254 125.132 143.111 125.073C142.967 125.014 142.809 124.998 142.656 125.029C142.504 125.06 142.364 125.135 142.254 125.245C142.145 125.355 142.07 125.495 142.04 125.648C142.011 125.8 142.027 125.958 142.087 126.102C142.147 126.245 142.248 126.368 142.377 126.453C142.507 126.539 142.659 126.585 142.815 126.584C142.918 126.584 143.02 126.564 143.115 126.524C143.21 126.485 143.296 126.427 143.369 126.354C143.441 126.281 143.499 126.194 143.538 126.099C143.577 126.004 143.597 125.902 143.596 125.799Z" fill="#263238"/>
<path d="M135.778 145.268C135.779 145.113 135.733 144.961 135.647 144.831C135.561 144.701 135.439 144.6 135.296 144.54C135.152 144.48 134.994 144.464 134.842 144.494C134.689 144.524 134.549 144.598 134.439 144.708C134.329 144.818 134.253 144.957 134.223 145.11C134.192 145.262 134.208 145.42 134.267 145.564C134.326 145.708 134.427 145.831 134.556 145.917C134.685 146.003 134.837 146.05 134.993 146.05C135.096 146.05 135.198 146.03 135.293 145.991C135.388 145.952 135.475 145.895 135.548 145.822C135.621 145.749 135.679 145.663 135.718 145.568C135.758 145.473 135.778 145.371 135.778 145.268Z" fill="#263238"/>
<path d="M157.718 136.092C157.719 135.936 157.673 135.784 157.587 135.654C157.501 135.524 157.379 135.423 157.235 135.363C157.092 135.303 156.933 135.287 156.781 135.318C156.628 135.348 156.488 135.423 156.378 135.533C156.268 135.643 156.193 135.783 156.163 135.936C156.132 136.088 156.148 136.246 156.208 136.39C156.268 136.534 156.369 136.656 156.499 136.742C156.629 136.828 156.781 136.874 156.937 136.873C157.144 136.873 157.343 136.791 157.489 136.644C157.636 136.498 157.718 136.299 157.718 136.092Z" fill="#263238"/>
<path d="M157.513 149.309C157.514 149.154 157.469 149.002 157.383 148.872C157.297 148.743 157.175 148.641 157.031 148.581C156.888 148.521 156.73 148.505 156.577 148.535C156.425 148.565 156.285 148.639 156.174 148.749C156.064 148.859 155.989 148.999 155.958 149.151C155.928 149.303 155.943 149.462 156.002 149.605C156.062 149.749 156.162 149.872 156.292 149.958C156.421 150.045 156.573 150.091 156.728 150.091C156.936 150.09 157.134 150.007 157.281 149.861C157.428 149.715 157.511 149.517 157.513 149.309Z" fill="#263238"/>
<path d="M129.522 131.116C129.522 130.961 129.476 130.809 129.39 130.68C129.303 130.551 129.181 130.45 129.037 130.391C128.893 130.331 128.735 130.316 128.583 130.347C128.43 130.377 128.29 130.452 128.181 130.562C128.071 130.673 127.997 130.813 127.967 130.965C127.937 131.118 127.953 131.276 128.013 131.419C128.073 131.563 128.174 131.685 128.304 131.771C128.433 131.857 128.586 131.902 128.741 131.902C128.844 131.902 128.946 131.881 129.041 131.842C129.136 131.802 129.222 131.744 129.295 131.671C129.368 131.598 129.425 131.512 129.464 131.417C129.503 131.321 129.523 131.219 129.522 131.116Z" fill="#263238"/>
<path d="M167.825 130.64C168.256 130.64 168.606 130.29 168.606 129.859C168.606 129.427 168.256 129.077 167.825 129.077C167.393 129.077 167.043 129.427 167.043 129.859C167.043 130.29 167.393 130.64 167.825 130.64Z" fill="#263238"/>
<path d="M139.495 99.1698V80.0911C139.495 79.9649 139.519 79.8398 139.567 79.7231C139.616 79.6064 139.686 79.5004 139.775 79.4111C139.865 79.3219 139.971 79.2512 140.087 79.2031C140.204 79.155 140.329 79.1306 140.455 79.131H160.487C160.613 79.1306 160.738 79.155 160.855 79.2031C160.972 79.2511 161.078 79.3217 161.168 79.4109C161.258 79.5001 161.329 79.6061 161.377 79.7228C161.426 79.8396 161.451 79.9647 161.451 80.0911V80.8354" stroke="#263238" stroke-miterlimit="10"/>
<path d="M141.192 101.458H140.448C140.322 101.458 140.196 101.433 140.08 101.385C139.963 101.336 139.857 101.265 139.768 101.176C139.679 101.086 139.608 100.98 139.56 100.863C139.512 100.746 139.487 100.621 139.488 100.495" stroke="#263238" stroke-miterlimit="10"/>
<path d="M161.451 82.1229V100.495C161.451 100.75 161.349 100.995 161.168 101.176C160.988 101.357 160.742 101.458 160.487 101.458H142.569" stroke="#263238" stroke-miterlimit="10"/>
<path d="M145.714 87.5633V85.4571H155.229V95.1322H152.289" stroke="#263238" stroke-miterlimit="10"/>
<path d="M145.714 90.3207V88.8695" stroke="#263238" stroke-miterlimit="10"/>
<path d="M151.128 95.1322H145.714V91.6269" stroke="#263238" stroke-miterlimit="10"/>
<path d="M144.002 79.3022V73.2627" stroke="#263238" stroke-miterlimit="10"/>
<path d="M148.315 79.3022V73.2627" stroke="#263238" stroke-miterlimit="10"/>
<path d="M152.628 79.3022V73.2627" stroke="#263238" stroke-miterlimit="10"/>
<path d="M156.94 79.3022V73.2627" stroke="#263238" stroke-miterlimit="10"/>
<path d="M144.002 107.554V101.518" stroke="#263238" stroke-miterlimit="10"/>
<path d="M148.315 107.554V101.518" stroke="#263238" stroke-miterlimit="10"/>
<path d="M152.628 107.554V101.518" stroke="#263238" stroke-miterlimit="10"/>
<path d="M156.94 107.554V101.518" stroke="#263238" stroke-miterlimit="10"/>
<path d="M161.577 83.9389H167.617" stroke="#263238" stroke-miterlimit="10"/>
<path d="M161.577 88.2517H167.617" stroke="#263238" stroke-miterlimit="10"/>
<path d="M161.577 92.5646H167.617" stroke="#263238" stroke-miterlimit="10"/>
<path d="M161.577 96.8775H167.617" stroke="#263238" stroke-miterlimit="10"/>
<path d="M133.326 83.9389H139.365" stroke="#263238" stroke-miterlimit="10"/>
<path d="M133.326 88.2517H139.365" stroke="#263238" stroke-miterlimit="10"/>
<path d="M133.326 92.5646H139.365" stroke="#263238" stroke-miterlimit="10"/>
<path d="M133.326 96.8775H139.365" stroke="#263238" stroke-miterlimit="10"/>
<path d="M168.402 92.5758C168.402 92.4205 168.356 92.2687 168.269 92.1396C168.183 92.0105 168.061 91.9098 167.917 91.8504C167.774 91.791 167.616 91.7754 167.463 91.8057C167.311 91.836 167.171 91.9108 167.061 92.0206C166.952 92.1304 166.877 92.2703 166.846 92.4226C166.816 92.5749 166.832 92.7328 166.891 92.8763C166.951 93.0197 167.051 93.1424 167.18 93.2286C167.309 93.3149 167.461 93.361 167.617 93.361C167.825 93.361 168.025 93.2782 168.172 93.131C168.319 92.9838 168.402 92.784 168.402 92.5758Z" fill="#263238"/>
<path d="M142.35 79.3022C142.35 79.1477 142.304 78.9966 142.218 78.8681C142.132 78.7396 142.01 78.6394 141.867 78.5802C141.724 78.5211 141.567 78.5056 141.416 78.5358C141.264 78.5659 141.125 78.6404 141.016 78.7496C140.906 78.8589 140.832 78.9982 140.802 79.1498C140.772 79.3013 140.787 79.4585 140.846 79.6013C140.905 79.7441 141.005 79.8661 141.134 79.952C141.262 80.0378 141.414 80.0837 141.568 80.0837C141.775 80.0837 141.974 80.0013 142.121 79.8548C142.267 79.7082 142.35 79.5095 142.35 79.3022Z" fill="#263238"/>
<path d="M136.943 96.7026C136.943 96.5481 136.897 96.397 136.811 96.2685C136.725 96.14 136.603 96.0398 136.46 95.9806C136.317 95.9215 136.16 95.906 136.009 95.9362C135.857 95.9663 135.718 96.0407 135.609 96.15C135.499 96.2593 135.425 96.3986 135.395 96.5502C135.365 96.7017 135.38 96.8589 135.439 97.0017C135.498 97.1445 135.599 97.2665 135.727 97.3524C135.856 97.4382 136.007 97.4841 136.161 97.4841C136.264 97.4841 136.365 97.4639 136.46 97.4246C136.555 97.3853 136.641 97.3277 136.714 97.2552C136.786 97.1826 136.844 97.0965 136.883 97.0017C136.922 96.9069 136.943 96.8052 136.943 96.7026Z" fill="#263238"/>
<path d="M152.628 75.9941C153.059 75.9941 153.409 75.6442 153.409 75.2126C153.409 74.781 153.059 74.4312 152.628 74.4312C152.196 74.4312 151.846 74.781 151.846 75.2126C151.846 75.6442 152.196 75.9941 152.628 75.9941Z" fill="#263238"/>
<path d="M151.106 101.507C151.106 101.352 151.06 101.201 150.974 101.073C150.888 100.944 150.766 100.844 150.623 100.785C150.48 100.726 150.323 100.71 150.172 100.74C150.02 100.77 149.881 100.845 149.772 100.954C149.662 101.063 149.588 101.203 149.558 101.354C149.528 101.506 149.543 101.663 149.602 101.806C149.661 101.949 149.761 102.071 149.89 102.156C150.018 102.242 150.17 102.288 150.324 102.288C150.531 102.287 150.729 102.205 150.876 102.058C151.022 101.912 151.105 101.714 151.106 101.507Z" fill="#263238"/>
<path d="M157.733 105.697C157.734 105.541 157.688 105.389 157.602 105.259C157.516 105.129 157.394 105.028 157.25 104.968C157.106 104.908 156.948 104.893 156.796 104.923C156.643 104.953 156.503 105.028 156.393 105.138C156.283 105.248 156.208 105.388 156.178 105.541C156.147 105.693 156.163 105.852 156.223 105.995C156.283 106.139 156.384 106.261 156.514 106.347C156.644 106.433 156.796 106.479 156.952 106.478C157.159 106.478 157.358 106.396 157.504 106.249C157.651 106.103 157.733 105.904 157.733 105.697Z" fill="#263238"/>
<path d="M123.516 19.1637C123.516 19.1637 121.954 19.5358 121.47 20.7304C120.986 21.9249 117.615 30.0073 117.615 30.9711C117.648 31.6018 117.904 32.2003 118.337 32.6606L126.289 35.9129C126.289 35.9129 127.974 35.4291 129.299 35.671C130.624 35.9129 131.469 38.2014 132.793 38.4433C134.118 38.6852 139.663 38.3205 142.312 37.1148C144.962 35.9092 145.807 32.1768 145.807 29.6464C145.807 27.116 144.962 24.5855 144.24 24.1055L143.157 23.3836" stroke="#263238" stroke-miterlimit="10"/>
<path d="M141.349 22.1779C141.349 22.1779 140.504 21.456 142.673 21.8058C144.843 22.1556 150.265 29.2742 152.073 31.5628C153.882 33.8513 155.686 33.9741 157.13 32.5266C158.574 31.079 157.502 29.2742 157.011 28.3104C156.52 27.3466 154.481 24.9353 153.759 23.2496C153.037 21.5639 150.986 17.225 149.293 16.1421C147.6 15.0592 145.077 14.8173 141.222 16.384C137.367 17.9506 135.558 19.2753 135.558 19.2753" stroke="#263238" stroke-miterlimit="10"/>
<path d="M124.964 19.0446L132.555 18.5646" stroke="#263238" stroke-miterlimit="10"/>
<path d="M128.938 33.5015C130.386 33.0215 130.263 32.2959 131.711 30.3683C133.158 28.4407 134.844 21.936 134.963 21.0913C135.029 20.5801 134.895 20.0632 134.591 19.6475L141.821 23.2831" stroke="#263238" stroke-miterlimit="10"/>
<path d="M120.145 32.6643H126.773C127.951 31.8059 128.868 30.6376 129.422 29.2891C130.263 27.1197 131.952 22.1816 132.433 21.1025C132.58 20.8246 132.657 20.5147 132.657 20.2001C132.657 19.8854 132.58 19.5756 132.433 19.2977" stroke="#263238" stroke-miterlimit="10"/>
<path d="M127.494 35.5519C127.494 35.5519 124.119 33.7434 125.686 33.9853C127.253 34.2272 130.747 36.3929 133.277 36.3929C135.808 36.3929 136.771 34.9491 137.977 33.0215C139.183 31.0939 142.07 25.9103 142.07 24.3474" stroke="#263238" stroke-miterlimit="10"/>
<path d="M152.795 36.151C152.795 36.151 154.842 33.5015 156.769 35.9129C158.697 38.3242 156.047 42.0566 154.964 43.1395C153.882 44.2223 150.871 44.2261 150.384 43.9842C150.076 43.8238 149.793 43.6209 149.543 43.3814" stroke="#263238" stroke-miterlimit="10"/>
<path d="M154.827 33.5015L161.093 40.7318C161.093 40.7318 161.212 38.8043 162.299 37.9595C162.788 37.5542 163.311 37.1919 163.862 36.8767L158.079 30.852" stroke="#263238" stroke-miterlimit="10"/>
<path d="M164.602 37.1297H165.443C165.443 37.1297 167.613 39.783 167.613 40.5049C167.613 41.2268 164.241 46.0458 163.147 46.0458C162.053 46.0458 160.498 45.2048 160.498 45.2048C160.498 45.2048 161.101 44.36 161.581 43.5153C162.061 42.6706 161.581 41.4687 161.581 41.4687C161.581 41.4687 163.75 43.0353 163.389 45.082" stroke="#263238" stroke-miterlimit="10"/>
<path d="M129.08 51.9476C131.268 52.4313 135.253 52.502 136.05 52.9002C137.013 53.3803 139.179 59.4049 139.179 59.4049" stroke="#263238" stroke-miterlimit="10"/>
<path d="M127.253 36.2738C127.253 36.2738 126.17 36.9958 126.773 37.9596C127.375 38.9234 128.7 39.5262 128.7 39.5262C128.7 39.5262 126.892 41.4538 127.253 42.2985C127.462 42.841 127.462 43.4417 127.253 43.9842C127.253 43.9842 126.88 45.0671 127.011 45.6699C127.141 46.2727 127.253 47.2365 127.253 47.2365C127.253 47.2365 126.531 50.7308 127.974 51.5755" stroke="#263238" stroke-miterlimit="10"/>
<path d="M160.505 45.1898C160.505 45.1898 158.217 47.2365 158.094 49.7669C157.971 52.2974 157.722 53.0193 157.722 53.0193" stroke="#263238" stroke-miterlimit="10"/>
<path d="M166.683 33.6801C166.528 34.6863 166.279 35.6755 165.938 36.6348" stroke="#263238" stroke-miterlimit="10"/>
<path d="M166.906 30.0594C166.928 30.5804 166.924 31.0865 166.906 31.574" stroke="#263238" stroke-miterlimit="10"/>
<path d="M148.817 15.0704C148.817 15.0704 156.166 13.7419 162.552 20.1275C164.876 22.4095 166.365 25.4071 166.779 28.6379" stroke="#263238" stroke-miterlimit="10"/>
<path d="M120.026 24.9279C120.505 24.9279 120.893 24.5397 120.893 24.0608C120.893 23.582 120.505 23.1938 120.026 23.1938C119.547 23.1938 119.159 23.582 119.159 24.0608C119.159 24.5397 119.547 24.9279 120.026 24.9279Z" fill="#263238"/>
<path d="M137.795 38.9047C138.274 38.9047 138.662 38.5166 138.662 38.0377C138.662 37.5588 138.274 37.1707 137.795 37.1707C137.316 37.1707 136.928 37.5588 136.928 38.0377C136.928 38.5166 137.316 38.9047 137.795 38.9047Z" fill="#263238"/>
<path d="M136.388 53.6407C136.867 53.6407 137.255 53.2525 137.255 52.7737C137.255 52.2948 136.867 51.9066 136.388 51.9066C135.909 51.9066 135.521 52.2948 135.521 52.7737C135.521 53.2525 135.909 53.6407 136.388 53.6407Z" fill="#263238"/>
<path d="M152.936 31.574C152.936 31.4023 152.885 31.2345 152.79 31.0919C152.695 30.9492 152.559 30.8381 152.4 30.7726C152.242 30.7071 152.067 30.6901 151.899 30.7239C151.731 30.7576 151.576 30.8406 151.455 30.9622C151.334 31.0838 151.252 31.2387 151.219 31.4071C151.185 31.5755 151.203 31.75 151.269 31.9083C151.336 32.0667 151.447 32.2019 151.59 32.2967C151.733 32.3915 151.901 32.4417 152.073 32.441C152.187 32.441 152.299 32.4185 152.404 32.3749C152.509 32.3313 152.605 32.2674 152.685 32.1868C152.765 32.1063 152.829 32.0107 152.872 31.9055C152.915 31.8003 152.937 31.6876 152.936 31.574Z" fill="#263238"/>
<path d="M150.908 18.8586C151.387 18.8586 151.775 18.4704 151.775 17.9915C151.775 17.5127 151.387 17.1245 150.908 17.1245C150.429 17.1245 150.041 17.5127 150.041 17.9915C150.041 18.4704 150.429 18.8586 150.908 18.8586Z" fill="#263238"/>
<path d="M135.997 19.9377C136.476 19.9377 136.864 19.5495 136.864 19.0707C136.864 18.5918 136.476 18.2036 135.997 18.2036C135.519 18.2036 135.13 18.5918 135.13 19.0707C135.13 19.5495 135.519 19.9377 135.997 19.9377Z" fill="#263238"/>
<path d="M164.993 38.0377C165.472 38.0377 165.86 37.6495 165.86 37.1706C165.86 36.6918 165.472 36.3036 164.993 36.3036C164.514 36.3036 164.126 36.6918 164.126 37.1706C164.126 37.6495 164.514 38.0377 164.993 38.0377Z" fill="#263238"/>
<path d="M21.2762 16.8975H19.7505" stroke="#263238" stroke-miterlimit="10"/>
<path d="M14.4403 34.4132H21.2762C21.5774 34.4151 21.8737 34.3372 22.1351 34.1875C22.3966 34.0379 22.6137 33.8218 22.7647 33.5611L26.8171 26.5094C26.967 26.2497 27.0459 25.9552 27.0459 25.6554C27.0459 25.3555 26.967 25.061 26.8171 24.8013L22.7572 17.7534" stroke="#263238" stroke-miterlimit="10"/>
<path d="M18.329 16.8975H13.1193C12.8178 16.8964 12.5213 16.975 12.26 17.1253C11.9986 17.2756 11.7815 17.4923 11.6308 17.7534L7.58583 24.8013C7.43592 25.061 7.357 25.3555 7.357 25.6554C7.357 25.9552 7.43592 26.2497 7.58583 26.5094L11.6568 33.5797C11.8078 33.8404 12.025 34.0565 12.2864 34.2061C12.5478 34.3558 12.8441 34.4337 13.1453 34.4318" stroke="#263238" stroke-miterlimit="10"/>
<path d="M26.765 40.9142L27.9334 42.9311C28.0841 43.192 28.3012 43.4084 28.5627 43.558C28.8241 43.7077 29.1206 43.7854 29.4219 43.7832H37.5639C37.8652 43.7854 38.1617 43.7077 38.4232 43.558C38.6847 43.4084 38.9018 43.192 39.0524 42.9311L43.1234 35.8608C43.2734 35.6018 43.3523 35.3079 43.3523 35.0086C43.3523 34.7094 43.2734 34.4154 43.1234 34.1565L40.7195 29.9924" stroke="#263238" stroke-miterlimit="10"/>
<path d="M25.7193 39.0982L26.3184 40.1364" stroke="#263238" stroke-miterlimit="10"/>
<path d="M39.9492 28.7161L39.0301 27.1234C38.8796 26.862 38.6626 26.6451 38.4012 26.4948C38.1398 26.3445 37.8432 26.2661 37.5416 26.2675H29.4219C29.1203 26.2661 28.8237 26.3445 28.5623 26.4948C28.3009 26.6451 28.0839 26.862 27.9334 27.1234L23.8624 34.1937C23.7125 34.4527 23.6335 34.7466 23.6335 35.0458C23.6335 35.3451 23.7125 35.639 23.8624 35.898L25.0644 37.9856" stroke="#263238" stroke-miterlimit="10"/>
<path d="M26.5342 10.5565L23.8624 15.1746C23.7125 15.4342 23.6336 15.7288 23.6336 16.0286C23.6336 16.3284 23.7125 16.6229 23.8624 16.8826L27.9334 23.9455C28.0841 24.2064 28.3012 24.4227 28.5627 24.5724C28.8241 24.7221 29.1206 24.7998 29.4219 24.7976H37.5639C37.8652 24.7998 38.1617 24.7221 38.4232 24.5724C38.6846 24.4227 38.9018 24.2064 39.0524 23.9455L43.1234 16.8938C43.2733 16.6341 43.3522 16.3396 43.3522 16.0397C43.3522 15.7399 43.2733 15.4454 43.1234 15.1857L42.8183 14.7131" stroke="#263238" stroke-miterlimit="10"/>
<path d="M27.9334 8.13403L27.2934 9.24295" stroke="#263238" stroke-miterlimit="10"/>
<path d="M42.3829 13.9391L39.0338 8.13403C38.8832 7.8731 38.666 7.65676 38.4046 7.50707C38.1431 7.35737 37.8466 7.27967 37.5453 7.28188H29.4219C29.2877 7.2812 29.1539 7.29745 29.0237 7.33025" stroke="#263238" stroke-miterlimit="10"/>
<path d="M53.8256 16.663H45.6836C45.3823 16.6608 45.0858 16.7385 44.8243 16.8882C44.5629 17.0379 44.3457 17.2543 44.1951 17.5152L40.1353 24.5557C39.9853 24.8154 39.9064 25.1099 39.9064 25.4097C39.9064 25.7096 39.9853 26.0041 40.1353 26.2638L44.2063 33.3341C44.3569 33.595 44.574 33.8113 44.8355 33.961C45.097 34.1107 45.3935 34.1884 45.6947 34.1862H53.8368C54.138 34.188 54.4343 34.1102 54.6957 33.9605C54.9571 33.8109 55.1743 33.5947 55.3252 33.3341L59.3925 26.2638C59.5424 26.0041 59.6214 25.7096 59.6214 25.4097C59.6214 25.1099 59.5424 24.8154 59.3925 24.5557L55.3066 17.504C55.1549 17.2465 54.9383 17.0333 54.6784 16.8858C54.4185 16.7382 54.1245 16.6614 53.8256 16.663V16.663Z" stroke="#263238" stroke-miterlimit="10"/>
<path d="M37.4523 45.6885H29.3103C29.009 45.6863 28.7125 45.764 28.451 45.9137C28.1895 46.0634 27.9724 46.2797 27.8218 46.5407L23.7508 53.611C23.6009 53.8706 23.5219 54.1652 23.5219 54.465C23.5219 54.7648 23.6009 55.0593 23.7508 55.319L27.8218 62.3707C27.9724 62.6316 28.1895 62.848 28.451 62.9977C28.7125 63.1474 29.009 63.2251 29.3103 63.2229H37.4523C37.7535 63.2247 38.0498 63.1468 38.3112 62.9972C38.5727 62.8475 38.7898 62.6314 38.9408 62.3707L43.008 55.319C43.158 55.0593 43.2369 54.7648 43.2369 54.465C43.2369 54.1652 43.158 53.8706 43.008 53.611L38.9408 46.5407C38.7898 46.28 38.5727 46.0639 38.3112 45.9142C38.0498 45.7645 37.7535 45.6867 37.4523 45.6885V45.6885Z" stroke="#263238" stroke-miterlimit="10"/>
<path d="M56.6351 50.7531L59.7423 45.3685C59.8923 45.1095 59.9713 44.8156 59.9713 44.5163C59.9713 44.2171 59.8923 43.9231 59.7423 43.6642L55.6713 36.5939C55.5209 36.3325 55.3039 36.1156 55.0425 35.9653C54.781 35.815 54.4844 35.7365 54.1828 35.738H46.052C45.7504 35.7365 45.4538 35.815 45.1924 35.9653C44.931 36.1156 44.714 36.3325 44.5635 36.5939L40.4925 43.6642C40.3426 43.9231 40.2636 44.2171 40.2636 44.5163C40.2636 44.8156 40.3426 45.1095 40.4925 45.3685L44.5635 52.4388C44.714 52.7001 44.931 52.917 45.1924 53.0673C45.4538 53.2177 45.7504 53.2961 46.052 53.2947H52.5716" stroke="#263238" stroke-miterlimit="10"/>
<path d="M54.194 53.276C54.4956 53.2775 54.7922 53.1991 55.0536 53.0487C55.3151 52.8984 55.532 52.6815 55.6825 52.4202L55.9281 51.9959" stroke="#263238" stroke-miterlimit="10"/>
<path d="M37.5379 37.6581L38.5314 37.8814L38.7622 36.8767L37.8095 36.6608C37.8095 36.6311 37.8095 36.6013 37.8095 36.5752C37.8109 36.2694 37.7488 35.9665 37.6272 35.6859L38.4012 35.0682L37.7574 34.2607L37.0132 34.8523C36.7559 34.6273 36.4503 34.4643 36.1201 34.376V33.4085H35.0856V34.3314C34.7468 34.4001 34.4277 34.5438 34.1516 34.7519L33.4073 34.1565L32.771 34.9677L33.5152 35.5519C33.3605 35.8566 33.2778 36.1927 33.2734 36.5343L32.3207 36.7539L32.5515 37.7586L33.4892 37.5428C33.6301 37.8455 33.8359 38.1136 34.092 38.3279L33.6566 39.2322L34.587 39.6825L35.0149 38.7894C35.1903 38.8327 35.3701 38.8552 35.5507 38.8563C35.6957 38.8549 35.8402 38.84 35.9824 38.8117L36.429 39.7346L37.3593 39.288L36.9239 38.3912C37.1785 38.1935 37.3879 37.9435 37.5379 37.6581ZM34.52 36.5752C34.52 36.3751 34.5793 36.1794 34.6906 36.0129C34.8018 35.8465 34.9599 35.7167 35.1448 35.6401C35.3298 35.5635 35.5333 35.5435 35.7296 35.5825C35.9259 35.6216 36.1063 35.718 36.2479 35.8595C36.3894 36.0011 36.4858 36.1814 36.5249 36.3778C36.5639 36.5741 36.5439 36.7776 36.4673 36.9626C36.3907 37.1475 36.2609 37.3056 36.0945 37.4168C35.928 37.5281 35.7323 37.5874 35.5321 37.5874C35.2637 37.5874 35.0062 37.4808 34.8164 37.291C34.6266 37.1011 34.52 36.8437 34.52 36.5752Z" stroke="#263238" stroke-miterlimit="10"/>
<path d="M32.7003 33.5871L33.6901 33.8141L33.9209 32.8094L32.9682 32.5898C32.9682 32.5601 32.9682 32.534 32.9682 32.5042C32.9687 32.1988 32.908 31.8964 32.7896 31.6149L33.5599 31.0009L32.9161 30.1934L32.1719 30.7813C31.9122 30.5576 31.6058 30.3948 31.2751 30.305V29.3449H30.2517V30.2678C29.9124 30.335 29.593 30.4788 29.3177 30.6883L28.5735 30.0929L27.9334 30.9004L28.6777 31.4809C28.5231 31.7869 28.4404 32.1242 28.4358 32.467L27.4832 32.6829L27.7139 33.6876L28.6516 33.4755C28.7936 33.7765 28.9993 34.0431 29.2545 34.2569L28.8191 35.1649L29.7494 35.6114L30.1773 34.7184C30.3523 34.7635 30.5324 34.786 30.7132 34.7853C30.858 34.7852 31.0025 34.7715 31.1448 34.7444L31.5914 35.6673L32.5217 35.2207L32.09 34.3202C32.3431 34.1218 32.5511 33.8719 32.7003 33.5871V33.5871ZM29.6787 32.5042C29.6787 32.304 29.738 32.1084 29.8493 31.9419C29.9605 31.7755 30.1186 31.6457 30.3035 31.5691C30.4885 31.4925 30.692 31.4725 30.8883 31.5115C31.0846 31.5506 31.265 31.647 31.4066 31.7885C31.5481 31.9301 31.6445 32.1104 31.6836 32.3068C31.7226 32.5031 31.7026 32.7066 31.626 32.8916C31.5494 33.0765 31.4196 33.2346 31.2532 33.3458C31.0867 33.457 30.891 33.5164 30.6908 33.5164C30.4224 33.5164 30.1649 33.4098 29.9751 33.2199C29.7853 33.0301 29.6787 32.7727 29.6787 32.5042V32.5042Z" stroke="#263238" stroke-miterlimit="10"/>
<path d="M51.7756 25.9874C52.4834 24.2896 51.6808 22.3396 49.9831 21.6318C48.2853 20.9241 46.3353 21.7266 45.6275 23.4244C44.9198 25.1221 45.7223 27.0722 47.4201 27.7799C49.1178 28.4877 51.0679 27.6851 51.7756 25.9874Z" stroke="#263238" stroke-miterlimit="10"/>
<path d="M48.7015 27.5364C50.2634 27.5364 51.5296 26.2702 51.5296 24.7083C51.5296 23.1464 50.2634 21.8802 48.7015 21.8802C47.1396 21.8802 45.8734 23.1464 45.8734 24.7083C45.8734 26.2702 47.1396 27.5364 48.7015 27.5364Z" stroke="#263238" stroke-miterlimit="10"/>
<path d="M52.4487 28.2286L54.6554 30.0594" stroke="#263238" stroke-width="3" stroke-miterlimit="10"/>
<path d="M51.124 27.1308L52.4488 28.2286" stroke="#263238" stroke-width="2" stroke-miterlimit="10"/>
<path d="M12.1443 23.4282H22.0427" stroke="#263238" stroke-miterlimit="10"/>
<path d="M14.2617 22.8812H13.2383V23.9045H14.2617V22.8812Z" fill="#263238"/>
<path d="M12.1443 25.7465H22.0427" stroke="#263238" stroke-miterlimit="10"/>
<path d="M19.5495 25.2032H18.5262V26.2266H19.5495V25.2032Z" fill="#263238"/>
<path d="M12.1443 28.0686H22.0427" stroke="#263238" stroke-miterlimit="10"/>
<path d="M17.194 27.5215H16.1707V28.5449H17.194V27.5215Z" fill="#263238"/>
<path d="M49.8886 53.998C50.3202 53.998 50.67 53.6481 50.67 53.2165C50.67 52.7849 50.3202 52.4351 49.8886 52.4351C49.457 52.4351 49.1071 52.7849 49.1071 53.2165C49.1071 53.6481 49.457 53.998 49.8886 53.998Z" fill="#263238"/>
<path d="M55.9839 37.9372C56.4155 37.9372 56.7654 37.5873 56.7654 37.1558C56.7654 36.7242 56.4155 36.3743 55.9839 36.3743C55.5523 36.3743 55.2025 36.7242 55.2025 37.1558C55.2025 37.5873 55.5523 37.9372 55.9839 37.9372Z" fill="#263238"/>
<path d="M33.0538 26.4387C33.0545 26.2831 33.009 26.1307 32.923 26.0011C32.837 25.8714 32.7144 25.7702 32.5708 25.7103C32.4272 25.6504 32.269 25.6345 32.1164 25.6647C31.9637 25.6949 31.8235 25.7697 31.7134 25.8798C31.6034 25.9898 31.5285 26.13 31.4984 26.2827C31.4682 26.4353 31.4841 26.5935 31.5439 26.7371C31.6038 26.8808 31.705 27.0034 31.8347 27.0893C31.9644 27.1753 32.1167 27.2209 32.2724 27.2201C32.4796 27.2201 32.6784 27.1378 32.8249 26.9912C32.9715 26.8447 33.0538 26.6459 33.0538 26.4387Z" fill="#263238"/>
<path d="M41.4005 10.977C41.4005 10.8225 41.3546 10.6714 41.2688 10.5429C41.1829 10.4144 41.0609 10.3142 40.9181 10.2551C40.7753 10.1959 40.6181 10.1805 40.4666 10.2106C40.315 10.2408 40.1757 10.3152 40.0664 10.4245C39.9572 10.5338 39.8827 10.673 39.8526 10.8246C39.8224 10.9762 39.8379 11.1333 39.897 11.2761C39.9562 11.4189 40.0564 11.5409 40.1849 11.6268C40.3134 11.7127 40.4645 11.7585 40.619 11.7585C40.826 11.7575 41.0242 11.6749 41.1705 11.5285C41.3168 11.3822 41.3995 11.184 41.4005 10.977Z" fill="#263238"/>
<path d="M11.3331 31.7488C11.3338 31.5932 11.2883 31.4409 11.2023 31.3112C11.1163 31.1815 10.9937 31.0803 10.8501 31.0204C10.7065 30.9606 10.5483 30.9447 10.3957 30.9749C10.243 31.005 10.1028 31.0799 9.99272 31.1899C9.88269 31.3 9.80783 31.4402 9.77766 31.5929C9.74748 31.7455 9.76334 31.9037 9.82323 32.0473C9.88312 32.1909 9.98433 32.3135 10.114 32.3995C10.2437 32.4855 10.396 32.531 10.5516 32.5303C10.7589 32.5303 10.9577 32.448 11.1042 32.3014C11.2508 32.1549 11.3331 31.9561 11.3331 31.7488Z" fill="#263238"/>
<path d="M35.614 43.7014C35.614 43.5468 35.5682 43.3957 35.4823 43.2672C35.3964 43.1387 35.2744 43.0386 35.1316 42.9794C34.9888 42.9203 34.8317 42.9048 34.6801 42.9349C34.5285 42.9651 34.3893 43.0395 34.28 43.1488C34.1707 43.2581 34.0963 43.3973 34.0661 43.5489C34.0359 43.7005 34.0514 43.8576 34.1106 44.0004C34.1697 44.1432 34.2699 44.2653 34.3984 44.3511C34.5269 44.437 34.678 44.4828 34.8325 44.4828C35.0395 44.4818 35.2377 44.3992 35.384 44.2529C35.5304 44.1065 35.613 43.9083 35.614 43.7014Z" fill="#263238"/>
<path d="M25.4402 56.707C25.4402 56.5525 25.3944 56.4014 25.3085 56.2729C25.2226 56.1443 25.1006 56.0442 24.9578 55.985C24.815 55.9259 24.6579 55.9104 24.5063 55.9406C24.3547 55.9707 24.2155 56.0451 24.1062 56.1544C23.9969 56.2637 23.9225 56.403 23.8923 56.5546C23.8622 56.7061 23.8776 56.8633 23.9368 57.0061C23.9959 57.1488 24.0961 57.2709 24.2246 57.3568C24.3531 57.4426 24.5042 57.4885 24.6588 57.4885C24.866 57.4885 25.0648 57.4061 25.2113 57.2596C25.3579 57.113 25.4402 56.9143 25.4402 56.707Z" fill="#263238"/>
<path d="M41.274 51.4006C41.7055 51.4006 42.0554 51.0507 42.0554 50.6191C42.0554 50.1875 41.7055 49.8376 41.274 49.8376C40.8424 49.8376 40.4925 50.1875 40.4925 50.6191C40.4925 51.0507 40.8424 51.4006 41.274 51.4006Z" fill="#263238"/>
<path d="M57.1226 21.6234C57.5542 21.6234 57.9041 21.2736 57.9041 20.842C57.9041 20.4104 57.5542 20.0605 57.1226 20.0605C56.691 20.0605 56.3411 20.4104 56.3411 20.842C56.3411 21.2736 56.691 21.6234 57.1226 21.6234Z" fill="#263238"/>
<path d="M47.4735 34.1193C47.475 33.9637 47.4302 33.8111 47.3448 33.681C47.2594 33.5509 47.1373 33.4491 46.994 33.3886C46.8506 33.328 46.6925 33.3114 46.5398 33.3408C46.387 33.3703 46.2464 33.4445 46.1358 33.554C46.0252 33.6635 45.9497 33.8034 45.9188 33.9559C45.8879 34.1084 45.903 34.2666 45.9622 34.4106C46.0214 34.5545 46.1221 34.6775 46.2513 34.7641C46.3806 34.8507 46.5327 34.897 46.6883 34.897C46.7909 34.8975 46.8927 34.8778 46.9877 34.8389C47.0827 34.8001 47.1691 34.743 47.242 34.6708C47.3149 34.5985 47.3729 34.5127 47.4126 34.418C47.4523 34.3234 47.473 34.2219 47.4735 34.1193Z" fill="#263238"/>
<path d="M26.0356 19.4167C26.0356 19.2613 25.9895 19.1093 25.903 18.9801C25.8166 18.8509 25.6937 18.7503 25.55 18.691C25.4064 18.6317 25.2483 18.6163 25.0959 18.6469C24.9435 18.6775 24.8036 18.7527 24.6939 18.8629C24.5843 18.9731 24.5098 19.1133 24.4799 19.2659C24.45 19.4184 24.4661 19.5764 24.5261 19.7198C24.5861 19.8632 24.6873 19.9856 24.8169 20.0714C24.9465 20.1572 25.0987 20.2027 25.2542 20.2019C25.3571 20.2019 25.459 20.1816 25.5541 20.1421C25.6491 20.1026 25.7354 20.0447 25.808 19.9717C25.8807 19.8988 25.9381 19.8122 25.9772 19.7169C26.0163 19.6217 26.0361 19.5197 26.0356 19.4167Z" fill="#263238"/>
<path d="M5.28242 143.315V122.811C5.28193 122.582 5.32652 122.356 5.41363 122.144C5.50074 121.933 5.62867 121.741 5.79009 121.579C5.95151 121.418 6.14325 121.289 6.35433 121.202C6.56542 121.114 6.7917 121.069 7.02022 121.069H38.5724C39.0343 121.069 39.4772 121.253 39.8038 121.579C40.1304 121.906 40.3139 122.349 40.3139 122.811V143.404" stroke="#263238" stroke-miterlimit="10"/>
<path d="M18.3997 145.663H16.7549" stroke="#263238" stroke-miterlimit="10"/>
<path d="M14.6785 145.663H3.8572C3.64742 145.664 3.43951 145.623 3.24542 145.544C3.05133 145.464 2.87487 145.347 2.72619 145.199C2.57751 145.051 2.45953 144.875 2.37902 144.681C2.29852 144.487 2.25707 144.28 2.25708 144.07V143.326H43.3281V144.07C43.3281 144.492 43.1608 144.896 42.8629 145.195C42.565 145.493 42.1609 145.662 41.7391 145.663H19.9589" stroke="#263238" stroke-miterlimit="10"/>
<path d="M20.3049 122.36H22.0353" stroke="#263238" stroke-miterlimit="10"/>
<path d="M23.334 122.36H39.1827V143.058H6.45088V122.36H17.968" stroke="#263238" stroke-miterlimit="10"/>
<path d="M12.1295 120.95C12.1302 120.794 12.0847 120.642 11.9987 120.512C11.9127 120.383 11.7901 120.282 11.6465 120.222C11.5029 120.162 11.3447 120.146 11.192 120.176C11.0394 120.206 10.8991 120.281 10.7891 120.391C10.6791 120.501 10.6042 120.641 10.574 120.794C10.5438 120.947 10.5597 121.105 10.6196 121.249C10.6795 121.392 10.7807 121.515 10.9104 121.601C11.0401 121.687 11.1924 121.732 11.348 121.731C11.555 121.731 11.7531 121.648 11.8995 121.502C12.0458 121.355 12.1285 121.157 12.1295 120.95Z" fill="#263238"/>
<path d="M43.0416 143.374C43.0416 143.219 42.9954 143.067 42.909 142.937C42.8225 142.808 42.6997 142.708 42.556 142.648C42.4123 142.589 42.2542 142.574 42.1018 142.604C41.9494 142.635 41.8095 142.71 41.6999 142.82C41.5902 142.93 41.5157 143.071 41.4858 143.223C41.456 143.376 41.472 143.534 41.532 143.677C41.592 143.821 41.6933 143.943 41.8229 144.029C41.9525 144.115 42.1046 144.16 42.2601 144.159C42.363 144.159 42.465 144.139 42.56 144.099C42.6551 144.06 42.7414 144.002 42.814 143.929C42.8866 143.856 42.9441 143.769 42.9831 143.674C43.0222 143.579 43.042 143.477 43.0416 143.374Z" fill="#263238"/>
<path d="M37.2811 122.45C37.2818 122.294 37.2364 122.142 37.1506 122.012C37.0648 121.883 36.9424 121.782 36.799 121.722C36.6556 121.662 36.4976 121.646 36.345 121.675C36.1925 121.705 36.0522 121.78 35.9421 121.889C35.8319 121.999 35.7567 122.139 35.7261 122.291C35.6955 122.444 35.7109 122.602 35.7702 122.746C35.8295 122.889 35.9301 123.012 36.0593 123.099C36.1885 123.185 36.3405 123.231 36.4959 123.231C36.7035 123.231 36.9027 123.149 37.0498 123.002C37.197 122.856 37.2801 122.657 37.2811 122.45Z" fill="#263238"/>
<path d="M8.95526 145.566C8.95526 145.411 8.90921 145.259 8.82293 145.13C8.73666 145.001 8.61403 144.9 8.47056 144.84C8.32709 144.781 8.16921 144.765 8.0169 144.796C7.86459 144.826 7.72469 144.901 7.61488 145.011C7.50507 145.12 7.43029 145.26 7.39999 145.413C7.3697 145.565 7.38525 145.723 7.44468 145.866C7.5041 146.01 7.60474 146.132 7.73386 146.219C7.86299 146.305 8.01479 146.351 8.17008 146.351C8.27333 146.352 8.37566 146.332 8.47114 146.292C8.56663 146.253 8.65338 146.195 8.72639 146.122C8.7994 146.049 8.85721 145.962 8.8965 145.867C8.93578 145.771 8.95575 145.669 8.95526 145.566Z" fill="#263238"/>
<path d="M32.1979 108.119C32.1979 108.388 32.0913 108.645 31.9015 108.835C31.7116 109.025 31.4542 109.131 31.1858 109.131H14.1314C13.863 109.131 13.6056 109.025 13.4157 108.835C13.2259 108.645 13.1193 108.388 13.1193 108.119V76.3215C13.1193 76.0531 13.2259 75.7956 13.4157 75.6058C13.6056 75.416 13.863 75.3094 14.1314 75.3094H31.1858C31.4542 75.3094 31.7116 75.416 31.9015 75.6058C32.0913 75.7956 32.1979 76.0531 32.1979 76.3215V105.008" stroke="#263238" stroke-miterlimit="10"/>
<path d="M27.271 78.3794H31.0592V106.061H14.2542V101.886" stroke="#263238" stroke-miterlimit="10"/>
<path d="M23.7582 78.3794H25.7081" stroke="#263238" stroke-miterlimit="10"/>
<path d="M14.2542 99.9363V78.3794H22.1953" stroke="#263238" stroke-miterlimit="10"/>
<path d="M23.2521 107.312C23.2521 107.188 23.2155 107.067 23.1468 106.964C23.0781 106.862 22.9804 106.782 22.8662 106.734C22.752 106.687 22.6263 106.674 22.505 106.699C22.3837 106.723 22.2723 106.782 22.1849 106.87C22.0975 106.957 22.0379 107.069 22.0138 107.19C21.9897 107.311 22.0021 107.437 22.0494 107.551C22.0967 107.665 22.1768 107.763 22.2796 107.832C22.3825 107.9 22.5033 107.937 22.627 107.937C22.7928 107.937 22.9518 107.871 23.069 107.754C23.1863 107.637 23.2521 107.478 23.2521 107.312V107.312Z" stroke="#263238" stroke-miterlimit="10"/>
<path d="M22.9209 75.4582C22.9217 75.3026 22.8762 75.1503 22.7902 75.0206C22.7042 74.8909 22.5816 74.7897 22.438 74.7298C22.2943 74.6699 22.1361 74.654 21.9835 74.6842C21.8308 74.7144 21.6906 74.7892 21.5806 74.8993C21.4705 75.0093 21.3957 75.1496 21.3655 75.3022C21.3353 75.4549 21.3512 75.613 21.4111 75.7567C21.471 75.9003 21.5722 76.0229 21.7019 76.1089C21.8316 76.1949 21.9839 76.2404 22.1395 76.2397C22.3467 76.2397 22.5455 76.1573 22.692 76.0108C22.8386 75.8642 22.9209 75.6654 22.9209 75.4582Z" fill="#263238"/>
<path d="M28.4432 105.92C28.444 105.765 28.3985 105.612 28.3127 105.483C28.2269 105.353 28.1045 105.252 27.9611 105.192C27.8177 105.132 27.6597 105.116 27.5072 105.146C27.3546 105.176 27.2143 105.25 27.1042 105.36C26.994 105.469 26.9188 105.609 26.8882 105.762C26.8576 105.914 26.873 106.072 26.9323 106.216C26.9916 106.36 27.0922 106.482 27.2214 106.569C27.3506 106.655 27.5026 106.701 27.658 106.701C27.8656 106.701 28.0648 106.619 28.2119 106.473C28.3591 106.326 28.4422 106.128 28.4432 105.92Z" fill="#263238"/>
<path d="M32.2091 91.8762C32.6407 91.8762 32.9905 91.5263 32.9905 91.0947C32.9905 90.6631 32.6407 90.3133 32.2091 90.3133C31.7775 90.3133 31.4276 90.6631 31.4276 91.0947C31.4276 91.5263 31.7775 91.8762 32.2091 91.8762Z" fill="#263238"/>
<path d="M17.648 108.908C17.648 108.753 17.6018 108.601 17.5154 108.472C17.429 108.342 17.3061 108.242 17.1624 108.182C17.0187 108.123 16.8607 108.108 16.7083 108.138C16.5559 108.169 16.416 108.244 16.3063 108.354C16.1966 108.464 16.1222 108.605 16.0923 108.757C16.0624 108.91 16.0785 109.068 16.1385 109.211C16.1985 109.355 16.2997 109.477 16.4293 109.563C16.5589 109.649 16.7111 109.694 16.8665 109.693C16.9695 109.693 17.0714 109.673 17.1665 109.634C17.2615 109.594 17.3478 109.536 17.4204 109.463C17.493 109.39 17.5505 109.304 17.5896 109.208C17.6286 109.113 17.6485 109.011 17.648 108.908Z" fill="#263238"/>
<path d="M17.2573 78.2193C17.258 78.0637 17.2125 77.9114 17.1265 77.7817C17.0405 77.652 16.9179 77.5508 16.7743 77.4909C16.6307 77.431 16.4725 77.4152 16.3198 77.4454C16.1672 77.4755 16.0269 77.5504 15.9169 77.6604C15.8069 77.7705 15.732 77.9107 15.7018 78.0634C15.6716 78.216 15.6875 78.3742 15.7474 78.5178C15.8073 78.6614 15.9085 78.784 16.0382 78.87C16.1679 78.956 16.3202 79.0015 16.4758 79.0008C16.6831 79.0008 16.8818 78.9185 17.0284 78.7719C17.1749 78.6254 17.2573 78.4266 17.2573 78.2193Z" fill="#263238"/>
<path d="M111.724 5.15709H89.7465C89.5883 5.15709 89.4317 5.1883 89.2857 5.24894C89.1396 5.30957 89.0069 5.39844 88.8953 5.51045C88.7836 5.62245 88.6951 5.75539 88.6349 5.90165C88.5748 6.04791 88.544 6.20461 88.5445 6.36276V17.6083C88.544 17.7662 88.5748 17.9228 88.635 18.0688C88.6953 18.2149 88.7838 18.3476 88.8955 18.4593C89.0072 18.571 89.1399 18.6595 89.2859 18.7197C89.432 18.7799 89.5885 18.8107 89.7465 18.8102H101.766L99.9054 24.3399L104.605 18.8102H111.709C112.028 18.8102 112.334 18.6836 112.559 18.4582C112.784 18.2328 112.911 17.927 112.911 17.6083V6.36276C112.911 6.04619 112.787 5.74231 112.564 5.51673C112.342 5.29115 112.04 5.16197 111.724 5.15709V5.15709Z" stroke="#263238" stroke-miterlimit="10"/>
<path d="M105.766 9.04201H110.087" stroke="#263238" stroke-miterlimit="10"/>
<path d="M102.834 9.04201H104.609" stroke="#263238" stroke-miterlimit="10"/>
<path d="M95.6632 9.04201H101.137" stroke="#263238" stroke-miterlimit="10"/>
<path d="M92.1318 9.04201H94.2752" stroke="#263238" stroke-miterlimit="10"/>
<path d="M108.773 11.8776H110.087" stroke="#263238" stroke-miterlimit="10"/>
<path d="M97.2819 11.8776H107.846" stroke="#263238" stroke-miterlimit="10"/>
<path d="M92.1318 11.8776H96.2028" stroke="#263238" stroke-miterlimit="10"/>
<path d="M108.464 14.7131H110.087" stroke="#263238" stroke-miterlimit="10"/>
<path d="M105.07 14.7131H106.767" stroke="#263238" stroke-miterlimit="10"/>
<path d="M95.5851 14.7131H103.604" stroke="#263238" stroke-miterlimit="10"/>
<path d="M92.1318 14.7131H94.6622" stroke="#263238" stroke-miterlimit="10"/>
<path d="M107.422 117.404H65.2721V136.099H107.422V117.404Z" fill="#263238" stroke="#263238" stroke-miterlimit="10"/>
<path d="M89.579 118.033H83.2046V120.47H89.579V118.033Z" fill="white" stroke="#263238" stroke-miterlimit="10"/>
<path d="M115.036 68.4177C115.036 67.9748 114.031 67.3013 112.472 66.4119C110.913 65.5226 96.1991 58.8318 96.1991 58.8318L87.5026 58.3816V58.2737L86.4979 58.3295L85.4969 58.2737V58.3816L76.8004 58.8318C76.8004 58.8318 62.0867 65.53 60.5275 66.4119C58.9683 67.2939 57.9636 67.9748 57.9636 68.4177C57.9636 68.8605 64.4944 110.81 64.6134 111.986C64.7325 113.162 64.6134 116.552 64.6134 117.37C64.6134 118.189 66.3698 118.658 66.3698 118.658H106.63C106.63 118.658 108.386 118.189 108.386 117.37C108.386 116.552 108.271 113.158 108.386 111.986C108.501 110.813 115.036 68.8642 115.036 68.4177Z" fill="#92E3A9" stroke="#263238" stroke-miterlimit="10"/>
<path d="M112.472 66.4119C110.913 65.5226 96.1991 58.8318 96.1991 58.8318L87.5026 58.3816V58.2737L86.4979 58.3295L85.4969 58.2737V58.3816L76.8004 58.8318C76.8004 58.8318 62.0867 65.53 60.5275 66.4119C58.9683 67.2939 57.9636 67.9748 57.9636 68.4177C57.9636 68.5702 58.7079 73.4004 59.6828 79.7971L60.148 80.1693C60.148 80.1693 62.7751 71.2383 70.6567 67.5618C78.5382 63.8852 81.6864 62.8321 89.3037 62.8321C96.4484 62.8321 109.361 73.2218 113.328 79.7153C114.303 73.3557 115.036 68.5516 115.036 68.4065C115.036 67.9748 114.031 67.305 112.472 66.4119Z" fill="#263238" stroke="#263238" stroke-miterlimit="10"/>
<path d="M81.9282 66.9701L86.1667 71.0932L80.5923 109.329L86.2485 118.007L92.7644 109.224L88.5073 70.9816L92.5188 66.7469L87.391 61.2841L81.9282 66.9701Z" fill="#263238" stroke="#263238" stroke-miterlimit="10"/>
<path d="M95.0343 26.5689C93.8175 26.3084 91.1084 25.7577 88.939 25.3223V24.6934L87.3761 25.006L85.8169 24.6934V25.3223C83.6474 25.7577 80.9346 26.3084 79.7215 26.5689C77.5335 27.0378 76.205 27.0378 76.205 29.2259C76.205 29.2259 76.8302 44.9294 77.1427 46.4141C77.4553 47.8989 77.6898 49.8488 78.7056 50.7084C79.7215 51.568 79.7997 51.8806 79.7997 51.8806V56.5693C79.7997 56.5693 83.5507 64.6146 84.2651 65.1653C85.1385 65.904 86.2453 66.3092 87.3891 66.3092C88.5329 66.3092 89.6397 65.904 90.513 65.1653C91.2164 64.6183 94.9785 56.5693 94.9785 56.5693V51.8806C94.9785 51.8806 95.0566 51.568 96.0725 50.7084C97.0884 49.8488 97.3229 47.8989 97.6354 46.4141C97.948 44.9294 98.5732 29.2259 98.5732 29.2259C98.5509 27.0378 97.2224 27.0378 95.0343 26.5689Z" fill="white" stroke="#263238" stroke-miterlimit="10"/>
<path d="M80.6593 29.0696C80.6593 29.0696 88.392 32.2698 90.5801 32.2698C92.7681 32.2698 90.3456 31.2576 90.3456 31.2576C90.3456 31.2576 93.3933 32.2698 94.5655 32.2698H95.7376C95.7376 32.2698 95.8939 34.4579 96.0502 34.6923C96.2065 34.9268 96.1284 35.2393 96.3628 35.3956C96.5569 35.5376 96.7398 35.6944 96.9098 35.8645C96.9098 35.8645 97.4569 44.3824 97.7694 45.242C98.082 46.1016 98.6365 32.6643 98.6365 32.6643C99.016 32.2469 99.2972 31.7499 99.4595 31.2096C99.6218 30.6693 99.661 30.0996 99.5742 29.5422C99.3398 27.5104 94.9636 24.1501 90.3531 22.5872C88.7216 22.0023 86.9629 21.8664 85.2609 22.1937C83.5589 22.5211 81.9761 23.2995 80.6779 24.4478C79.115 25.8544 78.8806 26.4796 78.8806 26.4796C78.8806 26.4796 76.4581 26.3233 76.0673 27.2611C75.6766 28.1988 77.3177 44.8401 77.3177 44.8401L77.7084 35.8533C77.7084 35.8533 78.9587 34.5249 79.0369 33.8216C79.115 33.1182 79.8965 29.9962 79.8965 29.9962C79.8965 29.9962 81.0686 30.6995 81.3849 30.465C81.7012 30.2306 80.6593 29.0696 80.6593 29.0696Z" fill="#263238" stroke="#263238" stroke-miterlimit="10"/>
<path d="M76.8302 40.0062C76.8302 40.0062 76.3613 39.3029 75.8143 39.7718C75.2673 40.2407 74.7984 43.3665 75.111 44.1479C75.4236 44.9294 75.8924 46.1016 76.2831 46.1797C76.5736 46.2429 76.8605 46.3212 77.1428 46.4141L76.8302 40.0062Z" fill="#263238" stroke="#263238" stroke-miterlimit="10"/>
<path d="M97.9815 40.0062C97.9815 40.0062 98.4504 39.3029 98.9974 39.7718C99.5444 40.2407 100.013 43.3665 99.7007 44.1479C99.3881 44.9294 98.9193 46.1016 98.5285 46.1797C98.2381 46.2429 97.9512 46.3212 97.6689 46.4141L97.9815 40.0062Z" fill="#263238" stroke="#263238" stroke-miterlimit="10"/>
<path d="M79.0182 35.3175C79.0182 35.3175 79.7997 33.829 81.1281 33.6764C82.4566 33.5239 85.5936 34.3016 85.348 35.3175C85.1024 36.3334 79.0182 35.3175 79.0182 35.3175Z" fill="#263238" stroke="#263238" stroke-miterlimit="10"/>
<path d="M95.7488 35.3175C95.7488 35.3175 94.9674 33.829 93.6389 33.6764C92.3104 33.5239 89.1734 34.3016 89.4227 35.3175C89.6721 36.3334 95.7488 35.3175 95.7488 35.3175Z" fill="#263238" stroke="#263238" stroke-miterlimit="10"/>
<path d="M85.4597 40.0062H78.914C78.6966 40.0062 78.488 39.9201 78.3338 39.7667C78.1797 39.6133 78.0926 39.405 78.0917 39.1876L77.7754 35.9055C77.7754 35.688 77.8615 35.4794 78.0149 35.3253C78.1683 35.1711 78.3766 35.0841 78.594 35.0831H85.7834C85.8912 35.0831 85.998 35.1044 86.0976 35.1457C86.1971 35.1871 86.2875 35.2477 86.3636 35.3242C86.4397 35.4006 86.4999 35.4913 86.5408 35.591C86.5817 35.6908 86.6026 35.7976 86.6021 35.9055L86.2858 39.1876C86.2858 39.2957 86.2644 39.4028 86.2227 39.5026C86.1811 39.6024 86.1202 39.693 86.0434 39.7691C85.9666 39.8452 85.8754 39.9054 85.7752 39.9461C85.6751 39.9868 85.5678 40.0072 85.4597 40.0062Z" fill="white" stroke="#263238" stroke-miterlimit="10"/>
<path d="M95.6149 40.0062H89.0618C88.8447 40.0062 88.6364 39.92 88.4829 39.7664C88.3294 39.6129 88.2431 39.4047 88.2431 39.1876L87.9231 35.9055C87.9231 35.6873 88.0098 35.4782 88.164 35.3239C88.3182 35.1697 88.5274 35.0831 88.7455 35.0831H95.9312C96.1493 35.0831 96.3584 35.1697 96.5127 35.3239C96.6669 35.4782 96.7535 35.6873 96.7535 35.9055L96.4372 39.1876C96.4363 39.405 96.3492 39.6133 96.1951 39.7667C96.0409 39.9201 95.8323 40.0062 95.6149 40.0062Z" fill="white" stroke="#263238" stroke-miterlimit="10"/>
<path d="M88.7455 35.0831H85.776" stroke="#263238" stroke-miterlimit="10"/>
<path d="M86.5946 35.9054H87.9231" stroke="#263238" stroke-miterlimit="10"/>
<path d="M86.5164 36.5678C86.5164 36.5678 85.4261 40.4751 85.4261 40.944C85.4235 41.0749 85.459 41.2037 85.5284 41.3148C85.5978 41.4258 85.698 41.5142 85.8169 41.5691C85.8169 41.5691 86.189 40.2407 86.5946 40.0806C87.0002 39.9206 88.2357 40.0025 88.2357 40.0025L89.0171 41.5654C89.1149 41.4735 89.1932 41.3629 89.2476 41.2402C89.3019 41.1175 89.3311 40.9851 89.3334 40.8509C89.4116 40.3039 88.0049 36.4748 88.0049 36.4748C88.0049 36.4748 86.9072 36.1771 86.5164 36.5678Z" fill="#263238" stroke="#263238" stroke-miterlimit="10"/>
<path d="M83.4986 53.5924C83.695 53.6583 83.895 53.7129 84.0977 53.7561" stroke="#263238" stroke-miterlimit="10"/>
<path d="M79.7997 51.8806C80.7667 52.4102 81.7604 52.8896 82.7767 53.317" stroke="#263238" stroke-miterlimit="10"/>
<path d="M94.9562 51.6424C94.9562 51.6424 93.1588 53.2054 91.5178 53.4398" stroke="#263238" stroke-miterlimit="10"/>
<path d="M83.6288 46.4923C84.9925 46.2068 86.3757 46.024 87.7668 45.9453C88.8906 46.0084 89.9979 46.2457 91.0489 46.6486C91.0489 46.6486 89.4079 44.3824 88.7827 44.1479C88.1575 43.9135 86.4383 44.1479 85.895 44.1479C85.3517 44.1479 83.6288 46.4923 83.6288 46.4923Z" fill="#263238" stroke="#263238" stroke-linejoin="round"/>
<path d="M89.6423 48.0403C89.6423 48.0403 86.7509 47.9622 85.7387 48.0403C84.7266 48.1184 84.5666 49.3688 84.5666 49.3688C85.5366 49.0811 86.5346 48.8977 87.5435 48.8218C88.5164 48.8731 89.4834 49.0038 90.4349 49.2125C90.4349 49.2125 90.58 48.5873 89.6423 48.0403Z" fill="#263238" stroke="#263238" stroke-linejoin="round"/>
<path d="M57.9636 68.4177L46.3683 99.073L56.7356 103.866L62.4216 92.9442L57.9636 68.4177Z" fill="#92E3A9" stroke="#263238" stroke-miterlimit="10"/>
<path d="M60.5908 96.4644C60.1926 95.7649 59.6009 94.7862 58.7302 93.4875C57.544 91.7022 56.1596 90.0569 54.6034 88.5829C55.4332 88.8897 56.2199 89.3025 56.944 89.8109C58.5069 90.8119 59.3963 91.3701 59.0614 90.0342C58.7265 88.6983 55.4964 84.3482 55.2732 83.5667C55.0499 82.7853 56.3895 82.6773 56.7207 81.334C56.9887 80.266 57.9711 73.3483 58.3506 70.6243L57.9487 68.3916L46.3571 99.047L49.2485 100.387H52.9325L59.5823 98.3474L60.5908 96.4644Z" fill="#263238" stroke="#263238" stroke-miterlimit="10"/>
<path d="M58.9646 95.5081C58.9646 95.5081 54.2833 95.1806 52.4934 95.1806C50.7035 95.1806 48.028 95.4039 47.0307 97.0747C46.0334 98.7456 45.6948 103.985 47.0307 106.884C48.3666 109.783 52.1585 110.564 54.2759 110.452C56.3933 110.341 60.4084 107.219 60.9741 105.66C61.5397 104.1 60.8624 100.532 60.3043 98.6339C59.9928 97.5391 59.5426 96.4887 58.9646 95.5081Z" fill="#92E3A9" stroke="#263238" stroke-miterlimit="10"/>
<path d="M58.9646 95.5081C58.9646 95.5081 55.0648 96.2858 55.0648 98.7381C55.0648 101.19 56.2928 103.643 57.7403 104.089C59.1879 104.536 61.1973 103.2 61.1973 103.2C61.1973 103.2 62.5333 102.307 61.9751 99.6312C61.4169 96.9556 59.9693 95.6197 58.9646 95.5081Z" fill="#92E3A9" stroke="#263238" stroke-miterlimit="10"/>
<path d="M61.6402 90.9347C61.6402 90.9347 62.8682 89.0406 63.2031 88.5941C63.538 88.1475 64.7623 86.9232 65.4358 85.8069C66.1094 84.6905 66.8834 83.5741 67.1067 85.1408C67.3299 86.7074 65.7707 88.3708 65.4358 88.8173L63.765 91.0501C63.765 91.0501 61.5286 92.2743 61.6402 90.9347Z" fill="white" stroke="#263238" stroke-miterlimit="10"/>
<path d="M58.5218 97.5138C58.5218 97.5138 59.2995 93.0484 59.9694 92.1627C60.6392 91.2771 65.4321 88.1512 66.4368 87.5931C67.4415 87.0349 73.7937 87.1465 73.7937 87.1465C73.7937 87.1465 75.4645 87.5931 74.4597 88.2629C73.455 88.9327 71.0065 88.7057 71.0065 88.7057L67.2146 90.6035L71.0065 89.8221L74.7947 90.3802C74.7947 90.3802 75.5761 91.0463 75.2412 91.6045C74.9063 92.1627 72.5657 92.1627 72.5657 92.1627H70.7832L66.6564 94.0642L71.2297 93.3944C71.2297 93.3944 74.1248 92.84 74.2365 93.6177C74.3481 94.3954 73.4587 95.069 72.9006 95.069C72.2197 95.1558 71.5483 95.3053 70.8948 95.5155L68.1225 96.5091L72.3573 95.8393C72.3573 95.8393 72.5805 96.5091 72.2456 96.844C71.9107 97.1789 67.7802 98.7381 67.7802 98.7381C67.7802 98.7381 63.8803 100.301 63.3147 100.748C62.7491 101.194 61.7518 102.418 59.8577 102.195C57.9636 101.972 58.0753 98.1836 58.5218 97.5138Z" fill="white" stroke="#263238" stroke-miterlimit="10"/>
<path d="M68.1076 96.5091L66.6564 97.0673" stroke="#263238" stroke-miterlimit="10"/>
<path d="M67.2146 90.6035L65.6554 91.158" stroke="#263238" stroke-miterlimit="10"/>
<path d="M115.017 68.4177L126.609 99.073L116.242 103.866L110.559 92.9442L115.017 68.4177Z" fill="#92E3A9" stroke="#263238" stroke-miterlimit="10"/>
<path d="M112.405 96.4644C112.803 95.7649 113.395 94.7862 114.266 93.4875C115.442 91.7078 116.815 90.0664 118.359 88.5941C117.529 88.9009 116.742 89.3136 116.018 89.8221C114.455 90.8231 113.566 91.3813 113.897 90.0454C114.228 88.7094 117.466 84.3593 117.689 83.5779C117.912 82.7964 116.573 82.6885 116.242 81.3452C115.974 80.2772 114.991 73.3594 114.612 70.6355L115.014 68.4028L126.605 99.0581L123.714 100.398H120.03L113.38 98.3585L112.405 96.4644Z" fill="#263238" stroke="#263238" stroke-miterlimit="10"/>
<path d="M79.5876 54.5971L85.0503 64.0713L80.4807 70.762L76.2459 58.7202L79.5876 54.5971Z" fill="#92E3A9" stroke="#263238" stroke-miterlimit="10"/>
<path d="M95.0827 54.5971L89.6199 64.0713L94.1896 70.762L98.4281 58.7202L95.0827 54.5971Z" fill="#92E3A9" stroke="#263238" stroke-miterlimit="10"/>
<path d="M114.013 95.5081C114.013 95.5081 118.698 95.1732 120.48 95.1732C122.262 95.1732 124.945 95.3965 125.943 97.0673C126.94 98.7381 127.279 103.978 125.943 106.876C124.607 109.775 120.815 110.557 118.698 110.445C116.58 110.333 112.565 107.211 111.999 105.652C111.434 104.093 112.111 100.524 112.669 98.6265C112.983 97.5344 113.435 96.4866 114.013 95.5081Z" fill="#92E3A9" stroke="#263238" stroke-miterlimit="10"/>
<path d="M114.013 95.5081C114.013 95.5081 117.916 96.2858 117.916 98.7381C117.916 101.19 116.688 103.643 115.241 104.089C113.793 104.536 111.783 103.2 111.783 103.2C111.783 103.2 110.448 102.307 111.006 99.6312C111.564 96.9556 113.012 95.6197 114.013 95.5081Z" fill="#92E3A9" stroke="#263238" stroke-miterlimit="10"/>
<path d="M111.341 90.9347C111.341 90.9347 110.113 89.0406 109.778 88.5941C109.443 88.1475 108.219 86.9232 107.545 85.8069C106.872 84.6905 106.098 83.5741 105.874 85.1408C105.651 86.7074 107.21 88.3708 107.545 88.8173L109.216 91.0501C109.216 91.0501 111.449 92.2743 111.341 90.9347Z" fill="white" stroke="#263238" stroke-miterlimit="10"/>
<path d="M114.459 97.5138C114.459 97.5138 113.681 93.0484 113.012 92.1627C112.342 91.2771 107.567 88.1512 106.544 87.5931C105.521 87.0349 99.1872 87.1465 99.1872 87.1465C99.1872 87.1465 97.5164 87.5931 98.5211 88.2629C99.5258 88.9327 101.986 88.7057 101.986 88.7057L105.777 90.6035L101.986 89.8221L98.1974 90.3802C98.1974 90.3802 97.4159 91.0463 97.7508 91.6045C98.0857 92.1627 100.426 92.1627 100.426 92.1627H102.209L106.324 94.0642L101.751 93.3944C101.751 93.3944 98.856 92.84 98.7444 93.6177C98.6327 94.3954 99.5221 95.069 100.08 95.069C100.761 95.1558 101.433 95.3053 102.086 95.5155L104.873 96.5165L100.638 95.8467C100.638 95.8467 100.415 96.5165 100.75 96.8514C101.085 97.1863 105.216 98.7455 105.216 98.7455C105.216 98.7455 109.115 100.308 109.681 100.755C110.247 101.202 111.244 102.426 113.138 102.203C115.032 101.979 114.906 98.1836 114.459 97.5138Z" fill="white" stroke="#263238" stroke-miterlimit="10"/>
<path d="M104.873 96.5091L106.324 97.0673" stroke="#263238" stroke-miterlimit="10"/>
<path d="M105.766 90.6035L107.325 91.158" stroke="#263238" stroke-miterlimit="10"/>
<path d="M68.77 135.284V137.346H91.0787V138.845H77.954V139.969H96.1395V138.094H93.1402V136.97H105.513V134.157" fill="#263238"/>
<path d="M68.77 135.284V137.346H91.0787V138.845H77.954V139.969H96.1395V138.094H93.1402V136.97H105.513V134.157" stroke="#263238" stroke-miterlimit="10"/>
<path d="M75.7064 139.221H71.3935V140.159H75.7064V139.221Z" fill="#263238" stroke="#263238" stroke-miterlimit="10"/>
<path d="M74.0132 143.973H71.066V146.131H74.0132V143.973Z" stroke="#263238" stroke-miterlimit="10"/>
<path d="M82.4566 146.329H80.4918V147.508H82.4566V146.329Z" stroke="#263238" stroke-miterlimit="10"/>
<path d="M91.0936 145.741H87.9529V146.723H91.0936V145.741Z" stroke="#263238" stroke-miterlimit="10"/>
<path d="M85.9918 151.241H84.027V152.42H85.9918V151.241Z" stroke="#263238" stroke-miterlimit="10"/>
<path d="M93.6463 148.096H92.2732V148.881H93.6463V148.096Z" stroke="#263238" stroke-miterlimit="10"/>
<path d="M101.305 143.582H94.826V145.547H101.305V143.582Z" stroke="#263238" stroke-miterlimit="10"/>
<path d="M79.3122 150.846H76.1715V152.417H79.3122V150.846Z" stroke="#263238" stroke-miterlimit="10"/>
<path d="M86.9705 156.342H85.4001V157.128H86.9705V156.342Z" stroke="#263238" stroke-miterlimit="10"/>
<path d="M85.0801 141.659H78.7057V142.782H85.0801V141.659Z" fill="#263238" stroke="#263238" stroke-miterlimit="10"/>
<path d="M94.6399 140.907H90.7028V141.469H94.6399V140.907Z" fill="#263238" stroke="#263238" stroke-miterlimit="10"/>
<path d="M101.39 137.908H97.4531V138.659H101.39V137.908Z" fill="#263238" stroke="#263238" stroke-miterlimit="10"/>
<path d="M68.2081 137.908H66.3326V139.783H68.2081V137.908Z" fill="#263238" stroke="#263238" stroke-miterlimit="10"/>
<path d="M105.327 139.221H103.452V141.097H105.327V139.221Z" fill="#263238" stroke="#263238" stroke-miterlimit="10"/>
<path d="M63.9473 155.427L67.7504 167" stroke="#263238" stroke-miterlimit="10"/>
<path d="M62.9017 152.242L63.471 153.976" stroke="#263238" stroke-miterlimit="10"/>
<path d="M51.005 116.019L62.3137 150.452" stroke="#263238" stroke-miterlimit="10"/>
<path d="M74.0765 154.348L75.9371 164.023" stroke="#263238" stroke-miterlimit="10"/>
<path d="M119.096 126.234L105.707 167" stroke="#263238" stroke-miterlimit="10"/>
<path d="M120.361 122.39L119.553 124.846" stroke="#263238" stroke-miterlimit="10"/>
<path d="M122.452 116.019L121.276 119.599" stroke="#263238" stroke-miterlimit="10"/>
<path d="M99.3807 154.348L97.5201 164.023" stroke="#263238" stroke-miterlimit="10"/>
</svg>
