<svg width="185" height="187" viewBox="0 0 185 187" fill="none" xmlns="http://www.w3.org/2000/svg">
<path d="M4.30925 163.97L26.4214 163.858L48.5291 163.823L92.749 163.747L136.969 163.818L159.077 163.858L181.189 163.97L159.077 164.077L136.969 164.117L92.749 164.193L48.5291 164.117L26.4214 164.077L4.30925 163.97Z" fill="#263238"/>
<path d="M27.3751 183.524C38.273 183.524 47.1076 181.828 47.1076 179.736C47.1076 177.644 38.273 175.948 27.3751 175.948C16.4771 175.948 7.64255 177.644 7.64255 179.736C7.64255 181.828 16.4771 183.524 27.3751 183.524Z" fill="#EBEBEB"/>
<path d="M100.757 187C143.34 187 177.86 183.614 177.86 179.438C177.86 175.261 143.34 171.875 100.757 171.875C58.1742 171.875 23.654 175.261 23.654 179.438C23.654 183.614 58.1742 187 100.757 187Z" fill="#EBEBEB"/>
<path d="M121.996 113.475L120.699 121.265L111.898 168.783H110.481L116.88 121.265L117.825 113.475H121.996Z" fill="#C7C7C7"/>
<path d="M117.825 113.475H121.996L120.699 121.265H116.88L117.825 113.475Z" fill="#A6A6A6"/>
<path d="M149.629 168.783H148.212L139.411 121.265L138.114 113.475H142.285L143.23 121.265L149.629 168.783Z" fill="#C7C7C7"/>
<path d="M142.285 113.475L143.23 121.265H139.411L138.114 113.475H142.285Z" fill="#A6A6A6"/>
<path d="M176.024 168.783H174.602L165.806 121.265L164.504 113.475H168.675L169.625 121.265L176.024 168.783Z" fill="#C7C7C7"/>
<path d="M169.625 121.265H165.806L164.504 113.475H168.675L169.625 121.265Z" fill="#A6A6A6"/>
<path d="M173.773 117.134H109.295V110.343H133.431L146.002 39.9242H180.226L173.773 117.134Z" fill="#C7C7C7"/>
<path d="M173.497 110.343H109.295V117.134H173.738L173.497 110.343Z" fill="#DBDBDB"/>
<path d="M173.773 117.134H170.257L176.88 39.9242H180.226L173.773 117.134Z" fill="#DBDBDB"/>
<path d="M174.571 30.0669C173.577 28.9751 169.509 25.9225 165.993 24.2737C164.29 23.4582 159.148 21.6445 158.417 22.9056C157.686 24.1667 159.152 24.8307 159.152 24.8307C159.152 24.8307 156.862 24.3851 156.251 25.722C155.641 27.0589 157.936 28.017 157.936 28.017C157.936 28.017 155.556 27.7362 155.039 29.1088C154.522 30.4813 156.995 31.0606 156.995 31.0606C156.995 31.0606 154.83 30.7041 154.883 32.0143C154.946 33.5918 159.01 33.7968 160.85 34.7995C161.269 35.0223 168.996 39.9732 168.996 39.9732L174.571 30.0669Z" fill="#EB9481"/>
<path d="M157.027 31.074C160.017 31.2344 161.3 31.8271 163.711 33.5339C163.76 33.5651 163.818 33.5027 163.774 33.4626C161.572 31.5776 160.07 30.6061 157.036 30.927C156.88 30.9448 156.884 31.0651 157.027 31.074Z" fill="#263238"/>
<path d="M157.811 27.9502C160.904 28.3958 162.298 29.0152 164.941 30.6239C164.981 30.6239 165.021 30.5838 164.986 30.5571C162.517 28.7746 161.002 27.8343 157.856 27.8031C157.726 27.7942 157.682 27.9279 157.811 27.9502Z" fill="#263238"/>
<path d="M159.406 24.8575C162.37 25.4992 163.929 26.1186 166.3 28.0036C166.358 28.0482 166.429 27.9724 166.376 27.9234C164.148 25.7621 162.205 24.9733 159.438 24.7684C159.246 24.755 159.219 24.8174 159.406 24.8575Z" fill="#263238"/>
<path d="M170.289 41.6488C170.289 41.6488 166.563 41.172 164.972 40.6016C163.381 40.0312 158.257 35.7353 159.117 34.5678C160.235 33.066 163.693 34.9644 165.266 36.1141C165.266 36.1141 167.851 32.6382 170.614 33.4626C173.377 34.287 170.289 41.6488 170.289 41.6488Z" fill="#EB9481"/>
<path d="M159.558 34.2558C161.568 33.623 163.533 35.2674 165.142 36.2701C165.165 36.286 165.192 36.2961 165.22 36.2994C165.248 36.3027 165.276 36.2992 165.302 36.2891C165.329 36.279 165.352 36.2627 165.371 36.2415C165.389 36.2203 165.402 36.195 165.409 36.1676C166.59 34.7817 168.658 33.1729 170.569 33.3601C170.581 33.3601 170.593 33.3554 170.601 33.3471C170.609 33.3387 170.614 33.3274 170.614 33.3155C170.614 33.3037 170.609 33.2924 170.601 33.284C170.593 33.2757 170.581 33.271 170.569 33.271C168.546 32.7942 166.385 34.2113 165.186 35.8111C163.555 34.7549 161.51 33.1952 159.536 34.238C159.54 34.2425 159.549 34.2603 159.558 34.2558Z" fill="#263238"/>
<path d="M138.796 26.2969C140.133 25.7042 145.324 24.1266 149.215 24.0242C151.1 23.9751 156.537 24.4074 156.688 25.8557C156.84 27.304 155.235 27.3174 155.235 27.3174C155.235 27.3174 157.504 27.8432 157.521 29.3093C157.539 30.7755 155.048 30.722 155.048 30.722C155.048 30.722 157.339 31.4305 157.254 32.8966C157.169 34.3628 154.669 33.886 154.669 33.886C154.669 33.886 156.795 34.4385 156.216 35.615C155.516 37.0321 151.715 35.5704 149.629 35.7309C149.157 35.7665 140.088 37.148 140.088 37.148L138.796 26.2969Z" fill="#EB9481"/>
<path d="M154.634 33.9038C151.835 32.8387 150.422 32.8565 147.535 33.4581C147.477 33.4581 147.446 33.3913 147.504 33.3735C150.284 32.5446 152.049 32.2683 154.692 33.7968C154.821 33.8458 154.767 33.9528 154.634 33.9038Z" fill="#263238"/>
<path d="M155.173 30.7264C152.169 29.8708 150.641 29.8753 147.57 30.2808C147.526 30.2808 147.512 30.214 147.57 30.205C150.552 29.5722 152.316 29.3138 155.209 30.5883C155.324 30.6239 155.311 30.7665 155.173 30.7264Z" fill="#263238"/>
<path d="M154.986 27.2683C152.018 26.6489 150.342 26.5821 147.41 27.3396C147.403 27.342 147.396 27.343 147.389 27.3426C147.382 27.3421 147.375 27.3403 147.369 27.3372C147.362 27.3341 147.356 27.3298 147.352 27.3245C147.347 27.3191 147.343 27.3129 147.341 27.3062C147.339 27.2995 147.338 27.2924 147.338 27.2852C147.338 27.2781 147.34 27.2712 147.343 27.2648C147.346 27.2583 147.351 27.2526 147.356 27.2479C147.361 27.2431 147.368 27.2395 147.374 27.2371C150.293 26.1721 152.383 26.2389 154.999 27.1748C155.173 27.2282 155.173 27.2951 154.986 27.2683Z" fill="#263238"/>
<path d="M138.203 38.1729C138.203 38.1729 141.8 39.2513 143.48 39.3761C145.16 39.5009 151.612 37.6649 151.296 36.2567C150.881 34.4296 146.951 34.7594 145.057 35.1738C145.057 35.1738 144.108 30.9448 141.238 30.5705C138.368 30.1961 138.203 38.1729 138.203 38.1729Z" fill="#EB9481"/>
<path d="M151.024 35.7843C149.447 34.3851 146.982 35.0891 145.106 35.3387C145.078 35.3442 145.05 35.3429 145.023 35.3348C144.996 35.3267 144.971 35.3122 144.951 35.2925C144.931 35.2727 144.916 35.2483 144.907 35.2215C144.898 35.1946 144.896 35.166 144.901 35.1382C144.389 33.3958 143.154 31.0829 141.336 30.4769C141.283 30.4769 141.3 30.3788 141.336 30.3922C143.382 30.7754 144.781 32.9457 145.222 34.8975C147.143 34.5945 149.647 34.0063 151.015 35.7531C151.046 35.7799 151.037 35.7932 151.024 35.7843Z" fill="#263238"/>
<path d="M149.045 53.6541C138.849 50.9001 122.793 41.68 124.268 37.2415C125.699 32.9278 131.719 28.4181 139.42 26.0206C140.543 25.6685 140.311 28.0259 140.833 32.1346C141.087 34.0776 144.496 39.3137 142.851 39.3003C141.992 39.3265 141.145 39.5155 140.356 39.8574C139.754 40.0891 146.987 44.9197 151.029 47.95C156.474 52.0142 153.399 54.8261 149.045 53.6541Z" fill="#EB9481"/>
<path d="M134.326 50.5258L145.627 43.4492C145.627 43.4492 152.414 47.5757 154.094 49.8618C155.774 52.1479 154.451 54.6211 149.192 54.6256C143.145 54.63 134.326 50.5258 134.326 50.5258Z" fill="#FFC727"/>
<g opacity="0.1">
<path opacity="0.1" d="M148.52 45.3119H142.66L143.702 44.6613H147.544L148.52 45.3119Z" fill="black"/>
<path opacity="0.1" d="M151.501 47.4509H139.237L140.275 46.8003H150.641L151.501 47.4509Z" fill="black"/>
<path opacity="0.1" d="M153.867 49.5855H135.828L136.866 48.9349H153.248C153.484 49.1621 153.693 49.3805 153.867 49.5855Z" fill="black"/>
<path opacity="0.1" d="M154.772 51.7245H137.178C136.559 51.4839 136.015 51.2789 135.574 51.0739H154.692C154.75 51.2856 154.777 51.5049 154.772 51.7245Z" fill="black"/>
<path opacity="0.1" d="M154.13 53.2129C153.871 53.4759 153.569 53.6942 153.239 53.8591H143.774C142.98 53.663 142.196 53.4447 141.434 53.2129H154.13Z" fill="black"/>
</g>
<path d="M137.312 51.3948C141.862 48.614 146.367 45.4768 147.116 44.8663C147.147 44.8395 147.116 44.7905 147.071 44.8083C143.676 46.7862 140.402 48.9663 137.267 51.3368C137.26 51.3427 137.255 51.3515 137.253 51.3611C137.252 51.3707 137.255 51.3804 137.261 51.3881C137.267 51.3958 137.275 51.4008 137.285 51.402C137.295 51.4033 137.304 51.4007 137.312 51.3948Z" fill="#263238"/>
<path d="M149.184 54.6256C146.963 54.5549 144.761 54.1969 142.633 53.5605C145.587 51.5775 149.099 49.2379 151.67 47.5846C152.566 48.2431 153.378 49.0077 154.09 49.8618C155.766 52.1434 154.447 54.6211 149.184 54.6256Z" fill="#263238"/>
<path d="M111.791 177.838C113.047 177.958 147.187 169.817 148.261 168.72C148.395 168.595 147.722 165.494 146.737 161.26V161.176C146.118 158.502 136.176 136.8 136.176 136.8L114.046 142.967L124.099 163.096C124.099 163.096 119.932 166.104 116.367 168.979C114.162 170.735 112.259 172.308 111.858 172.82C110.784 174.144 110.543 177.726 111.791 177.838Z" fill="#EB9481"/>
<path d="M111.795 177.833C113.043 177.954 147.183 169.812 148.266 168.72C148.395 168.595 147.722 165.494 146.737 161.26V161.18C146.514 160.182 144.981 156.532 143.172 152.357C139.531 153.333 126.474 156.862 121.733 158.328L124.117 163.101C124.117 163.101 119.932 166.109 116.367 168.979C114.162 170.73 112.259 172.308 111.858 172.816C110.784 174.144 110.539 177.731 111.795 177.833Z" fill="#EBEBEB"/>
<path d="M111.679 177.998C112.972 178.11 147.134 169.888 148.221 168.751C148.64 168.306 147.887 162.932 146.015 157.219L123.997 162.566C123.997 162.566 112.753 171.479 111.675 172.842C110.596 174.206 110.391 177.891 111.679 177.998Z" fill="#FFC727"/>
<path d="M111.84 176.514C117.535 174.995 140.641 169.384 146.381 168.337C146.43 168.337 146.439 168.359 146.381 168.373C140.775 169.999 117.624 175.405 111.853 176.608C111.742 176.635 111.719 176.554 111.84 176.514Z" fill="#263238"/>
<path d="M113.591 171.069C114.224 170.898 114.886 170.861 115.534 170.959C116.182 171.057 116.803 171.289 117.357 171.639C118.356 172.264 119.076 173.248 119.371 174.389C119.371 174.424 119.317 174.442 119.304 174.389C118.836 173.301 118.028 172.395 117.001 171.806C115.974 171.218 114.784 170.977 113.609 171.122C113.604 171.12 113.599 171.117 113.595 171.114C113.592 171.11 113.589 171.105 113.587 171.1C113.585 171.095 113.585 171.089 113.585 171.084C113.586 171.078 113.588 171.073 113.591 171.069Z" fill="#263238"/>
<path d="M122.357 163.551C124.643 162.967 127.495 163.137 129.371 164.669C129.442 164.732 129.371 164.83 129.282 164.812C127.023 164.245 124.711 163.921 122.383 163.845C122.349 163.84 122.318 163.824 122.294 163.8C122.271 163.775 122.256 163.743 122.253 163.709C122.25 163.675 122.258 163.64 122.277 163.612C122.296 163.583 122.324 163.562 122.357 163.551Z" fill="#263238"/>
<path d="M120.752 164.669C123.038 164.086 125.89 164.255 127.767 165.788C127.838 165.846 127.767 165.948 127.677 165.931C125.42 165.365 123.109 165.043 120.784 164.968C120.764 164.97 120.744 164.968 120.725 164.963C120.706 164.957 120.689 164.948 120.673 164.935C120.658 164.923 120.645 164.908 120.636 164.89C120.627 164.873 120.621 164.854 120.619 164.834C120.617 164.815 120.618 164.795 120.624 164.776C120.63 164.757 120.639 164.74 120.651 164.724C120.664 164.709 120.679 164.696 120.696 164.687C120.714 164.677 120.733 164.672 120.752 164.669Z" fill="#263238"/>
<path d="M119.148 165.784C121.434 165.2 124.286 165.369 126.162 166.902C126.234 166.96 126.162 167.063 126.073 167.045C123.817 166.476 121.505 166.152 119.179 166.078C119.145 166.074 119.113 166.058 119.089 166.034C119.065 166.009 119.049 165.977 119.046 165.943C119.042 165.909 119.05 165.874 119.069 165.845C119.088 165.816 119.115 165.795 119.148 165.784Z" fill="#263238"/>
<path d="M117.548 166.902C119.83 166.318 122.682 166.488 124.558 168.016C124.629 168.079 124.558 168.181 124.469 168.163C122.212 167.597 119.901 167.272 117.575 167.196C117.536 167.2 117.497 167.188 117.467 167.163C117.437 167.138 117.418 167.102 117.415 167.063C117.411 167.024 117.423 166.985 117.448 166.955C117.473 166.925 117.509 166.906 117.548 166.902Z" fill="#263238"/>
<path d="M143.613 163.248C146.189 162.637 147.143 166.635 144.567 167.259C141.991 167.882 141.037 163.858 143.613 163.248Z" fill="#263238"/>
<path d="M119.398 161.35C121.02 162.646 123.145 163.199 125.048 163.934C125.092 163.947 125.138 163.949 125.183 163.94C125.227 163.932 125.269 163.913 125.305 163.885C125.341 163.858 125.37 163.822 125.39 163.781C125.41 163.74 125.419 163.694 125.418 163.649C125.428 163.649 125.437 163.647 125.446 163.642C125.454 163.638 125.461 163.631 125.466 163.623C125.472 163.615 125.475 163.606 125.476 163.597C125.477 163.587 125.475 163.578 125.472 163.569C124.798 161.51 123.593 159.665 121.978 158.221C121.024 157.392 119.335 156.804 118.413 158.047C117.531 159.206 118.453 160.592 119.398 161.35ZM118.836 159.473C118.462 156.924 121.176 158.301 121.853 158.939C122.287 159.357 122.692 159.803 123.065 160.276C123.819 161.268 124.522 162.297 125.173 163.359C124.26 162.94 123.319 162.602 122.392 162.219C121.269 161.768 119.041 160.882 118.836 159.473Z" fill="#263238"/>
<path d="M133.261 160.146C132.722 158.694 130.935 158.778 129.785 159.304C127.826 160.237 126.148 161.669 124.919 163.457C124.914 163.465 124.91 163.474 124.909 163.484C124.908 163.493 124.909 163.503 124.912 163.512C124.915 163.521 124.92 163.529 124.926 163.536C124.933 163.543 124.941 163.548 124.95 163.551C124.936 163.594 124.933 163.64 124.94 163.685C124.947 163.73 124.964 163.772 124.991 163.809C125.017 163.846 125.052 163.876 125.092 163.897C125.132 163.918 125.177 163.929 125.222 163.93C127.254 163.76 129.451 163.832 131.372 163.038C132.495 162.584 133.774 161.519 133.261 160.146ZM128.252 163.043C127.254 163.15 126.256 163.208 125.262 163.35C126.187 162.515 127.154 161.726 128.159 160.989C128.648 160.634 129.164 160.317 129.701 160.039C130.53 159.62 133.52 159.068 132.441 161.407C131.849 162.695 129.442 162.914 128.252 163.043Z" fill="#263238"/>
<path d="M122.125 160.476L145.623 154.184C145.623 154.184 124.973 111.363 126.639 109.006C127.473 107.829 149.496 106.836 156.327 100.681C165.2 92.6913 158.742 81.0737 158.742 81.0737H134.117C134.117 81.0737 134.563 86.2118 133.627 87.014C133.012 87.5487 103.769 90.8865 100.842 100.878C97.2544 113.128 122.125 160.476 122.125 160.476Z" fill="#263238"/>
<path d="M121.715 157.031C122.338 156.742 122.982 156.498 123.64 156.301C124.322 156.064 125.008 155.828 125.69 155.601C127.027 155.155 128.399 154.736 129.763 154.344C132.513 153.551 135.262 152.776 138.034 152.054C139.478 151.679 142.566 150.864 142.762 150.891C142.851 150.891 142.873 151.06 142.793 151.091C140.119 152.063 137.401 152.896 134.687 153.743C131.973 154.589 129.259 155.414 126.51 156.122C125.748 156.318 124.981 156.497 124.219 156.684C123.422 156.919 122.609 157.098 121.786 157.219C121.715 157.223 121.626 157.071 121.715 157.031Z" fill="#455A64"/>
<path d="M122.37 107.09C122.856 106.644 123.596 106.582 124.21 106.457L134.812 104.362C138.119 103.707 141.447 103.11 144.736 102.37C147.459 101.76 150.222 100.967 152.548 99.4069C154.824 97.8745 156.474 95.5749 157.196 92.9275C157.949 90.2938 157.922 87.4863 157.584 84.7903C157.499 84.1307 157.356 83.4757 157.214 82.825C157.214 82.776 157.285 82.7582 157.294 82.825C158.346 87.8428 158.6 93.6984 154.941 97.8294C153.159 99.8437 150.659 101.074 148.101 101.894C145.209 102.825 142.178 103.315 139.188 103.903L128.587 105.998C126.884 106.332 125.155 106.608 123.471 107.014C123.129 107.068 122.81 107.223 122.557 107.459C122.44 107.641 122.368 107.849 122.349 108.065C122.329 108.281 122.363 108.498 122.446 108.698C122.642 109.527 122.891 110.352 123.154 111.163C125.293 117.731 140.275 148.832 140.681 149.549C140.726 149.625 140.605 149.687 140.561 149.612C137.129 143.899 125.962 119.888 123.627 113.685C123.013 112.097 122.503 110.472 122.098 108.819C121.956 108.222 121.866 107.553 122.37 107.09Z" fill="#455A64"/>
<path d="M51.6574 178.693C52.825 179.161 87.8738 180.953 89.2196 180.191C89.38 180.111 89.6073 176.942 89.8479 172.615L90.0262 168.524C90.0886 167.143 108.132 147.031 108.132 147.031L82.9763 145.512L67.5932 168.012C67.5932 168.012 62.7492 169.727 58.5201 171.465C55.8998 172.544 53.636 173.502 53.0879 173.881C51.751 174.865 50.4854 178.239 51.6574 178.693Z" fill="#EB9481"/>
<path d="M94.6251 162.477C92.0048 165.596 90.0485 168.061 90.0307 168.515L89.848 172.606C89.6073 176.942 89.3801 180.111 89.2196 180.182C87.8827 180.944 52.825 179.152 51.653 178.689C50.481 178.226 51.7243 174.857 53.1058 173.872C53.6361 173.497 55.9043 172.535 58.5113 171.452C62.7358 169.718 67.5798 168.003 67.5798 168.003L72.0361 161.506L94.6251 162.477Z" fill="#EBEBEB"/>
<path d="M51.5015 178.818C52.7091 179.291 87.8069 180.993 89.1884 180.213C89.7142 179.919 90.5253 174.536 90.3114 168.529L67.6823 167.455C67.6823 167.455 54.3891 172.838 52.9765 173.854C51.5638 174.87 50.2983 178.337 51.5015 178.818Z" fill="#FFC727"/>
<path d="M52.0763 177.446C57.9676 177.584 81.7107 178.711 87.5218 179.3C87.5708 179.3 87.5708 179.335 87.5218 179.335C81.6795 179.335 57.9453 177.998 52.0719 177.553C51.9471 177.526 51.9516 177.446 52.0763 177.446Z" fill="#263238"/>
<path d="M55.2849 172.704C55.9406 172.718 56.5863 172.868 57.1809 173.145C57.7755 173.422 58.3059 173.82 58.7385 174.313C59.5231 175.192 59.9382 176.34 59.8971 177.517C59.8971 177.553 59.8303 177.548 59.8258 177.517C59.6827 176.343 59.1628 175.246 58.3441 174.392C57.5255 173.538 56.4521 172.973 55.2849 172.78C55.2748 172.78 55.2652 172.776 55.2581 172.769C55.251 172.762 55.247 172.752 55.247 172.742C55.247 172.732 55.251 172.722 55.2581 172.715C55.2652 172.708 55.2748 172.704 55.2849 172.704Z" fill="#263238"/>
<path d="M65.8106 167.954C68.1636 168.034 70.8552 169.001 72.2233 170.997C72.2767 171.073 72.1653 171.149 72.0985 171.109C70.0914 169.93 67.9641 168.97 65.7527 168.243C65.7214 168.229 65.6958 168.205 65.6801 168.175C65.6644 168.144 65.6595 168.109 65.6662 168.076C65.673 168.042 65.6909 168.012 65.7171 167.989C65.7434 167.967 65.7763 167.955 65.8106 167.954Z" fill="#263238"/>
<path d="M63.9568 168.573C66.3142 168.658 69.0014 169.62 70.3739 171.617C70.4229 171.693 70.316 171.768 70.2447 171.728C68.2392 170.55 66.1133 169.589 63.9034 168.863C63.865 168.856 63.8309 168.834 63.8088 168.802C63.7866 168.769 63.7782 168.73 63.7853 168.691C63.7924 168.653 63.8144 168.619 63.8466 168.597C63.8788 168.575 63.9184 168.566 63.9568 168.573Z" fill="#263238"/>
<path d="M62.103 169.197C64.4604 169.277 67.152 170.24 68.5201 172.236C68.5736 172.316 68.4622 172.388 68.3953 172.352C66.3893 171.17 64.2618 170.208 62.0496 169.482C62.0168 169.47 61.9894 169.447 61.9721 169.417C61.9549 169.387 61.9489 169.351 61.9553 169.317C61.9618 169.283 61.9801 169.252 62.0072 169.23C62.0342 169.208 62.0682 169.196 62.103 169.197Z" fill="#263238"/>
<path d="M60.2492 169.817C62.6066 169.897 65.2982 170.859 66.6663 172.86C66.7197 172.936 66.6083 173.012 66.5415 172.972C64.5416 171.793 62.4218 170.831 60.218 170.102C60.1864 170.091 60.1595 170.07 60.1416 170.041C60.1237 170.013 60.1159 169.98 60.1196 169.947C60.1232 169.913 60.138 169.882 60.1616 169.859C60.1851 169.835 60.216 169.82 60.2492 169.817Z" fill="#263238"/>
<path d="M86.2963 173.636C88.9389 173.769 88.7294 177.878 86.0824 177.74C83.4353 177.602 83.6492 173.497 86.2963 173.636Z" fill="#263238"/>
<path d="M63.587 165.008C64.7813 166.71 66.6663 167.833 68.2884 169.077C68.327 169.103 68.3715 169.12 68.418 169.126C68.4646 169.131 68.5118 169.126 68.5556 169.109C68.5994 169.092 68.6386 169.065 68.6696 169.03C68.7007 168.995 68.7228 168.953 68.734 168.907C68.7432 168.909 68.7528 168.909 68.762 168.907C68.7712 168.905 68.7797 168.901 68.787 168.895C68.7943 168.889 68.8002 168.881 68.8041 168.872C68.808 168.864 68.81 168.854 68.8097 168.845C68.734 166.682 68.0917 164.577 66.947 162.74C66.2652 161.679 64.808 160.637 63.5691 161.568C62.3303 162.499 62.8918 164.014 63.587 165.008ZM63.587 163.052C63.9479 160.503 66.1627 162.579 66.6351 163.386C66.9339 163.909 67.196 164.453 67.4194 165.013C67.8653 166.181 68.252 167.371 68.578 168.578C67.8204 167.918 67.0094 167.33 66.2296 166.702C65.2848 165.94 63.3775 164.456 63.5736 163.052H63.587Z" fill="#263238"/>
<path d="M77.2322 167.749C77.1208 166.202 75.3828 165.784 74.1128 165.966C71.971 166.313 69.9579 167.217 68.275 168.587C68.2676 168.592 68.2616 168.6 68.2575 168.608C68.2534 168.617 68.2512 168.626 68.2512 168.636C68.2512 168.645 68.2534 168.654 68.2575 168.663C68.2616 168.671 68.2676 168.679 68.275 168.685C68.2473 168.722 68.2291 168.766 68.2221 168.812C68.2151 168.858 68.2195 168.905 68.2349 168.949C68.2502 168.993 68.2762 169.032 68.3104 169.064C68.3445 169.096 68.386 169.118 68.431 169.13C70.4319 169.545 72.5174 170.231 74.5807 170.021C75.8151 169.87 77.3347 169.21 77.2322 167.749ZM71.6128 169.121C70.6235 168.943 69.6475 168.716 68.6538 168.578C69.7768 168.034 70.9265 167.548 72.0985 167.12C72.6676 166.922 73.2498 166.762 73.8409 166.644C74.7589 166.474 77.7848 166.786 76.0914 168.729C75.16 169.799 72.7892 169.335 71.6128 169.121Z" fill="#263238"/>
<path d="M66.5192 163.297L94.6251 166.751C94.6251 166.751 122.419 133.498 124.665 131.283C131.626 124.42 156.581 112.566 164.028 101.559C170.712 91.6619 163.943 81.0871 163.943 81.0871H136.501C137.204 84.0106 138.14 86.8732 139.3 89.6476C139.3 89.6476 116.506 106.809 104.358 119.059C96.5279 126.96 66.5192 163.297 66.5192 163.297Z" fill="#263238"/>
<path d="M134.42 87.874C135.222 88.0282 136.008 88.2549 136.768 88.5514C137.562 88.8277 138.346 89.1485 139.117 89.4917C140.627 90.1863 142.098 90.9628 143.524 91.8179C143.569 91.8446 143.524 91.907 143.484 91.8847C141.978 91.1583 140.427 90.5122 138.872 89.8927L136.644 89.0015C135.872 88.7337 135.115 88.4258 134.375 88.079C134.264 88.0523 134.313 87.874 134.42 87.874Z" fill="#455A64"/>
<path d="M135.864 81.0782C136.216 82.3215 136.528 83.5737 136.92 84.8036C137.103 85.3651 137.281 85.94 137.513 86.4881C137.709 86.9338 137.998 87.4685 138.542 87.5576C139.166 87.6601 139.331 87.112 139.264 86.6129C139.17 86.0395 139.046 85.4713 138.894 84.9106C138.747 84.2644 138.003 81.1272 138.003 81.1094C138.003 81.0915 138.003 81.0514 138.034 81.0158C138.041 81.0092 138.051 81.0056 138.061 81.0056C138.071 81.0056 138.08 81.0092 138.087 81.0158C138.208 81.0782 138.979 83.489 139.139 84.0862C139.3 84.6833 139.473 85.2849 139.638 85.8687C139.808 86.3097 139.865 86.7861 139.803 87.2546C139.752 87.4775 139.631 87.6782 139.458 87.8274C139.285 87.9766 139.069 88.0663 138.841 88.0835C138.863 88.1236 138.89 88.1592 138.912 88.2038C138.97 88.3241 139.014 88.4534 139.063 88.5781C139.112 88.7029 139.161 88.8366 139.206 88.9658C139.224 89.0287 139.237 89.0928 139.246 89.1574C139.246 89.2332 139.246 89.3045 139.246 89.3758C139.256 89.4012 139.256 89.4296 139.245 89.4546C139.234 89.4797 139.214 89.4994 139.188 89.5095C139.163 89.5195 139.134 89.5191 139.109 89.5082C139.084 89.4974 139.065 89.477 139.054 89.4516C139.019 89.3892 138.97 89.3402 138.93 89.2778C138.891 89.2129 138.86 89.1442 138.836 89.0728C138.792 88.948 138.751 88.8232 138.716 88.6985C138.68 88.5737 138.636 88.4444 138.609 88.3197C138.594 88.2431 138.584 88.1657 138.578 88.0879C138.315 88.072 138.062 87.9841 137.847 87.8339C137.486 87.5425 137.216 87.1546 137.067 86.7154C136.862 86.1985 136.702 85.6637 136.537 85.1334C136.115 83.826 135.809 82.4839 135.623 81.1227C135.617 81.0908 135.624 81.0579 135.643 81.0311C135.661 81.0044 135.689 80.986 135.721 80.9801C135.753 80.9742 135.786 80.9812 135.813 80.9996C135.839 81.018 135.858 81.0463 135.864 81.0782Z" fill="#455A64"/>
<path d="M152.258 83.6584C152.392 84.2733 152.481 84.8972 152.642 85.5122C152.802 86.1272 152.98 86.7065 153.199 87.2947C153.391 87.8612 153.665 88.397 154.01 88.8856C154.366 89.3459 154.788 89.7513 155.262 90.0888C156.166 90.7637 157.175 91.286 158.248 91.6352C158.787 91.8192 159.338 91.968 159.897 92.0808C160.186 92.1343 160.476 92.1788 160.788 92.2056C161.029 92.2076 161.268 92.256 161.492 92.3482C161.513 92.3608 161.531 92.3787 161.543 92.4002C161.555 92.4217 161.562 92.446 161.562 92.4707C161.562 92.4954 161.555 92.5197 161.543 92.5412C161.531 92.5627 161.513 92.5806 161.492 92.5933C161.074 92.7314 160.627 92.759 160.195 92.6735C158.768 92.5717 157.382 92.1498 156.14 91.4391C155.303 90.9961 154.549 90.411 153.912 89.71C153.306 88.9718 152.877 88.1043 152.659 87.1744C152.338 86.0421 152.175 84.871 152.174 83.694C152.177 83.6859 152.181 83.6785 152.187 83.6722C152.193 83.6659 152.2 83.661 152.208 83.6576C152.216 83.6543 152.225 83.6526 152.233 83.6527C152.242 83.6529 152.251 83.6548 152.258 83.6584Z" fill="#455A64"/>
<path d="M72.6956 159.175C73.4543 159.155 74.2135 159.185 74.9684 159.264C75.766 159.317 76.5592 159.366 77.3525 159.429C78.9166 159.558 80.4719 159.701 82.0316 159.874C85.151 160.231 88.3061 160.601 91.4299 161.033C93.0609 161.26 96.5591 161.728 96.7463 161.831C96.7651 161.843 96.7795 161.861 96.7875 161.882C96.7954 161.903 96.7965 161.926 96.7906 161.948C96.7846 161.97 96.772 161.989 96.7544 162.003C96.7369 162.018 96.7153 162.026 96.6928 162.027C93.5734 161.862 90.454 161.559 87.3346 161.265C84.2152 160.971 81.0958 160.663 77.9764 160.231C77.1207 160.111 76.2651 159.968 75.4051 159.839C74.4926 159.743 73.5874 159.587 72.6956 159.371C72.611 159.335 72.5931 159.175 72.6956 159.175Z" fill="#455A64"/>
<path d="M133.199 124.861C131.742 125.797 130.333 126.804 128.921 127.802C127.572 128.681 126.277 129.639 125.044 130.672C124.436 131.245 123.863 131.853 123.328 132.495L121.653 134.433C120.534 135.721 119.424 137.023 118.324 138.328C117.7 139.062 117.08 139.805 116.465 140.556C115.824 141.327 115.227 142.138 114.58 142.909C114.573 142.919 114.569 142.931 114.57 142.943C114.571 142.956 114.576 142.967 114.585 142.976C114.594 142.984 114.606 142.989 114.618 142.989C114.631 142.989 114.643 142.984 114.652 142.976C115.793 141.688 117.005 140.454 118.145 139.162C119.286 137.869 120.427 136.577 121.555 135.267C122.682 133.957 123.689 132.696 124.848 131.497C126.033 130.376 127.319 129.368 128.689 128.484C130.249 127.37 131.808 126.256 133.337 125.093C133.466 124.995 133.346 124.781 133.199 124.861Z" fill="#455A64"/>
<path d="M138.858 89.8393C134.17 93.128 129.322 96.8045 124.915 100.454C120.507 104.104 116.145 107.829 111.884 111.662C110.696 112.731 109.508 113.816 108.319 114.915C107.134 116.02 105.975 117.406 104.79 118.511C104.728 118.569 104.826 118.663 104.888 118.605C107.031 116.684 109.246 114.594 111.416 112.705C113.587 110.815 115.739 108.961 117.909 107.103C122.271 103.369 126.687 99.6981 131.158 96.0915C133.636 94.0817 136.505 92.0496 138.956 89.9774C139.05 89.9106 138.939 89.7769 138.858 89.8393Z" fill="#455A64"/>
<path d="M163.11 84.309C162.842 83.5202 162.557 82.7359 162.263 81.9516C162.263 81.9071 162.174 81.9516 162.192 81.9739C163.297 85.2359 164.42 88.5781 164.544 92.0541C164.622 93.7186 164.38 95.3825 163.831 96.956C163.259 98.4596 162.409 99.8427 161.327 101.034C159.143 103.498 156.367 105.441 153.751 107.406C150.899 109.542 148.001 111.622 145.057 113.645C142.125 115.659 139.117 117.58 136.078 119.438C133.038 121.296 129.964 122.972 126.942 124.786C125.477 125.651 124.106 126.667 122.851 127.816C121.586 129.001 120.454 130.316 119.313 131.622C116.871 134.411 114.453 137.222 112.058 140.053C107.248 145.698 102.535 151.427 97.9183 157.241C97.3539 157.948 96.7894 158.659 96.2249 159.375C96.1982 159.411 96.2249 159.46 96.274 159.424C101.027 153.604 105.833 147.826 110.69 142.089C113.102 139.237 115.528 136.4 117.967 133.578C120.307 130.877 122.557 128.012 125.543 126.002C126.982 125.022 128.52 124.188 130.03 123.328C131.614 122.437 133.183 121.519 134.736 120.574C137.835 118.712 140.883 116.781 143.881 114.781C146.862 112.785 149.803 110.739 152.691 108.605C154.129 107.541 155.558 106.457 156.978 105.352C158.206 104.423 159.383 103.427 160.503 102.37C161.61 101.323 162.562 100.123 163.328 98.8054C164.099 97.412 164.576 95.8758 164.732 94.2911C165.07 90.891 164.184 87.4908 163.11 84.309Z" fill="#455A64"/>
<path d="M132.062 85.9088C132.553 86.8446 166.822 94.7679 167.062 94.612C167.659 94.1663 169.625 62.7851 160.583 48.7477C158.992 46.2745 155.124 45.8155 153.132 46.3324C152.138 46.5909 148.052 50.0712 146.18 53.5516C144.308 57.032 131.759 85.3117 132.062 85.9088Z" fill="#FFC727"/>
<g opacity="0.1">
<path opacity="0.1" d="M159.313 47.4509H151.421C151.733 47.1925 152.022 46.9741 152.276 46.8003H158.136C158.553 46.97 158.948 47.1884 159.313 47.4509Z" fill="black"/>
<path opacity="0.1" d="M161.095 49.5855H149.148C149.357 49.3582 149.571 49.1399 149.781 48.9349H160.699C160.837 49.1488 160.966 49.3627 161.095 49.5855Z" fill="black"/>
<path opacity="0.1" d="M162.227 51.7245H147.352C147.512 51.5017 147.682 51.2789 147.851 51.0739H161.906C162.018 51.2878 162.12 51.5062 162.227 51.7245Z" fill="black"/>
<path opacity="0.1" d="M163.159 53.8591H146.024L146.18 53.5516C146.242 53.4402 146.305 53.3243 146.372 53.2129H162.887C162.976 53.4268 163.065 53.6407 163.159 53.8591Z" fill="black"/>
<path opacity="0.1" d="M163.925 55.9981H144.986C145.097 55.7664 145.2 55.5525 145.293 55.3475H163.702C163.778 55.5614 163.854 55.7887 163.925 55.9981Z" fill="black"/>
<path opacity="0.1" d="M164.585 58.1371H143.996L144.295 57.4865H164.393C164.46 57.7004 164.522 57.9188 164.585 58.1371Z" fill="black"/>
<path opacity="0.1" d="M165.146 60.2717H143.021C143.119 60.0489 143.217 59.8261 143.315 59.6211H164.986L165.146 60.2717Z" fill="black"/>
<path opacity="0.1" d="M165.632 62.4107H142.049C142.147 62.1924 142.25 61.9651 142.343 61.7601H165.489C165.538 61.974 165.587 62.1924 165.632 62.4107Z" fill="black"/>
<path opacity="0.1" d="M166.042 64.5497H141.087C141.185 64.3314 141.278 64.1041 141.376 63.8991H165.921C165.966 64.113 166.006 64.3314 166.042 64.5497Z" fill="black"/>
<path opacity="0.1" d="M166.403 66.6843H140.137C140.235 66.466 140.329 66.2387 140.427 66.0337H166.278L166.403 66.6843Z" fill="black"/>
<path opacity="0.1" d="M166.724 68.8233H139.188C139.282 68.6094 139.38 68.3777 139.473 68.1727H166.617C166.648 68.3911 166.675 68.605 166.724 68.8233Z" fill="black"/>
<path opacity="0.1" d="M166.96 70.9401H138.248C138.341 70.7217 138.435 70.4944 138.533 70.2895H166.884C166.911 70.5256 166.933 70.7395 166.96 70.9401Z" fill="black"/>
<path opacity="0.1" d="M167.169 73.0969H137.312C137.401 72.883 137.499 72.6513 137.593 72.4463H167.107C167.129 72.6647 167.169 72.8786 167.169 73.0969Z" fill="black"/>
<path opacity="0.1" d="M167.339 75.236H136.381C136.47 75.0221 136.568 74.7903 136.661 74.5853H167.29C167.307 74.8037 167.325 75.0176 167.339 75.236Z" fill="black"/>
<path opacity="0.1" d="M167.472 77.3705H135.458L135.734 76.7199H167.437C167.45 76.9383 167.459 77.1789 167.472 77.3705Z" fill="black"/>
<path opacity="0.1" d="M167.566 79.5096H134.545L134.821 78.8589H167.544C167.553 79.0773 167.561 79.2957 167.566 79.5096Z" fill="black"/>
<path opacity="0.1" d="M167.615 81.6352H133.649L133.921 80.9846H167.615V81.6352Z" fill="black"/>
<path opacity="0.1" d="M167.659 83.7831H132.784C132.86 83.5782 132.949 83.3598 133.038 83.1325H167.655C167.659 83.3509 167.659 83.5692 167.659 83.7831Z" fill="black"/>
<path opacity="0.1" d="M167.659 85.2715C167.659 85.4899 167.659 85.7172 167.659 85.9222H132.071C132.085 85.7016 132.139 85.4856 132.232 85.2849L167.659 85.2715Z" fill="black"/>
<path opacity="0.1" d="M167.615 87.4284C167.615 87.6512 167.615 87.874 167.615 88.079H139.095C138.203 87.8518 137.397 87.6334 136.644 87.4284H167.615Z" fill="black"/>
<path opacity="0.1" d="M167.561 89.5452C167.561 89.768 167.561 89.9908 167.535 90.1958H147.695C146.804 89.9774 145.913 89.7501 145.021 89.5452H167.561Z" fill="black"/>
<path opacity="0.1" d="M167.446 91.6797C167.446 91.907 167.414 92.1254 167.397 92.3303H156.701L153.916 91.6797H167.446Z" fill="black"/>
<path opacity="0.1" d="M167.241 93.8187C167.219 94.0383 167.18 94.2558 167.125 94.4693H166.233C165.565 94.3357 164.527 94.1084 163.221 93.8187H167.241Z" fill="black"/>
</g>
<path d="M159.036 55.9669C165.2 55.4678 175.413 53.2575 180.97 50.1737C184.304 48.311 184.807 45.811 184.981 44.0641C185.427 39.5454 177.896 32.2104 173.938 29.4742C173.417 29.1132 172.659 31.7692 170.262 34.7505C168.234 37.2772 164.411 40.1292 164.986 40.615C165.832 41.328 169.758 44.0329 169.571 44.3582C169.25 44.9153 165.61 46.4616 160.155 49.1042C152.838 52.6336 154.692 56.3234 159.036 55.9669Z" fill="#EB9481"/>
<path d="M175.249 54.2245L164.678 46.0962C164.678 46.0962 157.526 49.5543 155.641 51.6666C153.756 53.7789 154.83 56.368 160.07 56.8805C166.077 57.4642 175.249 54.2245 175.249 54.2245Z" fill="#FFC727"/>
<path d="M172.588 54.4785C168.577 50.9447 164.277 47.5579 163.47 47.0142C163.435 46.9919 163.399 47.0454 163.426 47.0721C166.314 49.7414 169.36 52.2341 172.548 54.5364C172.579 54.5587 172.619 54.5052 172.588 54.4785Z" fill="#263238"/>
<path d="M166.184 56.056C165.387 56.1922 164.627 56.4959 163.956 56.9473C163.637 57.1851 163.351 57.4638 163.105 57.7762C162.978 57.926 162.864 58.0871 162.766 58.2575C162.667 58.4189 162.582 58.5889 162.512 58.7655C162.512 58.8056 162.557 58.8279 162.579 58.8011C162.708 58.6719 162.815 58.5204 162.949 58.3911C163.083 58.2619 163.203 58.1238 163.341 57.999C163.622 57.7344 163.919 57.4888 164.232 57.2637C164.822 56.7799 165.494 56.4056 166.216 56.1585C166.222 56.1565 166.229 56.1531 166.234 56.1487C166.239 56.1442 166.244 56.1387 166.247 56.1325C166.251 56.1263 166.253 56.1195 166.253 56.1125C166.254 56.1055 166.253 56.0984 166.251 56.0917C166.249 56.085 166.246 56.0787 166.241 56.0733C166.237 56.0678 166.231 56.0633 166.225 56.06C166.219 56.0567 166.212 56.0547 166.205 56.054C166.198 56.0533 166.191 56.054 166.184 56.056Z" fill="#263238"/>
<g opacity="0.1">
<path opacity="0.1" d="M166.438 47.4509H162.036C162.481 47.2103 162.927 47.0053 163.274 46.8003H165.592L166.438 47.4509Z" fill="black"/>
<path opacity="0.1" d="M169.215 49.5855H158.346C158.684 49.3671 159.041 49.1399 159.397 48.9349H168.368L169.215 49.5855Z" fill="black"/>
<path opacity="0.1" d="M171.995 51.7245H155.583L155.632 51.6666C155.826 51.455 156.035 51.257 156.256 51.0739H171.144L171.995 51.7245Z" fill="black"/>
<path opacity="0.1" d="M174.772 53.8591H154.79C154.765 53.6436 154.774 53.4256 154.816 53.2129H173.934L174.772 53.8591Z" fill="black"/>
<path opacity="0.1" d="M171.563 55.343C170.77 55.5569 169.883 55.7887 168.943 55.9937H156.581C156.228 55.8207 155.9 55.602 155.605 55.343H171.563Z" fill="black"/>
</g>
<path d="M152.214 52.13C153.996 52.8698 157.602 50.5882 159.228 48.5204C159.335 48.3778 159.732 42.0321 159.941 40.7798C159.981 40.5258 151.782 41.377 151.782 41.377C151.968 43.014 151.954 44.6678 151.737 46.3012C151.706 46.4839 150.507 51.4126 152.214 52.13Z" fill="#EB9481"/>
<path d="M151.599 46.8048C151.599 46.8315 151.599 46.8582 151.572 46.8894H151.612C151.861 46.9681 152.116 47.0247 152.374 47.0588C156.652 47.6737 158.961 42.6738 159.696 40.7264C158.359 40.6863 151.782 41.3681 151.782 41.3681C151.968 43.0051 151.954 44.6589 151.737 46.2923C151.737 46.3547 151.715 46.4126 151.706 46.4661C151.681 46.5821 151.645 46.6954 151.599 46.8048Z" fill="#263238"/>
<path d="M150.708 26.7648C150.708 26.7648 148.034 27.8432 147.517 30.5437C147 33.2442 147.588 36.0874 147.82 36.23C148.052 36.3726 150.708 26.7648 150.708 26.7648Z" fill="#263238"/>
<path d="M161.015 30.8022C161.866 33.623 160.364 41.7602 158.341 43.5739C155.431 46.1987 150.676 46.4393 148.448 42.9411C146.287 39.5544 148.448 28.984 150.676 27.3441C153.992 24.9154 159.75 26.64 161.015 30.8022Z" fill="#EB9481"/>
<path d="M147.882 33.9038C147.712 34.6507 147.607 35.4112 147.57 36.1765C147.517 36.9653 147.508 37.754 147.513 38.5428C147.513 38.5873 147.584 38.5829 147.584 38.5428C147.584 37.7674 147.637 36.992 147.704 36.221C147.771 35.4501 147.896 34.6836 147.936 33.9127C147.94 33.877 147.891 33.877 147.882 33.9038Z" fill="#263238"/>
<path d="M152.909 35.7353C152.909 35.713 152.949 35.7665 152.945 35.7888C152.829 36.3369 152.789 36.9786 153.252 37.2505C153.252 37.2505 153.252 37.2861 153.252 37.2816C152.659 37.0722 152.722 36.2166 152.909 35.7353Z" fill="#263238"/>
<path d="M153.515 35.2317C154.406 35.3253 154.157 37.1034 153.328 37.0143C152.499 36.9251 152.762 35.156 153.515 35.2317Z" fill="#263238"/>
<path d="M149.861 35.3744C149.861 35.3521 149.812 35.3744 149.812 35.4145C149.75 35.9715 149.589 36.5954 149.063 36.7112V36.7424C149.687 36.738 149.892 35.9091 149.861 35.3744Z" fill="#263238"/>
<path d="M149.447 34.7282C148.555 34.5366 148.252 36.3057 149.063 36.484C149.874 36.6622 150.182 34.8886 149.447 34.7282Z" fill="#263238"/>
<path d="M154.331 34.5143C154.106 34.4139 153.887 34.3008 153.676 34.1756C153.428 34.088 153.215 33.9223 153.07 33.7032C153.039 33.6255 153.035 33.5399 153.057 33.4595C153.08 33.379 153.128 33.3081 153.194 33.2576C153.343 33.178 153.51 33.1393 153.678 33.1456C153.847 33.1518 154.01 33.2028 154.152 33.2933C154.467 33.4315 154.718 33.6828 154.856 33.9974C154.883 34.0704 154.888 34.1495 154.871 34.2252C154.853 34.3009 154.815 34.3701 154.759 34.4246C154.704 34.479 154.634 34.5164 154.558 34.5323C154.482 34.5482 154.403 34.542 154.331 34.5143Z" fill="#263238"/>
<path d="M148.898 33.7344C149.143 33.7194 149.387 33.6912 149.629 33.6498C149.893 33.6559 150.151 33.5761 150.365 33.4225C150.416 33.3615 150.448 33.2859 150.455 33.2061C150.463 33.1263 150.445 33.0462 150.405 32.9769C150.296 32.8521 150.157 32.758 150 32.704C149.844 32.65 149.676 32.6381 149.513 32.6694C149.168 32.6874 148.843 32.8336 148.6 33.0794C148.554 33.1378 148.525 33.2078 148.516 33.2815C148.508 33.3553 148.519 33.43 148.55 33.4976C148.581 33.5652 148.63 33.623 148.691 33.6648C148.753 33.7066 148.824 33.7307 148.898 33.7344Z" fill="#263238"/>
<path d="M152.864 40.9224C152.713 41.0339 152.557 41.1943 152.352 41.1854C152.147 41.1504 151.952 41.0747 151.777 40.9625C151.777 40.9625 151.741 40.9626 151.75 40.9848C151.814 41.1053 151.908 41.2063 152.025 41.2769C152.141 41.3476 152.274 41.3853 152.41 41.3859C152.529 41.3702 152.64 41.3194 152.73 41.24C152.82 41.1606 152.883 41.0562 152.914 40.9403C152.909 40.9269 152.882 40.9091 152.864 40.9224Z" fill="#263238"/>
<path d="M152.512 39.1889C152.342 39.3887 152.132 39.5509 151.896 39.6652C151.66 39.7795 151.402 39.8434 151.14 39.8529C150.912 39.8631 150.684 39.8422 150.463 39.7905L150.333 39.7549C150.294 39.7471 150.255 39.7352 150.217 39.7192C150.188 39.711 150.163 39.6926 150.145 39.6673C150.128 39.642 150.121 39.6115 150.124 39.5811C150.122 39.5633 150.122 39.5454 150.124 39.5276V39.4786C150.168 39.033 150.302 38.4091 150.302 38.4091C150.137 38.467 149.295 38.7121 149.34 38.4938C149.655 36.5843 150.164 34.7119 150.859 32.9056C150.881 32.8476 150.975 32.8744 150.962 32.9323C150.676 34.7148 150.07 36.4038 149.772 38.1729C150.072 38.0796 150.384 38.0301 150.699 38.0258C150.757 38.0526 150.422 39.2602 150.414 39.4563C150.756 39.5408 151.113 39.5551 151.461 39.4984C151.809 39.4418 152.143 39.3153 152.441 39.1266C152.512 39.1087 152.553 39.1533 152.512 39.1889Z" fill="#263238"/>
<path d="M150.743 39.6078C150.933 39.9437 151.206 40.2247 151.537 40.4233C151.72 40.5278 151.932 40.5715 152.143 40.5481C152.588 40.4946 152.668 40.1025 152.633 39.7326C152.616 39.5427 152.576 39.3556 152.512 39.1756C151.984 39.5041 151.364 39.6555 150.743 39.6078Z" fill="#263238"/>
<path d="M151.537 40.4233C151.72 40.5278 151.933 40.5715 152.143 40.5481C152.588 40.4946 152.668 40.1025 152.633 39.7326C152.399 39.708 152.164 39.7628 151.965 39.8881C151.766 40.0134 151.615 40.2019 151.537 40.4233Z" fill="#FF98B9"/>
<path d="M160.356 37.402C159.424 37.5357 158.818 34.7014 158.689 33.623C158.573 32.6783 158.729 29.755 158.716 29.55C158.702 29.345 154.438 31.4929 152.294 30.4858C150.151 29.4787 148.97 27.2282 149.086 26.2835C149.201 25.3388 152.361 23.3914 154.79 23.6454C157.218 23.8994 160.003 27.4733 160.003 27.4733C159.68 26.9632 159.396 26.4282 159.157 25.8735C159.215 25.771 160.672 26.6355 160.788 27.7897C160.788 27.7897 160.694 26.3503 160.819 26.3414C160.944 26.3325 161.964 27.7184 161.55 28.5696C161.55 28.5696 162.757 30.0001 162.682 31.3503C162.606 32.7006 161.452 37.246 160.356 37.402Z" fill="#263238"/>
<path d="M150.775 29.7683C151.383 30.2286 152.058 30.5951 152.775 30.8557C153.59 31.0607 154.443 31.0607 155.258 30.8557C156.075 30.6747 156.857 30.3632 157.575 29.9332C158.208 29.5589 158.791 29.0776 159.455 28.7612C159.62 28.681 159.763 28.9216 159.647 29.0464C158.427 30.3014 156.834 31.1296 155.106 31.4082C154.304 31.5389 153.482 31.4585 152.721 31.1748C151.96 30.8912 151.286 30.4141 150.766 29.7906C150.766 29.7906 150.766 29.7594 150.775 29.7683Z" fill="#263238"/>
<path d="M153.257 38.3645C152.647 38.1985 152.127 37.7979 151.812 37.2502C151.496 36.7025 151.41 36.0522 151.572 35.4412C151.688 35.0104 151.923 34.6208 152.249 34.3166C152.575 34.0125 152.981 33.806 153.418 33.7207C153.856 33.6354 154.309 33.6746 154.726 33.834C155.143 33.9934 155.506 34.2665 155.776 34.6222C156.045 34.978 156.209 35.4021 156.249 35.8465C156.289 36.2908 156.204 36.7374 156.002 37.1356C155.801 37.5339 155.492 37.8677 155.111 38.0991C154.73 38.3305 154.291 38.4503 153.845 38.4447C153.646 38.4444 153.448 38.4174 153.257 38.3645ZM151.88 35.5214C151.773 35.9162 151.786 36.3338 151.917 36.7212C152.047 37.1087 152.29 37.4488 152.614 37.6983C152.938 37.9479 153.329 38.0958 153.737 38.1234C154.145 38.1509 154.552 38.0569 154.906 37.8531C155.261 37.6493 155.547 37.345 155.729 36.9786C155.91 36.6122 155.979 36.2002 155.926 35.7946C155.874 35.3891 155.702 35.0082 155.433 34.7002C155.164 34.3922 154.81 34.1709 154.415 34.0642C154.248 34.0212 154.076 33.9972 153.903 33.9929C153.444 33.9877 152.996 34.1349 152.63 34.4116C152.264 34.6882 152 35.0786 151.88 35.5214Z" fill="#FFC727"/>
<path d="M148.266 37.6961C147.294 37.5669 146.644 36.4038 146.813 35.0981C146.878 34.5067 147.129 33.9512 147.53 33.5116C147.69 33.3111 147.898 33.1552 148.135 33.0591C148.373 32.963 148.631 32.9299 148.885 32.9631C149.139 32.9963 149.38 33.0946 149.584 33.2485C149.789 33.4024 149.95 33.6067 150.053 33.8414C150.324 34.3711 150.422 34.9729 150.333 35.5615C150.173 36.7959 149.335 37.7184 148.422 37.705L148.266 37.6961ZM147.762 33.73C147.408 34.1229 147.187 34.6171 147.129 35.1426C146.982 36.2701 147.508 37.2727 148.306 37.3708C149.103 37.4688 149.87 36.6399 150.021 35.508C150.098 34.9864 150.011 34.454 149.772 33.984C149.685 33.799 149.556 33.6376 149.393 33.5135C149.231 33.3894 149.042 33.3062 148.84 33.271H148.72C148.537 33.2763 148.358 33.32 148.193 33.399C148.027 33.4781 147.881 33.5908 147.762 33.73Z" fill="#FFC727"/>
<path d="M151.617 35.7353L151.853 35.5169C151.532 35.1694 150.757 34.6569 150.097 35.2006L150.298 35.4456C150.89 34.9465 151.572 35.6952 151.617 35.7353Z" fill="#FFC727"/>
<path d="M162.076 37.7139L162.379 37.607C162.325 37.4643 161.862 36.2344 161.171 36.025C160.48 35.8155 156.233 35.6774 156.051 35.6685V35.9893C157.281 36.0339 160.592 36.1809 161.086 36.3324C161.581 36.484 161.955 37.3752 162.076 37.7139Z" fill="#FFC727"/>
<path d="M159.259 37.4332C159.259 37.4332 161.158 34.844 162.339 35.5259C163.519 36.2077 162.049 39.9822 160.636 40.4857C160.459 40.5612 160.269 40.6 160.076 40.5998C159.884 40.5996 159.693 40.5604 159.516 40.4846C159.339 40.4088 159.179 40.298 159.046 40.1588C158.913 40.0196 158.81 39.8549 158.742 39.6747L159.259 37.4332Z" fill="#EB9481"/>
<path d="M161.893 36.5998V36.6355C160.904 37.0143 160.364 37.9144 159.981 38.8636C160.04 38.7665 160.12 38.6833 160.214 38.62C160.309 38.5567 160.416 38.5146 160.528 38.4968C160.641 38.479 160.756 38.4859 160.865 38.5169C160.974 38.5479 161.076 38.6024 161.162 38.6765C161.189 38.6765 161.162 38.7344 161.135 38.7255C160.964 38.6689 160.779 38.6658 160.605 38.7167C160.432 38.7677 160.278 38.8702 160.164 39.0107C159.979 39.2517 159.818 39.5099 159.683 39.7816C159.638 39.8708 159.478 39.8173 159.513 39.7192C159.531 38.4091 160.543 36.6979 161.893 36.5998Z" fill="#263238"/>
<path d="M162.548 35.5571C162.414 35.4584 162.257 35.3946 162.093 35.3712C161.928 35.3479 161.76 35.3658 161.603 35.4234C161.559 35.4234 161.554 35.4635 161.603 35.4501C161.791 35.3945 161.991 35.3945 162.178 35.4501C162.334 35.4991 162.775 35.6818 162.771 36.6043C162.703 37.3328 162.502 38.0427 162.178 38.6987C162.178 38.721 162.205 38.7433 162.218 38.721C162.434 38.3104 162.607 37.8789 162.735 37.4332C162.86 36.9341 163.025 35.9626 162.548 35.5571Z" fill="#263238"/>
<path d="M159.892 49.1354C159.576 49.4875 159.295 49.8573 158.961 50.1915C158.624 50.5308 158.27 50.8521 157.9 51.1541C157.184 51.7404 156.407 52.2483 155.583 52.6692C154.731 53.1762 153.74 53.3979 152.753 53.302C152.306 53.2259 151.888 53.0293 151.544 52.7333C151.2 52.4372 150.943 52.053 150.801 51.622C150.387 50.5079 150.668 49.3226 150.939 48.155C150.939 48.1149 150.886 48.0971 150.873 48.155C150.565 49.3538 150.333 50.3386 150.543 51.466C150.611 51.9061 150.789 52.322 151.059 52.6761C151.329 53.0302 151.683 53.3112 152.089 53.4937C154.063 54.3136 156.167 52.8921 157.628 51.6755C158.056 51.3182 158.462 50.9358 158.845 50.5302C159.254 50.1177 159.627 49.6704 159.959 49.1933C159.972 49.1399 159.919 49.1042 159.892 49.1354Z" fill="#263238"/>
<path d="M176.202 92.4195H16.4259V98.1012H176.202V92.4195Z" fill="#37474F"/>
<path d="M176.202 95.882H16.4259V98.1013H176.202V95.882Z" fill="#455A64"/>
<path d="M22.1567 177.825H19.8617L26.5462 98.1013H32.4062L22.1567 177.825Z" fill="#455A64"/>
<path d="M32.4062 98.1013L31.7199 103.435H26.1006L26.5462 98.1013H32.4062Z" fill="#263238"/>
<path d="M170.471 177.825H172.766L166.082 98.1013H160.222L170.471 177.825Z" fill="#455A64"/>
<path d="M160.222 98.1013L160.908 103.435H166.528L166.082 98.1013H160.222Z" fill="#263238"/>
<path d="M115.178 92.415H139.861V90.4943L115.178 89.6967V92.415Z" fill="#455A64"/>
<path d="M95.7748 92.3793H112.063C113.453 92.3793 111.439 88.4222 106.367 86.907C101.296 85.3919 94.1795 90.8954 95.7748 92.3793Z" fill="#37474F"/>
<path d="M102.165 92.3793C101.9 91.5467 101.544 90.7457 101.105 89.9908C100.887 89.6217 100.633 89.2754 100.347 88.9569C100.051 88.6355 99.7308 88.3376 99.3889 88.0656C99.83 88.1952 100.239 88.417 100.588 88.7163C100.942 89.016 101.243 89.373 101.479 89.7724C101.717 90.1686 101.898 90.5961 102.018 91.0424C102.143 91.4764 102.193 91.9286 102.165 92.3793Z" fill="#263238"/>
<path d="M100.236 88.6138C99.38 89.1708 98.5244 89.6699 97.7223 90.2448C97.3208 90.5231 96.9423 90.833 96.5903 91.1717C96.2294 91.5063 95.9503 91.9195 95.7748 92.3794C95.7861 91.8504 95.9833 91.3424 96.3319 90.9444C96.6554 90.5375 97.0367 90.1802 97.4638 89.8838C97.8856 89.5888 98.333 89.3323 98.8007 89.1173C99.2597 88.899 99.7408 88.7302 100.236 88.6138Z" fill="#263238"/>
<path d="M84.0904 84.719H123.676L117.383 55.2495H77.7937L84.0904 84.719Z" fill="#455A64"/>
<path d="M82.6288 84.719H122.214L115.917 55.2495H76.332L82.6288 84.719Z" fill="#37474F"/>
<path d="M103.979 74.1531H104.906L103.498 67.5444H102.571L103.979 74.1531Z" fill="#263238"/>
<path d="M102.147 74.1531H103.074L101.666 67.5444H100.735L102.147 74.1531Z" fill="#263238"/>
<path d="M100.316 74.1531H101.243L99.8345 67.5444H98.9032L100.316 74.1531Z" fill="#263238"/>
<path d="M98.4843 74.1531H99.4112L98.003 67.5444H97.0716L98.4843 74.1531Z" fill="#263238"/>
<path d="M96.6483 74.1531H97.5796L96.1714 67.5444H95.2401L96.6483 74.1531Z" fill="#263238"/>
<path d="M94.8167 74.1531H95.7481L94.3354 67.5444H93.4085L94.8167 74.1531Z" fill="#263238"/>
<path d="M92.9852 74.1531H93.9165L92.5039 67.5444H91.577L92.9852 74.1531Z" fill="#263238"/>
<path d="M93.823 92.4195H113.293V90.9043L93.823 90.276V92.4195Z" fill="#455A64"/>
<path d="M88.5289 92.415H98.9834L105.28 75.8999H94.8256L88.5289 92.415Z" fill="#455A64"/>
<path d="M86.8088 92.415H97.2632L103.556 75.8999H93.1055L86.8088 92.415Z" fill="#263238"/>
<path d="M84.9059 31.5731C84.9059 31.5731 82.4995 50.9981 78.4888 55.3698C73.7028 60.6104 70.2313 59.8261 68.2973 62.5489C66.3677 59.8394 62.8918 60.6104 58.1012 55.3653C54.0906 50.9937 51.6931 31.5687 51.6931 31.5687C62.201 26.4707 68.2973 20.7532 68.2973 20.7532C68.4844 20.9359 74.5584 26.5553 84.9059 31.5731Z" fill="#FFC727"/>
<path opacity="0.2" d="M68.2973 20.7621V62.5489C66.3677 59.8394 62.8918 60.6104 58.1012 55.3653C54.0906 50.9937 51.6931 31.5687 51.6931 31.5687C62.201 26.4707 68.2973 20.7532 68.2973 20.7532V20.7621Z" fill="black"/>
<path opacity="0.1" d="M84.9059 31.5731C84.9059 31.5731 82.4995 50.9981 78.4888 55.3698C73.7028 60.6104 70.2313 59.8261 68.2973 62.5489V20.7621C68.4844 20.9359 74.5584 26.5553 84.9059 31.5731Z" fill="black"/>
<path d="M82.3257 33.1373C82.3257 33.1373 80.2714 49.5498 76.9113 53.2397C72.865 57.696 69.9283 57.0231 68.2928 59.3091C66.6618 57.0231 63.7251 57.6781 59.6788 53.2397C56.3098 49.5454 54.2644 33.1373 54.2644 33.1373C63.1413 28.828 68.2928 24.0019 68.2928 24.0019C68.2928 24.0019 73.4532 28.828 82.3257 33.1373Z" fill="#FFC727"/>
<path d="M72.504 39.3271H64.0861V46.9652H72.504V39.3271Z" fill="white"/>
<path d="M71.6618 41.68H70.8062V38.2709C70.7789 37.6233 70.5024 37.0112 70.0345 36.5625C69.5665 36.1139 68.9433 35.8634 68.2951 35.8634C67.6468 35.8634 67.0236 36.1139 66.5557 36.5625C66.0877 37.0112 65.8112 37.6233 65.7839 38.2709V41.68H64.9283V38.2709C64.96 37.3992 65.3286 36.5738 65.9566 35.9683C66.5845 35.3628 67.4228 35.0245 68.2951 35.0245C69.1673 35.0245 70.0056 35.3628 70.6336 35.9683C71.2615 36.5738 71.6301 37.3992 71.6618 38.2709V41.68Z" fill="white"/>
<path d="M68.6538 43.2397L69.0058 44.9108H67.5085L67.8606 43.2397C67.7227 43.1536 67.6166 43.0249 67.5583 42.8732C67.5 42.7214 67.4927 42.5548 67.5375 42.3985C67.5823 42.2422 67.6767 42.1047 67.8066 42.0069C67.9364 41.909 68.0946 41.8561 68.2572 41.8561C68.4197 41.8561 68.5779 41.909 68.7078 42.0069C68.8376 42.1047 68.932 42.2422 68.9768 42.3985C69.0216 42.5548 69.0144 42.7214 68.9561 42.8732C68.8978 43.0249 68.7917 43.1536 68.6538 43.2397Z" fill="#37474F"/>
<path d="M40.8019 85.1512H16.4259V64.5364L28.6094 56.7958L40.8019 64.5364V85.1512Z" fill="#FFC727"/>
<path opacity="0.2" d="M40.8019 85.1512H16.4259V64.5364L28.6094 56.7958L40.8019 64.5364V85.1512Z" fill="black"/>
<path d="M39.4249 81.8714H17.7985V54.1131H33.8545L39.4249 59.4027V81.8714Z" fill="#EBEBEB"/>
<path d="M33.8545 54.1131L39.4249 59.4027H33.8545V54.1131Z" fill="#DBDBDB"/>
<path d="M19.9107 59.4829H31.9338V58.7699H19.9107V59.4829Z" fill="#DBDBDB"/>
<path d="M19.9107 61.2833H31.9338V60.5703H19.9107V61.2833Z" fill="#DBDBDB"/>
<path d="M19.9107 63.0792H31.9338V62.3662H19.9107V63.0792Z" fill="#DBDBDB"/>
<path d="M19.9107 64.884H37.5265V64.171H19.9107V64.884Z" fill="#DBDBDB"/>
<path d="M19.9107 66.6799H37.5265V65.9669H19.9107V66.6799Z" fill="#DBDBDB"/>
<path d="M19.9107 68.4802H37.5265V67.7672H19.9107V68.4802Z" fill="#DBDBDB"/>
<path d="M19.9107 70.2761H37.5265V69.5631H19.9107V70.2761Z" fill="#DBDBDB"/>
<path d="M19.9107 72.0809H37.5265V71.3679H19.9107V72.0809Z" fill="#DBDBDB"/>
<path d="M19.9107 73.8768H37.5265V73.1638H19.9107V73.8768Z" fill="#DBDBDB"/>
<path d="M19.9107 75.6771H37.5265V74.9641H19.9107V75.6771Z" fill="#DBDBDB"/>
<path d="M19.9107 77.473H37.5265V76.76H19.9107V77.473Z" fill="#DBDBDB"/>
<path d="M19.9107 79.2734H37.5265V78.5604H19.9107V79.2734Z" fill="#DBDBDB"/>
<path d="M40.8019 69.6968V85.1512H16.4259V69.6968C17.4731 70.2895 18.5025 70.9089 19.5453 71.5194C20.5881 72.1299 21.6086 72.7538 22.6335 73.3866C23.7773 74.0818 24.9181 74.7859 26.056 75.4989H26.0961L26.0649 75.5256L28.6228 77.1254C29.474 76.5907 30.3251 76.0515 31.1807 75.5256L31.1495 75.4989H31.1852C32.326 74.7903 33.4624 74.0862 34.6076 73.3866C35.6326 72.7597 36.662 72.1388 37.6958 71.5239C38.7252 70.9089 39.7546 70.2895 40.8019 69.6968Z" fill="#FFC727"/>
<path d="M40.8019 69.6968C39.817 70.3875 38.8144 71.0337 37.8206 71.7288C36.8269 72.424 35.8197 73.0657 34.8126 73.7208C33.8055 74.3759 32.7048 75.0889 31.6531 75.7663L31.5595 75.8331L28.752 77.6156L28.6094 77.7003L28.4757 77.6156C27.5399 77.0214 26.6056 76.4273 25.6727 75.8331C25.6385 75.8149 25.6057 75.7941 25.5747 75.7707C24.5141 75.0934 23.4624 74.4338 22.4107 73.7208C21.359 73.0078 20.4054 72.3839 19.4072 71.7333C18.409 71.0827 17.4108 70.3964 16.4259 69.7012C17.4731 70.2939 18.5025 70.9133 19.5453 71.5239C20.5881 72.1344 21.6086 72.7583 22.6335 73.391C23.7773 74.0862 24.9181 74.7903 26.056 75.5033L28.6139 77.1031C29.465 76.5684 30.3162 76.0292 31.1718 75.5033C32.3126 74.7948 33.449 74.0907 34.5943 73.391C35.6192 72.7642 36.6486 72.1433 37.6825 71.5283C38.7252 70.9089 39.7546 70.2895 40.8019 69.6968Z" fill="white"/>
<path d="M26.0872 75.4766L26.056 75.5034L25.6727 75.8287C25.0622 76.3456 24.4339 76.8402 23.7966 77.3215C23.0212 77.9142 22.228 78.4802 21.4303 79.0416C20.6326 79.6031 19.8216 80.1468 18.9972 80.6727C18.1728 81.1985 17.3439 81.7154 16.4838 82.1878C17.2236 81.5416 17.9945 80.9356 18.7699 80.3473C19.5453 79.7591 20.343 79.1843 21.1362 78.6228C21.9294 78.0613 22.7494 77.5176 23.5694 76.9918C24.2244 76.5461 24.9062 76.154 25.5747 75.7663L26.0471 75.4989L26.0872 75.4766Z" fill="white"/>
<path d="M40.7395 82.1878C39.8794 81.7154 39.0461 81.1985 38.2262 80.6727C37.4062 80.1468 36.5996 79.5942 35.793 79.0416C34.9864 78.4891 34.2021 77.9142 33.4223 77.3215C32.7895 76.8402 32.1656 76.35 31.5595 75.8331C31.4258 75.7217 31.2966 75.6148 31.1718 75.5034L31.1406 75.4766H31.1763L31.6531 75.7484C32.3349 76.1361 32.99 76.5506 33.654 76.9739C34.4784 77.4998 35.285 78.0479 36.0871 78.6049C36.8893 79.162 37.678 79.7368 38.4534 80.3295C39.2288 80.9222 39.9998 81.5416 40.7395 82.1878Z" fill="white"/>
<path d="M40.7395 89.104C42.9545 89.104 44.7502 87.3083 44.7502 85.0933C44.7502 82.8783 42.9545 81.0826 40.7395 81.0826C38.5245 81.0826 36.7288 82.8783 36.7288 85.0933C36.7288 87.3083 38.5245 89.104 40.7395 89.104Z" fill="#37474F"/>
<path d="M42.727 84.0817H38.752V87.6913H42.727V84.0817Z" fill="white"/>
<path d="M42.3304 85.2003H41.9471V83.5871C41.9286 83.2847 41.7954 83.0007 41.5747 82.7932C41.3541 82.5856 41.0625 82.47 40.7595 82.47C40.4566 82.47 40.165 82.5856 39.9443 82.7932C39.7237 83.0007 39.5905 83.2847 39.5719 83.5871V85.2003H39.1709V83.5871C39.1594 83.3714 39.1921 83.1556 39.2667 82.9529C39.3414 82.7502 39.4566 82.5649 39.6052 82.4081C39.7539 82.2514 39.9329 82.1266 40.1313 82.0413C40.3298 81.956 40.5435 81.912 40.7595 81.912C40.9756 81.912 41.1893 81.956 41.3878 82.0413C41.5862 82.1266 41.7652 82.2514 41.9139 82.4081C42.0625 82.5649 42.1777 82.7502 42.2524 82.9529C42.327 83.1556 42.3596 83.3714 42.3482 83.5871L42.3304 85.2003Z" fill="white"/>
<path d="M40.9088 85.9311L41.0781 86.7198H40.3696L40.5345 85.9311C40.4845 85.8988 40.4433 85.8546 40.4145 85.8025C40.3858 85.7504 40.3703 85.692 40.3696 85.6325C40.3683 85.5698 40.3835 85.5079 40.4137 85.453C40.444 85.3981 40.4881 85.3522 40.5418 85.3198C40.5954 85.2874 40.6567 85.2697 40.7193 85.2686C40.782 85.2674 40.8439 85.2828 40.8987 85.3131C40.9535 85.3435 40.9994 85.3878 41.0317 85.4415C41.0639 85.4952 41.0814 85.5565 41.0825 85.6192C41.0835 85.6818 41.068 85.7437 41.0375 85.7984C41.007 85.8532 40.9626 85.8989 40.9088 85.9311Z" fill="#37474F"/>
<path d="M58.9524 44.5276H18.0347V50.7308H58.9524V44.5276Z" fill="white"/>
<path d="M59.1708 50.9536H17.8118V44.3048H59.1708V50.9536ZM18.2575 50.5079H58.7251V44.7504H18.2575V50.5079Z" fill="#EBEBEB"/>
<path d="M16.9429 51.6398C19.1579 51.6398 20.9535 49.8442 20.9535 47.6292C20.9535 45.4141 19.1579 43.6185 16.9429 43.6185C14.7278 43.6185 12.9322 45.4141 12.9322 47.6292C12.9322 49.8442 14.7278 51.6398 16.9429 51.6398Z" fill="#37474F"/>
<path d="M18.9304 46.6131H14.9553V50.2227H18.9304V46.6131Z" fill="white"/>
<path d="M18.5338 47.7272H18.1282V46.1185C18.1282 45.8041 18.0034 45.5026 17.7811 45.2803C17.5587 45.058 17.2572 44.9331 16.9429 44.9331C16.6285 44.9331 16.327 45.058 16.1047 45.2803C15.8824 45.5026 15.7575 45.8041 15.7575 46.1185V47.7272H15.352V46.1185C15.352 45.6966 15.5196 45.2919 15.8179 44.9935C16.1163 44.6952 16.5209 44.5276 16.9429 44.5276C17.3648 44.5276 17.7694 44.6952 18.0678 44.9935C18.3661 45.2919 18.5338 45.6966 18.5338 46.1185V47.7272Z" fill="white"/>
<path d="M17.1122 48.4625L17.2771 49.2557H16.5685L16.7379 48.4625C16.6859 48.432 16.6429 48.3883 16.6132 48.3359C16.5835 48.2835 16.5681 48.2242 16.5685 48.1639C16.5783 48.0768 16.6198 47.9964 16.6852 47.9379C16.7506 47.8795 16.8351 47.8472 16.9228 47.8472C17.0105 47.8472 17.095 47.8795 17.1604 47.9379C17.2258 47.9964 17.2673 48.0768 17.2771 48.1639C17.2771 48.2236 17.262 48.2823 17.2332 48.3345C17.2044 48.3867 17.1627 48.4308 17.1122 48.4625Z" fill="#37474F"/>
<path d="M25.1291 46.3101H24.6834V49.1488H25.1291V46.3101Z" fill="#37474F"/>
<path d="M26.3234 47.5044H23.4847V47.95H26.3234V47.5044Z" fill="#37474F"/>
<path d="M25.7509 46.5661L23.7436 48.5734L24.0587 48.8885L26.066 46.8812L25.7509 46.5661Z" fill="#37474F"/>
<path d="M24.0619 46.5661L23.7468 46.8812L25.754 48.8885L26.0691 48.5734L24.0619 46.5661Z" fill="#37474F"/>
<path d="M29.9463 46.3101H29.5007V49.1488H29.9463V46.3101Z" fill="#37474F"/>
<path d="M31.1451 47.5044H28.3064V47.95H31.1451V47.5044Z" fill="#37474F"/>
<path d="M30.573 46.5657L28.5657 48.573L28.8808 48.8881L30.8881 46.8808L30.573 46.5657Z" fill="#37474F"/>
<path d="M28.8808 46.5689L28.5657 46.884L30.5729 48.8912L30.8881 48.5761L28.8808 46.5689Z" fill="#37474F"/>
<path d="M34.7681 46.3101H34.3224V49.1488H34.7681V46.3101Z" fill="#37474F"/>
<path d="M35.9623 47.5044H33.1237V47.95H35.9623V47.5044Z" fill="#37474F"/>
<path d="M35.3874 46.5685L33.3802 48.5757L33.6953 48.8908L35.7026 46.8836L35.3874 46.5685Z" fill="#37474F"/>
<path d="M33.6985 46.5685L33.3834 46.8836L35.3906 48.8908L35.7057 48.5757L33.6985 46.5685Z" fill="#37474F"/>
<path d="M39.5898 46.3101H39.1442V49.1488H39.5898V46.3101Z" fill="#37474F"/>
<path d="M40.7841 47.5044H37.9454V47.95H40.7841V47.5044Z" fill="#37474F"/>
<path d="M40.2096 46.5681L38.2024 48.5753L38.5175 48.8904L40.5247 46.8832L40.2096 46.5681Z" fill="#37474F"/>
<path d="M38.5206 46.5681L38.2055 46.8832L40.2127 48.8904L40.5279 48.5753L38.5206 46.5681Z" fill="#37474F"/>
<path d="M44.407 46.3101H43.9614V49.1488H44.407V46.3101Z" fill="#37474F"/>
<path d="M45.6058 47.5044H42.7671V47.95H45.6058V47.5044Z" fill="#37474F"/>
<path d="M45.0317 46.5677L43.0244 48.5749L43.3396 48.89L45.3468 46.8828L45.0317 46.5677Z" fill="#37474F"/>
<path d="M43.3396 46.5708L43.0244 46.886L45.0317 48.8932L45.3468 48.5781L43.3396 46.5708Z" fill="#37474F"/>
<path d="M49.2288 46.3101H48.7831V49.1488H49.2288V46.3101Z" fill="#37474F"/>
<path d="M50.4231 47.5044H47.5844V47.95H50.4231V47.5044Z" fill="#37474F"/>
<path d="M49.8507 46.566L47.8434 48.5732L48.1586 48.8883L50.1658 46.8811L49.8507 46.566Z" fill="#37474F"/>
<path d="M48.1617 46.566L47.8466 46.8811L49.8538 48.8883L50.1689 48.5732L48.1617 46.566Z" fill="#37474F"/>
<path d="M24.3671 143.092C24.3671 143.092 14.4874 140.864 9.07304 135.864C3.65863 130.864 0.637261 121.938 0.637261 121.938C4.39152 122.663 8.09269 123.639 11.7156 124.861C12.6069 125.806 14.2825 127.753 15.0668 129.598C15.1588 128.472 15.1678 127.34 15.0935 126.212C16.3571 126.76 17.54 127.478 18.6095 128.346C23.097 132.263 24.3671 143.092 24.3671 143.092Z" fill="#FFC727"/>
<path d="M6.80477 126.283C5.46788 125.347 4.08643 124.451 2.74508 123.511C2.73227 123.498 2.72408 123.482 2.72182 123.464C2.71956 123.446 2.72337 123.428 2.73262 123.413C2.74187 123.397 2.75604 123.385 2.77285 123.379C2.78966 123.373 2.80813 123.372 2.8253 123.377C5.36984 124.897 7.8832 126.524 10.3074 128.226C11.1541 128.819 11.9875 129.438 12.8074 130.066L12.6381 129.772C12.3395 129.278 12.0276 128.792 11.7156 128.306C11.0961 127.314 10.3939 126.377 9.6167 125.503C9.58996 125.472 9.6167 125.427 9.66572 125.458C10.4367 126.35 11.2031 127.241 11.8939 128.163C12.2281 128.609 12.5356 129.055 12.8297 129.549C12.9857 129.794 13.1327 130.044 13.2753 130.294L13.4224 130.548C14.7013 131.55 15.9446 132.597 17.13 133.703C17.8653 134.389 18.5694 135.093 19.2512 135.824C18.8724 134.63 18.5382 133.422 18.0926 132.259C18.0926 132.219 18.1461 132.205 18.1594 132.259C18.6051 133.493 19.0507 134.732 19.3938 136.002C20.1514 136.816 20.8718 137.664 21.5551 138.547C21.5551 138.493 21.5551 138.44 21.5195 138.386C21.4081 137.941 21.2922 137.455 21.1674 136.996C20.9268 136.105 20.6639 135.213 20.3608 134.322C19.789 132.501 18.8822 130.802 17.6871 129.313C17.6603 129.278 17.6871 129.233 17.7361 129.264C19.6657 131.55 20.7976 134.291 21.5195 137.165C21.622 137.589 21.7245 138.007 21.8181 138.431C21.8715 138.654 21.9295 138.876 21.9696 139.113C22.2681 139.518 22.5578 139.924 22.8608 140.343C24.545 142.917 25.9464 145.667 27.0408 148.542C28.2773 151.77 29.335 155.064 30.2093 158.408C30.2093 158.475 30.1291 158.497 30.1068 158.435C28.1727 152.642 26.2031 146.791 22.892 141.626C22.1942 140.535 21.4416 139.481 20.6371 138.466C19.0009 138.361 17.3856 138.041 15.8332 137.513C14.1381 136.941 12.5213 136.16 11.0204 135.187C10.171 134.609 9.3515 133.989 8.56501 133.328C8.56027 133.326 8.55614 133.322 8.55292 133.318C8.5497 133.314 8.54748 133.309 8.54642 133.304C8.54536 133.298 8.54549 133.293 8.5468 133.288C8.54811 133.283 8.55056 133.278 8.55398 133.274C8.55739 133.27 8.56169 133.266 8.56654 133.264C8.5714 133.262 8.57668 133.261 8.58202 133.261C8.58736 133.261 8.5926 133.262 8.59737 133.265C8.60214 133.267 8.60631 133.271 8.60957 133.275C9.98877 134.384 11.5118 135.302 13.1372 136.002C14.7341 136.734 16.4041 137.294 18.1193 137.673C18.8502 137.834 19.5899 137.949 20.3475 138.052C19.4334 136.923 18.4622 135.842 17.4375 134.812C17.1033 134.482 16.7601 134.162 16.417 133.841C15.2649 133.035 14.0418 132.335 12.7628 131.751C11.1452 130.966 9.55431 130.138 7.95004 129.322C7.05878 128.876 6.16752 128.391 5.23615 127.95C5.2005 127.927 5.23615 127.874 5.27181 127.892C6.89836 128.676 8.54718 129.407 10.1737 130.16C11.7201 130.864 13.2931 131.573 14.7593 132.388L14.9464 132.499C13.6066 131.335 12.2266 130.219 10.8065 129.153C9.48301 128.181 8.15503 127.214 6.80477 126.283Z" fill="#263238"/>
<path d="M7.36627 131.372C8.16841 131.724 8.98836 132.036 9.78159 132.41C10.5748 132.785 11.3725 133.239 12.1523 133.698C12.1835 133.72 12.1523 133.765 12.1167 133.752C11.3324 133.373 10.5347 133.021 9.75485 132.629C8.975 132.237 8.16395 131.795 7.34399 131.439C7.30834 131.421 7.32617 131.354 7.36627 131.372Z" fill="#263238"/>
<path d="M56.4569 93.3107C54.6318 95.6652 53.5991 98.5372 53.5068 101.515C53.4712 102.406 53.6138 103.632 53.7162 105.08C50.0309 107.036 47.268 110.601 47.268 110.601C49.3624 109.344 52.2323 108.819 53.7831 109.041C53.7326 110.033 53.606 111.019 53.4043 111.992C52.7225 111.951 51.399 112.045 49.2154 112.82C50.5132 112.807 51.7997 113.062 52.9943 113.569C51.2341 119.175 45.9979 124.928 31.5461 127.384C30.0107 120.51 30.9151 113.316 34.1041 107.036C38.4356 98.5112 56.4569 93.3107 56.4569 93.3107Z" fill="#FFC727"/>
<path d="M26.5417 151.341C26.7913 148.946 27.1032 146.559 27.4775 144.179C28.21 139.419 29.1827 134.698 30.392 130.035C30.9586 127.846 31.655 125.693 32.4775 123.587C32.4366 123.202 32.4202 122.815 32.4285 122.428C32.4285 121.983 32.4285 121.501 32.4285 121.042C32.4285 120.115 32.4731 119.19 32.5622 118.266C32.7098 116.438 33.0079 114.626 33.4534 112.847C33.7164 111.818 34.0238 110.806 34.3447 109.786C34.3447 109.746 34.4205 109.763 34.4071 109.786C33.9299 111.563 33.574 113.37 33.342 115.196C33.0842 116.995 32.9221 118.807 32.8563 120.623C32.8563 121.118 32.8296 121.613 32.8296 122.112C32.8296 122.321 32.8296 122.535 32.8296 122.749C33.5374 121.028 34.3499 119.353 35.2627 117.731C36.7316 115.148 38.3847 112.675 40.2092 110.329C40.2138 110.056 40.2543 109.785 40.3295 109.523C40.3964 109.197 40.4677 108.877 40.539 108.556C40.686 107.896 40.8509 107.219 41.0336 106.586C41.3901 105.276 41.8669 104.01 42.2769 102.718C42.2769 102.673 42.3527 102.696 42.3393 102.718C41.9561 103.997 41.7021 105.325 41.4124 106.626C41.2653 107.272 41.1272 107.918 40.9668 108.565C40.8955 108.885 40.8242 109.206 40.7573 109.532V109.603C41.3411 108.868 41.9382 108.137 42.5398 107.424C45.2983 104.189 48.333 101.185 51.3722 98.2394C51.7466 97.874 52.1298 97.5175 52.5086 97.1565C52.5154 97.1523 52.5234 97.1506 52.5314 97.1515C52.5393 97.1525 52.5467 97.156 52.5524 97.1617C52.5581 97.1674 52.5617 97.1748 52.5626 97.1827C52.5635 97.1907 52.5618 97.1987 52.5576 97.2055C49.6476 100.245 46.7644 103.315 44.0639 106.528C43.4222 107.295 42.7849 108.066 42.161 108.85C42.4908 108.627 42.8206 108.404 43.1459 108.199C43.9881 107.647 44.8393 107.112 45.7172 106.622C46.5951 106.132 47.4774 105.65 48.391 105.2C49.3045 104.75 50.3116 104.367 51.2029 103.863C51.243 103.841 51.2742 103.903 51.2385 103.921C50.3246 104.343 49.4428 104.832 48.6004 105.383C47.7091 105.904 46.8179 106.43 45.9756 106.978C45.1334 107.526 44.2733 108.048 43.4311 108.596C42.727 109.041 42.0363 109.549 41.3054 109.973C39.6295 112.125 38.0834 114.375 36.6753 116.711C35.7999 118.182 35.0011 119.698 34.2823 121.252L34.7992 121.029L36.1361 120.441C36.9873 120.062 37.8429 119.692 38.694 119.322C40.3161 118.618 41.9605 117.985 43.5514 117.196C44.4474 116.776 45.3139 116.295 46.145 115.757C46.1806 115.73 46.2118 115.788 46.1806 115.815C43.2172 117.856 39.8928 119.295 36.613 120.748L35.1914 121.377C34.7992 121.55 34.4071 121.742 34.006 121.893C33.0363 124.062 32.2189 126.296 31.5595 128.578C30.2757 133.181 29.2345 137.849 28.4401 142.562C27.6112 147.281 27.0497 152.036 26.6175 156.822C26.5595 157.419 26.5061 158.012 26.4392 158.604C26.4392 158.654 26.4195 158.702 26.3844 158.737C26.3493 158.772 26.3017 158.792 26.2521 158.792C26.2024 158.792 26.1548 158.772 26.1197 158.737C26.0846 158.702 26.0649 158.654 26.0649 158.604C26.0426 156.176 26.2877 153.747 26.5417 151.341Z" fill="#263238"/>
<path d="M35.334 111.426C35.6014 109.955 35.9935 108.52 36.3902 107.081C36.3902 107.036 36.4615 107.058 36.4525 107.081C36.0871 108.493 35.8242 109.933 35.5613 111.368C35.2984 112.803 35.0488 114.295 34.8438 115.766C34.8438 115.788 34.8037 115.793 34.8037 115.766C34.9004 114.311 35.0774 112.862 35.334 111.426Z" fill="#263238"/>
<path d="M41.5639 115.41C42.5694 114.742 43.6207 114.146 44.7101 113.627C45.2359 113.355 45.7707 113.097 46.301 112.838C46.8313 112.58 47.424 112.348 47.9676 112.076C47.975 112.074 47.9827 112.075 47.9898 112.078C47.9968 112.081 48.0027 112.086 48.0067 112.092C48.0107 112.099 48.0125 112.106 48.0119 112.114C48.0113 112.121 48.0083 112.128 48.0033 112.134C47.473 112.397 46.9739 112.718 46.4525 113.003C45.9311 113.288 45.3874 113.591 44.8482 113.894C43.7921 114.46 42.7538 115.089 41.6441 115.552C41.6252 115.563 41.6029 115.565 41.582 115.56C41.5611 115.554 41.5434 115.54 41.5327 115.521C41.5221 115.502 41.5194 115.48 41.5253 115.459C41.5311 115.438 41.545 115.42 41.5639 115.41Z" fill="#263238"/>
<path opacity="0.1" d="M24.1888 125.98C24.1888 125.98 15.0445 123.796 10.8511 117.664C6.84043 111.809 5.54365 101.827 5.44115 100.949C5.60604 101.751 7.49551 110.476 13.7165 114.541C18.4803 117.655 23.0837 120.213 24.1888 125.98Z" fill="#263238"/>
<path d="M24.1888 125.98C24.1888 125.98 15.0445 123.796 10.8511 117.664C6.84045 111.809 5.54366 101.827 5.44117 100.949C5.43943 100.928 5.43943 100.907 5.44117 100.886C5.44117 100.886 9.82617 107.125 14.434 108.707C19.0418 110.289 25.5079 115.793 24.1888 125.98Z" fill="#FFC727"/>
<path d="M7.05434 104.322C7.86662 106.001 8.80514 107.616 9.86181 109.153C10.9281 110.612 12.1925 111.915 13.6185 113.025C14.8618 114.01 16.1764 114.906 17.4331 115.869L17.4019 115.824C17.1657 115.476 16.9161 115.133 16.6532 114.803C16.1318 114.135 15.5614 113.502 14.9821 112.878C13.8502 111.644 12.6871 110.436 11.6711 109.104C11.1037 108.368 10.6125 107.577 10.2049 106.742C10.2049 106.702 10.2495 106.68 10.2673 106.742C11.7513 109.83 14.7236 111.809 16.827 114.416C17.127 114.788 17.4082 115.174 17.6692 115.574C17.8781 115.863 18.0545 116.174 18.1951 116.501C19.3524 117.428 20.3991 118.485 21.3145 119.652C21.2356 119.05 21.1135 118.454 20.9491 117.869C20.7356 117.057 20.4085 116.278 19.9776 115.557C19.9776 115.521 20.0133 115.481 20.0355 115.516C20.4781 116.241 20.8355 117.014 21.1006 117.82C21.297 118.457 21.4138 119.116 21.4482 119.781C21.8998 120.395 22.3121 121.036 22.6826 121.702C22.6425 121.506 22.6068 121.31 22.5667 121.114C22.3885 120.222 22.1879 119.295 21.9518 118.4C21.5206 116.578 20.7789 114.845 19.7593 113.275C19.7574 113.268 19.7579 113.26 19.7608 113.253C19.7636 113.246 19.7687 113.24 19.7751 113.236C19.7816 113.232 19.7892 113.23 19.7967 113.231C19.8043 113.231 19.8115 113.234 19.8172 113.239C20.8647 114.793 21.6841 116.489 22.2503 118.275C22.5444 119.166 22.7762 120.084 22.9812 121.007C23.0837 121.452 23.1728 121.898 23.2574 122.344C23.302 122.575 23.3555 122.816 23.3911 123.057C24.2994 125.045 25.0056 127.121 25.499 129.251C26.3985 133.058 27.0505 136.919 27.4508 140.81C27.9208 144.884 28.1306 148.983 28.0792 153.083C28.0792 153.596 28.0435 154.108 28.0123 154.625C28.0123 154.754 27.8073 154.776 27.8029 154.625C27.7138 152.597 27.6603 150.57 27.54 148.542C27.4196 146.515 27.2414 144.491 27.0275 142.468C26.6105 138.498 25.9737 134.554 25.1202 130.655C24.3804 127.312 23.4179 123.948 21.5908 121.02C20.6825 119.564 19.5722 118.243 18.2931 117.098C17.0142 115.949 15.6193 114.942 14.2825 113.877C12.9133 112.837 11.6705 111.64 10.5793 110.312C9.44833 108.838 8.4619 107.259 7.63366 105.597C7.41975 105.182 7.18802 104.772 6.97858 104.358C6.97412 104.322 7.03205 104.287 7.05434 104.322Z" fill="#263238"/>
<path d="M8.63187 105.664C9.22841 106.897 9.90885 108.088 10.6684 109.229C10.6684 109.255 10.6417 109.282 10.6238 109.255C9.84013 108.126 9.1515 106.934 8.56502 105.69C8.5472 105.646 8.60959 105.623 8.63187 105.664Z" fill="#263238"/>
<path d="M57.7314 121.938C57.7314 121.938 57.8784 134.928 50.1111 138.676C42.3438 142.424 38.1771 139.304 32.9009 140.561C33.1059 140.253 36.8714 134.839 42.8652 133.346C49.0327 131.8 55.8642 127.348 57.7314 121.938Z" fill="#FFC727"/>
<path opacity="0.1" d="M57.7314 121.938C57.7314 121.938 57.8784 134.928 50.1111 138.676C42.3438 142.424 38.1771 139.304 32.9009 140.561C35.6901 139.235 38.6708 138.357 41.7333 137.958C46.6397 137.339 55.9934 134.166 57.7314 121.938Z" fill="black"/>
<path d="M32.3884 140.793C33.3122 139.95 34.3523 139.245 35.4766 138.698C35.6459 138.618 35.8153 138.556 35.9846 138.484C36.0664 138.38 36.1542 138.28 36.2475 138.186C36.4779 137.94 36.7219 137.708 36.9784 137.491C37.4635 137.069 37.9855 136.692 38.5381 136.363C39.826 135.605 41.2386 135.075 42.5488 134.376C42.5526 134.374 42.5567 134.372 42.561 134.372C42.5653 134.371 42.5697 134.372 42.5738 134.373C42.5779 134.374 42.5818 134.376 42.5851 134.379C42.5885 134.382 42.5913 134.385 42.5933 134.389C42.5954 134.393 42.5966 134.397 42.5971 134.401C42.5975 134.405 42.5971 134.41 42.5959 134.414C42.5946 134.418 42.5926 134.422 42.5898 134.425C42.5871 134.429 42.5837 134.431 42.5799 134.433C41.9293 134.772 41.301 135.142 40.6682 135.512C40.0354 135.882 39.4249 136.216 38.8233 136.599C38.2829 136.945 37.769 137.331 37.2859 137.753C37.1522 137.874 37.0185 138.003 36.8893 138.137C37.7476 137.845 38.6245 137.611 39.514 137.437C40.9356 137.152 42.3705 136.947 43.7921 136.644C44.4881 136.496 45.1754 136.31 45.8509 136.087C46.497 135.57 47.1387 135.053 47.7493 134.491C48.4903 133.816 49.1634 133.07 49.759 132.263C49.7858 132.228 49.8437 132.263 49.817 132.299C48.8746 133.574 47.8072 134.752 46.6307 135.815C46.9649 135.686 47.2992 135.552 47.6245 135.4C50.2921 134.204 52.5819 132.301 54.2465 129.897C54.2733 129.861 54.3312 129.897 54.3045 129.928C52.8946 131.992 51.0741 133.743 48.9569 135.071C47.894 135.734 46.7574 136.271 45.5701 136.671C44.1943 137.1 42.7901 137.432 41.3678 137.664C39.9737 137.893 38.5977 138.221 37.2502 138.645C36.0115 139.064 34.8473 139.678 33.801 140.463C31.8176 142.003 30.2214 143.985 29.1397 146.252C27.6692 149.197 26.9695 152.49 26.5774 155.748C26.5774 155.886 26.3456 155.886 26.3546 155.748C26.72 150.262 28.1816 144.585 32.3884 140.793Z" fill="#263238"/>
<path d="M41.4035 136.555C41.8098 135.949 42.3574 135.452 42.9989 135.106C43.7362 134.725 44.3834 134.19 44.8973 133.538C44.924 133.502 44.9819 133.538 44.9552 133.573C44.4895 134.169 43.9222 134.677 43.2796 135.075C42.5734 135.448 41.9515 135.962 41.4525 136.586C41.4303 136.617 41.3812 136.586 41.4035 136.555Z" fill="#263238"/>
<path d="M37.2814 150.378L36.9294 157.522L35.8465 179.344H19.5498L18.4669 157.522L18.1149 150.378H37.2814Z" fill="#37474F"/>
<path d="M37.2814 150.378L36.9294 157.522H18.4669L18.1149 150.378H37.2814Z" fill="#263238"/>
<path d="M38.4222 147.397H16.9696V154.211H38.4222V147.397Z" fill="#37474F"/>
</svg>
