<svg width="239" height="184" viewBox="0 0 239 184" fill="none" xmlns="http://www.w3.org/2000/svg">
<path d="M119.5 183.856C170.685 183.856 212.179 181.433 212.179 178.445C212.179 175.456 170.685 173.034 119.5 173.034C68.3146 173.034 26.8206 175.456 26.8206 178.445C26.8206 181.433 68.3146 183.856 119.5 183.856Z" fill="#F5F5F5"/>
<path d="M181.277 45.6515C181.255 45.6561 181.232 45.6561 181.21 45.6515C181.149 45.6338 181.098 45.5926 181.067 45.537C181.037 45.4814 181.03 45.416 181.047 45.3551C185.325 31.106 182.252 18.5871 172.826 11.8043C164.183 5.61423 152.396 5.70982 143.491 12.0529C118.295 29.9922 99.0368 33.4673 79.0755 23.6826C79.0473 23.6688 79.0221 23.6496 79.0012 23.626C78.9804 23.6024 78.9645 23.575 78.9543 23.5453C78.944 23.5155 78.9398 23.4841 78.9417 23.4527C78.9437 23.4213 78.9518 23.3906 78.9656 23.3624C78.9794 23.3341 78.9987 23.3089 79.0222 23.2881C79.0458 23.2672 79.0732 23.2513 79.103 23.2411C79.1327 23.2309 79.1642 23.2266 79.1956 23.2286C79.2269 23.2305 79.2576 23.2386 79.2859 23.2524C99.0655 32.951 118.181 29.4664 143.214 11.6609C152.296 5.20314 164.298 5.10754 173.103 11.4171C182.706 18.3003 185.846 31.0151 181.506 45.4938C181.489 45.5407 181.458 45.5812 181.417 45.6095C181.376 45.6378 181.327 45.6525 181.277 45.6515Z" fill="#407BFF"/>
<path d="M165.46 118.9C160.629 118.878 155.871 117.72 151.569 115.521C133.883 106.616 120.126 107.017 114.825 116.592C114.81 116.619 114.79 116.644 114.765 116.663C114.741 116.683 114.713 116.698 114.683 116.707C114.652 116.716 114.621 116.719 114.589 116.715C114.558 116.712 114.528 116.702 114.5 116.687C114.445 116.656 114.404 116.605 114.387 116.544C114.369 116.483 114.375 116.418 114.405 116.362C119.849 106.534 133.821 106.061 151.784 115.091C156.079 117.313 160.85 118.456 165.686 118.42C170.522 118.385 175.276 117.171 179.537 114.885C190.096 109.393 198.021 98.3176 199.728 86.6831C199.732 86.652 199.743 86.6221 199.759 86.5952C199.775 86.5682 199.797 86.5448 199.822 86.5261C199.847 86.5075 199.876 86.494 199.907 86.4865C199.937 86.479 199.969 86.4775 200 86.4823C200.062 86.4929 200.118 86.5272 200.155 86.578C200.193 86.6288 200.209 86.6922 200.201 86.7548C198.47 98.5518 190.445 109.761 179.757 115.32C175.35 117.651 170.445 118.879 165.46 118.9Z" fill="#407BFF"/>
<path d="M195.12 90.9755H195.038C194.979 90.9539 194.93 90.9096 194.903 90.8522C194.876 90.7948 194.873 90.7291 194.895 90.6696C200.024 76.5733 192.706 70.9425 185.626 65.4933C178.934 60.3309 171.98 54.9773 175.933 42.578C175.942 42.5478 175.957 42.5198 175.977 42.4956C175.998 42.4715 176.023 42.4517 176.051 42.4374C176.079 42.4231 176.109 42.4146 176.141 42.4125C176.172 42.4104 176.204 42.4146 176.234 42.425C176.263 42.4342 176.291 42.4493 176.315 42.4692C176.338 42.4892 176.358 42.5136 176.372 42.5412C176.386 42.5688 176.395 42.5989 176.398 42.6298C176.4 42.6608 176.396 42.6919 176.387 42.7214C172.558 54.8052 179.035 59.786 185.942 65.1013C193.155 70.6509 200.617 76.3917 195.368 90.8177C195.352 90.869 195.318 90.9129 195.272 90.9417C195.227 90.9706 195.173 90.9825 195.12 90.9755Z" fill="#407BFF"/>
<path opacity="0.1" d="M190.593 93.2746C187.099 105.153 173.772 114.254 161.717 111.439C147.1 108.002 139.394 95.5451 141.985 83.4374C144.576 71.3297 158.07 77.5484 170.187 74.9529C185.732 71.6021 194.068 81.3916 190.593 93.2746Z" fill="#407BFF"/>
<path d="M121.025 25.0163C121.065 25.3407 121.009 25.67 120.862 25.9621C120.715 26.2542 120.484 26.4961 120.199 26.6569C119.915 26.8177 119.589 26.8902 119.263 26.8652C118.936 26.8403 118.625 26.7189 118.368 26.5166C118.111 26.3143 117.92 26.0402 117.82 25.7291C117.719 25.418 117.713 25.0839 117.802 24.7694C117.892 24.4549 118.073 24.1741 118.322 23.9627C118.572 23.7513 118.879 23.6189 119.204 23.5823C119.635 23.5336 120.068 23.6569 120.409 23.9253C120.75 24.1937 120.971 24.5857 121.025 25.0163Z" fill="white"/>
<path d="M119.385 27.0812C119.022 27.0808 118.666 26.9752 118.362 26.7772C118.057 26.5793 117.816 26.2973 117.668 25.9655C117.52 25.6336 117.471 25.266 117.527 24.9069C117.583 24.5479 117.742 24.2127 117.984 23.9419C118.226 23.6711 118.542 23.4762 118.893 23.3807C119.243 23.2853 119.614 23.2933 119.96 23.4038C120.307 23.5143 120.613 23.7227 120.844 24.0037C121.074 24.2847 121.218 24.6264 121.259 24.9876C121.308 25.4832 121.161 25.9782 120.851 26.3674C120.54 26.7567 120.09 27.0093 119.596 27.0717C119.526 27.0795 119.455 27.0827 119.385 27.0812ZM119.385 23.7878H119.232C118.956 23.8188 118.695 23.9309 118.483 24.1099C118.271 24.289 118.116 24.527 118.039 24.7939C117.962 25.0608 117.965 25.3446 118.049 25.6094C118.133 25.8742 118.294 26.1082 118.511 26.2817C118.728 26.4553 118.991 26.5606 119.268 26.5845C119.545 26.6083 119.823 26.5496 120.066 26.4157C120.31 26.2818 120.508 26.0788 120.636 25.8323C120.764 25.5857 120.816 25.3068 120.786 25.0306C120.74 24.69 120.573 24.3772 120.316 24.1491C120.059 23.9209 119.729 23.7928 119.385 23.7878Z" fill="#407BFF"/>
<path d="M177.816 42.4537C177.857 42.7784 177.8 43.1079 177.653 43.4002C177.506 43.6925 177.275 43.9344 176.99 44.0952C176.705 44.256 176.379 44.3284 176.052 44.3031C175.726 44.2778 175.415 44.156 175.158 43.9533C174.901 43.7505 174.71 43.4759 174.61 43.1644C174.51 42.8529 174.504 42.5187 174.595 42.2041C174.685 41.8896 174.867 41.609 175.117 41.3981C175.367 41.1871 175.674 41.0554 176 41.0197C176.43 40.9724 176.862 41.0963 177.202 41.3646C177.541 41.6329 177.762 42.0241 177.816 42.4537Z" fill="white"/>
<path d="M176.157 44.5234C175.854 44.5265 175.554 44.4563 175.283 44.3188C175.013 44.1814 174.779 43.9807 174.603 43.7337C174.426 43.4868 174.312 43.201 174.269 42.9004C174.226 42.5998 174.257 42.2934 174.358 42.0072C174.459 41.7209 174.627 41.4632 174.849 41.2559C175.071 41.0487 175.339 40.8979 175.632 40.8165C175.924 40.7351 176.232 40.7254 176.529 40.7882C176.826 40.851 177.104 40.9846 177.338 41.1774C177.728 41.492 177.978 41.9468 178.036 42.4441C178.088 42.9409 177.944 43.4385 177.634 43.8303C177.32 44.2059 176.87 44.4428 176.382 44.49C176.308 44.5066 176.233 44.5178 176.157 44.5234ZM176.157 41.23C176.105 41.2253 176.052 41.2253 176 41.23C175.814 41.2472 175.633 41.3019 175.469 41.3906C175.305 41.4793 175.16 41.6003 175.044 41.7462C174.927 41.8907 174.841 42.0568 174.789 42.2348C174.738 42.4128 174.722 42.5993 174.742 42.7835C174.79 43.1514 174.979 43.4864 175.269 43.7181C175.558 43.9499 175.927 44.0603 176.296 44.0263C176.671 43.9851 177.014 43.7979 177.252 43.5053C177.368 43.3616 177.453 43.1962 177.504 43.0189C177.555 42.8416 177.57 42.656 177.548 42.4728C177.513 42.128 177.35 41.8088 177.092 41.5773C176.834 41.3458 176.499 41.2186 176.153 41.2205L176.157 41.23Z" fill="#407BFF"/>
<path d="M194.235 103.762C194.275 104.085 194.217 104.413 194.07 104.704C193.923 104.995 193.693 105.235 193.409 105.395C193.125 105.555 192.8 105.627 192.475 105.601C192.15 105.576 191.84 105.454 191.584 105.253C191.328 105.051 191.138 104.777 191.038 104.467C190.938 104.157 190.932 103.824 191.022 103.511C191.111 103.197 191.292 102.918 191.541 102.707C191.789 102.496 192.095 102.364 192.419 102.328C192.849 102.281 193.281 102.405 193.621 102.673C193.961 102.941 194.181 103.332 194.235 103.762Z" fill="white"/>
<path d="M192.596 105.841C192.231 105.841 191.874 105.735 191.569 105.536C191.263 105.338 191.021 105.055 190.873 104.722C190.724 104.389 190.676 104.02 190.732 103.66C190.789 103.3 190.949 102.964 191.192 102.692C191.435 102.421 191.752 102.226 192.104 102.131C192.456 102.035 192.828 102.044 193.175 102.156C193.522 102.267 193.83 102.477 194.06 102.76C194.291 103.042 194.435 103.385 194.474 103.748C194.501 103.994 194.48 104.243 194.411 104.481C194.342 104.718 194.226 104.94 194.071 105.133C193.916 105.326 193.725 105.487 193.508 105.606C193.291 105.725 193.052 105.8 192.806 105.827C192.736 105.837 192.666 105.841 192.596 105.841ZM192.596 102.548C192.543 102.543 192.49 102.543 192.438 102.548C192.162 102.58 191.902 102.693 191.69 102.872C191.479 103.052 191.325 103.29 191.248 103.557C191.172 103.824 191.176 104.107 191.261 104.372C191.345 104.636 191.506 104.869 191.723 105.043C191.94 105.216 192.203 105.321 192.48 105.344C192.757 105.368 193.034 105.309 193.277 105.175C193.52 105.041 193.718 104.838 193.846 104.592C193.974 104.345 194.026 104.067 193.996 103.791C193.955 103.416 193.768 103.072 193.475 102.835C193.224 102.644 192.916 102.543 192.6 102.548H192.596Z" fill="#407BFF"/>
<path d="M177.371 103.533C177.22 103.82 176.987 104.057 176.701 104.212C176.416 104.367 176.09 104.434 175.767 104.404C175.443 104.375 175.135 104.25 174.883 104.046C174.63 103.841 174.443 103.567 174.347 103.256C174.25 102.946 174.247 102.614 174.339 102.302C174.431 101.99 174.613 101.713 174.863 101.505C175.112 101.296 175.418 101.167 175.741 101.132C176.064 101.097 176.39 101.159 176.678 101.31C176.871 101.409 177.042 101.546 177.181 101.712C177.32 101.877 177.425 102.069 177.49 102.276C177.554 102.483 177.577 102.701 177.557 102.916C177.536 103.132 177.473 103.341 177.371 103.533Z" fill="white"/>
<path d="M175.904 104.656C175.599 104.655 175.3 104.581 175.029 104.441C174.591 104.203 174.263 103.804 174.115 103.328C173.966 102.852 174.01 102.337 174.236 101.893C174.472 101.457 174.87 101.132 175.345 100.987C175.819 100.843 176.331 100.89 176.77 101.12C177.21 101.35 177.541 101.743 177.693 102.215C177.845 102.687 177.805 103.2 177.582 103.642C177.42 103.947 177.178 104.202 176.883 104.38C176.587 104.559 176.249 104.654 175.904 104.656ZM175.904 101.362C175.655 101.362 175.41 101.428 175.195 101.554C174.98 101.679 174.802 101.86 174.68 102.077C174.557 102.293 174.495 102.539 174.498 102.788C174.502 103.037 174.571 103.28 174.7 103.494C174.829 103.707 175.012 103.882 175.23 104.001C175.449 104.121 175.695 104.18 175.944 104.172C176.193 104.165 176.436 104.092 176.647 103.96C176.858 103.828 177.031 103.643 177.147 103.423C177.317 103.09 177.35 102.703 177.239 102.346C177.129 101.989 176.883 101.689 176.554 101.511C176.351 101.414 176.129 101.367 175.904 101.372V101.362Z" fill="#407BFF"/>
<path d="M182.075 97.0078C182.031 97.0066 181.988 96.9896 181.956 96.96L172.309 88.2509C172.282 88.2174 172.268 88.1752 172.268 88.1319C172.269 88.0887 172.286 88.0472 172.315 88.0149C172.343 87.9826 172.383 87.9617 172.426 87.9559C172.469 87.9501 172.512 87.9598 172.548 87.9832L181.941 96.4629L183.237 86.2289C183.239 86.2056 183.247 86.1831 183.259 86.1628C183.27 86.1424 183.286 86.1246 183.305 86.1103C183.324 86.0961 183.345 86.0857 183.368 86.0798C183.39 86.0739 183.414 86.0726 183.437 86.076C183.461 86.0789 183.483 86.0865 183.503 86.0982C183.524 86.1099 183.542 86.1256 183.556 86.1443C183.57 86.163 183.581 86.1843 183.586 86.207C183.592 86.2298 183.594 86.2535 183.59 86.2767L182.252 96.8501C182.248 96.8824 182.236 96.913 182.215 96.9384C182.195 96.9638 182.168 96.9829 182.137 96.9935C182.118 97.0032 182.097 97.0081 182.075 97.0078Z" fill="#263238"/>
<path d="M175.904 102.949C175.88 102.949 175.856 102.944 175.833 102.934C175.811 102.924 175.791 102.91 175.775 102.892C175.742 102.858 175.723 102.813 175.723 102.765C175.723 102.718 175.742 102.673 175.775 102.639L181.936 96.6971C181.97 96.6641 182.016 96.6457 182.063 96.6457C182.11 96.6457 182.156 96.6641 182.19 96.6971C182.207 96.7136 182.22 96.7333 182.229 96.7551C182.238 96.7768 182.243 96.8002 182.243 96.8238C182.243 96.8474 182.238 96.8708 182.229 96.8925C182.22 96.9143 182.207 96.934 182.19 96.9505L176.028 102.892C176.013 102.91 175.993 102.924 175.972 102.934C175.951 102.943 175.928 102.949 175.904 102.949Z" fill="#263238"/>
<path d="M173.7 88.7815C173.572 89.0359 173.371 89.2463 173.122 89.3858C172.874 89.5254 172.59 89.5878 172.306 89.565C172.022 89.5423 171.751 89.4354 171.528 89.2581C171.305 89.0808 171.14 88.8411 171.053 88.5695C170.967 88.298 170.964 88.0069 171.044 87.7334C171.124 87.4599 171.283 87.2164 171.502 87.034C171.721 86.8516 171.989 86.7385 172.273 86.7092C172.556 86.6799 172.842 86.7357 173.093 86.8695C173.424 87.0455 173.673 87.3442 173.787 87.7016C173.9 88.059 173.869 88.4467 173.7 88.7815Z" fill="#407BFF"/>
<path d="M184.312 86.7213C184.219 86.899 184.076 87.0452 183.9 87.1415C183.725 87.2378 183.524 87.2798 183.325 87.2623C183.125 87.2447 182.935 87.1683 182.779 87.0427C182.622 86.9172 182.507 86.7482 182.447 86.557C182.387 86.3658 182.385 86.1611 182.441 85.9687C182.497 85.7763 182.609 85.6049 182.762 85.4762C182.916 85.3474 183.104 85.2671 183.304 85.2454C183.503 85.2237 183.704 85.2615 183.882 85.3542C184 85.4157 184.105 85.4998 184.19 85.6018C184.276 85.7038 184.34 85.8217 184.38 85.9486C184.42 86.0756 184.435 86.2091 184.423 86.3417C184.411 86.4743 184.374 86.6033 184.312 86.7213Z" fill="#263238"/>
<path d="M126.359 66.4493C126.367 66.1242 126.471 65.8087 126.658 65.5426C126.845 65.2766 127.106 65.0719 127.41 64.9545C127.713 64.8371 128.044 64.8123 128.361 64.8832C128.679 64.954 128.968 65.1174 129.193 65.3526C129.417 65.5878 129.567 65.8843 129.623 66.2046C129.679 66.525 129.639 66.8547 129.507 67.1522C129.376 67.4496 129.159 67.7015 128.885 67.8759C128.61 68.0502 128.29 68.1393 127.965 68.1319C127.749 68.1275 127.536 68.0805 127.338 67.9934C127.14 67.9064 126.962 67.7811 126.812 67.6247C126.663 67.4683 126.546 67.284 126.468 67.0822C126.391 66.8805 126.354 66.6654 126.359 66.4493Z" fill="white"/>
<path d="M128.004 68.3899H127.956C127.459 68.3787 126.987 68.1712 126.643 67.8128C126.299 67.4545 126.111 66.9746 126.12 66.4779C126.132 65.981 126.339 65.5086 126.697 65.1638C127.055 64.8191 127.535 64.6299 128.032 64.6376C128.516 64.6674 128.97 64.8821 129.3 65.2374C129.63 65.5927 129.811 66.0613 129.804 66.5461C129.798 67.0309 129.606 67.4948 129.267 67.8416C128.928 68.1884 128.469 68.3916 127.984 68.4091L128.004 68.3899ZM128.004 65.0965C127.637 65.0964 127.284 65.2399 127.022 65.4962C126.759 65.7526 126.607 66.1015 126.598 66.4684C126.591 66.8403 126.731 67.2001 126.988 67.4689C127.245 67.7377 127.598 67.8936 127.97 67.9024C128.155 67.9097 128.339 67.8791 128.512 67.8125C128.685 67.7459 128.842 67.6447 128.974 67.5152C129.177 67.3223 129.317 67.0733 129.378 66.8C129.438 66.5267 129.415 66.2417 129.313 65.9813C129.21 65.721 129.032 65.4972 128.801 65.3388C128.571 65.1803 128.298 65.0943 128.018 65.0918L128.004 65.0965Z" fill="#407BFF"/>
<path d="M121.928 66.478C121.884 66.4783 121.841 66.4625 121.808 66.4335C121.774 66.4044 121.752 66.3641 121.747 66.3202L121.197 61.349C121.192 61.3254 121.192 61.301 121.197 61.2773L123.109 54.6331C123.125 54.5918 123.156 54.5581 123.196 54.5386C123.236 54.5191 123.281 54.5153 123.324 54.528C123.37 54.5413 123.409 54.5724 123.433 54.6146C123.456 54.6567 123.462 54.7063 123.448 54.7526L121.565 61.3634L122.115 66.2963C122.119 66.3436 122.105 66.3906 122.076 66.4279C122.046 66.4652 122.004 66.49 121.957 66.4971L121.928 66.478Z" fill="#263238"/>
<path d="M128.004 66.6692C127.964 66.6682 127.925 66.6548 127.894 66.6309L121.264 61.4637C121.227 61.4337 121.203 61.3904 121.198 61.343C121.192 61.2956 121.206 61.2479 121.235 61.2104C121.25 61.1922 121.267 61.177 121.288 61.1657C121.308 61.1544 121.33 61.1472 121.353 61.1446C121.377 61.1419 121.4 61.1438 121.422 61.1502C121.445 61.1566 121.465 61.1673 121.484 61.1817L128.104 66.3489C128.14 66.3781 128.164 66.4202 128.171 66.4665C128.177 66.5128 128.165 66.5597 128.137 66.5975C128.122 66.6184 128.101 66.6356 128.078 66.648C128.055 66.6604 128.03 66.6676 128.004 66.6692Z" fill="#263238"/>
<path d="M121.833 54.6427C121.839 54.3592 121.93 54.084 122.093 53.852C122.256 53.62 122.484 53.4415 122.749 53.3392C123.013 53.2368 123.302 53.2152 123.579 53.277C123.856 53.3388 124.108 53.4813 124.304 53.6865C124.499 53.8916 124.63 54.1502 124.679 54.4296C124.728 54.7089 124.693 54.9965 124.578 55.2559C124.463 55.5153 124.275 55.7349 124.035 55.887C123.796 56.039 123.517 56.1167 123.233 56.1101C123.045 56.1058 122.859 56.0644 122.687 55.9883C122.515 55.9122 122.359 55.8029 122.229 55.6666C122.099 55.5303 121.997 55.3697 121.929 55.1941C121.861 55.0184 121.828 54.831 121.833 54.6427Z" fill="#407BFF"/>
<path d="M120.934 66.2677C120.938 66.0659 121.002 65.8699 121.117 65.7045C121.233 65.539 121.395 65.4116 121.583 65.3384C121.771 65.2652 121.976 65.2495 122.173 65.2933C122.37 65.3371 122.549 65.4384 122.689 65.5844C122.828 65.7304 122.921 65.9145 122.955 66.1133C122.99 66.312 122.964 66.5166 122.882 66.7009C122.8 66.8853 122.665 67.0411 122.495 67.1486C122.324 67.2562 122.125 67.3106 121.923 67.3049C121.655 67.2974 121.401 67.1842 121.215 66.9899C121.03 66.7957 120.929 66.5361 120.934 66.2677Z" fill="#263238"/>
<path d="M169.054 59.8242L172.649 67.9502C172.697 68.0603 172.723 68.1788 172.725 68.2989C172.727 68.419 172.705 68.5383 172.66 68.6499C172.616 68.7615 172.55 68.8631 172.466 68.949C172.382 69.0348 172.281 69.1031 172.171 69.15C171.948 69.2445 171.697 69.2472 171.473 69.1577C171.248 69.0682 171.068 68.8937 170.971 68.672L167.372 60.546C167.277 60.3234 167.274 60.0725 167.364 59.8478C167.453 59.6231 167.628 59.4429 167.85 59.3462C168.073 59.2502 168.325 59.2467 168.551 59.3363C168.776 59.4259 168.958 59.6013 169.054 59.8242Z" fill="#407BFF"/>
<path d="M145.575 106.706L157.855 105.846C158.001 105.837 158.145 105.886 158.255 105.983C158.366 106.08 158.433 106.216 158.443 106.362C158.452 106.508 158.403 106.651 158.308 106.761C158.212 106.871 158.077 106.939 157.931 106.95L145.651 107.811C145.579 107.816 145.506 107.807 145.437 107.783C145.368 107.76 145.304 107.723 145.25 107.675C145.195 107.627 145.15 107.569 145.118 107.504C145.086 107.438 145.068 107.367 145.063 107.294C145.058 107.222 145.067 107.15 145.09 107.081C145.113 107.012 145.15 106.949 145.197 106.894C145.245 106.839 145.302 106.795 145.367 106.763C145.432 106.73 145.503 106.711 145.575 106.706Z" fill="#263238"/>
<path d="M124.328 39.3228L136.177 42.6688C136.247 42.6886 136.313 42.722 136.369 42.7672C136.426 42.8123 136.474 42.8683 136.509 42.9319C136.544 42.9954 136.566 43.0653 136.574 43.1375C136.582 43.2096 136.575 43.2827 136.555 43.3523C136.515 43.4925 136.421 43.6112 136.294 43.6828C136.167 43.7544 136.017 43.773 135.876 43.7347L124.027 40.3887C123.957 40.3689 123.892 40.3355 123.835 40.2903C123.778 40.2452 123.731 40.1892 123.695 40.1257C123.66 40.0621 123.638 39.9922 123.63 39.9201C123.622 39.8479 123.629 39.7749 123.649 39.7052C123.689 39.565 123.783 39.4463 123.91 39.3747C124.037 39.3031 124.187 39.2845 124.328 39.3228Z" fill="#263238"/>
<path d="M115.49 32.54L109.276 36.5074C109.107 36.6134 108.904 36.6488 108.71 36.6058C108.516 36.5629 108.346 36.4451 108.238 36.2779C108.131 36.1093 108.095 35.9048 108.138 35.7095C108.181 35.5141 108.299 35.3438 108.468 35.2359L114.682 31.2685C114.851 31.1626 115.056 31.1279 115.251 31.1717C115.446 31.2156 115.616 31.3345 115.724 31.5027C115.777 31.5861 115.813 31.6792 115.83 31.7765C115.846 31.8739 115.844 31.9736 115.822 32.07C115.8 32.1664 115.76 32.2575 115.703 32.3381C115.646 32.4188 115.573 32.4874 115.49 32.54Z" fill="#407BFF"/>
<path d="M147.669 61.2869C147.63 61.2865 147.592 61.2738 147.561 61.2506C147.53 61.2274 147.508 61.1949 147.496 61.1578C147.485 61.1116 147.492 61.0626 147.516 61.0214C147.54 60.9803 147.579 60.9503 147.626 60.938L155.847 58.7248C155.892 58.7168 155.938 58.7258 155.976 58.75C156.014 58.7742 156.042 58.8119 156.054 58.8556C156.066 58.8993 156.062 58.946 156.041 58.9863C156.02 59.0267 155.985 59.0579 155.943 59.0737L147.702 61.2821L147.669 61.2869Z" fill="#263238"/>
<path d="M155.35 59.198C155.291 59.0935 155.265 58.974 155.274 58.8546C155.283 58.7351 155.328 58.6211 155.402 58.5267C155.475 58.4324 155.576 58.362 155.689 58.3245C155.803 58.287 155.925 58.284 156.041 58.3158C156.156 58.3477 156.26 58.413 156.338 58.5036C156.417 58.5941 156.467 58.7059 156.482 58.8247C156.497 58.9436 156.476 59.0642 156.423 59.1715C156.37 59.2787 156.286 59.3678 156.182 59.4275C156.112 59.4681 156.035 59.4944 155.956 59.5048C155.876 59.5152 155.795 59.5096 155.717 59.4882C155.64 59.4668 155.568 59.4301 155.504 59.3803C155.441 59.3304 155.389 59.2685 155.35 59.198Z" fill="#407BFF"/>
<path d="M147.138 61.4112C147.059 61.2698 147.039 61.1028 147.083 60.9469C147.127 60.791 147.231 60.6588 147.372 60.5794C147.441 60.5396 147.518 60.5139 147.597 60.5039C147.676 60.4939 147.757 60.4997 147.834 60.5211C147.911 60.5424 147.983 60.5789 148.045 60.6283C148.108 60.6777 148.16 60.7391 148.199 60.8089C148.246 60.8788 148.278 60.9577 148.293 61.0405C148.308 61.1234 148.306 61.2086 148.287 61.2906C148.268 61.3726 148.232 61.4497 148.181 61.5171C148.131 61.5846 148.067 61.6408 147.993 61.6824C147.92 61.724 147.839 61.75 147.755 61.7588C147.672 61.7676 147.587 61.759 147.506 61.7335C147.426 61.7081 147.352 61.6663 147.289 61.6108C147.225 61.5553 147.174 61.4874 147.138 61.4112Z" fill="#407BFF"/>
<path d="M161.272 80.5216C161.35 80.3302 161.367 80.1193 161.319 79.9182C161.272 79.717 161.164 79.5354 161.01 79.3983L146.564 67.8355C146.499 67.7772 146.42 67.7361 146.334 67.716C146.249 67.6958 146.16 67.6971 146.075 67.7199C145.99 67.7426 145.912 67.786 145.848 67.8463C145.784 67.9065 145.736 67.9816 145.709 68.0649L141.106 78.5809L131.928 85.4785C131.852 85.5238 131.789 85.5874 131.744 85.6634C131.699 85.7395 131.673 85.8256 131.67 85.9139C131.667 86.0022 131.685 86.09 131.725 86.1692C131.764 86.2484 131.822 86.3166 131.895 86.3675L146.34 97.9304C146.507 98.0495 146.708 98.1136 146.913 98.1136C147.119 98.1136 147.319 98.0495 147.487 97.9304L156.688 91.0185L161.272 80.5216Z" fill="#407BFF"/>
<path d="M156.225 90.6648L140.661 78.2081L145.269 67.6921C145.296 67.6088 145.343 67.5337 145.407 67.4734C145.47 67.413 145.548 67.3695 145.632 67.3467C145.717 67.3239 145.806 67.3226 145.891 67.3429C145.976 67.3631 146.055 67.4043 146.12 67.4627L160.57 79.0255C160.724 79.1631 160.831 79.345 160.877 79.5461C160.923 79.7473 160.906 79.9578 160.828 80.1488L156.225 90.6648Z" fill="#407BFF"/>
<path d="M155.866 89.2929C155.84 89.2928 155.814 89.2825 155.795 89.2642L141.827 78.0886C141.782 78.0421 141.751 77.9838 141.737 77.9204C141.724 77.8569 141.729 77.791 141.751 77.7301L145.79 68.4808C145.798 68.4638 145.809 68.4487 145.823 68.4363C145.837 68.424 145.853 68.4147 145.871 68.4091C145.889 68.4056 145.908 68.4059 145.926 68.41C145.944 68.4141 145.962 68.4219 145.976 68.433L159.939 79.6086C159.986 79.6541 160.018 79.7125 160.031 79.7763C160.045 79.8401 160.039 79.9065 160.015 79.9671L155.957 89.2212C155.95 89.238 155.939 89.2529 155.925 89.2645C155.91 89.2762 155.894 89.2843 155.876 89.2881L155.866 89.2929ZM142.004 77.9069L155.828 88.9822L159.819 79.862C159.826 79.8353 159.826 79.8074 159.819 79.7807L145.981 68.7102L141.966 77.8257C141.957 77.852 141.957 77.8806 141.966 77.9069H142.004Z" fill="white"/>
<path d="M156.225 90.6648L140.661 78.2081L131.45 85.12C131.375 85.1661 131.313 85.23 131.268 85.306C131.224 85.3819 131.199 85.4677 131.196 85.5556C131.193 85.6435 131.211 85.7308 131.249 85.8099C131.288 85.889 131.345 85.9574 131.417 86.009L145.866 97.5719C146.034 97.6917 146.234 97.7562 146.44 97.7562C146.646 97.7562 146.846 97.6917 147.014 97.5719L156.225 90.6648Z" fill="#407BFF"/>
<path opacity="0.3" d="M136.23 83.208L139.963 80.4069C140.143 80.2766 140.36 80.2065 140.582 80.2065C140.804 80.2065 141.021 80.2766 141.201 80.4069L153.39 90.1581C153.466 90.2142 153.527 90.288 153.568 90.3731C153.609 90.4582 153.628 90.5519 153.624 90.6462C153.62 90.7405 153.594 90.8324 153.546 90.914C153.499 90.9955 153.432 91.0642 153.352 91.1141L149.623 93.9152C149.442 94.0444 149.225 94.1139 149.002 94.1139C148.779 94.1139 148.562 94.0444 148.381 93.9152L136.196 84.164C136.122 84.1069 136.063 84.033 136.023 83.9484C135.983 83.8638 135.964 83.7708 135.967 83.6774C135.971 83.5839 135.996 83.4925 136.042 83.4109C136.087 83.3292 136.152 83.2597 136.23 83.208Z" fill="white"/>
<path opacity="0.3" d="M136.899 88.8054L138.783 87.3714C138.864 87.3126 138.962 87.281 139.062 87.281C139.163 87.281 139.26 87.3126 139.342 87.3714L144.356 91.4009C144.392 91.425 144.421 91.4574 144.441 91.4953C144.461 91.5332 144.471 91.5755 144.471 91.6184C144.471 91.6613 144.461 91.7035 144.441 91.7415C144.421 91.7794 144.392 91.8118 144.356 91.8359L142.444 93.246C142.363 93.3047 142.265 93.3363 142.164 93.3363C142.064 93.3363 141.966 93.3047 141.885 93.246L136.88 89.2403C136.846 89.2147 136.818 89.181 136.799 89.1422C136.781 89.1034 136.772 89.0607 136.774 89.0178C136.776 88.9749 136.789 88.9331 136.81 88.896C136.832 88.859 136.863 88.8279 136.899 88.8054Z" fill="white"/>
<path opacity="0.4" d="M171.602 34.3898C172.302 31.9016 172.359 29.2766 171.769 26.76C171.18 24.2435 169.962 21.9174 168.23 19.999C166.497 18.0806 164.307 16.6325 161.864 15.7898C159.42 14.9471 156.803 14.7373 154.257 15.1801C151.71 15.6229 149.317 16.7037 147.302 18.3217C145.286 19.9398 143.713 22.0422 142.73 24.4327C141.747 26.8232 141.386 29.4239 141.68 31.9918C141.975 34.5597 142.915 37.0111 144.413 39.1172C144.951 39.8526 145.318 40.6984 145.489 41.5933C145.684 42.6808 146.18 43.6918 146.921 44.5114C147.663 45.331 148.619 45.9264 149.681 46.2299L154.552 47.6113C155.615 47.9144 156.742 47.9124 157.805 47.6056C158.867 47.2988 159.822 46.6995 160.56 45.8762C161.166 45.2069 161.917 44.6839 162.754 44.3466C164.884 43.4615 166.787 42.1061 168.319 40.3818C169.851 38.6576 170.973 36.6092 171.602 34.3898Z" fill="#407BFF"/>
<path d="M155.183 51.4018L147.181 49.1266C146.891 49.0431 146.646 48.8486 146.5 48.5853C146.353 48.3221 146.316 48.0115 146.397 47.7212C146.439 47.575 146.509 47.4385 146.604 47.3197C146.699 47.2009 146.817 47.1021 146.95 47.0292C147.083 46.9562 147.23 46.9106 147.381 46.8948C147.533 46.879 147.685 46.8935 147.831 46.9373L155.828 49.2126C156.118 49.2961 156.363 49.4906 156.509 49.7538C156.656 50.017 156.693 50.3276 156.612 50.6179C156.571 50.764 156.501 50.9004 156.406 51.0192C156.312 51.1379 156.195 51.2367 156.062 51.3097C155.929 51.3826 155.782 51.4284 155.632 51.4442C155.481 51.46 155.328 51.4456 155.183 51.4018Z" fill="#407BFF"/>
<path d="M153.5 54.3607L147.057 52.5299C146.767 52.4454 146.522 52.2499 146.375 51.986C146.228 51.722 146.192 51.4107 146.273 51.1198C146.356 50.8302 146.551 50.5853 146.814 50.4384C147.077 50.2916 147.388 50.2548 147.678 50.3359L154.122 52.1714C154.411 52.2549 154.656 52.4494 154.803 52.7126C154.95 52.9759 154.987 53.2865 154.905 53.5767C154.822 53.8664 154.627 54.1113 154.364 54.2581C154.101 54.405 153.79 54.4418 153.5 54.3607Z" fill="#407BFF"/>
<path d="M154.571 47.836H154.528C154.466 47.8243 154.41 47.7888 154.374 47.7371C154.337 47.6853 154.322 47.6213 154.332 47.5587C154.408 47.0807 155.656 39.7386 158.027 34.1986C157.367 34.0743 156.655 33.907 155.89 33.6919C155.125 33.4768 154.427 33.2426 153.801 32.9988C152.907 38.9547 150.097 45.8618 149.92 46.3064C149.896 46.3653 149.849 46.4123 149.791 46.4369C149.732 46.4616 149.666 46.4619 149.607 46.4378C149.548 46.4137 149.501 46.3672 149.476 46.3085C149.452 46.2498 149.451 46.1837 149.475 46.1247C149.518 46.0148 152.444 38.8209 153.342 32.8124C148.701 30.9004 148.013 28.3957 147.951 27.3106C147.899 26.7116 148.035 26.1113 148.338 25.5925C148.642 25.0737 149.1 24.6619 149.647 24.414C150.737 23.9646 151.947 24.3279 152.884 25.37C154.145 26.804 154.274 29.4999 153.873 32.5113C154.509 32.7646 155.226 32.9893 156.019 33.233C156.813 33.4768 157.549 33.625 158.228 33.7493C159.47 30.9769 161.005 28.7399 162.826 28.1949C164.179 27.7886 165.398 28.1184 166.086 29.0697C166.418 29.5685 166.587 30.1575 166.572 30.7563C166.556 31.3551 166.357 31.9346 166 32.4157C165.374 33.3095 163.481 35.059 158.514 34.2608C156.124 39.8438 154.824 47.4966 154.805 47.6161C154.801 47.6757 154.775 47.7316 154.732 47.7725C154.688 47.8134 154.631 47.8361 154.571 47.836ZM158.715 33.8305C163.471 34.5475 165.163 32.7981 165.608 32.1671C165.913 31.7652 166.086 31.2783 166.102 30.7739C166.118 30.2694 165.977 29.7724 165.699 29.3517C165.135 28.5678 164.112 28.3049 162.96 28.6538C161.311 29.1605 159.886 31.235 158.696 33.8449L158.715 33.8305ZM150.57 24.7055C150.311 24.7053 150.054 24.7556 149.815 24.8537C149.356 25.0653 148.975 25.4139 148.723 25.8514C148.472 26.2889 148.362 26.7938 148.409 27.2963C148.457 28.0707 148.973 30.4463 153.4 32.3344C153.773 29.4999 153.653 26.9904 152.511 25.6998C152.276 25.406 151.982 25.1655 151.647 24.994C151.313 24.8226 150.945 24.7243 150.57 24.7055Z" fill="white"/>
<path opacity="0.3" d="M105.124 114.87C116.402 109.269 116.626 86.7685 105.624 64.614C94.6212 42.4596 76.5593 29.0403 65.281 34.6413C54.0028 40.2423 53.7792 62.7426 64.7816 84.8971C75.784 107.052 93.846 120.471 105.124 114.87Z" fill="#407BFF"/>
<path d="M75.3902 174.821L78.9274 174.764L79.74 166.562L76.2028 166.614L75.3902 174.821Z" fill="#B55B52"/>
<path d="M51.624 168.364L54.9939 169.434L58.794 162.049L55.4241 160.979L51.624 168.364Z" fill="#B55B52"/>
<path opacity="0.2" d="M79.74 166.562L79.3193 170.792L75.7821 170.849L76.2028 166.619L79.74 166.562Z" fill="black"/>
<path opacity="0.2" d="M55.4194 160.979L58.794 162.049L56.8342 165.854L53.4596 164.788L55.4194 160.979Z" fill="black"/>
<path d="M80.6339 169.955L74.6445 170.046C74.6445 170.046 77.0345 146.782 77.785 135.788C77.9821 131.402 77.931 127.009 77.632 122.629C77.2735 116.214 77.0441 113.647 76.5613 105.54C76.2171 99.7563 75.7965 96.0136 75.7965 96.0136L88.1911 97.0317C88.1911 97.0317 88.6691 125.095 87.2733 135.798C85.8106 146.925 80.6339 169.955 80.6339 169.955Z" fill="#407BFF"/>
<path opacity="0.2" d="M79.2046 103.786C80.7581 109.56 79.2524 122.48 77.7945 125.994C77.7515 124.894 77.6942 123.771 77.632 122.648C77.2735 116.233 77.0393 113.666 76.5565 105.559C76.5565 105.397 76.5565 105.239 76.5565 105.081C77.3581 104.5 78.254 104.062 79.2046 103.786Z" fill="black"/>
<path d="M81.5038 96.482C81.5038 96.482 75.7678 125.315 72.8998 135.272C69.7641 146.18 58.641 165.572 58.641 165.572L52.4653 163.617C52.4653 163.617 59.5779 147.198 62.2021 136.452C65.1944 124.206 69.3339 95.483 69.3339 95.483L81.5038 96.482Z" fill="#407BFF"/>
<path d="M55.7109 169.2L51.8104 167.365C51.7465 167.335 51.6743 167.327 51.6057 167.344C51.537 167.36 51.4761 167.4 51.4328 167.455L49.4682 170.003C49.4202 170.066 49.3869 170.138 49.371 170.215C49.355 170.292 49.3568 170.372 49.3761 170.449C49.3954 170.525 49.4318 170.596 49.4826 170.656C49.5333 170.717 49.597 170.765 49.669 170.797C50.9357 171.361 51.8821 171.719 53.4643 172.46C54.4203 172.938 56.6956 174.076 58.0388 174.707C59.3819 175.338 60.1611 174.124 59.6879 173.712C57.5799 171.886 56.5952 170.72 56.1411 169.64C56.0572 169.445 55.9039 169.288 55.7109 169.2Z" fill="#263238"/>
<path d="M78.8987 174.353L75.0365 174.415C74.966 174.416 74.898 174.441 74.844 174.487C74.79 174.532 74.7533 174.594 74.7401 174.664L74.09 177.814C74.0732 177.89 74.074 177.969 74.0924 178.045C74.1108 178.12 74.1462 178.191 74.1961 178.251C74.2459 178.311 74.3087 178.359 74.3798 178.39C74.4509 178.422 74.5284 178.438 74.6063 178.435C76.002 178.392 78.0096 178.277 79.7639 178.249C81.8097 178.22 82.0439 178.301 84.4435 178.249C85.8775 178.249 86.2742 176.753 85.6672 176.628C82.89 176.069 82.1682 176.04 79.7543 174.602C79.4967 174.443 79.2011 174.357 78.8987 174.353Z" fill="#263238"/>
<path d="M72.5318 64.2935C76.975 63.9681 81.4404 64.1284 85.8488 64.7715C87.1611 64.9803 88.3634 65.6292 89.2581 66.6116C90.1528 67.5941 90.6868 68.8516 90.7722 70.1777C91.0734 74.8382 90.9682 83.9967 88.7742 101.176C86.0496 102.371 74.157 101.219 68.3158 99.3835C68.6313 97.4189 70.4811 81.5684 69.1236 68.3135C69.0771 67.8245 69.129 67.3312 69.2761 66.8627C69.4232 66.3941 69.6627 65.9597 69.9803 65.585C70.2979 65.2104 70.6872 64.9031 71.1254 64.6813C71.5636 64.4595 72.0418 64.3276 72.5318 64.2935Z" fill="#263238"/>
<path d="M73.5116 70.6413L72.785 72.1279C72.546 72.6378 72.3118 73.154 72.0824 73.6766C71.6044 74.7139 71.1981 75.7607 70.7918 76.8123C70.3855 77.8639 70.0365 78.9251 69.7163 79.9815C69.4128 81.0258 69.1639 82.0852 68.9706 83.1554L68.4926 81.5254C68.9009 82.0608 69.4481 82.4741 70.0748 82.7204C70.8781 83.0403 71.7232 83.2431 72.5843 83.3227C73.5367 83.4239 74.4956 83.4511 75.4523 83.4039C76.4409 83.3661 77.4269 83.2767 78.4063 83.1363H78.478C78.7639 83.0968 79.0544 83.1627 79.2954 83.3215C79.5364 83.4803 79.7115 83.7212 79.7881 83.9995C79.8647 84.2778 79.8376 84.5744 79.7118 84.8342C79.5859 85.0939 79.37 85.2991 79.1042 85.4115C78.5449 85.6505 78.043 85.8274 77.5029 85.9995C76.9627 86.1716 76.4322 86.3245 75.8825 86.4488C74.7627 86.7165 73.6198 86.8766 72.4695 86.9268C71.2223 86.9886 69.9731 86.8498 68.7698 86.5157C67.3722 86.1337 66.1142 85.3571 65.1466 84.2787C64.9676 84.0731 64.8329 83.8329 64.7507 83.5731C64.6684 83.3133 64.6405 83.0393 64.6686 82.7682V82.6487C64.7913 81.3621 64.9973 80.0847 65.2852 78.8247C65.5768 77.5962 65.9162 76.3869 66.3177 75.211C66.7192 74.0351 67.1637 72.8736 67.6561 71.7407C67.9046 71.1719 68.158 70.6127 68.4257 70.0534C68.6933 69.4941 68.961 68.954 69.2908 68.3613C69.5987 67.8315 70.0983 67.4402 70.6864 67.2681C71.2744 67.0961 71.9062 67.1565 72.451 67.4369C72.9958 67.7173 73.4121 68.1962 73.614 68.7748C73.8158 69.3533 73.7877 69.9873 73.5355 70.5457L73.5116 70.6413Z" fill="#B55B52"/>
<path d="M77.24 83.3753L79.152 81.2291L82.2829 84.0971C82.2829 84.0971 80.1558 86.4584 77.8997 85.2204L77.24 83.3753Z" fill="#B55B52"/>
<path d="M82.2734 80.4021L83.5306 81.7166C83.6332 81.8247 83.7116 81.9534 83.7605 82.0942C83.8094 82.235 83.8277 82.3846 83.8141 82.533C83.8006 82.6815 83.7555 82.8253 83.6818 82.9549C83.6082 83.0844 83.5077 83.1968 83.3872 83.2844L82.2734 84.0923L79.1425 81.2243L81.0163 80.2013C81.219 80.0928 81.4516 80.0536 81.6787 80.0899C81.9057 80.1261 82.1146 80.2358 82.2734 80.4021Z" fill="#B55B52"/>
<path d="M70.8301 64.848C67.9621 66.607 65.0941 75.9424 65.0941 75.9424L72.6465 78.7148C74.045 76.4983 75.0945 74.0801 75.7583 71.5448C76.9007 67.2189 73.9992 62.9121 70.8301 64.848Z" fill="#263238"/>
<path d="M87.0868 64.9914C87.0247 64.9914 87.1728 64.9914 87.2445 64.9914L87.5361 65.0153C87.7464 65.0153 87.9568 65.044 88.1814 65.044C88.626 65.044 89.0896 65.044 89.5533 65.044C90.5093 65.0153 91.4653 64.9101 92.4213 64.7954C92.8993 64.7333 93.3773 64.6616 93.8553 64.5707C94.3333 64.4799 94.8113 64.3939 95.318 64.3031L96.7902 63.978L98.2577 63.6147L96.4891 65.7657C96.6391 64.9027 96.7 64.0266 96.6707 63.1511C96.6365 62.1997 96.5423 61.2513 96.3887 60.3118C96.2357 59.3558 96.0366 58.3806 95.7912 57.3864C95.557 56.4304 95.2606 55.4075 94.9881 54.4849L94.9595 54.3989C94.8669 54.0749 94.8913 53.7287 95.0284 53.421C95.1656 53.1132 95.4068 52.8636 95.7096 52.7159C96.0124 52.5682 96.3576 52.5318 96.6845 52.6132C97.0115 52.6946 97.2994 52.8885 97.4976 53.1609C98.1488 54.0935 98.7304 55.0729 99.2376 56.091C99.7494 57.109 100.193 58.1597 100.566 59.2363C100.954 60.3474 101.248 61.489 101.446 62.6492C101.659 63.8831 101.721 65.1382 101.632 66.3871C101.595 66.852 101.425 67.2964 101.142 67.6669C100.859 68.0374 100.475 68.3183 100.036 68.476L99.8637 68.5381L98.2672 69.1117C97.7271 69.2886 97.1869 69.4559 96.6372 69.5897C95.5368 69.9134 94.4199 70.1783 93.2912 70.3832C92.132 70.5981 90.96 70.737 89.7827 70.7991C89.1804 70.7991 88.5782 70.8421 87.952 70.7991C87.6413 70.7991 87.321 70.7656 86.996 70.7322L86.4893 70.67C86.2981 70.6413 86.1786 70.627 85.8536 70.5553C85.134 70.3718 84.5137 69.9163 84.1231 69.2847C83.7326 68.6531 83.6022 67.8946 83.7595 67.1688C83.9168 66.4431 84.3495 65.8066 84.9665 65.3934C85.5835 64.9801 86.3367 64.8223 87.0677 64.9531L87.0868 64.9914Z" fill="#B55B52"/>
<path d="M94.515 54.3989L93.124 52.0663L97.187 50.8665C97.187 50.8665 98.0187 52.7402 97.665 54.0261C97.5915 54.2724 97.4472 54.4917 97.25 54.6566C97.0528 54.8215 96.8115 54.9247 96.556 54.9534L95.8295 55.0442C95.5714 55.0754 95.3099 55.031 95.0765 54.9164C94.8432 54.8019 94.6481 54.6221 94.515 54.3989Z" fill="#B55B52"/>
<path d="M94.1182 48.3474L95.2415 48.2184C95.5798 48.1839 95.9193 48.2707 96.1994 48.4633C96.4796 48.6559 96.6822 48.9418 96.7711 49.27L97.187 50.8665L93.124 52.0663L92.8706 49.92C92.8314 49.5468 92.9401 49.173 93.1734 48.879C93.4066 48.585 93.7458 48.3942 94.1182 48.3474Z" fill="#B55B52"/>
<path d="M82.7371 64.1358C86.0831 64.4273 93.3582 63.5908 93.3582 63.5908L93.7789 72.7302C91.3043 73.5368 88.6509 73.6197 86.1309 72.9692C81.7715 71.8602 79.0421 63.8155 82.7371 64.1358Z" fill="#263238"/>
<path d="M77.1492 55.1828C77.5412 57.7927 77.8328 62.5488 75.9447 64.1931C77.2879 65.651 79.2333 67.5391 82.3021 67.7925C84.2475 66.9368 84.7399 65.7084 83.9799 64.5564C81.1119 63.739 81.2983 61.6024 81.891 59.6187L77.1492 55.1828Z" fill="#B55B52"/>
<path opacity="0.2" d="M79.0851 56.9944L81.891 59.6139C81.7449 60.082 81.6394 60.5617 81.5755 61.0479C80.4856 60.8423 79.0277 59.5613 78.9608 58.4045C78.9121 57.9309 78.9542 57.4523 79.0851 56.9944Z" fill="black"/>
<path d="M82.7896 46.402C86.365 48.792 83.3058 52.616 83.3058 52.616C83.3058 52.616 81.5325 49.4803 82.7896 46.402Z" fill="white"/>
<path d="M75.2611 52.3961C76.1119 55.7994 76.437 57.8357 78.5019 59.2793C81.6137 61.4542 85.5716 59.0881 85.758 55.4983C85.9205 52.267 84.5008 47.2385 80.8776 46.4928C80.0782 46.3223 79.2485 46.3596 78.4676 46.6012C77.6868 46.8428 76.9809 47.2807 76.4175 47.8728C75.8541 48.465 75.452 49.1918 75.2495 49.9837C75.0471 50.7756 75.051 51.6061 75.2611 52.3961Z" fill="#B55B52"/>
<path opacity="0.2" d="M80.9063 52.2479C80.6475 52.229 80.3876 52.2614 80.1415 52.3435C79.8954 52.4255 79.6679 52.5555 79.4723 52.7259C79.9771 52.6623 80.4643 52.4999 80.9063 52.2479Z" fill="black"/>
<path opacity="0.2" d="M80.9971 52.616C80.7646 52.648 80.5418 52.7305 80.3445 52.8576C80.1471 52.9848 79.98 53.1535 79.8547 53.3521C80.2839 53.1915 80.6736 52.9405 80.9971 52.616Z" fill="black"/>
<path opacity="0.2" d="M81.0927 54.8148C81.015 54.7818 80.9309 54.7669 80.8466 54.7711C80.7624 54.7753 80.6801 54.7984 80.6061 54.8389C80.5321 54.8794 80.4682 54.9361 80.4192 55.0047C80.3702 55.0734 80.3373 55.1522 80.3231 55.2354C80.5391 55.0312 80.8042 54.8864 81.0927 54.8148Z" fill="black"/>
<path opacity="0.2" d="M83.1194 48.6103C81.8825 48.7377 80.6599 48.9793 79.4675 49.3321C81.5181 48.9927 83.1194 48.6103 83.1194 48.6103Z" fill="black"/>
<path opacity="0.2" d="M83.7313 48.8445C83.7313 48.8445 80.9493 49.4181 79.7256 50.0969C81.0842 49.7582 82.4218 49.3401 83.7313 48.8445Z" fill="black"/>
<path d="M76.2267 54.7717C77.6607 54.6283 77.0202 52.4343 76.4657 51.9372C77.5794 51.4592 78.5163 49.5902 77.7372 48.5912C81.8623 48.9115 84.2188 48.4717 84.5343 44.7672C83.3537 45.0062 82.1109 43.8112 80.5239 44.9249C80.6394 44.6953 80.7062 44.4442 80.7203 44.1875C80.7343 43.9308 80.6953 43.674 80.6055 43.4331C80.5158 43.1922 80.3773 42.9723 80.1988 42.7874C80.0203 42.6024 79.8055 42.4563 79.5679 42.3581C79.5679 42.3581 79.3098 44.7481 77.4982 45.1066C75.6865 45.4651 73.7698 46.7366 73.6503 48.075C73.2201 46.9708 72.7755 46.8991 72.7755 46.8991C72.9792 47.3124 73.0851 47.7671 73.0851 48.2279C73.0851 48.6887 72.9792 49.1434 72.7755 49.5568C72.0967 51.0816 73.2535 51.5835 73.2535 51.5835C73.2535 51.5835 71.7717 51.5835 72.7038 53.5815C73.3921 54.9773 75.9064 56.7698 76.2267 54.7717Z" fill="white"/>
<path d="M74.3338 55.5939C74.7844 56.2913 75.4921 56.7827 76.3031 56.961C77.3786 57.1856 77.8423 56.2057 77.4838 55.2258C77.1587 54.3463 76.2123 53.1704 75.1607 53.3855C74.9318 53.436 74.7192 53.5429 74.5422 53.6965C74.3652 53.8502 74.2295 54.0456 74.1473 54.2651C74.0651 54.4845 74.0391 54.7211 74.0717 54.9532C74.1042 55.1853 74.1943 55.4055 74.3338 55.5939Z" fill="#B55B52"/>
<path d="M59.3437 165.94L52.0733 163.636L52.7617 161.466L60.9307 163.287L59.3437 165.94Z" fill="#407BFF"/>
<path opacity="0.3" d="M59.3437 165.94L52.0733 163.636L52.7617 161.466L60.9307 163.287L59.3437 165.94Z" fill="black"/>
<path d="M81.3891 170.08L74.2525 170.194L74.2143 167.886L81.848 167.642L81.3891 170.08Z" fill="#407BFF"/>
<path opacity="0.3" d="M81.3891 170.08L74.2525 170.194L74.2143 167.886L81.848 167.642L81.3891 170.08Z" fill="black"/>
<path d="M81.1979 52.2861C81.2409 52.5681 81.4225 52.7641 81.609 52.7641C81.7954 52.7641 81.9101 52.4869 81.8671 52.2049C81.8241 51.9228 81.6424 51.7269 81.456 51.7269C81.2696 51.7269 81.1549 52.0041 81.1979 52.2861Z" fill="#263238"/>
<path d="M84.3861 51.8129C84.4291 52.0949 84.6108 52.2909 84.7972 52.2909C84.9836 52.2909 85.0983 52.0137 85.0553 51.7317C85.0123 51.4496 84.8306 51.2537 84.6442 51.2537C84.4578 51.2537 84.3431 51.5309 84.3861 51.8129Z" fill="#263238"/>
<path d="M83.3967 52.0997C83.8595 52.9134 84.4339 53.6583 85.1031 54.3128C84.931 54.4793 84.7247 54.6062 84.4985 54.6847C84.2722 54.7631 84.0316 54.7912 83.7934 54.7669L83.3967 52.0997Z" fill="#A02724"/>
<path d="M82.7562 55.852C82.4391 55.9008 82.1153 55.8836 81.8052 55.8013C81.4951 55.719 81.2053 55.5736 80.9541 55.374C80.946 55.3668 80.9393 55.358 80.9345 55.3482C80.9297 55.3385 80.9269 55.3278 80.9263 55.3169C80.9256 55.3061 80.9271 55.2952 80.9306 55.2849C80.9342 55.2746 80.9397 55.2651 80.9469 55.2569C80.9542 55.2487 80.9629 55.2421 80.9727 55.2373C80.9825 55.2325 80.9931 55.2297 81.004 55.2291C81.0149 55.2284 81.0258 55.2299 81.0361 55.2334C81.0464 55.237 81.0559 55.2425 81.0641 55.2497C81.3488 55.4613 81.6794 55.6027 82.0291 55.6625C82.3787 55.7223 82.7376 55.6988 83.0764 55.5939C83.0868 55.591 83.0976 55.5902 83.1083 55.5915C83.119 55.5928 83.1293 55.5963 83.1386 55.6016C83.1479 55.6069 83.1561 55.6141 83.1627 55.6226C83.1692 55.6311 83.174 55.6409 83.1768 55.6513C83.1805 55.6619 83.1818 55.6732 83.1809 55.6844C83.1799 55.6957 83.1767 55.7066 83.1713 55.7164C83.1659 55.7263 83.1585 55.735 83.1496 55.7419C83.1406 55.7488 83.1304 55.7537 83.1195 55.7564C83.0008 55.797 82.8794 55.829 82.7562 55.852Z" fill="#263238"/>
<path d="M79.4963 51.5452C79.4696 51.5523 79.4416 51.5523 79.415 51.5452C79.3947 51.5361 79.3765 51.5229 79.3616 51.5064C79.3466 51.4899 79.3352 51.4705 79.328 51.4495C79.3209 51.4284 79.3181 51.4061 79.3199 51.3839C79.3217 51.3618 79.328 51.3402 79.3385 51.3206C79.4524 51.0805 79.622 50.8711 79.8332 50.7098C80.0444 50.5485 80.291 50.4399 80.5526 50.3933C80.5968 50.3892 80.6409 50.4023 80.6756 50.4299C80.7104 50.4575 80.7331 50.4975 80.7391 50.5414C80.7432 50.5856 80.73 50.6297 80.7024 50.6644C80.6748 50.6991 80.6349 50.7219 80.5909 50.7279C80.3831 50.7655 80.1875 50.853 80.021 50.9829C79.8545 51.1128 79.722 51.2812 79.6349 51.4735C79.6186 51.495 79.5976 51.5126 79.5737 51.525C79.5497 51.5374 79.5232 51.5443 79.4963 51.5452Z" fill="white"/>
<path d="M84.998 50.4554C84.9704 50.4569 84.9429 50.4516 84.9179 50.44C84.8929 50.4283 84.8711 50.4106 84.8546 50.3885C84.735 50.2153 84.5761 50.073 84.3907 49.9733C84.2054 49.8735 83.9991 49.8192 83.7887 49.8149C83.7443 49.8149 83.7017 49.7972 83.6704 49.7659C83.639 49.7345 83.6214 49.6919 83.6214 49.6476C83.6214 49.6032 83.639 49.5606 83.6704 49.5293C83.7017 49.4979 83.7443 49.4803 83.7887 49.4803C84.0542 49.4816 84.3156 49.5466 84.551 49.6697C84.7863 49.7927 84.9888 49.9704 85.1414 50.1877C85.1546 50.2053 85.1642 50.2253 85.1696 50.2466C85.1751 50.2679 85.1763 50.29 85.1732 50.3118C85.1701 50.3335 85.1627 50.3544 85.1515 50.3733C85.1403 50.3922 85.1255 50.4087 85.1079 50.4219C85.076 50.445 85.0374 50.4568 84.998 50.4554Z" fill="white"/>
<path d="M56.5092 170.257C56.2293 170.116 55.9663 169.945 55.7253 169.745C55.7119 169.736 55.702 169.722 55.6968 169.707C55.6916 169.691 55.6916 169.675 55.6966 169.659C55.7011 169.643 55.7103 169.628 55.7231 169.617C55.7358 169.606 55.7516 169.599 55.7683 169.597C55.9165 169.597 57.2501 169.43 57.5178 169.779C57.5481 169.817 57.5668 169.864 57.5719 169.913C57.5769 169.962 57.5681 170.012 57.5464 170.056C57.5199 170.134 57.4746 170.204 57.4147 170.261C57.3547 170.318 57.2818 170.359 57.2023 170.381C56.9639 170.418 56.7197 170.375 56.5092 170.257ZM55.9929 169.726C56.3062 170.029 56.7236 170.2 57.1593 170.204C57.2133 170.189 57.2626 170.16 57.3027 170.121C57.3428 170.082 57.3724 170.033 57.3887 169.979C57.3887 169.917 57.3887 169.889 57.3887 169.869C57.2453 169.726 56.5283 169.697 55.9929 169.726Z" fill="#407BFF"/>
<path d="M55.7396 169.759C55.7262 169.751 55.7147 169.739 55.7061 169.726C55.699 169.713 55.6953 169.698 55.6953 169.683C55.6953 169.668 55.699 169.653 55.7061 169.64C55.7061 169.602 56.2367 168.717 56.753 168.584C56.8149 168.566 56.8797 168.562 56.9432 168.572C57.0067 168.582 57.0673 168.606 57.121 168.641C57.1766 168.669 57.2212 168.715 57.248 168.771C57.2748 168.827 57.2823 168.891 57.2692 168.952C57.1688 169.339 56.1985 169.74 55.7826 169.764L55.7396 169.759ZM56.9967 168.765C56.9304 168.741 56.8576 168.741 56.7912 168.765C56.4614 168.851 56.1077 169.339 55.9451 169.592C56.3897 169.497 57.0445 169.157 57.1067 168.928C57.1067 168.928 57.1067 168.861 57.0302 168.799L56.9967 168.765Z" fill="#407BFF"/>
<path d="M79.2524 174.836C79.2383 174.831 79.2256 174.823 79.2156 174.812C79.2055 174.801 79.1984 174.788 79.195 174.774C79.1931 174.756 79.1961 174.738 79.2037 174.722C79.2113 174.706 79.2232 174.692 79.2381 174.683C79.3958 174.602 80.8107 173.856 81.2409 174.09C81.2823 174.111 81.3174 174.142 81.3426 174.18C81.3678 174.219 81.3822 174.264 81.3843 174.31C81.3935 174.386 81.3844 174.463 81.3577 174.534C81.3311 174.606 81.2878 174.67 81.2313 174.721C80.8489 175.07 79.8356 174.946 79.262 174.841L79.2524 174.836ZM81.1309 174.224C80.8633 174.133 80.0985 174.439 79.5392 174.702C80.3231 174.821 80.9063 174.778 81.1214 174.582C81.1575 174.548 81.185 174.505 81.2016 174.458C81.2182 174.41 81.2235 174.36 81.217 174.31C81.2177 174.292 81.2131 174.274 81.2037 174.259C81.1944 174.244 81.1807 174.231 81.1644 174.224H81.1309Z" fill="#407BFF"/>
<path d="M79.2524 174.836H79.2285C79.2161 174.828 79.2064 174.816 79.2004 174.803C79.1945 174.789 79.1926 174.774 79.1951 174.759C79.1951 174.721 79.2763 173.765 79.7209 173.392C79.7855 173.335 79.8614 173.292 79.9437 173.265C80.026 173.239 80.1129 173.23 80.1989 173.239C80.4283 173.239 80.5 173.373 80.5144 173.469C80.5861 173.87 79.7543 174.645 79.3289 174.845C79.3166 174.851 79.3028 174.853 79.2893 174.852C79.2757 174.85 79.2629 174.845 79.2524 174.836ZM80.2562 173.402H80.1702C80.1091 173.396 80.0475 173.403 79.9891 173.422C79.9308 173.441 79.8769 173.471 79.8308 173.512C79.5709 173.823 79.4139 174.207 79.3815 174.611C79.8117 174.343 80.3757 173.732 80.3375 173.493C80.3327 173.474 80.3279 173.435 80.2562 173.411V173.402Z" fill="#407BFF"/>
<path d="M48.5887 56.5642C48.0225 51.4939 48.2824 46.3653 49.3583 41.3782L49.8363 41.4881C48.7731 46.4253 48.5165 51.502 49.0762 56.5212L48.5887 56.5642ZM50.9787 37.6259L50.5341 37.4634C50.9751 36.2652 51.499 35.0993 52.102 33.974L52.5274 34.1986C51.9303 35.3041 51.4097 36.4492 50.9691 37.6259H50.9787Z" fill="#407BFF"/>
<path d="M65.443 25.5612C81.3508 22.3825 102.827 40.6373 113.42 66.3298C124.012 92.0223 119.706 115.43 103.807 118.604C87.909 121.778 66.442 103.528 55.8304 77.8352C45.2188 52.1427 49.5447 28.716 65.443 25.5612ZM64.1906 76.167C73.5499 98.8768 91.4366 115.234 104.085 112.701C116.732 110.167 119.438 89.7088 110.079 66.999C100.719 44.2892 82.8326 27.9273 70.18 30.4607C57.5273 32.9941 54.8266 53.4525 64.1906 76.167ZM51.4328 63.8012C52.4271 62.0565 58.3112 59.7334 59.6114 61.0288L51.4328 63.8012ZM110.757 108.862C112.254 108.681 113.726 112.285 112.727 113.618L110.757 108.862ZM88.5734 36.8754C89.5772 36.603 90.4567 35.2215 90.5762 34.4137L88.5734 36.8754Z" fill="white"/>
<path d="M100.117 119.201C84.6442 119.201 65.4191 101.721 55.6105 77.9261C48.7847 61.3777 47.9195 44.7959 53.3448 34.6527C56.0551 29.5859 60.2232 26.3594 65.3952 25.3269C81.3795 22.1339 103.023 40.4843 113.64 66.239C120.461 82.7921 121.331 99.3739 115.901 109.512C115.092 111.046 114.089 112.469 112.918 113.747C110.523 116.364 107.351 118.144 103.869 118.824C102.634 119.074 101.377 119.2 100.117 119.201ZM51.7005 63.8251C52.7285 68.5863 54.1844 73.245 56.0503 77.7444C66.5663 103.294 87.9855 121.52 103.759 118.374C107.141 117.713 110.221 115.986 112.55 113.446C113.028 112.715 112.746 111.204 112.163 110.201C111.761 109.503 111.278 109.101 110.848 109.101C109.084 111.071 106.727 112.414 104.132 112.925C91.3745 115.483 73.3587 99.0202 63.9803 76.2483C61.9531 71.3794 60.4206 66.319 59.4058 61.1435C59.0999 60.8949 58.4833 60.8232 57.6516 60.9332C55.448 61.22 52.4653 62.6922 51.7005 63.8251ZM64.4105 76.0762C73.7172 98.6474 91.494 114.976 104.041 112.466C107.732 111.73 110.609 109.474 112.598 105.774C117.196 97.1703 116.144 82.3523 109.854 67.1089C100.547 44.533 82.7753 28.2093 70.2278 30.714C66.5328 31.4501 63.6505 33.7111 61.662 37.406C57.0684 46.0004 58.12 60.8137 64.4105 76.0762ZM111.216 108.676C111.813 108.92 112.298 109.376 112.579 109.957C113.052 110.758 113.297 111.674 113.286 112.605C114.13 111.576 114.868 110.464 115.49 109.288C120.853 99.2735 119.978 82.8447 113.21 66.4206C107.822 53.3521 99.5865 42.2003 90.7435 34.8439C90.4363 35.7216 89.8374 36.4674 89.0466 36.9567C97.2156 43.5292 105.103 54.2412 110.327 66.9082C116.67 82.295 117.712 97.2659 113.052 105.98C112.532 106.938 111.917 107.841 111.216 108.676ZM65.486 25.7954C60.4574 26.7992 56.404 29.9396 53.7607 34.8774C49.9988 41.9088 49.3057 52.0854 51.5714 63.218C52.7377 61.9752 55.6105 60.7276 57.5703 60.4647C58.138 60.3595 58.7225 60.389 59.2768 60.5508C57.5847 51.182 58.2013 42.8648 61.2366 37.1766C63.2681 33.3812 66.3416 30.9626 70.1274 30.2217C75.6674 29.1175 82.2017 31.5935 88.5877 36.6173C89.3908 36.3353 90.1317 35.2263 90.3085 34.5093C81.9579 27.7074 73.0719 24.2801 65.486 25.7954Z" fill="#407BFF"/>
<path d="M87.0343 52.7355L101.934 51.1963L101.58 48.4908L86.7857 50.8235L87.0343 52.7355Z" fill="#407BFF"/>
<path opacity="0.2" d="M95.3897 49.4659L95.7004 51.8368L101.929 51.1963L101.575 48.4908L95.3897 49.4659Z" fill="black"/>
<path d="M96.5034 51.6982C96.5228 51.8104 96.5816 51.9121 96.6692 51.9848C96.7568 52.0575 96.8676 52.0966 96.9814 52.0949L114.261 50.4984C114.949 50.4076 114.362 45.9096 113.678 46.0004L96.5608 48.8684C96.4461 48.8926 96.3443 48.958 96.2746 49.0523C96.205 49.1466 96.1725 49.2632 96.1832 49.3799L96.5034 51.6982Z" fill="#407BFF"/>
<path d="M87.0868 53.1274C87.1648 53.1179 87.2357 53.0778 87.2841 53.0159C87.3325 52.9541 87.3544 52.8756 87.345 52.7976L87.0677 50.6848C87.057 50.6065 87.0159 50.5355 86.9533 50.4872C86.8907 50.4389 86.8116 50.4172 86.7331 50.4267C86.6557 50.4386 86.5859 50.4801 86.5386 50.5426C86.4913 50.6051 86.4702 50.6835 86.4798 50.7613L86.757 52.8741C86.7617 52.9125 86.774 52.9496 86.7932 52.9832C86.8124 53.0168 86.8381 53.0463 86.8688 53.0699C86.8995 53.0935 86.9346 53.1107 86.972 53.1206C87.0095 53.1305 87.0485 53.1328 87.0868 53.1274Z" fill="#407BFF"/>
<path d="M149.428 125.372C149.459 125.249 149.537 125.143 149.647 125.077C149.756 125.012 149.887 124.992 150.011 125.023C150.134 125.054 150.24 125.133 150.306 125.243C150.371 125.352 150.391 125.483 150.36 125.607C150.433 127.1 150.103 128.586 149.404 129.909C147.893 132.504 144.753 133.427 144.753 133.427L149.428 125.372Z" fill="#407BFF"/>
<path d="M145.556 139.043C142.898 139.081 140.302 138.241 138.171 136.653C136.435 135.2 135.045 133.377 134.103 131.319C134.062 131.269 134.032 131.212 134.014 131.151C133.995 131.089 133.989 131.025 133.995 130.961C134.002 130.898 134.021 130.836 134.051 130.779C134.081 130.723 134.123 130.673 134.172 130.633C134.222 130.592 134.279 130.562 134.34 130.543C134.401 130.525 134.466 130.519 134.53 130.525C134.593 130.532 134.655 130.551 134.711 130.581C134.768 130.611 134.818 130.652 134.858 130.702L145.556 139.043Z" fill="#407BFF"/>
<path d="M154.59 145.061C151.822 149.134 146.56 150.276 146.56 150.276L155.766 136.744C155.81 136.634 155.894 136.544 156.001 136.493C156.108 136.441 156.23 136.431 156.344 136.464C156.458 136.497 156.555 136.572 156.617 136.673C156.679 136.774 156.701 136.895 156.679 137.012C156.712 138.89 156.469 142.294 154.59 145.061Z" fill="#407BFF"/>
<path d="M146.445 166.939H146.416C146.388 166.936 146.361 166.927 146.336 166.912C146.312 166.898 146.29 166.879 146.273 166.856C146.256 166.833 146.244 166.807 146.237 166.78C146.231 166.752 146.23 166.723 146.235 166.695C147.669 156.543 145.044 129.459 141.966 122.786C141.954 122.761 141.947 122.733 141.946 122.704C141.945 122.676 141.949 122.648 141.959 122.621C141.969 122.595 141.984 122.57 142.003 122.549C142.022 122.528 142.045 122.512 142.071 122.5C142.097 122.488 142.125 122.481 142.153 122.48C142.181 122.479 142.21 122.483 142.236 122.493C142.263 122.503 142.287 122.517 142.308 122.537C142.329 122.556 142.346 122.579 142.358 122.605C145.46 129.297 148.094 156.543 146.66 166.758C146.652 166.809 146.626 166.855 146.586 166.888C146.547 166.922 146.497 166.94 146.445 166.939Z" fill="#263238"/>
<path d="M140.446 154.908H152.444C152.594 154.907 152.742 154.938 152.879 154.998C153.017 155.058 153.14 155.146 153.242 155.256C153.343 155.366 153.421 155.496 153.469 155.638C153.518 155.779 153.537 155.93 153.524 156.079L151.827 177.517C151.805 177.789 151.682 178.042 151.482 178.226C151.282 178.411 151.019 178.512 150.747 178.512H142.143C141.871 178.512 141.608 178.411 141.408 178.226C141.208 178.042 141.084 177.789 141.063 177.517L139.361 156.079C139.349 155.93 139.368 155.779 139.417 155.637C139.467 155.496 139.545 155.366 139.647 155.256C139.749 155.146 139.872 155.058 140.01 154.998C140.147 154.938 140.296 154.907 140.446 154.908Z" fill="#407BFF"/>
<path d="M140.379 123.891C140.616 124.244 140.953 124.519 141.347 124.681C141.74 124.843 142.173 124.884 142.59 124.8C143.007 124.716 143.39 124.51 143.69 124.208C143.99 123.906 144.194 123.522 144.276 123.104C144.357 122.686 144.313 122.254 144.149 121.861C143.985 121.469 143.708 121.133 143.353 120.898C142.998 120.663 142.582 120.539 142.156 120.54C141.731 120.542 141.315 120.67 140.962 120.908C140.49 121.226 140.163 121.719 140.054 122.279C139.944 122.838 140.061 123.418 140.379 123.891Z" fill="white"/>
<path d="M142.167 125.129C141.582 125.13 141.017 124.921 140.574 124.54C140.131 124.159 139.839 123.632 139.752 123.054C139.665 122.476 139.788 121.886 140.1 121.392C140.411 120.897 140.89 120.531 141.448 120.36C142.007 120.189 142.609 120.224 143.144 120.459C143.679 120.694 144.111 121.114 144.363 121.641C144.614 122.169 144.668 122.769 144.514 123.333C144.36 123.897 144.009 124.386 143.524 124.713C143.123 124.983 142.65 125.128 142.167 125.129ZM142.167 120.827C141.752 120.828 141.35 120.968 141.024 121.223C140.698 121.479 140.467 121.837 140.367 122.239C140.268 122.642 140.305 123.066 140.474 123.444C140.644 123.823 140.934 124.134 141.3 124.328C141.666 124.523 142.087 124.589 142.495 124.517C142.903 124.445 143.276 124.239 143.553 123.931C143.831 123.623 143.998 123.231 144.027 122.818C144.056 122.404 143.947 121.993 143.715 121.649C143.543 121.395 143.31 121.188 143.039 121.045C142.767 120.903 142.464 120.829 142.157 120.831L142.167 120.827Z" fill="#407BFF"/>
<path d="M142.315 129.995C142.333 130.173 142.403 130.342 142.517 130.481C142.631 130.62 142.783 130.722 142.955 130.774C143.127 130.826 143.31 130.826 143.482 130.774C143.654 130.722 143.806 130.62 143.92 130.481C144.034 130.343 144.104 130.173 144.122 129.995C144.14 129.816 144.105 129.636 144.02 129.478C143.936 129.319 143.807 129.19 143.649 129.105C143.491 129.02 143.311 128.983 143.132 129C143.013 129.012 142.898 129.047 142.792 129.103C142.686 129.159 142.593 129.235 142.517 129.328C142.441 129.42 142.384 129.527 142.349 129.641C142.315 129.755 142.303 129.876 142.315 129.995Z" fill="#263238"/>
<path d="M144.657 148.441C144.657 148.62 144.71 148.796 144.81 148.945C144.91 149.095 145.052 149.211 145.218 149.28C145.384 149.348 145.566 149.366 145.743 149.331C145.919 149.296 146.081 149.21 146.208 149.083C146.335 148.956 146.421 148.794 146.456 148.618C146.491 148.442 146.473 148.259 146.404 148.093C146.336 147.927 146.219 147.785 146.07 147.685C145.921 147.586 145.745 147.532 145.565 147.532C145.324 147.532 145.093 147.628 144.923 147.798C144.753 147.969 144.657 148.2 144.657 148.441Z" fill="#263238"/>
<path d="M147.329 142.552C147.593 142.513 147.839 142.398 148.037 142.219C148.234 142.041 148.375 141.808 148.441 141.55C148.507 141.292 148.494 141.021 148.406 140.77C148.317 140.518 148.156 140.299 147.943 140.139C147.73 139.98 147.475 139.887 147.209 139.872C146.943 139.857 146.679 139.922 146.449 140.057C146.22 140.192 146.036 140.392 145.92 140.632C145.805 140.872 145.763 141.141 145.8 141.404C145.85 141.759 146.04 142.08 146.327 142.295C146.614 142.51 146.974 142.602 147.329 142.552Z" fill="#263238"/>
</svg>
