<svg width="302" height="316" viewBox="0 0 302 316" fill="none" xmlns="http://www.w3.org/2000/svg">
<path d="M128.799 6.50345L128.799 6.50336C134.903 3.17906 142.932 1.50104 150.991 1.5C159.05 1.49896 167.085 3.17489 173.201 6.50344L173.44 6.06426L173.201 6.50345L279.321 64.2488C285.419 67.57 290.969 73.4076 294.997 80.1771C299.024 86.9466 301.5 94.6018 301.5 101.529V214.888C301.5 221.819 299.03 229.47 295.006 236.235C290.982 243 285.432 248.833 279.321 252.159L173.201 309.904L173.44 310.344L173.201 309.905C167.097 313.229 159.068 314.909 151.009 314.911C142.95 314.913 134.915 313.237 128.799 309.905L128.799 309.904L22.6794 252.159C22.6794 252.159 22.6793 252.159 22.6793 252.159C16.581 248.838 11.0306 243 7.00344 236.232C2.97623 229.463 0.5 221.81 0.5 214.888V101.529C0.5 94.5973 2.97012 86.9463 6.99405 80.1802C11.0179 73.414 16.5684 67.5785 22.6795 64.2487L128.799 6.50345Z" fill="#101C43" stroke="#101C43"/>
<path d="M103.708 248.648H106.276V266H103.708V248.648ZM121.985 248.648H124.565V266H122.261L113.237 252.788V266H110.669V248.648H113.153L121.985 261.584V248.648ZM135.01 266.24C134.186 266.24 133.382 266.136 132.598 265.928C131.814 265.72 131.102 265.412 130.462 265.004C129.822 264.588 129.29 264.072 128.866 263.456C128.45 262.84 128.19 262.12 128.086 261.296H130.762C130.898 261.92 131.166 262.444 131.566 262.868C131.974 263.292 132.474 263.612 133.066 263.828C133.658 264.044 134.302 264.152 134.998 264.152C135.766 264.152 136.454 264.048 137.062 263.84C137.678 263.624 138.166 263.32 138.526 262.928C138.886 262.528 139.066 262.048 139.066 261.488C139.066 260.984 138.942 260.556 138.694 260.204C138.454 259.852 138.11 259.56 137.662 259.328C137.222 259.088 136.69 258.9 136.066 258.764L132.778 258.02C131.49 257.748 130.474 257.244 129.73 256.508C128.994 255.764 128.622 254.78 128.614 253.556C128.606 252.532 128.874 251.636 129.418 250.868C129.97 250.1 130.722 249.504 131.674 249.08C132.626 248.648 133.71 248.432 134.926 248.432C136.342 248.432 137.53 248.668 138.49 249.14C139.458 249.612 140.19 250.236 140.686 251.012C141.182 251.78 141.434 252.616 141.442 253.52H138.814C138.75 252.784 138.534 252.2 138.166 251.768C137.798 251.336 137.334 251.028 136.774 250.844C136.222 250.652 135.614 250.556 134.95 250.556C134.47 250.556 134.01 250.616 133.57 250.736C133.13 250.856 132.742 251.032 132.406 251.264C132.07 251.496 131.802 251.784 131.602 252.128C131.41 252.464 131.314 252.852 131.314 253.292C131.314 253.884 131.514 254.364 131.914 254.732C132.314 255.1 133.05 255.416 134.122 255.68L137.338 256.412C138.258 256.604 139.002 256.888 139.57 257.264C140.138 257.632 140.574 258.052 140.878 258.524C141.182 258.996 141.39 259.488 141.502 260C141.614 260.504 141.67 260.988 141.67 261.452C141.67 262.348 141.402 263.16 140.866 263.888C140.33 264.608 139.566 265.18 138.574 265.604C137.582 266.028 136.394 266.24 135.01 266.24ZM145.169 248.648H147.737V266H145.169V248.648ZM158.682 266.24C157.138 266.24 155.806 265.888 154.686 265.184C153.566 264.48 152.702 263.468 152.094 262.148C151.494 260.82 151.194 259.228 151.194 257.372C151.194 255.5 151.502 253.896 152.118 252.56C152.742 251.216 153.626 250.188 154.77 249.476C155.914 248.764 157.258 248.408 158.802 248.408C159.722 248.408 160.574 248.564 161.358 248.876C162.15 249.188 162.846 249.612 163.446 250.148C164.054 250.684 164.534 251.292 164.886 251.972C165.238 252.652 165.438 253.364 165.486 254.108H162.75C162.638 253.492 162.398 252.924 162.03 252.404C161.67 251.876 161.21 251.452 160.65 251.132C160.09 250.812 159.458 250.652 158.754 250.652C157.818 250.652 156.99 250.884 156.27 251.348C155.55 251.812 154.986 252.536 154.578 253.52C154.178 254.496 153.978 255.76 153.978 257.312C153.978 258.52 154.102 259.548 154.35 260.396C154.606 261.244 154.954 261.928 155.394 262.448C155.834 262.968 156.35 263.348 156.942 263.588C157.534 263.82 158.166 263.936 158.838 263.936C159.502 263.936 160.086 263.82 160.59 263.588C161.094 263.356 161.514 263.056 161.85 262.688C162.194 262.32 162.458 261.924 162.642 261.5C162.834 261.068 162.946 260.652 162.978 260.252L163.062 258.848H159.006V257L165.738 257.024V266H163.878V263.456C163.574 263.928 163.194 264.376 162.738 264.8C162.282 265.224 161.722 265.572 161.058 265.844C160.394 266.108 159.602 266.24 158.682 266.24ZM181.343 258.152H172.463V266H169.895V248.648H172.463V255.92H181.343V248.648H183.911V266H181.343V258.152ZM186.626 250.988V248.648H199.958V250.988H194.714V266H192.122V250.988H186.626Z" fill="white"/>
<path opacity="0.07" d="M208.71 134.915C214.496 129.95 218.057 120.711 218.057 108.243C218.057 82.6395 203.056 53.2067 184.583 42.7427C166.088 32.2565 151.354 44.5461 151.532 70.3498C151.621 82.6172 155.137 95.7751 160.813 107.219C165.197 116.035 168.068 125.876 169.026 135.026C169.404 138.945 171.741 142.997 174.434 144.555L195.088 156.466C197.804 158.047 200.118 156.622 200.541 153.171C201.476 145.134 204.303 138.722 208.71 134.915Z" fill="url(#paint0_linear)"/>
<path opacity="0.07" d="M200.141 177.216V171.739C200.141 168.8 198.449 165.483 196.335 164.214L173.143 150.811C171.029 149.587 169.337 150.967 169.337 153.906V159.383C169.337 163.791 171.652 168.689 174.679 171.093L194.843 182.737C197.826 183.873 200.141 181.58 200.141 177.216Z" fill="url(#paint1_linear)"/>
<path opacity="0.4" d="M197.559 143.776C203.346 138.811 206.907 129.571 206.907 117.104C206.907 91.5003 191.906 62.0676 173.432 51.6036C154.915 41.1173 140.203 53.4069 140.381 79.2107C140.47 91.478 143.987 104.636 149.662 116.08C154.047 124.896 156.918 134.737 157.875 143.887C158.253 147.805 160.59 151.857 163.283 153.416L183.938 165.327C186.653 166.908 188.968 165.483 189.391 162.032C190.348 153.995 193.174 147.561 197.559 143.776Z" fill="url(#paint2_linear)"/>
<path opacity="0.4" d="M189.012 186.077V180.6C189.012 177.662 187.321 174.344 185.206 173.075L162.015 159.672C159.9 158.448 158.209 159.828 158.209 162.767V168.244C158.209 172.652 160.523 177.55 163.55 179.955L183.715 191.599C186.697 192.734 189.012 190.441 189.012 186.077Z" fill="url(#paint3_linear)"/>
<path opacity="0.3" d="M140.292 187.992L74.0555 149.742L74.0777 184.274L134.461 219.139L140.314 227.799L140.292 187.992Z" fill="url(#paint4_linear)"/>
<path d="M67 163.212V153.839L92.0167 168.266V177.639L67 163.212Z" fill="#F2994A"/>
<path opacity="0.15" d="M123.265 186.567L108.754 178.196V181.223L123.265 189.595V186.567Z" fill="white"/>
<path opacity="0.15" d="M123.265 192.645L95.2885 176.504V179.532L123.265 195.673V192.645Z" fill="white"/>
<path opacity="0.15" d="M123.265 198.701L89.3682 179.131V182.159L123.265 201.729V198.701Z" fill="white"/>
<path d="M126.849 191.799C126.849 194.649 128.54 197.922 130.61 199.124C132.68 200.326 134.372 198.99 134.372 196.14C134.372 193.291 132.68 190.018 130.61 188.816C128.518 187.613 126.849 188.949 126.849 191.799Z" fill="#F2994A"/>
<path opacity="0.3" d="M145.455 167.22L211.67 205.469L211.692 240L151.309 205.135L145.478 207.05L145.455 167.22Z" fill="url(#paint5_linear)"/>
<path d="M192.417 211.547V202.174L217.412 216.601V225.974L192.417 211.547Z" fill="#F2C94C"/>
<path opacity="0.15" d="M162.482 185.476L176.993 193.847V196.875L162.482 188.504V185.476Z" fill="white"/>
<path opacity="0.15" d="M162.482 191.532L188.678 206.649V209.677L162.482 194.582V191.532Z" fill="white"/>
<path opacity="0.15" d="M162.482 197.61L196.379 217.18V220.207L162.482 200.638V197.61Z" fill="white"/>
<path d="M158.899 186.567C158.899 189.417 157.207 190.752 155.137 189.55C153.067 188.348 151.376 185.075 151.376 182.225C151.376 179.376 153.067 178.04 155.137 179.242C157.229 180.444 158.899 183.717 158.899 186.567Z" fill="#F2C94C"/>
<path opacity="0.15" d="M219.348 164.325L221.018 168.021L206.951 171.294L221.574 191.665L219.905 193.424L201.943 168.377L219.348 164.325Z" fill="white"/>
<path d="M224 168.467C224 171.339 222.308 172.697 220.239 171.517C218.169 170.314 216.477 167.019 216.477 164.125C216.477 161.253 218.169 159.895 220.239 161.075C222.308 162.277 224 165.595 224 168.467Z" fill="#F2994A"/>
<path d="M224 193.981C224 196.853 222.308 198.211 220.239 197.031C218.169 195.829 216.477 192.534 216.477 189.639C216.477 186.767 218.169 185.409 220.239 186.589C222.308 187.814 224 191.109 224 193.981Z" fill="#F2994A"/>
<path d="M207.953 171.628C207.953 174.5 206.261 175.858 204.191 174.678C202.121 173.476 200.43 170.181 200.43 167.286C200.43 164.414 202.121 163.056 204.191 164.236C206.261 165.439 207.953 168.756 207.953 171.628Z" fill="#F2C94C"/>
<path opacity="0.3" d="M103.012 95.3743L140.314 116.903V186.032L103.012 164.503V95.3743Z" fill="url(#paint6_linear)"/>
<path opacity="0.15" d="M106.684 136.406L136.642 153.705V156.733L106.684 139.434V136.406Z" fill="white"/>
<path opacity="0.15" d="M108.776 143.531L134.527 158.403V161.431L108.776 146.559V143.531Z" fill="white"/>
<path d="M119.66 155.887L93.7083 140.904V148.629L119.66 163.613V155.887Z" fill="#F2C94C"/>
<path d="M125.914 122.558C125.914 125.898 123.978 127.479 121.596 126.098C119.215 124.696 117.278 120.866 117.278 117.505C117.278 114.165 119.215 112.584 121.596 113.965C123.978 115.367 125.914 119.219 125.914 122.558Z" fill="#F2C94C"/>
<path d="M121.574 128.792C117.723 126.544 114.541 128.659 113.984 133.49C113.895 134.336 114.518 135.449 115.297 135.894L127.85 143.242C128.629 143.687 129.252 143.331 129.163 142.373C128.629 136.852 125.424 131.041 121.574 128.792Z" fill="#F2C94C"/>
<path opacity="0.2" d="M157.808 235.859C144.343 218.538 154.091 212.259 157.808 222.411C161.525 216.578 171.273 234.078 157.808 235.859Z" fill="url(#paint7_linear)"/>
<path opacity="0.25" d="M15 68L138.5 1.49999L158.5 -3.13882e-05L173 4.49997L181 10.5L221 31.5L260.5 53.5L283 65L293.5 75.5L1.49999 225.5L1.49999 143L1.49999 97.5L4 81.5L15 68Z" fill="url(#paint8_linear)"/>
<defs>
<linearGradient id="paint0_linear" x1="210.906" y1="71.5783" x2="142.77" y2="133.596" gradientUnits="userSpaceOnUse">
<stop stop-color="white"/>
<stop offset="1" stop-color="white" stop-opacity="0"/>
</linearGradient>
<linearGradient id="paint1_linear" x1="246.155" y1="110.294" x2="178.02" y2="172.312" gradientUnits="userSpaceOnUse">
<stop stop-color="white"/>
<stop offset="1" stop-color="white" stop-opacity="0"/>
</linearGradient>
<linearGradient id="paint2_linear" x1="199.773" y1="80.4347" x2="131.638" y2="142.453" gradientUnits="userSpaceOnUse">
<stop stop-color="white"/>
<stop offset="1" stop-color="white" stop-opacity="0"/>
</linearGradient>
<linearGradient id="paint3_linear" x1="235.023" y1="119.151" x2="166.888" y2="181.169" gradientUnits="userSpaceOnUse">
<stop stop-color="white"/>
<stop offset="1" stop-color="white" stop-opacity="0"/>
</linearGradient>
<linearGradient id="paint4_linear" x1="125.849" y1="174.161" x2="91.6434" y2="200.935" gradientUnits="userSpaceOnUse">
<stop stop-color="white"/>
<stop offset="1" stop-color="white" stop-opacity="0"/>
</linearGradient>
<linearGradient id="paint5_linear" x1="173.897" y1="168.345" x2="182.465" y2="237.814" gradientUnits="userSpaceOnUse">
<stop stop-color="white"/>
<stop offset="1" stop-color="white" stop-opacity="0"/>
</linearGradient>
<linearGradient id="paint6_linear" x1="144.303" y1="101.467" x2="111.176" y2="158.841" gradientUnits="userSpaceOnUse">
<stop stop-color="white"/>
<stop offset="1" stop-color="white" stop-opacity="0"/>
</linearGradient>
<linearGradient id="paint7_linear" x1="160.651" y1="223.079" x2="150.685" y2="231.686" gradientUnits="userSpaceOnUse">
<stop stop-color="white"/>
<stop offset="1" stop-color="white" stop-opacity="0"/>
</linearGradient>
<linearGradient id="paint8_linear" x1="281.004" y1="-22.3079" x2="257.424" y2="142.763" gradientUnits="userSpaceOnUse">
<stop stop-color="white"/>
<stop offset="1" stop-color="white" stop-opacity="0"/>
</linearGradient>
</defs>
</svg>
